<svg xmlns="http://www.w3.org/2000/svg" width="1124" height="710" viewBox="0 0 1124 710">
  <defs>
    <linearGradient id="acp-plugins-a" x1="50.007%" x2="50.007%" y1="-141.4%" y2="-47.015%">
      <stop offset="0%" stop-color="#2A6CBE"/>
      <stop offset="38.688%" stop-color="#2062BC"/>
      <stop offset="49.182%" stop-color="#1F5FBC"/>
      <stop offset="66.583%" stop-color="#1C5ABD"/>
      <stop offset="85.354%" stop-color="#1956BC"/>
      <stop offset="100%" stop-color="#1851BE"/>
    </linearGradient>
  </defs>
  <g fill="none" fill-rule="evenodd">
    <rect width="1124" height="190" fill="#2A2F45" transform="rotate(180 562 95)"/>
    <rect width="1124" height="520" y="190" fill="#FFF"/>
    <g transform="translate(50 250)">
      <rect width="122" height="38" fill="url(#acp-plugins-a)" rx="5"/>
      <rect width="78" height="9" x="21" y="15" fill="#5C84D1" rx="4.5"/>
    </g>
    <rect width="264" height="20" x="49.999" y="88.002" fill="#FFF" rx="10"/>
    <rect width="74" height="10" x="49.999" y="158.002" fill="#FFF" opacity=".4" rx="5"/>
    <rect width="54" height="10" x="144" y="158" fill="#FFF" opacity=".4" rx="5"/>
    <g transform="translate(50 308)">
      <rect width="734" height="132" x="18" fill="#ECEEF0" rx="7"/>
      <rect width="6" height="132" fill="#1851BE" opacity=".4" rx="3"/>
    </g>
    <g transform="translate(51 450)">
      <rect width="734" height="132" x="18" fill="#FFF" rx="7"/>
      <rect width="238" height="10" x="38" y="20" fill="#2A2F45" opacity=".711" rx="5"/>
      <rect width="82" height="6.5" x="38" y="107" fill="#8792A2" opacity=".403" rx="3.25"/>
      <rect width="262" height="6.5" x="129" y="107" fill="#1851BE" opacity=".6" rx="3.25"/>
      <rect width="76" height="10" x="58" y="86" fill="#8792A2" opacity=".253" rx="5"/>
      <path fill="#1851BE" fill-rule="nonzero" d="M39.7619594,96.6476643 C39.4042731,97.0684718 38.7731791,97.1196416 38.3523717,96.7619552 C37.9315642,96.4042689 37.8803944,95.773175 38.2380808,95.3523675 L46.7380807,85.3523675 C47.1013818,84.9249545 47.7451215,84.879929 48.1643839,85.2526066 L52.6643839,89.2526066 C53.0771666,89.6195246 53.1143474,90.251597 52.7474294,90.6643798 C52.3805113,91.0771625 51.748439,91.1143433 51.3356562,90.7474253 L47.5998054,87.426669 L39.7619594,96.6476643 Z" transform="rotate(-180 45.5 91)"/>
      <rect width="56" height="10" x="139" y="86" fill="#8792A2" opacity=".253" rx="5"/>
      <rect width="60" height="10" x="200" y="86" fill="#8792A2" opacity=".253" rx="5"/>
      <rect width="90" height="30" x="653" y="10" fill="#8792A2" rx="5"/>
      <rect width="58" height="7" x="668" y="22" fill="#FFF" opacity=".6" rx="3.5"/>
      <rect width="90" height="30" x="555" y="10" fill="#8792A2" opacity=".4" rx="5"/>
      <rect width="58" height="7" x="570" y="22" fill="#FFF" opacity=".7" rx="3.5"/>
      <rect width="188" height="9" x="38" y="40" fill="#2A2F45" opacity=".153" rx="4.5"/>
      <rect width="6" height="132" fill="#1851BE" opacity=".4" rx="3"/>
      <rect width="34" height="5" x="282" y="89" fill="#FFF" opacity=".4" rx="2.5"/>
    </g>
    <g transform="translate(51 592)">
      <rect width="734" height="132" x="18" fill="#FFF" rx="7"/>
      <rect width="198" height="10" x="38" y="20" fill="#2A2F45" opacity=".711" rx="5"/>
      <rect width="82" height="6.5" x="38" y="107" fill="#8792A2" opacity=".403" rx="3.25"/>
      <rect width="292" height="6.5" x="129" y="107" fill="#1851BE" opacity=".6" rx="3.25"/>
      <rect width="76" height="10" x="58" y="86" fill="#8792A2" opacity=".253" rx="5"/>
      <path fill="#1851BE" fill-rule="nonzero" d="M39.7619594,96.6476643 C39.4042731,97.0684718 38.7731791,97.1196416 38.3523717,96.7619552 C37.9315642,96.4042689 37.8803944,95.773175 38.2380808,95.3523675 L46.7380807,85.3523675 C47.1013818,84.9249545 47.7451215,84.879929 48.1643839,85.2526066 L52.6643839,89.2526066 C53.0771666,89.6195246 53.1143474,90.251597 52.7474294,90.6643798 C52.3805113,91.0771625 51.748439,91.1143433 51.3356562,90.7474253 L47.5998054,87.426669 L39.7619594,96.6476643 Z" transform="rotate(-180 45.5 91)"/>
      <rect width="56" height="10" x="139" y="86" fill="#8792A2" opacity=".253" rx="5"/>
      <rect width="76" height="10" x="200" y="86" fill="#8792A2" opacity=".253" rx="5"/>
      <rect width="90" height="30" x="653" y="10" fill="#8792A2" rx="5"/>
      <rect width="58" height="7" x="668" y="22" fill="#FFF" opacity=".6" rx="3.5"/>
      <rect width="74" height="30" x="571" y="10" fill="#BFE5E1" rx="5"/>
      <rect width="48" height="7" x="583" y="22" fill="#0E423C" opacity=".7" rx="3.5"/>
      <rect width="358" height="9" x="38" y="40" fill="#2A2F45" opacity=".153" rx="4.5"/>
      <rect width="6" height="132" fill="#1851BE" opacity=".4" rx="3"/>
      <rect width="34" height="5" x="282" y="89" fill="#FFF" opacity=".4" rx="2.5"/>
    </g>
    <g transform="translate(822 308)">
      <rect width="263" height="111" x=".5" y=".5" fill="#FFF" stroke="#FFF" rx="7"/>
      <rect width="108" height="10" x="11" y="15" fill="#8792A2" opacity=".698" rx="5"/>
      <rect width="237" height="3" x="11" y="75" fill="#8792A2" opacity=".1" rx="1.5"/>
      <rect width="155" height="10" x="11" y="60" fill="#8792A2" opacity=".15" rx="5"/>
    </g>
    <g transform="translate(822 435)">
      <rect width="264" height="112" fill="#FFF" rx="7"/>
      <g transform="translate(14 56)">
        <rect width="236" height="45" x=".5" y=".5" fill="#FFF" stroke="#ECEEF0" rx="7"/>
        <rect width="155" height="10" x="53" y="18" fill="#8792A2" opacity=".398" rx="5"/>
        <rect width="20" height="10" x="28" y="18" fill="#8792A2" opacity=".398" rx="5"/>
      </g>
      <rect width="108" height="10" x="11" y="15" fill="#8792A2" opacity=".698" rx="5"/>
    </g>
    <g transform="translate(823 562)">
      <rect width="264" height="135" fill="#FFF" rx="7"/>
      <rect width="198" height="10" x="10" y="15" fill="#8792A2" opacity=".698" rx="5"/>
      <rect width="70" height="10" x="10" y="30" fill="#8792A2" opacity=".698" rx="5"/>
      <rect width="213" height="8" x="10" y="55" fill="#8792A2" opacity=".198" rx="4"/>
      <rect width="187" height="8" x="10" y="73" fill="#8792A2" opacity=".198" rx="4"/>
      <rect width="103" height="8" x="10" y="91" fill="#1851BE" opacity=".6" rx="4"/>
    </g>
    <rect width="23" height="10" x="192" y="265" fill="#1851BE" opacity=".803" rx="5"/>
    <rect width="94" height="10" x="225" y="265" fill="#1851BE" opacity=".403" rx="5"/>
    <rect width="23" height="10" x="349" y="265" fill="#1851BE" opacity=".603" rx="5"/>
    <rect width="74" height="10" x="382" y="265" fill="#1851BE" opacity=".203" rx="5"/>
    <rect width="23" height="10" x="486" y="265" fill="#1851BE" opacity=".603" rx="5"/>
    <rect width="57" height="10" x="519" y="265" fill="#1851BE" opacity=".203" rx="5"/>
    <rect width="54" height="10" x="218" y="158" fill="#FFF" opacity=".4" rx="5"/>
    <rect width="54" height="10" x="292" y="158" fill="#FFF" opacity=".4" rx="5"/>
    <rect width="74" height="4" x="460" y="178" fill="#F84F77" rx="2"/>
    <rect width="74" height="10" x="366" y="158" fill="#FFF" opacity=".4" rx="5"/>
    <rect width="74" height="10" x="460" y="158" fill="#FFF" rx="5"/>
    <rect width="69" height="10" x="554" y="158" fill="#FFF" opacity=".4" rx="5"/>
    <rect width="59" height="10" x="643" y="158" fill="#FFF" opacity=".4" rx="5"/>
    <rect width="219" height="29" x="802.5" y="148.5" fill="#000306" stroke="#000306" opacity=".4" rx="4.5"/>
    <rect width="74" height="8" x="810" y="159" fill="#FFF" fill-opacity=".15" opacity=".7" rx="4"/>
    <rect width="7" height="7" x="1042" y="149" fill="#FFF" opacity=".25" rx="3.5" transform="matrix(-1 0 0 1 2091 0)"/>
    <rect width="7" height="7" x="1042" y="169" fill="#FFF" opacity=".25" rx="3.5" transform="matrix(-1 0 0 1 2091 0)"/>
    <rect width="7" height="7" x="1042" y="159" fill="#FFF" opacity=".25" rx="3.5" transform="matrix(-1 0 0 1 2091 0)"/>
  </g>
</svg>
