<svg xmlns="http://www.w3.org/2000/svg" width="50" height="50" viewBox="0 0 50 50">
  <g fill="#2A2F45" transform="translate(2 4)">
    <path d="M16.4882926,4.06474292 C18.4767468,0.339957787 23.1360586,-1.08325748 26.8968775,0.886204178 C30.6576963,2.85566584 32.0926364,7.4705379 30.1060473,11.1955078 C30.0187199,11.3588102 29.9258076,11.5191217 29.8274716,11.676164 L14.4240157,38.0960871 C12.3464956,41.77228 7.65304962,43.0846386 3.9414735,41.0268611 C0.229897377,38.969176 -1.09508596,34.3204926 0.982527457,30.6443921 C1.01656835,30.5843447 1.0507025,30.5261449 1.08483665,30.4679451 L16.4882926,4.06474292 Z" opacity=".503"/>
    <path d="M33.1204912,18.0234091 C35.022319,14.3365008 39.4786491,12.927758 43.0756289,14.8771925 C46.6726087,16.8266269 48.045036,21.394571 46.1449922,25.0816621 C46.0614692,25.243304 45.9726045,25.4019853 45.8785525,25.5574306 L38.7956466,38.1358046 C36.8085439,41.7745234 32.3195667,43.0736282 28.7697735,41.036776 C25.2199804,38.9999238 23.9526304,34.3986037 25.939644,30.7597935 C25.9722911,30.7003567 26.0049382,30.6427488 26.0375853,30.5851408 L33.1204912,18.0234091 Z"/>
    <circle cx="7.5" cy="34.5" r="7.5"/>
  </g>
</svg>
