<svg xmlns="http://www.w3.org/2000/svg" width="50" height="50" viewBox="0 0 50 50">
  <g fill="#2A2F45" transform="translate(3 12)">
    <path d="M12.747713,9.72602074 C12.7328476,10.1727782 12.7923094,10.6195356 12.9112329,11.0514011 C13.0450218,11.4236989 13.2085417,11.7811048 13.386927,12.1236189 C13.4463887,12.2278623 13.490985,12.3469976 13.490985,12.4661329 C13.4761196,12.6448358 13.3720615,12.8235388 13.2085417,12.9128903 L12.272019,13.5383507 C12.1530954,13.6128102 12.0193065,13.6723779 11.8855175,13.6723779 C11.7219977,13.657486 11.5584779,13.5830264 11.4395543,13.4638911 C11.2463036,13.2554043 11.0530529,13.0171337 10.9043985,12.7639712 C10.7557441,12.5108086 10.6070897,12.2278623 10.4435699,11.8853482 C9.28406555,13.2554043 7.82725244,13.9404323 6.07313053,13.9404323 C4.82443358,13.9404323 3.82844911,13.5830264 3.10004255,12.8682146 C2.371636,12.1534027 2,11.2003202 2,10.0089671 C2,8.74315443 2.4459632,7.71561238 3.35275503,6.94123286 C4.25954686,6.16685334 5.4636475,5.77966358 6.9947878,5.77966358 C7.5150782,5.77966358 8.05023404,5.82433933 8.57052443,5.89879889 C9.12054571,5.97325846 9.68543243,6.09239377 10.28005,6.226421 L10.28005,5.13931129 C10.28005,4.00752584 10.042203,3.21825441 9.58137435,2.75660508 C9.12054571,2.29495576 8.30294651,2.07157705 7.15830764,2.07157705 C6.62315181,2.07157705 6.07313053,2.1311447 5.55284013,2.26517193 C5.00281886,2.39919915 4.46766302,2.5630102 3.94737263,2.771497 C3.78385279,2.84595657 3.60546751,2.90552422 3.42708223,2.96509188 C3.35275503,2.9948757 3.26356239,3.00976762 3.18923519,3.00976762 C2.98111903,3.00976762 2.87706095,2.86084848 2.87706095,2.54811829 L2.87706095,1.81841451 C2.86219551,1.63971155 2.90679183,1.46100858 2.98111903,1.29719753 C3.10004255,1.16317031 3.23383151,1.05892691 3.39735135,0.984467342 C3.99196895,0.686629066 4.61631742,0.463250359 5.27039678,0.314331221 C6.02853421,0.120736342 6.81640253,0.0313848588 7.5894054,0.0313848588 C9.35839275,0.0313848588 10.651686,0.433466531 11.4841507,1.23762988 C12.3166153,2.04179322 12.7179822,3.26293015 12.7179822,4.90104067 L12.7179822,9.72602074 L12.747713,9.72602074 Z M6.71234445,11.9895916 C7.23263484,11.9895916 7.75292524,11.9002402 8.24348476,11.7215372 C8.79350603,11.5279423 9.26920011,11.2003202 9.65570155,10.7684547 C9.89354858,10.5004003 10.0719339,10.1727782 10.1611265,9.81537222 C10.2651846,9.39839864 10.3097809,8.95164122 10.3097809,8.51977572 L10.3097809,7.89431534 C9.8638177,7.79007195 9.40298907,7.70072046 8.94216043,7.64115281 C8.48133179,7.58158515 8.00563772,7.55180133 7.54480908,7.55180133 C6.54882461,7.55180133 5.82041805,7.74539621 5.32985854,8.14747788 C4.83929902,8.54955955 4.60145198,9.11545227 4.60145198,9.86004796 C4.60145198,10.5599679 4.77983726,11.0811849 5.15147326,11.4385908 C5.52310925,11.7959968 6.02853421,11.9895916 6.71234445,11.9895916 L6.71234445,11.9895916 Z M18.6492927,13.5979183 C18.456042,13.6128102 18.2479258,13.5681345 18.084406,13.4489992 C17.9357516,13.2851881 17.816828,13.0915933 17.7722317,12.8682146 L14.2788534,1.35676519 C14.2045262,1.16317031 14.1599298,0.969575428 14.1450644,0.761088635 C14.130199,0.582385669 14.2491225,0.418574618 14.4275078,0.38879079 L15.9735135,0.38879079 C16.2559569,0.38879079 16.4492076,0.433466531 16.5532657,0.537709928 C16.6573237,0.641953324 16.7613818,0.835548204 16.8505745,1.11849457 L19.3331029,10.9769415 L21.6521115,1.11849457 C21.7264387,0.82065629 21.8156314,0.627061411 21.9345549,0.537709928 C22.1129402,0.433466531 22.3210563,0.373898876 22.5291725,0.38879079 L23.7184077,0.38879079 C24.000851,0.38879079 24.1941018,0.433466531 24.3130253,0.537709928 C24.4616797,0.70152098 24.5657378,0.895115859 24.5954686,1.11849457 L26.9442081,11.0960768 L29.5159292,1.11849457 C29.5605256,0.895115859 29.6645836,0.70152098 29.813238,0.537709928 C29.9916233,0.433466531 30.184874,0.373898876 30.3929902,0.38879079 L31.7754761,0.38879079 C31.9538614,0.359006962 32.1173812,0.493034187 32.1471121,0.671737152 L32.1471121,0.761088635 C32.1471121,0.835548204 32.1322467,0.924899687 32.1173812,0.999359256 C32.0876503,1.13338648 32.0579195,1.25252179 32.0133231,1.3716571 L28.4307521,12.8831065 C28.3415595,13.1809447 28.2375014,13.3745396 28.1185779,13.4638911 C27.9550581,13.5681345 27.7469419,13.6277022 27.5536912,13.6128102 L26.2752633,13.6128102 C25.99282,13.6128102 25.7995693,13.5681345 25.6806458,13.4638911 C25.5319914,13.3000801 25.4279333,13.0915933 25.3982024,12.8682146 L23.0940592,3.26293015 L20.8047815,12.8533226 C20.7750506,13.0767013 20.6709925,13.2851881 20.5223381,13.4489992 C20.3439528,13.5681345 20.1358367,13.6128102 19.9277205,13.5979183 L18.6492927,13.5979183 L18.6492927,13.5979183 Z M37.7513829,14 C36.9783801,14 36.2053772,13.9106485 35.4621052,13.7319456 C34.7188332,13.5532426 34.1390811,13.3596477 33.7525796,13.136269 C33.5593289,13.0469175 33.3958091,12.8979984 33.291751,12.7192954 C33.2322892,12.5852682 33.2025583,12.451241 33.2025583,12.3023218 L33.2025583,11.5428342 C33.2025583,11.230104 33.3214819,11.0811849 33.5444635,11.0811849 C33.6336561,11.0811849 33.7228487,11.0960768 33.8120414,11.1258606 C33.901234,11.1556445 34.035023,11.2152121 34.1836774,11.2747798 C34.7039678,11.5130504 35.253989,11.6768614 35.8188758,11.7959968 C36.3986279,11.9151321 36.9932455,11.9746997 37.5878631,11.9746997 C38.5243858,11.9746997 39.2527924,11.8108887 39.7582173,11.4832666 C40.2487768,11.1854283 40.5460856,10.6493194 40.5312202,10.0685348 C40.5460856,9.681345 40.3974312,9.30904715 40.1298533,9.02610079 C39.8622754,8.74315443 39.3568505,8.4899919 38.6284439,8.25172127 L36.4729551,7.58158515 C35.387778,7.23907114 34.5850442,6.73274607 34.0944847,6.06260995 C33.6187907,5.43714957 33.3512127,4.69255388 33.3512127,3.90328245 C33.3363473,3.32249781 33.4701363,2.75660508 33.7525796,2.25028001 C34.0201575,1.77373877 34.3769281,1.35676519 34.8228913,1.02914308 C35.2837199,0.671737152 35.8040103,0.418574618 36.368897,0.254763566 C36.9783801,0.0760606002 37.6027285,-0.0132908826 38.2419425,0.00160103124 C38.5689821,0.00160103124 38.9108873,0.016492945 39.2379269,0.0611686864 C39.5798321,0.105844428 39.8920063,0.165412083 40.2041805,0.224979738 C40.5163548,0.284547393 40.7839327,0.373898876 41.0515106,0.463250359 C41.2744922,0.537709928 41.4826084,0.627061411 41.6758591,0.731304807 C41.8542444,0.82065629 42.0028988,0.9397916 42.1218223,1.10360265 C42.2258804,1.25252179 42.2704767,1.41633284 42.2556112,1.59503581 L42.2556112,2.29495576 C42.2556112,2.60768595 42.1366877,2.771497 41.9137061,2.771497 C41.7204554,2.74171317 41.5272047,2.68214551 41.3488194,2.59279403 C40.456893,2.19071236 39.475774,1.99711748 38.4946549,2.01200939 C37.6473249,2.01200939 36.9783801,2.14603662 36.5175514,2.42898298 C36.0567228,2.71192934 35.8188758,3.14379484 35.8188758,3.75436331 C35.8040103,4.15644498 35.9675302,4.54363474 36.264839,4.81168919 C36.5621478,5.09463555 37.112169,5.37758191 37.9000373,5.63074445 L40.0109298,6.30088057 C41.0812415,6.64339458 41.8542444,7.11993583 42.315073,7.73050429 C42.7759016,8.32618084 43.0137487,9.07077653 42.9988832,9.81537222 C43.0137487,10.4110488 42.8799597,11.0067253 42.6123818,11.5428342 C42.3448039,12.0491593 41.9731679,12.4959167 41.5272047,12.8533226 C41.0366452,13.2405124 40.4717584,13.5234588 39.8771408,13.6872698 C39.1933306,13.8957566 38.4797895,14 37.7513829,14 L37.7513829,14 Z"/>
    <path d="M40.6430574,21.5787564 C35.7240026,25.1200526 28.5771692,27 22.4320886,27 C13.8200048,27 6.06015845,23.8959009 0.199156987,18.7369755 C-0.264340578,18.3289249 0.154302384,17.775142 0.707509155,18.0957532 C7.04695972,21.6807691 14.8666122,23.8521812 22.9553923,23.8521812 C28.7864906,23.8230347 34.5577829,22.6717491 39.9253837,20.4711905 C40.7477181,20.1068597 41.4504402,20.995827 40.6430574,21.5787564 Z" opacity=".5"/>
    <path d="M42.8508153,19.1484679 C42.2545664,18.3702335 38.9042157,18.7737624 37.3852007,18.9611152 C36.9309158,19.0187621 36.8599338,18.6152332 37.2716295,18.3125865 C39.940553,16.4102358 44.3272411,16.9578822 44.8383115,17.5919991 C45.349382,18.226116 44.6963475,22.6937579 42.1977808,24.8266965 C41.814478,25.1581667 41.4453715,24.9852258 41.6157284,24.5528733 C42.1835844,23.1261103 43.4470642,19.9122905 42.8508153,19.1484679 L42.8508153,19.1484679 Z" opacity=".5"/>
  </g>
</svg>
