<svg xmlns="http://www.w3.org/2000/svg" xmlns:xlink="http://www.w3.org/1999/xlink" width="788" height="405" viewBox="0 0 788 405">
  <defs>
    <path id="analytics-a" d="M44,0 L794,0 C796.761424,-5.07265313e-16 799,2.23857625 799,5 L799,340 L799,340 L39,340 L39,5 C39,2.23857625 41.2385763,5.07265313e-16 44,0 Z"/>
  </defs>
  <g fill="none" fill-rule="evenodd" transform="translate(-11 -21)">
    <g fill="#8792A2" opacity=".4" transform="translate(11 55)">
      <rect width="18" height="6" rx="3"/>
      <rect width="14" height="6" x="4" y="14" rx="3"/>
      <rect width="14" height="6" x="4" y="28" rx="3"/>
      <rect width="14" height="6" x="4" y="42" rx="3"/>
      <rect width="14" height="6" x="4" y="56" rx="3"/>
      <rect width="14" height="6" x="4" y="70" rx="3"/>
      <rect width="14" height="6" x="4" y="84" rx="3"/>
      <rect width="14" height="6" x="4" y="98" rx="3"/>
      <rect width="14" height="6" x="4" y="112" rx="3"/>
      <rect width="14" height="6" x="4" y="126" rx="3"/>
      <rect width="14" height="6" x="4" y="140" rx="3"/>
      <rect width="14" height="6" x="4" y="154" rx="3"/>
      <rect width="14" height="6" x="4" y="168" rx="3"/>
      <rect width="14" height="6" x="4" y="182" rx="3"/>
      <rect width="14" height="6" x="4" y="196" rx="3"/>
      <rect width="14" height="6" x="4" y="210" rx="3"/>
      <rect width="14" height="6" x="4" y="224" rx="3"/>
      <rect width="14" height="6" x="4" y="238" rx="3"/>
      <rect width="14" height="6" x="4" y="252" rx="3"/>
      <rect width="10" height="6" x="8" y="266" rx="3"/>
      <rect width="8" height="6" x="10" y="280" rx="3"/>
    </g>
    <rect width="18" height="4" x="51" y="350" fill="#8792A2" opacity=".3" rx="2"/>
    <rect width="18" height="4" x="87" y="350" fill="#8792A2" opacity=".3" rx="2"/>
    <rect width="65" height="9" x="162" y="401" fill="#8792A2" opacity=".701" rx="4.5"/>
    <rect width="65" height="9" x="387" y="401" fill="#8792A2" opacity=".701" rx="4.5"/>
    <rect width="65" height="9" x="612" y="401" fill="#8792A2" opacity=".701" rx="4.5"/>
    <rect width="88" height="6" x="150" y="420" fill="#8792A2" opacity=".251" rx="3"/>
    <rect width="88" height="6" x="375" y="420" fill="#8792A2" opacity=".251" rx="3"/>
    <rect width="88" height="6" x="600" y="420" fill="#8792A2" opacity=".251" rx="3"/>
    <rect width="18" height="4" x="123" y="350" fill="#8792A2" opacity=".3" rx="2"/>
    <rect width="18" height="4" x="159" y="350" fill="#8792A2" opacity=".3" rx="2"/>
    <rect width="18" height="4" x="195" y="350" fill="#8792A2" opacity=".3" rx="2"/>
    <rect width="18" height="4" x="231" y="350" fill="#8792A2" opacity=".3" rx="2"/>
    <rect width="18" height="4" x="267" y="350" fill="#8792A2" opacity=".3" rx="2"/>
    <rect width="18" height="4" x="303" y="350" fill="#8792A2" opacity=".3" rx="2"/>
    <rect width="18" height="4" x="339" y="350" fill="#8792A2" opacity=".3" rx="2"/>
    <rect width="18" height="4" x="375" y="350" fill="#8792A2" opacity=".3" rx="2"/>
    <rect width="18" height="4" x="411" y="350" fill="#8792A2" opacity=".3" rx="2"/>
    <rect width="18" height="4" x="447" y="350" fill="#8792A2" opacity=".3" rx="2"/>
    <rect width="18" height="4" x="483" y="350" fill="#8792A2" opacity=".3" rx="2"/>
    <rect width="18" height="4" x="519" y="350" fill="#8792A2" opacity=".3" rx="2"/>
    <rect width="18" height="4" x="555" y="350" fill="#8792A2" opacity=".3" rx="2"/>
    <rect width="18" height="4" x="591" y="350" fill="#8792A2" opacity=".3" rx="2"/>
    <rect width="18" height="4" x="627" y="350" fill="#8792A2" opacity=".3" rx="2"/>
    <rect width="18" height="4" x="663" y="350" fill="#8792A2" opacity=".3" rx="2"/>
    <rect width="18" height="4" x="699" y="350" fill="#8792A2" opacity=".3" rx="2"/>
    <rect width="18" height="4" x="735" y="350" fill="#8792A2" opacity=".3" rx="2"/>
    <rect width="18" height="4" x="771" y="350" fill="#8792A2" opacity=".3" rx="2"/>
    <mask id="analytics-b" fill="#fff">
      <use xlink:href="#analytics-a"/>
    </mask>
    <g mask="url(#analytics-b)">
      <g transform="translate(38.5 21)">
        <g transform="translate(.5 39)">
          <path fill="#1851BE" fill-opacity=".1" d="M1,279 L17.5042479,211.700714 C19.5000625,203.562391 27.7154039,198.582904 35.8537266,200.578719 C38.1147075,201.133194 40.2177739,202.200516 42.000137,203.698067 L45.2159067,206.399974 C53.6727937,213.505495 66.2886187,212.409998 73.3941406,203.953111 C73.4374123,203.901609 73.4804239,203.84989 73.5231738,203.797954 L89.6469545,184.209732 C94.7430273,178.018689 103.044128,175.469868 110.736419,177.734292 L122.643239,181.23937 C130.380711,183.517094 138.729118,180.924139 143.814688,174.663671 L169.054223,143.593155 C171.489482,140.595288 174.74069,138.366688 178.415103,137.176567 L202.891282,129.248877 C207.567671,127.734222 211.522482,124.550443 214.00074,120.305324 L245.332743,66.635328 C247.105418,63.5988328 249.64727,61.0833244 252.702068,59.3423789 L266.462912,51.5 C274.961718,46.6564855 285.777805,49.6196841 290.621319,58.1184893 C291.145172,59.0376823 291.585614,60.0019634 291.93736,60.999767 L309.812803,111.70724 C312.839986,120.294484 322.25534,124.801804 330.842584,121.774622 C334.726792,120.405357 337.957845,117.631874 339.899867,114 C344.848212,104.745844 356.361614,101.255295 365.61577,106.203641 C369.170365,108.10434 372.028425,111.086199 373.776778,114.71815 L380.488855,128.661522 C384.828055,137.675584 395.653013,141.465309 404.667075,137.126109 C406.110265,136.431385 407.454938,135.548315 408.665919,134.5 L422.0288,122.932102 C424.99157,120.367309 428.642526,118.729398 432.528206,118.221803 L445.015675,116.59054 C452.485101,115.614793 458.7727,110.524882 461.282406,103.422362 L480.545512,48.9073655 C483.296159,41.1229784 491.836491,37.0423253 499.620878,39.7929717 C502.631647,40.8568397 505.222643,42.8568327 507.014349,45.5 L517.453602,60.9002337 C521.294844,66.5669248 527.76761,69.8751898 534.610422,69.6691759 L548.422207,69.2533499 C553.803597,69.0913345 559.023039,71.105765 562.900251,74.8411154 L588.380071,99.3886651 C589.491358,100.459291 590.475005,101.654932 591.311381,102.951725 L606.660252,126.75 C610.998362,133.476197 619.967756,135.412125 626.693953,131.074015 C629.511592,129.256758 631.611955,126.518743 632.637167,123.326494 L663.655869,26.7421543 C664.858544,22.9973313 667.138708,19.6902541 670.211143,17.234594 L678.63723,10.5 C685.237785,5.22447191 694.865253,6.29861842 700.140781,12.8991734 C700.441617,13.2755684 700.724503,13.6659651 700.988495,14.069058 L719.179671,41.8454607 C719.247143,41.9484847 719.313662,42.0521297 719.37922,42.1563824 L765.5,115.5 L765.5,115.5 L765,279"/>
          <path fill="#1851BE" fill-opacity=".7" d="M0,280 L18.209639,254.279819 C20.8571414,250.540358 24.7083254,247.823299 29.1190724,246.583077 L54.7382027,239.379441 C57.9573496,238.474275 61.352076,238.390721 64.6118554,239.136422 L84.9158125,243.781118 C88.404022,244.579074 92.0424342,244.426567 95.4516311,243.339499 L131.169262,231.95046 C133.261347,231.283371 135.229294,230.276305 136.994111,228.969687 L180.959504,196.41899 C181.336667,196.13975 181.723541,195.873871 182.119408,195.621847 L207.032839,179.761002 C208.3488,178.923211 209.562221,177.93433 210.648354,176.814526 L229.627951,157.246555 C237.318325,149.317777 249.980149,149.124512 257.908928,156.814886 C258.782407,157.662101 259.576744,158.587266 260.282055,159.578869 L279.607881,186.749233 C282.254855,190.470639 286.095687,193.174101 290.491965,194.410254 L313.135707,200.777265 C318.200548,202.201407 323.62257,201.57244 328.22689,199.026655 L341.652169,191.603652 C350.132733,186.914643 360.754781,188.979957 366.860475,196.505067 L383.402881,216.893153 C387.255034,221.640832 393.067173,224.365766 399.180589,224.290293 L415.526181,224.088501 C420.160948,224.031283 424.631948,222.366025 428.174887,219.377393 L440.784837,208.740323 C449.15559,201.67921 461.648482,202.663259 468.810473,210.947865 L472.484746,215.198067 C479.208262,222.975468 490.963578,223.829812 498.74098,217.106296 C500.175697,215.865991 501.412451,214.413721 502.408414,212.799773 L525.925271,174.690947 C528.579066,170.3905 532.762407,167.254052 537.634333,165.912112 L542.761017,164.5 C550.462936,162.378556 558.686633,165.072854 563.640062,171.340519 L586.545696,200.323444 C587.945798,202.095021 589.635799,203.616705 591.54402,204.823959 L605.257627,213.5 C613.223375,218.539605 623.766297,216.167497 628.805902,208.201749 C629.231598,207.528881 629.609686,206.82705 629.937397,206.101397 L650.881219,159.725334 C653.500524,153.925387 658.723743,149.718206 664.948518,148.394454 L687.195913,143.663355 C689.262421,143.223894 691.385508,143.114642 693.486209,143.339663 L717.126691,145.871959 C723.713995,146.57757 729.524422,150.499393 732.642651,156.344658 L762.646113,212.587529 C764.191579,215.484577 765,218.717571 765,222.001068 L765,280 L765,280"/>
        </g>
        <g transform="translate(20.5)">
          <rect width="14" height="14" y="19" fill="#D8E0F1" rx="3"/>
          <rect width="14" height="14" y="40" fill="#527CCD" rx="3"/>
          <rect width="58" height="6" x="24" y="23" fill="#8792A2" opacity=".2" rx="3"/>
          <rect width="98" height="6" fill="#8792A2" opacity=".702" rx="3"/>
          <rect width="38" height="6" x="24" y="44" fill="#8792A2" opacity=".2" rx="3"/>
        </g>
      </g>
    </g>
  </g>
</svg>
