<svg xmlns="http://www.w3.org/2000/svg" xmlns:xlink="http://www.w3.org/1999/xlink" width="611" height="1112" viewBox="0 0 611 1112">
  <defs>
    <linearGradient id="community-mobile-a" x1="50.007%" x2="50.007%" y1="-141.4%" y2="-47.015%">
      <stop offset="0%" stop-color="#2A6CBE"/>
      <stop offset="38.688%" stop-color="#2062BC"/>
      <stop offset="49.182%" stop-color="#1F5FBC"/>
      <stop offset="66.583%" stop-color="#1C5ABD"/>
      <stop offset="85.354%" stop-color="#1956BC"/>
      <stop offset="100%" stop-color="#1851BE"/>
    </linearGradient>
    <radialGradient id="community-mobile-b" cx="65.599%" cy="0%" r="167.283%" fx="65.599%" fy="0%" gradientTransform="matrix(-.52372 .5978 -.39054 -.80165 1 -.392)">
      <stop offset="0%" stop-color="#2A6CBE"/>
      <stop offset="38.688%" stop-color="#2062BC"/>
      <stop offset="49.182%" stop-color="#1F5FBC"/>
      <stop offset="66.583%" stop-color="#1C5ABD"/>
      <stop offset="85.354%" stop-color="#1956BC"/>
      <stop offset="100%" stop-color="#1851BE"/>
    </radialGradient>
    <linearGradient id="community-mobile-e" x1="50%" x2="50%" y1="0%" y2="100%">
      <stop offset="0%" stop-color="#F1F1F1" stop-opacity=".22"/>
      <stop offset="41.652%" stop-color="#FFF" stop-opacity=".548"/>
      <stop offset="62.476%" stop-color="#ECEEF0" stop-opacity=".28"/>
      <stop offset="100%" stop-color="#8792A2" stop-opacity=".16"/>
    </linearGradient>
    <circle id="community-mobile-d" cx="256" cy="277" r="65"/>
    <filter id="community-mobile-c" width="156%" height="156%" x="-28%" y="-28%" filterUnits="objectBoundingBox">
      <feMorphology in="SourceAlpha" operator="dilate" radius=".375" result="shadowSpreadOuter1"/>
      <feOffset dy="3" in="shadowSpreadOuter1" result="shadowOffsetOuter1"/>
      <feGaussianBlur in="shadowOffsetOuter1" result="shadowBlurOuter1" stdDeviation="7"/>
      <feComposite in="shadowBlurOuter1" in2="SourceAlpha" operator="out" result="shadowBlurOuter1"/>
      <feColorMatrix in="shadowBlurOuter1" result="shadowMatrixOuter1" values="0 0 0 0 0.529411765   0 0 0 0 0.57254902   0 0 0 0 0.635294118  0 0 0 0.282315341 0"/>
      <feMorphology in="SourceAlpha" operator="dilate" radius=".375" result="shadowSpreadOuter2"/>
      <feOffset in="shadowSpreadOuter2" result="shadowOffsetOuter2"/>
      <feGaussianBlur in="shadowOffsetOuter2" result="shadowBlurOuter2" stdDeviation="12"/>
      <feComposite in="shadowBlurOuter2" in2="SourceAlpha" operator="out" result="shadowBlurOuter2"/>
      <feColorMatrix in="shadowBlurOuter2" result="shadowMatrixOuter2" values="0 0 0 0 0.529411765   0 0 0 0 0.57254902   0 0 0 0 0.635294118  0 0 0 0.08 0"/>
      <feMerge>
        <feMergeNode in="shadowMatrixOuter1"/>
        <feMergeNode in="shadowMatrixOuter2"/>
      </feMerge>
    </filter>
    <filter id="community-mobile-f" width="139%" height="139%" x="-19.5%" y="-19.5%" filterUnits="objectBoundingBox">
      <feGaussianBlur in="SourceAlpha" result="shadowBlurInner1" stdDeviation=".5"/>
      <feOffset dy="1" in="shadowBlurInner1" result="shadowOffsetInner1"/>
      <feComposite in="shadowOffsetInner1" in2="SourceAlpha" k2="-1" k3="1" operator="arithmetic" result="shadowInnerInner1"/>
      <feColorMatrix in="shadowInnerInner1" values="0 0 0 0 1   0 0 0 0 1   0 0 0 0 1  0 0 0 0.5 0"/>
    </filter>
  </defs>
  <g fill="none" fill-rule="evenodd">
    <rect width="611" height="1112" fill="#FFF"/>
    <g transform="translate(-1 25)">
      <g transform="translate(21 85)">
        <rect width="161" height="42" x=".964" y=".885" fill="url(#community-mobile-a)" rx="5"/>
        <g fill="#FFF" opacity=".296" transform="translate(27.964 16.885)">
          <rect width="31.88" height="10" rx="5"/>
          <rect width="66.15" height="10" x="39.85" rx="5"/>
        </g>
      </g>
      <rect width="612" height="97" y="237" fill="#ECEEF0"/>
      <g fill="#000306" transform="translate(21 14)">
        <rect width="30" height="5.5" rx="2.75"/>
        <rect width="30" height="5.5" y="11" rx="2.75"/>
      </g>
      <g transform="translate(413 79)">
        <g transform="translate(92.427 .885)">
          <rect width="83.216" height="51.795" x="1.125" y="1.125" stroke="#8792A2" stroke-opacity=".24" stroke-width="2.25" rx="5"/>
          <rect width="18.925" height="12.906" x="15.872" y="20.166" fill="#8792A2" opacity=".176" rx="6.453"/>
          <rect width="29.303" height="12.906" x="37.849" y="20.166" fill="#8792A2" opacity=".176" rx="6.453"/>
        </g>
        <g transform="translate(.427 .885)">
          <rect width="83.216" height="51.795" x="1.125" y="1.125" stroke="#8792A2" stroke-opacity=".24" stroke-width="2.25" rx="5"/>
          <rect width="35.407" height="12.906" x="15.872" y="20.166" fill="#8792A2" opacity=".176" rx="6.453"/>
          <rect width="15.872" height="12.906" x="54.332" y="20.166" fill="#8792A2" opacity=".176" rx="6.453"/>
        </g>
      </g>
      <g transform="translate(21 178)">
        <circle cx="30.464" cy="99.445" r="28.5" fill="#8792A2" opacity=".24"/>
        <g transform="translate(.964 .945)">
          <path fill="#8792A2" d="M127.297888,88.4297521 C130.492924,88.4297521 133.083012,91.0198403 133.083012,94.214876 C133.083012,97.4099118 130.492924,100 127.297888,100 L76.785124,100 C73.5900882,100 71,97.4099118 71,94.214876 C71,91.0198403 73.5900882,88.4297521 76.785124,88.4297521 L127.297888,88.4297521 Z M224.050633,88.4297521 C227.245669,88.4297521 229.835757,91.0198403 229.835757,94.214876 C229.835757,97.4099118 227.245669,100 224.050633,100 L224.050633,100 L146.930865,100 C143.735829,100 141.145741,97.4099118 141.145741,94.214876 C141.145741,91.0198403 143.735829,88.4297521 146.930865,88.4297521 L146.930865,88.4297521 Z M352.248021,72 C355.443057,72 358.033145,74.5900882 358.033145,77.785124 C358.033145,80.9801597 355.443057,83.5702479 352.248021,83.5702479 L76.785124,83.5702479 C73.5900882,83.5702479 71,80.9801597 71,77.785124 C71,74.5900882 73.5900882,72 76.785124,72 L352.248021,72 Z" opacity=".475"/>
          <g transform="translate(.036 .055)">
            <rect width="20.157" height="20.166" x="549.78" y="72" fill="#1851BE" rx="10.078"/>
            <rect width="35.958" height="13.066" x="498" y="75.646" fill="#8792A2" opacity=".164" rx="5"/>
            <rect width="39" height="13.066" fill="#1851BE" rx="6.533"/>
            <rect width="10" height="13.066" x="49" fill="#8792A2" opacity=".164" rx="3"/>
            <rect width="83" height="13.066" x="69" fill="#8792A2" opacity=".164" rx="6.533"/>
            <rect width="39" height="13.066" x="162" fill="#8792A2" opacity=".164" rx="6.533"/>
            <rect width="20.157" height="20.166" x="548.78" y="175.046" fill="#8792A2" opacity=".578" rx="10.078"/>
            <rect width="35.958" height="13.066" x="497" y="178.693" fill="#8792A2" opacity=".164" rx="5"/>
            <rect width="20.157" height="20.166" x="548.78" y="278.092" fill="#1851BE" rx="10.078"/>
            <rect width="35.958" height="13.066" x="497" y="281.739" fill="#8792A2" opacity=".164" rx="5"/>
            <rect width="20.157" height="20.166" x="548.78" y="380.138" fill="#1851BE" rx="10.078"/>
            <rect width="35.958" height="13.066" x="497" y="383.785" fill="#8792A2" opacity=".164" rx="5"/>
            <rect width="20.157" height="20.166" x="548.78" y="484.184" fill="#1851BE" rx="10.078"/>
            <rect width="35.958" height="13.066" x="497" y="487.831" fill="#8792A2" opacity=".164" rx="5"/>
            <rect width="20.157" height="20.166" x="548.78" y="587.23" fill="#8792A2" opacity=".578" rx="10.078"/>
            <rect width="35.958" height="13.066" x="497" y="590.877" fill="#8792A2" opacity=".164" rx="5"/>
            <rect width="20.157" height="20.166" x="548.78" y="689.276" fill="#8792A2" opacity=".578" rx="10.078"/>
            <rect width="35.958" height="13.066" x="497" y="692.923" fill="#8792A2" opacity=".164" rx="5"/>
            <rect width="20.157" height="20.166" x="548.78" y="792.322" fill="#8792A2" opacity=".578" rx="10.078"/>
            <rect width="35.958" height="13.066" x="497" y="795.969" fill="#8792A2" opacity=".164" rx="5"/>
          </g>
        </g>
        <g transform="translate(72.964 126.945)">
          <rect width="34.541" height="8.102" x="23.966" y="4.051" fill="#8792A2" opacity=".158" rx="3"/>
          <rect width="16.066" height="16.204" fill="#F84F77" rx="5"/>
        </g>
      </g>
      <g transform="translate(90.966 407.051)">
        <rect width="16.066" height="16.204" x=".999" y=".94" fill="#1851BE" rx="5"/>
        <rect width="34.541" height="8.102" x="26.964" y="4.991" fill="#8792A2" opacity=".158" rx="3"/>
      </g>
      <g transform="translate(90.966 510.051)">
        <rect width="16.066" height="16.204" x=".999" y=".986" fill="#BCCCEB" rx="5"/>
        <rect width="34.541" height="8.102" x="26.964" y="5.037" fill="#8792A2" opacity=".158" rx="3"/>
      </g>
      <g transform="translate(90.966 613.051)">
        <rect width="16.066" height="16.204" x=".999" y=".032" fill="#512DA8" rx="5"/>
        <rect width="34.541" height="8.102" x="26.964" y="4.083" fill="#8792A2" opacity=".158" rx="3"/>
      </g>
      <g transform="translate(90.966 716.051)">
        <rect width="16.066" height="16.204" x=".999" y=".078" fill="#8369C0" rx="5"/>
        <rect width="34.541" height="8.102" x="26.964" y="4.129" fill="#8792A2" opacity=".158" rx="3"/>
      </g>
      <g transform="translate(90.966 820.051)">
        <rect width="16.066" height="16.204" x=".999" y=".124" fill="#BFE5E1" rx="5"/>
        <rect width="34.541" height="8.102" x="26.964" y="4.175" fill="#8792A2" opacity=".158" rx="3"/>
      </g>
      <g transform="translate(90.966 922.051)">
        <rect width="16.066" height="16.204" x=".999" y=".17" fill="#0E423C" rx="5"/>
        <rect width="34.541" height="8.102" x="26.964" y="4.221" fill="#8792A2" opacity=".158" rx="3"/>
      </g>
      <g fill="#8792A2" transform="translate(90.966 1025.051)">
        <rect width="16.066" height="16.204" x=".999" y=".216" rx="5"/>
        <rect width="34.541" height="8.102" x="26.964" y="4.267" opacity=".158" rx="3"/>
      </g>
      <g transform="translate(21 351)">
        <circle cx="29.464" cy="29.491" r="28.5" fill="#8792A2" opacity=".24"/>
        <path fill="#8792A2" d="M112.736989,16.4297521 C115.932025,16.4297521 118.522113,19.0198403 118.522113,22.214876 C118.522113,25.4099118 115.932025,28 112.736989,28 L5.78512397,28 C2.59008822,28 9.9867262e-14,25.4099118 9.9475983e-14,22.214876 C9.9084704e-14,19.0198403 2.59008822,16.4297521 5.78512397,16.4297521 L112.736989,16.4297521 Z M221.583828,16.4297521 C224.778864,16.4297521 227.368952,19.0198403 227.368952,22.214876 C227.368952,25.4099118 224.778864,28 221.583828,28 L221.583828,28 L132.369966,28 C129.17493,28 126.584842,25.4099118 126.584842,22.214876 C126.584842,19.0198403 129.17493,16.4297521 132.369966,16.4297521 L132.369966,16.4297521 Z M281.248021,0 C284.443057,2.96579513e-15 287.033145,2.59008822 287.033145,5.78512397 C287.033145,8.98015971 284.443057,11.5702479 281.248021,11.5702479 L5.78512397,11.5702479 C2.59008822,11.5702479 3.9127903e-16,8.98015971 0,5.78512397 C-3.9127903e-16,2.59008822 2.59008822,2.36327538e-15 5.78512397,0 L281.248021,0 Z" opacity=".4" transform="translate(70.964 2.991)"/>
      </g>
      <g transform="translate(21 455)">
        <circle cx="29.464" cy="28.537" r="28.5" fill="#8792A2" opacity=".24"/>
        <path fill="#8792A2" d="M56.2978878,16.4297521 C59.4929235,16.4297521 62.0830118,19.0198403 62.0830118,22.214876 C62.0830118,25.4099118 59.4929235,28 56.2978878,28 L5.78512397,28 C2.59008822,28 -6.71102809e-14,25.4099118 -6.75015599e-14,22.214876 C-6.78928389e-14,19.0198403 2.59008822,16.4297521 5.78512397,16.4297521 L56.2978878,16.4297521 Z M153.050633,16.4297521 C156.245669,16.4297521 158.835757,19.0198403 158.835757,22.214876 C158.835757,25.4099118 156.245669,28 153.050633,28 L153.050633,28 L75.9308645,28 C72.7358288,28 70.1457406,25.4099118 70.1457406,22.214876 C70.1457406,19.0198403 72.7358288,16.4297521 75.9308645,16.4297521 L75.9308645,16.4297521 Z M281.248021,0 C284.443057,-3.2514538e-15 287.033145,2.59008822 287.033145,5.78512397 C287.033145,8.98015971 284.443057,11.5702479 281.248021,11.5702479 L5.78512397,11.5702479 C2.59008822,11.5702479 3.9127903e-16,8.98015971 0,5.78512397 C-3.9127903e-16,2.59008822 2.59008822,5.86918544e-16 5.78512397,0 L281.248021,0 Z" opacity=".4" transform="translate(70.964 2.037)"/>
      </g>
      <g transform="translate(21 557)">
        <circle cx="29.464" cy="28.583" r="28.5" fill="#8792A2" opacity=".24"/>
        <path fill="#8792A2" d="M56.2978878,16.4297521 C59.4929235,16.4297521 62.0830118,19.0198403 62.0830118,22.214876 C62.0830118,25.4099118 59.4929235,28 56.2978878,28 L5.78512397,28 C2.59008822,28 -4.57939988e-14,25.4099118 -4.61852778e-14,22.214876 C-4.65765569e-14,19.0198403 2.59008822,16.4297521 5.78512397,16.4297521 L56.2978878,16.4297521 Z M241.74065,16.4297521 C244.935686,16.4297521 247.525774,19.0198403 247.525774,22.214876 C247.525774,25.4099118 244.935686,28 241.74065,28 L241.74065,28 L75.9308645,28 C72.7358288,28 70.1457406,25.4099118 70.1457406,22.214876 C70.1457406,19.0198403 72.7358288,16.4297521 75.9308645,16.4297521 L75.9308645,16.4297521 Z M227.227738,0 C230.422774,5.47914959e-15 233.012862,2.59008822 233.012862,5.78512397 C233.012862,8.98015971 230.422774,11.5702479 227.227738,11.5702479 L5.78512397,11.5702479 C2.59008822,11.5702479 3.9127903e-16,8.98015971 0,5.78512397 C-3.9127903e-16,2.59008822 2.59008822,-3.01259875e-16 5.78512397,0 L227.227738,0 Z" opacity=".4" transform="translate(70.964 2.083)"/>
      </g>
      <g transform="translate(21 661)">
        <circle cx="29.464" cy="28.629" r="28.5" fill="#8792A2" opacity=".24"/>
        <path fill="#8792A2" d="M56.2978878,16.5217819 C59.4929235,16.5217819 62.0830118,19.1118701 62.0830118,22.3069058 C62.0830118,25.5019416 59.4929235,28.0920298 56.2978878,28.0920298 L5.78512397,28.0920298 C2.59008822,28.0920298 -6.71102809e-14,25.5019416 -6.75015599e-14,22.3069058 C-6.78928389e-14,19.1118701 2.59008822,16.5217819 5.78512397,16.5217819 L56.2978878,16.5217819 Z M153.050633,16.5217819 C156.245669,16.5217819 158.835757,19.1118701 158.835757,22.3069058 C158.835757,25.5019416 156.245669,28.0920298 153.050633,28.0920298 L153.050633,28.0920298 L75.9308645,28.0920298 C72.7358288,28.0920298 70.1457406,25.5019416 70.1457406,22.3069058 C70.1457406,19.1118701 72.7358288,16.5217819 75.9308645,16.5217819 L75.9308645,16.5217819 Z M281.248021,0.0920298165 C284.443057,0.0920298165 287.033145,2.68211804 287.033145,5.87715378 C287.033145,9.07218953 284.443057,11.6622778 281.248021,11.6622778 L5.78512397,11.6622778 C2.59008822,11.6622778 3.9127903e-16,9.07218953 0,5.87715378 C-3.9127903e-16,2.68211804 2.59008822,0.0920298165 5.78512397,0.0920298165 L281.248021,0.0920298165 Z" opacity=".4" transform="translate(70.964 1.129)"/>
      </g>
      <g transform="translate(21 764)">
        <circle cx="29.464" cy="28.675" r="28.5" fill="#8792A2" opacity=".24"/>
        <path fill="#8792A2" d="M104.674261,16.4297521 C107.869296,16.4297521 110.459385,19.0198403 110.459385,22.214876 C110.459385,25.4099118 107.869296,28 104.674261,28 L5.78512397,28 C2.59008822,28 -5.64521398e-14,25.4099118 -5.68434189e-14,22.214876 C-5.72346979e-14,19.0198403 2.59008822,16.4297521 5.78512397,16.4297521 L104.674261,16.4297521 Z M209.489735,16.4297521 C212.684771,16.4297521 215.274859,19.0198403 215.274859,22.214876 C215.274859,25.4099118 212.684771,28 209.489735,28 L209.489735,28 L124.307237,28 C121.112202,28 118.522113,25.4099118 118.522113,22.214876 C118.522113,19.0198403 121.112202,16.4297521 124.307237,16.4297521 L124.307237,16.4297521 Z M252.222198,0 C255.417233,-3.2514538e-15 258.007322,2.59008822 258.007322,5.78512397 C258.007322,8.98015971 255.417233,11.5702479 252.222198,11.5702479 L5.78512397,11.5702479 C2.59008822,11.5702479 3.9127903e-16,8.98015971 0,5.78512397 C-3.9127903e-16,2.59008822 2.59008822,5.86918544e-16 5.78512397,0 L252.222198,0 Z" opacity=".4" transform="translate(70.964 2.175)"/>
      </g>
      <g transform="translate(21 866)">
        <circle cx="29.464" cy="28.721" r="28.5" fill="#8792A2" opacity=".24"/>
        <path fill="#8792A2" d="M56.2978878,16.4297521 C59.4929235,16.4297521 62.0830118,19.0198403 62.0830118,22.214876 C62.0830118,25.4099118 59.4929235,28 56.2978878,28 L5.78512397,28 C2.59008822,28 -6.71102809e-14,25.4099118 -6.75015599e-14,22.214876 C-6.78928389e-14,19.0198403 2.59008822,16.4297521 5.78512397,16.4297521 L56.2978878,16.4297521 Z M153.050633,16.4297521 C156.245669,16.4297521 158.835757,19.0198403 158.835757,22.214876 C158.835757,25.4099118 156.245669,28 153.050633,28 L153.050633,28 L75.9308645,28 C72.7358288,28 70.1457406,25.4099118 70.1457406,22.214876 C70.1457406,19.0198403 72.7358288,16.4297521 75.9308645,16.4297521 L75.9308645,16.4297521 Z M281.248021,0 C284.443057,-3.2514538e-15 287.033145,2.59008822 287.033145,5.78512397 C287.033145,8.98015971 284.443057,11.5702479 281.248021,11.5702479 L5.78512397,11.5702479 C2.59008822,11.5702479 3.9127903e-16,8.98015971 0,5.78512397 C-3.9127903e-16,2.59008822 2.59008822,5.86918544e-16 5.78512397,0 L281.248021,0 Z" opacity=".4" transform="translate(70.964 2.221)"/>
      </g>
      <g transform="translate(21 969)">
        <circle cx="29.464" cy="28.767" r="28.5" fill="#8792A2" opacity=".24"/>
        <path fill="#8792A2" d="M56.2978878,16.4297521 C59.4929235,16.4297521 62.0830118,19.0198403 62.0830118,22.214876 C62.0830118,25.4099118 59.4929235,28 56.2978878,28 L5.78512397,28 C2.59008822,28 -6.71102809e-14,25.4099118 -6.75015599e-14,22.214876 C-6.78928389e-14,19.0198403 2.59008822,16.4297521 5.78512397,16.4297521 L56.2978878,16.4297521 Z M153.050633,16.4297521 C156.245669,16.4297521 158.835757,19.0198403 158.835757,22.214876 C158.835757,25.4099118 156.245669,28 153.050633,28 L153.050633,28 L75.9308645,28 C72.7358288,28 70.1457406,25.4099118 70.1457406,22.214876 C70.1457406,19.0198403 72.7358288,16.4297521 75.9308645,16.4297521 L75.9308645,16.4297521 Z M281.248021,0 C284.443057,-3.2514538e-15 287.033145,2.59008822 287.033145,5.78512397 C287.033145,8.98015971 284.443057,11.5702479 281.248021,11.5702479 L5.78512397,11.5702479 C2.59008822,11.5702479 3.9127903e-16,8.98015971 0,5.78512397 C-3.9127903e-16,2.59008822 2.59008822,5.86918544e-16 5.78512397,0 L281.248021,0 Z" opacity=".4" transform="translate(70.964 2.267)"/>
      </g>
      <g transform="translate(71.316 .002)">
        <rect width="29" height="26" x="487.684" y="9.998" fill="#8792A2" opacity=".6" rx="10"/>
        <g fill-rule="nonzero" transform="translate(.684 3.998)">
          <path fill="url(#community-mobile-b)" d="M129.915291,8 C135.179484,8 138.182774,10.6057143 138.182774,14.4457143 C138.182774,16.8114286 136.96796,18.7314286 134.977015,19.5885714 C137.406643,20.4114286 138.958904,22.4342857 138.958904,25.2114286 C138.958904,29.36 135.92187,32 130.387718,32 L121.074145,32 L121.074145,32 L121.074145,8 L121.074145,8 L129.915291,8 Z M120.107401,8 L120.107401,32 L120.107401,32 L110.793828,32 C105.259676,32 102.222642,29.36 102.222642,25.2114286 C102.222642,22.4342857 103.774903,20.4114286 106.204531,19.5885714 C104.213586,18.7314286 102.998772,16.8114286 102.998772,14.4457143 C102.998772,10.6057143 106.002062,8 111.266256,8 L111.266256,8 L120.107401,8 L120.107401,8 Z M129.645332,21.7142857 L125.832166,21.7142857 L125.832166,28.16 L125.832166,28.16 L129.645332,28.16 L129.645332,28.16 C132.176194,28.16 133.391008,27.1317912 133.391008,24.9375055 C133.391008,22.8460769 132.412408,21.7142857 129.645332,21.7142857 Z M115.34938,21.7142857 L111.536214,21.7142857 C108.769138,21.7142857 107.790538,22.8460769 107.790538,24.9375055 C107.790538,27.1317912 109.005352,28.16 111.536214,28.16 L111.536214,28.16 L115.34938,28.16 L115.34938,28.16 L115.34938,21.7142857 Z M129.645332,11.84 L125.798421,11.84 L125.798421,17.9428571 L129.645332,17.9428571 C132.108705,17.9428571 133.391008,16.8114286 133.391008,14.8914286 C133.391008,12.9714286 132.108705,11.84 129.645332,11.84 Z M115.383125,11.84 L111.536214,11.84 C109.072842,11.84 107.790538,12.9714286 107.790538,14.8914286 C107.790538,16.8114286 109.072842,17.9428571 111.536214,17.9428571 L111.536214,17.9428571 L115.383125,17.9428571 L115.383125,11.84 Z"/>
          <path fill="#000306" stroke="#000306" stroke-width=".275" d="M70.3896714,0 C71.4905598,-2.02229919e-16 72.3830062,0.892446381 72.3830062,1.99333478 L72.3828641,19.3364782 C72.4041115,19.6390065 72.4148995,19.9454661 72.4148995,20.255529 C72.4148995,26.9735597 67.3505003,32 60.5651887,32 C53.7307082,32 48.7154779,26.9735597 48.7154779,20.255529 C48.7154779,13.5374983 53.7307082,8.51105803 60.5651887,8.51105803 C63.628943,8.51105803 66.3418427,9.53583365 68.3960998,11.2783917 L68.3963366,1.99333478 C68.3963366,0.892446381 69.288783,2.02229919e-16 70.3896714,0 Z M85.9367439,8.76712329 C92.3643834,8.76712329 96.9571122,12.4722723 97.196335,19.7421846 L97.2045021,20.096736 C97.2176578,21.0867668 96.4257441,21.9000103 95.4357133,21.913166 L78.6077153,21.9132984 C78.6077153,24.825729 80.1935668,28.1756582 86.1860305,28.1756582 C89.2475284,28.1756582 92.2464475,27.3335037 95.1827877,25.6491949 L95.6018575,25.4028808 C96.1921523,25.0474377 96.9588244,25.2378227 97.3142675,25.8281175 C97.5632929,26.2416812 97.5495304,26.757344 97.2897875,27.1543705 L97.2045021,27.2696986 C96.7515947,27.8140187 92.5602168,32 86.1860305,32 C79.2558607,32 74.1704123,27.1239641 74.1704123,20.3357574 C74.1704123,13.7387677 79.006574,8.76712329 85.9367439,8.76712329 Z M35.5491325,8.76712329 C42.3344441,8.76712329 47.3988433,13.7387677 47.3988433,20.3835616 C47.3988433,27.0283556 42.3344441,32 35.5491325,32 C28.714652,32 23.6994217,27.0283556 23.6994217,20.3835616 C23.6994217,13.7387677 28.714652,8.76712329 35.5491325,8.76712329 Z M11.9920228,8.76712329 C18.2617111,8.76712329 21.943909,12.7846158 21.943909,18.3145762 L21.943909,28.9836321 C21.943909,30.1653313 20.9859525,31.1232877 19.8042534,31.1232877 L19.6645979,31.1232877 C18.5600284,31.1232877 17.6645979,30.2278572 17.6645979,29.1232877 L17.6645979,18.6454285 C17.6645979,15.0533175 15.7239801,12.5482927 11.5441879,12.5482927 C4.50284572,12.5482927 4.28618903,15.615653 4.27952267,19.4587615 L4.27931104,31.1232877 L2,31.1232877 C0.8954305,31.1232877 1.3527075e-16,30.2278572 0,29.1232877 L0,15.4710345 L0,15.4710345 C0,10.6930726 8.40934379,8.76712329 11.9920228,8.76712329 Z M35.5491325,12.5914651 C31.0747604,12.5914651 27.9279492,15.9855685 27.9279492,20.3835616 C27.9279492,24.6859462 31.0747604,28.1756582 35.5491325,28.1756582 C40.0235046,28.1756582 43.1703158,24.6859462 43.1703158,20.3835616 C43.1703158,15.9855685 40.0235046,12.5914651 35.5491325,12.5914651 Z M60.5651887,12.3775505 C56.0908166,12.3775505 52.9440054,15.8090626 52.9440054,20.255529 C52.9440054,24.6053331 56.0908166,28.1335075 60.5651887,28.1335075 C65.0395609,28.1335075 68.186372,24.6053331 68.186372,20.255529 C68.186372,15.8090626 65.0395609,12.3775505 60.5651887,12.3775505 Z M85.9367439,12.5914651 C81.9481569,12.5914651 79.2060033,14.8860702 78.6575726,18.3279779 L92.7173417,18.3279779 C92.168911,14.8860702 89.7259015,12.5914651 85.9367439,12.5914651 Z"/>
        </g>
      </g>
      <use fill="#000" filter="url(#community-mobile-c)" xlink:href="#community-mobile-d"/>
      <use fill="url(#community-mobile-e)" xlink:href="#community-mobile-d"/>
      <use fill="#000" filter="url(#community-mobile-f)" xlink:href="#community-mobile-d"/>
      <use stroke="#FFF" stroke-opacity=".116" stroke-width=".75" xlink:href="#community-mobile-d"/>
    </g>
  </g>
</svg>
