<svg xmlns="http://www.w3.org/2000/svg" width="1124" height="1202" viewBox="0 0 1124 1202">
  <defs>
    <linearGradient id="community-home-alt-a" x1="50.007%" x2="50.007%" y1="-141.4%" y2="-47.015%">
      <stop offset="0%" stop-color="#2A6CBE"/>
      <stop offset="38.688%" stop-color="#2062BC"/>
      <stop offset="49.182%" stop-color="#1F5FBC"/>
      <stop offset="66.583%" stop-color="#1C5ABD"/>
      <stop offset="85.354%" stop-color="#1956BC"/>
      <stop offset="100%" stop-color="#1851BE"/>
    </linearGradient>
    <linearGradient id="community-home-alt-b" x1="50.007%" x2="50.007%" y1="0%" y2="100%">
      <stop offset="0%" stop-color="#040F20"/>
      <stop offset="100%" stop-color="#000306"/>
    </linearGradient>
    <radialGradient id="community-home-alt-c" cx="65.599%" cy="0%" r="167.283%" fx="65.599%" fy="0%" gradientTransform="matrix(-.52372 .5978 -.39054 -.80165 1 -.392)">
      <stop offset="0%" stop-color="#2A6CBE"/>
      <stop offset="38.688%" stop-color="#2062BC"/>
      <stop offset="49.182%" stop-color="#1F5FBC"/>
      <stop offset="66.583%" stop-color="#1C5ABD"/>
      <stop offset="85.354%" stop-color="#1956BC"/>
      <stop offset="100%" stop-color="#1851BE"/>
    </radialGradient>
  </defs>
  <g fill="none" fill-rule="evenodd">
    <rect width="1124" height="1202" fill="#FFF"/>
    <g transform="translate(39 -26)">
      <g transform="translate(0 146)">
        <rect width="202.18" height="53.25" y=".274" fill="url(#community-home-alt-a)" rx="5"/>
        <g fill="#FFF" opacity=".296" transform="translate(34.03 20.664)">
          <rect width="40.036" height="12.716" rx="6.358"/>
          <rect width="83.074" height="12.716" x="50.045" rx="6.358"/>
        </g>
        <g transform="translate(603.537)">
          <g transform="translate(300.267)">
            <rect width="137.625" height="51.545" x="1.25" y="1.25" stroke="#8792A2" stroke-opacity=".2" stroke-width="2.5" rx="5"/>
            <rect width="31.028" height="12.906" x="26.023" y="20.166" fill="#8792A2" opacity=".18" rx="6.453"/>
            <rect width="48.043" height="12.906" x="62.055" y="20.166" fill="#8792A2" opacity=".18" rx="6.453"/>
          </g>
          <g transform="translate(150.134)">
            <rect width="137.625" height="51.545" x="1.25" y="1.25" stroke="#8792A2" stroke-opacity=".2" stroke-width="2.5" rx="5"/>
            <rect width="58.052" height="12.906" x="26.023" y="20.166" fill="#8792A2" opacity=".18" rx="6.453"/>
            <rect width="26.023" height="12.906" x="89.079" y="20.166" fill="#8792A2" opacity=".18" rx="6.453"/>
          </g>
          <rect width="137.625" height="51.545" x="1.25" y="1.25" stroke="#8792A2" stroke-opacity=".2" stroke-width="2.5" rx="5"/>
          <rect width="28.025" height="12.906" x="26.023" y="20.166" fill="#8792A2" opacity=".18" rx="6.453"/>
          <rect width="56.05" height="12.906" x="59.053" y="20.166" fill="#8792A2" opacity=".18" rx="6.453"/>
        </g>
        <g transform="translate(0 107.09)">
          <ellipse cx="35.031" cy="35.029" fill="#8792A2" opacity=".24" rx="35.031" ry="35.029"/>
          <g transform="translate(87.077 1.002)">
            <path fill="#8792A2" d="M66.7092146,32.3271684 C72.4305266,32.3271684 77.0685663,36.9652082 77.0685663,42.6865202 C77.0685663,48.4078322 72.4305266,53.045872 66.7092146,53.045872 L10.3593518,53.045872 C4.63803977,53.045872 -2.62200154e-13,48.4078322 -2.62900812e-13,42.6865202 C-2.63601471e-13,36.9652082 4.63803977,32.3271684 10.3593518,32.3271684 L66.7092146,32.3271684 Z M186.816071,32.3271684 C192.537383,32.3271684 197.175423,36.9652082 197.175423,42.6865202 C197.175423,48.4078322 192.537383,53.045872 186.816071,53.045872 L186.816071,53.045872 L97.4368228,53.045872 C91.7155108,53.045872 87.0774711,48.4078322 87.0774711,42.6865202 C87.0774711,36.9652082 91.7155108,32.3271684 97.4368228,32.3271684 L97.4368228,32.3271684 Z M345.957656,2 C351.678968,2 356.317008,6.63803977 356.317008,12.3593518 C356.317008,18.0806638 351.678968,22.7187036 345.957656,22.7187036 L10.3593518,22.7187036 C4.63803977,22.7187036 -1.41407889e-13,18.0806638 -1.42108547e-13,12.3593518 C-1.42809206e-13,6.63803977 4.63803977,2 10.3593518,2 L345.957656,2 Z" opacity=".4"/>
            <g transform="translate(415.37)">
              <rect width="58.052" height="46.038" x="86.077" y="1" fill="#8792A2" opacity=".322" rx="3"/>
              <rect width="57.051" height="46.038" y="1" fill="#8792A2" opacity=".322" rx="3"/>
              <rect width="57.051" height="46.038" x="173.154" y="1" fill="#8792A2" opacity=".322" rx="3"/>
              <rect width="10" height="66" x="279.517" y=".794" fill="#F84F77" rx="3"/>
              <rect width="10" height="66" x="279.517" y="119.794" fill="#1851BE" rx="3"/>
              <rect width="10" height="66" x="279.517" y="238.794" fill="#BCCCEB" rx="3"/>
              <rect width="10" height="66" x="279.517" y="357.794" fill="#512DA8" rx="3"/>
              <rect width="10" height="66" x="279.517" y="475.794" fill="#8369C0" rx="3"/>
              <rect width="10" height="66" x="279.517" y="594.794" fill="#BFE5E1" rx="3"/>
              <rect width="10" height="66" x="279.517" y="715.794" fill="#0E423C" rx="3"/>
              <rect width="10" height="66" x="279.517" y="832.794" fill="#8792A2" rx="3"/>
              <rect width="58.052" height="46.038" x="86.077" y="120.099" fill="#8792A2" opacity=".322" rx="3"/>
              <rect width="57.051" height="46.038" y="120.099" fill="#8792A2" opacity=".322" rx="3"/>
              <rect width="57.051" height="46.038" x="173.154" y="120.099" fill="#8792A2" opacity=".322" rx="3"/>
              <rect width="58.052" height="46.038" x="86.077" y="239.198" fill="#8792A2" opacity=".322" rx="3"/>
              <rect width="57.051" height="46.038" y="239.198" fill="#8792A2" opacity=".322" rx="3"/>
              <rect width="57.051" height="46.038" x="173.154" y="239.198" fill="#8792A2" opacity=".322" rx="3"/>
              <rect width="58.052" height="46.038" x="86.077" y="358.298" fill="#8792A2" opacity=".322" rx="3"/>
              <rect width="57.051" height="46.038" y="358.298" fill="#8792A2" opacity=".322" rx="3"/>
              <rect width="57.051" height="46.038" x="173.154" y="358.298" fill="#8792A2" opacity=".322" rx="3"/>
              <rect width="58.052" height="46.038" x="86.077" y="477.397" fill="#8792A2" opacity=".322" rx="3"/>
              <rect width="57.051" height="46.038" y="477.397" fill="#8792A2" opacity=".322" rx="3"/>
              <rect width="57.051" height="46.038" x="173.154" y="477.397" fill="#8792A2" opacity=".322" rx="3"/>
              <rect width="58.052" height="46.038" x="86.077" y="596.496" fill="#8792A2" opacity=".322" rx="3"/>
              <rect width="57.051" height="46.038" y="596.496" fill="#8792A2" opacity=".322" rx="3"/>
              <rect width="57.051" height="46.038" x="173.154" y="596.496" fill="#8792A2" opacity=".322" rx="3"/>
              <rect width="58.052" height="46.038" x="86.077" y="715.595" fill="#8792A2" opacity=".322" rx="3"/>
              <rect width="57.051" height="46.038" y="715.595" fill="#8792A2" opacity=".322" rx="3"/>
              <rect width="57.051" height="46.038" x="173.154" y="715.595" fill="#8792A2" opacity=".322" rx="3"/>
              <rect width="58.052" height="46.038" x="86.077" y="834.695" fill="#8792A2" opacity=".322" rx="3"/>
              <rect width="57.051" height="46.038" y="834.695" fill="#8792A2" opacity=".322" rx="3"/>
              <rect width="57.051" height="46.038" x="173.154" y="834.695" fill="#8792A2" opacity=".322" rx="3"/>
              <g fill="#ECEEF0" transform="translate(0 57.047)">
                <rect width="57.051" height="10.008" rx="3"/>
                <rect width="57.051" height="10.008" x="87.077" rx="3"/>
                <rect width="57.051" height="10.008" x="173.154" rx="3"/>
                <rect width="57.051" height="10.008" y="119.099" rx="3"/>
                <rect width="57.051" height="10.008" x="87.077" y="119.099" rx="3"/>
                <rect width="57.051" height="10.008" x="173.154" y="119.099" rx="3"/>
                <rect width="57.051" height="10.008" y="238.198" rx="3"/>
                <rect width="57.051" height="10.008" x="87.077" y="238.198" rx="3"/>
                <rect width="57.051" height="10.008" x="173.154" y="238.198" rx="3"/>
                <rect width="57.051" height="10.008" y="357.298" rx="3"/>
                <rect width="57.051" height="10.008" x="87.077" y="357.298" rx="3"/>
                <rect width="57.051" height="10.008" x="173.154" y="357.298" rx="3"/>
                <rect width="57.051" height="10.008" y="476.397" rx="3"/>
                <rect width="57.051" height="10.008" x="87.077" y="476.397" rx="3"/>
                <rect width="57.051" height="10.008" x="173.154" y="476.397" rx="3"/>
                <rect width="57.051" height="10.008" y="595.496" rx="3"/>
                <rect width="57.051" height="10.008" x="87.077" y="595.496" rx="3"/>
                <rect width="57.051" height="10.008" x="173.154" y="595.496" rx="3"/>
                <rect width="57.051" height="10.008" y="714.595" rx="3"/>
                <rect width="57.051" height="10.008" x="87.077" y="714.595" rx="3"/>
                <rect width="57.051" height="10.008" x="173.154" y="714.595" rx="3"/>
                <rect width="57.051" height="10.008" y="833.695" rx="3"/>
                <rect width="57.051" height="10.008" x="87.077" y="833.695" rx="3"/>
                <rect width="57.051" height="10.008" x="173.154" y="833.695" rx="3"/>
              </g>
            </g>
            <g fill="#8792A2" opacity=".32" transform="translate(758.675 1)">
              <rect width="25.022" height="25.021" rx="11.5"/>
              <rect width="25.022" height="25.021" y="119.099" rx="11.5"/>
              <rect width="25.022" height="25.021" y="238.198" rx="11.5"/>
              <rect width="25.022" height="25.021" y="357.298" rx="11.5"/>
              <rect width="25.022" height="25.021" y="476.397" rx="11.5"/>
              <rect width="25.022" height="25.021" y="595.496" rx="11.5"/>
              <rect width="25.022" height="25.021" y="714.595" rx="11.5"/>
              <rect width="25.022" height="25.021" y="833.695" rx="11.5"/>
            </g>
            <rect width="57.051" height="10.008" x="793.706" y="8.006" fill="#8792A2" opacity=".164" rx="3"/>
            <rect width="124.11" height="10.008" x="758.675" y="31.025" fill="#8792A2" opacity=".164" rx="3"/>
            <rect width="48.043" height="10.008" x="887.79" y="31.025" fill="#8792A2" opacity=".164" rx="3"/>
            <rect width="53.047" height="10.008" x="758.675" y="46.038" fill="#8792A2" opacity=".164" rx="3"/>
          </g>
          <g transform="translate(87.077 69.058)">
            <rect width="16.014" height="10.008" x="30.027" y="5.004" fill="#8792A2" opacity=".158" rx="3"/>
            <rect width="43.038" height="10.008" x="51.045" y="5.004" fill="#8792A2" opacity=".158" rx="3"/>
            <rect width="20.018" height="10.008" x="157.14" y="5.004" fill="#8792A2" opacity=".158" rx="3"/>
            <rect width="30.027" height="10.008" x="187.167" y="5.004" fill="#8792A2" opacity=".158" rx="3"/>
            <rect width="10.009" height="10.008" x="222.198" y="5.004" fill="#8792A2" opacity=".158" rx="3"/>
            <rect width="43.038" height="10.017" x="104.093" y="5" fill="#8792A2" opacity=".204" rx="3"/>
            <rect width="20.018" height="20.017" fill="#F84F77" rx="10"/>
          </g>
        </g>
        <g transform="translate(0 226.188)">
          <ellipse cx="35.031" cy="35.029" fill="#8792A2" opacity=".24" rx="35.031" ry="35.029"/>
          <g transform="translate(87.077 2.002)">
            <path fill="#8792A2" d="M136.771548,31.3271684 C142.49286,31.3271684 147.130899,35.9652082 147.130899,41.6865202 C147.130899,47.4078322 142.49286,52.045872 136.771548,52.045872 L10.3593518,52.045872 C4.63803977,52.045872 -7.03536149e-14,47.4078322 -7.10542736e-14,41.6865202 C-7.17549322e-14,35.9652082 4.63803977,31.3271684 10.3593518,31.3271684 L136.771548,31.3271684 Z M271.891761,31.3271684 C277.613073,31.3271684 282.251113,35.9652082 282.251113,41.6865202 C282.251113,47.4078322 277.613073,52.045872 271.891761,52.045872 L271.891761,52.045872 L167.499156,52.045872 C161.777844,52.045872 157.139804,47.4078322 157.139804,41.6865202 C157.139804,35.9652082 161.777844,31.3271684 167.499156,31.3271684 L167.499156,31.3271684 Z M345.957656,1 C351.678968,1 356.317008,5.63803977 356.317008,11.3593518 C356.317008,17.0806638 351.678968,21.7187036 345.957656,21.7187036 L10.3593518,21.7187036 C4.63803977,21.7187036 -1.41407889e-13,17.0806638 -1.42108547e-13,11.3593518 C-1.42809206e-13,5.63803977 4.63803977,1 10.3593518,1 L345.957656,1 Z" opacity=".4"/>
            <rect width="57.051" height="10.008" x="793.706" y="7.006" fill="#8792A2" opacity=".164" rx="3"/>
            <rect width="124.11" height="10.008" x="758.675" y="30.025" fill="#8792A2" opacity=".164" rx="3"/>
            <rect width="48.043" height="10.008" x="887.79" y="30.025" fill="#8792A2" opacity=".164" rx="3"/>
            <rect width="53.047" height="10.008" x="758.675" y="45.038" fill="#8792A2" opacity=".164" rx="3"/>
          </g>
          <g transform="translate(87.077 69.058)">
            <rect width="16.014" height="10.008" x="30.027" y="5.004" fill="#8792A2" opacity=".158" rx="3"/>
            <rect width="43.038" height="10.008" x="51.045" y="5.004" fill="#8792A2" opacity=".158" rx="3"/>
            <rect width="20.018" height="10.008" x="157.14" y="5.004" fill="#8792A2" opacity=".158" rx="3"/>
            <rect width="30.027" height="10.008" x="187.167" y="5.004" fill="#8792A2" opacity=".158" rx="3"/>
            <rect width="10.009" height="10.008" x="222.198" y="5.004" fill="#8792A2" opacity=".158" rx="3"/>
            <rect width="43.038" height="10.017" x="104.093" y="5" fill="#8792A2" opacity=".204" rx="3"/>
            <rect width="20.018" height="20.017" fill="#1851BE" rx="10"/>
          </g>
        </g>
        <g transform="translate(0 345.288)">
          <ellipse cx="35.031" cy="35.029" fill="#8792A2" opacity=".24" rx="35.031" ry="35.029"/>
          <g transform="translate(87.077 2.002)">
            <path fill="#8792A2" d="M66.7092146,30.3271684 C72.4305266,30.3271684 77.0685663,34.9652082 77.0685663,40.6865202 C77.0685663,46.4078322 72.4305266,51.045872 66.7092146,51.045872 L10.3593518,51.045872 C4.63803977,51.045872 -1.20091606e-13,46.4078322 -1.20792265e-13,40.6865202 C-1.21492924e-13,34.9652082 4.63803977,30.3271684 10.3593518,30.3271684 L66.7092146,30.3271684 Z M186.816071,30.3271684 C192.537383,30.3271684 197.175423,34.9652082 197.175423,40.6865202 C197.175423,46.4078322 192.537383,51.045872 186.816071,51.045872 L186.816071,51.045872 L97.4368228,51.045872 C91.7155108,51.045872 87.0774711,46.4078322 87.0774711,40.6865202 C87.0774711,34.9652082 91.7155108,30.3271684 97.4368228,30.3271684 L97.4368228,30.3271684 Z M345.957656,0 C351.678968,3.77376536e-14 356.317008,4.63803977 356.317008,10.3593518 C356.317008,16.0806638 351.678968,20.7187036 345.957656,20.7187036 L10.3593518,20.7187036 C4.63803977,20.7187036 7.00658643e-16,16.0806638 0,10.3593518 C-7.00658643e-16,4.63803977 4.63803977,1.05098796e-15 10.3593518,0 L345.957656,0 Z" opacity=".4"/>
            <rect width="57.051" height="10.008" x="793.706" y="7.006" fill="#8792A2" opacity=".164" rx="3"/>
            <rect width="124.11" height="10.008" x="758.675" y="30.025" fill="#8792A2" opacity=".164" rx="3"/>
            <rect width="48.043" height="10.008" x="887.79" y="30.025" fill="#8792A2" opacity=".164" rx="3"/>
            <rect width="53.047" height="10.008" x="758.675" y="45.038" fill="#8792A2" opacity=".164" rx="3"/>
          </g>
          <g transform="translate(87.077 69.058)">
            <rect width="16.014" height="10.008" x="30.027" y="5.004" fill="#8792A2" opacity=".158" rx="3"/>
            <rect width="43.038" height="10.008" x="51.045" y="5.004" fill="#8792A2" opacity=".158" rx="3"/>
            <rect width="20.018" height="10.008" x="157.14" y="5.004" fill="#8792A2" opacity=".158" rx="3"/>
            <rect width="30.027" height="10.008" x="187.167" y="5.004" fill="#8792A2" opacity=".158" rx="3"/>
            <rect width="10.009" height="10.008" x="222.198" y="5.004" fill="#8792A2" opacity=".158" rx="3"/>
            <rect width="43.038" height="10.017" x="104.093" y="5" fill="#8792A2" opacity=".204" rx="3"/>
            <rect width="20.018" height="20.017" fill="#BCCCEB" rx="10"/>
          </g>
        </g>
        <g transform="translate(0 464.387)">
          <ellipse cx="35.031" cy="35.029" fill="#8792A2" opacity=".24" rx="35.031" ry="35.029"/>
          <g transform="translate(87.077 2.002)">
            <path fill="#8792A2" d="M66.7092146,30.3271684 C72.4305266,30.3271684 77.0685663,34.9652082 77.0685663,40.6865202 C77.0685663,46.4078322 72.4305266,51.045872 66.7092146,51.045872 L10.3593518,51.045872 C4.63803977,51.045872 -1.20091606e-13,46.4078322 -1.20792265e-13,40.6865202 C-1.21492924e-13,34.9652082 4.63803977,30.3271684 10.3593518,30.3271684 L66.7092146,30.3271684 Z M296.914023,30.3271684 C302.635335,30.3271684 307.273375,34.9652082 307.273375,40.6865202 C307.273375,46.4078322 302.635335,51.045872 296.914023,51.045872 L296.914023,51.045872 L97.4368228,51.045872 C91.7155108,51.045872 87.0774711,46.4078322 87.0774711,40.6865202 C87.0774711,34.9652082 91.7155108,30.3271684 97.4368228,30.3271684 L97.4368228,30.3271684 Z M278.897995,0 C284.619307,1.13835099e-14 289.257346,4.63803977 289.257346,10.3593518 C289.257346,16.0806638 284.619307,20.7187036 278.897995,20.7187036 L10.3593518,20.7187036 C4.63803977,20.7187036 7.00658643e-16,16.0806638 0,10.3593518 C-7.00658643e-16,4.63803977 4.63803977,1.05098796e-15 10.3593518,0 L278.897995,0 Z" opacity=".4"/>
            <rect width="57.051" height="10.008" x="793.706" y="7.006" fill="#8792A2" opacity=".164" rx="3"/>
            <rect width="74.066" height="10.008" x="758.675" y="30.025" fill="#8792A2" opacity=".164" rx="3"/>
            <rect width="98.087" height="10.008" x="837.745" y="30.025" fill="#8792A2" opacity=".164" rx="3"/>
            <rect width="110.098" height="10.008" x="758.675" y="45.021" fill="#8792A2" opacity=".164" rx="3"/>
          </g>
          <g transform="translate(87.077 69.058)">
            <rect width="16.014" height="10.008" x="30.027" y="5.004" fill="#8792A2" opacity=".158" rx="3"/>
            <rect width="43.038" height="10.008" x="51.045" y="5.004" fill="#8792A2" opacity=".158" rx="3"/>
            <rect width="20.018" height="10.008" x="157.14" y="5.004" fill="#8792A2" opacity=".158" rx="3"/>
            <rect width="30.027" height="10.008" x="187.167" y="5.004" fill="#8792A2" opacity=".158" rx="3"/>
            <rect width="10.009" height="10.008" x="222.198" y="5.004" fill="#8792A2" opacity=".158" rx="3"/>
            <rect width="43.038" height="10.017" x="104.093" y="5" fill="#8792A2" opacity=".204" rx="3"/>
            <rect width="20.018" height="20.017" fill="#512DA8" rx="10"/>
          </g>
        </g>
        <g transform="translate(0 583.486)">
          <ellipse cx="35.031" cy="35.029" fill="#8792A2" opacity=".24" rx="35.031" ry="35.029"/>
          <g transform="translate(87.077 2.002)">
            <path fill="#8792A2" d="M66.7092146,30.3271684 C72.4305266,30.3271684 77.0685663,34.9652082 77.0685663,40.6865202 C77.0685663,46.4078322 72.4305266,51.045872 66.7092146,51.045872 L10.3593518,51.045872 C4.63803977,51.045872 -1.20091606e-13,46.4078322 -1.20792265e-13,40.6865202 C-1.21492924e-13,34.9652082 4.63803977,30.3271684 10.3593518,30.3271684 L66.7092146,30.3271684 Z M186.816071,30.3271684 C192.537383,30.3271684 197.175423,34.9652082 197.175423,40.6865202 C197.175423,46.4078322 192.537383,51.045872 186.816071,51.045872 L186.816071,51.045872 L97.4368228,51.045872 C91.7155108,51.045872 87.0774711,46.4078322 87.0774711,40.6865202 C87.0774711,34.9652082 91.7155108,30.3271684 97.4368228,30.3271684 L97.4368228,30.3271684 Z M345.957656,0 C351.678968,3.77376536e-14 356.317008,4.63803977 356.317008,10.3593518 C356.317008,16.0806638 351.678968,20.7187036 345.957656,20.7187036 L10.3593518,20.7187036 C4.63803977,20.7187036 7.00658643e-16,16.0806638 0,10.3593518 C-7.00658643e-16,4.63803977 4.63803977,1.05098796e-15 10.3593518,0 L345.957656,0 Z" opacity=".4"/>
            <rect width="57.051" height="10.008" x="793.706" y="7.006" fill="#8792A2" opacity=".164" rx="3"/>
            <rect width="102.091" height="10.008" x="758.675" y="30.025" fill="#8792A2" opacity=".164" rx="3"/>
            <rect width="70.062" height="10.008" x="865.77" y="30.025" fill="#8792A2" opacity=".164" rx="3"/>
            <rect width="53.047" height="10.008" x="758.675" y="45.038" fill="#8792A2" opacity=".164" rx="3"/>
            <rect width="70.062" height="10.008" x="816.727" y="45.038" fill="#8792A2" opacity=".164" rx="3"/>
          </g>
          <g transform="translate(87.077 69.058)">
            <rect width="16.014" height="10.008" x="30.027" y="5.004" fill="#8792A2" opacity=".158" rx="3"/>
            <rect width="43.038" height="10.008" x="51.045" y="5.004" fill="#8792A2" opacity=".158" rx="3"/>
            <rect width="20.018" height="10.008" x="157.14" y="5.004" fill="#8792A2" opacity=".158" rx="3"/>
            <rect width="30.027" height="10.008" x="187.167" y="5.004" fill="#8792A2" opacity=".158" rx="3"/>
            <rect width="10.009" height="10.008" x="222.198" y="5.004" fill="#8792A2" opacity=".158" rx="3"/>
            <rect width="43.038" height="10.017" x="104.093" y="5" fill="#8792A2" opacity=".204" rx="3"/>
            <rect width="20.018" height="20.017" fill="#8369C0" rx="10"/>
          </g>
        </g>
        <g transform="translate(0 702.585)">
          <ellipse cx="35.031" cy="35.029" fill="#8792A2" opacity=".24" rx="35.031" ry="35.029"/>
          <g transform="translate(87.077 2.002)">
            <path fill="#8792A2" d="M126.762643,30.3271684 C132.483955,30.3271684 137.121995,34.9652082 137.121995,40.6865202 C137.121995,46.4078322 132.483955,51.045872 126.762643,51.045872 L10.3593518,51.045872 C4.63803977,51.045872 -4.19319055e-14,46.4078322 -4.26325641e-14,40.6865202 C-4.33332228e-14,34.9652082 4.63803977,30.3271684 10.3593518,30.3271684 L126.762643,30.3271684 Z M256.878404,30.3271684 C262.599716,30.3271684 267.237756,34.9652082 267.237756,40.6865202 C267.237756,46.4078322 262.599716,51.045872 256.878404,51.045872 L256.878404,51.045872 L157.490251,51.045872 C151.768939,51.045872 147.130899,46.4078322 147.130899,40.6865202 C147.130899,34.9652082 151.768939,30.3271684 157.490251,30.3271684 L157.490251,30.3271684 Z M309.925599,0 C315.646911,1.13835099e-14 320.284951,4.63803977 320.284951,10.3593518 C320.284951,16.0806638 315.646911,20.7187036 309.925599,20.7187036 L10.3593518,20.7187036 C4.63803977,20.7187036 7.00658643e-16,16.0806638 0,10.3593518 C-7.00658643e-16,4.63803977 4.63803977,1.05098796e-15 10.3593518,0 L309.925599,0 Z" opacity=".4"/>
            <rect width="57.051" height="10.008" x="793.706" y="7.006" fill="#8792A2" opacity=".164" rx="3"/>
            <rect width="124.11" height="10.008" x="758.675" y="30.025" fill="#8792A2" opacity=".164" rx="3"/>
            <rect width="48.043" height="10.008" x="887.79" y="30.025" fill="#8792A2" opacity=".164" rx="3"/>
            <rect width="53.047" height="10.008" x="758.675" y="45.038" fill="#8792A2" opacity=".164" rx="3"/>
          </g>
          <g transform="translate(87.077 69.058)">
            <rect width="16.014" height="10.008" x="30.027" y="5.004" fill="#8792A2" opacity=".158" rx="3"/>
            <rect width="43.038" height="10.008" x="51.045" y="5.004" fill="#8792A2" opacity=".158" rx="3"/>
            <rect width="20.018" height="10.008" x="157.14" y="5.004" fill="#8792A2" opacity=".158" rx="3"/>
            <rect width="30.027" height="10.008" x="187.167" y="5.004" fill="#8792A2" opacity=".158" rx="3"/>
            <rect width="10.009" height="10.008" x="222.198" y="5.004" fill="#8792A2" opacity=".158" rx="3"/>
            <rect width="43.038" height="10.017" x="104.093" y="5" fill="#8792A2" opacity=".204" rx="3"/>
            <rect width="20.018" height="20.017" fill="#BFE5E1" rx="10"/>
          </g>
        </g>
        <g transform="translate(0 821.685)">
          <ellipse cx="35.031" cy="35.029" fill="#8792A2" opacity=".24" rx="35.031" ry="35.029"/>
          <g transform="translate(87.077 2.002)">
            <path fill="#8792A2" d="M66.7092146,30.3271684 C72.4305266,30.3271684 77.0685663,34.9652082 77.0685663,40.6865202 C77.0685663,46.4078322 72.4305266,51.045872 66.7092146,51.045872 L10.3593518,51.045872 C4.63803977,51.045872 -1.20091606e-13,46.4078322 -1.20792265e-13,40.6865202 C-1.21492924e-13,34.9652082 4.63803977,30.3271684 10.3593518,30.3271684 L66.7092146,30.3271684 Z M186.816071,30.3271684 C192.537383,30.3271684 197.175423,34.9652082 197.175423,40.6865202 C197.175423,46.4078322 192.537383,51.045872 186.816071,51.045872 L186.816071,51.045872 L97.4368228,51.045872 C91.7155108,51.045872 87.0774711,46.4078322 87.0774711,40.6865202 C87.0774711,34.9652082 91.7155108,30.3271684 97.4368228,30.3271684 L97.4368228,30.3271684 Z M345.957656,0 C351.678968,3.77376536e-14 356.317008,4.63803977 356.317008,10.3593518 C356.317008,16.0806638 351.678968,20.7187036 345.957656,20.7187036 L10.3593518,20.7187036 C4.63803977,20.7187036 7.00658643e-16,16.0806638 0,10.3593518 C-7.00658643e-16,4.63803977 4.63803977,1.05098796e-15 10.3593518,0 L345.957656,0 Z" opacity=".4"/>
            <rect width="57.051" height="10.008" x="793.706" y="7.006" fill="#8792A2" opacity=".164" rx="3"/>
            <rect width="124.11" height="10.008" x="758.675" y="30.025" fill="#8792A2" opacity=".164" rx="3"/>
            <rect width="48.043" height="10.008" x="887.79" y="30.025" fill="#8792A2" opacity=".164" rx="3"/>
            <rect width="53.047" height="10.008" x="758.675" y="45.038" fill="#8792A2" opacity=".164" rx="3"/>
          </g>
          <g transform="translate(87.077 69.058)">
            <rect width="16.014" height="10.008" x="30.027" y="5.004" fill="#8792A2" opacity=".158" rx="3"/>
            <rect width="43.038" height="10.008" x="51.045" y="5.004" fill="#8792A2" opacity=".158" rx="3"/>
            <rect width="20.018" height="10.008" x="157.14" y="5.004" fill="#8792A2" opacity=".158" rx="3"/>
            <rect width="30.027" height="10.008" x="187.167" y="5.004" fill="#8792A2" opacity=".158" rx="3"/>
            <rect width="10.009" height="10.008" x="222.198" y="5.004" fill="#8792A2" opacity=".158" rx="3"/>
            <rect width="43.038" height="10.017" x="104.093" y="5" fill="#8792A2" opacity=".204" rx="3"/>
            <rect width="20.018" height="20.017" fill="#0E423C" rx="10"/>
          </g>
        </g>
        <g transform="translate(0 940.784)">
          <ellipse cx="35.031" cy="35.029" fill="#8792A2" opacity=".24" rx="35.031" ry="35.029"/>
          <g transform="translate(87.077 2.002)">
            <path fill="#8792A2" d="M66.7092146,30.3271684 C72.4305266,30.3271684 77.0685663,34.9652082 77.0685663,40.6865202 C77.0685663,46.4078322 72.4305266,51.045872 66.7092146,51.045872 L10.3593518,51.045872 C4.63803977,51.045872 -1.20091606e-13,46.4078322 -1.20792265e-13,40.6865202 C-1.21492924e-13,34.9652082 4.63803977,30.3271684 10.3593518,30.3271684 L66.7092146,30.3271684 Z M186.816071,30.3271684 C192.537383,30.3271684 197.175423,34.9652082 197.175423,40.6865202 C197.175423,46.4078322 192.537383,51.045872 186.816071,51.045872 L186.816071,51.045872 L97.4368228,51.045872 C91.7155108,51.045872 87.0774711,46.4078322 87.0774711,40.6865202 C87.0774711,34.9652082 91.7155108,30.3271684 97.4368228,30.3271684 L97.4368228,30.3271684 Z M345.957656,0 C351.678968,3.77376536e-14 356.317008,4.63803977 356.317008,10.3593518 C356.317008,16.0806638 351.678968,20.7187036 345.957656,20.7187036 L10.3593518,20.7187036 C4.63803977,20.7187036 7.00658643e-16,16.0806638 0,10.3593518 C-7.00658643e-16,4.63803977 4.63803977,1.05098796e-15 10.3593518,0 L345.957656,0 Z" opacity=".4"/>
            <rect width="57.051" height="10.008" x="793.706" y="7.006" fill="#8792A2" opacity=".164" rx="3"/>
            <rect width="124.11" height="10.008" x="758.675" y="30.025" fill="#8792A2" opacity=".164" rx="3"/>
            <rect width="48.043" height="10.008" x="887.79" y="30.025" fill="url(#community-home-alt-b)" opacity=".164" rx="3"/>
            <rect width="53.047" height="10.008" x="758.675" y="45.038" fill="#8792A2" opacity=".164" rx="3"/>
          </g>
          <g fill="#8792A2" transform="translate(87.077 69.058)">
            <rect width="16.014" height="10.008" x="30.027" y="5.004" opacity=".158" rx="3"/>
            <rect width="43.038" height="10.008" x="51.045" y="5.004" opacity=".158" rx="3"/>
            <rect width="20.018" height="10.008" x="157.14" y="5.004" opacity=".158" rx="3"/>
            <rect width="30.027" height="10.008" x="187.167" y="5.004" opacity=".158" rx="3"/>
            <rect width="10.009" height="10.008" x="222.198" y="5.004" opacity=".158" rx="3"/>
            <rect width="43.038" height="10.017" x="104.093" y="5" opacity=".204" rx="3"/>
            <rect width="20.018" height="20.017" rx="10"/>
          </g>
        </g>
        <rect width="70.002" height="70" x="955.637" y="952.791" fill="#1851BE" opacity=".965" rx="34.97" transform="matrix(1 0 0 -1 0 1975.582)"/>
      </g>
      <g transform="translate(.316 .002)">
        <g fill-rule="nonzero" transform="translate(.684 45.998)">
          <path fill="url(#community-home-alt-c)" d="M129.915291,8 C135.179484,8 138.182774,10.6057143 138.182774,14.4457143 C138.182774,16.8114286 136.96796,18.7314286 134.977015,19.5885714 C137.406643,20.4114286 138.958904,22.4342857 138.958904,25.2114286 C138.958904,29.36 135.92187,32 130.387718,32 L121.074145,32 L121.074145,32 L121.074145,8 L121.074145,8 L129.915291,8 Z M120.107401,8 L120.107401,32 L120.107401,32 L110.793828,32 C105.259676,32 102.222642,29.36 102.222642,25.2114286 C102.222642,22.4342857 103.774903,20.4114286 106.204531,19.5885714 C104.213586,18.7314286 102.998772,16.8114286 102.998772,14.4457143 C102.998772,10.6057143 106.002062,8 111.266256,8 L111.266256,8 L120.107401,8 L120.107401,8 Z M129.645332,21.7142857 L125.832166,21.7142857 L125.832166,28.16 L125.832166,28.16 L129.645332,28.16 L129.645332,28.16 C132.176194,28.16 133.391008,27.1317912 133.391008,24.9375055 C133.391008,22.8460769 132.412408,21.7142857 129.645332,21.7142857 Z M115.34938,21.7142857 L111.536214,21.7142857 C108.769138,21.7142857 107.790538,22.8460769 107.790538,24.9375055 C107.790538,27.1317912 109.005352,28.16 111.536214,28.16 L111.536214,28.16 L115.34938,28.16 L115.34938,28.16 L115.34938,21.7142857 Z M129.645332,11.84 L125.798421,11.84 L125.798421,17.9428571 L129.645332,17.9428571 C132.108705,17.9428571 133.391008,16.8114286 133.391008,14.8914286 C133.391008,12.9714286 132.108705,11.84 129.645332,11.84 Z M115.383125,11.84 L111.536214,11.84 C109.072842,11.84 107.790538,12.9714286 107.790538,14.8914286 C107.790538,16.8114286 109.072842,17.9428571 111.536214,17.9428571 L111.536214,17.9428571 L115.383125,17.9428571 L115.383125,11.84 Z"/>
          <path fill="#000306" stroke="#000306" stroke-width=".275" d="M70.3896714,0 C71.4905598,-2.02229919e-16 72.3830062,0.892446381 72.3830062,1.99333478 L72.3828641,19.3364782 C72.4041115,19.6390065 72.4148995,19.9454661 72.4148995,20.255529 C72.4148995,26.9735597 67.3505003,32 60.5651887,32 C53.7307082,32 48.7154779,26.9735597 48.7154779,20.255529 C48.7154779,13.5374983 53.7307082,8.51105803 60.5651887,8.51105803 C63.628943,8.51105803 66.3418427,9.53583365 68.3960998,11.2783917 L68.3963366,1.99333478 C68.3963366,0.892446381 69.288783,2.02229919e-16 70.3896714,0 Z M85.9367439,8.76712329 C92.3643834,8.76712329 96.9571122,12.4722723 97.196335,19.7421846 L97.2045021,20.096736 C97.2176578,21.0867668 96.4257441,21.9000103 95.4357133,21.913166 L78.6077153,21.9132984 C78.6077153,24.825729 80.1935668,28.1756582 86.1860305,28.1756582 C89.2475284,28.1756582 92.2464475,27.3335037 95.1827877,25.6491949 L95.6018575,25.4028808 C96.1921523,25.0474377 96.9588244,25.2378227 97.3142675,25.8281175 C97.5632929,26.2416812 97.5495304,26.757344 97.2897875,27.1543705 L97.2045021,27.2696986 C96.7515947,27.8140187 92.5602168,32 86.1860305,32 C79.2558607,32 74.1704123,27.1239641 74.1704123,20.3357574 C74.1704123,13.7387677 79.006574,8.76712329 85.9367439,8.76712329 Z M35.5491325,8.76712329 C42.3344441,8.76712329 47.3988433,13.7387677 47.3988433,20.3835616 C47.3988433,27.0283556 42.3344441,32 35.5491325,32 C28.714652,32 23.6994217,27.0283556 23.6994217,20.3835616 C23.6994217,13.7387677 28.714652,8.76712329 35.5491325,8.76712329 Z M11.9920228,8.76712329 C18.2617111,8.76712329 21.943909,12.7846158 21.943909,18.3145762 L21.943909,28.9836321 C21.943909,30.1653313 20.9859525,31.1232877 19.8042534,31.1232877 L19.6645979,31.1232877 C18.5600284,31.1232877 17.6645979,30.2278572 17.6645979,29.1232877 L17.6645979,18.6454285 C17.6645979,15.0533175 15.7239801,12.5482927 11.5441879,12.5482927 C4.50284572,12.5482927 4.28618903,15.615653 4.27952267,19.4587615 L4.27931104,31.1232877 L2,31.1232877 C0.8954305,31.1232877 1.3527075e-16,30.2278572 0,29.1232877 L0,15.4710345 L0,15.4710345 C0,10.6930726 8.40934379,8.76712329 11.9920228,8.76712329 Z M35.5491325,12.5914651 C31.0747604,12.5914651 27.9279492,15.9855685 27.9279492,20.3835616 C27.9279492,24.6859462 31.0747604,28.1756582 35.5491325,28.1756582 C40.0235046,28.1756582 43.1703158,24.6859462 43.1703158,20.3835616 C43.1703158,15.9855685 40.0235046,12.5914651 35.5491325,12.5914651 Z M60.5651887,12.3775505 C56.0908166,12.3775505 52.9440054,15.8090626 52.9440054,20.255529 C52.9440054,24.6053331 56.0908166,28.1335075 60.5651887,28.1335075 C65.0395609,28.1335075 68.186372,24.6053331 68.186372,20.255529 C68.186372,15.8090626 65.0395609,12.3775505 60.5651887,12.3775505 Z M85.9367439,12.5914651 C81.9481569,12.5914651 79.2060033,14.8860702 78.6575726,18.3279779 L92.7173417,18.3279779 C92.168911,14.8860702 89.7259015,12.5914651 85.9367439,12.5914651 Z"/>
        </g>
        <g fill="#8792A2" opacity=".499" transform="translate(212.682 49)">
          <rect width="29" height="26" y="4" opacity=".3" rx="10"/>
          <rect width="29" height="26" x="59" y="4" opacity=".3" rx="10"/>
          <rect width="29" height="26" x="295" y="4" opacity=".3" rx="10"/>
          <rect width="29" height="26" x="118" y="4" opacity=".3" rx="10"/>
          <rect width="29" height="26" x="177" y="4" opacity=".3" rx="10"/>
          <rect width="29" height="26" x="354" y="4" opacity=".3" rx="10"/>
          <rect width="29" height="26" x="742.002" y="3.998" opacity=".3" rx="10"/>
          <rect width="29" height="26" x="683.002" y="3.998" opacity=".3" rx="10"/>
          <rect width="29" height="26" x="624.002" y="3.998" opacity=".3" rx="10"/>
          <rect width="32" height="33" x="798.002" y=".998" opacity=".6" rx="16"/>
          <rect width="29" height="26" x="236" y="4" opacity=".3" rx="10"/>
        </g>
        <rect width="16" height="16" x="351.682" y="45" fill="#F84F77" rx="8"/>
        <rect width="16" height="16" x="917.684" y="44.998" fill="#F84F77" rx="8"/>
      </g>
    </g>
  </g>
</svg>
