<svg xmlns="http://www.w3.org/2000/svg" width="1124" height="1202" viewBox="0 0 1124 1202">
  <defs>
    <radialGradient id="community-home-a" cx="65.599%" cy="0%" r="167.283%" fx="65.599%" fy="0%" gradientTransform="matrix(-.52372 .5978 -.39054 -.80165 1 -.392)">
      <stop offset="0%" stop-color="#2A6CBE"/>
      <stop offset="38.688%" stop-color="#2062BC"/>
      <stop offset="49.182%" stop-color="#1F5FBC"/>
      <stop offset="66.583%" stop-color="#1C5ABD"/>
      <stop offset="85.354%" stop-color="#1956BC"/>
      <stop offset="100%" stop-color="#1851BE"/>
    </radialGradient>
  </defs>
  <g fill="none" fill-rule="evenodd">
    <rect width="1124" height="1202" fill="#FFF"/>
    <g transform="translate(49 -26)">
      <g transform="translate(2)">
        <g fill="#FFF" opacity=".296" transform="translate(33.066 142.78)">
          <rect width="40.036" height="12.716" rx="3"/>
          <rect width="83.074" height="12.716" x="50.045" rx="3"/>
        </g>
        <g transform="translate(.316 .002)">
          <g fill-rule="nonzero" transform="translate(.684 44.998)">
            <path fill="url(#community-home-a)" d="M129.915291,8 C135.179484,8 138.182774,10.6057143 138.182774,14.4457143 C138.182774,16.8114286 136.96796,18.7314286 134.977015,19.5885714 C137.406643,20.4114286 138.958904,22.4342857 138.958904,25.2114286 C138.958904,29.36 135.92187,32 130.387718,32 L121.074145,32 L121.074145,32 L121.074145,8 L121.074145,8 L129.915291,8 Z M120.107401,8 L120.107401,32 L120.107401,32 L110.793828,32 C105.259676,32 102.222642,29.36 102.222642,25.2114286 C102.222642,22.4342857 103.774903,20.4114286 106.204531,19.5885714 C104.213586,18.7314286 102.998772,16.8114286 102.998772,14.4457143 C102.998772,10.6057143 106.002062,8 111.266256,8 L111.266256,8 L120.107401,8 L120.107401,8 Z M129.645332,21.7142857 L125.832166,21.7142857 L125.832166,28.16 L125.832166,28.16 L129.645332,28.16 L129.645332,28.16 C132.176194,28.16 133.391008,27.1317912 133.391008,24.9375055 C133.391008,22.8460769 132.412408,21.7142857 129.645332,21.7142857 Z M115.34938,21.7142857 L111.536214,21.7142857 C108.769138,21.7142857 107.790538,22.8460769 107.790538,24.9375055 C107.790538,27.1317912 109.005352,28.16 111.536214,28.16 L111.536214,28.16 L115.34938,28.16 L115.34938,28.16 L115.34938,21.7142857 Z M129.645332,11.84 L125.798421,11.84 L125.798421,17.9428571 L129.645332,17.9428571 C132.108705,17.9428571 133.391008,16.8114286 133.391008,14.8914286 C133.391008,12.9714286 132.108705,11.84 129.645332,11.84 Z M115.383125,11.84 L111.536214,11.84 C109.072842,11.84 107.790538,12.9714286 107.790538,14.8914286 C107.790538,16.8114286 109.072842,17.9428571 111.536214,17.9428571 L111.536214,17.9428571 L115.383125,17.9428571 L115.383125,11.84 Z"/>
            <path fill="#000306" stroke="#000306" stroke-width=".275" d="M70.3896714,0 C71.4905598,-2.02229919e-16 72.3830062,0.892446381 72.3830062,1.99333478 L72.3828641,19.3364782 C72.4041115,19.6390065 72.4148995,19.9454661 72.4148995,20.255529 C72.4148995,26.9735597 67.3505003,32 60.5651887,32 C53.7307082,32 48.7154779,26.9735597 48.7154779,20.255529 C48.7154779,13.5374983 53.7307082,8.51105803 60.5651887,8.51105803 C63.628943,8.51105803 66.3418427,9.53583365 68.3960998,11.2783917 L68.3963366,1.99333478 C68.3963366,0.892446381 69.288783,2.02229919e-16 70.3896714,0 Z M85.9367439,8.76712329 C92.3643834,8.76712329 96.9571122,12.4722723 97.196335,19.7421846 L97.2045021,20.096736 C97.2176578,21.0867668 96.4257441,21.9000103 95.4357133,21.913166 L78.6077153,21.9132984 C78.6077153,24.825729 80.1935668,28.1756582 86.1860305,28.1756582 C89.2475284,28.1756582 92.2464475,27.3335037 95.1827877,25.6491949 L95.6018575,25.4028808 C96.1921523,25.0474377 96.9588244,25.2378227 97.3142675,25.8281175 C97.5632929,26.2416812 97.5495304,26.757344 97.2897875,27.1543705 L97.2045021,27.2696986 C96.7515947,27.8140187 92.5602168,32 86.1860305,32 C79.2558607,32 74.1704123,27.1239641 74.1704123,20.3357574 C74.1704123,13.7387677 79.006574,8.76712329 85.9367439,8.76712329 Z M35.5491325,8.76712329 C42.3344441,8.76712329 47.3988433,13.7387677 47.3988433,20.3835616 C47.3988433,27.0283556 42.3344441,32 35.5491325,32 C28.714652,32 23.6994217,27.0283556 23.6994217,20.3835616 C23.6994217,13.7387677 28.714652,8.76712329 35.5491325,8.76712329 Z M11.9920228,8.76712329 C18.2617111,8.76712329 21.943909,12.7846158 21.943909,18.3145762 L21.943909,28.9836321 C21.943909,30.1653313 20.9859525,31.1232877 19.8042534,31.1232877 L19.6645979,31.1232877 C18.5600284,31.1232877 17.6645979,30.2278572 17.6645979,29.1232877 L17.6645979,18.6454285 C17.6645979,15.0533175 15.7239801,12.5482927 11.5441879,12.5482927 C4.50284572,12.5482927 4.28618903,15.615653 4.27952267,19.4587615 L4.27931104,31.1232877 L2,31.1232877 C0.8954305,31.1232877 1.3527075e-16,30.2278572 0,29.1232877 L0,15.4710345 L0,15.4710345 C0,10.6930726 8.40934379,8.76712329 11.9920228,8.76712329 Z M35.5491325,12.5914651 C31.0747604,12.5914651 27.9279492,15.9855685 27.9279492,20.3835616 C27.9279492,24.6859462 31.0747604,28.1756582 35.5491325,28.1756582 C40.0235046,28.1756582 43.1703158,24.6859462 43.1703158,20.3835616 C43.1703158,15.9855685 40.0235046,12.5914651 35.5491325,12.5914651 Z M60.5651887,12.3775505 C56.0908166,12.3775505 52.9440054,15.8090626 52.9440054,20.255529 C52.9440054,24.6053331 56.0908166,28.1335075 60.5651887,28.1335075 C65.0395609,28.1335075 68.186372,24.6053331 68.186372,20.255529 C68.186372,15.8090626 65.0395609,12.3775505 60.5651887,12.3775505 Z M85.9367439,12.5914651 C81.9481569,12.5914651 79.2060033,14.8860702 78.6575726,18.3279779 L92.7173417,18.3279779 C92.168911,14.8860702 89.7259015,12.5914651 85.9367439,12.5914651 Z"/>
          </g>
          <g fill="#8792A2" opacity=".499" transform="translate(211.682 49)">
            <rect width="29" height="26" y="4" opacity=".3" rx="10"/>
            <rect width="29" height="26" x="59" y="4" opacity=".3" rx="10"/>
            <rect width="29" height="26" x="295" y="4" opacity=".3" rx="10"/>
            <rect width="29" height="26" x="118" y="4" opacity=".3" rx="10"/>
            <rect width="29" height="26" x="177" y="4" opacity=".3" rx="10"/>
            <rect width="29" height="26" x="354" y="4" opacity=".3" rx="10"/>
            <rect width="29" height="26" x="733.002" y="3.998" opacity=".3" rx="10"/>
            <rect width="29" height="26" x="674.002" y="3.998" opacity=".3" rx="10"/>
            <rect width="29" height="26" x="615.002" y="3.998" opacity=".3" rx="10"/>
            <rect width="32" height="33" x="789.002" y=".998" opacity=".6" rx="16"/>
            <rect width="29" height="26" x="236" y="4" opacity=".3" rx="10"/>
          </g>
          <rect width="16" height="16" x="350.682" y="45" fill="#F84F77" rx="8"/>
          <rect width="16" height="16" x="907.684" y="44.998" fill="#F84F77" rx="8"/>
        </g>
      </g>
      <g transform="translate(0 146)">
        <rect width="58.052" height="46.038" x="439.077" y="220.099" fill="#8792A2" opacity=".322" rx="3"/>
        <rect width="57.051" height="46.038" x="353" y="220.099" fill="#8792A2" opacity=".322" rx="3"/>
        <rect width="58.052" height="46.038" x="439.077" y="339.198" fill="#8792A2" opacity=".322" rx="3"/>
        <rect width="57.051" height="46.038" x="353" y="339.198" fill="#8792A2" opacity=".322" rx="3"/>
        <rect width="58.052" height="46.038" x="439.077" y="458.298" fill="#8792A2" opacity=".322" rx="3"/>
        <rect width="57.051" height="46.038" x="353" y="458.298" fill="#8792A2" opacity=".322" rx="3"/>
        <rect width="58.052" height="46.038" x="439.077" y="597.397" fill="#8792A2" opacity=".322" rx="3"/>
        <rect width="57.051" height="46.038" x="353" y="597.397" fill="#8792A2" opacity=".322" rx="3"/>
        <rect width="58.052" height="46.038" x="439.077" y="727.496" fill="#8792A2" opacity=".322" rx="3"/>
        <rect width="57.051" height="46.038" x="353" y="727.496" fill="#8792A2" opacity=".322" rx="3"/>
        <rect width="58.052" height="46.038" x="439.077" y="846.595" fill="#8792A2" opacity=".322" rx="3"/>
        <rect width="57.051" height="46.038" x="353" y="846.595" fill="#8792A2" opacity=".322" rx="3"/>
        <rect width="58.052" height="46.038" x="439.077" y="965.695" fill="#8792A2" opacity=".322" rx="3"/>
        <rect width="57.051" height="46.038" x="353" y="965.695" fill="#8792A2" opacity=".322" rx="3"/>
        <rect width="57.051" height="10.008" x="353" y="275.146" fill="#ECEEF0" rx="3"/>
        <rect width="57.051" height="10.008" x="440.077" y="275.146" fill="#ECEEF0" rx="3"/>
        <rect width="57.051" height="10.008" x="353" y="394.245" fill="#ECEEF0" rx="3"/>
        <rect width="57.051" height="10.008" x="440.077" y="394.245" fill="#ECEEF0" rx="3"/>
        <rect width="57.051" height="10.008" x="353" y="513.344" fill="#ECEEF0" rx="3"/>
        <rect width="57.051" height="10.008" x="440.077" y="513.344" fill="#ECEEF0" rx="3"/>
        <rect width="57.051" height="10.008" x="353" y="652.444" fill="#ECEEF0" rx="3"/>
        <rect width="57.051" height="10.008" x="440.077" y="652.444" fill="#ECEEF0" rx="3"/>
        <rect width="57.051" height="10.008" x="353" y="782.543" fill="#ECEEF0" rx="3"/>
        <rect width="57.051" height="10.008" x="440.077" y="782.543" fill="#ECEEF0" rx="3"/>
        <rect width="57.051" height="10.008" x="353" y="901.642" fill="#ECEEF0" rx="3"/>
        <rect width="57.051" height="10.008" x="440.077" y="901.642" fill="#ECEEF0" rx="3"/>
        <rect width="57.051" height="10.008" x="353" y="1020.741" fill="#ECEEF0" rx="3"/>
        <rect width="57.051" height="10.008" x="440.077" y="1020.741" fill="#ECEEF0" rx="3"/>
        <rect width="12" height="66" x="520.553" y="219.998" fill="#F84F77" rx="3"/>
        <rect width="12" height="66" x="520.553" y="338.998" fill="#1851BE" rx="3"/>
        <rect width="12" height="66" x="520.553" y="456.998" fill="#BCCCEB" rx="3"/>
        <rect width="12" height="66" x="520.553" y="596.998" fill="#512DA8" rx="3"/>
        <rect width="12" height="66" x="520.553" y="726.998" fill="#8369C0" rx="3"/>
        <rect width="12" height="66" x="520.553" y="845.998" fill="#BFE5E1" rx="3"/>
        <rect width="25.022" height="25.021" x="555.305" y="220.099" fill="#8792A2" opacity=".32" rx="11.5"/>
        <rect width="25.022" height="25.021" x="555.305" y="339.198" fill="#8792A2" opacity=".32" rx="11.5"/>
        <rect width="25.022" height="25.021" x="555.305" y="458.298" fill="#8792A2" opacity=".32" rx="11.5"/>
        <rect width="25.022" height="25.021" x="555.305" y="597.397" fill="#8792A2" opacity=".32" rx="11.5"/>
        <rect width="25.022" height="25.021" x="555.305" y="727.496" fill="#8792A2" opacity=".32" rx="11.5"/>
        <rect width="25.022" height="25.021" x="555.305" y="846.595" fill="#8792A2" opacity=".32" rx="11.5"/>
        <rect width="25.022" height="25.021" x="555.305" y="965.695" fill="#8792A2" opacity=".32" rx="11.5"/>
        <rect width="57.051" height="10.008" x="590.372" y="228.309" fill="#8792A2" opacity=".164" rx="3"/>
        <rect width="124.11" height="10.008" x="555.341" y="251.329" fill="#8792A2" opacity=".164" rx="3"/>
        <rect width="48.043" height="10.008" x="684.456" y="251.329" fill="#8792A2" opacity=".164" rx="3"/>
        <rect width="53.047" height="10.008" x="555.341" y="266.341" fill="#8792A2" opacity=".164" rx="3"/>
        <rect width="57.051" height="10.008" x="590.372" y="347.409" fill="#8792A2" opacity=".164" rx="3"/>
        <rect width="124.11" height="10.008" x="555.341" y="370.428" fill="#8792A2" opacity=".164" rx="3"/>
        <rect width="48.043" height="10.008" x="684.456" y="370.428" fill="#8792A2" opacity=".164" rx="3"/>
        <rect width="53.047" height="10.008" x="555.341" y="385.44" fill="#8792A2" opacity=".164" rx="3"/>
        <rect width="57.051" height="10.008" x="590.372" y="466.508" fill="#8792A2" opacity=".164" rx="3"/>
        <rect width="74.066" height="10.008" x="555.341" y="489.527" fill="#8792A2" opacity=".164" rx="3"/>
        <rect width="98.087" height="10.008" x="634.411" y="489.527" fill="#8792A2" opacity=".164" rx="3"/>
        <rect width="110.098" height="10.008" x="555.341" y="504.523" fill="#8792A2" opacity=".164" rx="3"/>
        <rect width="57.051" height="10.008" x="590.372" y="605.607" fill="#8792A2" opacity=".164" rx="3"/>
        <rect width="102.091" height="10.008" x="555.341" y="628.626" fill="#8792A2" opacity=".164" rx="3"/>
        <rect width="53.047" height="10.008" x="555.341" y="643.639" fill="#8792A2" opacity=".164" rx="3"/>
        <rect width="70.062" height="10.008" x="613.393" y="643.639" fill="#8792A2" opacity=".164" rx="3"/>
        <rect width="57.051" height="10.008" x="590.372" y="735.706" fill="#8792A2" opacity=".164" rx="3"/>
        <rect width="124.11" height="10.008" x="555.341" y="758.726" fill="#8792A2" opacity=".164" rx="3"/>
        <rect width="48.043" height="10.008" x="684.456" y="758.726" fill="#8792A2" opacity=".164" rx="3"/>
        <rect width="53.047" height="10.008" x="555.341" y="773.738" fill="#8792A2" opacity=".164" rx="3"/>
        <rect width="57.051" height="10.008" x="590.372" y="854.806" fill="#8792A2" opacity=".164" rx="3"/>
        <rect width="124.11" height="10.008" x="555.341" y="877.825" fill="#8792A2" opacity=".164" rx="3"/>
        <rect width="53.047" height="10.008" x="555.341" y="892.837" fill="#8792A2" opacity=".164" rx="3"/>
        <rect width="57.051" height="10.008" x="590.372" y="973.905" fill="#8792A2" opacity=".164" rx="3"/>
        <rect width="124.11" height="10.008" x="555.341" y="996.924" fill="#8792A2" opacity=".164" rx="3"/>
        <rect width="53.047" height="10.008" x="555.341" y="1011.937" fill="#8792A2" opacity=".164" rx="3"/>
        <ellipse cx="35.62" cy="253.331" fill="#8792A2" opacity=".24" rx="35.031" ry="35.029"/>
        <path fill="#8792A2" d="M177.552983,244.998332 C181.418976,244.998332 184.552983,248.132339 184.552983,251.998332 C184.552983,255.864325 181.418976,258.998332 177.552983,258.998332 L94.5529831,258.998332 C90.6869898,258.998332 87.5529831,255.864325 87.5529831,251.998332 C87.5529831,248.132339 90.6869898,244.998332 94.5529831,244.998332 L177.552983,244.998332 Z M267.552983,244.998332 C271.418976,244.998332 274.552983,248.132339 274.552983,251.998332 C274.552983,255.864325 271.418976,258.998332 267.552983,258.998332 L267.552983,258.998332 L198.552983,258.998332 C194.68699,258.998332 191.552983,255.864325 191.552983,251.998332 C191.552983,248.132339 194.68699,244.998332 198.552983,244.998332 L198.552983,244.998332 Z" opacity=".4"/>
        <rect width="235" height="15.475" x="87.666" y="220.304" fill="#8792A2" opacity=".4" rx="7.738"/>
        <ellipse cx="35.62" cy="372.43" fill="#8792A2" opacity=".24" rx="35.031" ry="35.029"/>
        <path fill="#8792A2" d="M159.552983,363.998332 C163.418976,363.998332 166.552983,367.132339 166.552983,370.998332 C166.552983,374.864325 163.418976,377.998332 159.552983,377.998332 L94.5529831,377.998332 C90.6869898,377.998332 87.5529831,374.864325 87.5529831,370.998332 C87.5529831,367.132339 90.6869898,363.998332 94.5529831,363.998332 L159.552983,363.998332 Z M286.552983,363.998332 C290.418976,363.998332 293.552983,367.132339 293.552983,370.998332 C293.552983,374.864325 290.418976,377.998332 286.552983,377.998332 L286.552983,377.998332 L181.552983,377.998332 C177.68699,377.998332 174.552983,374.864325 174.552983,370.998332 C174.552983,367.132339 177.68699,363.998332 181.552983,363.998332 L181.552983,363.998332 Z" opacity=".4"/>
        <rect width="180" height="15.475" x="87.666" y="339.403" fill="#8792A2" opacity=".4" rx="7.738"/>
        <ellipse cx="35.62" cy="491.53" fill="#8792A2" opacity=".24" rx="35.031" ry="35.029"/>
        <circle cx="95.553" cy="527.998" r="9" fill="#1851BE"/>
        <rect width="69" height="12" x="109.553" y="521.998" fill="#ECEEF0" rx="5"/>
        <rect width="52" height="12" x="109.553" y="544.998" fill="#ECEEF0" rx="5"/>
        <circle cx="95.553" cy="550.998" r="9" fill="#F84F77"/>
        <circle cx="207.553" cy="527.998" r="9" fill="#BCCCEB"/>
        <rect width="69" height="12" x="221.553" y="544.998" fill="#ECEEF0" rx="5"/>
        <rect width="96" height="12" x="221.553" y="520.998" fill="#ECEEF0" rx="5"/>
        <circle cx="95.553" cy="664.998" r="9" fill="#512DA8"/>
        <rect width="69" height="12" x="109.553" y="658.998" fill="#ECEEF0" rx="5"/>
        <circle cx="207.553" cy="664.998" r="9" fill="#8369C0"/>
        <rect width="64" height="12" x="221.553" y="658.998" fill="#ECEEF0" rx="5"/>
        <circle cx="95.553" cy="903.998" r="9" fill="#BFE5E1"/>
        <rect width="69" height="12" x="109.553" y="897.998" fill="#ECEEF0" rx="6"/>
        <circle cx="207.553" cy="903.998" r="9" fill="#0E423C"/>
        <rect width="109" height="12" x="221.553" y="897.998" fill="#ECEEF0" rx="6"/>
        <circle cx="207.553" cy="550.998" r="9" fill="#8792A2"/>
        <rect width="231" height="14" x="87.553" y="482.998" fill="#8792A2" opacity=".4" rx="7"/>
        <rect width="163" height="15.475" x="87.666" y="458.502" fill="#8792A2" opacity=".4" rx="7.738"/>
        <ellipse cx="35.62" cy="630.629" fill="#8792A2" opacity=".24" rx="35.031" ry="35.029"/>
        <path fill="#8792A2" d="M154.552983,621.998332 C158.418976,621.998332 161.552983,625.132339 161.552983,628.998332 C161.552983,632.864325 158.418976,635.998332 154.552983,635.998332 L94.5529831,635.998332 C90.6869898,635.998332 87.5529831,632.864325 87.5529831,628.998332 C87.5529831,625.132339 90.6869898,621.998332 94.5529831,621.998332 L154.552983,621.998332 Z M270.552983,621.998332 C274.418976,621.998332 277.552983,625.132339 277.552983,628.998332 C277.552983,632.864325 274.418976,635.998332 270.552983,635.998332 L270.552983,635.998332 L178.552983,635.998332 C174.68699,635.998332 171.552983,632.864325 171.552983,628.998332 C171.552983,625.132339 174.68699,621.998332 178.552983,621.998332 L178.552983,621.998332 Z" opacity=".4"/>
        <rect width="124" height="15.475" x="87.666" y="597.601" fill="#8792A2" opacity=".4" rx="7.738"/>
        <ellipse cx="35.62" cy="759.728" fill="#8792A2" opacity=".24" rx="35.031" ry="35.029"/>
        <path fill="#8792A2" d="M188.552983,751.998332 C192.418976,751.998332 195.552983,755.132339 195.552983,758.998332 C195.552983,762.864325 192.418976,765.998332 188.552983,765.998332 L94.5529831,765.998332 C90.6869898,765.998332 87.5529831,762.864325 87.5529831,758.998332 C87.5529831,755.132339 90.6869898,751.998332 94.5529831,751.998332 L188.552983,751.998332 Z M290.552983,751.998332 C294.418976,751.998332 297.552983,755.132339 297.552983,758.998332 C297.552983,762.864325 294.418976,765.998332 290.552983,765.998332 L290.552983,765.998332 L210.552983,765.998332 C206.68699,765.998332 203.552983,762.864325 203.552983,758.998332 C203.552983,755.132339 206.68699,751.998332 210.552983,751.998332 L210.552983,751.998332 Z" opacity=".4"/>
        <rect width="187" height="15.475" x="87.666" y="726.701" fill="#8792A2" opacity=".4" rx="7.738"/>
        <ellipse cx="35.62" cy="878.827" fill="#8792A2" opacity=".24" rx="35.031" ry="35.029"/>
        <path fill="#8792A2" d="M157.496941,870.370309 C161.494212,870.370309 164.734639,873.610737 164.734639,877.608007 C164.734639,881.605277 161.494212,884.845705 157.496941,884.845705 L94.903771,884.845705 C90.9065008,884.845705 87.666073,881.605277 87.666073,877.608007 C87.666073,873.610737 90.9065008,870.370309 94.903771,870.370309 L157.496941,870.370309 Z M277.603798,870.370309 C281.601068,870.370309 284.841496,873.610737 284.841496,877.608007 C284.841496,881.605277 281.601068,884.845705 277.603798,884.845705 L277.603798,884.845705 L181.981242,884.845705 C177.983972,884.845705 174.743544,881.605277 174.743544,877.608007 C174.743544,873.610737 177.983972,870.370309 181.981242,870.370309 L181.981242,870.370309 Z" opacity=".4"/>
        <rect width="223" height="15.475" x="87.666" y="845.8" fill="#8792A2" opacity=".4" rx="7.738"/>
        <rect width="12" height="66" x="520.553" y="965.998" fill="#0E423C" rx="3"/>
        <ellipse cx="35.62" cy="997.927" fill="#8792A2" opacity=".24" rx="35.031" ry="35.029"/>
        <path fill="#8792A2" d="M130.552983,989.998332 C134.418976,989.998332 137.552983,993.132339 137.552983,996.998332 C137.552983,1000.86433 134.418976,1003.99833 130.552983,1003.99833 L94.5529831,1003.99833 C90.6869898,1003.99833 87.5529831,1000.86433 87.5529831,996.998332 C87.5529831,993.132339 90.6869898,989.998332 94.5529831,989.998332 L130.552983,989.998332 Z M209.552983,989.998332 C213.418976,989.998332 216.552983,993.132339 216.552983,996.998332 C216.552983,1000.86433 213.418976,1003.99833 209.552983,1003.99833 L209.552983,1003.99833 L151.552983,1003.99833 C147.68699,1003.99833 144.552983,1000.86433 144.552983,996.998332 C144.552983,993.132339 147.68699,989.998332 151.552983,989.998332 L151.552983,989.998332 Z" opacity=".4"/>
        <rect width="181" height="15.475" x="87.666" y="964.899" fill="#8792A2" opacity=".4" rx="7.738"/>
        <rect width="235" height="120" x="798.553" y="218.998" fill="#D7D0E9" opacity=".598" rx="3"/>
        <rect width="60" height="10" x="811.553" y="234.998" fill="#512DA8" opacity=".666" rx="5"/>
        <rect width="145" height="10" x="876.553" y="234.998" fill="#512DA8" opacity=".298" rx="5"/>
        <rect width="210" height="10" x="811.553" y="253.998" fill="#512DA8" opacity=".298" rx="5"/>
        <rect width="145" height="10" x="811.553" y="272.998" fill="#512DA8" opacity=".298" rx="5"/>
        <rect width="98" height="10" x="811.553" y="291.998" fill="#512DA8" opacity=".298" rx="5"/>
        <rect width="235" height="120" x="798.553" y="348.998" fill="#D7D0E9" opacity=".598" rx="3"/>
        <rect width="88" height="10" x="811.553" y="364.998" fill="#512DA8" opacity=".673" rx="5"/>
        <rect width="117" height="10" x="904.553" y="364.998" fill="#512DA8" opacity=".298" rx="5"/>
        <rect width="194" height="10" x="811.553" y="383.998" fill="#512DA8" opacity=".298" rx="5"/>
        <rect width="210" height="10" x="811.553" y="402.998" fill="#512DA8" opacity=".298" rx="5"/>
        <rect width="145" height="10" x="811.553" y="421.998" fill="#512DA8" opacity=".298" rx="5"/>
        <rect width="237" height="120" x="2.553" y="38.998" fill="#1851BE" rx="5"/>
        <rect width="210" height="10" x="15.553" y="58.998" fill="#FFF" opacity=".966" rx="5"/>
        <rect width="125" height="10" x="15.553" y="77.998" fill="#FFF" opacity=".598" rx="5"/>
        <rect width="80" height="10" x="145.553" y="77.998" fill="#FFF" opacity=".298" rx="5" transform="matrix(-1 0 0 1 371.106 0)"/>
        <rect width="20" height="20" x="15.553" y="128.998" fill="#FFF" opacity=".298" rx="3" transform="matrix(-1 0 0 1 51.106 0)"/>
        <rect width="20" height="10" x="206.553" y="133.998" fill="#FFF" opacity=".598" rx="3" transform="matrix(-1 0 0 1 433.106 0)"/>
        <rect width="12" height="8" x="90.553" y="5.998" fill="#8792A2" opacity=".241" rx="3"/>
        <rect width="83" height="18" x="2.553" y=".998" fill="#1851BE" rx="9"/>
        <rect width="125" height="18" x="107.553" y=".998" fill="#8792A2" opacity=".141" rx="9"/>
        <rect width="237" height="120" x="266.553" y="38.998" fill="#F84F77" opacity=".25" rx="5"/>
        <rect width="210" height="10" x="279.553" y="58.998" fill="#F84F77" opacity=".866" rx="5"/>
        <rect width="128" height="10" x="279.553" y="77.998" fill="#F84F77" opacity=".498" rx="5"/>
        <rect width="77" height="10" x="412.553" y="77.998" fill="#F84F77" opacity=".198" rx="5"/>
        <rect width="237" height="120" x="531.553" y="38.998" fill="#512DA8" rx="5"/>
        <rect width="237" height="120" x="796.553" y="38.998" fill="#BFE5E1" rx="5"/>
        <path fill="#1851BE" d="M984.552983 498.998332L1030.55298 498.998332C1032.20984 498.998332 1033.55298 500.341478 1033.55298 501.998332L1033.55298 525.998332C1033.55298 527.655186 1032.20984 528.998332 1030.55298 528.998332L984.552983 528.998332 984.552983 528.998332 984.552983 498.998332zM984.552983 548.998332L1030.55298 548.998332C1032.20984 548.998332 1033.55298 550.341478 1033.55298 551.998332L1033.55298 575.998332C1033.55298 577.655186 1032.20984 578.998332 1030.55298 578.998332L984.552983 578.998332 984.552983 578.998332 984.552983 548.998332zM984.552983 598.998332L1030.55298 598.998332C1032.20984 598.998332 1033.55298 600.341478 1033.55298 601.998332L1033.55298 625.998332C1033.55298 627.655186 1032.20984 628.998332 1030.55298 628.998332L984.552983 628.998332 984.552983 628.998332 984.552983 598.998332zM984.552983 648.998332L1030.55298 648.998332C1032.20984 648.998332 1033.55298 650.341478 1033.55298 651.998332L1033.55298 675.998332C1033.55298 677.655186 1032.20984 678.998332 1030.55298 678.998332L984.552983 678.998332 984.552983 678.998332 984.552983 648.998332zM984.552983 698.998332L1030.55298 698.998332C1032.20984 698.998332 1033.55298 700.341478 1033.55298 701.998332L1033.55298 725.998332C1033.55298 727.655186 1032.20984 728.998332 1030.55298 728.998332L984.552983 728.998332 984.552983 728.998332 984.552983 698.998332zM984.552983 748.998332L1030.55298 748.998332C1032.20984 748.998332 1033.55298 750.341478 1033.55298 751.998332L1033.55298 775.998332C1033.55298 777.655186 1032.20984 778.998332 1030.55298 778.998332L984.552983 778.998332 984.552983 778.998332 984.552983 748.998332z" opacity=".197"/>
        <rect width="36" height="10" x="991.553" y="508.998" fill="#1851BE" opacity=".383" rx="5"/>
        <rect width="36" height="10" x="991.553" y="558.998" fill="#1851BE" opacity=".383" rx="5"/>
        <rect width="36" height="10" x="991.553" y="608.998" fill="#1851BE" opacity=".383" rx="5"/>
        <rect width="36" height="10" x="991.553" y="658.998" fill="#1851BE" opacity=".383" rx="5"/>
        <rect width="36" height="10" x="991.553" y="708.998" fill="#1851BE" opacity=".383" rx="5"/>
        <rect width="36" height="10" x="991.553" y="758.998" fill="#1851BE" opacity=".383" rx="5"/>
        <path fill="#1851BE" d="M801.552983 498.998332L984.552983 498.998332 984.552983 498.998332 984.552983 528.998332 801.552983 528.998332C799.896129 528.998332 798.552983 527.655186 798.552983 525.998332L798.552983 501.998332C798.552983 500.341478 799.896129 498.998332 801.552983 498.998332zM801.552983 548.998332L984.552983 548.998332 984.552983 548.998332 984.552983 578.998332 801.552983 578.998332C799.896129 578.998332 798.552983 577.655186 798.552983 575.998332L798.552983 551.998332C798.552983 550.341478 799.896129 548.998332 801.552983 548.998332z" opacity=".117"/>
        <path fill="#1851BE" d="M801.552983,598.998332 L984.552983,598.998332 L984.552983,598.998332 L984.552983,628.998332 L801.552983,628.998332 C799.896129,628.998332 798.552983,627.655186 798.552983,625.998332 L798.552983,601.998332 C798.552983,600.341478 799.896129,598.998332 801.552983,598.998332 Z" opacity=".125"/>
        <path fill="#1851BE" d="M801.552983 648.998332L984.552983 648.998332 984.552983 648.998332 984.552983 678.998332 801.552983 678.998332C799.896129 678.998332 798.552983 677.655186 798.552983 675.998332L798.552983 651.998332C798.552983 650.341478 799.896129 648.998332 801.552983 648.998332zM801.552983 698.998332L984.552983 698.998332 984.552983 698.998332 984.552983 728.998332 801.552983 728.998332C799.896129 728.998332 798.552983 727.655186 798.552983 725.998332L798.552983 701.998332C798.552983 700.341478 799.896129 698.998332 801.552983 698.998332z" opacity=".117"/>
        <rect width="176" height="10" x="544.553" y="58.998" fill="#FFF" opacity=".966" rx="5"/>
        <rect width="128" height="10" x="544.553" y="77.998" fill="#FFF" opacity=".598" rx="5"/>
        <rect width="72" height="10" x="677.553" y="77.998" fill="#FFF" opacity=".298" rx="5" transform="matrix(-1 0 0 1 1427.106 0)"/>
        <rect width="164" height="10" x="809.553" y="58.998" fill="#0E423C" opacity=".966" rx="5"/>
        <rect width="148" height="10" x="809.553" y="77.998" fill="#0E423C" opacity=".598" rx="5"/>
        <rect width="56" height="10" x="962.553" y="77.998" fill="#0E423C" opacity=".298" rx="5" transform="matrix(-1 0 0 1 1981.106 0)"/>
        <path fill="#1851BE" d="M801.552983,748.998332 L984.552983,748.998332 L984.552983,748.998332 L984.552983,778.998332 L801.552983,778.998332 C799.896129,778.998332 798.552983,777.655186 798.552983,775.998332 L798.552983,751.998332 C798.552983,750.341478 799.896129,748.998332 801.552983,748.998332 Z" opacity=".117"/>
        <rect width="234" height="99" x="799.053" y="799.498" stroke="#ECEEF0" rx="3"/>
        <rect width="32" height="32" x="813.553" y="848.998" fill="#8792A2" opacity=".425" rx="16"/>
        <rect width="32" height="32" x="855.553" y="848.998" fill="#8792A2" opacity=".425" rx="16"/>
        <rect width="32" height="32" x="897.553" y="848.998" fill="#8792A2" opacity=".425" rx="16"/>
        <rect width="32" height="32" x="939.553" y="848.998" fill="#8792A2" opacity=".425" rx="16"/>
        <path fill="#ECEEF0" d="M801.552983,798.998332 L1030.55298,798.998332 C1032.20984,798.998332 1033.55298,800.341478 1033.55298,801.998332 L1033.55298,834.998332 L1033.55298,834.998332 L798.552983,834.998332 L798.552983,801.998332 C798.552983,800.341478 799.896129,798.998332 801.552983,798.998332 Z"/>
        <rect width="84" height="12" x="813.553" y="810.998" fill="#8792A2" opacity=".483" rx="6"/>
        <rect width="89" height="10" x="811.553" y="508.998" fill="#FFF" opacity=".717" rx="3"/>
        <rect width="114" height="10" x="811.553" y="558.998" fill="#FFF" opacity=".717" rx="3"/>
        <rect width="78" height="10" x="811.553" y="608.998" fill="#FFF" opacity=".717" rx="3"/>
        <rect width="114" height="10" x="811.553" y="658.998" fill="#FFF" opacity=".717" rx="3"/>
        <rect width="60" height="10" x="811.553" y="708.998" fill="#FFF" opacity=".717" rx="3"/>
        <rect width="84" height="10" x="811.553" y="758.998" fill="#FFF" opacity=".717" rx="3"/>
        <path fill="#1851BE" d="M801.552983 498.998332L970.552983 498.998332 970.552983 498.998332 970.552983 528.998332 801.552983 528.998332C799.896129 528.998332 798.552983 527.655186 798.552983 525.998332L798.552983 501.998332C798.552983 500.341478 799.896129 498.998332 801.552983 498.998332zM801.552983 548.998332L957.552983 548.998332 957.552983 548.998332 957.552983 578.998332 801.552983 578.998332C799.896129 578.998332 798.552983 577.655186 798.552983 575.998332L798.552983 551.998332C798.552983 550.341478 799.896129 548.998332 801.552983 548.998332zM801.552983 598.998332L900.552983 598.998332 900.552983 598.998332 900.552983 628.998332 801.552983 628.998332C799.896129 628.998332 798.552983 627.655186 798.552983 625.998332L798.552983 601.998332C798.552983 600.341478 799.896129 598.998332 801.552983 598.998332zM801.552983 648.998332L891.552983 648.998332 891.552983 648.998332 891.552983 678.998332 801.552983 678.998332C799.896129 678.998332 798.552983 677.655186 798.552983 675.998332L798.552983 651.998332C798.552983 650.341478 799.896129 648.998332 801.552983 648.998332z" opacity=".2"/>
        <path fill="#1851BE" d="M801.552983,698.998332 L862.552983,698.998332 L862.552983,698.998332 L862.552983,728.998332 L801.552983,728.998332 C799.896129,728.998332 798.552983,727.655186 798.552983,725.998332 L798.552983,701.998332 C798.552983,700.341478 799.896129,698.998332 801.552983,698.998332 Z" opacity=".197"/>
        <path fill="#1851BE" d="M801.552983,748.998332 L850.552983,748.998332 L850.552983,748.998332 L850.552983,778.998332 L801.552983,778.998332 C799.896129,778.998332 798.552983,777.655186 798.552983,775.998332 L798.552983,751.998332 C798.552983,750.341478 799.896129,748.998332 801.552983,748.998332 Z" opacity=".2"/>
        <rect width="76" height="14" x="1.553" y="178.998" fill="#8792A2" opacity=".364" rx="3"/>
        <rect width="20" height="20" x="279.553" y="128.998" fill="#F84F77" opacity=".198" rx="3" transform="matrix(-1 0 0 1 579.106 0)"/>
        <rect width="20" height="20" x="544.553" y="128.998" fill="#FFF" opacity=".298" rx="3" transform="matrix(-1 0 0 1 1109.106 0)"/>
        <rect width="20" height="20" x="809.553" y="128.998" fill="#0E423C" opacity=".298" rx="3" transform="matrix(-1 0 0 1 1639.106 0)"/>
        <rect width="20" height="10" x="469.553" y="133.998" fill="#F84F77" opacity=".498" rx="3" transform="matrix(-1 0 0 1 959.106 0)"/>
        <rect width="20" height="10" x="735.553" y="133.998" fill="#FFF" opacity=".598" rx="3" transform="matrix(-1 0 0 1 1491.106 0)"/>
        <rect width="20" height="10" x="998.553" y="133.998" fill="#0E423C" opacity=".598" rx="3" transform="matrix(-1 0 0 1 2017.106 0)"/>
      </g>
    </g>
  </g>
</svg>
