<svg xmlns="http://www.w3.org/2000/svg" xmlns:xlink="http://www.w3.org/1999/xlink" width="3660" height="2150" viewBox="0 0 3660 2150">
  <defs>
    <path id="desktop-view-dark-b" d="M319,140.001286 C319,62.6807109 381.679978,7.34461191e-13 458.993009,6.9266478e-13 L3002.00699,-6.82121026e-13 C3079.32299,-7.23919045e-13 3142,62.6798624 3142,140.001286 L3142,1772.99871 C3142,1850.31929 3079.32002,1913 3002.00699,1913 L458.993009,1913 C381.677005,1913 319,1850.32014 319,1772.99871 L319,140.001286 Z"/>
    <filter id="desktop-view-dark-a" width="105%" height="107.4%" x="-2.5%" y="-3.2%" filterUnits="objectBoundingBox">
      <feOffset dy="10" in="SourceAlpha" result="shadowOffsetOuter1"/>
      <feGaussianBlur in="shadowOffsetOuter1" result="shadowBlurOuter1" stdDeviation="22"/>
      <feColorMatrix in="shadowBlurOuter1" values="0 0 0 0 0   0 0 0 0 0   0 0 0 0 0  0 0 0 0.44 0"/>
    </filter>
    <filter id="desktop-view-dark-c" width="103.9%" height="105.8%" x="-1.9%" y="-2.4%" filterUnits="objectBoundingBox">
      <feGaussianBlur in="SourceAlpha" result="shadowBlurInner1" stdDeviation="11"/>
      <feOffset in="shadowBlurInner1" result="shadowOffsetInner1"/>
      <feComposite in="shadowOffsetInner1" in2="SourceAlpha" k2="-1" k3="1" operator="arithmetic" result="shadowInnerInner1"/>
      <feColorMatrix in="shadowInnerInner1" result="shadowMatrixInner1" values="0 0 0 0 0   0 0 0 0 0   0 0 0 0 0  0 0 0 0.22 0"/>
      <feGaussianBlur in="SourceAlpha" result="shadowBlurInner2" stdDeviation="2"/>
      <feOffset in="shadowBlurInner2" result="shadowOffsetInner2"/>
      <feComposite in="shadowOffsetInner2" in2="SourceAlpha" k2="-1" k3="1" operator="arithmetic" result="shadowInnerInner2"/>
      <feColorMatrix in="shadowInnerInner2" result="shadowMatrixInner2" values="0 0 0 0 0   0 0 0 0 0   0 0 0 0 0  0 0 0 1 0"/>
      <feMerge>
        <feMergeNode in="shadowMatrixInner1"/>
        <feMergeNode in="shadowMatrixInner2"/>
      </feMerge>
    </filter>
    <path id="desktop-view-dark-e" d="M1.9914952,1860 C0.891622771,1859.99936 0,1860.89818 0,1862.00013 L0,1892.98227 C0,1892.98227 95.5777753,1943.42241 434.624391,1949.92067 C774.583284,1949.13786 2905.31076,1949.92067 2905.31076,1949.92067 C2905.31076,1949.92067 3321.15774,1954.55262 3460,1892.98227 L3460,1864.00802 C3460,1862.89847 3459.11213,1861.99848 3458.0085,1861.99785 L1.9914952,1860 Z"/>
    <filter id="desktop-view-dark-d" width="104.1%" height="257.8%" x="-2.1%" y="-67.8%" filterUnits="objectBoundingBox">
      <feOffset dy="10" in="SourceAlpha" result="shadowOffsetOuter1"/>
      <feGaussianBlur in="shadowOffsetOuter1" result="shadowBlurOuter1" stdDeviation="22"/>
      <feColorMatrix in="shadowBlurOuter1" values="0 0 0 0 0   0 0 0 0 0   0 0 0 0 0  0 0 0 0.44 0"/>
    </filter>
    <filter id="desktop-view-dark-f" width="103.2%" height="222.2%" x="-1.6%" y="-50%" filterUnits="objectBoundingBox">
      <feGaussianBlur in="SourceAlpha" result="shadowBlurInner1" stdDeviation="11"/>
      <feOffset in="shadowBlurInner1" result="shadowOffsetInner1"/>
      <feComposite in="shadowOffsetInner1" in2="SourceAlpha" k2="-1" k3="1" operator="arithmetic" result="shadowInnerInner1"/>
      <feColorMatrix in="shadowInnerInner1" result="shadowMatrixInner1" values="0 0 0 0 0   0 0 0 0 0   0 0 0 0 0  0 0 0 0.22 0"/>
      <feGaussianBlur in="SourceAlpha" result="shadowBlurInner2" stdDeviation="2"/>
      <feOffset in="shadowBlurInner2" result="shadowOffsetInner2"/>
      <feComposite in="shadowOffsetInner2" in2="SourceAlpha" k2="-1" k3="1" operator="arithmetic" result="shadowInnerInner2"/>
      <feColorMatrix in="shadowInnerInner2" result="shadowMatrixInner2" values="0 0 0 0 0   0 0 0 0 0   0 0 0 0 0  0 0 0 1 0"/>
      <feMerge>
        <feMergeNode in="shadowMatrixInner1"/>
        <feMergeNode in="shadowMatrixInner2"/>
      </feMerge>
    </filter>
    <rect id="desktop-view-dark-g" width="2560" height="1600" x="0" y="0" rx="20"/>
    <filter id="desktop-view-dark-h" width="102.1%" height="103.4%" x="-1.1%" y="-1.7%" filterUnits="objectBoundingBox">
      <feMorphology in="SourceAlpha" operator="dilate" radius="1" result="shadowSpreadOuter1"/>
      <feOffset in="shadowSpreadOuter1" result="shadowOffsetOuter1"/>
      <feGaussianBlur in="shadowOffsetOuter1" result="shadowBlurOuter1" stdDeviation="8"/>
      <feColorMatrix in="shadowBlurOuter1" values="0 0 0 0 0   0 0 0 0 0   0 0 0 0 0  0 0 0 0.08 0"/>
    </filter>
    <linearGradient id="desktop-view-dark-j" x1="50%" x2="50%" y1="1.152%" y2="100%">
      <stop offset="0%" stop-color="#2A2A2A"/>
      <stop offset="100%"/>
    </linearGradient>
  </defs>
  <g fill="none" fill-rule="evenodd">
    <g transform="translate(103 100)">
      <use fill="#000" filter="url(#desktop-view-dark-a)" xlink:href="#desktop-view-dark-b"/>
      <use fill="#242424" xlink:href="#desktop-view-dark-b"/>
      <use fill="#000" filter="url(#desktop-view-dark-c)" xlink:href="#desktop-view-dark-b"/>
      <circle cx="12" cy="12" r="12" fill="#000" transform="translate(1718 84)"/>
      <use fill="#000" filter="url(#desktop-view-dark-d)" xlink:href="#desktop-view-dark-e"/>
      <use fill="#242424" xlink:href="#desktop-view-dark-e"/>
      <use fill="#000" filter="url(#desktop-view-dark-f)" xlink:href="#desktop-view-dark-e"/>
      <path fill="#000" d="M1380,1863 L2080,1863 L2080,1870.99165 C2080,1879.83282 2072.85875,1887.55066 2064.04888,1888.13347 C2064.04888,1888.13347 1991.83143,1895 1731.38221,1895 C1470.93299,1895 1395.96266,1888.11026 1395.96266,1888.11026 C1387.14673,1887.49708 1380,1879.83172 1380,1870.99165 L1380,1863 Z"/>
    </g>
    <g transform="translate(553 275)">
      <mask id="desktop-view-dark-i" fill="#fff">
        <use xlink:href="#desktop-view-dark-g"/>
      </mask>
      <use fill="#000" filter="url(#desktop-view-dark-h)" xlink:href="#desktop-view-dark-g"/>
      <g mask="url(#desktop-view-dark-i)">
        <rect width="2649" height="1749.436" x="2" y="2" fill="url(#desktop-view-dark-j)" stroke="#000" stroke-width="4"/>
        <rect width="2649" height="1749.436" x="2" y="2" fill="#FFF" stroke="#000" stroke-width="4"/>
        <g transform="translate(93 37)">
          <g transform="translate(18)">
            <g fill="#FFF" opacity=".296" transform="translate(67.372 254.631)">
              <rect width="91.756" height="29.18" rx="3"/>
              <rect width="190.394" height="29.18" x="114.695" rx="3"/>
            </g>
            <g fill-rule="nonzero">
              <path fill="#1851BE" d="M291.879727,9.23705556e-14 C326.177753,9.23705556e-14 353.981797,21.5745441 353.981797,48.188093 C353.981797,74.8016419 326.177753,96.376186 291.879727,96.376186 C257.581701,96.376186 229.777658,74.8016419 229.777658,48.188093 C229.777658,21.5745441 257.581701,9.23705556e-14 291.879727,9.23705556e-14 Z M297.159539,11.63098 L293.387312,11.63098 C292.282742,11.63098 291.387312,12.5264105 291.387312,13.63098 L291.387312,13.63098 L291.387459,35.3948655 C287.199403,32.4844738 282.001129,30.8137603 276.202657,30.8137603 C261.398526,30.8137603 250.349066,41.862481 250.349066,56.6295213 C250.349066,71.3965616 261.398526,82.4452823 276.202657,82.4452823 C286.106172,82.4452823 294.258845,77.571642 298.617858,69.9718949 L298.617858,69.9718949 L298.927061,70.2814429 C303.529214,74.7929208 309.9284,77.4908996 317.244437,77.4908996 C332.157882,77.4908996 343.101561,66.4406685 343.101561,51.6716095 C343.101561,36.9025506 332.157882,25.8523195 317.244437,25.8523195 C310.594396,25.8523195 304.701877,28.0814498 300.227906,31.8754579 C299.963837,32.0993928 300.211655,24.2341791 300.227156,16.3901196 L300.227156,16.3901196 L300.227906,15.6433898 C300.227906,12.8673428 298.178932,11.63098 297.159539,11.63098 L297.159539,11.63098 Z M275.836679,42.634809 C284.061606,42.634809 289.84617,48.7565338 289.84617,56.6889097 C289.84617,64.4488427 284.061606,70.7430105 275.836679,70.7430105 C267.611752,70.7430105 261.827187,64.4488427 261.827187,56.6889097 C261.827187,48.7565338 267.611752,42.634809 275.836679,42.634809 Z M318.46418,37.982417 C326.689107,37.982417 332.473671,44.1041419 332.473671,52.0365178 C332.473671,59.7964507 326.689107,66.0906185 318.46418,66.0906185 C310.239253,66.0906185 304.454688,59.7964507 304.454688,52.0365178 C304.454688,44.1041419 310.239253,37.982417 318.46418,37.982417 Z M255.151472,16.4491933 L252.118047,16.4491933 C251.179496,16.4491933 250.418651,17.2124615 250.418651,18.1540007 L250.418651,18.1540007 L250.418651,39.5657514 C250.418651,39.6704955 250.451546,39.7725946 250.512692,39.8576381 C250.673897,40.0818427 250.986333,40.1329142 251.210538,39.9717096 L251.210538,39.9717096 L258.49239,34.736008 C258.884364,34.4541762 259.11673,34.000909 259.11673,33.5181332 L259.11673,33.5181332 L259.11673,20.4270772 C259.11673,18.2301526 257.341424,16.4491933 255.151472,16.4491933 L255.151472,16.4491933 Z"/>
              <path fill="#040F20" stroke="#040E1F" stroke-width=".275" d="M191.272634 27.980183C206.09459 27.980183 216.617047 36.6829505 216.843337 53.7534243 216.850143 54.2668801 216.821293 55.0208326 216.756787 56.0152817 216.688562 57.0673928 215.815302 57.8858428 214.760981 57.8858428L174.640363 57.8858428C174.640363 64.511204 178.239245 72.1318116 191.838358 72.1318116 199.515158 72.1318116 207.018572 69.7928236 214.3486 65.1148475L214.912111 64.7503966C215.604997 64.2963119 216.534801 64.4898989 216.988885 65.182785 217.115838 65.3765023 217.196208 65.5969869 217.223695 65.8269607 217.487378 68.0330834 217.360592 69.4477244 216.843337 70.0708837 215.815523 71.3091337 206.303739 80.8316399 191.838358 80.8316399 176.111244 80.8316399 164.570485 69.7393588 164.570485 54.2971636 164.570485 39.2899598 175.545521 27.980183 191.272634 27.980183zM191.272634 36.6800113C182.221058 36.6800113 175.998099 41.8999083 174.753508 49.7297538L206.660314 49.7297538C205.415722 41.8999083 199.871631 36.6800113 191.272634 36.6800113zM159.392254 7.77227307C160.496824 7.77227307 161.392254 8.66770357 161.392254 9.77227307L161.393004 51.9347949C161.44101 52.6205284 161.465381 53.3150998 161.465381 54.017777 161.465381 69.3557479 149.853454 80.8316399 134.295726 80.8316399 118.62526 80.8316399 107.12607 69.3557479 107.12607 54.017777 107.12607 38.679806 118.62526 27.203914 134.295726 27.203914 141.321137 27.203914 147.541936 29.5440312 152.252209 33.5231672L152.251403 12.3426985C152.251403 9.81852221 154.297653 7.77227307 156.821829 7.77227307L159.392254 7.77227307zM134.295726 36.0315232C124.036644 36.0315232 116.821466 43.8660264 116.821466 54.017777 116.821466 63.9488373 124.036644 72.0040307 134.295726 72.0040307 144.554807 72.0040307 151.769985 63.9488373 151.769985 54.017777 151.769985 43.8660264 144.554807 36.0315232 134.295726 36.0315232zM78.4038629 27.980183C93.9615909 27.980183 105.573518 39.2899598 105.573518 54.4059115 105.573518 69.5218631 93.9615909 80.8316399 78.4038629 80.8316399 62.7333977 80.8316399 51.2342074 69.5218631 51.2342074 54.4059115 51.2342074 39.2899598 62.7333977 27.980183 78.4038629 27.980183zM78.4038629 36.6800113C68.1447814 36.6800113 60.9296032 44.4011089 60.9296032 54.4059115 60.9296032 64.1932183 68.1447814 72.1318116 78.4038629 72.1318116 88.6629444 72.1318116 95.8781227 64.1932183 95.8781227 54.4059115 95.8781227 44.4011089 88.6629444 36.6800113 78.4038629 36.6800113zM27.1502926 27.980183C41.3450513 27.980183 49.6816557 37.1984604 49.6816557 49.887148L49.6816557 75.7771853C49.6816557 77.7101819 48.1146523 79.2771853 46.1816557 79.2771853L41.9931696 79.2771853C40.8886001 79.2771853 39.9931696 78.3817548 39.9931696 77.2771853L39.9931696 50.6463003 39.9931696 50.6463003C39.9931696 42.4040758 35.5995537 36.6562088 26.1363812 36.6562088 9.68848615 36.6562088 9.68848615 44.1483352 9.68848615 53.3575583L9.68848615 79.2771853 2 79.2771853C.8954305 79.2771853 1.13822108e-13 78.3817548 1.13686838e-13 77.2771853 1.13686838e-13 65.9723042 1.13686838e-13 54.6674232 1.13686838e-13 43.3625422 1.13686838e-13 32.3993411 19.0390018 27.980183 27.1502926 27.980183z"/>
            </g>
            <g fill="#8792A2" opacity=".499" transform="translate(484 18)">
              <rect width="66.464" height="59.661" y="7.768" opacity=".4" rx="10"/>
              <rect width="66.464" height="59.661" x="135.22" y="7.768" opacity=".4" rx="10"/>
              <rect width="66.464" height="59.661" x="676.099" y="7.768" opacity=".4" rx="10"/>
              <rect width="66.464" height="59.661" x="270.44" y="7.768" opacity=".4" rx="10"/>
              <rect width="66.464" height="59.661" x="405.66" y="7.768" opacity=".4" rx="10"/>
              <rect width="66.464" height="59.661" x="811.319" y="7.768" opacity=".4" rx="10"/>
              <rect width="66.464" height="59.661" x="1679.937" y="7.764" opacity=".4" rx="10"/>
              <rect width="66.464" height="59.661" x="1544.717" y="7.764" opacity=".4" rx="10"/>
              <rect width="66.464" height="59.661" x="1409.498" y="7.764" opacity=".4" rx="10"/>
              <rect width="73.34" height="75.724" x="1808.281" y=".88" opacity=".7" rx="36.67"/>
              <rect width="66.464" height="59.661" x="540.879" y="7.768" opacity=".4" rx="10"/>
            </g>
            <rect width="37" height="37" x="802" y="7" fill="#F84F77" rx="8"/>
            <rect width="37" height="37" x="2079" y="7" fill="#F84F77" rx="8"/>
          </g>
          <g transform="translate(0 244)">
            <g transform="translate(6.35 498.101)">
              <rect width="133.058" height="105.554" x="999.045" y="1.121" fill="#8792A2" opacity=".322" rx="10"/>
              <rect width="130.764" height="105.554" x="801.751" y="1.121" fill="#8792A2" opacity=".322" rx="10"/>
              <rect width="130.764" height="22.947" x="801.751" y="127.329" fill="#ECEEF0" rx="11.473"/>
              <rect width="130.764" height="22.947" x="1001.339" y="127.329" fill="#ECEEF0" rx="11.473"/>
              <rect width="27.505" height="151.321" x="1185.795" y=".889" fill="#F84F77" rx="13.752"/>
              <rect width="57.353" height="57.367" x="1265.45" y="1.121" fill="#8792A2" opacity=".32" rx="28.676"/>
              <rect width="130.764" height="22.947" x="1345.825" y="19.945" fill="#8792A2" opacity=".164" rx="11.473"/>
              <rect width="284.47" height="22.947" x="1265.531" y="72.722" fill="#8792A2" opacity=".164" rx="11.473"/>
              <rect width="110.117" height="22.947" x="1561.472" y="72.722" fill="#8792A2" opacity=".164" rx="11.473"/>
              <rect width="121.588" height="22.947" x="1265.531" y="107.142" fill="#8792A2" opacity=".164" rx="11.473"/>
              <ellipse cx="74.294" cy="76" fill="#8792A2" opacity=".24" rx="73.982" ry="74"/>
              <path fill="#8792A2" d="M399.609922,58.2081988 C408.473678,58.2081988 415.659171,65.3936923 415.659171,74.2574478 C415.659171,83.1212033 408.473678,90.3066969 399.609922,90.3066969 L209.377666,90.3066969 C200.513911,90.3066969 193.328417,83.1212033 193.328417,74.2574478 C193.328417,65.3936923 200.513911,58.2081988 209.377666,58.2081988 L399.609922,58.2081988 Z M605.896189,58.2081988 C614.759945,58.2081988 621.945438,65.3936923 621.945438,74.2574478 C621.945438,83.1212033 614.759945,90.3066969 605.896189,90.3066969 L605.896189,90.3066969 L447.752908,90.3066969 C438.889152,90.3066969 431.703659,83.1212033 431.703659,74.2574478 C431.703659,65.3936923 438.889152,58.2081988 447.752908,58.2081988 L447.752908,58.2081988 Z" opacity=".28"/>
              <rect width="538.636" height="35.481" x="193.588" y="1.589" fill="#8792A2" opacity=".28" rx="17.741"/>
            </g>
            <rect width="133.058" height="105.554" x="1005.394" y="772.287" fill="#8792A2" opacity=".322" rx="10"/>
            <rect width="130.764" height="105.554" x="808.101" y="772.287" fill="#8792A2" opacity=".322" rx="10"/>
            <rect width="133.058" height="105.554" x="1005.394" y="1045.351" fill="#8792A2" opacity=".322" rx="10"/>
            <rect width="130.764" height="105.554" x="808.101" y="1045.351" fill="#8792A2" opacity=".322" rx="10"/>
            <rect width="133.058" height="105.554" x="1005.394" y="1364.271" fill="#8792A2" opacity=".322" rx="3"/>
            <rect width="130.764" height="105.554" x="808.101" y="1364.271" fill="#8792A2" opacity=".322" rx="3"/>
            <rect width="130.764" height="22.947" x="808.101" y="898.495" fill="#ECEEF0" rx="11.473"/>
            <rect width="130.764" height="22.947" x="1007.688" y="898.495" fill="#ECEEF0" rx="11.473"/>
            <rect width="130.764" height="22.947" x="808.101" y="1171.56" fill="#ECEEF0" rx="11.473"/>
            <rect width="130.764" height="22.947" x="1007.688" y="1171.56" fill="#ECEEF0" rx="11.473"/>
            <rect width="130.764" height="22.947" x="808.101" y="1490.48" fill="#ECEEF0" rx="3"/>
            <rect width="130.764" height="22.947" x="1007.688" y="1490.48" fill="#ECEEF0" rx="3"/>
            <rect width="27.505" height="151.321" x="1192.144" y="771.828" fill="#1851BE" rx="13.752"/>
            <rect width="27.505" height="151.321" x="1192.144" y="1042.372" fill="#BCCCEB" rx="13.752"/>
            <rect width="27.505" height="151.321" x="1192.144" y="1363.357" fill="#512DA8" rx="3"/>
            <rect width="57.353" height="57.367" x="1271.799" y="772.287" fill="#8792A2" opacity=".32" rx="28.676"/>
            <rect width="57.353" height="57.367" x="1271.799" y="1045.351" fill="#8792A2" opacity=".32" rx="28.676"/>
            <rect width="57.353" height="57.367" x="1271.799" y="1364.271" fill="#8792A2" opacity=".32" rx="11.5"/>
            <rect width="130.764" height="22.947" x="1352.174" y="791.111" fill="#8792A2" opacity=".164" rx="11.473"/>
            <rect width="284.47" height="22.947" x="1271.88" y="843.888" fill="#8792A2" opacity=".164" rx="11.473"/>
            <rect width="110.117" height="22.947" x="1567.821" y="843.888" fill="#8792A2" opacity=".164" rx="11.473"/>
            <rect width="121.588" height="22.947" x="1271.88" y="878.308" fill="#8792A2" opacity=".164" rx="11.473"/>
            <rect width="130.764" height="22.947" x="1352.174" y="1064.175" fill="#8792A2" opacity=".164" rx="11.473"/>
            <rect width="169.764" height="22.947" x="1271.88" y="1116.953" fill="#8792A2" opacity=".164" rx="11.473"/>
            <rect width="224.823" height="22.947" x="1453.115" y="1116.953" fill="#8792A2" opacity=".164" rx="11.473"/>
            <rect width="252.352" height="22.947" x="1271.88" y="1151.334" fill="#8792A2" opacity=".164" rx="11.473"/>
            <rect width="130.764" height="22.947" x="1352.174" y="1383.095" fill="#8792A2" opacity=".164" rx="3"/>
            <rect width="233.999" height="22.947" x="1271.88" y="1435.872" fill="#8792A2" opacity=".164" rx="3"/>
            <rect width="121.588" height="22.947" x="1271.88" y="1470.292" fill="#8792A2" opacity=".164" rx="3"/>
            <rect width="160.588" height="22.947" x="1404.939" y="1470.292" fill="#8792A2" opacity=".164" rx="3"/>
            <ellipse cx="80.643" cy="848.479" fill="#8792A2" opacity=".24" rx="80.294" ry="80.313"/>
            <path fill="#8792A2" d="M364.701786,829.146518 C373.565541,829.146518 380.751035,836.332011 380.751035,845.195767 C380.751035,854.059522 373.565541,861.245016 364.701786,861.245016 L215.726783,861.245016 C206.863027,861.245016 199.677534,854.059522 199.677534,845.195767 C199.677534,836.332011 206.863027,829.146518 215.726783,829.146518 L364.701786,829.146518 Z M655.794629,829.146518 C664.658385,829.146518 671.843878,836.332011 671.843878,845.195767 C671.843878,854.059522 664.658385,861.245016 655.794629,861.245016 L655.794629,861.245016 L415.136841,861.245016 C406.273085,861.245016 399.087592,854.059522 399.087592,845.195767 C399.087592,836.332011 406.273085,829.146518 415.136841,829.146518 L415.136841,829.146518 Z" opacity=".28"/>
            <rect width="412.573" height="35.481" x="199.937" y="772.755" fill="#8792A2" opacity=".28" rx="17.741"/>
            <ellipse cx="80.643" cy="1121.544" fill="#8792A2" opacity=".24" rx="80.294" ry="80.313"/>
            <ellipse cx="218.014" cy="1205.158" fill="#1851BE" rx="20.629" ry="20.635"/>
            <rect width="139" height="27.513" x="257.103" y="1191.401" fill="#ECEEF0" rx="13.756"/>
            <rect width="105" height="27.513" x="257.103" y="1244.134" fill="#ECEEF0" rx="13.756"/>
            <ellipse cx="218.014" cy="1257.891" fill="#F84F77" rx="20.629" ry="20.635"/>
            <ellipse cx="474.726" cy="1205.158" fill="#BCCCEB" rx="20.629" ry="20.635"/>
            <rect width="139" height="27.513" x="516" y="1244.026" fill="#ECEEF0" rx="13.756"/>
            <rect width="193" height="27.513" x="516" y="1189" fill="#ECEEF0" rx="13.756"/>
            <ellipse cx="218.014" cy="1519.264" fill="#512DA8" rx="20.629" ry="20.635"/>
            <rect width="158.153" height="27.513" x="250.103" y="1505.508" fill="#ECEEF0" rx="5"/>
            <ellipse cx="474.726" cy="1519.264" fill="#8369C0" rx="20.629" ry="20.635"/>
            <rect width="146.692" height="27.513" x="506.815" y="1505.508" fill="#ECEEF0" rx="5"/>
            <ellipse cx="474.726" cy="1257.891" fill="#8267BF" rx="20.629" ry="20.635"/>
            <rect width="529.468" height="32.098" x="199.678" y="1101.984" fill="#8792A2" opacity=".28" rx="16.049"/>
            <rect width="373.607" height="35.481" x="199.937" y="1045.82" fill="#8792A2" opacity=".28" rx="17.741"/>
            <ellipse cx="80.643" cy="1440.464" fill="#8792A2" opacity=".24" rx="80.294" ry="80.313"/>
            <path fill="#8792A2" d="M362.290687,1420.67598 C366.15668,1420.67598 369.290687,1423.80999 369.290687,1427.67598 L369.290687,1445.77448 C369.290687,1449.64047 366.15668,1452.77448 362.290687,1452.77448 L206.677534,1452.77448 C202.811541,1452.77448 199.677534,1449.64047 199.677534,1445.77448 L199.677534,1427.67598 C199.677534,1423.80999 202.811541,1420.67598 206.677534,1420.67598 L362.290687,1420.67598 Z M628.170764,1420.67598 C632.036757,1420.67598 635.170764,1423.80999 635.170764,1427.67598 L635.170764,1427.67598 L635.170764,1445.77448 C635.170764,1449.64047 632.036757,1452.77448 628.170764,1452.77448 L628.170764,1452.77448 L399.211383,1452.77448 C395.34539,1452.77448 392.211383,1449.64047 392.211383,1445.77448 L392.211383,1445.77448 L392.211383,1427.67598 C392.211383,1423.80999 395.34539,1420.67598 399.211383,1420.67598 L399.211383,1420.67598 Z" opacity=".4"/>
            <rect width="284.217" height="35.481" x="199.937" y="1364.74" fill="#8792A2" opacity=".4" rx="10.238"/>
            <rect width="538.636" height="275.13" x="1829.339" y="496.698" fill="#D7D0E9" opacity=".598" rx="12"/>
            <rect width="137.524" height="22.927" x="1859.136" y="533.382" fill="#512DA8" opacity=".666" rx="11.464"/>
            <rect width="332.35" height="22.927" x="2008.12" y="533.382" fill="#512DA8" opacity=".298" rx="11.464"/>
            <rect width="481.335" height="22.927" x="1859.136" y="576.944" fill="#512DA8" opacity=".298" rx="11.464"/>
            <rect width="332.35" height="22.927" x="1859.136" y="620.506" fill="#512DA8" opacity=".298" rx="11.464"/>
            <rect width="224.623" height="22.927" x="1859.136" y="664.069" fill="#512DA8" opacity=".298" rx="11.464"/>
            <rect width="538.636" height="275.13" x="1829.339" y="794.755" fill="#D7D0E9" opacity=".598" rx="12"/>
            <rect width="201.702" height="22.927" x="1859.136" y="831.439" fill="#512DA8" opacity=".673" rx="11.464"/>
            <rect width="268.172" height="22.927" x="2072.298" y="831.439" fill="#512DA8" opacity=".298" rx="11.464"/>
            <rect width="444.662" height="22.927" x="1859.136" y="875.002" fill="#512DA8" opacity=".298" rx="11.464"/>
            <rect width="481.335" height="22.927" x="1859.136" y="918.564" fill="#512DA8" opacity=".298" rx="11.464"/>
            <rect width="332.35" height="22.927" x="1859.136" y="962.126" fill="#512DA8" opacity=".298" rx="11.464"/>
            <g transform="translate(4.852 84.003)">
              <rect width="543.221" height="275.13" fill="#1851BE" rx="12"/>
              <rect width="481.335" height="22.927" x="29.797" y="45.855" fill="#FFF" opacity=".966" rx="11.464"/>
              <rect width="286.509" height="22.927" x="29.797" y="89.417" fill="#FFF" opacity=".598" rx="11.464"/>
              <rect width="183.366" height="22.927" x="327.766" y="89.417" fill="#FFF" opacity=".298" rx="11.464" transform="matrix(-1 0 0 1 838.897 0)"/>
              <rect width="45.841" height="45.855" x="29.797" y="206.347" fill="#FFF" opacity=".298" rx="7" transform="matrix(-1 0 0 1 105.435 0)"/>
              <rect width="45.841" height="22.927" x="467.582" y="217.811" fill="#FFF" opacity=".598" rx="3" transform="matrix(-1 0 0 1 981.006 0)"/>
            </g>
            <rect width="27.505" height="18.342" x="215" y="10" fill="#8792A2" opacity=".241" rx="9.171"/>
            <rect width="190.242" height="36" x="4.852" y=".878" fill="#1851BE" rx="18"/>
            <rect width="286.509" height="36" x="263" y="1" fill="#8792A2" opacity=".201" rx="18"/>
            <g fill="#1851BE" transform="translate(609.958 84.003)">
              <rect width="543.221" height="275.13" opacity=".25" rx="12"/>
              <rect width="481.335" height="22.927" x="29.797" y="45.855" opacity=".866" rx="11.464"/>
              <rect width="293.385" height="22.927" x="29.797" y="89.417" opacity=".498" rx="11.464"/>
              <rect width="176.489" height="22.927" x="334.642" y="89.417" opacity=".198" rx="11.464"/>
              <rect width="45.841" height="45.855" x="29.797" y="206.347" opacity=".198" rx="7" transform="matrix(-1 0 0 1 105.435 0)"/>
              <rect width="45.841" height="22.927" x="465.29" y="217.811" opacity=".498" rx="3" transform="matrix(-1 0 0 1 976.422 0)"/>
            </g>
            <g transform="translate(1217.356 84.003)">
              <rect width="543.221" height="275.13" fill="#512DA8" rx="12"/>
              <rect width="403.404" height="22.927" x="29.797" y="45.855" fill="#FFF" opacity=".966" rx="11.464"/>
              <rect width="293.385" height="22.927" x="29.797" y="89.417" fill="#FFF" opacity=".598" rx="11.464"/>
              <rect width="165.029" height="22.927" x="334.642" y="89.417" fill="#FFF" opacity=".298" rx="11.464" transform="matrix(-1 0 0 1 834.313 0)"/>
              <rect width="45.841" height="45.855" x="29.797" y="206.347" fill="#FFF" opacity=".298" rx="7" transform="matrix(-1 0 0 1 105.435 0)"/>
              <rect width="45.841" height="22.927" x="467.582" y="217.811" fill="#FFF" opacity=".598" rx="3" transform="matrix(-1 0 0 1 981.006 0)"/>
            </g>
            <g transform="translate(1824.755 84.003)">
              <rect width="543.221" height="275.13" fill="#F9CFD9" rx="12"/>
              <rect width="375.899" height="22.927" x="29.797" y="45.855" fill="#F84F77" opacity=".966" rx="11.464"/>
              <rect width="339.226" height="22.927" x="29.797" y="89.417" fill="#F84F77" opacity=".598" rx="11.464"/>
              <rect width="128.356" height="22.927" x="380.484" y="89.417" fill="#F84F77" opacity=".298" rx="11.464" transform="matrix(-1 0 0 1 889.323 0)"/>
              <rect width="45.841" height="45.855" x="29.797" y="206.347" fill="#F84F77" opacity=".298" rx="7" transform="matrix(-1 0 0 1 105.435 0)"/>
              <rect width="45.841" height="22.927" x="462.998" y="217.811" fill="#F84F77" opacity=".598" rx="3" transform="matrix(-1 0 0 1 971.838 0)"/>
            </g>
            <path fill="#1851BE" d="M2255.66399 1138.66775L2364.97541 1138.66775C2366.63226 1138.66775 2367.97541 1140.01089 2367.97541 1141.66775L2367.97541 1204.45024C2367.97541 1206.1071 2366.63226 1207.45024 2364.97541 1207.45024L2255.66399 1207.45024 2255.66399 1207.45024 2255.66399 1138.66775zM2255.66399 1253.30524L2364.97541 1253.30524C2366.63226 1253.30524 2367.97541 1254.64839 2367.97541 1256.30524L2367.97541 1319.08774C2367.97541 1320.74459 2366.63226 1322.08774 2364.97541 1322.08774L2255.66399 1322.08774 2255.66399 1322.08774 2255.66399 1253.30524zM2255.66399 1367.94274L2364.97541 1367.94274C2366.63226 1367.94274 2367.97541 1369.28588 2367.97541 1370.94274L2367.97541 1433.72523C2367.97541 1435.38209 2366.63226 1436.72523 2364.97541 1436.72523L2255.66399 1436.72523 2255.66399 1436.72523 2255.66399 1367.94274zM2255.66399 1482.58023L2364.97541 1482.58023C2366.63226 1482.58023 2367.97541 1483.92337 2367.97541 1485.58023L2367.97541 1548.36272C2367.97541 1550.01958 2366.63226 1551.36272 2364.97541 1551.36272L2255.66399 1551.36272 2255.66399 1551.36272 2255.66399 1482.58023z" opacity=".197"/>
            <rect width="82.515" height="22.927" x="2271.708" y="1161.595" fill="#1851BE" opacity=".383" rx="6"/>
            <rect width="82.515" height="22.927" x="2271.708" y="1276.233" fill="#1851BE" opacity=".383" rx="6"/>
            <rect width="82.515" height="22.927" x="2271.708" y="1390.87" fill="#1851BE" opacity=".383" rx="6"/>
            <rect width="82.515" height="22.927" x="2271.708" y="1505.508" fill="#1851BE" opacity=".383" rx="6"/>
            <path fill="#1851BE" d="M1832.33904 1138.66775L2255.66399 1138.66775 2255.66399 1138.66775 2255.66399 1207.45024 1832.33904 1207.45024C1830.68219 1207.45024 1829.33904 1206.1071 1829.33904 1204.45024L1829.33904 1141.66775C1829.33904 1140.01089 1830.68219 1138.66775 1832.33904 1138.66775zM1832.33904 1253.30524L2255.66399 1253.30524 2255.66399 1253.30524 2255.66399 1322.08774 1832.33904 1322.08774C1830.68219 1322.08774 1829.33904 1320.74459 1829.33904 1319.08774L1829.33904 1256.30524C1829.33904 1254.64839 1830.68219 1253.30524 1832.33904 1253.30524z" opacity=".117"/>
            <path fill="#1851BE" d="M1832.33904,1367.94274 L2255.66399,1367.94274 L2255.66399,1367.94274 L2255.66399,1436.72523 L1832.33904,1436.72523 C1830.68219,1436.72523 1829.33904,1435.38209 1829.33904,1433.72523 L1829.33904,1370.94274 C1829.33904,1369.28588 1830.68219,1367.94274 1832.33904,1367.94274 Z" opacity=".125"/>
            <path fill="#1851BE" d="M1832.33904,1482.58023 L2255.66399,1482.58023 L2255.66399,1482.58023 L2255.66399,1551.36272 L1832.33904,1551.36272 C1830.68219,1551.36272 1829.33904,1550.01958 1829.33904,1548.36272 L1829.33904,1485.58023 C1829.33904,1483.92337 1830.68219,1482.58023 1832.33904,1482.58023 Z" opacity=".117"/>
            <rect width="203.994" height="22.927" x="1859.136" y="1161.595" fill="#FFF" opacity=".717" rx="11.464"/>
            <rect width="261.296" height="22.927" x="1859.136" y="1276.233" fill="#FFF" opacity=".717" rx="11.464"/>
            <rect width="178.781" height="22.927" x="1859.136" y="1390.87" fill="#FFF" opacity=".717" rx="11.464"/>
            <rect width="261.296" height="22.927" x="1859.136" y="1505.508" fill="#FFF" opacity=".717" rx="11.464"/>
            <path fill="#1851BE" d="M1832.33904 1138.66775L2223.57502 1138.66775 2223.57502 1138.66775 2223.57502 1207.45024 1832.33904 1207.45024C1830.68219 1207.45024 1829.33904 1206.1071 1829.33904 1204.45024L1829.33904 1141.66775C1829.33904 1140.01089 1830.68219 1138.66775 1832.33904 1138.66775zM1832.33904 1253.30524L2193.77811 1253.30524 2193.77811 1253.30524 2193.77811 1322.08774 1832.33904 1322.08774C1830.68219 1322.08774 1829.33904 1320.74459 1829.33904 1319.08774L1829.33904 1256.30524C1829.33904 1254.64839 1830.68219 1253.30524 1832.33904 1253.30524zM1832.33904 1367.94274L2063.13014 1367.94274 2063.13014 1367.94274 2063.13014 1436.72523 1832.33904 1436.72523C1830.68219 1436.72523 1829.33904 1435.38209 1829.33904 1433.72523L1829.33904 1370.94274C1829.33904 1369.28588 1830.68219 1367.94274 1832.33904 1367.94274zM1832.33904 1482.58023L2042.50152 1482.58023 2042.50152 1482.58023 2042.50152 1551.36272 1832.33904 1551.36272C1830.68219 1551.36272 1829.33904 1550.01958 1829.33904 1548.36272L1829.33904 1485.58023C1829.33904 1483.92337 1830.68219 1482.58023 1832.33904 1482.58023z" opacity=".2"/>
            <rect width="174.197" height="32.098" x="2.56" y="404.988" fill="#8792A2" opacity=".364" rx="16.049"/>
          </g>
        </g>
      </g>
    </g>
  </g>
</svg>
