<svg xmlns="http://www.w3.org/2000/svg" xmlns:xlink="http://www.w3.org/1999/xlink" width="3660" height="2150" viewBox="0 0 3660 2150">
  <defs>
    <path id="desktop-view-alt-b" d="M5.15235425e-12,140.001286 C5.39631238e-12,62.6807109 62.6799782,7.34461191e-13 139.993009,6.9266478e-13 L2683.00699,-6.82121026e-13 C2760.32299,-7.23919045e-13 2823,62.6798624 2823,140.001286 L2823,1772.99871 C2823,1850.31929 2760.32002,1913 2683.00699,1913 L139.993009,1913 C62.677005,1913 -2.43960805e-13,1850.32014 1.00974196e-28,1772.99871 L5.15235425e-12,140.001286 Z"/>
    <filter id="desktop-view-alt-a" width="105%" height="107.4%" x="-2.5%" y="-3.2%" filterUnits="objectBoundingBox">
      <feOffset dy="10" in="SourceAlpha" result="shadowOffsetOuter1"/>
      <feGaussianBlur in="shadowOffsetOuter1" result="shadowBlurOuter1" stdDeviation="22"/>
      <feColorMatrix in="shadowBlurOuter1" values="0 0 0 0 0   0 0 0 0 0   0 0 0 0 0  0 0 0 0.04 0"/>
    </filter>
    <filter id="desktop-view-alt-c" width="103.9%" height="105.8%" x="-1.9%" y="-2.4%" filterUnits="objectBoundingBox">
      <feGaussianBlur in="SourceAlpha" result="shadowBlurInner1" stdDeviation="11"/>
      <feOffset in="shadowBlurInner1" result="shadowOffsetInner1"/>
      <feComposite in="shadowOffsetInner1" in2="SourceAlpha" k2="-1" k3="1" operator="arithmetic" result="shadowInnerInner1"/>
      <feColorMatrix in="shadowInnerInner1" result="shadowMatrixInner1" values="0 0 0 0 0   0 0 0 0 0   0 0 0 0 0  0 0 0 0.12 0"/>
      <feGaussianBlur in="SourceAlpha" result="shadowBlurInner2" stdDeviation="2"/>
      <feOffset in="shadowBlurInner2" result="shadowOffsetInner2"/>
      <feComposite in="shadowOffsetInner2" in2="SourceAlpha" k2="-1" k3="1" operator="arithmetic" result="shadowInnerInner2"/>
      <feColorMatrix in="shadowInnerInner2" result="shadowMatrixInner2" values="0 0 0 0 0   0 0 0 0 0   0 0 0 0 0  0 0 0 0.06 0"/>
      <feMerge>
        <feMergeNode in="shadowMatrixInner1"/>
        <feMergeNode in="shadowMatrixInner2"/>
      </feMerge>
    </filter>
    <rect id="desktop-view-alt-d" width="2560" height="1600" x="0" y="0" rx="2"/>
    <filter id="desktop-view-alt-e" width="102.1%" height="103.4%" x="-1.1%" y="-1.7%" filterUnits="objectBoundingBox">
      <feMorphology in="SourceAlpha" operator="dilate" radius="1" result="shadowSpreadOuter1"/>
      <feOffset in="shadowSpreadOuter1" result="shadowOffsetOuter1"/>
      <feGaussianBlur in="shadowOffsetOuter1" result="shadowBlurOuter1" stdDeviation="8"/>
      <feColorMatrix in="shadowBlurOuter1" values="0 0 0 0 0   0 0 0 0 0   0 0 0 0 0  0 0 0 0.08 0"/>
    </filter>
    <radialGradient id="desktop-view-alt-g" cx="65.599%" cy="0%" r="169.036%" fx="65.599%" fy="0%" gradientTransform="matrix(-.5183 .5916 -.38031 -.80624 .996 -.388)">
      <stop offset="0%" stop-color="#2A6CBE"/>
      <stop offset="38.688%" stop-color="#2062BC"/>
      <stop offset="49.182%" stop-color="#1F5FBC"/>
      <stop offset="66.583%" stop-color="#1C5ABD"/>
      <stop offset="85.354%" stop-color="#1956BC"/>
      <stop offset="100%" stop-color="#1851BE"/>
    </radialGradient>
  </defs>
  <g fill="none" fill-rule="evenodd" transform="translate(422 100)">
    <use fill="#000" filter="url(#desktop-view-alt-a)" xlink:href="#desktop-view-alt-b"/>
    <use fill="#FFF" xlink:href="#desktop-view-alt-b"/>
    <use fill="#000" filter="url(#desktop-view-alt-c)" xlink:href="#desktop-view-alt-b"/>
    <circle cx="12" cy="12" r="12" fill="#EDEDED" transform="translate(1400 84)"/>
    <g transform="translate(131 162)">
      <mask id="desktop-view-alt-f" fill="#fff">
        <use xlink:href="#desktop-view-alt-d"/>
      </mask>
      <use fill="#000" filter="url(#desktop-view-alt-e)" xlink:href="#desktop-view-alt-d"/>
      <g mask="url(#desktop-view-alt-f)">
        <rect width="2558" height="1598" x="1" y="1" fill="#FFF" stroke="#000" stroke-opacity=".04" stroke-width="2"/>
        <g transform="translate(91 50)">
          <g transform="translate(5)">
            <g fill="#FFF" opacity=".296" transform="translate(74.372 231.631)">
              <rect width="91.756" height="29.18" rx="3"/>
              <rect width="190.394" height="29.18" x="114.695" rx="3"/>
            </g>
            <g transform="translate(.725 .004)">
              <g fill-rule="nonzero" transform="translate(.275 10.996)">
                <path fill="url(#desktop-view-alt-g)" d="M296.321153,19 C308.358095,19 315.225325,24.8628571 315.225325,33.5028571 C315.225325,38.8257143 312.447569,43.1457143 307.895136,45.0742857 C313.450648,46.9257143 317,51.4771429 317,57.7257143 C317,67.06 310.055613,73 297.401392,73 L276.105263,73 L276.105263,73 L276.105263,19 L276.105263,19 L296.321153,19 Z M273.894737,19 L273.894737,73 L273.894737,73 L252.598608,73 C239.944387,73 233,67.06 233,57.7257143 C233,51.4771429 236.549352,46.9257143 242.104864,45.0742857 C237.552431,43.1457143 234.774675,38.8257143 234.774675,33.5028571 C234.774675,24.8628571 241.641905,19 253.678847,19 L253.678847,19 L273.894737,19 L273.894737,19 Z M295.703874,49.8571429 L286.984807,49.8571429 L286.984807,64.36 L286.984807,64.36 L287.306178,64.360971 C288.209538,64.3621039 291.00877,64.3617802 295.703874,64.36 C301.490866,64.36 304.268621,62.0465302 304.268621,57.1093874 C304.268621,52.4036731 302.030985,49.8571429 295.703874,49.8571429 Z M263.015193,49.8571429 L254.296126,49.8571429 C247.969015,49.8571429 245.731379,52.4036731 245.731379,57.1093874 C245.731379,62.0465302 248.509134,64.36 254.296126,64.36 C258.99123,64.3617802 261.790462,64.3621039 262.693822,64.360971 L263.015193,64.36 L263.015193,64.36 L263.015193,49.8571429 Z M295.703874,27.64 L286.907647,27.64 L286.907647,41.3714286 L295.703874,41.3714286 C301.336546,41.3714286 304.268621,38.8257143 304.268621,34.5057143 C304.268621,30.1857143 301.336546,27.64 295.703874,27.64 Z M263.092353,27.64 L254.296126,27.64 C248.663454,27.64 245.731379,30.1857143 245.731379,34.5057143 C245.731379,38.8257143 248.663454,41.3714286 254.296126,41.3714286 L254.296126,41.3714286 L263.092353,41.3714286 L263.092353,27.64 Z"/>
                <path fill="#000306" stroke="#000306" stroke-width=".275" d="M195.810017,20 C210.691849,20 221.256813,28.7272272 221.484017,45.845679 C221.490864,46.3615394 221.461776,47.1194739 221.396754,48.1194827 C221.328352,49.1714504 220.455158,49.9897119 219.400969,49.9897119 L179.110557,49.9897119 C179.110557,56.6336943 182.723978,64.2757202 196.378026,64.2757202 C204.088827,64.2757202 211.625406,61.928339 218.987763,57.2335766 L219.553745,56.8677968 C220.246813,56.4139645 221.17656,56.6079034 221.630392,57.3009716 C221.757029,57.4943637 221.837254,57.7144077 221.864806,57.943925 C222.131013,60.1615294 222.004084,61.5832211 221.484017,62.2089999 C220.452051,63.4507301 210.901843,73 196.378026,73 C180.58738,73 169,61.8765432 169,46.3909465 C169,31.3415638 180.019372,20 195.810017,20 Z M162.92733,0 C164.031899,-4.2495073e-16 164.92733,0.8954305 164.92733,2 L164.928075,44.1266361 C164.975781,44.8118124 165,45.5058194 165,46.2079256 C165,61.5334332 153.460581,73 138,73 C122.427386,73 111,61.5334332 111,46.2079256 C111,30.882418 122.427386,19.4158511 138,19.4158511 C144.981278,19.4158511 151.163029,21.7538895 155.843826,25.7295173 L155.843557,4.54188628 C155.843557,2.03347175 157.877029,4.60788274e-16 160.385444,0 L162.92733,0 Z M81,20 C96.4605809,20 108,31.3415638 108,46.5 C108,61.6584362 96.4605809,73 81,73 C65.4273859,73 54,61.6584362 54,46.5 C54,31.3415638 65.4273859,20 81,20 Z M27.324263,20 C41.6099773,20 50,29.1649049 50,41.7801268 L50,67.5 C50,69.4329966 48.4329966,71 46.5,71 L42.2494331,71 C41.1448636,71 40.2494331,70.1045695 40.2494331,69 L40.2494331,42.5348837 C40.2494331,34.3403805 35.8276644,28.6257928 26.3038549,28.6257928 C10.0816327,28.6257928 9.75718821,35.7795705 9.75069932,44.6831843 L9.75056689,71 L2,71 C0.8954305,71 -1.4075584e-14,70.1045695 -1.42108547e-14,69 L-1.42108547e-14,35.2932975 L-1.42108547e-14,35.2932975 C-1.42108547e-14,24.3935718 19.1609977,20 27.324263,20 Z M81,28.7242798 C70.8049793,28.7242798 63.6348548,36.4670782 63.6348548,46.5 C63.6348548,56.3148148 70.8049793,64.2757202 81,64.2757202 C91.1950207,64.2757202 98.3651452,56.3148148 98.3651452,46.5 C98.3651452,36.4670782 91.1950207,28.7242798 81,28.7242798 Z M138,28.2362872 C127.804979,28.2362872 120.634855,36.0644241 120.634855,46.2079256 C120.634855,56.1309161 127.804979,64.179564 138,64.179564 C148.195021,64.179564 155.365145,56.1309161 155.365145,46.2079256 C155.365145,36.0644241 148.195021,28.2362872 138,28.2362872 Z M195.810017,28.7242798 C186.721876,28.7242798 180.473779,33.9588477 179.224159,41.8106996 L211.259858,41.8106996 C210.010238,33.9588477 204.443752,28.7242798 195.810017,28.7242798 Z"/>
              </g>
              <g fill="#8792A2" opacity=".499" transform="translate(483.736 17.85)">
                <rect width="66.464" height="59.661" y="7.768" opacity=".4" rx="10"/>
                <rect width="66.464" height="59.661" x="135.22" y="7.768" opacity=".4" rx="10"/>
                <rect width="66.464" height="59.661" x="676.099" y="7.768" opacity=".4" rx="10"/>
                <rect width="66.464" height="59.661" x="270.44" y="7.768" opacity=".4" rx="10"/>
                <rect width="66.464" height="59.661" x="405.66" y="7.768" opacity=".4" rx="10"/>
                <rect width="66.464" height="59.661" x="811.319" y="7.768" opacity=".4" rx="10"/>
                <rect width="66.464" height="59.661" x="1679.937" y="7.764" opacity=".4" rx="10"/>
                <rect width="66.464" height="59.661" x="1544.717" y="7.764" opacity=".4" rx="10"/>
                <rect width="66.464" height="59.661" x="1409.498" y="7.764" opacity=".4" rx="10"/>
                <rect width="73.34" height="75.724" x="1808.281" y=".88" opacity=".7" rx="36.67"/>
                <rect width="66.464" height="59.661" x="540.879" y="7.768" opacity=".4" rx="10"/>
              </g>
              <rect width="36.67" height="36.715" x="802.305" y="7.26" fill="#F84F77" rx="8"/>
              <rect width="36.67" height="36.715" x="2078.874" y="7.256" fill="#F84F77" rx="8"/>
            </g>
          </g>
          <g transform="translate(0 244)">
            <g transform="translate(6.66 498.99)">
              <rect width="133.058" height="105.554" x="998.733" y=".231" fill="#8792A2" opacity=".322" rx="10"/>
              <rect width="130.764" height="105.554" x="801.44" y=".231" fill="#2A2F45" opacity=".322" rx="10"/>
              <rect width="130.764" height="22.947" x="801.44" y="126.44" fill="#ECEEF0" rx="11.473"/>
              <rect width="130.764" height="22.947" x="1001.027" y="126.44" fill="#ECEEF0" rx="11.473"/>
              <rect width="27.505" height="151.321" x="1185.483" fill="#F84F77" rx="13.752"/>
              <rect width="57.353" height="57.367" x="1265.138" y=".231" fill="#8792A2" opacity=".32" rx="28.676"/>
              <rect width="130.764" height="22.947" x="1345.513" y="19.055" fill="#8792A2" opacity=".164" rx="11.473"/>
              <rect width="284.47" height="22.947" x="1265.22" y="71.832" fill="#8792A2" opacity=".164" rx="11.473"/>
              <rect width="110.117" height="22.947" x="1561.16" y="71.832" fill="#8792A2" opacity=".164" rx="11.473"/>
              <rect width="121.588" height="22.947" x="1265.22" y="106.252" fill="#8792A2" opacity=".164" rx="11.473"/>
              <ellipse cx="73.982" cy="75.111" fill="#8792A2" opacity=".24" rx="73.982" ry="74"/>
              <path fill="#8792A2" d="M399.298267,57.3187466 C408.162022,57.3187466 415.347516,64.5042401 415.347516,73.3679956 C415.347516,82.2317511 408.162022,89.4172446 399.298267,89.4172446 L209.06601,89.4172446 C200.202255,89.4172446 193.016761,82.2317511 193.016761,73.3679956 C193.016761,64.5042401 200.202255,57.3187466 209.06601,57.3187466 L399.298267,57.3187466 Z M605.584534,57.3187466 C614.448289,57.3187466 621.633783,64.5042401 621.633783,73.3679956 C621.633783,82.2317511 614.448289,89.4172446 605.584534,89.4172446 L605.584534,89.4172446 L447.441252,89.4172446 C438.577497,89.4172446 431.392003,82.2317511 431.392003,73.3679956 C431.392003,64.5042401 438.577497,57.3187466 447.441252,57.3187466 L447.441252,57.3187466 Z" opacity=".28"/>
            </g>
            <rect width="133.058" height="105.554" x="1005.394" y="772.287" fill="#8792A2" opacity=".322" rx="10"/>
            <rect width="130.764" height="105.554" x="808.101" y="772.287" fill="#8792A2" opacity=".322" rx="10"/>
            <rect width="133.058" height="105.554" x="1005.394" y="1045.351" fill="#8792A2" opacity=".322" rx="10"/>
            <rect width="130.764" height="105.554" x="808.101" y="1045.351" fill="#8792A2" opacity=".322" rx="10"/>
            <rect width="133.058" height="105.554" x="1005.394" y="1364.271" fill="#8792A2" opacity=".322" rx="3"/>
            <rect width="130.764" height="105.554" x="808.101" y="1364.271" fill="#8792A2" opacity=".322" rx="3"/>
            <rect width="130.764" height="22.947" x="808.101" y="898.495" fill="#ECEEF0" rx="11.473"/>
            <rect width="130.764" height="22.947" x="1007.688" y="898.495" fill="#ECEEF0" rx="11.473"/>
            <rect width="130.764" height="22.947" x="808.101" y="1171.56" fill="#ECEEF0" rx="11.473"/>
            <rect width="130.764" height="22.947" x="1007.688" y="1171.56" fill="#ECEEF0" rx="11.473"/>
            <rect width="130.764" height="22.947" x="808.101" y="1490.48" fill="#ECEEF0" rx="3"/>
            <rect width="130.764" height="22.947" x="1007.688" y="1490.48" fill="#ECEEF0" rx="3"/>
            <rect width="27.505" height="151.321" x="1192.144" y="771.828" fill="#1851BE" rx="13.752"/>
            <rect width="27.505" height="151.321" x="1192.144" y="1042.372" fill="#BCCCEB" rx="13.752"/>
            <rect width="27.505" height="151.321" x="1192.144" y="1363.357" fill="#512DA8" rx="3"/>
            <rect width="57.353" height="57.367" x="1271.799" y="772.287" fill="#8792A2" opacity=".32" rx="28.676"/>
            <rect width="57.353" height="57.367" x="1271.799" y="1045.351" fill="#8792A2" opacity=".32" rx="28.676"/>
            <rect width="57.353" height="57.367" x="1271.799" y="1364.271" fill="#8792A2" opacity=".32" rx="11.5"/>
            <rect width="130.764" height="22.947" x="1352.174" y="791.111" fill="#8792A2" opacity=".164" rx="11.473"/>
            <rect width="284.47" height="22.947" x="1271.88" y="843.888" fill="#8792A2" opacity=".164" rx="11.473"/>
            <rect width="110.117" height="22.947" x="1567.821" y="843.888" fill="#8792A2" opacity=".164" rx="11.473"/>
            <rect width="121.588" height="22.947" x="1271.88" y="878.308" fill="#8792A2" opacity=".164" rx="11.473"/>
            <rect width="130.764" height="22.947" x="1352.174" y="1064.175" fill="#8792A2" opacity=".164" rx="11.473"/>
            <rect width="169.764" height="22.947" x="1271.88" y="1116.953" fill="#8792A2" opacity=".164" rx="11.473"/>
            <rect width="224.823" height="22.947" x="1453.115" y="1116.953" fill="#8792A2" opacity=".164" rx="11.473"/>
            <rect width="252.352" height="22.947" x="1271.88" y="1151.334" fill="#8792A2" opacity=".164" rx="11.473"/>
            <rect width="130.764" height="22.947" x="1352.174" y="1383.095" fill="#8792A2" opacity=".164" rx="3"/>
            <rect width="233.999" height="22.947" x="1271.88" y="1435.872" fill="#8792A2" opacity=".164" rx="3"/>
            <rect width="121.588" height="22.947" x="1271.88" y="1470.292" fill="#8792A2" opacity=".164" rx="3"/>
            <rect width="160.588" height="22.947" x="1404.939" y="1470.292" fill="#8792A2" opacity=".164" rx="3"/>
            <ellipse cx="80.643" cy="848.479" fill="#8792A2" opacity=".24" rx="80.294" ry="80.313"/>
            <path fill="#8792A2" d="M364.701786,829.146518 C373.565541,829.146518 380.751035,836.332011 380.751035,845.195767 C380.751035,854.059522 373.565541,861.245016 364.701786,861.245016 L215.726783,861.245016 C206.863027,861.245016 199.677534,854.059522 199.677534,845.195767 C199.677534,836.332011 206.863027,829.146518 215.726783,829.146518 L364.701786,829.146518 Z M655.794629,829.146518 C664.658385,829.146518 671.843878,836.332011 671.843878,845.195767 C671.843878,854.059522 664.658385,861.245016 655.794629,861.245016 L655.794629,861.245016 L415.136841,861.245016 C406.273085,861.245016 399.087592,854.059522 399.087592,845.195767 C399.087592,836.332011 406.273085,829.146518 415.136841,829.146518 L415.136841,829.146518 Z" opacity=".28"/>
            <rect width="412.573" height="35.481" x="199.937" y="772.755" fill="#8792A2" opacity=".28" rx="17.741"/>
            <ellipse cx="80.643" cy="1121.544" fill="#8792A2" opacity=".24" rx="80.294" ry="80.313"/>
            <ellipse cx="218.014" cy="1205.158" fill="#1851BE" rx="20.629" ry="20.635"/>
            <rect width="139" height="27.513" x="257.103" y="1191.401" fill="#ECEEF0" rx="13.756"/>
            <rect width="105" height="27.513" x="257.103" y="1244.134" fill="#ECEEF0" rx="13.756"/>
            <ellipse cx="218.014" cy="1257.891" fill="#F84F77" rx="20.629" ry="20.635"/>
            <ellipse cx="474.726" cy="1205.158" fill="#BCCCEB" rx="20.629" ry="20.635"/>
            <rect width="139" height="27.513" x="516" y="1244.026" fill="#ECEEF0" rx="13.756"/>
            <rect width="193" height="27.513" x="516" y="1189" fill="#ECEEF0" rx="13.756"/>
            <ellipse cx="218.014" cy="1519.264" fill="#512DA8" rx="20.629" ry="20.635"/>
            <rect width="158.153" height="27.513" x="250.103" y="1505.508" fill="#ECEEF0" rx="5"/>
            <ellipse cx="474.726" cy="1519.264" fill="#8369C0" rx="20.629" ry="20.635"/>
            <rect width="146.692" height="27.513" x="506.815" y="1505.508" fill="#ECEEF0" rx="5"/>
            <ellipse cx="474.726" cy="1257.891" fill="#8267BF" rx="20.629" ry="20.635"/>
            <rect width="529.468" height="32.098" x="199.678" y="1101.984" fill="#8792A2" opacity=".28" rx="16.049"/>
            <rect width="373.607" height="35.481" x="199.937" y="1045.82" fill="#8792A2" opacity=".28" rx="17.741"/>
            <ellipse cx="80.643" cy="1440.464" fill="#8792A2" opacity=".24" rx="80.294" ry="80.313"/>
            <path fill="#8792A2" d="M362.290687,1420.67598 C366.15668,1420.67598 369.290687,1423.80999 369.290687,1427.67598 L369.290687,1445.77448 C369.290687,1449.64047 366.15668,1452.77448 362.290687,1452.77448 L206.677534,1452.77448 C202.811541,1452.77448 199.677534,1449.64047 199.677534,1445.77448 L199.677534,1427.67598 C199.677534,1423.80999 202.811541,1420.67598 206.677534,1420.67598 L362.290687,1420.67598 Z M628.170764,1420.67598 C632.036757,1420.67598 635.170764,1423.80999 635.170764,1427.67598 L635.170764,1427.67598 L635.170764,1445.77448 C635.170764,1449.64047 632.036757,1452.77448 628.170764,1452.77448 L628.170764,1452.77448 L399.211383,1452.77448 C395.34539,1452.77448 392.211383,1449.64047 392.211383,1445.77448 L392.211383,1445.77448 L392.211383,1427.67598 C392.211383,1423.80999 395.34539,1420.67598 399.211383,1420.67598 L399.211383,1420.67598 Z" opacity=".4"/>
            <rect width="284.217" height="35.481" x="199.937" y="1364.74" fill="#8792A2" opacity=".4" rx="10.238"/>
            <rect width="538.636" height="275.13" x="1829.339" y="496.698" fill="#D7D0E9" opacity=".498" rx="12"/>
            <rect width="137.524" height="22.927" x="1859.136" y="533.382" fill="#512DA8" opacity=".666" rx="11.464"/>
            <rect width="332.35" height="22.927" x="2008.12" y="533.382" fill="#512DA8" opacity=".298" rx="11.464"/>
            <rect width="481.335" height="22.927" x="1859.136" y="576.944" fill="#512DA8" opacity=".298" rx="11.464"/>
            <rect width="332.35" height="22.927" x="1859.136" y="620.506" fill="#512DA8" opacity=".298" rx="11.464"/>
            <rect width="224.623" height="22.927" x="1859.136" y="664.069" fill="#512DA8" opacity=".298" rx="11.464"/>
            <rect width="538.636" height="275.13" x="1829.339" y="794.755" fill="#D7D0E9" opacity=".498" rx="12"/>
            <rect width="201.702" height="22.927" x="1859.136" y="831.439" fill="#512DA8" opacity=".673" rx="11.464"/>
            <rect width="268.172" height="22.927" x="2072.298" y="831.439" fill="#512DA8" opacity=".298" rx="11.464"/>
            <rect width="444.662" height="22.927" x="1859.136" y="875.002" fill="#512DA8" opacity=".298" rx="11.464"/>
            <rect width="481.335" height="22.927" x="1859.136" y="918.564" fill="#512DA8" opacity=".298" rx="11.464"/>
            <rect width="332.35" height="22.927" x="1859.136" y="962.126" fill="#512DA8" opacity=".298" rx="11.464"/>
            <g transform="translate(4.852 84.003)">
              <rect width="543.221" height="275.13" fill="#1851BE" rx="12"/>
              <rect width="481.335" height="22.927" x="29.797" y="45.855" fill="#FFF" opacity=".966" rx="11.464"/>
              <rect width="286.509" height="22.927" x="29.797" y="89.417" fill="#FFF" opacity=".598" rx="11.464"/>
              <rect width="183.366" height="22.927" x="327.766" y="89.417" fill="#FFF" opacity=".298" rx="11.464" transform="matrix(-1 0 0 1 838.897 0)"/>
              <rect width="45.841" height="45.855" x="29.797" y="206.347" fill="#FFF" opacity=".298" rx="7" transform="matrix(-1 0 0 1 105.435 0)"/>
              <rect width="45.841" height="22.927" x="467.582" y="217.811" fill="#FFF" opacity=".598" rx="3" transform="matrix(-1 0 0 1 981.006 0)"/>
            </g>
            <rect width="27.505" height="18.342" x="215" y="10" fill="#8792A2" opacity=".241" rx="9.171"/>
            <rect width="190.242" height="36" x="4.852" y=".878" fill="#1851BE" rx="18"/>
            <rect width="286.509" height="36" x="263" y="1" fill="#8792A2" opacity=".201" rx="18"/>
            <g transform="translate(609.958 84.003)">
              <rect width="543.221" height="275.13" fill="#C5D3EF" opacity=".25" rx="12"/>
              <rect width="481.335" height="22.927" x="29.797" y="45.855" fill="#1851BE" opacity=".866" rx="11.464"/>
              <rect width="293.385" height="22.927" x="29.797" y="89.417" fill="#1851BE" opacity=".498" rx="11.464"/>
              <rect width="176.489" height="22.927" x="334.642" y="89.417" fill="#1851BE" opacity=".198" rx="11.464"/>
              <rect width="45.841" height="45.855" x="29.797" y="206.347" fill="#1851BE" opacity=".198" rx="7" transform="matrix(-1 0 0 1 105.435 0)"/>
              <rect width="45.841" height="22.927" x="465.29" y="217.811" fill="#1851BE" opacity=".498" rx="3" transform="matrix(-1 0 0 1 976.422 0)"/>
            </g>
            <g transform="translate(1217.356 84.003)">
              <rect width="543.221" height="275.13" fill="#512DA8" rx="12"/>
              <rect width="403.404" height="22.927" x="29.797" y="45.855" fill="#FFF" opacity=".966" rx="11.464"/>
              <rect width="293.385" height="22.927" x="29.797" y="89.417" fill="#FFF" opacity=".598" rx="11.464"/>
              <rect width="165.029" height="22.927" x="334.642" y="89.417" fill="#FFF" opacity=".298" rx="11.464" transform="matrix(-1 0 0 1 834.313 0)"/>
              <rect width="45.841" height="45.855" x="29.797" y="206.347" fill="#FFF" opacity=".298" rx="7" transform="matrix(-1 0 0 1 105.435 0)"/>
              <rect width="45.841" height="22.927" x="467.582" y="217.811" fill="#FFF" opacity=".598" rx="3" transform="matrix(-1 0 0 1 981.006 0)"/>
            </g>
            <g transform="translate(1824.755 84.003)">
              <rect width="543.221" height="275.13" fill="#BFE5E1" rx="12"/>
              <rect width="375.899" height="22.927" x="29.797" y="45.855" fill="#0E423C" opacity=".966" rx="11.464"/>
              <rect width="339.226" height="22.927" x="29.797" y="89.417" fill="#0E423C" opacity=".598" rx="11.464"/>
              <rect width="128.356" height="22.927" x="380.484" y="89.417" fill="#0E423C" opacity=".298" rx="11.464" transform="matrix(-1 0 0 1 889.323 0)"/>
              <rect width="45.841" height="45.855" x="29.797" y="206.347" fill="#0E423C" opacity=".298" rx="7" transform="matrix(-1 0 0 1 105.435 0)"/>
              <rect width="45.841" height="22.927" x="462.998" y="217.811" fill="#0E423C" opacity=".598" rx="3" transform="matrix(-1 0 0 1 971.838 0)"/>
            </g>
            <path fill="#1851BE" d="M2255.66399 1138.66775L2357.97541 1138.66775C2363.49825 1138.66775 2367.97541 1143.1449 2367.97541 1148.66775L2367.97541 1197.45024C2367.97541 1202.97309 2363.49825 1207.45024 2357.97541 1207.45024L2255.66399 1207.45024 2255.66399 1207.45024 2255.66399 1138.66775zM2255.66399 1253.30524L2364.97541 1253.30524C2366.63226 1253.30524 2367.97541 1254.64839 2367.97541 1256.30524L2367.97541 1319.08774C2367.97541 1320.74459 2366.63226 1322.08774 2364.97541 1322.08774L2255.66399 1322.08774 2255.66399 1322.08774 2255.66399 1253.30524zM2255.66399 1367.94274L2364.97541 1367.94274C2366.63226 1367.94274 2367.97541 1369.28588 2367.97541 1370.94274L2367.97541 1433.72523C2367.97541 1435.38209 2366.63226 1436.72523 2364.97541 1436.72523L2255.66399 1436.72523 2255.66399 1436.72523 2255.66399 1367.94274zM2255.66399 1482.58023L2364.97541 1482.58023C2366.63226 1482.58023 2367.97541 1483.92337 2367.97541 1485.58023L2367.97541 1548.36272C2367.97541 1550.01958 2366.63226 1551.36272 2364.97541 1551.36272L2255.66399 1551.36272 2255.66399 1551.36272 2255.66399 1482.58023z" opacity=".197"/>
            <rect width="62.515" height="22.927" x="2282.708" y="1161.595" fill="#1851BE" opacity=".383" rx="11.464"/>
            <rect width="62.515" height="22.927" x="2282.708" y="1276.233" fill="#1851BE" opacity=".383" rx="11.464"/>
            <rect width="82.515" height="22.927" x="2271.708" y="1390.87" fill="#1851BE" opacity=".383" rx="6"/>
            <rect width="82.515" height="22.927" x="2271.708" y="1505.508" fill="#1851BE" opacity=".383" rx="6"/>
            <path fill="#1851BE" d="M1832.33904 1138.66775L2255.66399 1138.66775 2255.66399 1138.66775 2255.66399 1207.45024 1832.33904 1207.45024C1830.68219 1207.45024 1829.33904 1206.1071 1829.33904 1204.45024L1829.33904 1141.66775C1829.33904 1140.01089 1830.68219 1138.66775 1832.33904 1138.66775zM1832.33904 1253.30524L2255.66399 1253.30524 2255.66399 1253.30524 2255.66399 1322.08774 1832.33904 1322.08774C1830.68219 1322.08774 1829.33904 1320.74459 1829.33904 1319.08774L1829.33904 1256.30524C1829.33904 1254.64839 1830.68219 1253.30524 1832.33904 1253.30524z" opacity=".117"/>
            <path fill="#1851BE" d="M1832.33904,1367.94274 L2255.66399,1367.94274 L2255.66399,1367.94274 L2255.66399,1436.72523 L1832.33904,1436.72523 C1830.68219,1436.72523 1829.33904,1435.38209 1829.33904,1433.72523 L1829.33904,1370.94274 C1829.33904,1369.28588 1830.68219,1367.94274 1832.33904,1367.94274 Z" opacity=".125"/>
            <path fill="#1851BE" d="M1832.33904,1482.58023 L2255.66399,1482.58023 L2255.66399,1482.58023 L2255.66399,1551.36272 L1832.33904,1551.36272 C1830.68219,1551.36272 1829.33904,1550.01958 1829.33904,1548.36272 L1829.33904,1485.58023 C1829.33904,1483.92337 1830.68219,1482.58023 1832.33904,1482.58023 Z" opacity=".117"/>
            <rect width="203.994" height="22.927" x="1859.136" y="1161.595" fill="#FFF" opacity=".717" rx="11.464"/>
            <rect width="261.296" height="22.927" x="1859.136" y="1276.233" fill="#FFF" opacity=".717" rx="11.464"/>
            <rect width="178.781" height="22.927" x="1859.136" y="1390.87" fill="#FFF" opacity=".717" rx="11.464"/>
            <rect width="261.296" height="22.927" x="1859.136" y="1505.508" fill="#FFF" opacity=".717" rx="11.464"/>
            <path fill="#1851BE" d="M1839.33904 1138.66775L2223.57502 1138.66775 2223.57502 1138.66775 2223.57502 1207.45024 1839.33904 1207.45024C1833.81619 1207.45024 1829.33904 1202.97309 1829.33904 1197.45024L1829.33904 1148.66775C1829.33904 1143.1449 1833.81619 1138.66775 1839.33904 1138.66775zM1839.33904 1253.30524L2193.77811 1253.30524 2193.77811 1253.30524 2193.77811 1322.08774 1839.33904 1322.08774C1833.81619 1322.08774 1829.33904 1317.61059 1829.33904 1312.08774L1829.33904 1263.30524C1829.33904 1257.78239 1833.81619 1253.30524 1839.33904 1253.30524zM1832.33904 1367.94274L2063.13014 1367.94274 2063.13014 1367.94274 2063.13014 1436.72523 1832.33904 1436.72523C1830.68219 1436.72523 1829.33904 1435.38209 1829.33904 1433.72523L1829.33904 1370.94274C1829.33904 1369.28588 1830.68219 1367.94274 1832.33904 1367.94274zM1832.33904 1482.58023L2042.50152 1482.58023 2042.50152 1482.58023 2042.50152 1551.36272 1832.33904 1551.36272C1830.68219 1551.36272 1829.33904 1550.01958 1829.33904 1548.36272L1829.33904 1485.58023C1829.33904 1483.92337 1830.68219 1482.58023 1832.33904 1482.58023z" opacity=".2"/>
            <rect width="174.197" height="32.098" x="2.56" y="404.988" fill="#8792A2" opacity=".364" rx="16.049"/>
          </g>
        </g>
      </g>
    </g>
  </g>
</svg>
