<svg xmlns="http://www.w3.org/2000/svg" xmlns:xlink="http://www.w3.org/1999/xlink" width="3660" height="2150" viewBox="0 0 3660 2150">
  <defs>
    <path id="desktop-view-c" d="M319,140.001286 C319,62.6807109 381.679978,7.34461191e-13 458.993009,6.9266478e-13 L3002.00699,-6.82121026e-13 C3079.32299,-7.23919045e-13 3142,62.6798624 3142,140.001286 L3142,1772.99871 C3142,1850.31929 3079.32002,1913 3002.00699,1913 L458.993009,1913 C381.677005,1913 319,1850.32014 319,1772.99871 L319,140.001286 Z"/>
    <filter id="desktop-view-b" width="105%" height="107.4%" x="-2.5%" y="-3.2%" filterUnits="objectBoundingBox">
      <feOffset dy="10" in="SourceAlpha" result="shadowOffsetOuter1"/>
      <feGaussianBlur in="shadowOffsetOuter1" result="shadowBlurOuter1" stdDeviation="22"/>
      <feColorMatrix in="shadowBlurOuter1" values="0 0 0 0 0   0 0 0 0 0   0 0 0 0 0  0 0 0 0.04 0"/>
    </filter>
    <filter id="desktop-view-d" width="103.9%" height="105.8%" x="-1.9%" y="-2.4%" filterUnits="objectBoundingBox">
      <feGaussianBlur in="SourceAlpha" result="shadowBlurInner1" stdDeviation="11"/>
      <feOffset in="shadowBlurInner1" result="shadowOffsetInner1"/>
      <feComposite in="shadowOffsetInner1" in2="SourceAlpha" k2="-1" k3="1" operator="arithmetic" result="shadowInnerInner1"/>
      <feColorMatrix in="shadowInnerInner1" result="shadowMatrixInner1" values="0 0 0 0 0   0 0 0 0 0   0 0 0 0 0  0 0 0 0.12 0"/>
      <feGaussianBlur in="SourceAlpha" result="shadowBlurInner2" stdDeviation="2"/>
      <feOffset in="shadowBlurInner2" result="shadowOffsetInner2"/>
      <feComposite in="shadowOffsetInner2" in2="SourceAlpha" k2="-1" k3="1" operator="arithmetic" result="shadowInnerInner2"/>
      <feColorMatrix in="shadowInnerInner2" result="shadowMatrixInner2" values="0 0 0 0 0   0 0 0 0 0   0 0 0 0 0  0 0 0 0.06 0"/>
      <feMerge>
        <feMergeNode in="shadowMatrixInner1"/>
        <feMergeNode in="shadowMatrixInner2"/>
      </feMerge>
    </filter>
    <path id="desktop-view-f" d="M1.9914952,1860 C0.891622771,1859.99936 0,1860.89818 0,1862.00013 L0,1892.98227 C0,1892.98227 95.5777753,1943.42241 434.624391,1949.92067 C774.583284,1949.13786 2905.31076,1949.92067 2905.31076,1949.92067 C2905.31076,1949.92067 3321.15774,1954.55262 3460,1892.98227 L3460,1864.00802 C3460,1862.89847 3459.11213,1861.99848 3458.0085,1861.99785 L1.9914952,1860 Z"/>
    <filter id="desktop-view-e" width="104.1%" height="257.8%" x="-2.1%" y="-67.8%" filterUnits="objectBoundingBox">
      <feOffset dy="10" in="SourceAlpha" result="shadowOffsetOuter1"/>
      <feGaussianBlur in="shadowOffsetOuter1" result="shadowBlurOuter1" stdDeviation="22"/>
      <feColorMatrix in="shadowBlurOuter1" values="0 0 0 0 0   0 0 0 0 0   0 0 0 0 0  0 0 0 0.04 0"/>
    </filter>
    <filter id="desktop-view-g" width="103.2%" height="222.2%" x="-1.6%" y="-50%" filterUnits="objectBoundingBox">
      <feGaussianBlur in="SourceAlpha" result="shadowBlurInner1" stdDeviation="11"/>
      <feOffset in="shadowBlurInner1" result="shadowOffsetInner1"/>
      <feComposite in="shadowOffsetInner1" in2="SourceAlpha" k2="-1" k3="1" operator="arithmetic" result="shadowInnerInner1"/>
      <feColorMatrix in="shadowInnerInner1" result="shadowMatrixInner1" values="0 0 0 0 0   0 0 0 0 0   0 0 0 0 0  0 0 0 0.12 0"/>
      <feGaussianBlur in="SourceAlpha" result="shadowBlurInner2" stdDeviation="2"/>
      <feOffset in="shadowBlurInner2" result="shadowOffsetInner2"/>
      <feComposite in="shadowOffsetInner2" in2="SourceAlpha" k2="-1" k3="1" operator="arithmetic" result="shadowInnerInner2"/>
      <feColorMatrix in="shadowInnerInner2" result="shadowMatrixInner2" values="0 0 0 0 0   0 0 0 0 0   0 0 0 0 0  0 0 0 0.06 0"/>
      <feMerge>
        <feMergeNode in="shadowMatrixInner1"/>
        <feMergeNode in="shadowMatrixInner2"/>
      </feMerge>
    </filter>
    <rect id="desktop-view-h" width="2560" height="1600" x="0" y="0" rx="2"/>
    <filter id="desktop-view-i" width="102.1%" height="103.4%" x="-1.1%" y="-1.7%" filterUnits="objectBoundingBox">
      <feMorphology in="SourceAlpha" operator="dilate" radius="1" result="shadowSpreadOuter1"/>
      <feOffset in="shadowSpreadOuter1" result="shadowOffsetOuter1"/>
      <feGaussianBlur in="shadowOffsetOuter1" result="shadowBlurOuter1" stdDeviation="8"/>
      <feColorMatrix in="shadowBlurOuter1" values="0 0 0 0 0   0 0 0 0 0   0 0 0 0 0  0 0 0 0.08 0"/>
    </filter>
    <filter id="desktop-view-k" width="102.3%" height="103.7%" x="-1.2%" y="-1.9%" filterUnits="objectBoundingBox">
      <feGaussianBlur in="SourceGraphic" stdDeviation="10"/>
    </filter>
    <radialGradient id="desktop-view-l" cx="65.599%" cy="0%" r="169.036%" fx="65.599%" fy="0%" gradientTransform="matrix(-.5183 .5916 -.38031 -.80624 .996 -.388)">
      <stop offset="0%" stop-color="#2A6CBE"/>
      <stop offset="38.688%" stop-color="#2062BC"/>
      <stop offset="49.182%" stop-color="#1F5FBC"/>
      <stop offset="66.583%" stop-color="#1C5ABD"/>
      <stop offset="85.354%" stop-color="#1956BC"/>
      <stop offset="100%" stop-color="#1851BE"/>
    </radialGradient>
    <rect id="desktop-view-a" width="1671" height="156" x=".224" y=".589" rx="17.741"/>
    <mask id="desktop-view-m" width="1671" height="156" x="0" y="0" fill="#fff" maskContentUnits="userSpaceOnUse" maskUnits="objectBoundingBox">
      <use xlink:href="#desktop-view-a"/>
    </mask>
  </defs>
  <g fill="none" fill-rule="evenodd" transform="translate(103 100)">
    <use fill="#000" filter="url(#desktop-view-b)" xlink:href="#desktop-view-c"/>
    <use fill="#FFF" xlink:href="#desktop-view-c"/>
    <use fill="#000" filter="url(#desktop-view-d)" xlink:href="#desktop-view-c"/>
    <circle cx="12" cy="12" r="12" fill="#EDEDED" transform="translate(1719 84)"/>
    <use fill="#000" filter="url(#desktop-view-e)" xlink:href="#desktop-view-f"/>
    <use fill="#FFF" xlink:href="#desktop-view-f"/>
    <use fill="#000" filter="url(#desktop-view-g)" xlink:href="#desktop-view-f"/>
    <path fill="#F6F6F6" d="M1380,1858 L2080,1858 L2080,1865.99165 C2080,1874.83282 2072.85875,1882.55066 2064.04888,1883.13347 C2064.04888,1883.13347 1991.83143,1890 1731.38221,1890 C1470.93299,1890 1395.96266,1883.11026 1395.96266,1883.11026 C1387.14673,1882.49708 1380,1874.83172 1380,1865.99165 L1380,1858 Z"/>
    <g transform="translate(450 162)">
      <mask id="desktop-view-j" fill="#fff">
        <use xlink:href="#desktop-view-h"/>
      </mask>
      <use fill="#000" filter="url(#desktop-view-i)" xlink:href="#desktop-view-h"/>
      <g mask="url(#desktop-view-j)">
        <rect width="2558" height="1598" x="1" y="1" fill="#FFF" stroke="#000" stroke-opacity=".04" stroke-width="2" filter="url(#desktop-view-k)"/>
        <g transform="translate(91 51)">
          <g transform="translate(5)">
            <g fill="#FFF" opacity=".296" transform="translate(74.372 230.631)">
              <rect width="91.756" height="29.18" rx="3"/>
              <rect width="190.394" height="29.18" x="114.695" rx="3"/>
            </g>
            <g transform="translate(.725 .004)">
              <g fill-rule="nonzero" transform="translate(.275 9.996)">
                <path fill="url(#desktop-view-l)" d="M296.267926,19 C308.335851,19 315.220757,24.8628571 315.220757,33.5028571 C315.220757,38.8257143 312.435851,43.1457143 307.8717,45.0742857 C313.441512,46.9257143 317,51.4771429 317,57.7257143 C317,67.06 310.037738,73 297.350945,73 L276,73 L276,73 L276,19 L276,19 L296.267926,19 Z M274,19 L274,73 L274,73 L252.649055,73 C239.962262,73 233,67.06 233,57.7257143 C233,51.4771429 236.558488,46.9257143 242.1283,45.0742857 C237.564149,43.1457143 234.779243,38.8257143 234.779243,33.5028571 C234.779243,24.8628571 241.664149,19 253.732074,19 L253.732074,19 L274,19 L274,19 Z M295.575893,50 L287,50 L287,64.9983124 L287,64.9983124 L287.13281,64.9989923 C287.758692,65.0005335 290.573053,65.0003068 295.575893,64.9983124 C301.267857,64.9983124 304,62.6058085 304,57.5 C304,52.6335263 301.799107,50 295.575893,50 Z M263.328303,50 L254.75241,50 C248.529196,50 246.328303,52.6335263 246.328303,57.5 C246.328303,62.6058085 249.060446,64.9983124 254.75241,64.9983124 C259.75525,65.0003068 262.569611,65.0005335 263.195493,64.9989923 L263.328303,64.9983124 L263.328303,64.9983124 L263.328303,50 Z M295.613333,28 L287,28 L287,42 L295.613333,42 C301.128889,42 304,39.4044944 304,35 C304,30.5955056 301.128889,28 295.613333,28 Z M263.405661,28 L254.792328,28 C249.276773,28 246.405661,30.5955056 246.405661,35 C246.405661,39.4044944 249.276773,42 254.792328,42 L254.792328,42 L263.405661,42 L263.405661,28 Z"/>
                <path fill="#000306" stroke="#000306" stroke-width=".275" d="M195.810017,20 C210.691849,20 221.256813,28.7272272 221.484017,45.845679 C221.490864,46.3615394 221.461776,47.1194739 221.396754,48.1194827 C221.328352,49.1714504 220.455158,49.9897119 219.400969,49.9897119 L179.110557,49.9897119 C179.110557,56.6336943 182.723978,64.2757202 196.378026,64.2757202 C204.088827,64.2757202 211.625406,61.928339 218.987763,57.2335766 L219.553745,56.8677968 C220.246813,56.4139645 221.17656,56.6079034 221.630392,57.3009716 C221.757029,57.4943637 221.837254,57.7144077 221.864806,57.943925 C222.131013,60.1615294 222.004084,61.5832211 221.484017,62.2089999 C220.452051,63.4507301 210.901843,73 196.378026,73 C180.58738,73 169,61.8765432 169,46.3909465 C169,31.3415638 180.019372,20 195.810017,20 Z M163,2.48689958e-14 C164.104569,2.46660896e-14 165,0.8954305 165,2 L165,47 L164.983739,47.0010017 C164.496764,61.9410769 153.124701,73 138,73 C122.427386,73 111,61.4444444 111,46 C111,30.5555556 122.427386,19 138,19 C145.059832,19 151.302043,21.4095054 156.00126,25.4985341 L156,4.5 C156,2.01471863 158.014719,2.53255345e-14 160.5,2.48689958e-14 L163,2.48689958e-14 Z M81,20 C96.4605809,20 108,31.3415638 108,46.5 C108,61.6584362 96.4605809,73 81,73 C65.4273859,73 54,61.6584362 54,46.5 C54,31.3415638 65.4273859,20 81,20 Z M27.324263,20 C41.6099773,20 50,29.1649049 50,41.7801268 L50,67.5 C50,69.4329966 48.4329966,71 46.5,71 L42.2494331,71 C41.1448636,71 40.2494331,70.1045695 40.2494331,69 L40.2494331,42.5348837 C40.2494331,34.3403805 35.8276644,28.6257928 26.3038549,28.6257928 C10.0816327,28.6257928 9.75718821,35.7795705 9.75069932,44.6831843 L9.75056689,71 L2,71 C0.8954305,71 -1.4075584e-14,70.1045695 -1.42108547e-14,69 L-1.42108547e-14,35.2932975 L-1.42108547e-14,35.2932975 C-1.42108547e-14,24.3935718 19.1609977,20 27.324263,20 Z M81.5,29 C71.2258065,29 64,36.8404908 64,47 C64,56.9386503 71.2258065,65 81.5,65 C91.7741935,65 99,56.9386503 99,47 C99,36.8404908 91.7741935,29 81.5,29 Z M138.5,28 C128.225806,28 121,35.8404908 121,46 C121,55.9386503 128.225806,64 138.5,64 C148.774194,64 156,55.9386503 156,46 C156,35.8404908 148.774194,28 138.5,28 Z M195.567376,29 C186.489362,29 180.248227,34.2 179,42 L211,42 C209.751773,34.2 204.191489,29 195.567376,29 Z"/>
              </g>
              <g fill="#8792A2" opacity=".499" transform="translate(483.736 17.85)">
                <rect width="66.464" height="59.661" y="7.768" opacity=".4" rx="10"/>
                <rect width="66.464" height="59.661" x="135.22" y="7.768" opacity=".4" rx="10"/>
                <rect width="66.464" height="59.661" x="676.099" y="7.768" opacity=".4" rx="10"/>
                <rect width="66.464" height="59.661" x="270.44" y="7.768" opacity=".4" rx="10"/>
                <rect width="66.464" height="59.661" x="405.66" y="7.768" opacity=".4" rx="10"/>
                <rect width="66.464" height="59.661" x="811.319" y="7.768" opacity=".4" rx="10"/>
                <rect width="66.464" height="59.661" x="1679.937" y="7.764" opacity=".4" rx="10"/>
                <rect width="66.464" height="59.661" x="1544.717" y="7.764" opacity=".4" rx="10"/>
                <rect width="66.464" height="59.661" x="1409.498" y="7.764" opacity=".4" rx="10"/>
                <rect width="73.34" height="75.724" x="1808.281" y=".88" opacity=".7" rx="36.67"/>
                <rect width="66.464" height="59.661" x="540.879" y="7.768" opacity=".4" rx="10"/>
              </g>
              <rect width="36.67" height="36.715" x="802.305" y="7.26" fill="#F84F77" rx="8"/>
              <rect width="36.67" height="36.715" x="2078.874" y="7.256" fill="#F84F77" rx="8"/>
            </g>
          </g>
          <g transform="translate(0 243)">
            <use stroke="#8792A2" stroke-dasharray="24" stroke-linejoin="round" stroke-opacity=".25" stroke-width="8" mask="url(#desktop-view-m)" transform="translate(6.35 499.101)" xlink:href="#desktop-view-a"/>
            <rect width="133.058" height="105.554" x="1005.394" y="772.287" fill="#8792A2" opacity=".322" rx="10"/>
            <rect width="130.764" height="105.554" x="808.101" y="772.287" fill="#8792A2" opacity=".322" rx="10"/>
            <rect width="133.058" height="105.554" x="1005.394" y="1045.351" fill="#8792A2" opacity=".322" rx="10"/>
            <rect width="130.764" height="105.554" x="808.101" y="1045.351" fill="#8792A2" opacity=".322" rx="10"/>
            <rect width="133.058" height="105.554" x="1005.394" y="1364.271" fill="#8792A2" opacity=".322" rx="3"/>
            <rect width="130.764" height="105.554" x="808.101" y="1364.271" fill="#8792A2" opacity=".322" rx="3"/>
            <rect width="130.764" height="22.947" x="808.101" y="898.495" fill="#ECEEF0" rx="11.473"/>
            <rect width="130.764" height="22.947" x="1007.688" y="898.495" fill="#ECEEF0" rx="11.473"/>
            <rect width="130.764" height="22.947" x="808.101" y="1171.56" fill="#ECEEF0" rx="11.473"/>
            <rect width="130.764" height="22.947" x="1007.688" y="1171.56" fill="#ECEEF0" rx="11.473"/>
            <rect width="130.764" height="22.947" x="808.101" y="1490.48" fill="#ECEEF0" rx="3"/>
            <rect width="130.764" height="22.947" x="1007.688" y="1490.48" fill="#ECEEF0" rx="3"/>
            <rect width="27.505" height="151.321" x="1192.144" y="771.828" fill="#1851BE" rx="13.752"/>
            <rect width="27.505" height="151.321" x="1192.144" y="1042.372" fill="#BCCCEB" rx="13.752"/>
            <rect width="27.505" height="151.321" x="1192.144" y="1363.357" fill="#512DA8" rx="3"/>
            <rect width="57.353" height="57.367" x="1271.799" y="772.287" fill="#8792A2" opacity=".32" rx="28.676"/>
            <rect width="57.353" height="57.367" x="1271.799" y="1045.351" fill="#8792A2" opacity=".32" rx="28.676"/>
            <rect width="57.353" height="57.367" x="1271.799" y="1364.271" fill="#8792A2" opacity=".32" rx="11.5"/>
            <rect width="130.764" height="22.947" x="1352.174" y="791.111" fill="#8792A2" opacity=".164" rx="11.473"/>
            <rect width="284.47" height="22.947" x="1271.88" y="843.888" fill="#8792A2" opacity=".164" rx="11.473"/>
            <rect width="110.117" height="22.947" x="1567.821" y="843.888" fill="#8792A2" opacity=".164" rx="11.473"/>
            <rect width="121.588" height="22.947" x="1271.88" y="878.308" fill="#8792A2" opacity=".164" rx="11.473"/>
            <rect width="130.764" height="22.947" x="1352.174" y="1064.175" fill="#8792A2" opacity=".164" rx="11.473"/>
            <rect width="169.764" height="22.947" x="1271.88" y="1116.953" fill="#8792A2" opacity=".164" rx="11.473"/>
            <rect width="224.823" height="22.947" x="1453.115" y="1116.953" fill="#8792A2" opacity=".164" rx="11.473"/>
            <rect width="252.352" height="22.947" x="1271.88" y="1151.334" fill="#8792A2" opacity=".164" rx="11.473"/>
            <rect width="130.764" height="22.947" x="1352.174" y="1383.095" fill="#8792A2" opacity=".164" rx="3"/>
            <rect width="233.999" height="22.947" x="1271.88" y="1435.872" fill="#8792A2" opacity=".164" rx="3"/>
            <rect width="121.588" height="22.947" x="1271.88" y="1470.292" fill="#8792A2" opacity=".164" rx="3"/>
            <rect width="160.588" height="22.947" x="1404.939" y="1470.292" fill="#8792A2" opacity=".164" rx="3"/>
            <ellipse cx="80.643" cy="848.479" fill="#8792A2" opacity=".24" rx="80.294" ry="80.313"/>
            <path fill="#8792A2" d="M364.701786,829.146518 C373.565541,829.146518 380.751035,836.332011 380.751035,845.195767 C380.751035,854.059522 373.565541,861.245016 364.701786,861.245016 L215.726783,861.245016 C206.863027,861.245016 199.677534,854.059522 199.677534,845.195767 C199.677534,836.332011 206.863027,829.146518 215.726783,829.146518 L364.701786,829.146518 Z M655.794629,829.146518 C664.658385,829.146518 671.843878,836.332011 671.843878,845.195767 C671.843878,854.059522 664.658385,861.245016 655.794629,861.245016 L655.794629,861.245016 L415.136841,861.245016 C406.273085,861.245016 399.087592,854.059522 399.087592,845.195767 C399.087592,836.332011 406.273085,829.146518 415.136841,829.146518 L415.136841,829.146518 Z" opacity=".28"/>
            <rect width="412.573" height="35.481" x="199.937" y="772.755" fill="#8792A2" opacity=".28" rx="17.741"/>
            <ellipse cx="80.643" cy="1121.544" fill="#8792A2" opacity=".24" rx="80.294" ry="80.313"/>
            <ellipse cx="218.014" cy="1205.158" fill="#1851BE" rx="20.629" ry="20.635"/>
            <rect width="139" height="27.513" x="257.103" y="1191.401" fill="#ECEEF0" rx="13.756"/>
            <rect width="105" height="27.513" x="257.103" y="1244.134" fill="#ECEEF0" rx="13.756"/>
            <ellipse cx="218.014" cy="1257.891" fill="#512DA8" rx="20.629" ry="20.635"/>
            <ellipse cx="474.726" cy="1205.158" fill="#BCCCEB" rx="20.629" ry="20.635"/>
            <rect width="139" height="27.513" x="516" y="1244.026" fill="#ECEEF0" rx="13.756"/>
            <rect width="193" height="27.513" x="516" y="1189" fill="#ECEEF0" rx="13.756"/>
            <ellipse cx="218.014" cy="1519.264" fill="#512DA8" rx="20.629" ry="20.635"/>
            <rect width="158.153" height="27.513" x="250.103" y="1505.508" fill="#ECEEF0" rx="5"/>
            <ellipse cx="474.726" cy="1519.264" fill="#8369C0" rx="20.629" ry="20.635"/>
            <rect width="146.692" height="27.513" x="506.815" y="1505.508" fill="#ECEEF0" rx="5"/>
            <ellipse cx="474.726" cy="1257.891" fill="#8267BF" rx="20.629" ry="20.635"/>
            <rect width="529.468" height="32.098" x="199.678" y="1101.984" fill="#8792A2" opacity=".28" rx="16.049"/>
            <rect width="373.607" height="35.481" x="199.937" y="1045.82" fill="#8792A2" opacity=".28" rx="17.741"/>
            <ellipse cx="80.643" cy="1440.464" fill="#8792A2" opacity=".24" rx="80.294" ry="80.313"/>
            <path fill="#8792A2" d="M362.290687,1420.67598 C366.15668,1420.67598 369.290687,1423.80999 369.290687,1427.67598 L369.290687,1445.77448 C369.290687,1449.64047 366.15668,1452.77448 362.290687,1452.77448 L206.677534,1452.77448 C202.811541,1452.77448 199.677534,1449.64047 199.677534,1445.77448 L199.677534,1427.67598 C199.677534,1423.80999 202.811541,1420.67598 206.677534,1420.67598 L362.290687,1420.67598 Z M628.170764,1420.67598 C632.036757,1420.67598 635.170764,1423.80999 635.170764,1427.67598 L635.170764,1427.67598 L635.170764,1445.77448 C635.170764,1449.64047 632.036757,1452.77448 628.170764,1452.77448 L628.170764,1452.77448 L399.211383,1452.77448 C395.34539,1452.77448 392.211383,1449.64047 392.211383,1445.77448 L392.211383,1445.77448 L392.211383,1427.67598 C392.211383,1423.80999 395.34539,1420.67598 399.211383,1420.67598 L399.211383,1420.67598 Z" opacity=".4"/>
            <rect width="284.217" height="35.481" x="199.937" y="1364.74" fill="#8792A2" opacity=".4" rx="10.238"/>
            <rect width="538.636" height="275.13" x="1829.339" y="496.698" fill="#D7D0E9" opacity=".498" rx="12"/>
            <rect width="137.524" height="22.927" x="1859.136" y="533.382" fill="#512DA8" opacity=".666" rx="11.464"/>
            <rect width="332.35" height="22.927" x="2008.12" y="533.382" fill="#512DA8" opacity=".298" rx="11.464"/>
            <rect width="481.335" height="22.927" x="1859.136" y="576.944" fill="#512DA8" opacity=".298" rx="11.464"/>
            <rect width="332.35" height="22.927" x="1859.136" y="620.506" fill="#512DA8" opacity=".298" rx="11.464"/>
            <rect width="224.623" height="22.927" x="1859.136" y="664.069" fill="#512DA8" opacity=".298" rx="11.464"/>
            <rect width="538.636" height="275.13" x="1829.339" y="794.755" fill="#D7D0E9" opacity=".498" rx="12"/>
            <rect width="201.702" height="22.927" x="1859.136" y="831.439" fill="#512DA8" opacity=".673" rx="11.464"/>
            <rect width="268.172" height="22.927" x="2072.298" y="831.439" fill="#512DA8" opacity=".298" rx="11.464"/>
            <rect width="444.662" height="22.927" x="1859.136" y="875.002" fill="#512DA8" opacity=".298" rx="11.464"/>
            <rect width="481.335" height="22.927" x="1859.136" y="918.564" fill="#512DA8" opacity=".298" rx="11.464"/>
            <rect width="332.35" height="22.927" x="1859.136" y="962.126" fill="#512DA8" opacity=".298" rx="11.464"/>
            <g transform="translate(4.852 84.003)">
              <rect width="543.221" height="275.13" fill="#1851BE" rx="12"/>
              <rect width="481.335" height="22.927" x="29.797" y="45.855" fill="#FFF" opacity=".966" rx="11.464"/>
              <rect width="286.509" height="22.927" x="29.797" y="89.417" fill="#FFF" opacity=".598" rx="11.464"/>
              <rect width="183.366" height="22.927" x="327.766" y="89.417" fill="#FFF" opacity=".298" rx="11.464" transform="matrix(-1 0 0 1 838.897 0)"/>
              <rect width="45.841" height="45.855" x="29.797" y="206.347" fill="#FFF" opacity=".298" rx="7" transform="matrix(-1 0 0 1 105.435 0)"/>
              <rect width="45.841" height="22.927" x="467.582" y="217.811" fill="#FFF" opacity=".598" rx="3" transform="matrix(-1 0 0 1 981.006 0)"/>
            </g>
            <rect width="27.505" height="18.342" x="215" y="10" fill="#8792A2" opacity=".241" rx="9.171"/>
            <rect width="190.242" height="36" x="4.852" y=".878" fill="#1851BE" rx="18"/>
            <rect width="286.509" height="36" x="263" y="1" fill="#8792A2" opacity=".201" rx="18"/>
            <g fill="#1851BE" transform="translate(609.958 84.003)">
              <rect width="543.221" height="275.13" opacity=".25" rx="12"/>
              <rect width="481.335" height="22.927" x="29.797" y="45.855" opacity=".866" rx="11.464"/>
              <rect width="293.385" height="22.927" x="29.797" y="89.417" opacity=".498" rx="11.464"/>
              <rect width="176.489" height="22.927" x="334.642" y="89.417" opacity=".198" rx="11.464"/>
              <rect width="45.841" height="45.855" x="29.797" y="206.347" opacity=".198" rx="7" transform="matrix(-1 0 0 1 105.435 0)"/>
              <rect width="45.841" height="22.927" x="465.29" y="217.811" opacity=".498" rx="3" transform="matrix(-1 0 0 1 976.422 0)"/>
            </g>
            <g transform="translate(1217.356 84.003)">
              <rect width="543.221" height="275.13" fill="#512DA8" rx="12"/>
              <rect width="403.404" height="22.927" x="29.797" y="45.855" fill="#FFF" opacity=".966" rx="11.464"/>
              <rect width="293.385" height="22.927" x="29.797" y="89.417" fill="#FFF" opacity=".598" rx="11.464"/>
              <rect width="165.029" height="22.927" x="334.642" y="89.417" fill="#FFF" opacity=".298" rx="11.464" transform="matrix(-1 0 0 1 834.313 0)"/>
              <rect width="45.841" height="45.855" x="29.797" y="206.347" fill="#FFF" opacity=".298" rx="7" transform="matrix(-1 0 0 1 105.435 0)"/>
              <rect width="45.841" height="22.927" x="467.582" y="217.811" fill="#FFF" opacity=".598" rx="3" transform="matrix(-1 0 0 1 981.006 0)"/>
            </g>
            <g transform="translate(1824.755 84.003)">
              <rect width="543.221" height="275.13" fill="#BFE5E1" rx="12"/>
              <rect width="375.899" height="22.927" x="29.797" y="45.855" fill="#0E423C" opacity=".966" rx="11.464"/>
              <rect width="339.226" height="22.927" x="29.797" y="89.417" fill="#0E423C" opacity=".598" rx="11.464"/>
              <rect width="128.356" height="22.927" x="380.484" y="89.417" fill="#0E423C" opacity=".298" rx="11.464" transform="matrix(-1 0 0 1 889.323 0)"/>
              <rect width="45.841" height="45.855" x="29.797" y="206.347" fill="#0E423C" opacity=".298" rx="7" transform="matrix(-1 0 0 1 105.435 0)"/>
              <rect width="45.841" height="22.927" x="462.998" y="217.811" fill="#0E423C" opacity=".598" rx="3" transform="matrix(-1 0 0 1 971.838 0)"/>
            </g>
            <path fill="#1851BE" d="M2255.66399 1138.66775L2364.97541 1138.66775C2366.63226 1138.66775 2367.97541 1140.01089 2367.97541 1141.66775L2367.97541 1204.45024C2367.97541 1206.1071 2366.63226 1207.45024 2364.97541 1207.45024L2255.66399 1207.45024 2255.66399 1207.45024 2255.66399 1138.66775zM2255.66399 1253.30524L2364.97541 1253.30524C2366.63226 1253.30524 2367.97541 1254.64839 2367.97541 1256.30524L2367.97541 1319.08774C2367.97541 1320.74459 2366.63226 1322.08774 2364.97541 1322.08774L2255.66399 1322.08774 2255.66399 1322.08774 2255.66399 1253.30524zM2255.66399 1367.94274L2364.97541 1367.94274C2366.63226 1367.94274 2367.97541 1369.28588 2367.97541 1370.94274L2367.97541 1433.72523C2367.97541 1435.38209 2366.63226 1436.72523 2364.97541 1436.72523L2255.66399 1436.72523 2255.66399 1436.72523 2255.66399 1367.94274zM2255.66399 1482.58023L2364.97541 1482.58023C2366.63226 1482.58023 2367.97541 1483.92337 2367.97541 1485.58023L2367.97541 1548.36272C2367.97541 1550.01958 2366.63226 1551.36272 2364.97541 1551.36272L2255.66399 1551.36272 2255.66399 1551.36272 2255.66399 1482.58023z" opacity=".197"/>
            <rect width="82.515" height="22.927" x="2271.708" y="1161.595" fill="#1851BE" opacity=".383" rx="6"/>
            <rect width="82.515" height="22.927" x="2271.708" y="1276.233" fill="#1851BE" opacity=".383" rx="6"/>
            <rect width="82.515" height="22.927" x="2271.708" y="1390.87" fill="#1851BE" opacity=".383" rx="6"/>
            <rect width="82.515" height="22.927" x="2271.708" y="1505.508" fill="#1851BE" opacity=".383" rx="6"/>
            <path fill="#1851BE" d="M1832.33904 1138.66775L2255.66399 1138.66775 2255.66399 1138.66775 2255.66399 1207.45024 1832.33904 1207.45024C1830.68219 1207.45024 1829.33904 1206.1071 1829.33904 1204.45024L1829.33904 1141.66775C1829.33904 1140.01089 1830.68219 1138.66775 1832.33904 1138.66775zM1832.33904 1253.30524L2255.66399 1253.30524 2255.66399 1253.30524 2255.66399 1322.08774 1832.33904 1322.08774C1830.68219 1322.08774 1829.33904 1320.74459 1829.33904 1319.08774L1829.33904 1256.30524C1829.33904 1254.64839 1830.68219 1253.30524 1832.33904 1253.30524z" opacity=".117"/>
            <path fill="#1851BE" d="M1832.33904,1367.94274 L2255.66399,1367.94274 L2255.66399,1367.94274 L2255.66399,1436.72523 L1832.33904,1436.72523 C1830.68219,1436.72523 1829.33904,1435.38209 1829.33904,1433.72523 L1829.33904,1370.94274 C1829.33904,1369.28588 1830.68219,1367.94274 1832.33904,1367.94274 Z" opacity=".125"/>
            <path fill="#1851BE" d="M1832.33904,1482.58023 L2255.66399,1482.58023 L2255.66399,1482.58023 L2255.66399,1551.36272 L1832.33904,1551.36272 C1830.68219,1551.36272 1829.33904,1550.01958 1829.33904,1548.36272 L1829.33904,1485.58023 C1829.33904,1483.92337 1830.68219,1482.58023 1832.33904,1482.58023 Z" opacity=".117"/>
            <rect width="203.994" height="22.927" x="1859.136" y="1161.595" fill="#FFF" opacity=".717" rx="11.464"/>
            <rect width="261.296" height="22.927" x="1859.136" y="1276.233" fill="#FFF" opacity=".717" rx="11.464"/>
            <rect width="178.781" height="22.927" x="1859.136" y="1390.87" fill="#FFF" opacity=".717" rx="11.464"/>
            <rect width="261.296" height="22.927" x="1859.136" y="1505.508" fill="#FFF" opacity=".717" rx="11.464"/>
            <path fill="#1851BE" d="M1832.33904 1138.66775L2223.57502 1138.66775 2223.57502 1138.66775 2223.57502 1207.45024 1832.33904 1207.45024C1830.68219 1207.45024 1829.33904 1206.1071 1829.33904 1204.45024L1829.33904 1141.66775C1829.33904 1140.01089 1830.68219 1138.66775 1832.33904 1138.66775zM1832.33904 1253.30524L2193.77811 1253.30524 2193.77811 1253.30524 2193.77811 1322.08774 1832.33904 1322.08774C1830.68219 1322.08774 1829.33904 1320.74459 1829.33904 1319.08774L1829.33904 1256.30524C1829.33904 1254.64839 1830.68219 1253.30524 1832.33904 1253.30524zM1832.33904 1367.94274L2063.13014 1367.94274 2063.13014 1367.94274 2063.13014 1436.72523 1832.33904 1436.72523C1830.68219 1436.72523 1829.33904 1435.38209 1829.33904 1433.72523L1829.33904 1370.94274C1829.33904 1369.28588 1830.68219 1367.94274 1832.33904 1367.94274zM1832.33904 1482.58023L2042.50152 1482.58023 2042.50152 1482.58023 2042.50152 1551.36272 1832.33904 1551.36272C1830.68219 1551.36272 1829.33904 1550.01958 1829.33904 1548.36272L1829.33904 1485.58023C1829.33904 1483.92337 1830.68219 1482.58023 1832.33904 1482.58023z" opacity=".2"/>
            <rect width="174.197" height="32.098" x="2.56" y="404.988" fill="#8792A2" opacity=".364" rx="16.049"/>
          </g>
        </g>
      </g>
    </g>
  </g>
</svg>
