<svg xmlns="http://www.w3.org/2000/svg" width="50" height="50" viewBox="0 0 50 50">
  <path fill="#FFF" d="M38.3133281,27.3719408 C38.3019447,27.6326206 37.9570277,27.9240356 37.2489802,28.2939961 C35.7907668,29.0532688 28.2378814,32.1597985 26.6305455,32.9976167 C25.0220711,33.8354348 24.1296126,33.8274665 22.8592253,33.2195929 C21.5888379,32.6128578 13.5521581,29.365174 12.1041897,28.6742016 C11.3813439,28.3281463 11.0125217,28.0367313 11,27.761253 L11,30.5228657 C11,30.7983439 11.3802055,31.0908973 12.1041897,31.4369526 C13.5521581,32.1290633 21.5899763,35.3756088 22.8592253,35.9823439 C24.1296126,36.5902174 25.0220711,36.5981858 26.6305455,35.7592293 C28.2378814,34.9214111 35.7907668,31.8160198 37.2489802,31.0556088 C37.9900395,30.6697115 38.3178814,30.3691898 38.3178814,30.0971265 C38.3178814,29.8398617 38.3190198,27.3742174 38.3190198,27.3742174 C38.3178814,27.3730791 38.3144664,27.3730791 38.3133281,27.3719408 L38.3133281,27.3719408 Z M38.3121897,22.8698064 C38.299668,23.1304862 37.9558893,23.4207629 37.2489802,23.7907234 C35.7907668,24.5499961 28.2378814,27.6565257 26.6305455,28.4943439 C25.0220711,29.3321621 24.1296126,29.3241937 22.8592253,28.7174586 C21.5888379,28.1107234 13.5521581,24.8630396 12.1041897,24.1709289 C11.3813439,23.8260119 11.0125217,23.5334586 11,23.2591186 L11,26.0207313 C11,26.2962095 11.3802055,26.5876246 12.1041897,26.9336799 C13.5521581,27.6257906 21.5888379,30.872336 22.8592253,31.4790712 C24.1296126,32.0869447 25.0220711,32.0949131 26.6305455,31.2570949 C28.2378814,30.4192767 35.7907668,27.3127471 37.2489802,26.5534744 C37.9900395,26.1664388 38.3178814,25.8659171 38.3178814,25.5938538 C38.3178814,25.336589 38.3190198,22.8709447 38.3190198,22.8709447 C38.3178814,22.8698064 38.3144664,22.8709447 38.3121897,22.8698064 Z M38.3121897,18.200336 C38.3258498,17.9225811 37.9627194,17.6789763 37.2319051,17.4103281 C35.8112569,16.8901068 28.3039051,13.9019645 26.8661818,13.3749131 C25.4284585,12.8490001 24.8433518,12.8706285 23.1540553,13.4762254 C21.4647589,14.0829605 13.471336,17.2179487 12.0495494,17.7745969 C11.338087,18.0546285 10.9897549,18.3130317 11.0022767,18.5885099 L11.0022767,21.3501226 C11.0022767,21.6256008 11.3824822,21.9170159 12.1064664,22.2630712 C13.5544348,22.9551819 21.5911146,26.2028657 22.861502,26.8096008 C24.1318893,27.416336 25.0243478,27.4243044 26.6328221,26.5864862 C28.2401581,25.748668 35.7930435,22.6421384 37.2512569,21.8828657 C37.9923162,21.4958301 38.3201581,21.1953084 38.3201581,20.9232451 C38.3201581,20.6671186 38.3212964,18.200336 38.3212964,18.200336 L38.3121897,18.200336 Z M20.7828933,20.8139645 L27.1132016,19.8418222 L25.2007905,22.6455534 L20.7828933,20.8139645 Z M34.783336,18.2891265 L31.0404743,19.7678301 L30.634087,19.9271977 L26.8923636,18.4484941 L31.0381976,16.8092846 L34.783336,18.2891265 L34.783336,18.2891265 Z M23.792664,15.5764625 L23.1802372,14.4472293 L25.0903715,15.1939803 L26.8912253,14.6043202 L26.4040158,15.7711186 L28.2390198,16.4586759 L25.8724111,16.7045574 L25.3419447,17.9794981 L24.485913,16.5577115 L21.7527589,16.3118301 L23.792664,15.5764625 L23.792664,15.5764625 Z M19.0765217,17.1690001 C20.9456759,17.1690001 22.459668,17.7563835 22.459668,18.4803676 C22.459668,19.2043518 20.9445375,19.7917352 19.0765217,19.7917352 C17.2085059,19.7917352 15.6922372,19.2032135 15.6922372,18.4803676 C15.6922372,17.7563835 17.2073676,17.1690001 19.0765217,17.1690001 Z"/>
</svg>
