<svg xmlns="http://www.w3.org/2000/svg" width="50" height="50" viewBox="0 0 50 50">
  <g fill="none" fill-rule="evenodd" transform="translate(4 4)">
    <polyline fill="#FFFFFE" points="41.071 .166 13.872 .166 13.872 13.766 .272 13.766 .272 40.965 27.472 40.965 27.472 27.365 41.071 27.365 41.071 .166"/>
    <polyline fill="#A7DAE7" points="27.472 40.965 13.872 40.965 13.872 27.365 .272 27.365 .272 13.766 13.872 13.766 13.872 27.365 27.472 27.365 27.472 40.965"/>
    <polygon fill="#3A75AD" points=".272 40.965 13.872 40.965 13.872 27.365 .272 27.365"/>
    <polyline fill="#00B0D4" points="41.072 27.365 27.472 27.365 27.472 13.766 13.872 13.766 13.872 .166 27.472 .166 27.472 13.766 41.072 13.766 41.071 27.365"/>
    <polygon fill="#00B0D4" points="13.872 27.365 27.472 27.365 27.472 13.766 13.872 13.766"/>
    <polygon fill="#3A75AD" points="27.472 13.766 41.071 13.766 41.071 .166 27.472 .166"/>
  </g>
</svg>
