<svg xmlns="http://www.w3.org/2000/svg" width="24" height="18" viewBox="0 0 24 18">
  <path fill="#FFF" d="M18.0412709,13.5530336 L21.0206354,13.5530336 L21.0206354,6.40331733 L17.6639371,3.04845046 L15.5571569,5.15408119 L18.0412709,7.6368398 L18.0412709,13.5530336 L18.0412709,13.5530336 Z M21.0284965,15.0458315 L16.6891583,15.0458315 L10.6360957,15.0458315 L8.15198166,12.5630729 L9.20537177,11.5102575 L11.2571242,13.5608905 L15.4785457,13.5608905 L11.3200131,9.39676998 L12.3812644,8.33609777 L16.5397969,12.4923614 L16.5397969,8.27324312 L14.4959057,6.23046704 L15.5414347,5.18550851 L10.3766787,0 L5.28267278,0 L5.28267278,0 L0,0 L2.97150344,2.96988215 L2.97150344,2.97773897 L2.98722568,2.97773897 L9.13462168,2.97773897 L11.3121519,5.15408119 L8.1283983,8.33609777 L5.950868,6.15975556 L5.950868,4.47053688 L2.97150344,4.47053688 L2.97150344,7.39327804 L8.1283983,12.5473592 L6.0294792,14.6451331 L9.38617753,18 L14.4801834,18 L24,18 L24,18 L21.0284965,15.0458315 L21.0284965,15.0458315 Z"/>
</svg>
