<svg xmlns="http://www.w3.org/2000/svg" width="50" height="50" viewBox="0 0 50 50">
  <g fill="none" fill-rule="evenodd">
    <path fill="#FFF" fill-rule="nonzero" d="M23.9090392,13.2577786 C24.5040595,12.9171931 25.279073,12.9156547 25.8735806,13.2577786 C28.8644936,14.9478005 31.8563468,16.6351728 34.846747,18.3262203 C35.4092044,18.6430459 35.7854296,19.2690053 35.7797678,19.9171005 L35.7797678,30.0849228 C35.7838912,30.7598547 35.370488,31.4007707 34.7770915,31.7104172 C31.7960072,33.3911231 28.8164612,35.0738803 25.8358897,36.7545862 C25.2285621,37.1018381 24.4379936,37.075087 23.8496397,36.6993746 C22.9559127,36.1812745 22.0606472,35.6657383 21.1668347,35.148151 C20.984192,35.0392662 20.7783023,34.9526028 20.6493328,34.7755154 C20.7633456,34.621846 20.9671841,34.6027014 21.1328189,34.5356099 C21.5058818,34.4169819 21.8485184,34.2265617 22.1912406,34.0417824 C22.277904,33.9824684 22.383712,34.0052026 22.4667858,34.0582775 C23.2310305,34.4964661 23.9885233,34.9473893 24.7553321,35.3813901 C24.9189157,35.4758309 25.0845505,35.3504511 25.2243742,35.2725053 C28.1497342,33.6191487 31.0786837,31.9720312 34.0035309,30.3181619 C34.1119029,30.2660271 34.1718151,30.1509887 34.163012,30.0322752 C34.1650633,26.678128 34.1635248,23.3233825 34.1640377,19.9692353 C34.1764303,19.8345395 34.0984846,19.710698 33.9766943,19.6555719 C31.0059514,17.982558 28.036747,16.30698 25.0665169,14.6335388 C24.9611818,14.5611221 24.8221625,14.5609184 24.7166156,14.633026 C21.7463855,16.30698 18.7776939,17.9840964 15.8074639,19.6570248 C15.6861009,19.7122364 15.604651,19.8340267 15.6190949,19.9692353 C15.6196077,23.3233825 15.6190949,26.678128 15.6190949,30.032788 C15.6085463,30.1514211 15.6730049,30.2640703 15.7806273,30.3150851 C16.573247,30.7645553 17.3668923,31.2108633 18.1600248,31.6587952 C18.6068456,31.8992989 19.1554575,32.0421995 19.6477466,31.857933 C20.0821747,31.7021269 20.3866931,31.2588102 20.3784029,30.7975456 C20.3825053,27.4629703 20.3763517,24.1278822 20.3814797,20.7938197 C20.3706254,20.645791 20.5110474,20.523488 20.6549736,20.5374191 C21.035814,20.534855 21.4171672,20.532291 21.7980075,20.5384447 C21.9569759,20.534855 22.0663735,20.6942508 22.0467161,20.8433904 C22.0451777,24.1990761 22.0508185,27.5548471 22.0441521,30.9105328 C22.0451777,31.8048581 21.6777556,32.7779838 20.8505218,33.2155742 C19.8314149,33.743503 18.5718042,33.6315414 17.5650045,33.1253212 C16.6934134,32.6902948 15.8616498,32.1768953 15.0055282,31.7108445 C14.4105934,31.4029074 13.9992413,30.7594273 14.0033557,30.0850083 L14.0033557,19.9171005 C13.9971901,19.255587 14.388372,18.6182605 14.9683502,18.3060501 C17.9489217,16.6239767 20.9289804,14.9406212 23.9090392,13.2577786 Z"/>
    <path fill="#FFF" fill-rule="nonzero" d="M26.5092831,20.3011032 C27.8092342,20.2174311 29.2008912,20.2515324 30.3706762,20.8919356 C31.2763686,21.3826864 31.7784864,22.4126476 31.7944688,23.418849 C31.7691706,23.5545704 31.6272956,23.6294394 31.4977278,23.6201235 C31.1205625,23.6196107 30.7433117,23.6252515 30.3661465,23.6175595 C30.2061525,23.6237131 30.1131645,23.4761973 30.0930798,23.3347496 C29.9847078,22.8533148 29.7221536,22.3764951 29.2690083,22.1442816 C28.5733934,21.7960041 27.7668426,21.8135248 27.0083242,21.8207895 C26.4545843,21.8501901 25.8591367,21.898137 25.390009,22.2237658 C25.0298517,22.4704232 24.9204541,22.9683532 25.0489962,23.3693637 C25.1701883,23.6573016 25.5025689,23.7502041 25.7745245,23.8358419 C27.3411322,24.24557 29.0012406,24.2048023 30.5379349,24.7440128 C31.1741502,24.9638336 31.79652,25.3911679 32.0142895,26.0572967 C32.2991506,26.9500836 32.1742835,28.0172229 31.5390938,28.733948 C31.0239849,29.3237549 30.2737568,29.6447684 29.5254944,29.8191209 C28.5300617,30.0410783 27.4970237,30.0467191 26.4861216,29.9481758 C25.5355591,29.8398038 24.5463656,29.5900697 23.8125471,28.9424017 C23.1850493,28.3975505 22.8785651,27.5486081 22.9089913,26.7292372 C22.916256,26.5908663 23.0540286,26.4943742 23.1865877,26.5057413 C23.5664025,26.5026645 23.9462172,26.5016389 24.326032,26.5062541 C24.4777357,26.4953998 24.5902101,26.626506 24.5979876,26.7694921 C24.6680704,27.2281928 24.8404571,27.7096276 25.240442,27.9815832 C26.0123788,28.4795986 26.9809748,28.4454974 27.8648731,28.4594285 C28.5971532,28.4269511 29.4191736,28.4171224 30.0167579,27.9331235 C30.3320452,27.6570655 30.4254605,27.1952026 30.34025,26.7978671 C30.2479458,26.4624096 29.8970188,26.3060907 29.5956627,26.2038724 C28.0491397,25.71466 26.3704849,25.8921747 24.8389187,25.3389477 C24.2171472,25.1192123 23.6158878,24.7037579 23.3770079,24.0649785 C23.0436871,23.16091 23.1964164,22.0426615 23.8981849,21.3501235 C24.5824326,20.6612605 25.5701732,20.3959714 26.5092831,20.3010177 L26.5092831,20.3011032 Z"/>
  </g>
</svg>
