<svg xmlns="http://www.w3.org/2000/svg" width="50" height="50" viewBox="0 0 50 50">
  <g fill="none" transform="translate(11 17)">
    <path fill="#252F3E" d="M8.00995027,6.17673811 C8.0005007,6.46022452 8.0382989,6.74371094 8.11389527,7.01774782 C8.19894121,7.2539865 8.30288621,7.4807756 8.41628079,7.69811522 C8.45407899,7.76426202 8.48242763,7.83985843 8.48242763,7.9154548 C8.47297805,8.02884937 8.40683126,8.1422439 8.30288621,8.19894121 L7.70756475,8.5958222 C7.63196838,8.64306994 7.54692244,8.6808681 7.46187654,8.6808681 C7.3579315,8.67141857 7.2539865,8.62417083 7.17839013,8.54857446 C7.05554598,8.41628079 6.93270188,8.26508805 6.83820641,8.10444574 C6.74371094,7.94380343 6.64921546,7.76426202 6.54527046,7.54692244 C5.80820575,8.41628079 4.88215014,8.85095998 3.76710357,8.85095998 C2.97334161,8.85095998 2.34022194,8.62417083 1.87719413,8.17059258 C1.41416631,7.71701428 1.17792764,7.11224329 1.17792764,6.35627952 C1.17792764,5.55306797 1.46141405,4.90104924 2.03783643,4.40967278 C2.61425881,3.91829632 3.37967213,3.6726081 4.35297548,3.6726081 C4.68370967,3.6726081 5.02389335,3.70095674 5.3546275,3.74820448 C5.70426075,3.79545221 6.06334353,3.87104859 6.44132542,3.95609451 L6.44132542,3.26627757 C6.44132542,2.54811198 6.29013268,2.04728598 5.9971967,1.75435002 C5.70426075,1.46141405 5.18453566,1.31967084 4.45692052,1.31967084 C4.1167368,1.31967084 3.76710357,1.35746903 3.43636942,1.44251496 C3.08673617,1.52756088 2.74655247,1.6315059 2.41581832,1.76379956 C2.3118733,1.8110473 2.19847874,1.84884549 2.08508417,1.88664368 C2.03783643,1.90554277 1.98113915,1.91499232 1.93389141,1.91499232 C1.80159775,1.91499232 1.73545092,1.82049685 1.73545092,1.62205636 L1.73545092,1.15902854 C1.72600137,1.04563398 1.75435002,0.93223941 1.80159775,0.828294392 C1.87719413,0.743248464 1.96224005,0.677101634 2.06618507,0.629853898 C2.44416696,0.440862955 2.84104795,0.299119747 3.25682802,0.204624275 C3.73875493,0.0817801611 4.23958094,0.0250828781 4.7309574,0.0250828781 C5.85545349,0.0250828781 6.6775641,0.280220652 7.20673876,0.790496199 C7.73591339,1.30077175 7.99105117,2.07563462 7.99105117,3.11508481 L7.99105117,6.17673811 L8.00995027,6.17673811 Z M4.1734341,7.61306928 C4.50416825,7.61306928 4.8349024,7.55637201 5.14673745,7.44297744 C5.4963707,7.32013334 5.79875622,7.11224329 6.04444443,6.83820641 C6.19563721,6.66811457 6.30903178,6.46022452 6.36572905,6.23343537 C6.43187589,5.96884806 6.46022452,5.68536165 6.46022452,5.41132476 L6.46022452,5.01444382 C6.17673811,4.94829698 5.88380216,4.89159967 5.59086618,4.85380151 C5.29793023,4.8160033 4.99554471,4.7971042 4.70260873,4.7971042 C4.06948906,4.7971042 3.60646127,4.91994835 3.29462621,5.17508609 C2.98279115,5.43022387 2.8315984,5.78930665 2.8315984,6.26178405 C2.8315984,6.70591273 2.94499296,7.03664688 3.18123164,7.26343603 C3.41747032,7.49022518 3.73875493,7.61306928 4.1734341,7.61306928 L4.1734341,7.61306928 Z M11.7614205,8.63362036 C11.6385764,8.64306994 11.5062827,8.6147213 11.4023377,8.53912489 C11.3078422,8.43517989 11.2322459,8.31233579 11.2038972,8.17059258 L8.98325362,0.86609258 C8.93600588,0.743248464 8.90765725,0.620404351 8.89820772,0.488110691 C8.88875815,0.374716125 8.96435451,0.270771105 9.07774909,0.251872011 L10.060502,0.251872011 C10.2400434,0.251872011 10.3628875,0.280220652 10.4290344,0.346367483 C10.4951812,0.412514314 10.561328,0.535358426 10.6180253,0.714899822 L12.1960997,6.97050008 L13.670229,0.714899822 C13.7174768,0.525908879 13.7741741,0.403064766 13.8497704,0.346367483 C13.963165,0.280220652 14.0954586,0.242422464 14.2277523,0.251872011 L14.9837161,0.251872011 C15.1632575,0.251872011 15.2861016,0.280220652 15.361698,0.346367483 C15.4561935,0.450312502 15.5223403,0.573156615 15.5412394,0.714899822 L17.0342678,7.04609645 L18.6690395,0.714899822 C18.6973882,0.573156615 18.763535,0.450312502 18.8580305,0.346367483 C18.971425,0.280220652 19.0942691,0.242422464 19.2265628,0.251872011 L20.1053707,0.251872011 C20.2187652,0.232972917 20.3227103,0.318018841 20.3416094,0.431413408 L20.3416094,0.488110691 C20.3416094,0.535358426 20.3321598,0.592055709 20.3227103,0.639303445 C20.3038112,0.724349369 20.2849121,0.79994575 20.2565634,0.875542128 L17.9792225,8.18004211 C17.9225253,8.36903305 17.8563784,8.49187716 17.7807821,8.54857446 C17.676837,8.6147213 17.5445434,8.65251947 17.4216993,8.64306994 L16.6090382,8.64306994 C16.4294968,8.64306994 16.3066527,8.6147213 16.2310563,8.54857446 C16.1365609,8.44462942 16.070414,8.31233579 16.0515149,8.17059258 L14.5868351,2.07563462 L13.1316048,8.16114301 C13.1127058,8.30288621 13.0465589,8.43517989 12.9520635,8.53912489 C12.8386689,8.6147213 12.7063752,8.64306994 12.5740816,8.63362036 L11.7614205,8.63362036 L11.7614205,8.63362036 Z M23.9040887,8.88875815 C23.4127122,8.88875815 22.9213357,8.83206088 22.4488584,8.7186663 C21.976381,8.60527173 21.6078487,8.48242763 21.3621605,8.34068442 C21.2393164,8.28398711 21.1353713,8.18949164 21.0692245,8.07609711 C21.0314263,7.99105117 21.0125272,7.90600523 21.0125272,7.81150975 L21.0125272,7.32958287 C21.0125272,7.13114235 21.0881236,7.03664688 21.2298668,7.03664688 C21.2865641,7.03664688 21.3432614,7.04609645 21.3999587,7.06499555 C21.4566559,7.08389462 21.5417019,7.12169282 21.6361973,7.15949103 C21.9669315,7.31068376 22.3165647,7.41462881 22.6756475,7.49022518 C23.0441798,7.56582155 23.4221618,7.60361975 23.8001437,7.60361975 C24.3954651,7.60361975 24.8584929,7.49967471 25.1797775,7.29178466 C25.4916126,7.10279372 25.6806035,6.76261004 25.671154,6.39407768 C25.6806035,6.14838947 25.586108,5.9121508 25.4160162,5.73260938 C25.2459244,5.55306797 24.9246397,5.3924257 24.461612,5.24123292 L23.0914276,4.8160033 C22.4016106,4.59866373 21.8913351,4.27737911 21.5795,3.85214949 C21.2771145,3.45526851 21.1070227,2.98279115 21.1070227,2.48196515 C21.0975731,2.11343281 21.182619,1.75435002 21.3621605,1.43306541 C21.5322523,1.1306799 21.7590414,0.86609258 22.0425279,0.658202539 C22.3354638,0.431413408 22.666198,0.270771105 23.0252808,0.166826086 C23.4127122,0.0534315197 23.8095932,-0.00326576351 24.2159237,0.00618378368 C24.4238137,0.00618378368 24.6411533,0.0156333309 24.8490434,0.0439819726 C25.0663829,0.072330614 25.2648235,0.110128803 25.4632639,0.147926992 C25.6617044,0.185725181 25.8317963,0.242422464 26.0018881,0.299119747 C26.1436313,0.346367483 26.275925,0.403064766 26.3987691,0.469211596 C26.5121637,0.525908879 26.6066592,0.601505256 26.6822555,0.705450275 C26.7484024,0.79994575 26.776751,0.903890769 26.7673015,1.01728533 L26.7673015,1.46141405 C26.7673015,1.65985454 26.6917051,1.76379956 26.5499619,1.76379956 C26.4271177,1.74490047 26.3042736,1.70710228 26.1908791,1.650405 C25.6239062,1.39526722 25.0002361,1.27242311 24.376566,1.28187265 C23.8379418,1.28187265 23.4127122,1.36691858 23.1197762,1.54645998 C22.8268403,1.72600137 22.6756475,2.00003824 22.6756475,2.38746968 C22.666198,2.64260745 22.770143,2.88829568 22.9591339,3.05838753 C23.1481249,3.23792893 23.4977581,3.41747032 23.9985841,3.57811263 L25.3404198,4.00334225 C26.0207872,4.22068184 26.5121637,4.52306736 26.8050996,4.91049877 C27.0980356,5.28848066 27.2492284,5.76095802 27.2397788,6.23343537 C27.2492284,6.61141726 27.1641824,6.98939915 26.9940906,7.32958287 C26.8239987,7.65086749 26.5877601,7.9343539 26.3042736,8.16114301 C25.9924386,8.40683126 25.6333558,8.58637263 25.2553739,8.69031767 C24.8206947,8.82261131 24.3671165,8.88875815 23.9040887,8.88875815 L23.9040887,8.88875815 Z"/>
    <path fill="#F90" d="M25.6900531,13.4812381 C22.5811521,15.7774781 18.0642685,16.9964697 14.1805046,16.9964697 C8.73756541,16.9964697 3.8332504,14.9837161 0.129027897,11.6385764 C-0.163908066,11.3739891 0.100679256,11.0149063 0.450312502,11.2227963 C4.45692052,13.5473849 9.39903371,14.9553675 14.5112387,14.9553675 C18.1965622,14.9364684 21.8440873,14.1899541 25.2364748,12.7630725 C25.7561999,12.5268338 26.2003286,13.1032562 25.6900531,13.4812381 Z"/>
    <path fill="#F90" d="M26.984641,12.0071087 C26.5877601,11.4968332 24.3576669,11.7614205 23.3465654,11.8842646 C23.0441798,11.9220628 22.9969321,11.6574755 23.270969,11.459035 C25.0474839,10.2116947 27.967394,10.5707776 28.3075776,10.9865576 C28.6477614,11.4023377 28.2130822,14.3316973 26.5499619,15.7302303 C26.2948241,15.9475699 26.0491359,15.8341753 26.1625304,15.5506889 C26.5405123,14.6151837 27.381522,12.5079347 26.984641,12.0071087 L26.984641,12.0071087 Z"/>
  </g>
</svg>
