<svg xmlns="http://www.w3.org/2000/svg" width="50" height="50" viewBox="0 0 50 50">
  <g fill="none" fill-rule="evenodd">
    <rect width="50" height="50" fill="#FFE01B"/>
    <g fill="#000" fill-rule="nonzero" transform="translate(10 9)">
      <path d="M30.1803922,20.5803922 C29.9921569,20.1411765 29.5529412,19.827451 29.0509804,19.7019608 C28.8627451,18.8862745 28.6117647,18.5098039 28.6117647,18.4470588 C28.6745098,18.3215686 28.8,18.2588235 28.8,18.1960784 C29.5529412,17.3176471 29.0509804,16 27.7960784,15.6862745 C27.1058824,14.9960784 26.4784314,14.6823529 25.9137255,14.4313725 C25.4117647,14.1803922 25.6,14.3058824 25.1607843,14.054902 C25.0352941,13.427451 24.972549,12.0470588 24.7843137,11.0431373 C24.5960784,10.1647059 24.2196078,9.4745098 23.7176471,9.09803922 C23.4666667,8.59607843 23.2156863,8.15686275 22.8392157,7.78039216 C24.5960784,5.14509804 25.0352941,2.50980392 23.7803922,1.12941176 C23.2156863,0.501960784 22.4,0.250980392 21.3960784,0.250980392 C19.9529412,0.250980392 18.2588235,0.815686275 16.5019608,1.88235294 C16.5019608,1.88235294 15.372549,0.941176471 15.3098039,0.941176471 C10.4156863,-2.88627451 -3.45098039,14.1176471 1.44313725,17.8196078 L2.69803922,18.7607843 C1.88235294,20.9568627 3.01176471,23.5921569 5.33333333,24.4078431 C5.83529412,24.5960784 6.4,24.6588235 6.96470588,24.6588235 C6.96470588,24.6588235 10.6666667,31.4352941 18.5098039,31.4352941 C27.545098,31.4352941 29.8666667,22.5882353 29.8666667,22.5254902 C29.8039216,22.5882353 30.5568627,21.4588235 30.1803922,20.5803922 Z M1.75686275,16.6901961 C0.815686275,14.9960784 2.50980392,11.6078431 3.76470588,9.6 C6.77647059,4.76862745 11.8588235,0.941176471 14.1803922,1.50588235 L14.8078431,1.25490196 C14.8078431,1.25490196 16.5019608,2.69803922 16.5647059,2.69803922 C17.7568627,2.00784314 19.2627451,1.25490196 20.6431373,1.12941176 C19.7647059,1.31764706 18.7607843,1.75686275 17.5058824,2.50980392 C17.5058824,2.50980392 14.5568627,4.51764706 12.8,6.2745098 C11.8588235,7.21568627 7.96862745,11.9215686 7.96862745,11.8588235 C8.65882353,10.5411765 9.16078431,9.85098039 10.2901961,8.47058824 C10.9176471,7.65490196 11.6078431,6.90196078 12.2980392,6.14901961 C12.6117647,5.83529412 12.9254902,5.52156863 13.3019608,5.20784314 C13.5529412,5.01960784 13.7411765,4.76862745 13.9921569,4.58039216 C14.1176471,4.51764706 14.1803922,4.39215686 14.3058824,4.32941176 C14.3058824,4.32941176 14.3058824,4.32941176 14.3058824,4.32941176 L12.0470588,2.44705882 L12.172549,3.2627451 L13.8039216,4.70588235 C13.8039216,4.70588235 12.3607843,5.70980392 11.6078431,6.3372549 C8.65882353,8.84705882 5.83529412,12.6745098 4.76862745,16.3764706 L4.83137255,16.3764706 C4.32941176,16.6901961 3.76470588,17.1294118 3.3254902,17.7568627 C3.1372549,17.8196078 1.94509804,17.0039216 1.75686275,16.6901961 Z M6.58823529,23.654902 C4.83137255,23.654902 3.45098039,22.1490196 3.45098039,20.3294118 C3.45098039,18.5098039 4.89411765,17.0039216 6.58823529,17.0039216 C7.02745098,17.0039216 7.46666667,17.1294118 7.84313725,17.254902 C7.84313725,17.254902 8.53333333,17.5686275 8.72156863,19.2 C8.72156863,19.2 8.72156863,19.2 8.72156863,19.2 C8.72156863,19.2 8.72156863,19.2 8.72156863,19.2 C8.90980392,18.6980392 9.03529412,18.2588235 9.03529412,18.2588235 C9.28627451,18.9490196 9.34901961,19.7019608 9.34901961,20.3921569 L9.34901961,20.3921569 L9.34901961,20.3921569 C9.5372549,20.1411765 9.7254902,19.7019608 9.7254902,19.7019608 C10.1019608,21.8352941 8.59607843,23.654902 6.58823529,23.654902 Z M10.4784314,11.9215686 L10.4784314,11.9215686 C10.4784314,11.9215686 11.8588235,9.34901961 14.8078431,7.59215686 C14.5568627,7.52941176 14.054902,7.65490196 13.9294118,7.65490196 C14.4941176,7.21568627 15.4980392,6.90196078 16.1882353,6.71372549 C16,6.58823529 15.4980392,6.5254902 15.2470588,6.5254902 C15.1843137,6.5254902 15.1843137,6.5254902 15.1215686,6.5254902 C15.7490196,6.14901961 17.0039216,5.96078431 18.0705882,6.14901961 C17.945098,5.96078431 17.6313725,5.83529412 17.3803922,5.77254902 C17.3803922,5.77254902 17.254902,5.77254902 17.254902,5.77254902 C17.254902,5.77254902 17.3176471,5.77254902 17.3176471,5.77254902 C18.0078431,5.64705882 18.7607843,5.77254902 19.3882353,6.02352941 C19.3254902,5.83529412 19.1372549,5.64705882 19.0117647,5.52156863 C19.0117647,5.52156863 18.9490196,5.45882353 18.9490196,5.45882353 C19.5764706,5.58431373 20.2039216,5.89803922 20.7058824,6.21176471 C20.6431373,6.08627451 20.5176471,5.89803922 20.3921569,5.77254902 C21.0196078,5.96078431 21.7098039,6.4 22.0235294,7.02745098 L22.0235294,7.02745098 C22.0235294,7.02745098 22.0235294,7.09019608 22.0235294,7.09019608 C22.0235294,7.09019608 22.0235294,7.09019608 22.0235294,7.09019608 C20.8313725,6.21176471 17.4431373,6.4627451 14.054902,8.65882353 C12.5490196,9.6627451 11.3568627,10.7294118 10.4784314,11.9215686 Z M28.9254902,22.1490196 C28.8627451,22.2117647 28.4862745,24.5333333 25.9764706,26.4784314 C22.9019608,28.9254902 18.8235294,28.6745098 17.254902,27.2941176 C16.4392157,26.5411765 16.0627451,25.4117647 16.0627451,25.4117647 C16.0627451,25.4117647 16,26.0392157 15.9372549,26.2901961 C15.3098039,25.2235294 15.372549,23.9686275 15.372549,23.9686275 C15.372549,23.9686275 15.0588235,24.5960784 14.8705882,24.9098039 C14.4313725,23.7176471 14.6196078,22.5254902 14.6196078,22.5254902 L14.2431373,23.0901961 C14.2431373,23.0901961 14.054902,21.772549 14.4941176,20.7058824 C14.9333333,19.5137255 15.8117647,18.6980392 16,18.572549 C15.372549,18.3843137 14.6196078,17.7568627 14.6196078,17.7568627 C14.6196078,17.7568627 14.9333333,17.7568627 15.1215686,17.7568627 C15.1215686,17.7568627 13.8039216,16.8156863 13.5529412,15.372549 C13.7411765,15.6235294 14.1176471,15.8745098 14.1176471,15.8745098 C13.9921569,15.4980392 13.9294118,14.6823529 14.054902,13.8039216 L14.054902,13.8039216 C14.3058824,12.2352941 15.6235294,11.1686275 17.0666667,11.1686275 C18.6352941,11.1686275 19.7019608,11.4823529 21.0196078,10.2901961 C21.2705882,10.0392157 21.5215686,9.78823529 21.8980392,9.7254902 C21.9607843,9.7254902 22.0235294,9.6627451 22.2745098,9.6627451 C22.4627451,9.6627451 22.7137255,9.7254902 22.9019608,9.85098039 C23.5921569,10.2901961 23.7803922,11.4196078 23.8431373,12.2352941 C24.1568627,15.2470588 24.0313725,14.745098 25.2235294,15.372549 C25.7882353,15.6862745 26.4784314,15.9372549 27.2313725,16.7529412 C27.2313725,16.7529412 27.2313725,16.7529412 27.2313725,16.7529412 C27.2313725,16.7529412 27.2313725,16.7529412 27.2313725,16.7529412 C27.8588235,16.7529412 28.172549,17.254902 27.9215686,17.6313725 C25.7882353,20.1411765 22.8392157,21.3333333 19.5764706,21.4588235 C19.4509804,21.4588235 19.1372549,21.4588235 19.1372549,21.4588235 C17.8196078,21.5215686 17.3803922,23.2156863 18.1960784,24.2196078 C18.6980392,24.8470588 19.7647059,25.0980392 20.5803922,25.0980392 L20.5803922,25.0980392 C24.1568627,25.1607843 27.7960784,22.6509804 28.4235294,21.2078431 C28.4235294,21.2078431 28.4862745,21.0823529 28.4862745,21.0823529 C28.3607843,21.2705882 24.8470588,24.5333333 20.5803922,24.4078431 C20.5803922,24.4078431 20.1411765,24.4078431 19.7019608,24.2823529 C19.1372549,24.1568627 18.6980392,23.9058824 18.5098039,23.3411765 C18.8862745,23.4039216 19.3254902,23.4666667 19.827451,23.4666667 C22.9019608,23.4666667 25.0980392,22.0862745 24.9098039,22.0235294 C24.9098039,22.0235294 24.9098039,22.0235294 24.8470588,22.0235294 C24.4705882,22.0862745 20.7686275,23.5294118 18.4470588,22.7764706 C18.4470588,22.7137255 18.4470588,22.6509804 18.5098039,22.5882353 C18.6980392,21.8980392 19.0745098,21.9607843 19.7019608,21.9607843 L19.7019608,21.9607843 C21.8352941,21.8980392 23.5294118,21.3333333 24.8470588,20.7686275 C26.227451,20.1411765 27.2941176,19.2627451 27.6705882,18.8235294 C28.172549,19.6392157 28.172549,20.7058824 28.172549,20.7058824 C28.172549,20.7058824 28.3607843,20.6431373 28.6117647,20.6431373 C29.3647059,20.7058824 29.4901961,21.3960784 28.9254902,22.1490196 Z"/>
      <polygon points="14.055 2.635 14.494 2.761 14.118 1.506 13.929 2.133"/>
      <path d="M15.9372549 3.0745098L15.2470588 2.50980392 15.4980392 3.38823529C15.6235294 3.2627451 15.7490196 3.2 15.9372549 3.0745098zM22.2745098 14.3058824C22.6509804 14.3058824 22.9647059 14.3686275 23.2784314 14.4941176 23.2784314 13.6156863 22.7764706 12.6745098 22.4 12.8L22.4 12.8C22.4 12.8 22.4 12.8 22.4 12.8L22.4 12.8C22.1490196 12.8627451 22.1490196 13.2392157 22.1490196 13.4901961 22.1490196 13.8039216 22.1490196 14.054902 22.2745098 14.3058824zM15.1843137 3.57647059L13.7411765 3.1372549 14.6823529 3.95294118C14.8705882 3.82745098 14.9960784 3.70196078 15.1843137 3.57647059zM18.8862745 15.5607843C19.2 15.6862745 19.3882353 15.7490196 19.3882353 15.6862745 19.3882353 15.6862745 19.3882353 15.5607843 19.3254902 15.4980392 19.1372549 15.2470588 18.8235294 14.9960784 18.5098039 14.9333333 17.8196078 14.6823529 17.0039216 14.8078431 16.4392157 15.3098039 16.1254902 15.5607843 16 15.8117647 16.1254902 15.8117647 16.1882353 15.8117647 16.3764706 15.7490196 16.627451 15.6862745 17.6313725 15.2470588 18.1333333 15.2470588 18.8862745 15.5607843zM18.9490196 16.3764706C19.1372549 16.3764706 19.2627451 16.3764706 19.2627451 16.3764706 19.3254902 16.2509804 18.8862745 15.9372549 18.1960784 16 18.1333333 16 18.0705882 16.0627451 17.945098 16.0627451 17.945098 16.0627451 17.8823529 16.0627451 17.8823529 16.0627451 17.7568627 16.1254902 17.5686275 16.1882353 17.4431373 16.3137255 17.3176471 16.4392157 17.254902 16.5647059 17.3176471 16.627451 17.3803922 16.6901961 17.4431373 16.627451 17.6313725 16.5647059 18.1960784 16.3764706 18.572549 16.3764706 18.9490196 16.3764706zM7.71764706 19.2C7.90588235 19.4509804 7.84313725 19.5764706 7.90588235 19.6392157 7.90588235 19.6392157 7.96862745 19.7019608 8.03137255 19.6392157 8.15686275 19.5764706 8.15686275 19.4509804 8.15686275 19.3254902L8.15686275 19.3254902C8.15686275 19.3254902 8.15686275 19.3254902 8.15686275 19.3254902L8.15686275 19.3254902C8.15686275 19.0745098 8.03137255 18.7607843 7.84313725 18.572549 7.84313725 18.572549 7.84313725 18.572549 7.84313725 18.572549L7.84313725 18.572549C7.59215686 18.3215686 7.27843137 18.0705882 6.83921569 18.0078431 6.4627451 17.945098 6.08627451 18.0078431 6.02352941 18.0705882L6.02352941 18.0705882C5.96078431 18.0705882 5.89803922 18.0705882 5.83529412 18.1333333 4.83137255 18.5098039 4.39215686 19.5137255 4.58039216 20.454902 4.64313725 20.7058824 4.76862745 20.9568627 4.89411765 21.145098L4.89411765 21.145098C4.89411765 21.145098 4.89411765 21.145098 4.89411765 21.145098L4.89411765 21.145098C5.08235294 21.3960784 5.33333333 21.3333333 5.20784314 21.145098 5.20784314 21.0823529 5.08235294 20.8313725 5.01960784 20.454902 5.01960784 20.0156863 5.08235294 19.5764706 5.39607843 19.2 5.58431373 18.9490196 5.83529412 18.8235294 5.89803922 18.8235294L5.89803922 18.8235294C5.96078431 18.8235294 5.96078431 18.7607843 6.02352941 18.7607843 6.02352941 18.7607843 6.08627451 18.7607843 6.08627451 18.7607843 6.21176471 18.6980392 6.14901961 18.7607843 6.2745098 18.6980392L6.2745098 18.6980392C7.02745098 18.572549 7.52941176 18.8862745 7.71764706 19.2z"/>
      <path d="M7.40392157,19.9529412 C7.34117647,19.8901961 7.27843137,19.827451 7.27843137,19.7647059 C7.27843137,19.6392157 7.27843137,19.5764706 7.40392157,19.5137255 C7.46666667,19.4509804 7.52941176,19.4509804 7.52941176,19.3882353 C7.52941176,19.3254902 7.27843137,19.2627451 7.02745098,19.4509804 C6.83921569,19.6392157 6.83921569,20.0156863 7.09019608,20.2666667 C7.40392157,20.5803922 7.84313725,20.6431373 7.90588235,21.0196078 C7.90588235,21.0823529 7.90588235,21.145098 7.90588235,21.2078431 C7.90588235,21.2705882 7.90588235,21.3960784 7.90588235,21.3960784 C7.84313725,21.772549 7.46666667,22.1490196 6.83921569,22.0235294 C6.71372549,22.0235294 6.65098039,22.0235294 6.65098039,22.0235294 C6.58823529,22.0862745 6.83921569,22.4 7.34117647,22.3372549 C8.03137255,22.3372549 8.53333333,21.6470588 8.40784314,20.8941176 C8.34509804,20.2666667 7.65490196,20.1411765 7.40392157,19.9529412 Z"/>
      <circle cx="23.247" cy="15.704" r="1" transform="rotate(-81.136 23.247 15.704)"/>
      <ellipse cx="21.77" cy="16.2" rx="1" ry="1" transform="rotate(-61.277 21.77 16.2)"/>
    </g>
  </g>
</svg>
