<svg height="50" viewBox="0 0 67 50" width="67" xmlns="http://www.w3.org/2000/svg"><path d="m49.8549801 37.4726974h8.2331316v-19.7682056l-9.2758503-9.2758503-5.8218451 5.8218452 6.8645638 6.8645636zm8.2548549 4.1274275h-11.991263-16.7269432l-6.8645638-6.8645638 2.9109226-2.9109225 5.6697821 5.6697821h11.6654135l-11.4916272-11.5133505 2.9326461-2.9326459 11.4916269 11.4916273v-11.6654137l-5.6480585-5.6480588 2.8891992-2.8891992-14.2722099-14.3373799h-14.0767003-14.5980595l8.21140847 8.21140847v.02172329h.04344661 16.98762282l6.0173547 6.01735494-8.7979375 8.7979376-6.0173549-6.0173549v-4.6705101h-8.23313173v8.0810687l14.25048663 14.2504865-5.8001218 5.800122 9.2758503 9.2758503h14.0767002 26.3069197z" fill="#231f20"/></svg>