<svg xmlns="http://www.w3.org/2000/svg" width="50" height="50" viewBox="0 0 50 50">
  <g fill="none" transform="translate(7 9)">
    <path fill="#FBBC04" d="M12.4405383,3.09616664 C13.9408421,0.25895212 17.4563283,-0.825128411 20.2938946,0.675034696 C23.131461,2.17519781 24.2141342,5.69040245 22.7152377,8.52775771 C22.6493485,8.65214712 22.5792454,8.77425836 22.5050502,8.89387939 L10.8830258,29.018259 C9.31552099,31.8184602 5.77428043,32.8180998 2.97386806,31.2506654 C0.1734557,29.6833015 -0.826254293,26.1423423 0.741320809,23.3422114 C0.767004922,23.2964726 0.792759398,23.2521411 0.818513874,23.2078097 L12.4405383,3.09616664 Z"/>
    <path fill="#4285F4" d="M25.0757129,13.5112491 C26.5760168,10.6740345 30.0915029,9.58995398 32.9290693,11.0901171 C35.7666356,12.5902802 36.8493088,16.1054849 35.3504123,18.9428401 C35.2845231,19.0672296 35.21442,19.1893408 35.1402248,19.3089618 L29.5526995,28.9884935 C27.9851244,31.7886244 24.4438838,32.7883344 21.6435419,31.2209 C18.8431998,29.6534657 17.8434195,26.1125769 19.4109242,23.3123756 C19.4366787,23.2666368 19.4624331,23.2223054 19.4881877,23.1779739 L25.0757129,13.5112491 Z"/>
    <ellipse cx="5.811" cy="26.15" fill="#34A853" rx="5.811" ry="5.81"/>
  </g>
</svg>
