<svg xmlns="http://www.w3.org/2000/svg" width="50" height="50" viewBox="0 0 50 50">
  <g fill="none" fill-rule="evenodd">
    <rect width="50" height="50" fill="#FFF" fill-opacity=".103"/>
    <g fill="#F12E45" fill-rule="nonzero" transform="translate(9 9)">
      <path d="M15.9810018,0 C7.1594888,0 0,7.1594888 0,15.9810018 C0,24.8025147 7.1594888,31.9620036 15.9810018,31.9620036 C24.8025147,31.9620036 31.9620036,24.8025147 31.9620036,15.9810018 C31.9620036,7.1594888 24.8025147,0 15.9810018,0 Z M15.9810018,27.7430191 C9.46075307,27.7430191 4.21898447,22.5012505 4.21898447,15.9810018 C4.21898447,9.46075307 9.46075307,4.21898447 15.9810018,4.21898447 C22.5012505,4.21898447 27.7430191,9.46075307 27.7430191,15.9810018 C27.7430191,22.5012505 22.5012505,27.7430191 15.9810018,27.7430191 Z"/>
      <circle cx="19.944" cy="12.018" r="3.324"/>
      <circle cx="19.944" cy="19.944" r="3.324"/>
      <circle cx="12.018" cy="19.944" r="3.324"/>
      <circle cx="12.018" cy="12.018" r="3.324"/>
    </g>
  </g>
</svg>
