<svg xmlns="http://www.w3.org/2000/svg" width="50" height="50" viewBox="0 0 50 50">
  <g fill="none" transform="translate(1 4)">
    <path fill="#FBBC04" d="M16.3282065,4.06371872 C18.2973553,0.339874657 22.9114309,-1.08298104 26.6357367,0.885983039 C30.3600426,2.85494712 31.7810511,7.46865322 29.8137495,11.192682 C29.7272699,11.3559431 29.6352596,11.5162141 29.5378784,11.6732167 L14.2839713,38.0864649 C12.2266213,41.761729 7.57874306,43.073756 3.90320183,41.0164984 C0.227660606,38.9593332 -1.08445876,34.3118243 0.972983562,30.6366525 C1.00669396,30.5766203 1.04049671,30.5184352 1.07429946,30.4602502 L16.3282065,4.06371872 Z"/>
    <path fill="#4285F4" d="M32.9118732,17.7335144 C34.881022,14.0096703 39.4950975,12.5868146 43.2194034,14.5557787 C46.9437092,16.5247428 48.3647178,21.1384489 46.3974162,24.8624776 C46.3109366,25.0257388 46.2189263,25.1860098 46.1215451,25.3430124 L38.7879181,38.0473977 C36.7304758,41.7225695 32.0825975,43.0346889 28.4071487,40.9774313 C24.7316998,38.9201737 23.4194881,34.2727572 25.476838,30.597493 C25.5106408,30.5374608 25.5444435,30.4792758 25.5782463,30.4210907 L32.9118732,17.7335144 Z"/>
    <ellipse cx="7.627" cy="34.322" fill="#34A853" rx="7.627" ry="7.626"/>
  </g>
</svg>
