<svg xmlns="http://www.w3.org/2000/svg" xmlns:xlink="http://www.w3.org/1999/xlink" width="50" height="50" viewBox="0 0 50 50">
  <defs>
    <polygon id="icon-wordpress-color-a" points="0 0 41.983 0 41.983 41.984 0 41.984"/>
  </defs>
  <g fill="none" fill-rule="evenodd">
    <rect width="50" height="50" fill="#135E96"/>
    <g transform="translate(4 4)">
      <mask id="icon-wordpress-color-b" fill="#fff">
        <use xlink:href="#icon-wordpress-color-a"/>
      </mask>
      <g fill="#FFF" fill-rule="nonzero" mask="url(#icon-wordpress-color-b)">
        <path d="M2.98385971,20.9912607 C2.98385971,28.1195858 7.12626916,34.2792153 13.1330729,37.1986659 L4.54296661,13.6624804 C3.51320727,15.9684342 2.98192197,18.4658254 2.98385971,20.9912607 Z M33.1487849,20.0825303 C33.1487849,17.8569633 32.3493625,16.3156852 31.6637028,15.1160378 C30.7508606,13.6326691 29.8955849,12.3764829 29.8955849,10.8931142 C29.8955849,9.23773094 31.150743,7.69679559 32.9192036,7.69679559 C32.9990431,7.69679559 33.0747706,7.70673269 33.1528968,7.71118725 C29.948697,4.7759744 25.6801998,2.98387036 20.991946,2.98387036 C14.7007357,2.98387036 9.16577265,6.21171358 5.94581057,11.1007653 C6.36830852,11.1134437 6.76682038,11.1220101 7.10468167,11.1220101 C8.98827554,11.1220101 11.9039569,10.8934569 11.9039569,10.8934569 C12.8747084,10.8362329 12.9891564,12.262035 12.0197754,12.3768256 C12.0197754,12.3768256 11.043884,12.4916162 9.9583418,12.5484975 L16.5161405,32.0543336 L20.4573987,20.2350134 L17.6513681,12.5481549 C16.6816445,12.4912735 15.7629771,12.3764829 15.7629771,12.3764829 C14.7925681,12.3196016 14.9063308,10.8358903 15.8767397,10.8931142 C15.8767397,10.8931142 18.8506729,11.1216675 20.6201615,11.1216675 C22.5034127,11.1216675 25.4194367,10.8931142 25.4194367,10.8931142 C26.3908736,10.8358903 26.5049789,12.2616923 25.5349126,12.3764829 C25.5349126,12.3764829 24.5573079,12.4912735 23.4738216,12.5481549 L29.9815922,31.9063051 L31.7774655,25.9039558 C32.5563283,23.4131711 33.1487849,21.624151 33.1487849,20.0825303 L33.1487849,20.0825303 Z"/>
        <path d="M21.3078772,22.5664619 L15.9048377,38.2663898 C17.5566853,38.7532002 19.2698586,39.0003643 20.991946,39.0003643 C23.0890161,39.0003643 25.100079,38.637489 26.9720224,37.9795846 C26.9218084,37.9009823 26.8789105,37.8179395 26.8438682,37.7314998 L21.3078772,22.5664619 Z M36.7933008,12.3514689 C36.8707417,12.9250792 36.9146019,13.5411792 36.9146019,14.2031955 C36.9146019,16.0305934 36.5733141,18.0848312 35.5453385,20.6533994 L30.0446414,36.5572091 C35.398338,33.4352474 38.9993814,27.6350667 38.9993814,20.9912607 C39.0041389,17.9714033 38.2452745,14.9993613 36.7933008,12.3514689 L36.7933008,12.3514689 Z"/>
        <path d="M20.991946,0 C9.417284,0 0,9.41659868 0,20.9912607 C0,32.5672934 9.41694134,41.983892 20.991946,41.983892 C32.5662654,41.983892 41.98492,32.567636 41.98492,20.9912607 C41.98492,9.41659868 32.5662654,0 20.991946,0 Z M20.991946,41.0213643 C9.94806204,41.0213643 0.962527772,32.03583 0.962527772,20.9912607 C0.962527772,9.94771938 9.94771938,0.96287043 20.991946,0.96287043 C32.0354873,0.96287043 41.0203363,9.94771938 41.0203363,20.9912607 C41.0203363,32.03583 32.0351447,41.0213643 20.991946,41.0213643 Z"/>
      </g>
    </g>
  </g>
</svg>
