<svg xmlns="http://www.w3.org/2000/svg" width="50" height="50" viewBox="0 0 50 50">
  <g fill="none" transform="translate(2 12)">
    <path fill="#252F3E" d="M12.7216857,9.81011346 C12.7066776,10.2603566 12.76671,10.7105997 12.8867748,11.1458348 C13.0218478,11.5210374 13.1869369,11.8812318 13.3670342,12.2264183 C13.4270666,12.331475 13.4720909,12.4515399 13.4720909,12.5716047 C13.4570828,12.7517019 13.3520261,12.9317991 13.1869369,13.0218478 L12.2414264,13.6521882 C12.1213615,13.7272287 11.9862886,13.7872611 11.8512157,13.7872611 C11.6861265,13.772253 11.5210374,13.6972125 11.4009726,13.5771477 C11.2058671,13.3670342 11.0107618,13.1269046 10.8606808,12.8717668 C10.7105997,12.616629 10.5605187,12.331475 10.3954296,11.9862886 C9.22479737,13.3670342 7.75400316,14.057407 5.98304685,14.057407 C4.72236608,14.057407 3.71682309,13.6972125 2.98142597,12.9768235 C2.24602885,12.2564345 1.87082625,11.2959158 1.87082625,10.0952675 C1.87082625,8.81957854 2.32106937,7.78401939 3.23656374,7.00359795 C4.15205811,6.22317651 5.36771456,5.8329658 6.91354929,5.8329658 C7.438833,5.8329658 7.97912473,5.87799012 8.50440838,5.95303064 C9.05970825,6.02807116 9.6300162,6.14813599 10.2303404,6.28320893 L10.2303404,5.18761731 C10.2303404,4.04700138 9.99021073,3.25157185 9.52495946,2.78632061 C9.05970825,2.32106937 8.23426251,2.09594781 7.07863847,2.09594781 C6.53834668,2.09594781 5.98304685,2.15598023 5.45776319,2.29105317 C4.90246333,2.42612611 4.36217157,2.59121526 3.83688792,2.80132872 C3.67179877,2.87636924 3.49170152,2.93640166 3.31160426,2.99643407 C3.23656374,3.02645028 3.14651512,3.04145839 3.07147459,3.04145839 C2.86136113,3.04145839 2.7563044,2.89137734 2.7563044,2.57620715 L2.7563044,1.84081004 C2.7412963,1.66071279 2.78632061,1.48061553 2.86136113,1.31552639 C2.98142597,1.18045344 3.11649891,1.07539671 3.28158805,1.00035619 C3.88191223,0.700194105 4.51225262,0.475072539 5.17260921,0.324991495 C5.93802253,0.129886138 6.73345209,0.0398375122 7.51387352,0.0398375122 C9.29983789,0.0398375122 10.605543,0.44505633 11.4459969,1.25549396 C12.2864507,2.0659316 12.6916695,3.29659616 12.6916695,4.94748764 L12.6916695,9.81011346 L12.7216857,9.81011346 Z M6.62839534,12.0913453 C7.15367899,12.0913453 7.67896264,12.0012967 8.17423007,11.8211995 C8.72952994,11.6260941 9.20978929,11.2959158 9.59999998,10.8606808 C9.84012969,10.5905349 10.0202269,10.2603566 10.1102756,9.90016206 C10.2153323,9.47993516 10.2603566,9.02969203 10.2603566,8.59445698 L10.2603566,7.96411665 C9.81011346,7.85905991 9.34486226,7.76901124 8.87961099,7.70897886 C8.41435978,7.64894642 7.93410043,7.6189302 7.46884916,7.6189302 C6.46330616,7.6189302 5.72790907,7.81403561 5.23264162,8.21925437 C4.73737418,8.6244732 4.49724451,9.19478115 4.49724451,9.94518643 C4.49724451,10.6505673 4.67734177,11.1758509 5.05254437,11.5360455 C5.42774698,11.89624 5.93802253,12.0913453 6.62839534,12.0913453 L6.62839534,12.0913453 Z M18.6799031,13.7122206 C18.4847978,13.7272287 18.2746843,13.6822044 18.1095952,13.5621395 C17.9595141,13.3970504 17.8394493,13.2019451 17.794425,12.9768235 L14.2675205,1.3755588 C14.1924799,1.18045344 14.1474556,0.985348086 14.1324476,0.775234626 C14.1174394,0.595137374 14.2375042,0.430048226 14.4176015,0.400032017 L15.9784444,0.400032017 C16.2635984,0.400032017 16.4587037,0.44505633 16.5637605,0.550113061 C16.6688171,0.655169792 16.7738739,0.850275148 16.8639225,1.13542913 L19.370276,11.0707942 L21.7115402,1.13542913 C21.7865807,0.835267044 21.8766294,0.640161687 21.9966942,0.550113061 C22.1767915,0.44505633 22.3869049,0.385023913 22.5970184,0.400032017 L23.7976667,0.400032017 C24.0828207,0.400032017 24.2779261,0.44505633 24.3979909,0.550113061 C24.548072,0.715202209 24.6531287,0.910307565 24.6831449,1.13542913 L27.0544254,11.1908591 L29.6508275,1.13542913 C29.6958518,0.910307565 29.8009085,0.715202209 29.9509896,0.550113061 C30.1310868,0.44505633 30.3261922,0.385023913 30.5363056,0.400032017 L31.9320593,0.400032017 C32.1121565,0.370015809 32.2772457,0.505088748 32.3072619,0.685186001 L32.3072619,0.775234626 C32.3072619,0.850275148 32.2922538,0.940323774 32.2772457,1.0153643 C32.2472295,1.15043723 32.2172133,1.27050207 32.172189,1.39056691 L28.5552358,12.9918316 C28.4651872,13.2919937 28.3601305,13.487099 28.2400656,13.5771477 C28.0749765,13.6822044 27.864863,13.7422368 27.6697577,13.7272287 L26.3790607,13.7272287 C26.0939067,13.7272287 25.8988013,13.6822044 25.7787365,13.5771477 C25.6286555,13.4120585 25.5235987,13.2019451 25.4935825,12.9768235 L23.1673263,3.29659616 L20.8560783,12.9618154 C20.8260621,13.1869369 20.7210054,13.3970504 20.5709243,13.5621395 C20.390827,13.6822044 20.1807136,13.7272287 19.9706001,13.7122206 L18.6799031,13.7122206 L18.6799031,13.7122206 Z M37.9653173,14.1174394 C37.1848958,14.1174394 36.4044744,14.0273908 35.6540692,13.8472935 C34.903664,13.6671963 34.3183479,13.4720909 33.9281372,13.2469694 C33.7330319,13.1569207 33.5679427,13.0068397 33.462886,12.8267425 C33.4028535,12.6916695 33.3728373,12.5565965 33.3728373,12.4065155 L33.3728373,11.6411022 C33.3728373,11.325932 33.4929021,11.1758509 33.7180237,11.1758509 C33.8080724,11.1758509 33.898121,11.1908591 33.9881696,11.2208753 C34.0782182,11.2508914 34.2132912,11.3109239 34.3633722,11.3709563 C34.8886559,11.611086 35.4439558,11.7761752 36.0142637,11.89624 C36.5995797,12.0163048 37.199904,12.0763372 37.8002282,12.0763372 C38.7457387,12.0763372 39.4811358,11.9112481 39.9914113,11.5810698 C40.4866788,11.2809077 40.7868409,10.7406159 40.7718328,10.1552998 C40.7868409,9.76508916 40.6367598,9.38988656 40.366614,9.10473255 C40.0964681,8.81957854 39.5861925,8.56444082 38.8507954,8.32431111 L36.6746203,7.64894642 C35.5790287,7.30376004 34.768591,6.79348446 34.2733236,6.11811978 C33.7930642,5.4877794 33.5229184,4.73737418 33.5229184,3.94194465 C33.5079103,3.35662858 33.6429832,2.78632061 33.9281372,2.27604506 C34.1982831,1.79578572 34.5584776,1.3755588 35.0087207,1.0453805 C35.4739719,0.685186001 35.9992556,0.430048226 36.5695636,0.264959078 C37.1848958,0.0848618254 37.8152362,-0.00518680087 38.4605847,0.00982130349 C38.790763,0.00982130349 39.1359494,0.0248294079 39.4661277,0.0698537211 C39.8113141,0.114878034 40.1264843,0.174910452 40.4416545,0.234942869 C40.7568247,0.294975287 41.0269706,0.385023913 41.2971164,0.475072539 C41.522238,0.550113061 41.7323515,0.640161687 41.9274568,0.745218418 C42.1075541,0.835267044 42.2576351,0.955331878 42.3777,1.12042102 C42.4827567,1.27050207 42.527781,1.43559122 42.5127729,1.61568847 L42.5127729,2.32106937 C42.5127729,2.63623957 42.392708,2.80132872 42.1675865,2.80132872 C41.9724811,2.77131251 41.7773758,2.71128009 41.5972785,2.62123147 C40.6967923,2.21601264 39.7062574,2.02090729 38.7157225,2.03591539 C37.8602605,2.03591539 37.1848958,2.17098833 36.7196446,2.45614232 C36.2543934,2.7412963 36.0142637,3.17653133 36.0142637,3.79186361 C35.9992556,4.19708242 36.1643448,4.58729314 36.4645068,4.85743902 C36.7646689,5.142593 37.3199688,5.42774698 38.1153983,5.68288476 L40.2465491,6.35824945 C41.3271327,6.70343586 42.1075541,7.18369521 42.5728053,7.79902746 C43.0380566,8.39935164 43.2781862,9.14975685 43.2631781,9.90016206 C43.2781862,10.5004862 43.1431132,11.1008104 42.8729674,11.6411022 C42.6028215,12.1513778 42.2276189,12.6016209 41.7773758,12.9618154 C41.2821084,13.3520261 40.7118003,13.6371801 40.1114762,13.8022692 C39.4211034,14.0123827 38.7007144,14.1174394 37.9653173,14.1174394 L37.9653173,14.1174394 Z"/>
    <path fill="#F90" d="M40.801849,21.4113781 C35.8641827,25.0583475 28.6903088,26.994393 22.5219779,26.994393 C13.8773098,26.994393 6.08810358,23.7976667 0.20492666,18.4847978 C-0.260324575,18.0645709 0.159902348,17.4942629 0.715202209,17.8244412 C7.07863847,21.5164349 14.9278771,23.7526424 23.0472615,23.7526424 C28.9004223,23.7226262 34.6935505,22.536986 40.08146,20.2707622 C40.9069058,19.8955596 41.6122867,20.811054 40.801849,21.4113781 Z"/>
    <path fill="#F90" d="M42.8579593,19.0701139 C42.2276189,18.2596762 38.6857063,18.6799031 37.0798391,18.8750085 C36.5995797,18.9350409 36.5245392,18.514814 36.9597743,18.1996438 C39.7812979,16.218574 44.4188022,16.788882 44.9590939,17.4492386 C45.4993857,18.1095952 44.8090129,22.7621075 42.1675865,24.983307 C41.7623677,25.3284934 41.372157,25.1483961 41.5522542,24.698153 C42.1525784,23.2123506 43.4882997,19.8655434 42.8579593,19.0701139 L42.8579593,19.0701139 Z"/>
  </g>
</svg>
