<svg xmlns="http://www.w3.org/2000/svg" width="50" height="50" viewBox="0 0 50 50">
  <g fill="none" fill-rule="evenodd">
    <rect width="50" height="50" fill="#FFF" fill-opacity=".103"/>
    <g fill-rule="nonzero" transform="translate(4 4)">
      <path fill="#E01E5A" d="M8.85781991,26.5336493 C8.85781991,28.9753555 6.88720379,30.9459716 4.44549763,30.9459716 C2.00379147,30.9459716 0.03317536,28.9687204 0.03317536,26.5336493 C0.03317536,24.0985782 2.00379147,22.121327 4.44549763,22.121327 L8.85781991,22.121327 L8.85781991,26.5336493 Z M11.0606635,26.5336493 C11.0606635,24.0919431 13.0312796,22.121327 15.4729858,22.121327 C17.9146919,22.121327 19.8853081,24.0919431 19.8853081,26.5336493 L19.8853081,37.5611374 C19.8853081,40.0028436 17.9146919,41.9734597 15.4729858,41.9734597 C13.0312796,41.9734597 11.0606635,40.0028436 11.0606635,37.5611374 L11.0606635,26.5336493 Z"/>
      <path fill="#36C5F0" d="M15.4729858,8.82464455 C13.0312796,8.82464455 11.0606635,6.85402844 11.0606635,4.41232227 C11.0606635,1.97061611 13.0312796,1.77635684e-15 15.4729858,1.77635684e-15 C17.9146919,1.77635684e-15 19.8853081,1.97061611 19.8853081,4.41232227 L19.8853081,8.82464455 L15.4729858,8.82464455 Z M15.4729858,11.0606635 C17.9146919,11.0606635 19.8853081,13.0312796 19.8853081,15.4729858 C19.8853081,17.9146919 17.9146919,19.8853081 15.4729858,19.8853081 L4.41232227,19.8853081 C1.97061611,19.8853081 1.77635684e-15,17.9080569 1.77635684e-15,15.4729858 C1.77635684e-15,13.0379147 1.97061611,11.0606635 4.41232227,11.0606635 L15.4729858,11.0606635 Z"/>
      <path fill="#2EB67D" d="M33.1488152,15.4729858 C33.1488152,13.0312796 35.1194313,11.0606635 37.5611374,11.0606635 C40.0028436,11.0606635 41.9734597,13.0312796 41.9734597,15.4729858 C41.9734597,17.9146919 40.0028436,19.8853081 37.5611374,19.8853081 L33.1488152,19.8853081 L33.1488152,15.4729858 Z M30.9459716,15.4729858 C30.9459716,17.9146919 28.9753555,19.8853081 26.5336493,19.8853081 C24.0919431,19.8853081 22.121327,17.9146919 22.121327,15.4729858 L22.121327,4.41232227 C22.121327,1.97061611 24.0919431,1.77635684e-15 26.5336493,1.77635684e-15 C28.9753555,1.77635684e-15 30.9459716,1.97061611 30.9459716,4.41232227 L30.9459716,15.4729858 Z"/>
      <path fill="#ECB22E" d="M26.5336493,33.1488152 C28.9753555,33.1488152 30.9459716,35.1194313 30.9459716,37.5611374 C30.9459716,40.0028436 28.9753555,41.9734597 26.5336493,41.9734597 C24.0919431,41.9734597 22.121327,40.0028436 22.121327,37.5611374 L22.121327,33.1488152 L26.5336493,33.1488152 Z M26.5336493,30.9459716 C24.0919431,30.9459716 22.121327,28.9753555 22.121327,26.5336493 C22.121327,24.0919431 24.0919431,22.121327 26.5336493,22.121327 L37.5943128,22.121327 C40.036019,22.121327 42.0066351,24.0919431 42.0066351,26.5336493 C42.0066351,28.9753555 40.036019,30.9459716 37.5943128,30.9459716 L26.5336493,30.9459716 Z"/>
    </g>
  </g>
</svg>
