<svg xmlns="http://www.w3.org/2000/svg" width="50" height="50" viewBox="0 0 50 50">
  <path fill="#FFF" d="M30.5627397,22.5747945 C29.3024658,17.0126027 26.3238356,15.1835616 26.0032877,14.4849315 C25.6515068,13.9917808 25.2969863,13.1150685 25.2969863,13.1150685 C25.2909589,13.100274 25.2816438,13.0739726 25.2706849,13.0487671 C25.2345205,13.5419178 25.2158904,13.7320548 24.749589,14.2290411 C24.0279452,14.7934247 20.3249315,17.900274 20.0235616,24.219726 C19.7424658,30.1134247 24.2810959,33.6257534 24.8964384,34.0734247 L24.9660274,34.1227397 L24.9660274,34.1183562 C24.969863,34.1479452 25.1605479,35.5210959 25.2947945,36.9764384 L25.7753425,36.9764384 C25.8884355,35.9478428 26.057822,34.9262192 26.2827397,33.9161644 L26.32,33.8909589 C26.5945118,33.6940846 26.8562271,33.4799539 27.1035616,33.249863 L27.1315068,33.2246575 C28.4361644,32.0191781 30.7819178,29.2312329 30.7589041,24.7863014 C30.7542314,24.0450023 30.6886223,23.3053421 30.5627397,22.5747945 L30.5627397,22.5747945 Z M25.2427397,30.7457534 C25.2427397,30.7457534 25.2427397,22.4794521 25.5167123,22.4810959 C25.7293151,22.4810959 26.0049315,33.1435616 26.0049315,33.1435616 C25.6252055,33.0980822 25.2427397,31.3890411 25.2427397,30.7457534 Z"/>
</svg>
