<svg xmlns="http://www.w3.org/2000/svg" width="50" height="50" viewBox="0 0 50 50">
  <path fill="#FFF" d="M25.125,13 C34.0305916,13 41.25,18.372583 41.25,25 C41.25,31.627417 34.0305916,37 25.125,37 C16.2194084,37 9,31.627417 9,25 C9,18.372583 16.2194084,13 25.125,13 Z M26.3623571,16 L26.2185152,16.0068372 C25.4611179,16.0792109 24.8687752,16.7172219 24.8687752,17.4935819 L24.8687752,17.4935819 L24.8688746,22.0404873 C23.7851912,21.3006809 22.4400992,20.875993 20.9396979,20.875993 C17.1090825,20.875993 14.25,23.6844225 14.25,27.4379965 C14.25,31.1915705 17.1090825,34 20.9396979,34 C23.5025816,34 25.6123168,32.7608817 26.7401217,30.8287211 L26.7401217,30.8287211 L26.819709,30.908123 C28.0105306,32.0548773 29.6663402,32.7406656 31.5593876,32.7406656 C35.4182885,32.7406656 38.25,29.9318522 38.25,26.1777651 C38.25,22.4236779 35.4182885,19.6148646 31.5593876,19.6148646 C29.8386686,19.6148646 28.3139608,20.1814781 27.1563066,21.1458616 C27.0858089,21.2045898 27.1563066,19.0745488 27.1563066,17.0198982 C27.1563066,16.314266 26.6261283,16 26.3623571,16 L26.3623571,16 Z M20.845,23.8807374 C22.9732258,23.8807374 24.47,25.4367938 24.47,27.4530922 C24.47,29.4255581 22.9732258,31.025447 20.845,31.025447 C18.7167742,31.025447 17.22,29.4255581 17.22,27.4530922 C17.22,25.4367938 18.7167742,23.8807374 20.845,23.8807374 Z M31.875,22.6981648 C34.0032258,22.6981648 35.5,24.2542212 35.5,26.2705196 C35.5,28.2429854 34.0032258,29.8428744 31.875,29.8428744 C29.7467742,29.8428744 28.25,28.2429854 28.25,26.2705196 C28.25,24.2542212 29.7467742,22.6981648 31.875,22.6981648 Z M15.4926377,17.2247221 L14.7077293,17.2247221 C14.4648764,17.2247221 14.2680052,17.4187341 14.2680052,17.6580601 L14.2680052,17.6580601 L14.2680052,22.3832393 C14.2680052,22.4865465 14.3000048,22.5873176 14.3596047,22.671699 C14.5189166,22.8972524 14.8309116,22.9509517 15.056465,22.7916398 L15.056465,22.7916398 L15.8840398,22.2071107 C16.282011,21.9260173 16.5186606,21.4691408 16.5186606,20.9819092 L16.5186606,20.9819092 L16.5186606,18.2358443 C16.5186606,17.6774169 16.0592945,17.2247221 15.4926377,17.2247221 L15.4926377,17.2247221 Z"/>
</svg>
