<svg xmlns="http://www.w3.org/2000/svg" width="50" height="50" viewBox="0 0 50 50">
  <g fill="none" fill-rule="evenodd" transform="translate(9 10)">
    <polyline fill="#FFFFFE" points="31.054 .125 10.489 .125 10.489 10.408 .206 10.408 .206 30.973 20.771 30.973 20.771 20.691 31.054 20.691 31.054 .125"/>
    <polyline fill="#A7DAE7" points="20.771 30.973 10.489 30.973 10.489 20.691 .206 20.691 .206 10.408 10.489 10.408 10.489 20.691 20.771 20.691 20.771 30.973"/>
    <polygon fill="#3A75AD" points=".206 30.973 10.489 30.973 10.489 20.691 .206 20.691"/>
    <polyline fill="#00B0D4" points="31.054 20.691 20.771 20.691 20.771 10.408 10.489 10.408 10.489 .125 20.771 .125 20.771 10.408 31.054 10.408 31.054 20.691"/>
    <polygon fill="#00B0D4" points="10.489 20.691 20.771 20.691 20.771 10.408 10.489 10.408"/>
    <polygon fill="#3A75AD" points="20.771 10.408 31.054 10.408 31.054 .125 20.771 .125"/>
  </g>
</svg>
