<svg xmlns="http://www.w3.org/2000/svg" xmlns:xlink="http://www.w3.org/1999/xlink" width="50" height="50" viewBox="0 0 50 50">
  <defs>
    <polygon id="icon-wordpress-color-a" points="0 0 31.987 0 31.987 31.988 0 31.988"/>
  </defs>
  <g fill="none" fill-rule="evenodd">
    <rect width="50" height="50" fill="#135E96"/>
    <g transform="translate(9 9)">
      <mask id="icon-wordpress-color-b" fill="#fff">
        <use xlink:href="#icon-wordpress-color-a"/>
      </mask>
      <g fill="#FFF" fill-rule="nonzero" mask="url(#icon-wordpress-color-b)">
        <path d="M2.27341692,15.9933415 C2.27341692,21.4244463 5.42953841,26.1174974 10.0061508,28.3418407 L3.46130789,10.4095089 C2.67672935,12.1664261 2.27194055,14.0692003 2.27341692,15.9933415 Z M25.2562171,15.3009755 C25.2562171,13.6053054 24.6471333,12.4309982 24.1247259,11.5169812 C23.4292271,10.3867955 22.7775885,9.42970126 22.7775885,8.29951558 C22.7775885,7.03827119 23.7338994,5.86422521 25.081298,5.86422521 C25.1421281,5.86422521 25.1998252,5.87179634 25.2593499,5.87519029 C22.8180549,3.63883764 19.5658665,2.27342504 15.9938636,2.27342504 C11.2005605,2.27342504 6.98344583,4.73273416 4.53014139,8.45772594 C4.85204459,8.46738568 5.15567267,8.47391246 5.4130908,8.47391246 C6.84820994,8.47391246 9.06968145,8.29977669 9.06968145,8.29977669 C9.80930164,8.25617745 9.89650011,9.34250286 9.15792411,9.42996236 C9.15792411,9.42996236 8.41438781,9.51742187 7.58730804,9.56076 L12.5837261,24.4223494 L15.5865895,15.4171531 L13.4486614,9.56049897 C12.7098244,9.51716076 12.0098873,9.42970126 12.0098873,9.42970126 C11.2705281,9.38636312 11.3572044,8.25591642 12.0965636,8.29951558 C12.0965636,8.29951558 14.3624174,8.47365143 15.7105992,8.47365143 C17.1454573,8.47365143 19.3671899,8.29951558 19.3671899,8.29951558 C20.1073323,8.25591642 20.1942696,9.34224175 19.4551715,9.42970126 C19.4551715,9.42970126 18.7103298,9.51716076 17.8848165,9.56049897 L22.8431179,24.3095658 L24.2114023,19.7363473 C24.8048216,17.8386066 25.2562171,16.4755436 25.2562171,15.3009755 L25.2562171,15.3009755 Z"/>
        <path d="M16.2345731,17.1934948 L12.1179716,29.1553446 C13.3765221,29.5262478 14.681797,29.7145633 15.9938636,29.7145633 C17.5916313,29.7145633 19.1238697,29.4380869 20.5501123,28.9368264 C20.511854,28.8769389 20.4791699,28.8136682 20.452471,28.7478094 L16.2345731,17.1934948 Z M28.0329911,9.41064297 C28.0919937,9.84767939 28.125411,10.3170889 28.125411,10.8214823 C28.125411,12.2137854 27.8653822,13.778919 27.0821627,15.7359234 L22.8911554,27.8531117 C26.9701623,25.4744742 29.7138144,21.0552889 29.7138144,15.9933415 C29.7174392,13.6924978 29.1392568,11.4280848 28.0329911,9.41064297 L28.0329911,9.41064297 Z"/>
        <path d="M15.9938636,0 C7.17507352,0 0,7.17455138 0,15.9933415 C0,24.8131759 7.17481245,31.9877272 15.9938636,31.9877272 C24.8123927,31.9877272 31.9885105,24.813437 31.9885105,15.9933415 C31.9885105,7.17455138 24.8123927,0 15.9938636,0 Z M15.9938636,31.2543728 C7.57947584,31.2543728 0.733354493,24.4082514 0.733354493,15.9933415 C0.733354493,7.57921477 7.57921477,0.733615566 15.9938636,0.733615566 C24.4079903,0.733615566 31.2535896,7.57921477 31.2535896,15.9933415 C31.2535896,24.4082514 24.4077293,31.2543728 15.9938636,31.2543728 Z"/>
      </g>
    </g>
  </g>
</svg>
