<svg xmlns="http://www.w3.org/2000/svg" width="50" height="50" viewBox="0 0 50 50">
  <path fill="#FFF" d="M17.896725 3.6405L17.89785 3.63825C16.040475 1.41525 13.248225 0 10.12485 0 6.150225 0 2.712225 2.292 1.0551 5.625L14.2521 5.625C15.198975 5.625 16.120725 5.29875 16.845225 4.689 17.221725 4.372125 17.57385 4.027125 17.896725 3.6405M0 10.1251875C0 11.0334375.1215 11.9128125.34575 12.7501875L12.75 12.7501875C14.19975 12.7501875 15.375 11.5749375 15.375 10.1251875 15.375 8.6754375 14.19975 7.5001875 12.75 7.5001875L.34575 7.5001875C.1215 8.3375625 0 9.2169375 0 10.1251875M17.896725 16.609875L17.89785 16.612125C16.040475 18.835125 13.248225 20.250375 10.12485 20.250375 6.150225 20.250375 2.712225 17.958375 1.0551 14.625375L14.2521 14.625375C15.198975 14.625375 16.120725 14.951625 16.845225 15.561375 17.221725 15.87825 17.57385 16.22325 17.896725 16.609875" transform="translate(16.25 14.875)"/>
</svg>
