<svg xmlns="http://www.w3.org/2000/svg" xmlns:xlink="http://www.w3.org/1999/xlink" width="50" height="50" viewBox="0 0 50 50">
  <defs>
    <polygon id="icon-varnish-a" points="13 13.062 36.87 13.062 36.87 36.987 13 36.987"/>
  </defs>
  <g fill="none" fill-rule="evenodd">
    <mask id="icon-varnish-b" fill="#fff">
      <use xlink:href="#icon-varnish-a"/>
    </mask>
    <path fill="#FFF" d="M25.9954495 20.5712294C27.0463853 23.4809541 30.2593028 24.9885505 33.1690275 23.9369541 36.0798532 22.8851376 37.5859083 19.6735413 36.5354128 16.7633761 35.4833761 13.8525505 32.2717798 12.3449541 29.3609541 13.3965505 26.4512294 14.4481468 24.9438532 17.6604037 25.9954495 20.5712294M18.8634862 30.9612477C17.7638899 32.9070092 18.4497615 35.3759266 20.3948624 36.4746422 22.3404037 37.5757798 24.8102018 36.8890275 25.9093578 34.9437064 27.0085138 32.9975046 26.3230826 30.5292477 24.3771009 29.4294312 22.432 28.3302752 19.9626422 29.0154862 18.8634862 30.9612477M13.0466789 23.1068624C12.7912661 24.3755596 13.6116697 25.6105688 14.8794862 25.8666422 16.1481835 26.1224954 17.3840734 25.3025321 17.6394862 24.0347156 17.8957798 22.7662385 17.0753761 21.5301284 15.8071193 21.274055 14.538422 21.0175413 13.3029725 21.8383853 13.0466789 23.1068624" mask="url(#icon-varnish-b)"/>
  </g>
</svg>
