<svg xmlns="http://www.w3.org/2000/svg" width="28" height="21" viewBox="0 0 28 21">
  <path fill="#FFF" d="M21.0481494,15.8118726 L24.5240746,15.8118726 L24.5240746,7.47053689 L20.6079266,3.55652554 L18.1500164,6.01309472 L21.0481494,8.90964644 L21.0481494,15.8118726 L21.0481494,15.8118726 Z M24.533246,17.5534701 L19.4706846,17.5534701 L12.4087783,17.5534701 L9.51064527,14.6569183 L10.7396004,13.4286338 L13.1333115,15.8210389 L18.0583033,15.8210389 L13.2066819,10.9628983 L14.4448084,9.7254474 L19.2964297,14.5744217 L19.2964297,9.65211698 L16.91189,7.26887822 L18.1316738,6.04975993 L12.1061252,0 L6.16311825,0 L6.16311825,0 L0,0 L3.46675401,3.46486251 L3.46675401,3.4740288 L3.48509663,3.4740288 L10.6570586,3.4740288 L13.1975106,6.01309472 L9.48313135,9.7254474 L6.94267933,7.18638149 L6.94267933,5.21562636 L3.46675401,5.21562636 L3.46675401,8.62549105 L9.48313135,14.6385857 L7.0343924,17.0859887 L10.9505405,21 L16.8935473,21 L28,21 L28,21 L24.533246,17.5534701 L24.533246,17.5534701 Z"/>
</svg>
