<svg xmlns="http://www.w3.org/2000/svg" width="50" height="50" viewBox="0 0 50 50">
  <g fill="none" fill-rule="evenodd">
    <rect width="50" height="50" fill="#FFF" fill-opacity=".103"/>
    <g fill-rule="nonzero" transform="translate(9 9)">
      <path fill="#E01E5A" d="M6.74881517,20.2161138 C6.74881517,22.0764613 5.24739336,23.5778831 3.38704581,23.5778831 C1.52669826,23.5778831 0.0252764648,22.071406 0.0252764648,20.2161138 C0.0252764648,18.3608215 1.52669826,16.8543444 3.38704581,16.8543444 L6.74881517,16.8543444 L6.74881517,20.2161138 Z M8.42717219,20.2161138 C8.42717219,18.3557662 9.92859398,16.8543444 11.7889416,16.8543444 C13.6492891,16.8543444 15.1507109,18.3557662 15.1507109,20.2161138 L15.1507109,28.6180094 C15.1507109,30.478357 13.6492891,31.9797788 11.7889416,31.9797788 C9.92859398,31.9797788 8.42717219,30.478357 8.42717219,28.6180094 L8.42717219,20.2161138 Z"/>
      <path fill="#36C5F0" d="M11.7889416,6.7235387 C9.92859398,6.7235387 8.42717219,5.22211691 8.42717219,3.36176935 C8.42717219,1.5014218 9.92859398,1.77635684e-15 11.7889416,1.77635684e-15 C13.6492891,1.77635684e-15 15.1507109,1.5014218 15.1507109,3.36176935 L15.1507109,6.7235387 L11.7889416,6.7235387 Z M11.7889416,8.42717219 C13.6492891,8.42717219 15.1507109,9.92859398 15.1507109,11.7889416 C15.1507109,13.6492891 13.6492891,15.1507109 11.7889416,15.1507109 L3.36176935,15.1507109 C1.5014218,15.1507109 1.77635684e-15,13.6442338 1.77635684e-15,11.7889416 C1.77635684e-15,9.9336493 1.5014218,8.42717219 3.36176935,8.42717219 L11.7889416,8.42717219 Z"/>
      <path fill="#2EB67D" d="M25.2562402,11.7889416 C25.2562402,9.92859398 26.7576619,8.42717219 28.6180094,8.42717219 C30.478357,8.42717219 31.9797788,9.92859398 31.9797788,11.7889416 C31.9797788,13.6492891 30.478357,15.1507109 28.6180094,15.1507109 L25.2562402,15.1507109 L25.2562402,11.7889416 Z M23.5778831,11.7889416 C23.5778831,13.6492891 22.0764613,15.1507109 20.2161138,15.1507109 C18.3557662,15.1507109 16.8543444,13.6492891 16.8543444,11.7889416 L16.8543444,3.36176935 C16.8543444,1.5014218 18.3557662,1.77635684e-15 20.2161138,1.77635684e-15 C22.0764613,1.77635684e-15 23.5778831,1.5014218 23.5778831,3.36176935 L23.5778831,11.7889416 Z"/>
      <path fill="#ECB22E" d="M20.2161138,25.2562402 C22.0764613,25.2562402 23.5778831,26.7576619 23.5778831,28.6180094 C23.5778831,30.478357 22.0764613,31.9797788 20.2161138,31.9797788 C18.3557662,31.9797788 16.8543444,30.478357 16.8543444,28.6180094 L16.8543444,25.2562402 L20.2161138,25.2562402 Z M20.2161138,23.5778831 C18.3557662,23.5778831 16.8543444,22.0764613 16.8543444,20.2161138 C16.8543444,18.3557662 18.3557662,16.8543444 20.2161138,16.8543444 L28.6432859,16.8543444 C30.5036335,16.8543444 32.0050553,18.3557662 32.0050553,20.2161138 C32.0050553,22.0764613 30.5036335,23.5778831 28.6432859,23.5778831 L20.2161138,23.5778831 Z"/>
    </g>
  </g>
</svg>
