<svg xmlns="http://www.w3.org/2000/svg" width="50" height="50" viewBox="0 0 50 50">
  <g fill="#2A2F45" transform="translate(5 4)">
    <path d="M39.6117647,27.0117647 C39.3647059,26.4352941 38.7882353,26.0235294 38.1294118,25.8588235 C37.8823529,24.7882353 37.5529412,24.2941176 37.5529412,24.2117647 C37.6352941,24.0470588 37.8,23.9647059 37.8,23.8823529 C38.7882353,22.7294118 38.1294118,21 36.4823529,20.5882353 C35.5764706,19.6823529 34.7529412,19.2705882 34.0117647,18.9411765 C33.3529412,18.6117647 33.6,18.7764706 33.0235294,18.4470588 C32.8588235,17.6235294 32.7764706,15.8117647 32.5294118,14.4941176 C32.2823529,13.3411765 31.7882353,12.4352941 31.1294118,11.9411765 C30.8,11.2823529 30.4705882,10.7058824 29.9764706,10.2117647 C32.2823529,6.75294118 32.8588235,3.29411765 31.2117647,1.48235294 C30.4705882,0.658823529 29.4,0.329411765 28.0823529,0.329411765 C26.1882353,0.329411765 23.9647059,1.07058824 21.6588235,2.47058824 C21.6588235,2.47058824 20.1764706,1.23529412 20.0941176,1.23529412 C13.6705882,-3.78823529 -4.52941176,18.5294118 1.89411765,23.3882353 L3.54117647,24.6235294 C2.47058824,27.5058824 3.95294118,30.9647059 7,32.0352941 C7.65882353,32.2823529 8.4,32.3647059 9.14117647,32.3647059 C9.14117647,32.3647059 14,41.2588235 24.2941176,41.2588235 C36.1529412,41.2588235 39.2,29.6470588 39.2,29.5647059 C39.1176471,29.6470588 40.1058824,28.1647059 39.6117647,27.0117647 Z M2.30588235,21.9058824 C1.07058824,19.6823529 3.29411765,15.2352941 4.94117647,12.6 C8.89411765,6.25882353 15.5647059,1.23529412 18.6117647,1.97647059 L19.4352941,1.64705882 C19.4352941,1.64705882 21.6588235,3.54117647 21.7411765,3.54117647 C23.3058824,2.63529412 25.2823529,1.64705882 27.0941176,1.48235294 C25.9411765,1.72941176 24.6235294,2.30588235 22.9764706,3.29411765 C22.9764706,3.29411765 19.1058824,5.92941176 16.8,8.23529412 C15.5647059,9.47058824 10.4588235,15.6470588 10.4588235,15.5647059 C11.3647059,13.8352941 12.0235294,12.9294118 13.5058824,11.1176471 C14.3294118,10.0470588 15.2352941,9.05882353 16.1411765,8.07058824 C16.5529412,7.65882353 16.9647059,7.24705882 17.4588235,6.83529412 C17.7882353,6.58823529 18.0352941,6.25882353 18.3647059,6.01176471 C18.5294118,5.92941176 18.6117647,5.76470588 18.7764706,5.68235294 C18.7764706,5.68235294 18.7764706,5.68235294 18.7764706,5.68235294 L15.8117647,3.21176471 L15.9764706,4.28235294 L18.1176471,6.17647059 C18.1176471,6.17647059 16.2235294,7.49411765 15.2352941,8.31764706 C11.3647059,11.6117647 7.65882353,16.6352941 6.25882353,21.4941176 L6.34117647,21.4941176 C5.68235294,21.9058824 4.94117647,22.4823529 4.36470588,23.3058824 C4.11764706,23.3882353 2.55294118,22.3176471 2.30588235,21.9058824 Z M8.64705882,31.0470588 C6.34117647,31.0470588 4.52941176,29.0705882 4.52941176,26.6823529 C4.52941176,24.2941176 6.42352941,22.3176471 8.64705882,22.3176471 C9.22352941,22.3176471 9.8,22.4823529 10.2941176,22.6470588 C10.2941176,22.6470588 11.2,23.0588235 11.4470588,25.2 C11.4470588,25.2 11.4470588,25.2 11.4470588,25.2 C11.4470588,25.2 11.4470588,25.2 11.4470588,25.2 C11.6941176,24.5411765 11.8588235,23.9647059 11.8588235,23.9647059 C12.1882353,24.8705882 12.2705882,25.8588235 12.2705882,26.7647059 L12.2705882,26.7647059 L12.2705882,26.7647059 C12.5176471,26.4352941 12.7647059,25.8588235 12.7647059,25.8588235 C13.2588235,28.6588235 11.2823529,31.0470588 8.64705882,31.0470588 Z M13.7529412,15.6470588 L13.7529412,15.6470588 C13.7529412,15.6470588 15.5647059,12.2705882 19.4352941,9.96470588 C19.1058824,9.88235294 18.4470588,10.0470588 18.2823529,10.0470588 C19.0235294,9.47058824 20.3411765,9.05882353 21.2470588,8.81176471 C21,8.64705882 20.3411765,8.56470588 20.0117647,8.56470588 C19.9294118,8.56470588 19.9294118,8.56470588 19.8470588,8.56470588 C20.6705882,8.07058824 22.3176471,7.82352941 23.7176471,8.07058824 C23.5529412,7.82352941 23.1411765,7.65882353 22.8117647,7.57647059 C22.8117647,7.57647059 22.6470588,7.57647059 22.6470588,7.57647059 C22.6470588,7.57647059 22.7294118,7.57647059 22.7294118,7.57647059 C23.6352941,7.41176471 24.6235294,7.57647059 25.4470588,7.90588235 C25.3647059,7.65882353 25.1176471,7.41176471 24.9529412,7.24705882 C24.9529412,7.24705882 24.8705882,7.16470588 24.8705882,7.16470588 C25.6941176,7.32941176 26.5176471,7.74117647 27.1764706,8.15294118 C27.0941176,7.98823529 26.9294118,7.74117647 26.7647059,7.57647059 C27.5882353,7.82352941 28.4941176,8.4 28.9058824,9.22352941 L28.9058824,9.22352941 C28.9058824,9.22352941 28.9058824,9.30588235 28.9058824,9.30588235 C28.9058824,9.30588235 28.9058824,9.30588235 28.9058824,9.30588235 C27.3411765,8.15294118 22.8941176,8.48235294 18.4470588,11.3647059 C16.4705882,12.6823529 14.9058824,14.0823529 13.7529412,15.6470588 Z M37.9647059,29.0705882 C37.8823529,29.1529412 37.3882353,32.2 34.0941176,34.7529412 C30.0588235,37.9647059 24.7058824,37.6352941 22.6470588,35.8235294 C21.5764706,34.8352941 21.0823529,33.3529412 21.0823529,33.3529412 C21.0823529,33.3529412 21,34.1764706 20.9176471,34.5058824 C20.0941176,33.1058824 20.1764706,31.4588235 20.1764706,31.4588235 C20.1764706,31.4588235 19.7647059,32.2823529 19.5176471,32.6941176 C18.9411765,31.1294118 19.1882353,29.5647059 19.1882353,29.5647059 L18.6941176,30.3058824 C18.6941176,30.3058824 18.4470588,28.5764706 19.0235294,27.1764706 C19.6,25.6117647 20.7529412,24.5411765 21,24.3764706 C20.1764706,24.1294118 19.1882353,23.3058824 19.1882353,23.3058824 C19.1882353,23.3058824 19.6,23.3058824 19.8470588,23.3058824 C19.8470588,23.3058824 18.1176471,22.0705882 17.7882353,20.1764706 C18.0352941,20.5058824 18.5294118,20.8352941 18.5294118,20.8352941 C18.3647059,20.3411765 18.2823529,19.2705882 18.4470588,18.1176471 L18.4470588,18.1176471 C18.7764706,16.0588235 20.5058824,14.6588235 22.4,14.6588235 C24.4588235,14.6588235 25.8588235,15.0705882 27.5882353,13.5058824 C27.9176471,13.1764706 28.2470588,12.8470588 28.7411765,12.7647059 C28.8235294,12.7647059 28.9058824,12.6823529 29.2352941,12.6823529 C29.4823529,12.6823529 29.8117647,12.7647059 30.0588235,12.9294118 C30.9647059,13.5058824 31.2117647,14.9882353 31.2941176,16.0588235 C31.7058824,20.0117647 31.5411765,19.3529412 33.1058824,20.1764706 C33.8470588,20.5882353 34.7529412,20.9176471 35.7411765,21.9882353 C35.7411765,21.9882353 35.7411765,21.9882353 35.7411765,21.9882353 C35.7411765,21.9882353 35.7411765,21.9882353 35.7411765,21.9882353 C36.5647059,21.9882353 36.9764706,22.6470588 36.6470588,23.1411765 C33.8470588,26.4352941 29.9764706,28 25.6941176,28.1647059 C25.5294118,28.1647059 25.1176471,28.1647059 25.1176471,28.1647059 C23.3882353,28.2470588 22.8117647,30.4705882 23.8823529,31.7882353 C24.5411765,32.6117647 25.9411765,32.9411765 27.0117647,32.9411765 L27.0117647,32.9411765 C31.7058824,33.0235294 36.4823529,29.7294118 37.3058824,27.8352941 C37.3058824,27.8352941 37.3882353,27.6705882 37.3882353,27.6705882 C37.2235294,27.9176471 32.6117647,32.2 27.0117647,32.0352941 C27.0117647,32.0352941 26.4352941,32.0352941 25.8588235,31.8705882 C25.1176471,31.7058824 24.5411765,31.3764706 24.2941176,30.6352941 C24.7882353,30.7176471 25.3647059,30.8 26.0235294,30.8 C30.0588235,30.8 32.9411765,28.9882353 32.6941176,28.9058824 C32.6941176,28.9058824 32.6941176,28.9058824 32.6117647,28.9058824 C32.1176471,28.9882353 27.2588235,30.8823529 24.2117647,29.8941176 C24.2117647,29.8117647 24.2117647,29.7294118 24.2941176,29.6470588 C24.5411765,28.7411765 25.0352941,28.8235294 25.8588235,28.8235294 L25.8588235,28.8235294 C28.6588235,28.7411765 30.8823529,28 32.6117647,27.2588235 C34.4235294,26.4352941 35.8235294,25.2823529 36.3176471,24.7058824 C36.9764706,25.7764706 36.9764706,27.1764706 36.9764706,27.1764706 C36.9764706,27.1764706 37.2235294,27.0941176 37.5529412,27.0941176 C38.5411765,27.1764706 38.7058824,28.0823529 37.9647059,29.0705882 Z"/>
    <polygon points="18.447 3.459 19.024 3.624 18.529 1.976 18.282 2.8"/>
    <path d="M20.9176471 4.03529412L20.0117647 3.29411765 20.3411765 4.44705882C20.5058824 4.28235294 20.6705882 4.2 20.9176471 4.03529412zM29.2352941 18.7764706C29.7294118 18.7764706 30.1411765 18.8588235 30.5529412 19.0235294 30.5529412 17.8705882 29.8941176 16.6352941 29.4 16.8L29.4 16.8C29.4 16.8 29.4 16.8 29.4 16.8L29.4 16.8C29.0705882 16.8823529 29.0705882 17.3764706 29.0705882 17.7058824 29.0705882 18.1176471 29.0705882 18.4470588 29.2352941 18.7764706zM19.9294118 4.69411765L18.0352941 4.11764706 19.2705882 5.18823529C19.5176471 5.02352941 19.6823529 4.85882353 19.9294118 4.69411765zM24.7882353 20.4235294C25.2 20.5882353 25.4470588 20.6705882 25.4470588 20.5882353 25.4470588 20.5882353 25.4470588 20.4235294 25.3647059 20.3411765 25.1176471 20.0117647 24.7058824 19.6823529 24.2941176 19.6 23.3882353 19.2705882 22.3176471 19.4352941 21.5764706 20.0941176 21.1647059 20.4235294 21 20.7529412 21.1647059 20.7529412 21.2470588 20.7529412 21.4941176 20.6705882 21.8235294 20.5882353 23.1411765 20.0117647 23.8 20.0117647 24.7882353 20.4235294zM24.8705882 21.4941176C25.1176471 21.4941176 25.2823529 21.4941176 25.2823529 21.4941176 25.3647059 21.3294118 24.7882353 20.9176471 23.8823529 21 23.8 21 23.7176471 21.0823529 23.5529412 21.0823529 23.5529412 21.0823529 23.4705882 21.0823529 23.4705882 21.0823529 23.3058824 21.1647059 23.0588235 21.2470588 22.8941176 21.4117647 22.7294118 21.5764706 22.6470588 21.7411765 22.7294118 21.8235294 22.8117647 21.9058824 22.8941176 21.8235294 23.1411765 21.7411765 23.8823529 21.4941176 24.3764706 21.4941176 24.8705882 21.4941176zM10.1294118 25.2C10.3764706 25.5294118 10.2941176 25.6941176 10.3764706 25.7764706 10.3764706 25.7764706 10.4588235 25.8588235 10.5411765 25.7764706 10.7058824 25.6941176 10.7058824 25.5294118 10.7058824 25.3647059L10.7058824 25.3647059C10.7058824 25.3647059 10.7058824 25.3647059 10.7058824 25.3647059L10.7058824 25.3647059C10.7058824 25.0352941 10.5411765 24.6235294 10.2941176 24.3764706 10.2941176 24.3764706 10.2941176 24.3764706 10.2941176 24.3764706L10.2941176 24.3764706C9.96470588 24.0470588 9.55294118 23.7176471 8.97647059 23.6352941 8.48235294 23.5529412 7.98823529 23.6352941 7.90588235 23.7176471L7.90588235 23.7176471C7.82352941 23.7176471 7.74117647 23.7176471 7.65882353 23.8 6.34117647 24.2941176 5.76470588 25.6117647 6.01176471 26.8470588 6.09411765 27.1764706 6.25882353 27.5058824 6.42352941 27.7529412L6.42352941 27.7529412C6.42352941 27.7529412 6.42352941 27.7529412 6.42352941 27.7529412L6.42352941 27.7529412C6.67058824 28.0823529 7 28 6.83529412 27.7529412 6.83529412 27.6705882 6.67058824 27.3411765 6.58823529 26.8470588 6.58823529 26.2705882 6.67058824 25.6941176 7.08235294 25.2 7.32941176 24.8705882 7.65882353 24.7058824 7.74117647 24.7058824L7.74117647 24.7058824C7.82352941 24.7058824 7.82352941 24.6235294 7.90588235 24.6235294 7.90588235 24.6235294 7.98823529 24.6235294 7.98823529 24.6235294 8.15294118 24.5411765 8.07058824 24.6235294 8.23529412 24.5411765L8.23529412 24.5411765C9.22352941 24.3764706 9.88235294 24.7882353 10.1294118 25.2z"/>
    <path d="M9.71764706,26.1882353 C9.63529412,26.1058824 9.55294118,26.0235294 9.55294118,25.9411765 C9.55294118,25.7764706 9.55294118,25.6941176 9.71764706,25.6117647 C9.8,25.5294118 9.88235294,25.5294118 9.88235294,25.4470588 C9.88235294,25.3647059 9.55294118,25.2823529 9.22352941,25.5294118 C8.97647059,25.7764706 8.97647059,26.2705882 9.30588235,26.6 C9.71764706,27.0117647 10.2941176,27.0941176 10.3764706,27.5882353 C10.3764706,27.6705882 10.3764706,27.7529412 10.3764706,27.8352941 C10.3764706,27.9176471 10.3764706,28.0823529 10.3764706,28.0823529 C10.2941176,28.5764706 9.8,29.0705882 8.97647059,28.9058824 C8.81176471,28.9058824 8.72941176,28.9058824 8.72941176,28.9058824 C8.64705882,28.9882353 8.97647059,29.4 9.63529412,29.3176471 C10.5411765,29.3176471 11.2,28.4117647 11.0352941,27.4235294 C10.9529412,26.6 10.0470588,26.4352941 9.71764706,26.1882353 Z"/>
    <ellipse cx="30.511" cy="20.612" rx="1" ry="1" transform="rotate(-81.136 30.511 20.612)"/>
    <ellipse cx="28.574" cy="21.262" rx="1" ry="1" transform="rotate(-61.277 28.574 21.262)"/>
  </g>
</svg>
