<svg xmlns="http://www.w3.org/2000/svg" xmlns:xlink="http://www.w3.org/1999/xlink" width="635" height="1072" viewBox="0 0 635 1072">
  <defs>
    <path id="mobile-view-b" d="M69.2249004,-2.79676883e-15 L365.7751,2.79676883e-15 C389.846106,-1.62500323e-15 398.574834,2.5062915 407.374834,7.212583 C416.174834,11.9188745 423.081125,18.825166 427.787417,27.625166 C432.493708,36.425166 435,45.1538944 435,69.2249004 L435,802.7751 C435,826.846106 432.493708,835.574834 427.787417,844.374834 C423.081125,853.174834 416.174834,860.081125 407.374834,864.787417 C398.574834,869.493708 389.846106,872 365.7751,872 L69.2249004,872 C45.1538944,872 36.425166,869.493708 27.625166,864.787417 C18.825166,860.081125 11.9188745,853.174834 7.212583,844.374834 C2.5062915,835.574834 1.08333549e-15,826.846106 -1.86451255e-15,802.7751 L1.86451255e-15,69.2249004 C-1.08333549e-15,45.1538944 2.5062915,36.425166 7.212583,27.625166 C11.9188745,18.825166 18.825166,11.9188745 27.625166,7.212583 C36.425166,2.5062915 45.1538944,1.62500323e-15 69.2249004,-2.79676883e-15 Z"/>
    <filter id="mobile-view-a" width="132.6%" height="116.3%" x="-16.3%" y="-7%" filterUnits="objectBoundingBox">
      <feOffset dy="10" in="SourceAlpha" result="shadowOffsetOuter1"/>
      <feGaussianBlur in="shadowOffsetOuter1" result="shadowBlurOuter1" stdDeviation="22"/>
      <feColorMatrix in="shadowBlurOuter1" values="0 0 0 0 0   0 0 0 0 0   0 0 0 0 0  0 0 0 0.04 0"/>
    </filter>
    <filter id="mobile-view-c" width="125.3%" height="112.6%" x="-12.6%" y="-5.2%" filterUnits="objectBoundingBox">
      <feGaussianBlur in="SourceAlpha" result="shadowBlurInner1" stdDeviation="11"/>
      <feOffset in="shadowBlurInner1" result="shadowOffsetInner1"/>
      <feComposite in="shadowOffsetInner1" in2="SourceAlpha" k2="-1" k3="1" operator="arithmetic" result="shadowInnerInner1"/>
      <feColorMatrix in="shadowInnerInner1" result="shadowMatrixInner1" values="0 0 0 0 0   0 0 0 0 0   0 0 0 0 0  0 0 0 0.12 0"/>
      <feGaussianBlur in="SourceAlpha" result="shadowBlurInner2" stdDeviation="2"/>
      <feOffset in="shadowBlurInner2" result="shadowOffsetInner2"/>
      <feComposite in="shadowOffsetInner2" in2="SourceAlpha" k2="-1" k3="1" operator="arithmetic" result="shadowInnerInner2"/>
      <feColorMatrix in="shadowInnerInner2" result="shadowMatrixInner2" values="0 0 0 0 0   0 0 0 0 0   0 0 0 0 0  0 0 0 0.06 0"/>
      <feMerge>
        <feMergeNode in="shadowMatrixInner1"/>
        <feMergeNode in="shadowMatrixInner2"/>
      </feMerge>
    </filter>
    <path id="mobile-view-d" d="M43.999999,2.47268872e-12 C63.0540358,2.47268872e-12 82.1080726,2.47268872e-12 101.162109,2.47268872e-12 C111.658203,2.47268872e-12 111.658203,23.7167969 130.978516,23.7167969 C130.978516,23.7167969 241.105469,23.7167969 241.105469,23.7167969 C259.142578,23.7167969 259.142578,2.47268872e-12 270.662109,2.47268872e-12 C290.774739,2.47268872e-12 310.887369,2.47268872e-12 330.999999,2.47268872e-12 C355.300528,2.46822479e-12 374.999999,19.699471 374.999999,44 L374.999999,755.594526 C374.999999,775.207938 372.957836,782.320235 369.123079,789.490605 C365.288323,796.660976 359.660975,802.288324 352.490604,806.123081 C345.320234,809.957837 338.207937,812 318.594525,812 L56.4054734,812 C36.7920611,812 29.6797639,809.957837 22.5093935,806.123081 C15.3390231,802.288324 9.7116745,796.660976 5.87691846,789.490605 C2.04216242,782.320235 -1.02540719e-06,775.207938 -1.02540719e-06,755.594526 L-1.02540719e-06,44 C-1.02540719e-06,19.699471 19.69947,2.47715266e-12 43.999999,2.47268872e-12 Z"/>
    <filter id="mobile-view-e" width="114.4%" height="106.7%" x="-7.2%" y="-3.3%" filterUnits="objectBoundingBox">
      <feMorphology in="SourceAlpha" operator="dilate" radius="1" result="shadowSpreadOuter1"/>
      <feOffset in="shadowSpreadOuter1" result="shadowOffsetOuter1"/>
      <feGaussianBlur in="shadowOffsetOuter1" result="shadowBlurOuter1" stdDeviation="8"/>
      <feComposite in="shadowBlurOuter1" in2="SourceAlpha" operator="out" result="shadowBlurOuter1"/>
      <feColorMatrix in="shadowBlurOuter1" values="0 0 0 0 0   0 0 0 0 0   0 0 0 0 0  0 0 0 0.08 0"/>
    </filter>
    <linearGradient id="mobile-view-g" x1="50.007%" x2="50.007%" y1="-141.4%" y2="-47.015%">
      <stop offset="0%" stop-color="#2A6CBE"/>
      <stop offset="38.688%" stop-color="#2062BC"/>
      <stop offset="49.182%" stop-color="#1F5FBC"/>
      <stop offset="66.583%" stop-color="#1C5ABD"/>
      <stop offset="85.354%" stop-color="#1956BC"/>
      <stop offset="100%" stop-color="#1851BE"/>
    </linearGradient>
  </defs>
  <g fill="none" fill-rule="evenodd" transform="translate(100 100)">
    <use fill="#000" filter="url(#mobile-view-a)" xlink:href="#mobile-view-b"/>
    <use fill="#FFF" xlink:href="#mobile-view-b"/>
    <use fill="#000" filter="url(#mobile-view-c)" xlink:href="#mobile-view-b"/>
    <circle cx="6" cy="6" r="6" fill="#EDEDED" transform="translate(242 29)"/>
    <path fill="#EDEDED" d="M4,0 L46,0 C48.209139,-4.05812251e-16 50,1.790861 50,4 C50,6.209139 48.209139,8 46,8 L4,8 C1.790861,8 2.705415e-16,6.209139 0,4 C-2.705415e-16,1.790861 1.790861,4.05812251e-16 4,0 Z" transform="translate(185 31)"/>
    <g transform="translate(30 30)">
      <mask id="mobile-view-f" fill="#fff">
        <use xlink:href="#mobile-view-d"/>
      </mask>
      <use fill="#000" filter="url(#mobile-view-e)" xlink:href="#mobile-view-d"/>
      <path fill="#FFF" stroke="#FFF" stroke-linejoin="square" stroke-opacity=".066" stroke-width="2" d="M43.999999,1 C20.2517547,1 0.999998975,20.2517558 0.999998975,44 L0.999998975,755.594526 C0.999998975,773.325527 2.4887267,781.034792 6.75873166,789.019007 C10.5002879,796.015109 15.9848905,801.499711 22.9809924,805.241267 C30.9652074,809.511272 38.6744723,811 56.4054734,811 L318.594525,811 C336.325526,811 344.034791,809.511272 352.019006,805.241267 C359.015107,801.499711 364.49971,796.015109 368.241266,789.019007 C372.511271,781.034792 373.999999,773.325527 373.999999,755.594526 L373.999999,44 C373.999999,20.2517558 354.748243,1 330.999999,1 C300.831054,1 300.831054,1 270.662109,1 C267.237317,1 264.906956,3.1273781 261.541459,8.52845343 C261.167743,9.12820649 259.597771,11.7113316 259.176597,12.3872472 C253.894814,20.8636486 249.187297,24.7167969 241.105469,24.7167969 C240.245102,24.7167969 240.245102,24.7167969 236.373451,24.7167969 C231.21125,24.7167969 231.21125,24.7167969 223.898132,24.7167969 C206.690796,24.7167969 206.690796,24.7167969 186.041992,24.7167969 C165.393188,24.7167969 165.393188,24.7167969 148.185852,24.7167969 C140.872734,24.7167969 140.872734,24.7167969 135.710533,24.7167969 C131.838882,24.7167969 131.838882,24.7167969 130.978516,24.7167969 C122.32994,24.7167969 117.149579,20.7186751 111.914602,12.3905828 C111.331687,11.4632492 109.270549,8.03058236 108.798743,7.28000622 C105.997303,2.82332012 103.949876,1 101.162109,1 C72.5810542,1 72.5810542,1 43.999999,1 Z"/>
      <g mask="url(#mobile-view-f)">
        <g transform="translate(0 34)">
          <g transform="translate(13 54)">
            <rect width="98.389" height="25.395" x=".589" y=".535" fill="url(#mobile-view-g)" rx="5"/>
            <g fill="#FFF" opacity=".296" transform="translate(17.09 10.21)">
              <rect width="19.482" height="6.047" rx="3.023"/>
              <rect width="40.425" height="6.047" x="24.353" rx="3.023"/>
            </g>
          </g>
          <g transform="translate(0 143)">
            <rect width="375" height="63" fill="#E3EAF7"/>
            <g transform="translate(14.178 11.434)">
              <ellipse cx="17.088" cy="17.448" fill="#1851BE" opacity=".24" rx="17.088" ry="17.448"/>
              <path fill="#1851BE" d="M84.6527474,11.2831873 C86.6088337,11.2831873 88.194555,12.8689086 88.194555,14.8249949 C88.194555,16.7810813 86.6088337,18.3668026 84.6527474,18.3668026 L54.5125258,18.3668026 C52.5564394,18.3668026 50.9707181,16.7810813 50.9707181,14.8249949 C50.9707181,12.8689086 52.5564394,11.2831873 54.5125258,11.2831873 L84.6527474,11.2831873 Z M142.663922,11.2831873 C144.620008,11.2831873 146.20573,12.8689086 146.20573,14.8249949 C146.20573,16.7810813 144.620008,18.3668026 142.663922,18.3668026 L142.663922,18.3668026 L96.5706272,18.3668026 C94.6145409,18.3668026 93.0288196,16.7810813 93.0288196,14.8249949 C93.0288196,12.8689086 94.6145409,11.2831873 96.5706272,11.2831873 L96.5706272,11.2831873 Z M219.528728,1.22445351 C221.484814,1.22445351 223.070536,2.81017481 223.070536,4.76626116 C223.070536,6.72234752 221.484814,8.30806882 219.528728,8.30806882 L54.5125258,8.30806882 C52.5564394,8.30806882 50.9707181,6.72234752 50.9707181,4.76626116 C50.9707181,2.81017481 52.5564394,1.22445351 54.5125258,1.22445351 L219.528728,1.22445351 Z" opacity=".897"/>
              <rect width="12.086" height="12.346" x="337.06" y="1.258" fill="#1851BE" rx="6.043"/>
              <rect width="21.559" height="8" x="306.013" y="3.491" fill="#1851BE" opacity=".164" rx="4"/>
              <rect width="20.71" height="4.96" x="65.94" y="36.765" fill="#1851BE" opacity=".158" rx="2.48"/>
              <rect width="9.633" height="9.921" x="50.57" y="34.285" fill="#F84F77" rx="4.816"/>
            </g>
          </g>
          <g transform="translate(253 55)">
            <g transform="translate(56.799 .537)">
              <rect width="51.271" height="23.75" x=".625" y=".625" stroke="#8792A2" stroke-opacity=".24" stroke-width="1.25" rx="5"/>
              <rect width="11.63" height="7.836" x="9.754" y="8.244" fill="#8792A2" opacity=".176" rx="3.918"/>
              <rect width="18.007" height="7.836" x="23.259" y="8.244" fill="#8792A2" opacity=".176" rx="3.918"/>
            </g>
            <g transform="translate(.263 .537)">
              <rect width="51.271" height="23.75" x=".625" y=".625" stroke="#8792A2" stroke-opacity=".24" stroke-width="1.25" rx="5"/>
              <rect width="21.759" height="7.836" x="9.754" y="8.244" fill="#8792A2" opacity=".176" rx="3.918"/>
              <rect width="9.754" height="7.836" x="33.388" y="8.244" fill="#8792A2" opacity=".176" rx="3.918"/>
            </g>
          </g>
          <g transform="translate(11.6 111.612)">
            <rect width="23.384" height="8" x="2" fill="#1851BE" rx="4"/>
            <rect width="5.996" height="8" x="31.38" fill="#8792A2" opacity=".164" rx="2.998"/>
            <rect width="49.765" height="8" x="43.371" fill="#8792A2" opacity=".164" rx="4"/>
            <rect width="23.384" height="8" x="99.132" fill="#8792A2" opacity=".164" rx="4"/>
            <g transform="translate(1.4 106.388)">
              <rect width="12.086" height="12.346" x="338.039" y="1" fill="#8792A2" opacity=".578" rx="6.043"/>
              <rect width="21.559" height="8" x="306.992" y="3.232" fill="#8792A2" opacity=".164" rx="4"/>
              <g transform="translate(.4 .22)">
                <ellipse cx="17.646" cy="17.695" fill="#8792A2" opacity=".24" rx="17.068" ry="17.1"/>
                <path fill="#8792A2" d="M67.5101356,9.85785124 C69.427157,9.85785124 70.98121,11.4119042 70.98121,13.3289256 C70.98121,15.2459471 69.427157,16.8 67.5101356,16.8 L3.47107438,16.8 C1.55405293,16.8 9.97107504e-14,15.2459471 9.9475983e-14,13.3289256 C9.92412156e-14,11.4119042 1.55405293,9.85785124 3.47107438,9.85785124 L67.5101356,9.85785124 Z M132.696961,9.85785124 C134.613983,9.85785124 136.168035,11.4119042 136.168035,13.3289256 C136.168035,15.2459471 134.613983,16.8 132.696961,16.8 L132.696961,16.8 L79.2809381,16.8 C77.3639166,16.8 75.8098637,15.2459471 75.8098637,13.3289256 C75.8098637,11.4119042 77.3639166,9.85785124 79.2809381,9.85785124 L79.2809381,9.85785124 Z M168.428999,0 C170.34602,1.2526436e-14 171.900073,1.55405293 171.900073,3.47107438 C171.900073,5.38809583 170.34602,6.94214876 168.428999,6.94214876 L3.47107438,6.94214876 C1.55405293,6.94214876 2.34767418e-16,5.38809583 0,3.47107438 C-2.34767418e-16,1.55405293 1.55405293,3.52151127e-16 3.47107438,0 L168.428999,0 Z" opacity=".4" transform="translate(52.5 1.795)"/>
              </g>
            </g>
            <g transform="translate(1.4 181.388)">
              <rect width="12.086" height="12.346" x="338.039" y="1" fill="#1851BE" rx="6.043"/>
              <rect width="21.559" height="8" x="306.992" y="3.232" fill="#8792A2" opacity=".164" rx="4"/>
              <g transform="translate(.4 .132)">
                <ellipse cx="17.646" cy="17.122" fill="#8792A2" opacity=".24" rx="17.068" ry="17.1"/>
                <path fill="#8792A2" d="M33.7095594,9.85785124 C35.6265809,9.85785124 37.1806338,11.4119042 37.1806338,13.3289256 C37.1806338,15.2459471 35.6265809,16.8 33.7095594,16.8 L3.47107438,16.8 C1.55405293,16.8 -6.72667925e-14,15.2459471 -6.75015599e-14,13.3289256 C-6.77363273e-14,11.4119042 1.55405293,9.85785124 3.47107438,9.85785124 L33.7095594,9.85785124 Z M91.6534043,9.85785124 C93.5704257,9.85785124 95.1244787,11.4119042 95.1244787,13.3289256 C95.1244787,15.2459471 93.5704257,16.8 91.6534043,16.8 L91.6534043,16.8 L45.4803619,16.8 C43.5633405,16.8 42.0092875,15.2459471 42.0092875,13.3289256 C42.0092875,11.4119042 43.5633405,9.85785124 45.4803619,9.85785124 L45.4803619,9.85785124 Z M168.428999,0 C170.34602,-1.14543814e-14 171.900073,1.55405293 171.900073,3.47107438 C171.900073,5.38809583 170.34602,6.94214876 168.428999,6.94214876 L3.47107438,6.94214876 C1.55405293,6.94214876 2.34767418e-16,5.38809583 0,3.47107438 C-2.34767418e-16,1.55405293 1.55405293,3.52151127e-16 3.47107438,0 L168.428999,0 Z" opacity=".4" transform="translate(51.5 1.222)"/>
              </g>
            </g>
            <g transform="translate(2.4 256.388)">
              <rect width="12.086" height="12.346" x="338.039" y="2" fill="#1851BE" rx="6.043"/>
              <rect width="21.559" height="8" x="306.992" y="4.232" fill="#8792A2" opacity=".164" rx="4"/>
              <g transform="translate(.4 .657)">
                <ellipse cx="17.642" cy="17.15" fill="#8792A2" opacity=".24" rx="17.064" ry="17.1"/>
                <path fill="#8792A2" d="M33.7008856,9.85785124 C35.6179071,9.85785124 37.17196,11.4119042 37.17196,13.3289256 C37.17196,15.2459471 35.6179071,16.8 33.7008856,16.8 L3.47107438,16.8 C1.55405293,16.8 -4.59505104e-14,15.2459471 -4.61852778e-14,13.3289256 C-4.64200452e-14,11.4119042 1.55405293,9.85785124 3.47107438,9.85785124 L33.7008856,9.85785124 Z M144.734013,9.85785124 C146.651034,9.85785124 148.205087,11.4119042 148.205087,13.3289256 C148.205087,15.2459471 146.651034,16.8 144.734013,16.8 L144.734013,16.8 L45.4705617,16.8 C43.5535402,16.8 41.9994873,15.2459471 41.9994873,13.3289256 C41.9994873,11.4119042 43.5535402,9.85785124 45.4705617,9.85785124 L45.4705617,9.85785124 Z M136.044464,0 C137.961485,1.34146144e-14 139.515538,1.55405293 139.515538,3.47107438 C139.515538,5.38809583 137.961485,6.94214876 136.044464,6.94214876 L3.47107438,6.94214876 C1.55405293,6.94214876 2.34767418e-16,5.38809583 0,3.47107438 C-2.34767418e-16,1.55405293 1.55405293,3.52151127e-16 3.47107438,0 L136.044464,0 Z" opacity=".4" transform="translate(50.49 1.25)"/>
              </g>
            </g>
            <g transform="translate(.4 331.388)">
              <rect width="12.086" height="12.346" x="338.039" y="2" fill="#1851BE" rx="6.043"/>
              <rect width="21.559" height="8" x="306.992" y="4.232" fill="#8792A2" opacity=".164" rx="4"/>
              <g transform="translate(.4 .957)">
                <ellipse cx="17.646" cy="17.426" fill="#8792A2" opacity=".24" rx="17.068" ry="17.348"/>
                <path fill="#8792A2" d="M33.659254,10.0567368 C35.6040584,10.0567368 37.1806338,11.6333122 37.1806338,13.5781166 C37.1806338,15.522921 35.6040584,17.0994964 33.659254,17.0994964 L3.52137981,17.0994964 C1.57657544,17.0994964 -6.72633901e-14,15.522921 -6.75015599e-14,13.5781166 C-6.77397297e-14,11.6333122 1.57657544,10.0567368 3.52137981,10.0567368 L33.659254,10.0567368 Z M91.6030989,10.0567368 C93.5479032,10.0567368 95.1244787,11.6333122 95.1244787,13.5781166 C95.1244787,15.522921 93.5479032,17.0994964 91.6030989,17.0994964 L91.6030989,17.0994964 L45.5306673,17.0994964 C43.585863,17.0994964 42.0092875,15.522921 42.0092875,13.5781166 C42.0092875,11.6333122 43.585863,10.0567368 45.5306673,10.0567368 L45.5306673,10.0567368 Z M168.378693,0.0560181492 C170.323498,0.0560181492 171.900073,1.63259359 171.900073,3.57739796 C171.900073,5.52220232 170.323498,7.09877776 168.378693,7.09877776 L3.52137981,7.09877776 C1.57657544,7.09877776 2.38169844e-16,5.52220232 0,3.57739796 C-2.38169844e-16,1.63259359 1.57657544,0.0560181492 3.52137981,0.0560181492 L168.378693,0.0560181492 Z" opacity=".4" transform="translate(52.5 .687)"/>
              </g>
            </g>
            <g transform="translate(.4 406.388)">
              <rect width="12.086" height="12.346" x="338.039" y="2" fill="#8792A2" opacity=".578" rx="6.043"/>
              <rect width="21.559" height="8" x="306.992" y="4.232" fill="#8792A2" opacity=".164" rx="4"/>
              <g transform="translate(.4 .87)">
                <ellipse cx="17.589" cy="17.205" fill="#8792A2" opacity=".24" rx="17.014" ry="17.1"/>
                <path fill="#8792A2" d="M62.469831,9.85785124 C64.3868524,9.85785124 65.9409053,11.4119042 65.9409053,13.3289256 C65.9409053,15.2459471 64.3868524,16.8 62.469831,16.8 L3.47107438,16.8 C1.55405293,16.8 -5.66086514e-14,15.2459471 -5.68434189e-14,13.3289256 C-5.70781863e-14,11.4119042 1.55405293,9.85785124 3.47107438,9.85785124 L62.469831,9.85785124 Z M125.041493,9.85785124 C126.958514,9.85785124 128.512567,11.4119042 128.512567,13.3289256 C128.512567,15.2459471 126.958514,16.8 125.041493,16.8 L125.041493,16.8 L74.2251845,16.8 C72.308163,16.8 70.7541101,15.2459471 70.7541101,13.3289256 C70.7541101,11.4119042 72.308163,9.85785124 74.2251845,9.85785124 L74.2251845,9.85785124 Z M150.551478,0 C152.4685,1.07500791e-14 154.022553,1.55405293 154.022553,3.47107438 C154.022553,5.38809583 152.4685,6.94214876 150.551478,6.94214876 L3.47107438,6.94214876 C1.55405293,6.94214876 2.34767418e-16,5.38809583 0,3.47107438 C-2.34767418e-16,1.55405293 1.55405293,-9.19380832e-17 3.47107438,0 L150.551478,0 Z" opacity=".4" transform="translate(53.364 1.305)"/>
              </g>
            </g>
            <g transform="translate(.4 481.388)">
              <g transform="translate(0 .993)">
                <rect width="12.086" height="12.346" x="338.039" y="1" fill="#8792A2" opacity=".578" rx="6.043"/>
                <rect width="21.559" height="8" x="306.992" y="3.232" fill="#8792A2" opacity=".164" rx="4"/>
              </g>
              <rect width="9.847" height="9.532" x="54.013" y="31.488" fill="#0E423C" rx="4.766"/>
              <rect width="21.171" height="4.766" x="69.927" y="33.871" fill="#8792A2" opacity=".158" rx="2.383"/>
              <ellipse cx="18.046" cy="18.62" fill="#8792A2" opacity=".24" rx="17.068" ry="17.1"/>
              <path fill="#8792A2" d="M86.6095374,12.5782499 C88.5265589,12.5782499 90.0806118,14.1323028 90.0806118,16.0493243 C90.0806118,17.9663457 88.5265589,19.5203987 86.6095374,19.5203987 L56.3710524,19.5203987 C54.454031,19.5203987 52.899978,17.9663457 52.899978,16.0493243 C52.899978,14.1323028 54.454031,12.5782499 56.3710524,12.5782499 L86.6095374,12.5782499 Z M144.553382,12.5782499 C146.470404,12.5782499 148.024457,14.1323028 148.024457,16.0493243 C148.024457,17.9663457 146.470404,19.5203987 144.553382,19.5203987 L144.553382,19.5203987 L98.3803399,19.5203987 C96.4633185,19.5203987 94.9092656,17.9663457 94.9092656,16.0493243 C94.9092656,14.1323028 96.4633185,12.5782499 98.3803399,12.5782499 L98.3803399,12.5782499 Z M221.328977,2.72039866 C223.245998,2.72039866 224.800051,4.2744516 224.800051,6.19147304 C224.800051,8.10849449 223.245998,9.66254742 221.328977,9.66254742 L56.3710524,9.66254742 C54.454031,9.66254742 52.899978,8.10849449 52.899978,6.19147304 C52.899978,4.2744516 54.454031,2.72039866 56.3710524,2.72039866 L221.328977,2.72039866 Z" opacity=".4"/>
            </g>
            <g transform="translate(.8 559.695)">
              <rect width="12.086" height="12.346" x="337.638" y=".873" fill="#8792A2" opacity=".578" rx="6.043"/>
              <rect width="21.559" height="8" x="306.592" y="3.105" fill="#8792A2" opacity=".164" rx="4"/>
              <g transform="translate(0 .18)">
                <ellipse cx="17.646" cy="17.26" fill="#8792A2" opacity=".24" rx="17.068" ry="17.1"/>
                <path fill="#8792A2" d="M33.7095594,9.85785124 C35.6265809,9.85785124 37.1806338,11.4119042 37.1806338,13.3289256 C37.1806338,15.2459471 35.6265809,16.8 33.7095594,16.8 L3.47107438,16.8 C1.55405293,16.8 -6.72667925e-14,15.2459471 -6.75015599e-14,13.3289256 C-6.77363273e-14,11.4119042 1.55405293,9.85785124 3.47107438,9.85785124 L33.7095594,9.85785124 Z M91.6534043,9.85785124 C93.5704257,9.85785124 95.1244787,11.4119042 95.1244787,13.3289256 C95.1244787,15.2459471 93.5704257,16.8 91.6534043,16.8 L91.6534043,16.8 L45.4803619,16.8 C43.5633405,16.8 42.0092875,15.2459471 42.0092875,13.3289256 C42.0092875,11.4119042 43.5633405,9.85785124 45.4803619,9.85785124 L45.4803619,9.85785124 Z M168.428999,0 C170.34602,-6.12531085e-15 171.900073,1.55405293 171.900073,3.47107438 C171.900073,5.38809583 170.34602,6.94214876 168.428999,6.94214876 L3.47107438,6.94214876 C1.55405293,6.94214876 2.34767418e-16,5.38809583 0,3.47107438 C-2.34767418e-16,1.55405293 1.55405293,3.52151127e-16 3.47107438,0 L168.428999,0 Z" opacity=".4" transform="translate(52.5 1.36)"/>
              </g>
              <rect width="9.847" height="9.532" x="53.612" y="29.307" fill="#8792A2" rx="4.766"/>
              <rect width="21.171" height="4.766" x="69.527" y="31.69" fill="#8792A2" opacity=".158" rx="2.383"/>
            </g>
          </g>
          <g transform="translate(65 251)">
            <rect width="9.847" height="9.902" x=".612" y=".574" fill="#1851BE" rx="4.923"/>
            <rect width="21.171" height="4.951" x="16.527" y="3.05" fill="#8792A2" opacity=".158" rx="2.476"/>
          </g>
          <g transform="translate(65 324)">
            <rect width="9.847" height="9.902" x=".612" y=".603" fill="#BCCCEB" rx="4.923"/>
            <rect width="21.171" height="4.951" x="16.527" y="3.078" fill="#8792A2" opacity=".158" rx="2.476"/>
          </g>
          <g transform="translate(65 397)">
            <rect width="9.847" height="9.532" x=".612" y=".019" fill="#512DA8" rx="4.766"/>
            <rect width="21.171" height="4.766" x="16.527" y="2.402" fill="#8792A2" opacity=".158" rx="2.383"/>
          </g>
          <g transform="translate(65 473)">
            <rect width="9.847" height="9.532" x=".612" y=".046" fill="#8369C0" rx="4.766"/>
            <rect width="21.171" height="4.766" x="16.527" y="2.429" fill="#8792A2" opacity=".158" rx="2.383"/>
          </g>
          <g transform="translate(66 546)">
            <rect width="9.847" height="9.532" x=".612" y=".073" fill="#BFE5E1" rx="4.766"/>
            <rect width="21.171" height="4.766" x="16.527" y="2.456" fill="#8792A2" opacity=".158" rx="2.383"/>
          </g>
          <g transform="translate(13)">
            <rect width="37.794" height="15.721" x="312.012" y="8.045" fill="#ECEEF0" rx="7"/>
            <path fill="#1851BE" fill-rule="nonzero" d="M21.5,0 C33.3741221,0 43,7.163444 43,16 C43,24.836556 33.3741221,32 21.5,32 C9.62587788,32 0,24.836556 0,16 C0,7.163444 9.62587788,0 21.5,0 Z M23.1498095,4 L23.0011858,4.00546226 C21.9707538,4.08148473 21.1583669,4.94159208 21.1583669,5.99144255 L21.1583669,5.99144255 L21.159165,12.0544376 C19.714139,11.0677485 17.9204395,10.5013241 15.9195972,10.5013241 C10.81211,10.5013241 7,14.2458967 7,19.250662 C7,24.2554274 10.81211,28 15.9195972,28 C19.3366621,28 22.1495692,26.3479518 23.6533459,23.7718845 L23.6533459,23.7718845 L23.759612,23.8774974 C25.3473741,25.4065031 27.5551202,26.3208874 30.0791835,26.3208874 C35.2243847,26.3208874 39,22.5758029 39,17.5703534 C39,12.5649039 35.2243847,8.81981941 30.0791835,8.81981941 C27.7848914,8.81981941 25.7519477,9.57530419 24.2084089,10.8611489 C24.1144119,10.939453 24.2084089,8.09939838 24.2084089,5.35986422 C24.2084089,4.41902139 23.5015044,4 23.1498095,4 L23.1498095,4 Z M15.7933333,14.5076499 C18.6309677,14.5076499 20.6266667,16.5823917 20.6266667,19.2707896 C20.6266667,21.9007441 18.6309677,24.0339294 15.7933333,24.0339294 C12.9556989,24.0339294 10.96,21.9007441 10.96,19.2707896 C10.96,16.5823917 12.9556989,14.5076499 15.7933333,14.5076499 Z M30.5,12.9308864 C33.3376344,12.9308864 35.3333333,15.0056282 35.3333333,17.6940261 C35.3333333,20.3239806 33.3376344,22.4571659 30.5,22.4571659 C27.6623656,22.4571659 25.6666667,20.3239806 25.6666667,17.6940261 C25.6666667,15.0056282 27.6623656,12.9308864 30.5,12.9308864 Z M8.65685024,5.63296277 L7.6103058,5.63296277 C7.28650191,5.63296277 7.02400699,5.89164552 7.02400699,6.21074687 L7.02400699,6.21074687 L7.02400699,12.8327531 C7.02400699,12.9360603 7.05600653,13.0368314 7.11560646,13.1212128 C7.27491837,13.3467662 7.58691333,13.4004655 7.81246671,13.2411536 L7.81246671,13.2411536 L9.39025995,12.1267334 C9.78823125,11.84564 10.0248808,11.3887634 10.0248808,10.9015318 L10.0248808,10.9015318 L10.0248808,6.98112567 C10.0248808,6.23655586 9.41239265,5.63296277 8.65685024,5.63296277 L8.65685024,5.63296277 Z"/>
          </g>
        </g>
      </g>
    </g>
  </g>
</svg>
