<svg xmlns="http://www.w3.org/2000/svg" xmlns:xlink="http://www.w3.org/1999/xlink" width="586" height="782" viewBox="0 0 586 782">
  <defs>
    <rect id="notifications-full-a" width="586" height="628" x="0" y=".212" rx="5"/>
  </defs>
  <g fill="none" fill-rule="evenodd">
    <rect width="586" height="782" fill="#FFF"/>
    <g transform="translate(0 -1)">
      <mask id="notifications-full-b" fill="#fff">
        <use xlink:href="#notifications-full-a"/>
      </mask>
      <use fill="#FFF" xlink:href="#notifications-full-a"/>
      <rect width="589" height="218" y=".212" fill="#E2E9F7" mask="url(#notifications-full-b)"/>
      <rect width="279" height="16" x="112" y="39.212" fill="#1851BE" mask="url(#notifications-full-b)" opacity=".599" rx="8"/>
      <rect width="155" height="16" x="112" y="63.212" fill="#1851BE" mask="url(#notifications-full-b)" opacity=".5" rx="8"/>
      <rect width="65" height="16" x="113" y="161.212" fill="#1851BE" mask="url(#notifications-full-b)" opacity=".4" rx="8"/>
      <rect width="224" height="16" x="192" y="162.212" fill="#1851BE" mask="url(#notifications-full-b)" opacity=".542" rx="8"/>
      <rect width="25" height="16" x="514" y="161.212" fill="#1851BE" mask="url(#notifications-full-b)" opacity=".7" rx="5"/>
      <rect width="25" height="16" x="514" y="50.212" fill="#1851BE" mask="url(#notifications-full-b)" opacity=".698" rx="5"/>
      <rect width="45" height="45" x="40" y="37.212" fill="#1851BE" mask="url(#notifications-full-b)" opacity=".4" rx="22.5"/>
      <rect width="45" height="45" x="40" y="147.212" fill="#1851BE" mask="url(#notifications-full-b)" opacity=".4" rx="22.5"/>
      <rect width="25" height="16" x="514" y="271.212" fill="#8792A2" mask="url(#notifications-full-b)" opacity=".24" rx="5"/>
      <rect width="25" height="16" x="514" y="381.212" fill="#8792A2" mask="url(#notifications-full-b)" opacity=".24" rx="5"/>
      <rect width="25" height="16" x="514" y="491.212" fill="#8792A2" mask="url(#notifications-full-b)" opacity=".24" rx="5"/>
      <rect width="36" height="16" x="464" y="161.212" fill="#1851BE" mask="url(#notifications-full-b)" opacity=".464" rx="8"/>
      <rect width="36" height="16" x="464" y="50.212" fill="#1851BE" mask="url(#notifications-full-b)" opacity=".461" rx="8"/>
      <rect width="36" height="16" x="464" y="271.212" fill="#8792A2" mask="url(#notifications-full-b)" opacity=".144" rx="8"/>
      <rect width="36" height="16" x="464" y="381.212" fill="#8792A2" mask="url(#notifications-full-b)" opacity=".144" rx="8"/>
      <rect width="36" height="16" x="464" y="491.212" fill="#8792A2" mask="url(#notifications-full-b)" opacity=".144" rx="8"/>
      <rect width="279" height="16" x="112" y="260.212" fill="#8792A2" fill-opacity=".24" mask="url(#notifications-full-b)" rx="8"/>
      <rect width="155" height="16" x="113" y="285.212" fill="#8792A2" fill-opacity=".24" mask="url(#notifications-full-b)" rx="8"/>
      <rect width="279" height="16" x="112" y="367.212" fill="#8792A2" fill-opacity=".24" mask="url(#notifications-full-b)" rx="8"/>
      <rect width="84" height="16" x="113" y="391.212" fill="#8792A2" fill-opacity=".24" mask="url(#notifications-full-b)" rx="8"/>
      <rect width="126" height="16" x="113" y="491.212" fill="#8792A2" fill-opacity=".24" mask="url(#notifications-full-b)" rx="8"/>
      <rect width="45" height="45" x="43" y="258.212" fill="#8792A2" mask="url(#notifications-full-b)" opacity=".28" rx="22.5"/>
      <rect width="45" height="45" x="43" y="367.212" fill="#8792A2" mask="url(#notifications-full-b)" opacity=".28" rx="22.5"/>
      <rect width="35" height="35" x="63" y="387.212" fill="#000306" stroke="#FFF" stroke-width="4" mask="url(#notifications-full-b)" rx="17.5"/>
      <rect width="35" height="35" x="61" y="167.212" fill="#000306" stroke="#F1EFF8" stroke-width="4" mask="url(#notifications-full-b)" rx="17.5"/>
      <rect width="45" height="45" x="43" y="478.212" fill="#8792A2" mask="url(#notifications-full-b)" opacity=".28" rx="22.5"/>
      <path stroke="#8792A2" stroke-opacity=".332" stroke-width=".5" d="M0.25,738.25 L0.25,782.75 L585.75,782.75 L585.75,738.25 L0.25,738.25 Z"/>
      <rect width="585.5" height="44.5" x="4.25" y="694.25" stroke="#8792A2" stroke-opacity=".332" stroke-width=".5"/>
      <rect width="203" height="12" x="192" y="711" fill="#8792A2" opacity=".361" rx="5"/>
      <rect width="203" height="12" x="192" y="755" fill="#8792A2" opacity=".361" rx="5"/>
    </g>
  </g>
</svg>
