<svg xmlns="http://www.w3.org/2000/svg" xmlns:xlink="http://www.w3.org/1999/xlink" width="1124" height="715" viewBox="0 0 1124 715">
  <defs>
    <linearGradient id="notifications-a" x1="50.007%" x2="50.007%" y1="-141.4%" y2="-47.015%">
      <stop offset="0%" stop-color="#2A6CBE"/>
      <stop offset="38.688%" stop-color="#2062BC"/>
      <stop offset="49.182%" stop-color="#1F5FBC"/>
      <stop offset="66.583%" stop-color="#1C5ABD"/>
      <stop offset="85.354%" stop-color="#1956BC"/>
      <stop offset="100%" stop-color="#1851BE"/>
    </linearGradient>
    <radialGradient id="notifications-b" cx="65.599%" cy="0%" r="167.283%" fx="65.599%" fy="0%" gradientTransform="matrix(-.52372 .5978 -.39054 -.80165 1 -.392)">
      <stop offset="0%" stop-color="#2A6CBE"/>
      <stop offset="38.688%" stop-color="#2062BC"/>
      <stop offset="49.182%" stop-color="#1F5FBC"/>
      <stop offset="66.583%" stop-color="#1C5ABD"/>
      <stop offset="85.354%" stop-color="#1956BC"/>
      <stop offset="100%" stop-color="#1851BE"/>
    </radialGradient>
    <path id="notifications-c" d="M605,123 L997,123 C999.761424,123 1002,125.238576 1002,128 L1002,501 L1002,501 L600,501 L600,128 C600,125.238576 602.238576,123 605,123 Z"/>
  </defs>
  <g fill="none" fill-rule="evenodd">
    <rect width="1124" height="42" fill="#2A2F45" transform="rotate(180 562 21)"/>
    <g transform="translate(50.036 138.115)">
      <rect width="202.18" height="53.25" y=".274" fill="url(#notifications-a)" rx="5"/>
      <g fill="#FFF" opacity=".296" transform="translate(34.03 20.664)">
        <rect width="40.036" height="12.716" rx="3"/>
        <rect width="83.074" height="12.716" x="50.045" rx="3"/>
      </g>
    </g>
    <g transform="translate(653.573 138.115)">
      <g transform="translate(300.267)">
        <rect width="137.625" height="51.545" x="1.25" y="1.25" stroke="#8792A2" stroke-opacity=".2" stroke-width="2.5" rx="5"/>
        <rect width="31.028" height="12.906" x="26.023" y="20.166" fill="#8792A2" opacity=".18" rx="3"/>
        <rect width="48.043" height="12.906" x="62.055" y="20.166" fill="#8792A2" opacity=".18" rx="3"/>
      </g>
      <g transform="translate(150.134)">
        <rect width="137.625" height="51.545" x="1.25" y="1.25" stroke="#8792A2" stroke-opacity=".2" stroke-width="2.5" rx="5"/>
        <rect width="58.052" height="12.906" x="26.023" y="20.166" fill="#8792A2" opacity=".18" rx="3"/>
        <rect width="26.023" height="12.906" x="89.079" y="20.166" fill="#8792A2" opacity=".18" rx="3"/>
      </g>
      <rect width="137.625" height="51.545" x="1.25" y="1.25" stroke="#8792A2" stroke-opacity=".2" stroke-width="2.5" rx="5"/>
      <rect width="28.025" height="12.906" x="26.023" y="20.166" fill="#8792A2" opacity=".18" rx="3"/>
      <rect width="56.05" height="12.906" x="59.053" y="20.166" fill="#8792A2" opacity=".18" rx="3"/>
    </g>
    <g transform="translate(50.036 245.204)">
      <ellipse cx="35.031" cy="35.029" fill="#8792A2" opacity=".24" rx="35.031" ry="35.029"/>
      <g transform="translate(87.077 2.002)">
        <path fill="#8792A2" d="M74.0685663,23.934112 C75.7254206,23.934112 77.0685663,25.2772578 77.0685663,26.934112 L77.0685663,38.934112 C77.0685663,40.5909662 75.7254206,41.934112 74.0685663,41.934112 L3,41.934112 C1.34314575,41.934112 5.03849868e-14,40.5909662 4.97379915e-14,38.934112 L4.97379915e-14,26.934112 C4.99791746e-14,25.2772578 1.34314575,23.934112 3,23.934112 L74.0685663,23.934112 Z M194.175423,23.934112 C195.832277,23.934112 197.175423,25.2772578 197.175423,26.934112 L197.175423,26.934112 L197.175423,38.934112 C197.175423,40.5909662 195.832277,41.934112 194.175423,41.934112 L194.175423,41.934112 L90.0774711,41.934112 C88.4206168,41.934112 87.0774711,40.5909662 87.0774711,38.934112 L87.0774711,38.934112 L87.0774711,26.934112 C87.0774711,25.2772578 88.4206168,23.934112 90.0774711,23.934112 L90.0774711,23.934112 Z M353.317008,0 C354.973862,1.39730022e-16 356.317008,1.34314575 356.317008,3 L356.317008,15 C356.317008,16.6568542 354.973862,18 353.317008,18 L3,18 C1.34314575,18 6.46995335e-16,16.6568542 0,15 L0,3 C2.41183085e-16,1.34314575 1.34314575,-5.83819232e-16 3,0 L353.317008,0 Z" opacity=".238"/>
        <g transform="translate(415.37)">
          <g fill="#8792A2" opacity=".322">
            <rect width="58.052" height="46.038" x="86.077" rx="3"/>
            <rect width="57.051" height="46.038" rx="3"/>
            <rect width="57.051" height="46.038" x="173.154" rx="3"/>
            <rect width="58.052" height="46.038" x="86.077" y="119.099" rx="3"/>
            <rect width="57.051" height="46.038" y="119.099" rx="3"/>
            <rect width="57.051" height="46.038" x="173.154" y="119.099" rx="3"/>
            <rect width="58.052" height="46.038" x="86.077" y="238.198" rx="3"/>
            <rect width="57.051" height="46.038" y="238.198" rx="3"/>
            <rect width="57.051" height="46.038" x="173.154" y="238.198" rx="3"/>
            <rect width="58.052" height="46.038" x="86.077" y="357.298" rx="3"/>
            <rect width="57.051" height="46.038" y="357.298" rx="3"/>
            <rect width="57.051" height="46.038" x="173.154" y="357.298" rx="3"/>
          </g>
          <g fill="#ECEEF0" transform="translate(0 56.047)">
            <rect width="57.051" height="10.008" rx="3"/>
            <rect width="57.051" height="10.008" x="87.077" rx="3"/>
            <rect width="57.051" height="10.008" x="173.154" rx="3"/>
            <rect width="57.051" height="10.008" y="119.099" rx="3"/>
            <rect width="57.051" height="10.008" x="87.077" y="119.099" rx="3"/>
            <rect width="57.051" height="10.008" x="173.154" y="119.099" rx="3"/>
            <rect width="57.051" height="10.008" y="238.198" rx="3"/>
            <rect width="57.051" height="10.008" x="87.077" y="238.198" rx="3"/>
            <rect width="57.051" height="10.008" x="173.154" y="238.198" rx="3"/>
            <rect width="57.051" height="10.008" y="357.298" rx="3"/>
            <rect width="57.051" height="10.008" x="87.077" y="357.298" rx="3"/>
            <rect width="57.051" height="10.008" x="173.154" y="357.298" rx="3"/>
          </g>
        </g>
        <g fill="#8792A2" opacity=".32" transform="translate(758.675)">
          <rect width="25.022" height="25.021" rx="11.5"/>
          <rect width="25.022" height="25.021" y="119.099" rx="11.5"/>
          <rect width="25.022" height="25.021" y="238.198" rx="11.5"/>
          <rect width="25.022" height="25.021" y="357.298" rx="11.5"/>
        </g>
        <rect width="57.051" height="10.008" x="793.706" y="7.006" fill="#8792A2" opacity=".164" rx="3"/>
        <rect width="124.11" height="10.008" x="758.675" y="30.025" fill="#8792A2" opacity=".164" rx="3"/>
        <rect width="48.043" height="10.008" x="887.79" y="30.025" fill="#8792A2" opacity=".164" rx="3"/>
        <rect width="53.047" height="10.008" x="758.675" y="45.038" fill="#8792A2" opacity=".164" rx="3"/>
      </g>
      <g transform="translate(87.077 58.058)">
        <rect width="16.014" height="10.008" x="30.027" y="5.004" fill="#8792A2" opacity=".158" rx="3"/>
        <rect width="43.038" height="10.008" x="51.045" y="5.004" fill="#8792A2" opacity=".158" rx="3"/>
        <rect width="20.018" height="10.008" x="157.14" y="5.004" fill="#8792A2" opacity=".158" rx="3"/>
        <rect width="30.027" height="10.008" x="187.167" y="5.004" fill="#8792A2" opacity=".158" rx="3"/>
        <rect width="10.009" height="10.008" x="222.198" y="5.004" fill="#8792A2" opacity=".158" rx="3"/>
        <rect width="43.038" height="10" x="104.093" y="5.017" fill="#8792A2" opacity=".204" rx="5"/>
        <rect width="20.018" height="20.017" fill="#1851BE" rx="10"/>
      </g>
    </g>
    <g transform="translate(50.036 364.304)">
      <ellipse cx="35.031" cy="35.029" fill="#8792A2" opacity=".24" rx="35.031" ry="35.029"/>
      <g transform="translate(87.077 2.002)">
        <path fill="#8792A2" d="M144.130899,23.934112 C145.787754,23.934112 147.130899,25.2772578 147.130899,26.934112 L147.130899,38.934112 C147.130899,40.5909662 145.787754,41.934112 144.130899,41.934112 L3,41.934112 C1.34314575,41.934112 1.44137608e-14,40.5909662 1.42108547e-14,38.934112 L1.42108547e-14,26.934112 C1.40079486e-14,25.2772578 1.34314575,23.934112 3,23.934112 L144.130899,23.934112 Z M279.251113,23.934112 C280.907967,23.934112 282.251113,25.2772578 282.251113,26.934112 L282.251113,26.934112 L282.251113,38.934112 C282.251113,40.5909662 280.907967,41.934112 279.251113,41.934112 L279.251113,41.934112 L160.139804,41.934112 C158.48295,41.934112 157.139804,40.5909662 157.139804,38.934112 L157.139804,38.934112 L157.139804,26.934112 C157.139804,25.2772578 158.48295,23.934112 160.139804,23.934112 L160.139804,23.934112 Z M353.317008,0 C354.973862,1.39730022e-16 356.317008,1.34314575 356.317008,3 L356.317008,15 C356.317008,16.6568542 354.973862,18 353.317008,18 L3,18 C1.34314575,18 6.46995335e-16,16.6568542 0,15 L0,3 C2.41183085e-16,1.34314575 1.34314575,-5.83819232e-16 3,0 L353.317008,0 Z" opacity=".238"/>
        <rect width="57.051" height="10.008" x="793.706" y="7.006" fill="#8792A2" opacity=".164" rx="3"/>
        <rect width="124.11" height="10.008" x="758.675" y="30.025" fill="#8792A2" opacity=".164" rx="3"/>
        <rect width="48.043" height="10.008" x="887.79" y="30.025" fill="#8792A2" opacity=".164" rx="3"/>
        <rect width="53.047" height="10.008" x="758.675" y="45.038" fill="#8792A2" opacity=".164" rx="3"/>
      </g>
      <g transform="translate(87.077 58.058)">
        <rect width="16.014" height="10.008" x="30.027" y="5.004" fill="#8792A2" opacity=".158" rx="3"/>
        <rect width="43.038" height="10.008" x="51.045" y="5.004" fill="#8792A2" opacity=".158" rx="3"/>
        <rect width="20.018" height="10.008" x="157.14" y="5.004" fill="#8792A2" opacity=".158" rx="3"/>
        <rect width="30.027" height="10.008" x="187.167" y="5.004" fill="#8792A2" opacity=".158" rx="3"/>
        <rect width="10.009" height="10.008" x="222.198" y="5.004" fill="#8792A2" opacity=".158" rx="3"/>
        <rect width="43.038" height="10" x="104.093" y="5.017" fill="#8792A2" opacity=".204" rx="5"/>
        <rect width="20.018" height="20.017" fill="#1851BE" rx="10"/>
      </g>
    </g>
    <g transform="translate(50.036 483.403)">
      <ellipse cx="35.031" cy="35.029" fill="#8792A2" opacity=".24" rx="35.031" ry="35.029"/>
      <g transform="translate(87.077 2.002)">
        <path fill="#8792A2" d="M74.0685663,23.934112 C75.7254206,23.934112 77.0685663,25.2772578 77.0685663,26.934112 L77.0685663,38.934112 C77.0685663,40.5909662 75.7254206,41.934112 74.0685663,41.934112 L3,41.934112 C1.34314575,41.934112 5.03849868e-14,40.5909662 4.97379915e-14,38.934112 L4.97379915e-14,26.934112 C4.99791746e-14,25.2772578 1.34314575,23.934112 3,23.934112 L74.0685663,23.934112 Z M194.175423,23.934112 C195.832277,23.934112 197.175423,25.2772578 197.175423,26.934112 L197.175423,26.934112 L197.175423,38.934112 C197.175423,40.5909662 195.832277,41.934112 194.175423,41.934112 L194.175423,41.934112 L90.0774711,41.934112 C88.4206168,41.934112 87.0774711,40.5909662 87.0774711,38.934112 L87.0774711,38.934112 L87.0774711,26.934112 C87.0774711,25.2772578 88.4206168,23.934112 90.0774711,23.934112 L90.0774711,23.934112 Z M353.317008,0 C354.973862,1.39730022e-16 356.317008,1.34314575 356.317008,3 L356.317008,15 C356.317008,16.6568542 354.973862,18 353.317008,18 L3,18 C1.34314575,18 6.46995335e-16,16.6568542 0,15 L0,3 C2.41183085e-16,1.34314575 1.34314575,-5.83819232e-16 3,0 L353.317008,0 Z" opacity=".238"/>
        <rect width="57.051" height="10.008" x="793.706" y="7.006" fill="#8792A2" opacity=".164" rx="3"/>
        <rect width="124.11" height="10.008" x="758.675" y="30.025" fill="#8792A2" opacity=".164" rx="3"/>
        <rect width="48.043" height="10.008" x="887.79" y="30.025" fill="#8792A2" opacity=".164" rx="3"/>
        <rect width="53.047" height="10.008" x="758.675" y="45.038" fill="#8792A2" opacity=".164" rx="3"/>
      </g>
      <g transform="translate(87.077 58.058)">
        <rect width="16.014" height="10.008" x="30.027" y="5.004" fill="#8792A2" opacity=".158" rx="3"/>
        <rect width="43.038" height="10.008" x="51.045" y="5.004" fill="#8792A2" opacity=".158" rx="3"/>
        <rect width="20.018" height="10.008" x="157.14" y="5.004" fill="#8792A2" opacity=".158" rx="3"/>
        <rect width="30.027" height="10.008" x="187.167" y="5.004" fill="#8792A2" opacity=".158" rx="3"/>
        <rect width="10.009" height="10.008" x="222.198" y="5.004" fill="#8792A2" opacity=".158" rx="3"/>
        <rect width="43.038" height="10" x="104.093" y="5.017" fill="#8792A2" opacity=".204" rx="5"/>
        <rect width="20.018" height="20.017" fill="#1851BE" rx="10"/>
      </g>
    </g>
    <g transform="translate(50.036 602.502)">
      <ellipse cx="35.031" cy="35.029" fill="#8792A2" opacity=".24" rx="35.031" ry="35.029"/>
      <g transform="translate(87.077 2.002)">
        <path fill="#8792A2" d="M74.0685663,23.934112 C75.7254206,23.934112 77.0685663,25.2772578 77.0685663,26.934112 L77.0685663,38.934112 C77.0685663,40.5909662 75.7254206,41.934112 74.0685663,41.934112 L3,41.934112 C1.34314575,41.934112 5.03849868e-14,40.5909662 4.97379915e-14,38.934112 L4.97379915e-14,26.934112 C4.99791746e-14,25.2772578 1.34314575,23.934112 3,23.934112 L74.0685663,23.934112 Z M304.273375,23.934112 C305.930229,23.934112 307.273375,25.2772578 307.273375,26.934112 L307.273375,26.934112 L307.273375,38.934112 C307.273375,40.5909662 305.930229,41.934112 304.273375,41.934112 L304.273375,41.934112 L90.0774711,41.934112 C88.4206168,41.934112 87.0774711,40.5909662 87.0774711,38.934112 L87.0774711,38.934112 L87.0774711,26.934112 C87.0774711,25.2772578 88.4206168,23.934112 90.0774711,23.934112 L90.0774711,23.934112 Z M286.257346,0 C287.914201,-3.04359188e-16 289.257346,1.34314575 289.257346,3 L289.257346,15 C289.257346,16.6568542 287.914201,18 286.257346,18 L3,18 C1.34314575,18 9.3869722e-16,16.6568542 0,15 L0,3 C-2.02906125e-16,1.34314575 1.34314575,-5.83819232e-16 3,0 L286.257346,0 Z" opacity=".238"/>
        <rect width="57.051" height="10.008" x="793.706" y="7.006" fill="#8792A2" opacity=".164" rx="3"/>
        <rect width="74.066" height="10.008" x="758.675" y="30.025" fill="#8792A2" opacity=".164" rx="3"/>
        <rect width="98.087" height="10.008" x="837.745" y="30.025" fill="#8792A2" opacity=".164" rx="3"/>
        <rect width="110.098" height="10.008" x="758.675" y="45.021" fill="#8792A2" opacity=".164" rx="3"/>
      </g>
      <g transform="translate(87.077 58.058)">
        <rect width="16.014" height="10.008" x="30.027" y="5.004" fill="#8792A2" opacity=".158" rx="3"/>
        <rect width="43.038" height="10.008" x="51.045" y="5.004" fill="#8792A2" opacity=".158" rx="3"/>
        <rect width="20.018" height="10.008" x="157.14" y="5.004" fill="#8792A2" opacity=".158" rx="3"/>
        <rect width="30.027" height="10.008" x="187.167" y="5.004" fill="#8792A2" opacity=".158" rx="3"/>
        <rect width="10.009" height="10.008" x="222.198" y="5.004" fill="#8792A2" opacity=".158" rx="3"/>
        <rect width="43.038" height="10" x="104.093" y="5.017" fill="#8792A2" opacity=".204" rx="5"/>
        <rect width="20.018" height="20.017" fill="#1851BE" rx="10"/>
      </g>
    </g>
    <g transform="translate(50.316 18.002)">
      <g fill-rule="nonzero" transform="translate(.684 45.998)">
        <path fill="url(#notifications-b)" d="M129.915291,8 C135.179484,8 138.182774,10.6057143 138.182774,14.4457143 C138.182774,16.8114286 136.96796,18.7314286 134.977015,19.5885714 C137.406643,20.4114286 138.958904,22.4342857 138.958904,25.2114286 C138.958904,29.36 135.92187,32 130.387718,32 L121.074145,32 L121.074145,32 L121.074145,8 L121.074145,8 L129.915291,8 Z M120.107401,8 L120.107401,32 L120.107401,32 L110.793828,32 C105.259676,32 102.222642,29.36 102.222642,25.2114286 C102.222642,22.4342857 103.774903,20.4114286 106.204531,19.5885714 C104.213586,18.7314286 102.998772,16.8114286 102.998772,14.4457143 C102.998772,10.6057143 106.002062,8 111.266256,8 L111.266256,8 L120.107401,8 L120.107401,8 Z M129.645332,21.7142857 L125.832166,21.7142857 L125.832166,28.16 L125.832166,28.16 L129.645332,28.16 L129.645332,28.16 C132.176194,28.16 133.391008,27.1317912 133.391008,24.9375055 C133.391008,22.8460769 132.412408,21.7142857 129.645332,21.7142857 Z M115.34938,21.7142857 L111.536214,21.7142857 C108.769138,21.7142857 107.790538,22.8460769 107.790538,24.9375055 C107.790538,27.1317912 109.005352,28.16 111.536214,28.16 L111.536214,28.16 L115.34938,28.16 L115.34938,28.16 L115.34938,21.7142857 Z M129.645332,11.84 L125.798421,11.84 L125.798421,17.9428571 L129.645332,17.9428571 C132.108705,17.9428571 133.391008,16.8114286 133.391008,14.8914286 C133.391008,12.9714286 132.108705,11.84 129.645332,11.84 Z M115.383125,11.84 L111.536214,11.84 C109.072842,11.84 107.790538,12.9714286 107.790538,14.8914286 C107.790538,16.8114286 109.072842,17.9428571 111.536214,17.9428571 L111.536214,17.9428571 L115.383125,17.9428571 L115.383125,11.84 Z"/>
        <path fill="#000306" stroke="#000306" stroke-width=".275" d="M70.3896714,0 C71.4905598,-2.02229919e-16 72.3830062,0.892446381 72.3830062,1.99333478 L72.3828641,19.3364782 C72.4041115,19.6390065 72.4148995,19.9454661 72.4148995,20.255529 C72.4148995,26.9735597 67.3505003,32 60.5651887,32 C53.7307082,32 48.7154779,26.9735597 48.7154779,20.255529 C48.7154779,13.5374983 53.7307082,8.51105803 60.5651887,8.51105803 C63.628943,8.51105803 66.3418427,9.53583365 68.3960998,11.2783917 L68.3963366,1.99333478 C68.3963366,0.892446381 69.288783,2.02229919e-16 70.3896714,0 Z M85.9367439,8.76712329 C92.3643834,8.76712329 96.9571122,12.4722723 97.196335,19.7421846 L97.2045021,20.096736 C97.2176578,21.0867668 96.4257441,21.9000103 95.4357133,21.913166 L78.6077153,21.9132984 C78.6077153,24.825729 80.1935668,28.1756582 86.1860305,28.1756582 C89.2475284,28.1756582 92.2464475,27.3335037 95.1827877,25.6491949 L95.6018575,25.4028808 C96.1921523,25.0474377 96.9588244,25.2378227 97.3142675,25.8281175 C97.5632929,26.2416812 97.5495304,26.757344 97.2897875,27.1543705 L97.2045021,27.2696986 C96.7515947,27.8140187 92.5602168,32 86.1860305,32 C79.2558607,32 74.1704123,27.1239641 74.1704123,20.3357574 C74.1704123,13.7387677 79.006574,8.76712329 85.9367439,8.76712329 Z M35.5491325,8.76712329 C42.3344441,8.76712329 47.3988433,13.7387677 47.3988433,20.3835616 C47.3988433,27.0283556 42.3344441,32 35.5491325,32 C28.714652,32 23.6994217,27.0283556 23.6994217,20.3835616 C23.6994217,13.7387677 28.714652,8.76712329 35.5491325,8.76712329 Z M11.9920228,8.76712329 C18.2617111,8.76712329 21.943909,12.7846158 21.943909,18.3145762 L21.943909,28.9836321 C21.943909,30.1653313 20.9859525,31.1232877 19.8042534,31.1232877 L19.6645979,31.1232877 C18.5600284,31.1232877 17.6645979,30.2278572 17.6645979,29.1232877 L17.6645979,18.6454285 C17.6645979,15.0533175 15.7239801,12.5482927 11.5441879,12.5482927 C4.50284572,12.5482927 4.28618903,15.615653 4.27952267,19.4587615 L4.27931104,31.1232877 L2,31.1232877 C0.8954305,31.1232877 1.3527075e-16,30.2278572 0,29.1232877 L0,15.4710345 L0,15.4710345 C0,10.6930726 8.40934379,8.76712329 11.9920228,8.76712329 Z M35.5491325,12.5914651 C31.0747604,12.5914651 27.9279492,15.9855685 27.9279492,20.3835616 C27.9279492,24.6859462 31.0747604,28.1756582 35.5491325,28.1756582 C40.0235046,28.1756582 43.1703158,24.6859462 43.1703158,20.3835616 C43.1703158,15.9855685 40.0235046,12.5914651 35.5491325,12.5914651 Z M60.5651887,12.3775505 C56.0908166,12.3775505 52.9440054,15.8090626 52.9440054,20.255529 C52.9440054,24.6053331 56.0908166,28.1335075 60.5651887,28.1335075 C65.0395609,28.1335075 68.186372,24.6053331 68.186372,20.255529 C68.186372,15.8090626 65.0395609,12.3775505 60.5651887,12.3775505 Z M85.9367439,12.5914651 C81.9481569,12.5914651 79.2060033,14.8860702 78.6575726,18.3279779 L92.7173417,18.3279779 C92.168911,14.8860702 89.7259015,12.5914651 85.9367439,12.5914651 Z"/>
      </g>
      <g fill="#8792A2" opacity=".499" transform="translate(212.682 49)">
        <rect width="29" height="26" y="4" opacity=".436" rx="10"/>
        <rect width="29" height="26" x="59" y="4" opacity=".536" rx="10"/>
        <rect width="29" height="26" x="295" y="4" opacity=".336" rx="10"/>
        <rect width="29" height="26" x="118" y="4" opacity=".636" rx="10"/>
        <rect width="29" height="26" x="177" y="4" opacity=".536" rx="10"/>
        <rect width="29" height="26" x="354" y="4" opacity=".236" rx="10"/>
        <rect width="29" height="26" x="742.002" y="3.998" opacity=".215" rx="10"/>
        <rect width="29" height="26" x="624.002" y="3.998" opacity=".236" rx="10"/>
        <rect width="32" height="33" x="798.002" y=".998" opacity=".277" rx="16"/>
        <rect width="29" height="26" x="236" y="4" opacity=".436" rx="10"/>
      </g>
      <rect width="29" height="26" x="895.684" y="52.998" fill="#000306" rx="10"/>
      <rect width="16" height="16" x="351.682" y="45" fill="#E02020" rx="3.5"/>
      <rect width="16" height="16" x="917.684" y="44.998" fill="#E02020" rx="3.5"/>
      <g fill="#FFF" transform="translate(486.682)">
        <rect width="94" height="10" rx="3.5"/>
        <rect width="94" height="10" x="114" rx="3.5"/>
        <rect width="94" height="10" x="228" rx="3.5"/>
        <rect width="94" height="10" x="342" rx="3.5"/>
        <rect width="94" height="10" x="462" rx="5"/>
      </g>
    </g>
    <mask id="notifications-d" fill="#fff">
      <use xlink:href="#notifications-c"/>
    </mask>
    <path stroke="#8792A2" stroke-opacity=".332" stroke-width=".5" d="M997,123.25 C998.311676,123.25 999.499176,123.781662 1000.35876,124.641243 C1001.21834,125.500824 1001.75,126.688324 1001.75,128 L1001.75,128 L1001.75,500.75 L600.25,500.75 L600.25,128 C600.25,126.688324 600.781662,125.500824 601.641243,124.641243 C602.500824,123.781662 603.688324,123.25 605,123.25 L605,123.25 Z"/>
    <path fill="#F1EFF8" d="M605,123 L997,123 C999.761424,123 1002,125.238576 1002,128 L1002,209 L1002,209 L600,209 L600,128 C600,125.238576 602.238576,123 605,123 Z" mask="url(#notifications-d)"/>
    <rect width="199" height="12" x="672" y="149" fill="#24124D" mask="url(#notifications-d)" opacity=".7" rx="5"/>
    <rect width="111" height="12" x="672" y="166" fill="#24124D" mask="url(#notifications-d)" opacity=".4" rx="5"/>
    <rect width="47" height="12" x="672" y="237" fill="#8792A2" mask="url(#notifications-d)" opacity=".24" rx="5"/>
    <rect width="160" height="12" x="729" y="237" fill="#8792A2" mask="url(#notifications-d)" opacity=".24" rx="5"/>
    <rect width="18" height="12" x="960" y="237" fill="#8792A2" mask="url(#notifications-d)" opacity=".48" rx="5"/>
    <rect width="18" height="12" x="960" y="158" fill="#24124D" mask="url(#notifications-d)" opacity=".7" rx="5"/>
    <rect width="32" height="32" x="620" y="148" fill="#24124D" mask="url(#notifications-d)" opacity=".4" rx="16"/>
    <rect width="378" height="69" x="610" y="208" mask="url(#notifications-d)" rx="5"/>
    <rect width="32" height="32" x="620" y="227" fill="#8792A2" mask="url(#notifications-d)" opacity=".28" rx="16"/>
    <rect width="378" height="69" x="612" y="287" mask="url(#notifications-d)" rx="5"/>
    <rect width="18" height="12" x="960" y="316" fill="#8792A2" mask="url(#notifications-d)" opacity=".24" rx="5"/>
    <rect width="18" height="12" x="960" y="395" fill="#8792A2" mask="url(#notifications-d)" opacity=".24" rx="5"/>
    <rect width="18" height="12" x="960" y="474" fill="#8792A2" mask="url(#notifications-d)" opacity=".24" rx="5"/>
    <rect width="26" height="12" x="924" y="237" fill="#8792A2" mask="url(#notifications-d)" opacity=".144" rx="5"/>
    <rect width="26" height="12" x="924" y="158" fill="#24124D" mask="url(#notifications-d)" opacity=".404" rx="5"/>
    <rect width="26" height="12" x="924" y="316" fill="#8792A2" mask="url(#notifications-d)" opacity=".144" rx="5"/>
    <rect width="26" height="12" x="924" y="395" fill="#8792A2" mask="url(#notifications-d)" opacity=".144" rx="5"/>
    <rect width="26" height="12" x="924" y="474" fill="#8792A2" mask="url(#notifications-d)" opacity=".144" rx="5"/>
    <rect width="199" height="12" x="672" y="308" fill="#8792A2" fill-opacity=".24" mask="url(#notifications-d)" rx="5"/>
    <rect width="111" height="12" x="672" y="325" fill="#8792A2" fill-opacity=".24" mask="url(#notifications-d)" rx="5"/>
    <rect width="199" height="12" x="672" y="385" fill="#8792A2" fill-opacity=".24" mask="url(#notifications-d)" rx="5"/>
    <rect width="60" height="12" x="672" y="402" fill="#8792A2" fill-opacity=".24" mask="url(#notifications-d)" rx="5"/>
    <rect width="90" height="12" x="672" y="474" fill="#8792A2" fill-opacity=".24" mask="url(#notifications-d)" rx="5"/>
    <rect width="32" height="32" x="622" y="306" fill="#8792A2" mask="url(#notifications-d)" opacity=".28" rx="16"/>
    <rect width="378" height="69" x="612" y="366" mask="url(#notifications-d)" rx="5"/>
    <rect width="32" height="32" x="622" y="385" fill="#8792A2" mask="url(#notifications-d)" opacity=".28" rx="16"/>
    <rect width="22" height="22" x="638" y="401" fill="#000306" mask="url(#notifications-d)" rx="11"/>
    <rect width="22" height="22" x="636" y="243" fill="#000306" mask="url(#notifications-d)" rx="11"/>
    <rect width="378" height="69" x="612" y="445" mask="url(#notifications-d)" rx="5"/>
    <rect width="32" height="32" x="622" y="464" fill="#8792A2" mask="url(#notifications-d)" opacity=".28" rx="16"/>
    <path stroke="#8792A2" stroke-opacity=".332" stroke-width=".5" d="M997,525.25 C998.311676,525.25 999.499176,525.781662 1000.35876,526.641243 C1001.21834,527.500824 1001.75,528.688324 1001.75,530 L1001.75,530 L1001.75,552.75 L600.25,552.75 L600.25,530 C600.25,528.688324 600.781662,527.500824 601.641243,526.641243 C602.500824,525.781662 603.688324,525.25 605,525.25 L605,525.25 Z"/>
    <rect width="401.5" height="25.5" x="600.25" y="500.25" stroke="#8792A2" stroke-opacity=".332" stroke-width=".5"/>
    <rect width="145" height="8" x="729" y="510" fill="#8792A2" fill-opacity=".24" rx="4"/>
    <rect width="145" height="8" x="729" y="536" fill="#8792A2" fill-opacity=".24" rx="4"/>
  </g>
</svg>
