<svg xmlns="http://www.w3.org/2000/svg" width="50" height="50" viewBox="0 0 50 50">
  <g fill="none" fill-rule="evenodd" transform="translate(4 4)">
    <polyline fill="#FFFFFE" points="41.071 .166 13.872 .166 13.872 13.766 .272 13.766 .272 40.965 27.472 40.965 27.472 27.365 41.071 27.365 41.071 .166"/>
    <polyline fill="#A7DAE7" points=".272 27.365 .272 13.766 13.872 13.766 .272 13.766 .272 27.365"/>
    <polyline fill="#2A2F45" points="27.472 40.965 13.872 40.965 13.872 27.365 .272 27.365 .272 13.766 13.872 13.766 13.872 27.365 27.472 27.365 27.472 40.965" opacity=".5"/>
    <polygon fill="#2A2F45" points=".272 40.965 13.872 40.965 13.872 27.365 .272 27.365"/>
    <path fill="#00B0D4" d="M41.0716504,27.3653961 L41.0716504,27.3653961 L41.0713299,13.7655458 L41.0716504,13.7655458 L41.0716504,27.3653961 M27.4718001,0.165695494 L13.8719499,0.165695494 L27.4718001,0.165695494"/>
    <polyline fill="#2A2F45" points="41.072 27.365 27.472 27.365 27.472 13.766 13.872 13.766 13.872 .166 27.472 .166 27.472 13.766 41.072 13.766 41.071 27.365" opacity=".8"/>
    <polygon fill="#2A2F45" points="13.872 27.365 27.472 27.365 27.472 13.766 13.872 13.766" opacity=".8"/>
    <polygon fill="#2A2F45" points="27.472 13.766 41.071 13.766 41.071 .166 27.472 .166"/>
  </g>
</svg>
