<svg xmlns="http://www.w3.org/2000/svg" width="50" height="50" viewBox="0 0 50 50">
  <path fill="#2A2F45" d="M8.85781991 26.5336493C8.85781991 28.9753555 6.88720379 30.9459716 4.44549763 30.9459716 2.00379147 30.9459716.0331753555 28.9687204.0331753555 26.5336493.0331753555 24.0985782 2.00379147 22.121327 4.44549763 22.121327L8.85781991 22.121327 8.85781991 26.5336493zM11.0606635 26.5336493C11.0606635 24.0919431 13.0312796 22.121327 15.4729858 22.121327 17.9146919 22.121327 19.8853081 24.0919431 19.8853081 26.5336493L19.8853081 37.5611374C19.8853081 40.0028436 17.9146919 41.9734597 15.4729858 41.9734597 13.0312796 41.9734597 11.0606635 40.0028436 11.0606635 37.5611374L11.0606635 26.5336493zM15.4729858 8.82464455C13.0312796 8.82464455 11.0606635 6.85402844 11.0606635 4.41232227 11.0606635 1.97061611 13.0312796 0 15.4729858 0 17.9146919 0 19.8853081 1.97061611 19.8853081 4.41232227L19.8853081 8.82464455 15.4729858 8.82464455zM15.4729858 11.0606635C17.9146919 11.0606635 19.8853081 13.0312796 19.8853081 15.4729858 19.8853081 17.9146919 17.9146919 19.8853081 15.4729858 19.8853081L4.41232227 19.8853081C1.97061611 19.8853081 0 17.9080569 0 15.4729858 0 13.0379147 1.97061611 11.0606635 4.41232227 11.0606635L15.4729858 11.0606635zM33.1488152 15.4729858C33.1488152 13.0312796 35.1194313 11.0606635 37.5611374 11.0606635 40.0028436 11.0606635 41.9734597 13.0312796 41.9734597 15.4729858 41.9734597 17.9146919 40.0028436 19.8853081 37.5611374 19.8853081L33.1488152 19.8853081 33.1488152 15.4729858zM30.9459716 15.4729858C30.9459716 17.9146919 28.9753555 19.8853081 26.5336493 19.8853081 24.0919431 19.8853081 22.121327 17.9146919 22.121327 15.4729858L22.121327 4.41232227C22.121327 1.97061611 24.0919431 0 26.5336493 0 28.9753555 0 30.9459716 1.97061611 30.9459716 4.41232227L30.9459716 15.4729858zM26.5336493 33.1488152C28.9753555 33.1488152 30.9459716 35.1194313 30.9459716 37.5611374 30.9459716 40.0028436 28.9753555 41.9734597 26.5336493 41.9734597 24.0919431 41.9734597 22.121327 40.0028436 22.121327 37.5611374L22.121327 33.1488152 26.5336493 33.1488152zM26.5336493 30.9459716C24.0919431 30.9459716 22.121327 28.9753555 22.121327 26.5336493 22.121327 24.0919431 24.0919431 22.121327 26.5336493 22.121327L37.5943128 22.121327C40.036019 22.121327 42.0066351 24.0919431 42.0066351 26.5336493 42.0066351 28.9753555 40.036019 30.9459716 37.5943128 30.9459716L26.5336493 30.9459716z" transform="translate(4 4)"/>
</svg>
