<svg xmlns="http://www.w3.org/2000/svg" width="50" height="50" viewBox="0 0 50 50">
  <g fill="#2A2F45" transform="translate(4 4)">
    <path d="M20.9750648,0 C9.39682905,0 0,9.39682905 0,20.9750648 C0,32.5533006 9.39682905,41.9501297 20.9750648,41.9501297 C32.5533006,41.9501297 41.9501297,32.5533006 41.9501297,20.9750648 C41.9501297,9.39682905 32.5533006,0 20.9750648,0 Z M20.9750648,36.4127126 C12.4172384,36.4127126 5.53741712,29.5328913 5.53741712,20.9750648 C5.53741712,12.4172384 12.4172384,5.53741712 20.9750648,5.53741712 C29.5328913,5.53741712 36.4127126,12.4172384 36.4127126,20.9750648 C36.4127126,29.5328913 29.5328913,36.4127126 20.9750648,36.4127126 Z"/>
    <circle cx="26.177" cy="15.773" r="4.363"/>
    <circle cx="26.177" cy="26.177" r="4.363"/>
    <circle cx="15.773" cy="26.177" r="4.363"/>
    <circle cx="15.773" cy="15.773" r="4.363"/>
  </g>
</svg>
