<svg xmlns="http://www.w3.org/2000/svg" width="1124" height="866" viewBox="0 0 1124 866">
  <defs>
    <linearGradient id="view-topic-a" x1="50.007%" x2="50.007%" y1="-141.4%" y2="-47.015%">
      <stop offset="0%" stop-color="#2A6CBE"/>
      <stop offset="38.688%" stop-color="#2062BC"/>
      <stop offset="49.182%" stop-color="#1F5FBC"/>
      <stop offset="66.583%" stop-color="#1C5ABD"/>
      <stop offset="85.354%" stop-color="#1956BC"/>
      <stop offset="100%" stop-color="#1851BE"/>
    </linearGradient>
    <linearGradient id="view-topic-b" x1="50.007%" x2="50.007%" y1="-141.4%" y2="-47.015%">
      <stop offset="0%" stop-color="#2A6CBE"/>
      <stop offset="38.688%" stop-color="#2062BC"/>
      <stop offset="49.182%" stop-color="#1F5FBC"/>
      <stop offset="66.583%" stop-color="#1C5ABD"/>
      <stop offset="85.354%" stop-color="#1956BC"/>
      <stop offset="100%" stop-color="#1851BE"/>
    </linearGradient>
  </defs>
  <g fill="none" fill-rule="evenodd">
    <g transform="translate(-6 -137)">
      <path fill="#8792A2" d="M104.88691,47.793995 C113.723466,47.793995 120.88691,54.957439 120.88691,63.793995 C120.88691,72.630551 113.723466,79.793995 104.88691,79.793995 L16.8869101,79.793995 C8.05035407,79.793995 0.886910062,72.630551 0.886910062,63.793995 C0.886910062,54.957439 8.05035407,47.793995 16.8869101,47.793995 L104.88691,47.793995 Z M992.88691,0.793994996 C1001.72347,0.793994996 1008.88691,7.957439 1008.88691,16.793995 C1008.88691,25.630551 1001.72347,32.793995 992.88691,32.793995 L16.8869101,32.793995 C8.05035407,32.793995 0.886910062,25.630551 0.886910062,16.793995 C0.886910062,7.957439 8.05035407,0.793994996 16.8869101,0.793994996 L992.88691,0.793994996 Z" opacity=".2" transform="translate(56.113 233.206)"/>
      <ellipse cx="35.031" cy="35.029" fill="#8792A2" opacity=".3" rx="35.031" ry="35.029" transform="translate(56.036 365.304)"/>
      <ellipse cx="10.361" cy="10.361" fill="#91BB54" stroke="#FFF" stroke-width="4" rx="8.361" ry="8.361" transform="translate(106 364)"/>
      <path fill="#8792A2" d="M65.4493971 35.4840882C72.356314 35.4840882 77.9554764 41.0832506 77.9554764 47.9901675 77.9554764 54.8970844 72.356314 60.4962469 65.4493971 60.4962469L13.3929894 60.4962469C6.4860725 60.4962469.886910062 54.8970844.886910062 47.9901675.886910062 41.0832506 6.4860725 35.4840882 13.3929894 35.4840882L65.4493971 35.4840882zM385.576735 35.4840882C392.483651 35.4840882 398.082814 41.0832506 398.082814 47.9901675 398.082814 54.8970844 392.483651 60.4962469 385.576735 60.4962469L385.576735 60.4962469 100.392989 60.4962469C93.4860725 60.4962469 87.8869101 54.8970844 87.8869101 47.9901675 87.8869101 41.0832506 93.4860725 35.4840882 100.392989 35.4840882L100.392989 35.4840882zM525.380831.496246872C532.287748.496246872 537.88691 6.09540931 537.88691 13.0023262 537.88691 19.9092431 532.287748 25.5084056 525.380831 25.5084056L13.3929894 25.5084056C6.4860725 25.5084056.886910062 19.9092431.886910062 13.0023262.886910062 6.09540931 6.4860725.496246872 13.3929894.496246872L525.380831.496246872zM829.380831.496246872C836.287748.496246872 841.88691 6.09540931 841.88691 13.0023262 841.88691 19.9092431 836.287748 25.5084056 829.380831 25.5084056L560.392989 25.5084056C553.486073 25.5084056 547.88691 19.9092431 547.88691 13.0023262 547.88691 6.09540931 553.486073.496246872 560.392989.496246872L829.380831.496246872zM124.38691 105.496247C131.290469 105.496247 136.88691 111.092687 136.88691 117.996247 136.88691 124.899806 131.290469 130.496247 124.38691 130.496247L13.3869101 130.496247C6.48335069 130.496247.886910062 124.899806.886910062 117.996247.886910062 111.092687 6.48335069 105.496247 13.3869101 105.496247L124.38691 105.496247zM300.38691 105.496247C307.290469 105.496247 312.88691 111.092687 312.88691 117.996247 312.88691 124.899806 307.290469 130.496247 300.38691 130.496247L300.38691 130.496247 159.38691 130.496247C152.483351 130.496247 146.88691 124.899806 146.88691 117.996247 146.88691 111.092687 152.483351 105.496247 159.38691 105.496247L159.38691 105.496247z" opacity=".2" transform="translate(142.113 406.504)"/>
      <g transform="translate(57 675)">
        <ellipse cx="35.031" cy="36.333" fill="#8792A2" opacity=".3" rx="35.031" ry="35.029"/>
        <ellipse cx="60.326" cy="10.361" fill="#8792A2" stroke="#FFF" stroke-width="4" rx="8.361" ry="8.361"/>
        <path fill="#8792A2" d="M360.458302,77.9878413 C367.365219,77.9878413 372.964381,83.5870038 372.964381,90.4939207 C372.964381,97.4008376 367.365219,103 360.458302,103 L99.4704605,103 C92.5635436,103 86.9643811,97.4008376 86.9643811,90.4939207 C86.9643811,83.5870038 92.5635436,77.9878413 99.4704605,77.9878413 L360.458302,77.9878413 Z M421.458302,43 C428.365219,43 433.964381,48.5991624 433.964381,55.5060793 C433.964381,62.4129962 428.365219,68.0121587 421.458302,68.0121587 L99.4704605,68.0121587 C92.5635436,68.0121587 86.9643811,62.4129962 86.9643811,55.5060793 C86.9643811,48.5991624 92.5635436,43 99.4704605,43 L421.458302,43 Z M915.458302,43 C922.365219,43 927.964381,48.5991624 927.964381,55.5060793 C927.964381,62.4129962 922.365219,68.0121587 915.458302,68.0121587 L456.47046,68.0121587 C449.563544,68.0121587 443.964381,62.4129962 443.964381,55.5060793 C443.964381,48.5991624 449.563544,43 456.47046,43 L915.458302,43 Z" opacity=".2"/>
        <rect width="60" height="18" x="86.964" fill="#1851BE" rx="9"/>
        <g transform="translate(156.964)">
          <rect width="42" height="18" fill="#1851BE" opacity=".2" rx="9"/>
          <rect width="44" height="18" x="47.036" fill="#91BB54" opacity=".2" rx="9"/>
          <rect width="26" height="5" x="8" y="6" fill="#1851BE" rx="2.5"/>
          <rect width="28" height="5" x="55.036" y="6" fill="#91BB54" rx="2.5"/>
        </g>
        <rect width="110" height="18" x="258" fill="#8792A2" opacity=".1" rx="9"/>
      </g>
      <g transform="translate(502 601)">
        <g transform="translate(94)">
          <path fill="url(#view-topic-a)" d="M5,0 L132,0 L132,0 L132,42 L5,42 C2.23857625,42 3.38176876e-16,39.7614237 0,37 L0,5 C-3.38176876e-16,2.23857625 2.23857625,5.07265313e-16 5,0 Z"/>
          <rect width="16" height="10" x="26" y="16" fill="#5C84D1" rx="3"/>
          <rect width="58" height="9" x="52" y="16" fill="#5C84D1" rx="3"/>
          <path fill="url(#view-topic-b)" d="M132,0 L153,0 C155.761424,-5.07265313e-16 158,2.23857625 158,5 L158,37 C158,39.7614237 155.761424,42 153,42 L132,42 L132,42 L132,0 Z" opacity=".262"/>
          <rect width="9" height="10" x="141" y="16" fill="#1851BE" rx="3"/>
        </g>
        <rect width="34" height="18" x="50" y="4" fill="#8792A2" opacity=".2" rx="3"/>
        <rect width="33" height="18" y="4" fill="#8792A2" opacity=".2" rx="3"/>
        <rect width="33" height="10.008" y="28.047" fill="#8792A2" opacity=".1" rx="3"/>
        <rect width="33" height="10.008" x="51" y="28.047" fill="#8792A2" opacity=".1" rx="3"/>
        <g transform="translate(261.872)">
          <rect width="97" height="41" x=".628" y=".5" stroke="#8792A2" stroke-opacity=".24" rx="5"/>
          <rect width="52" height="10" x="32.199" y="15.955" fill="#8792A2" opacity=".176" rx="3"/>
          <rect width="14" height="10" x="13.199" y="15.955" fill="#8792A2" opacity=".376" rx="3"/>
          <rect width="120" height="41" x="108.628" y=".5" stroke="#8792A2" stroke-opacity=".24" rx="5"/>
          <rect width="18" height="10" x="138.128" y="16" fill="#8792A2" opacity=".176" rx="3"/>
          <rect width="38" height="10" x="160.128" y="16" fill="#8792A2" opacity=".176" rx="3" transform="matrix(-1 0 0 1 358.256 0)"/>
          <rect width="14" height="10" x="119.128" y="16" fill="#8792A2" opacity=".376" rx="3"/>
          <rect width="14" height="10" x="203.128" y="16" fill="#8792A2" opacity=".725" rx="3"/>
          <rect width="14" height="10" x="314.057" y="16.045" fill="#8792A2" opacity=".725" rx="3"/>
          <rect width="97" height="41" x="239.628" y=".5" stroke="#8792A2" stroke-opacity=".24" rx="5"/>
          <rect width="42" height="10" x="267.128" y="16" fill="#8792A2" opacity=".176" rx="3"/>
          <rect width="14" height="10" x="248.128" y="16" fill="#8792A2" opacity=".376" rx="3"/>
        </g>
      </g>
      <g transform="translate(501 934)">
        <g transform="translate(94)">
          <path fill="url(#view-topic-a)" d="M5,0 L132,0 L132,0 L132,42 L5,42 C2.23857625,42 3.38176876e-16,39.7614237 0,37 L0,5 C-3.38176876e-16,2.23857625 2.23857625,5.07265313e-16 5,0 Z"/>
          <rect width="16" height="10" x="26" y="16" fill="#5C84D1" rx="3"/>
          <rect width="58" height="9" x="52" y="16" fill="#5C84D1" rx="3"/>
          <path fill="url(#view-topic-b)" d="M132,0 L153,0 C155.761424,-5.07265313e-16 158,2.23857625 158,5 L158,37 C158,39.7614237 155.761424,42 153,42 L132,42 L132,42 L132,0 Z" opacity=".262"/>
          <rect width="9" height="10" x="141" y="16" fill="#1851BE" rx="3"/>
        </g>
        <rect width="34" height="18" x="50" y="4" fill="#8792A2" opacity=".2" rx="3"/>
        <rect width="33" height="18" y="4" fill="#8792A2" opacity=".2" rx="3"/>
        <rect width="33" height="10.008" y="28.047" fill="#8792A2" opacity=".1" rx="3"/>
        <rect width="33" height="10.008" x="51" y="28.047" fill="#8792A2" opacity=".1" rx="3"/>
        <g transform="translate(261.872)">
          <rect width="97" height="41" x=".628" y=".5" stroke="#8792A2" stroke-opacity=".24" rx="5"/>
          <rect width="52" height="10" x="32.199" y="15.955" fill="#8792A2" opacity=".176" rx="3"/>
          <rect width="14" height="10" x="13.199" y="15.955" fill="#8792A2" opacity=".376" rx="3"/>
          <rect width="120" height="41" x="108.628" y=".5" stroke="#8792A2" stroke-opacity=".24" rx="5"/>
          <rect width="18" height="10" x="138.128" y="16" fill="#8792A2" opacity=".176" rx="3"/>
          <rect width="38" height="10" x="160.128" y="16" fill="#8792A2" opacity=".176" rx="3" transform="matrix(-1 0 0 1 358.256 0)"/>
          <rect width="14" height="10" x="119.128" y="16" fill="#8792A2" opacity=".376" rx="3"/>
          <rect width="14" height="10" x="203.128" y="16" fill="#8792A2" opacity=".725" rx="3"/>
          <rect width="14" height="10" x="314.057" y="16.045" fill="#8792A2" opacity=".725" rx="3"/>
          <rect width="97" height="41" x="239.628" y=".5" stroke="#8792A2" stroke-opacity=".24" rx="5"/>
          <rect width="42" height="10" x="267.128" y="16" fill="#8792A2" opacity=".176" rx="3"/>
          <rect width="14" height="10" x="248.128" y="16" fill="#8792A2" opacity=".376" rx="3"/>
        </g>
      </g>
      <g transform="translate(956 571)">
        <rect width="40" height="10.008" fill="#1851BE" rx="3"/>
        <rect width="40" height="10.008" x="45" fill="#1851BE" rx="3"/>
        <rect width="6" height="10.008" x="114.949" fill="#8792A2" opacity=".164" rx="3"/>
        <rect width="6" height="10.008" x="90.949" fill="#8792A2" opacity=".164" rx="3"/>
        <rect width="12" height="10.008" x="99.753" y=".039" fill="#8792A2" opacity=".241" rx="3"/>
        <rect width="12" height="10.008" x="130.949" fill="#8792A2" opacity=".44" rx="3"/>
      </g>
      <g transform="translate(956 802)">
        <rect width="40" height="10.008" fill="#1851BE" rx="3"/>
        <rect width="40" height="10.008" x="45" fill="#1851BE" rx="3"/>
        <rect width="6" height="10.008" x="114.949" fill="#8792A2" opacity=".164" rx="3"/>
        <rect width="6" height="10.008" x="90.949" fill="#8792A2" opacity=".164" rx="3"/>
        <rect width="12" height="10.008" x="99.753" y=".039" fill="#8792A2" opacity=".241" rx="3"/>
        <rect width="12" height="10.008" x="130.949" fill="#8792A2" opacity=".44" rx="3"/>
      </g>
      <g transform="translate(59 811)">
        <ellipse cx="35.031" cy="36.333" fill="#8792A2" opacity=".3" rx="35.031" ry="35.029"/>
        <ellipse cx="60.326" cy="10.361" fill="#91BB54" stroke="#FFF" stroke-width="4" rx="8.361" ry="8.361"/>
        <rect width="443" height="25" x="86.964" y="43" fill="#8792A2" opacity=".2" rx="12.5"/>
        <rect width="60" height="18" x="86.964" fill="#1851BE" rx="9"/>
        <rect width="110" height="18" x="156.964" fill="#8792A2" opacity=".12" rx="9"/>
      </g>
      <g transform="translate(956 903)">
        <rect width="40" height="10.008" fill="#1851BE" rx="3"/>
        <rect width="40" height="10.008" x="45" fill="#1851BE" rx="3"/>
        <rect width="6" height="10.008" x="114.949" fill="#8792A2" opacity=".164" rx="3"/>
        <rect width="6" height="10.008" x="90.949" fill="#8792A2" opacity=".164" rx="3"/>
        <rect width="12" height="10.008" x="99.753" y=".039" fill="#8792A2" opacity=".241" rx="3"/>
        <rect width="12" height="10.008" x="130.949" fill="#8792A2" opacity=".44" rx="3"/>
      </g>
    </g>
    <rect width="60" height="18" x="50" y="21" fill="#1851BE" rx="9"/>
    <rect width="12" height="8" x="115" y="26" fill="#8792A2" opacity=".241" rx="3"/>
    <rect width="12" height="8" x="220" y="26" fill="#8792A2" opacity=".241" rx="3"/>
    <rect width="83" height="18" x="132" y="21" fill="#1851BE" rx="9"/>
    <rect width="218" height="18" x="237" y="21" fill="#8792A2" opacity=".141" rx="9"/>
    <rect width="26" height="18" x="465" y="21" fill="#8792A2" opacity=".261" rx="9"/>
    <rect width="60" height="18" x="137" y="227" fill="#1851BE" rx="9"/>
    <rect width="110" height="18" x="207" y="227" fill="#8792A2" opacity=".1" rx="9"/>
  </g>
</svg>
