<svg xmlns="http://www.w3.org/2000/svg" xmlns:xlink="http://www.w3.org/1999/xlink" width="2560" height="1600" viewBox="0 0 2560 1600">
  <defs>
    <rect id="view-responsive-desktop-a" width="2560" height="1600" x="0" y="0" rx="2"/>
  </defs>
  <g fill="none" fill-rule="evenodd">
    <mask id="view-responsive-desktop-b" fill="#fff">
      <use xlink:href="#view-responsive-desktop-a"/>
    </mask>
    <g mask="url(#view-responsive-desktop-b)">
      <g transform="translate(0 -190)">
        <rect width="2560" height="1600" y="190" fill="#FFF"/>
        <g transform="translate(95)">
          <g fill="#FFF" opacity=".296" transform="translate(75.372 231.631)">
            <rect width="91.756" height="29.18" rx="3"/>
            <rect width="190.394" height="29.18" x="114.695" rx="3"/>
          </g>
          <g transform="translate(0 240)">
            <g transform="translate(6.66 318.99)">
              <rect width="133.058" height="105.554" x="998.733" y=".231" fill="#8792A2" opacity=".322" rx="10"/>
              <rect width="130.764" height="105.554" x="801.44" y=".231" fill="#8792A2" opacity=".322" rx="10"/>
              <rect width="130.764" height="22.947" x="801.44" y="126.44" fill="#ECEEF0" rx="11.473"/>
              <rect width="130.764" height="22.947" x="1001.027" y="126.44" fill="#ECEEF0" rx="11.473"/>
              <rect width="27.505" height="151.321" x="1185.483" fill="#F84F77" rx="13.752"/>
              <rect width="57.353" height="57.367" x="1265.138" y=".231" fill="#8792A2" opacity=".32" rx="28.676"/>
              <rect width="130.764" height="22.947" x="1345.513" y="19.055" fill="#8792A2" opacity=".164" rx="11.473"/>
              <rect width="284.47" height="22.947" x="1265.22" y="71.832" fill="#8792A2" opacity=".164" rx="11.473"/>
              <rect width="110.117" height="22.947" x="1561.16" y="71.832" fill="#8792A2" opacity=".164" rx="11.473"/>
              <rect width="121.588" height="22.947" x="1265.22" y="106.252" fill="#8792A2" opacity=".164" rx="11.473"/>
              <ellipse cx="73.982" cy="75.111" fill="#8792A2" opacity=".24" rx="73.982" ry="74"/>
              <path fill="#8792A2" d="M399.298267,57.3187466 C408.162022,57.3187466 415.347516,64.5042401 415.347516,73.3679956 C415.347516,82.2317511 408.162022,89.4172446 399.298267,89.4172446 L209.06601,89.4172446 C200.202255,89.4172446 193.016761,82.2317511 193.016761,73.3679956 C193.016761,64.5042401 200.202255,57.3187466 209.06601,57.3187466 L399.298267,57.3187466 Z M605.584534,57.3187466 C614.448289,57.3187466 621.633783,64.5042401 621.633783,73.3679956 C621.633783,82.2317511 614.448289,89.4172446 605.584534,89.4172446 L605.584534,89.4172446 L447.441252,89.4172446 C438.577497,89.4172446 431.392003,82.2317511 431.392003,73.3679956 C431.392003,64.5042401 438.577497,57.3187466 447.441252,57.3187466 L447.441252,57.3187466 Z" opacity=".28"/>
            </g>
            <rect width="133.058" height="105.554" x="1005.394" y="592.287" fill="#8792A2" opacity=".322" rx="10"/>
            <rect width="130.764" height="105.554" x="808.101" y="592.287" fill="#8792A2" opacity=".322" rx="10"/>
            <rect width="133.058" height="105.554" x="1005.394" y="865.351" fill="#8792A2" opacity=".322" rx="10"/>
            <rect width="130.764" height="105.554" x="808.101" y="865.351" fill="#8792A2" opacity=".322" rx="10"/>
            <rect width="133.058" height="105.554" x="1005.394" y="1184.271" fill="#8792A2" opacity=".322" rx="3"/>
            <rect width="130.764" height="105.554" x="808.101" y="1184.271" fill="#8792A2" opacity=".322" rx="3"/>
            <rect width="133.058" height="105.554" x="1005.394" y="1482.556" fill="#8792A2" opacity=".322" rx="3"/>
            <rect width="130.764" height="105.554" x="808.101" y="1482.556" fill="#8792A2" opacity=".322" rx="3"/>
            <rect width="130.764" height="22.947" x="808.101" y="718.495" fill="#ECEEF0" rx="11.473"/>
            <rect width="130.764" height="22.947" x="1007.688" y="718.495" fill="#ECEEF0" rx="11.473"/>
            <rect width="130.764" height="22.947" x="808.101" y="991.56" fill="#ECEEF0" rx="11.473"/>
            <rect width="130.764" height="22.947" x="1007.688" y="991.56" fill="#ECEEF0" rx="11.473"/>
            <rect width="130.764" height="22.947" x="808.101" y="1310.48" fill="#ECEEF0" rx="3"/>
            <rect width="130.764" height="22.947" x="1007.688" y="1310.48" fill="#ECEEF0" rx="3"/>
            <rect width="27.505" height="151.321" x="1192.144" y="591.828" fill="#1851BE" rx="13.752"/>
            <rect width="27.505" height="151.321" x="1192.144" y="862.372" fill="#BCCCEB" rx="13.752"/>
            <rect width="27.505" height="151.321" x="1192.144" y="1183.357" fill="#512DA8" rx="3"/>
            <rect width="27.505" height="151.321" x="1192.144" y="1481.415" fill="#8369C0" rx="3"/>
            <rect width="57.353" height="57.367" x="1271.799" y="592.287" fill="#8792A2" opacity=".32" rx="28.676"/>
            <rect width="57.353" height="57.367" x="1271.799" y="865.351" fill="#8792A2" opacity=".32" rx="28.676"/>
            <rect width="57.353" height="57.367" x="1271.799" y="1184.271" fill="#8792A2" opacity=".32" rx="11.5"/>
            <rect width="57.353" height="57.367" x="1271.799" y="1482.556" fill="#8792A2" opacity=".32" rx="11.5"/>
            <rect width="130.764" height="22.947" x="1352.174" y="611.111" fill="#8792A2" opacity=".164" rx="11.473"/>
            <rect width="284.47" height="22.947" x="1271.88" y="663.888" fill="#8792A2" opacity=".164" rx="11.473"/>
            <rect width="110.117" height="22.947" x="1567.821" y="663.888" fill="#8792A2" opacity=".164" rx="11.473"/>
            <rect width="121.588" height="22.947" x="1271.88" y="698.308" fill="#8792A2" opacity=".164" rx="11.473"/>
            <rect width="130.764" height="22.947" x="1352.174" y="884.175" fill="#8792A2" opacity=".164" rx="11.473"/>
            <rect width="169.764" height="22.947" x="1271.88" y="936.953" fill="#8792A2" opacity=".164" rx="11.473"/>
            <rect width="224.823" height="22.947" x="1453.115" y="936.953" fill="#8792A2" opacity=".164" rx="11.473"/>
            <rect width="252.352" height="22.947" x="1271.88" y="971.334" fill="#8792A2" opacity=".164" rx="11.473"/>
            <rect width="130.764" height="22.947" x="1352.174" y="1203.095" fill="#8792A2" opacity=".164" rx="3"/>
            <rect width="233.999" height="22.947" x="1271.88" y="1255.872" fill="#8792A2" opacity=".164" rx="3"/>
            <rect width="121.588" height="22.947" x="1271.88" y="1290.292" fill="#8792A2" opacity=".164" rx="3"/>
            <rect width="160.588" height="22.947" x="1404.939" y="1290.292" fill="#8792A2" opacity=".164" rx="3"/>
            <rect width="130.764" height="22.947" x="1352.174" y="1501.38" fill="#8792A2" opacity=".164" rx="3"/>
            <ellipse cx="80.643" cy="668.479" fill="#8792A2" opacity=".24" rx="80.294" ry="80.313"/>
            <path fill="#8792A2" d="M364.701786,649.146518 C373.565541,649.146518 380.751035,656.332011 380.751035,665.195767 C380.751035,674.059522 373.565541,681.245016 364.701786,681.245016 L215.726783,681.245016 C206.863027,681.245016 199.677534,674.059522 199.677534,665.195767 C199.677534,656.332011 206.863027,649.146518 215.726783,649.146518 L364.701786,649.146518 Z M655.794629,649.146518 C664.658385,649.146518 671.843878,656.332011 671.843878,665.195767 C671.843878,674.059522 664.658385,681.245016 655.794629,681.245016 L655.794629,681.245016 L415.136841,681.245016 C406.273085,681.245016 399.087592,674.059522 399.087592,665.195767 C399.087592,656.332011 406.273085,649.146518 415.136841,649.146518 L415.136841,649.146518 Z" opacity=".28"/>
            <rect width="412.573" height="35.481" x="199.937" y="592.755" fill="#8792A2" opacity=".28" rx="17.741"/>
            <ellipse cx="80.643" cy="941.544" fill="#8792A2" opacity=".24" rx="80.294" ry="80.313"/>
            <ellipse cx="218.014" cy="1025.158" fill="#1851BE" rx="20.629" ry="20.635"/>
            <rect width="139" height="27.513" x="257.103" y="1011.401" fill="#ECEEF0" rx="13.756"/>
            <rect width="105" height="27.513" x="257.103" y="1064.134" fill="#ECEEF0" rx="13.756"/>
            <ellipse cx="218.014" cy="1077.891" fill="#F84F77" rx="20.629" ry="20.635"/>
            <ellipse cx="474.726" cy="1025.158" fill="#BCCCEB" rx="20.629" ry="20.635"/>
            <rect width="139" height="27.513" x="516" y="1064.026" fill="#ECEEF0" rx="13.756"/>
            <rect width="193" height="27.513" x="516" y="1009" fill="#ECEEF0" rx="13.756"/>
            <ellipse cx="218.014" cy="1339.264" fill="#512DA8" rx="20.629" ry="20.635"/>
            <rect width="158.153" height="27.513" x="250.103" y="1325.508" fill="#ECEEF0" rx="5"/>
            <ellipse cx="474.726" cy="1339.264" fill="#8369C0" rx="20.629" ry="20.635"/>
            <rect width="146.692" height="27.513" x="506.815" y="1325.508" fill="#ECEEF0" rx="5"/>
            <ellipse cx="474.629" cy="1077.635" fill="#8267BF" rx="20.629" ry="20.635"/>
            <rect width="529.468" height="32.098" x="199.678" y="921.984" fill="#8792A2" opacity=".28" rx="16.049"/>
            <rect width="373.607" height="35.481" x="199.937" y="865.82" fill="#8792A2" opacity=".28" rx="17.741"/>
            <ellipse cx="80.643" cy="1260.464" fill="#8792A2" opacity=".24" rx="80.294" ry="80.313"/>
            <path fill="#8792A2" d="M362.290687,1240.67598 C366.15668,1240.67598 369.290687,1243.80999 369.290687,1247.67598 L369.290687,1265.77448 C369.290687,1269.64047 366.15668,1272.77448 362.290687,1272.77448 L206.677534,1272.77448 C202.811541,1272.77448 199.677534,1269.64047 199.677534,1265.77448 L199.677534,1247.67598 C199.677534,1243.80999 202.811541,1240.67598 206.677534,1240.67598 L362.290687,1240.67598 Z M628.170764,1240.67598 C632.036757,1240.67598 635.170764,1243.80999 635.170764,1247.67598 L635.170764,1247.67598 L635.170764,1265.77448 C635.170764,1269.64047 632.036757,1272.77448 628.170764,1272.77448 L628.170764,1272.77448 L399.211383,1272.77448 C395.34539,1272.77448 392.211383,1269.64047 392.211383,1265.77448 L392.211383,1265.77448 L392.211383,1247.67598 C392.211383,1243.80999 395.34539,1240.67598 399.211383,1240.67598 L399.211383,1240.67598 Z" opacity=".4"/>
            <rect width="284.217" height="35.481" x="199.937" y="1184.74" fill="#8792A2" opacity=".4" rx="10.238"/>
            <ellipse cx="80.643" cy="1556.456" fill="#8792A2" opacity=".24" rx="80.294" ry="80.313"/>
            <path fill="#8792A2" d="M440.221054,1538.73346 C444.087047,1538.73346 447.221054,1541.86747 447.221054,1545.73346 L447.221054,1563.83196 C447.221054,1567.69796 444.087047,1570.83196 440.221054,1570.83196 L206.677534,1570.83196 C202.811541,1570.83196 199.677534,1567.69796 199.677534,1563.83196 L199.677534,1545.73346 C199.677534,1541.86747 202.811541,1538.73346 206.677534,1538.73346 L440.221054,1538.73346 Z M674.012157,1538.73346 C677.87815,1538.73346 681.012157,1541.86747 681.012157,1545.73346 L681.012157,1545.73346 L681.012157,1563.83196 C681.012157,1567.69796 677.87815,1570.83196 674.012157,1570.83196 L674.012157,1570.83196 L472.557611,1570.83196 C468.691618,1570.83196 465.557611,1567.69796 465.557611,1563.83196 L465.557611,1563.83196 L465.557611,1545.73346 C465.557611,1541.86747 468.691618,1538.73346 472.557611,1538.73346 L472.557611,1538.73346 Z" opacity=".4"/>
            <rect width="428.617" height="35.481" x="199.937" y="1480.732" fill="#8792A2" opacity=".4" rx="10.238"/>
            <rect width="538.636" height="275.13" x="1829.339" y="316.698" fill="#D7D0E9" opacity=".498" rx="12"/>
            <rect width="137.524" height="22.927" x="1859.136" y="353.382" fill="#512DA8" opacity=".666" rx="11.464"/>
            <rect width="332.35" height="22.927" x="2008.12" y="353.382" fill="#512DA8" opacity=".298" rx="11.464"/>
            <rect width="481.335" height="22.927" x="1859.136" y="396.944" fill="#512DA8" opacity=".298" rx="11.464"/>
            <rect width="332.35" height="22.927" x="1859.136" y="440.506" fill="#512DA8" opacity=".298" rx="11.464"/>
            <rect width="224.623" height="22.927" x="1859.136" y="484.069" fill="#512DA8" opacity=".298" rx="11.464"/>
            <rect width="538.636" height="275.13" x="1829.339" y="614.755" fill="#D7D0E9" opacity=".498" rx="12"/>
            <rect width="201.702" height="22.927" x="1859.136" y="651.439" fill="#512DA8" opacity=".673" rx="11.464"/>
            <rect width="268.172" height="22.927" x="2072.298" y="651.439" fill="#512DA8" opacity=".298" rx="11.464"/>
            <rect width="444.662" height="22.927" x="1859.136" y="695.002" fill="#512DA8" opacity=".298" rx="11.464"/>
            <rect width="481.335" height="22.927" x="1859.136" y="738.564" fill="#512DA8" opacity=".298" rx="11.464"/>
            <rect width="332.35" height="22.927" x="1859.136" y="782.126" fill="#512DA8" opacity=".298" rx="11.464"/>
            <rect width="27.505" height="18.342" x="215" y="10" fill="#8792A2" opacity=".241" rx="9.171"/>
            <rect width="190.242" height="36" x="4.852" y=".878" fill="#1851BE" rx="18"/>
            <rect width="286.509" height="36" x="263" y="1" fill="#8792A2" opacity=".201" rx="18"/>
            <path fill="#1851BE" d="M2255.66399 958.667749L2357.97541 958.667749C2363.49825 958.667749 2367.97541 963.144902 2367.97541 968.667749L2367.97541 1017.45024C2367.97541 1022.97309 2363.49825 1027.45024 2357.97541 1027.45024L2255.66399 1027.45024 2255.66399 1027.45024 2255.66399 958.667749zM2255.66399 1073.30524L2364.97541 1073.30524C2366.63226 1073.30524 2367.97541 1074.64839 2367.97541 1076.30524L2367.97541 1139.08774C2367.97541 1140.74459 2366.63226 1142.08774 2364.97541 1142.08774L2255.66399 1142.08774 2255.66399 1142.08774 2255.66399 1073.30524zM2255.66399 1187.94274L2364.97541 1187.94274C2366.63226 1187.94274 2367.97541 1189.28588 2367.97541 1190.94274L2367.97541 1253.72523C2367.97541 1255.38209 2366.63226 1256.72523 2364.97541 1256.72523L2255.66399 1256.72523 2255.66399 1256.72523 2255.66399 1187.94274zM2255.66399 1302.58023L2364.97541 1302.58023C2366.63226 1302.58023 2367.97541 1303.92337 2367.97541 1305.58023L2367.97541 1368.36272C2367.97541 1370.01958 2366.63226 1371.36272 2364.97541 1371.36272L2255.66399 1371.36272 2255.66399 1371.36272 2255.66399 1302.58023zM2255.66399 1417.21772L2364.97541 1417.21772C2366.63226 1417.21772 2367.97541 1418.56087 2367.97541 1420.21772L2367.97541 1483.00022C2367.97541 1484.65707 2366.63226 1486.00022 2364.97541 1486.00022L2255.66399 1486.00022 2255.66399 1486.00022 2255.66399 1417.21772zM2255.66399 1531.85521L2364.97541 1531.85521C2366.63226 1531.85521 2367.97541 1533.19836 2367.97541 1534.85521L2367.97541 1597.63771C2367.97541 1599.29456 2366.63226 1600.63771 2364.97541 1600.63771L2255.66399 1600.63771 2255.66399 1600.63771 2255.66399 1531.85521z" opacity=".197"/>
            <rect width="62.515" height="22.927" x="2282.708" y="981.595" fill="#1851BE" opacity=".383" rx="11.464"/>
            <rect width="62.515" height="22.927" x="2282.708" y="1096.233" fill="#1851BE" opacity=".383" rx="11.464"/>
            <rect width="82.515" height="22.927" x="2271.708" y="1210.87" fill="#1851BE" opacity=".383" rx="6"/>
            <rect width="82.515" height="22.927" x="2271.708" y="1325.508" fill="#1851BE" opacity=".383" rx="6"/>
            <rect width="82.515" height="22.927" x="2271.708" y="1440.145" fill="#1851BE" opacity=".383" rx="6"/>
            <path fill="#1851BE" d="M1832.33904 958.667749L2255.66399 958.667749 2255.66399 958.667749 2255.66399 1027.45024 1832.33904 1027.45024C1830.68219 1027.45024 1829.33904 1026.1071 1829.33904 1024.45024L1829.33904 961.667749C1829.33904 960.010895 1830.68219 958.667749 1832.33904 958.667749zM1832.33904 1073.30524L2255.66399 1073.30524 2255.66399 1073.30524 2255.66399 1142.08774 1832.33904 1142.08774C1830.68219 1142.08774 1829.33904 1140.74459 1829.33904 1139.08774L1829.33904 1076.30524C1829.33904 1074.64839 1830.68219 1073.30524 1832.33904 1073.30524z" opacity=".117"/>
            <path fill="#1851BE" d="M1832.33904,1187.94274 L2255.66399,1187.94274 L2255.66399,1187.94274 L2255.66399,1256.72523 L1832.33904,1256.72523 C1830.68219,1256.72523 1829.33904,1255.38209 1829.33904,1253.72523 L1829.33904,1190.94274 C1829.33904,1189.28588 1830.68219,1187.94274 1832.33904,1187.94274 Z" opacity=".125"/>
            <path fill="#1851BE" d="M1832.33904 1302.58023L2255.66399 1302.58023 2255.66399 1302.58023 2255.66399 1371.36272 1832.33904 1371.36272C1830.68219 1371.36272 1829.33904 1370.01958 1829.33904 1368.36272L1829.33904 1305.58023C1829.33904 1303.92337 1830.68219 1302.58023 1832.33904 1302.58023zM1832.33904 1417.21772L2255.66399 1417.21772 2255.66399 1417.21772 2255.66399 1486.00022 1832.33904 1486.00022C1830.68219 1486.00022 1829.33904 1484.65707 1829.33904 1483.00022L1829.33904 1420.21772C1829.33904 1418.56087 1830.68219 1417.21772 1832.33904 1417.21772zM1832.33904 1531.85521L2255.66399 1531.85521 2255.66399 1531.85521 2255.66399 1600.63771 1832.33904 1600.63771C1830.68219 1600.63771 1829.33904 1599.29456 1829.33904 1597.63771L1829.33904 1534.85521C1829.33904 1533.19836 1830.68219 1531.85521 1832.33904 1531.85521z" opacity=".117"/>
            <rect width="203.994" height="22.927" x="1859.136" y="981.595" fill="#FFF" opacity=".717" rx="11.464"/>
            <rect width="261.296" height="22.927" x="1859.136" y="1096.233" fill="#FFF" opacity=".717" rx="11.464"/>
            <rect width="178.781" height="22.927" x="1859.136" y="1210.87" fill="#FFF" opacity=".717" rx="11.464"/>
            <rect width="261.296" height="22.927" x="1859.136" y="1325.508" fill="#FFF" opacity=".717" rx="11.464"/>
            <rect width="137.524" height="22.927" x="1859.136" y="1440.145" fill="#FFF" opacity=".717" rx="3"/>
            <path fill="#1851BE" d="M1839.33904 958.667749L2223.57502 958.667749 2223.57502 958.667749 2223.57502 1027.45024 1839.33904 1027.45024C1833.81619 1027.45024 1829.33904 1022.97309 1829.33904 1017.45024L1829.33904 968.667749C1829.33904 963.144902 1833.81619 958.667749 1839.33904 958.667749zM1839.33904 1073.30524L2193.77811 1073.30524 2193.77811 1073.30524 2193.77811 1142.08774 1839.33904 1142.08774C1833.81619 1142.08774 1829.33904 1137.61059 1829.33904 1132.08774L1829.33904 1083.30524C1829.33904 1077.78239 1833.81619 1073.30524 1839.33904 1073.30524zM1832.33904 1187.94274L2063.13014 1187.94274 2063.13014 1187.94274 2063.13014 1256.72523 1832.33904 1256.72523C1830.68219 1256.72523 1829.33904 1255.38209 1829.33904 1253.72523L1829.33904 1190.94274C1829.33904 1189.28588 1830.68219 1187.94274 1832.33904 1187.94274zM1832.33904 1302.58023L2042.50152 1302.58023 2042.50152 1302.58023 2042.50152 1371.36272 1832.33904 1371.36272C1830.68219 1371.36272 1829.33904 1370.01958 1829.33904 1368.36272L1829.33904 1305.58023C1829.33904 1303.92337 1830.68219 1302.58023 1832.33904 1302.58023z" opacity=".2"/>
            <path fill="#1851BE" d="M1832.33904,1417.21772 L1976.0315,1417.21772 L1976.0315,1417.21772 L1976.0315,1486.00022 L1832.33904,1486.00022 C1830.68219,1486.00022 1829.33904,1484.65707 1829.33904,1483.00022 L1829.33904,1420.21772 C1829.33904,1418.56087 1830.68219,1417.21772 1832.33904,1417.21772 Z" opacity=".197"/>
            <path fill="#1851BE" d="M1832.33904,1531.85521 L1948.52666,1531.85521 L1948.52666,1531.85521 L1948.52666,1600.63771 L1832.33904,1600.63771 C1830.68219,1600.63771 1829.33904,1599.29456 1829.33904,1597.63771 L1829.33904,1534.85521 C1829.33904,1533.19836 1830.68219,1531.85521 1832.33904,1531.85521 Z" opacity=".2"/>
            <rect width="174.197" height="32.098" x="2.56" y="224.988" fill="#8792A2" opacity=".364" rx="16.049"/>
          </g>
        </g>
      </g>
    </g>
  </g>
</svg>
