<svg xmlns="http://www.w3.org/2000/svg" xmlns:xlink="http://www.w3.org/1999/xlink" width="2560" height="1600" viewBox="0 0 2560 1600">
  <defs>
    <rect id="view-responsive-desktop-a" width="2560" height="1600" x="0" y="0" rx="2"/>
  </defs>
  <g fill="none" fill-rule="evenodd">
    <mask id="view-responsive-desktop-b" fill="#fff">
      <use xlink:href="#view-responsive-desktop-a"/>
    </mask>
    <g mask="url(#view-responsive-desktop-b)">
      <rect width="2560" height="1600" fill="#FFF"/>
      <g transform="translate(91 50)">
        <g transform="translate(5)">
          <g fill="#FFF" opacity=".296" transform="translate(74.372 231.631)">
            <rect width="91.756" height="29.18" rx="3"/>
            <rect width="190.394" height="29.18" x="114.695" rx="3"/>
          </g>
          <g transform="translate(.725 .004)">
            <path fill="#1851BE" fill-rule="nonzero" d="M62.8797273,9.23705556e-14 C97.1777533,9.23705556e-14 124.981797,21.5745441 124.981797,48.188093 C124.981797,74.8016419 97.1777533,96.376186 62.8797273,96.376186 C28.5817013,96.376186 0.777657643,74.8016419 0.777657643,48.188093 C0.777657643,21.5745441 28.5817013,9.23705556e-14 62.8797273,9.23705556e-14 Z M68.1595389,11.63098 L64.3873119,11.63098 C63.2827424,11.63098 62.3873119,12.5264105 62.3873119,13.63098 L62.3873119,13.63098 L62.3874594,35.3948655 C58.1994028,32.4844738 53.0011294,30.8137603 47.2026567,30.8137603 C32.398526,30.8137603 21.3490661,41.862481 21.3490661,56.6295213 C21.3490661,71.3965616 32.398526,82.4452823 47.2026567,82.4452823 C57.1061718,82.4452823 65.2588445,77.571642 69.6178582,69.9718949 L69.6178582,69.9718949 L69.9270608,70.2814429 C74.529214,74.7929208 80.9284002,77.4908996 88.2444367,77.4908996 C103.157882,77.4908996 114.101561,66.4406685 114.101561,51.6716095 C114.101561,36.9025506 103.157882,25.8523195 88.2444367,25.8523195 C81.5943956,25.8523195 75.7018768,28.0814498 71.2279056,31.8754579 C70.9638369,32.0993928 71.2116552,24.2341791 71.2271556,16.3901196 L71.2271556,16.3901196 L71.2279056,15.6433898 C71.2279056,12.8673428 69.1789321,11.63098 68.1595389,11.63098 L68.1595389,11.63098 Z M46.8366789,42.634809 C55.0616062,42.634809 60.8461704,48.7565338 60.8461704,56.6889097 C60.8461704,64.4488427 55.0616062,70.7430105 46.8366789,70.7430105 C38.6117516,70.7430105 32.8271874,64.4488427 32.8271874,56.6889097 C32.8271874,48.7565338 38.6117516,42.634809 46.8366789,42.634809 Z M89.4641799,37.982417 C97.6891072,37.982417 103.473671,44.1041419 103.473671,52.0365178 C103.473671,59.7964507 97.6891072,66.0906185 89.4641799,66.0906185 C81.2392526,66.0906185 75.4546884,59.7964507 75.4546884,52.0365178 C75.4546884,44.1041419 81.2392526,37.982417 89.4641799,37.982417 Z M26.1514722,16.4491933 L23.1180469,16.4491933 C22.1794963,16.4491933 21.4186508,17.2124615 21.4186508,18.1540007 L21.4186508,18.1540007 L21.4186508,39.5657514 C21.4186508,39.6704955 21.4515456,39.7725946 21.5126925,39.8576381 C21.6738971,40.0818427 21.986333,40.1329142 22.2105375,39.9717096 L22.2105375,39.9717096 L29.4923902,34.736008 C29.8843639,34.4541762 30.1167299,34.000909 30.1167299,33.5181332 L30.1167299,33.5181332 L30.1167299,20.4270772 C30.1167299,18.2301526 28.3414236,16.4491933 26.1514722,16.4491933 L26.1514722,16.4491933 Z" transform="translate(.153 .376)"/>
            <g fill="#8792A2" opacity=".499" transform="translate(483.736 17.85)">
              <rect width="66.464" height="59.661" y="7.768" opacity=".4" rx="10"/>
              <rect width="66.464" height="59.661" x="135.22" y="7.768" opacity=".4" rx="10"/>
              <rect width="66.464" height="59.661" x="676.099" y="7.768" opacity=".4" rx="10"/>
              <rect width="66.464" height="59.661" x="270.44" y="7.768" opacity=".4" rx="10"/>
              <rect width="66.464" height="59.661" x="405.66" y="7.768" opacity=".4" rx="10"/>
              <rect width="66.464" height="59.661" x="811.319" y="7.768" opacity=".4" rx="10"/>
              <rect width="66.464" height="59.661" x="1679.937" y="7.764" opacity=".4" rx="10"/>
              <rect width="66.464" height="59.661" x="1544.717" y="7.764" opacity=".4" rx="10"/>
              <rect width="66.464" height="59.661" x="1409.498" y="7.764" opacity=".4" rx="10"/>
              <rect width="73.34" height="75.724" x="1808.281" y=".88" opacity=".7" rx="36.67"/>
              <rect width="66.464" height="59.661" x="540.879" y="7.768" opacity=".4" rx="10"/>
            </g>
            <rect width="36.67" height="36.715" x="802.305" y="7.26" fill="#F84F77" rx="8"/>
            <rect width="36.67" height="36.715" x="2078.874" y="7.256" fill="#F84F77" rx="8"/>
          </g>
        </g>
        <g transform="translate(0 244)">
          <g transform="translate(6.66 498.99)">
            <rect width="133.058" height="105.554" x="998.733" y=".231" fill="#8792A2" opacity=".322" rx="10"/>
            <rect width="130.764" height="105.554" x="801.44" y=".231" fill="#8792A2" opacity=".322" rx="10"/>
            <rect width="130.764" height="22.947" x="801.44" y="126.44" fill="#ECEEF0" rx="11.473"/>
            <rect width="130.764" height="22.947" x="1001.027" y="126.44" fill="#ECEEF0" rx="11.473"/>
            <rect width="27.505" height="151.321" x="1185.483" fill="#F84F77" rx="13.752"/>
            <rect width="57.353" height="57.367" x="1265.138" y=".231" fill="#8792A2" opacity=".32" rx="28.676"/>
            <rect width="130.764" height="22.947" x="1345.513" y="19.055" fill="#8792A2" opacity=".164" rx="11.473"/>
            <rect width="284.47" height="22.947" x="1265.22" y="71.832" fill="#8792A2" opacity=".164" rx="11.473"/>
            <rect width="110.117" height="22.947" x="1561.16" y="71.832" fill="#8792A2" opacity=".164" rx="11.473"/>
            <rect width="121.588" height="22.947" x="1265.22" y="106.252" fill="#8792A2" opacity=".164" rx="11.473"/>
            <ellipse cx="73.982" cy="75.111" fill="#8792A2" opacity=".24" rx="73.982" ry="74"/>
            <path fill="#8792A2" d="M399.298267,57.3187466 C408.162022,57.3187466 415.347516,64.5042401 415.347516,73.3679956 C415.347516,82.2317511 408.162022,89.4172446 399.298267,89.4172446 L209.06601,89.4172446 C200.202255,89.4172446 193.016761,82.2317511 193.016761,73.3679956 C193.016761,64.5042401 200.202255,57.3187466 209.06601,57.3187466 L399.298267,57.3187466 Z M605.584534,57.3187466 C614.448289,57.3187466 621.633783,64.5042401 621.633783,73.3679956 C621.633783,82.2317511 614.448289,89.4172446 605.584534,89.4172446 L605.584534,89.4172446 L447.441252,89.4172446 C438.577497,89.4172446 431.392003,82.2317511 431.392003,73.3679956 C431.392003,64.5042401 438.577497,57.3187466 447.441252,57.3187466 L447.441252,57.3187466 Z" opacity=".28"/>
          </g>
          <rect width="133.058" height="105.554" x="1005.394" y="772.287" fill="#8792A2" opacity=".322" rx="10"/>
          <rect width="130.764" height="105.554" x="808.101" y="772.287" fill="#8792A2" opacity=".322" rx="10"/>
          <rect width="133.058" height="105.554" x="1005.394" y="1045.351" fill="#8792A2" opacity=".322" rx="10"/>
          <rect width="130.764" height="105.554" x="808.101" y="1045.351" fill="#8792A2" opacity=".322" rx="10"/>
          <rect width="130.764" height="22.947" x="808.101" y="898.495" fill="#ECEEF0" rx="11.473"/>
          <rect width="130.764" height="22.947" x="1007.688" y="898.495" fill="#ECEEF0" rx="11.473"/>
          <rect width="130.764" height="22.947" x="808.101" y="1171.56" fill="#ECEEF0" rx="11.473"/>
          <rect width="130.764" height="22.947" x="1007.688" y="1171.56" fill="#ECEEF0" rx="11.473"/>
          <rect width="27.505" height="151.321" x="1192.144" y="771.828" fill="#1851BE" rx="13.752"/>
          <rect width="27.505" height="151.321" x="1192.144" y="1042.372" fill="#BCCCEB" rx="13.752"/>
          <rect width="57.353" height="57.367" x="1271.799" y="772.287" fill="#8792A2" opacity=".32" rx="28.676"/>
          <rect width="57.353" height="57.367" x="1271.799" y="1045.351" fill="#8792A2" opacity=".32" rx="28.676"/>
          <rect width="130.764" height="22.947" x="1352.174" y="791.111" fill="#8792A2" opacity=".164" rx="11.473"/>
          <rect width="284.47" height="22.947" x="1271.88" y="843.888" fill="#8792A2" opacity=".164" rx="11.473"/>
          <rect width="110.117" height="22.947" x="1567.821" y="843.888" fill="#8792A2" opacity=".164" rx="11.473"/>
          <rect width="121.588" height="22.947" x="1271.88" y="878.308" fill="#8792A2" opacity=".164" rx="11.473"/>
          <rect width="130.764" height="22.947" x="1352.174" y="1064.175" fill="#8792A2" opacity=".164" rx="11.473"/>
          <rect width="169.764" height="22.947" x="1271.88" y="1116.953" fill="#8792A2" opacity=".164" rx="11.473"/>
          <rect width="224.823" height="22.947" x="1453.115" y="1116.953" fill="#8792A2" opacity=".164" rx="11.473"/>
          <rect width="252.352" height="22.947" x="1271.88" y="1151.334" fill="#8792A2" opacity=".164" rx="11.473"/>
          <ellipse cx="80.643" cy="848.479" fill="#8792A2" opacity=".24" rx="80.294" ry="80.313"/>
          <path fill="#8792A2" d="M364.701786,829.146518 C373.565541,829.146518 380.751035,836.332011 380.751035,845.195767 C380.751035,854.059522 373.565541,861.245016 364.701786,861.245016 L215.726783,861.245016 C206.863027,861.245016 199.677534,854.059522 199.677534,845.195767 C199.677534,836.332011 206.863027,829.146518 215.726783,829.146518 L364.701786,829.146518 Z M655.794629,829.146518 C664.658385,829.146518 671.843878,836.332011 671.843878,845.195767 C671.843878,854.059522 664.658385,861.245016 655.794629,861.245016 L655.794629,861.245016 L415.136841,861.245016 C406.273085,861.245016 399.087592,854.059522 399.087592,845.195767 C399.087592,836.332011 406.273085,829.146518 415.136841,829.146518 L415.136841,829.146518 Z" opacity=".28"/>
          <rect width="412.573" height="35.481" x="199.937" y="772.755" fill="#8792A2" opacity=".28" rx="17.741"/>
          <ellipse cx="80.643" cy="1121.544" fill="#8792A2" opacity=".24" rx="80.294" ry="80.313"/>
          <ellipse cx="218.014" cy="1205.158" fill="#1851BE" rx="20.629" ry="20.635"/>
          <rect width="139" height="27.513" x="257.103" y="1191.401" fill="#ECEEF0" rx="13.756"/>
          <rect width="105" height="27.513" x="257.103" y="1244.134" fill="#ECEEF0" rx="13.756"/>
          <ellipse cx="218.014" cy="1257.891" fill="#F84F77" rx="20.629" ry="20.635"/>
          <ellipse cx="474.726" cy="1205.158" fill="#BCCCEB" rx="20.629" ry="20.635"/>
          <rect width="139" height="27.513" x="516" y="1244.026" fill="#ECEEF0" rx="13.756"/>
          <rect width="193" height="27.513" x="516" y="1189" fill="#ECEEF0" rx="13.756"/>
          <ellipse cx="474.629" cy="1257.635" fill="#8267BF" rx="20.629" ry="20.635"/>
          <rect width="529.468" height="32.098" x="199.678" y="1101.984" fill="#8792A2" opacity=".28" rx="16.049"/>
          <rect width="373.607" height="35.481" x="199.937" y="1045.82" fill="#8792A2" opacity=".28" rx="17.741"/>
          <rect width="538.636" height="275.13" x="1829.339" y="496.698" fill="#D7D0E9" opacity=".498" rx="12"/>
          <rect width="137.524" height="22.927" x="1859.136" y="533.382" fill="#512DA8" opacity=".666" rx="11.464"/>
          <rect width="332.35" height="22.927" x="2008.12" y="533.382" fill="#512DA8" opacity=".298" rx="11.464"/>
          <rect width="481.335" height="22.927" x="1859.136" y="576.944" fill="#512DA8" opacity=".298" rx="11.464"/>
          <rect width="332.35" height="22.927" x="1859.136" y="620.506" fill="#512DA8" opacity=".298" rx="11.464"/>
          <rect width="224.623" height="22.927" x="1859.136" y="664.069" fill="#512DA8" opacity=".298" rx="11.464"/>
          <rect width="538.636" height="275.13" x="1829.339" y="794.755" fill="#D7D0E9" opacity=".498" rx="12"/>
          <rect width="201.702" height="22.927" x="1859.136" y="831.439" fill="#512DA8" opacity=".673" rx="11.464"/>
          <rect width="268.172" height="22.927" x="2072.298" y="831.439" fill="#512DA8" opacity=".298" rx="11.464"/>
          <rect width="444.662" height="22.927" x="1859.136" y="875.002" fill="#512DA8" opacity=".298" rx="11.464"/>
          <rect width="481.335" height="22.927" x="1859.136" y="918.564" fill="#512DA8" opacity=".298" rx="11.464"/>
          <rect width="332.35" height="22.927" x="1859.136" y="962.126" fill="#512DA8" opacity=".298" rx="11.464"/>
          <g transform="translate(4.852 84.003)">
            <rect width="543.221" height="275.13" fill="#1851BE" rx="12"/>
            <rect width="481.335" height="22.927" x="29.797" y="45.855" fill="#FFF" opacity=".966" rx="11.464"/>
            <rect width="286.509" height="22.927" x="29.797" y="89.417" fill="#FFF" opacity=".598" rx="11.464"/>
            <rect width="183.366" height="22.927" x="327.766" y="89.417" fill="#FFF" opacity=".298" rx="11.464" transform="matrix(-1 0 0 1 838.897 0)"/>
            <rect width="45.841" height="45.855" x="29.797" y="206.347" fill="#FFF" opacity=".298" rx="7" transform="matrix(-1 0 0 1 105.435 0)"/>
            <rect width="45.841" height="22.927" x="467.582" y="217.811" fill="#FFF" opacity=".598" rx="3" transform="matrix(-1 0 0 1 981.006 0)"/>
          </g>
          <rect width="27.505" height="18.342" x="215" y="10" fill="#8792A2" opacity=".241" rx="9.171"/>
          <rect width="190.242" height="36" x="4.852" y=".878" fill="#1851BE" rx="18"/>
          <rect width="286.509" height="36" x="263" y="1" fill="#8792A2" opacity=".201" rx="18"/>
          <g fill="#1851BE" transform="translate(609.958 84.003)">
            <rect width="543.221" height="275.13" opacity=".25" rx="12"/>
            <rect width="481.335" height="22.927" x="29.797" y="45.855" opacity=".866" rx="11.464"/>
            <rect width="293.385" height="22.927" x="29.797" y="89.417" opacity=".498" rx="11.464"/>
            <rect width="176.489" height="22.927" x="334.642" y="89.417" opacity=".198" rx="11.464"/>
            <rect width="45.841" height="45.855" x="29.797" y="206.347" opacity=".198" rx="7" transform="matrix(-1 0 0 1 105.435 0)"/>
            <rect width="45.841" height="22.927" x="465.29" y="217.811" opacity=".498" rx="3" transform="matrix(-1 0 0 1 976.422 0)"/>
          </g>
          <g transform="translate(1217.356 84.003)">
            <rect width="543.221" height="275.13" fill="#512DA8" rx="12"/>
            <rect width="403.404" height="22.927" x="29.797" y="45.855" fill="#FFF" opacity=".966" rx="11.464"/>
            <rect width="293.385" height="22.927" x="29.797" y="89.417" fill="#FFF" opacity=".598" rx="11.464"/>
            <rect width="165.029" height="22.927" x="334.642" y="89.417" fill="#FFF" opacity=".298" rx="11.464" transform="matrix(-1 0 0 1 834.313 0)"/>
            <rect width="45.841" height="45.855" x="29.797" y="206.347" fill="#FFF" opacity=".298" rx="7" transform="matrix(-1 0 0 1 105.435 0)"/>
            <rect width="45.841" height="22.927" x="467.582" y="217.811" fill="#FFF" opacity=".598" rx="3" transform="matrix(-1 0 0 1 981.006 0)"/>
          </g>
          <g transform="translate(1824.755 84.003)">
            <rect width="543.221" height="275.13" fill="#BFE5E1" rx="12"/>
            <rect width="375.899" height="22.927" x="29.797" y="45.855" fill="#0E423C" opacity=".966" rx="11.464"/>
            <rect width="339.226" height="22.927" x="29.797" y="89.417" fill="#0E423C" opacity=".598" rx="11.464"/>
            <rect width="128.356" height="22.927" x="380.484" y="89.417" fill="#0E423C" opacity=".298" rx="11.464" transform="matrix(-1 0 0 1 889.323 0)"/>
            <rect width="45.841" height="45.855" x="29.797" y="206.347" fill="#0E423C" opacity=".298" rx="7" transform="matrix(-1 0 0 1 105.435 0)"/>
            <rect width="45.841" height="22.927" x="462.998" y="217.811" fill="#0E423C" opacity=".598" rx="3" transform="matrix(-1 0 0 1 971.838 0)"/>
          </g>
          <path fill="#1851BE" d="M2255.66399 1138.66775L2357.97541 1138.66775C2363.49825 1138.66775 2367.97541 1143.1449 2367.97541 1148.66775L2367.97541 1197.45024C2367.97541 1202.97309 2363.49825 1207.45024 2357.97541 1207.45024L2255.66399 1207.45024 2255.66399 1207.45024 2255.66399 1138.66775zM2255.66399 1253.30524L2364.97541 1253.30524C2366.63226 1253.30524 2367.97541 1254.64839 2367.97541 1256.30524L2367.97541 1319.08774C2367.97541 1320.74459 2366.63226 1322.08774 2364.97541 1322.08774L2255.66399 1322.08774 2255.66399 1322.08774 2255.66399 1253.30524z" opacity=".197"/>
          <rect width="62.515" height="22.927" x="2282.708" y="1161.595" fill="#1851BE" opacity=".383" rx="11.464"/>
          <rect width="62.515" height="22.927" x="2282.708" y="1276.233" fill="#1851BE" opacity=".383" rx="11.464"/>
          <path fill="#1851BE" d="M1832.33904 1138.66775L2255.66399 1138.66775 2255.66399 1138.66775 2255.66399 1207.45024 1832.33904 1207.45024C1830.68219 1207.45024 1829.33904 1206.1071 1829.33904 1204.45024L1829.33904 1141.66775C1829.33904 1140.01089 1830.68219 1138.66775 1832.33904 1138.66775zM1832.33904 1253.30524L2255.66399 1253.30524 2255.66399 1253.30524 2255.66399 1322.08774 1832.33904 1322.08774C1830.68219 1322.08774 1829.33904 1320.74459 1829.33904 1319.08774L1829.33904 1256.30524C1829.33904 1254.64839 1830.68219 1253.30524 1832.33904 1253.30524z" opacity=".117"/>
          <rect width="203.994" height="22.927" x="1859.136" y="1161.595" fill="#FFF" opacity=".717" rx="11.464"/>
          <rect width="261.296" height="22.927" x="1859.136" y="1276.233" fill="#FFF" opacity=".717" rx="11.464"/>
          <path fill="#1851BE" d="M1839.33904 1138.66775L2223.57502 1138.66775 2223.57502 1138.66775 2223.57502 1207.45024 1839.33904 1207.45024C1833.81619 1207.45024 1829.33904 1202.97309 1829.33904 1197.45024L1829.33904 1148.66775C1829.33904 1143.1449 1833.81619 1138.66775 1839.33904 1138.66775zM1839.33904 1253.30524L2193.77811 1253.30524 2193.77811 1253.30524 2193.77811 1322.08774 1839.33904 1322.08774C1833.81619 1322.08774 1829.33904 1317.61059 1829.33904 1312.08774L1829.33904 1263.30524C1829.33904 1257.78239 1833.81619 1253.30524 1839.33904 1253.30524z" opacity=".2"/>
          <rect width="174.197" height="32.098" x="2.56" y="404.988" fill="#8792A2" opacity=".364" rx="16.049"/>
        </g>
      </g>
    </g>
  </g>
</svg>
