<svg xmlns="http://www.w3.org/2000/svg" xmlns:xlink="http://www.w3.org/1999/xlink" width="1024" height="1236" viewBox="0 0 1024 1236">
  <defs>
    <polygon id="view-responsive-tablet-a" points="0 1366 0 0 1024 0 1024 1366"/>
    <linearGradient id="view-responsive-tablet-c" x1="50.007%" x2="50.007%" y1="-141.4%" y2="-47.015%">
      <stop offset="0%" stop-color="#2A6CBE"/>
      <stop offset="38.688%" stop-color="#2062BC"/>
      <stop offset="49.182%" stop-color="#1F5FBC"/>
      <stop offset="66.583%" stop-color="#1C5ABD"/>
      <stop offset="85.354%" stop-color="#1956BC"/>
      <stop offset="100%" stop-color="#1851BE"/>
    </linearGradient>
    <linearGradient id="view-responsive-tablet-d" x1="50.007%" x2="50.007%" y1="-141.4%" y2="-47.015%">
      <stop offset="0%" stop-color="#2A6CBE"/>
      <stop offset="38.688%" stop-color="#2062BC"/>
      <stop offset="49.182%" stop-color="#1F5FBC"/>
      <stop offset="66.583%" stop-color="#1C5ABD"/>
      <stop offset="85.354%" stop-color="#1956BC"/>
      <stop offset="100%" stop-color="#1851BE"/>
    </linearGradient>
    <path id="view-responsive-tablet-e" d="M7.6916556,-3.10752092e-16 L445.802374,-1.62166599e-14 C448.476931,9.42234639e-15 449.446789,0.278476833 450.424567,0.801398111 C451.402345,1.32431939 452.169711,2.09168511 452.692632,3.06946289 C453.215553,4.04724067 453.49403,5.01709938 453.49403,7.6916556 L453.49403,181.497447 C453.49403,184.172003 453.215553,185.141862 452.692632,186.119639 C452.169711,187.097417 451.402345,187.864783 450.424567,188.387704 C449.446789,188.910625 448.476931,189.189102 445.802374,189.189102 L7.6916556,189.189102 C5.01709938,189.189102 4.04724067,188.910625 3.06946289,188.387704 C2.09168511,187.864783 1.32431939,187.097417 0.801398111,186.119639 C0.278476833,185.141862 1.2037061e-16,184.172003 -2.07168062e-16,181.497447 L2.07168062e-16,7.6916556 C-1.2037061e-16,5.01709938 0.278476833,4.04724067 0.801398111,3.06946289 C1.32431939,2.09168511 2.09168511,1.32431939 3.06946289,0.801398111 C4.04724067,0.278476833 5.01709938,1.80555915e-16 7.6916556,-3.10752092e-16 Z"/>
  </defs>
  <g fill="none" fill-rule="evenodd" transform="translate(0 -130)">
    <mask id="view-responsive-tablet-b" fill="#fff">
      <use xlink:href="#view-responsive-tablet-a"/>
    </mask>
    <g mask="url(#view-responsive-tablet-b)">
      <g transform="translate(-1)">
        <polygon fill="#FFF" points="1 1366 1 0 1025 0 1025 1366"/>
        <g transform="translate(0 3)">
          <path fill="#8792A2" d="M104.88691,47.793995 C113.723466,47.793995 120.88691,54.957439 120.88691,63.793995 C120.88691,72.630551 113.723466,79.793995 104.88691,79.793995 L16.8869101,79.793995 C8.05035407,79.793995 0.886910062,72.630551 0.886910062,63.793995 C0.886910062,54.957439 8.05035407,47.793995 16.8869101,47.793995 L104.88691,47.793995 Z M864.88691,0.793994996 C873.723466,0.793994996 880.88691,7.957439 880.88691,16.793995 C880.88691,25.630551 873.723466,32.793995 864.88691,32.793995 L16.8869101,32.793995 C8.05035407,32.793995 0.886910062,25.630551 0.886910062,16.793995 C0.886910062,7.957439 8.05035407,0.793994996 16.8869101,0.793994996 L864.88691,0.793994996 Z" opacity=".238" transform="translate(57.113 239.206)"/>
          <ellipse cx="35.031" cy="35.029" fill="#8792A2" opacity=".24" rx="35.031" ry="35.029" transform="translate(57.036 371.304)"/>
          <ellipse cx="10.361" cy="10.361" fill="#91BB54" stroke="#FFF" stroke-width="4" rx="8.361" ry="8.361" transform="translate(107 370)"/>
          <path fill="#8792A2" d="M64.9893611 35.2132173C71.8435535 35.2132173 77.3999742 40.769638 77.3999742 47.6238304 77.3999742 54.4780227 71.8435535 60.0344435 64.9893611 60.0344435L13.2912031 60.0344435C6.43701078 60.0344435.880590038 54.4780227.880590038 47.6238304.880590038 40.769638 6.43701078 35.2132173 13.2912031 35.2132173L64.9893611 35.2132173zM382.835506 35.2132173C389.689699 35.2132173 395.246119 40.769638 395.246119 47.6238304 395.246119 54.4780227 389.689699 60.0344435 382.835506 60.0344435L382.835506 60.0344435 99.6712506 60.0344435C92.8170583 60.0344435 87.2606375 54.4780227 87.2606375 47.6238304 87.2606375 40.769638 92.8170583 35.2132173 99.6712506 35.2132173L99.6712506 35.2132173zM521.643374.492458728C528.497566.492458728 534.053987 6.04887947 534.053987 12.9030718 534.053987 19.7572642 528.497566 25.3136849 521.643374 25.3136849L13.2912031 25.3136849C6.43701078 25.3136849.880590038 19.7572642.880590038 12.9030718.880590038 6.04887947 6.43701078.492458728 13.2912031.492458728L521.643374.492458728zM823.477103.492458728C830.331295.492458728 835.887716 6.04887947 835.887716 12.9030718 835.887716 19.7572642 830.331295 25.3136849 823.477103 25.3136849L556.393341 25.3136849C549.539149 25.3136849 543.982728 19.7572642 543.982728 12.9030718 543.982728 6.04887947 549.539149.492458728 556.393341.492458728L823.477103.492458728zM123.506889 104.690932C130.357749 104.690932 135.911469 110.244652 135.911469 117.095512 135.911469 123.946373 130.357749 129.500092 123.506889 129.500092L13.2851702 129.500092C6.43430974 129.500092.880590038 123.946373.880590038 117.095512.880590038 110.244652 6.43430974 104.690932 13.2851702 104.690932L123.506889 104.690932zM298.252732 104.690932C305.103592 104.690932 310.657312 110.244652 310.657312 117.095512 310.657312 123.946373 305.103592 129.500092 298.252732 129.500092L298.252732 129.500092 158.24479 129.500092C151.39393 129.500092 145.84021 123.946373 145.84021 117.095512 145.84021 110.244652 151.39393 104.690932 158.24479 104.690932L158.24479 104.690932z" opacity=".238" transform="translate(143 413)"/>
          <g transform="translate(58 681)">
            <ellipse cx="35.031" cy="36.333" fill="#8792A2" opacity=".24" rx="35.031" ry="35.029"/>
            <ellipse cx="60.326" cy="10.361" fill="#8792A2" stroke="#FFF" stroke-width="4" rx="8.361" ry="8.361"/>
            <path fill="#8792A2" d="M358.5,68 C365.403559,68 371,73.5964406 371,80.5 C371,87.4035594 365.403559,93 358.5,93 L99.5,93 C92.5964406,93 87,87.4035594 87,80.5 C87,73.5964406 92.5964406,68 99.5,68 L358.5,68 Z M418.5,33 C425.403559,33 431,38.5964406 431,45.5 C431,52.4035594 425.403559,58 418.5,58 L99.5,58 C92.5964406,58 87,52.4035594 87,45.5 C87,38.5964406 92.5964406,33 99.5,33 L418.5,33 Z M908.5,33 C915.403559,33 921,38.5964406 921,45.5 C921,52.4035594 915.403559,58 908.5,58 L453.5,58 C446.596441,58 441,52.4035594 441,45.5 C441,38.5964406 446.596441,33 453.5,33 L908.5,33 Z" opacity=".238"/>
            <rect width="60" height="18" x="86.964" fill="#1851BE" rx="9"/>
            <rect width="42" height="18" x="156.964" fill="#91BB54" opacity=".2" rx="3"/>
            <rect width="44" height="18" x="204" fill="#512DA8" opacity=".1" rx="3"/>
            <rect width="32" height="6" x="161.964" y="6" fill="#91BB54" opacity=".7" rx="3"/>
            <rect width="34" height="6" x="209" y="6" fill="#512DA8" opacity=".7" rx="3"/>
            <rect width="110" height="18" x="258" fill="#8792A2" opacity=".12" rx="9"/>
          </g>
          <g transform="translate(383 607)">
            <g transform="translate(94)">
              <path fill="url(#view-responsive-tablet-c)" d="M5,0 L132,0 L132,0 L132,42 L5,42 C2.23857625,42 3.38176876e-16,39.7614237 0,37 L0,5 C-3.38176876e-16,2.23857625 2.23857625,5.07265313e-16 5,0 Z"/>
              <rect width="16" height="10" x="26" y="16" fill="#5C84D1" rx="3"/>
              <rect width="58" height="9" x="52" y="16" fill="#5C84D1" rx="3"/>
              <path fill="url(#view-responsive-tablet-d)" d="M132,0 L153,0 C155.761424,-5.07265313e-16 158,2.23857625 158,5 L158,37 C158,39.7614237 155.761424,42 153,42 L132,42 L132,42 L132,0 Z" opacity=".262"/>
              <rect width="9" height="10" x="141" y="16" fill="#1851BE" rx="3"/>
            </g>
            <rect width="34" height="18" x="50" y="4" fill="#8792A2" opacity=".322" rx="3"/>
            <rect width="33" height="18" y="4" fill="#8792A2" opacity=".322" rx="3"/>
            <rect width="33" height="10.008" y="28.047" fill="#ECEEF0" rx="3"/>
            <rect width="33" height="10.008" x="51" y="28.047" fill="#ECEEF0" rx="3"/>
            <g transform="translate(261.872)">
              <rect width="97" height="41" x=".628" y=".5" stroke="#8792A2" stroke-opacity=".24" rx="5"/>
              <rect width="52" height="10" x="32.199" y="15.955" fill="#8792A2" opacity=".176" rx="3"/>
              <rect width="14" height="10" x="13.199" y="15.955" fill="#8792A2" opacity=".376" rx="3"/>
              <rect width="120" height="41" x="108.628" y=".5" stroke="#8792A2" stroke-opacity=".24" rx="5"/>
              <rect width="18" height="10" x="138.128" y="16" fill="#8792A2" opacity=".176" rx="3"/>
              <rect width="38" height="10" x="160.128" y="16" fill="#8792A2" opacity=".176" rx="3" transform="matrix(-1 0 0 1 358.256 0)"/>
              <rect width="14" height="10" x="119.128" y="16" fill="#8792A2" opacity=".376" rx="3"/>
              <rect width="14" height="10" x="203.128" y="16" fill="#8792A2" opacity=".725" rx="3"/>
              <rect width="14" height="10" x="314.057" y="16.045" fill="#8792A2" opacity=".725" rx="3"/>
              <rect width="97" height="41" x="239.628" y=".5" stroke="#8792A2" stroke-opacity=".24" rx="5"/>
              <rect width="42" height="10" x="267.128" y="16" fill="#8792A2" opacity=".176" rx="3"/>
              <rect width="14" height="10" x="248.128" y="16" fill="#8792A2" opacity=".376" rx="3"/>
            </g>
          </g>
          <g transform="translate(380 940)">
            <g transform="translate(94)">
              <path fill="url(#view-responsive-tablet-c)" d="M5,0 L132,0 L132,0 L132,42 L5,42 C2.23857625,42 3.38176876e-16,39.7614237 0,37 L0,5 C-3.38176876e-16,2.23857625 2.23857625,5.07265313e-16 5,0 Z"/>
              <rect width="16" height="10" x="26" y="16" fill="#5C84D1" rx="3"/>
              <rect width="58" height="9" x="52" y="16" fill="#5C84D1" rx="3"/>
              <path fill="url(#view-responsive-tablet-d)" d="M132,0 L153,0 C155.761424,-5.07265313e-16 158,2.23857625 158,5 L158,37 C158,39.7614237 155.761424,42 153,42 L132,42 L132,42 L132,0 Z" opacity=".262"/>
              <rect width="9" height="10" x="141" y="16" fill="#1851BE" rx="3"/>
            </g>
            <rect width="34" height="18" x="50" y="4" fill="#8792A2" opacity=".322" rx="3"/>
            <rect width="33" height="18" y="4" fill="#8792A2" opacity=".322" rx="3"/>
            <rect width="33" height="10.008" y="28.047" fill="#ECEEF0" rx="3"/>
            <rect width="33" height="10.008" x="51" y="28.047" fill="#ECEEF0" rx="3"/>
            <g transform="translate(261.872)">
              <rect width="97" height="41" x=".628" y=".5" stroke="#8792A2" stroke-opacity=".24" rx="5"/>
              <rect width="52" height="10" x="32.199" y="15.955" fill="#8792A2" opacity=".176" rx="3"/>
              <rect width="14" height="10" x="13.199" y="15.955" fill="#8792A2" opacity=".376" rx="3"/>
              <rect width="120" height="41" x="108.628" y=".5" stroke="#8792A2" stroke-opacity=".24" rx="5"/>
              <rect width="18" height="10" x="138.128" y="16" fill="#8792A2" opacity=".176" rx="3"/>
              <rect width="38" height="10" x="160.128" y="16" fill="#8792A2" opacity=".176" rx="3" transform="matrix(-1 0 0 1 358.256 0)"/>
              <rect width="14" height="10" x="119.128" y="16" fill="#8792A2" opacity=".376" rx="3"/>
              <rect width="14" height="10" x="203.128" y="16" fill="#8792A2" opacity=".725" rx="3"/>
              <rect width="14" height="10" x="314.057" y="16.045" fill="#8792A2" opacity=".725" rx="3"/>
              <rect width="97" height="41" x="239.628" y=".5" stroke="#8792A2" stroke-opacity=".24" rx="5"/>
              <rect width="42" height="10" x="267.128" y="16" fill="#8792A2" opacity=".176" rx="3"/>
              <rect width="14" height="10" x="248.128" y="16" fill="#8792A2" opacity=".376" rx="3"/>
            </g>
          </g>
          <g transform="translate(837 577)">
            <rect width="40" height="10.008" fill="#1851BE" rx="3"/>
            <rect width="40" height="10.008" x="45" fill="#1851BE" rx="3"/>
            <rect width="6" height="10.008" x="114.949" fill="#8792A2" opacity=".164" rx="3"/>
            <rect width="6" height="10.008" x="90.949" fill="#8792A2" opacity=".164" rx="3"/>
            <rect width="12" height="10.008" x="99.753" y=".039" fill="#8792A2" opacity=".241" rx="3"/>
            <rect width="12" height="10.008" x="130.949" fill="#8792A2" opacity=".44" rx="3"/>
          </g>
          <g transform="translate(0 817)">
            <ellipse cx="95.031" cy="36.333" fill="#8792A2" opacity=".24" rx="35.031" ry="35.029"/>
            <ellipse cx="120.326" cy="10.361" fill="#91BB54" stroke="#FFF" stroke-width="4" rx="8.361" ry="8.361"/>
            <rect width="443" height="25" x="146.964" y="33" fill="#8792A2" opacity=".238" rx="12.5"/>
            <rect width="1026" height="362" y="216" fill="#E3EAF7"/>
            <rect width="60" height="18" x="146.964" fill="#1851BE" rx="9"/>
            <rect width="110" height="18" x="216.964" fill="#8792A2" opacity=".12" rx="9"/>
          </g>
          <g transform="translate(837 909)">
            <rect width="40" height="10.008" fill="#1851BE" rx="3"/>
            <rect width="40" height="10.008" x="45" fill="#1851BE" rx="3"/>
            <rect width="6" height="10.008" x="114.949" fill="#8792A2" opacity=".164" rx="3"/>
            <rect width="6" height="10.008" x="90.949" fill="#8792A2" opacity=".164" rx="3"/>
            <rect width="12" height="10.008" x="99.753" y=".039" fill="#8792A2" opacity=".241" rx="3"/>
            <rect width="12" height="10.008" x="130.949" fill="#8792A2" opacity=".44" rx="3"/>
          </g>
          <rect width="60" height="14" x="57" y="166" fill="#1851BE" rx="7"/>
          <rect width="12" height="8" x="122" y="169" fill="#8792A2" opacity=".241" rx="3"/>
          <rect width="83" height="14" x="139" y="166" fill="#1851BE" rx="7"/>
          <rect width="218" height="14" x="244" y="166" fill="#8792A2" opacity=".141" rx="7"/>
          <rect width="26" height="14" x="472" y="166" fill="#8792A2" opacity=".261" rx="7"/>
          <rect width="60" height="18" x="144" y="370" fill="#1851BE" rx="9"/>
          <rect width="110" height="18" x="214" y="370" fill="#8792A2" opacity=".12" rx="9"/>
          <rect width="12" height="8" x="227" y="169" fill="#8792A2" opacity=".241" rx="3"/>
          <g transform="translate(837 768)">
            <rect width="40" height="10.008" fill="#1851BE" rx="3"/>
            <rect width="40" height="10.008" x="45" fill="#1851BE" rx="3"/>
            <rect width="6" height="10.008" x="114.949" fill="#8792A2" opacity=".164" rx="3"/>
            <rect width="6" height="10.008" x="90.949" fill="#1851BE" opacity=".73" rx="3"/>
            <rect width="12" height="10.008" x="99.753" y=".039" fill="#8792A2" opacity=".241" rx="3"/>
            <rect width="12" height="10.008" x="130.949" fill="#8792A2" opacity=".44" rx="3"/>
          </g>
        </g>
        <g transform="translate(1 997)">
          <rect width="1026" height="369" fill="#ECEEF0"/>
          <g transform="translate(56 24)">
            <g transform="translate(0 299.074)">
              <rect width="90.361" height="21.959" fill="#1851BE" opacity=".1" rx="5"/>
              <rect width="13.512" height="13.514" x="70.938" y="4.223" fill="#1851BE" rx="4"/>
              <rect width="89.517" height="21.959" x="94.583" fill="#1851BE" opacity=".1" rx="5"/>
              <rect width="13.512" height="13.514" x="164.677" y="4.223" fill="#1851BE" rx="4"/>
              <rect width="191.116" height="15.203" x="192.545" y="3.378" fill="#8792A2" fill-opacity=".201" rx="7.601"/>
            </g>
            <g transform="translate(0 42.318)">
              <g fill="#8792A2" opacity=".24" transform="translate(0 10.135)">
                <rect width="21.957" height="20.27" rx="7"/>
                <rect width="21.957" height="20.27" x="54.048" rx="7"/>
                <rect width="21.957" height="20.27" x="108.095" rx="7"/>
                <rect width="21.957" height="20.27" x="162.143" rx="7"/>
                <rect width="21.957" height="20.27" x="216.191" rx="7"/>
                <rect width="21.957" height="20.27" x="270.239" rx="7"/>
                <rect width="21.957" height="20.27" x="323.442" rx="7"/>
                <rect width="21.957" height="20.27" x="377.489" rx="7"/>
              </g>
              <g transform="translate(697.493)">
                <g transform="translate(91.265)">
                  <path fill="#1851BE" d="M5,0 L111.473393,0 L111.473393,0 L111.473393,35.4729567 L5,35.4729567 C2.23857625,35.4729567 3.38176876e-16,33.2343804 0,30.4729567 L0,5 C-3.38176876e-16,2.23857625 2.23857625,-3.80913106e-16 5,0 Z"/>
                  <rect width="13.512" height="8.446" x="21.957" y="13.514" fill="#5C84D1" rx="4.223"/>
                  <rect width="48.981" height="7.601" x="43.914" y="13.514" fill="#5C84D1" rx="3.801"/>
                  <path fill="#C3D2EE" d="M111.473393,0 L128.430273,0 C131.191697,3.80913106e-16 133.430273,2.23857625 133.430273,5 L133.430273,30.4729567 C133.430273,33.2343804 131.191697,35.4729567 128.430273,35.4729567 L111.473393,35.4729567 L111.473393,35.4729567 L111.473393,0 Z"/>
                  <rect width="7.6" height="8.446" x="119.074" y="13.514" fill="#1851BE" rx="3"/>
                </g>
                <rect width="81.761" height="34.473" x=".5" y=".538" stroke="#8792A2" stroke-opacity=".24" rx="5"/>
                <rect width="43.914" height="8.446" x="27.084" y="13.514" fill="#8792A2" opacity=".176" rx="3"/>
                <rect width="11.823" height="8.446" x="11.038" y="13.514" fill="#8792A2" opacity=".376" rx="3"/>
              </g>
            </g>
            <g transform="translate(0 95.527)">
              <g fill="#8792A2" transform="translate(461)">
                <path d="M7.6916556,1.42664977e-16 L454.247329,1.72915811e-14 C456.921885,-1.00469066e-14 457.891743,0.278476833 458.869521,0.801398111 C459.847299,1.32431939 460.614665,2.09168511 461.137586,3.06946289 C461.660507,4.04724067 461.938984,5.01709938 461.938984,7.6916556 L461.938984,181.497447 C461.938984,184.172003 461.660507,185.141862 461.137586,186.119639 C460.614665,187.097417 459.847299,187.864783 458.869521,188.387704 C457.891743,188.910625 456.921885,189.189102 454.247329,189.189102 L7.6916556,189.189102 C5.01709938,189.189102 4.04724067,188.910625 3.06946289,188.387704 C2.09168511,187.864783 1.32431939,187.097417 0.801398111,186.119639 C0.278476833,185.141862 -1.43077765e-16,184.172003 2.46249008e-16,181.497447 L6.60585131e-16,7.6916556 C-3.83818985e-16,5.01709938 0.278476833,4.04724067 0.801398111,3.06946289 C1.32431939,2.09168511 2.09168511,1.32431939 3.06946289,0.801398111 C4.04724067,0.278476833 5.01709938,-8.28924603e-17 7.6916556,1.42664977e-16 Z" opacity=".081"/>
                <rect width="142.264" height="11.824" x="17.574" y="47.297" opacity=".341" rx="5.912"/>
                <rect width="241.848" height="11.824" x="164.022" y="47.297" opacity=".341" rx="5.912"/>
                <rect width="177.411" height="11.824" x="52.721" y="70.946" opacity=".341" rx="5.912"/>
                <rect width="93.727" height="11.824" x="52.721" y="118.243" opacity=".341" rx="5.912"/>
                <rect width="155.653" height="11.824" x="52.721" y="94.595" opacity=".341" rx="5.912"/>
                <rect width="10.042" height="6.757" x="34.311" y="71.791" opacity=".441" rx="3.378"/>
                <rect width="10.042" height="6.757" x="34.311" y="119.088" opacity=".441" rx="3.378"/>
                <rect width="10.042" height="6.757" x="34.311" y="95.439" opacity=".441" rx="3.378"/>
                <rect width="239.338" height="11.824" x="17.574" y="141.892" opacity=".341" rx="5.912"/>
                <rect width="129.711" height="11.824" x="265.28" y="141.892" opacity=".341" rx="5.912"/>
                <rect width="259.422" height="11.824" x="17.574" y="165.54" opacity=".341" rx="5.912"/>
                <rect width="107.953" height="11.824" x="16.737" y="19.426" opacity=".641" rx="5.912"/>
                <rect width="107.953" height="11.824" x="133.059" y="18.581" opacity=".441" rx="5.912"/>
                <rect width="56.069" height="6.757" x="395.828" y="16.047" opacity=".178" rx="3"/>
              </g>
              <mask id="view-responsive-tablet-f" fill="#fff">
                <use xlink:href="#view-responsive-tablet-e"/>
              </mask>
              <path stroke="#8792A2" stroke-opacity=".24" d="M7.6916556,0.5 C5.32868808,0.5 4.33413652,0.692056765 3.30526232,1.24230471 C2.41461878,1.71862609 1.71862609,2.41461878 1.24230471,3.30526232 C0.692056765,4.33413652 0.5,5.32868808 0.5,7.6916556 L0.5,181.497447 C0.5,183.860414 0.692056765,184.854966 1.24230471,185.88384 C1.71862609,186.774484 2.41461878,187.470476 3.30526232,187.946798 C4.33413652,188.497046 5.32868808,188.689102 7.6916556,188.689102 L445.802374,188.689102 C448.165342,188.689102 449.159894,188.497046 450.188768,187.946798 C451.079411,187.470476 451.775404,186.774484 452.251725,185.88384 C452.801973,184.854966 452.99403,183.860414 452.99403,181.497447 L452.99403,7.6916556 C452.99403,5.32868808 452.801973,4.33413652 452.251725,3.30526232 C451.775404,2.41461878 451.079411,1.71862609 450.188768,1.24230471 C449.159894,0.692056765 448.165342,0.5 445.802374,0.5 L7.6916556,0.5 Z"/>
              <rect width="107.935" height="11.824" x="25.101" y="19.426" fill="#8792A2" mask="url(#view-responsive-tablet-f)" opacity=".241" rx="5.912"/>
              <rect width="107.935" height="11.824" x="174.035" y="19.426" fill="#8792A2" mask="url(#view-responsive-tablet-f)" opacity=".241" rx="5.912"/>
              <rect width="16.734" height="3.378" x="153.117" y="27.872" fill="#8792A2" mask="url(#view-responsive-tablet-f)" opacity=".241" rx="1.689"/>
              <rect width="16.734" height="3.378" x="286.153" y="27.872" fill="#8792A2" mask="url(#view-responsive-tablet-f)" opacity=".241" rx="1.689"/>
              <rect width="5.02" height="6.757" x="9.204" y="16.047" fill="#8792A2" mask="url(#view-responsive-tablet-f)" opacity=".161" rx="2.51"/>
              <rect width="5.02" height="6.757" x="15.897" y="16.047" fill="#8792A2" mask="url(#view-responsive-tablet-f)" opacity=".161" rx="2.51"/>
              <rect width="5.02" height="6.757" x="137.22" y="16.047" fill="#8792A2" mask="url(#view-responsive-tablet-f)" opacity=".161" rx="2.51"/>
              <rect width="5.02" height="6.757" x="143.913" y="16.047" fill="#8792A2" mask="url(#view-responsive-tablet-f)" opacity=".161" rx="2.51"/>
              <rect width="142.24" height="11.824" x="9.204" y="43.074" fill="#8792A2" mask="url(#view-responsive-tablet-f)" opacity=".241" rx="5.912"/>
              <rect width="241.808" height="11.824" x="155.627" y="43.074" fill="#8792A2" mask="url(#view-responsive-tablet-f)" opacity=".241" rx="5.912"/>
              <rect width="177.381" height="11.824" x="44.345" y="66.723" fill="#8792A2" mask="url(#view-responsive-tablet-f)" opacity=".241" rx="5.912"/>
              <rect width="93.711" height="11.824" x="44.345" y="114.02" fill="#8792A2" mask="url(#view-responsive-tablet-f)" opacity=".241" rx="5.912"/>
              <rect width="155.627" height="11.824" x="44.345" y="90.372" fill="#8792A2" mask="url(#view-responsive-tablet-f)" opacity=".241" rx="5.912"/>
              <rect width="10.04" height="6.757" x="25.938" y="67.568" fill="#8792A2" mask="url(#view-responsive-tablet-f)" opacity=".441" rx="3.378"/>
              <rect width="10.04" height="6.757" x="25.938" y="114.865" fill="#8792A2" mask="url(#view-responsive-tablet-f)" opacity=".441" rx="3.378"/>
              <rect width="10.04" height="6.757" x="25.938" y="91.216" fill="#8792A2" mask="url(#view-responsive-tablet-f)" opacity=".441" rx="3.378"/>
              <rect width="239.298" height="11.824" x="9.204" y="137.669" fill="#8792A2" mask="url(#view-responsive-tablet-f)" opacity=".241" rx="5.912"/>
              <rect width="129.689" height="11.824" x="256.868" y="137.669" fill="#8792A2" mask="url(#view-responsive-tablet-f)" opacity=".241" rx="5.912"/>
              <rect width="259.379" height="11.824" x="9.204" y="161.317" fill="#8792A2" mask="url(#view-responsive-tablet-f)" opacity=".241" rx="5.912"/>
              <rect width="56.059" height="6.757" x="389.068" y="16.047" fill="#8792A2" mask="url(#view-responsive-tablet-f)" opacity=".178" rx="3"/>
            </g>
            <rect width="924" height="30.649" fill="#FFF" rx="3"/>
            <rect width="524.432" height="14.649" x="10" y="8" fill="#8792A2" opacity=".299" rx="7.324"/>
            <g transform="translate(868 267)">
              <rect width="54" height="54" fill="#1851BE" rx="27" transform="matrix(1 0 0 -1 0 54)"/>
              <path fill="#FFF" d="M26.9978948,13.4993695 C27.9298754,13.4993695 28.6853948,14.254889 28.6853948,15.1868695 L28.6851448,25.3113695 L39.6541448,25.3118695 C40.5861254,25.3118695 41.3416448,26.067389 41.3416448,26.9993695 C41.3416448,27.9313501 40.5861254,28.6868695 39.6541448,28.6868695 L28.6851448,28.6863695 L28.6853948,39.6556195 C28.6853948,40.5876001 27.9298754,41.3431195 26.9978948,41.3431195 C26.0659143,41.3431195 25.3103948,40.5876001 25.3103948,39.6556195 L25.3101448,28.6863695 L14.3416448,28.6868695 C13.4096643,28.6868695 12.6541448,27.9313501 12.6541448,26.9993695 C12.6541448,26.067389 13.4096643,25.3118695 14.3416448,25.3118695 L25.3101448,25.3113695 L25.3103948,15.1868695 C25.3103948,14.254889 26.0659143,13.4993695 26.9978948,13.4993695 Z" opacity=".904"/>
            </g>
          </g>
        </g>
      </g>
    </g>
  </g>
</svg>
