<svg xmlns="http://www.w3.org/2000/svg" xmlns:xlink="http://www.w3.org/1999/xlink" width="50" height="50" viewBox="0 0 50 50">
  <defs>
    <polygon id="wordpress-a" points="0 0 41.983 0 41.983 41.984 0 41.984"/>
  </defs>
  <g fill="none" fill-rule="evenodd" transform="translate(4 4)">
    <mask id="wordpress-b" fill="#fff">
      <use xlink:href="#wordpress-a"/>
    </mask>
    <g fill-rule="nonzero" mask="url(#wordpress-b)">
      <path fill="#00749A" d="M107.317221,16.5253923 L100.033329,16.5253923 L100.033329,17.2980872 C102.311665,17.2980872 102.677967,17.7863756 102.677967,20.6753295 L102.677967,25.8844243 C102.677967,28.7733783 102.31235,29.3027857 100.033329,29.3027857 C98.2843995,29.0584701 97.1035983,28.1226697 95.4759703,26.3319363 L93.6043695,24.2975727 C96.1266789,23.8493754 97.4695576,22.2628665 97.4695576,20.472133 C97.4695576,18.2345729 95.5575231,16.5253923 91.9763989,16.5253923 L84.8148359,16.5253923 L84.8148359,17.2980872 C87.0931724,17.2980872 87.4594743,17.7863756 87.4594743,20.6753295 L87.4594743,25.8844243 C87.4594743,28.7733783 87.0935151,29.3027857 84.8148359,29.3027857 L84.8148359,30.0758233 L92.9121993,30.0758233 L92.9121993,29.3027857 C90.6342055,29.3027857 90.2675609,28.7733783 90.2675609,25.8844243 L90.2675609,24.4202445 L90.9593884,24.4202445 L95.476313,30.0758233 L107.317563,30.0758233 C113.136248,30.0758233 115.659585,26.9836728 115.659585,23.2802196 C115.6589,19.577109 113.136248,16.5253923 107.317221,16.5253923 L107.317221,16.5253923 Z M90.2679035,23.1575478 L90.2679035,17.7462846 L91.9359652,17.7462846 C93.7667897,17.7462846 94.5809463,19.0076106 94.5809463,20.4724757 C94.5809463,21.8969072 93.7667897,23.1578905 91.9359652,23.1578905 L90.2679035,23.1575478 Z M107.43955,28.8141546 L107.154458,28.8141546 C105.689935,28.8141546 105.486396,28.448538 105.486396,26.5765945 L105.486396,17.7462846 L107.43955,17.7462846 C111.671382,17.7462846 112.443735,20.838435 112.443735,23.2394432 C112.444077,25.7213189 111.67104,28.8141546 107.43955,28.8141546 L107.43955,28.8141546 Z M62.1507163,24.6638747 L64.9581176,16.3619441 C65.7722742,13.9612786 65.4063149,13.2701364 62.8017675,13.2701364 L62.8017675,12.4559797 L70.4516189,12.4559797 L70.4516189,13.2701364 C67.8885332,13.2701364 67.2779157,13.8800685 66.2609052,16.8505752 L61.6216516,30.7673082 L61.0929295,30.7673082 L56.9419642,18.0306911 L52.7104742,30.7673082 L52.1810668,30.7673082 L47.6644849,16.8509178 C46.6879081,13.8804112 46.036857,13.270479 43.6766251,13.270479 L43.6766251,12.4563224 L52.7101316,12.4563224 L52.7101316,13.270479 C50.3087807,13.270479 49.6577295,13.8399775 50.5126625,16.3622868 L53.2388537,24.6642173 L57.3483572,12.4563224 L58.1220802,12.4563224 L62.1507163,24.6638747 L62.1507163,24.6638747 Z M75.9852113,30.6042027 C71.5094057,30.6042027 67.8470715,27.3085131 67.8470715,23.2795343 C67.8470715,19.2916745 71.5094057,15.9956422 75.9852113,15.9956422 C80.4610168,15.9956422 84.123351,19.2916745 84.123351,23.2795343 C84.123351,27.3085131 80.4613595,30.6042027 75.9852113,30.6042027 Z M75.9852113,17.2579962 C72.2420096,17.2579962 70.939222,20.6345532 70.939222,23.2798769 C70.939222,25.965977 72.2420096,29.302443 75.9852113,29.302443 C79.7698746,29.302443 81.0719769,25.965977 81.0719769,23.2798769 C81.0719769,20.6345532 79.7698746,17.2579962 75.9852113,17.2579962 Z"/>
      <g fill="#2A2F45">
        <path d="M2.98386502,20.9912607 C2.98386502,28.1195858 7.12626916,34.2792153 13.1330729,37.1986659 L4.54296661,13.6624804 C3.51320727,15.9684342 2.98192197,18.4658254 2.98386502,20.9912607 Z M33.1487849,20.0825303 C33.1487849,17.8569633 32.3493625,16.3156852 31.6637028,15.1160378 C30.7508606,13.6326691 29.8955849,12.3764829 29.8955849,10.8931142 C29.8955849,9.23773094 31.150743,7.69679559 32.9192036,7.69679559 C32.9990431,7.69679559 33.0747706,7.70673269 33.1528968,7.71118725 C29.948697,4.7759744 25.6801998,2.98387036 20.991946,2.98387036 C14.7007357,2.98387036 9.16577265,6.21171358 5.94581057,11.1007653 C6.36830852,11.1134437 6.76682038,11.1220101 7.10468167,11.1220101 C8.98827554,11.1220101 11.9039569,10.8934569 11.9039569,10.8934569 C12.8747084,10.8362329 12.9891564,12.262035 12.0197754,12.3768256 C12.0197754,12.3768256 11.043884,12.4916162 9.9583418,12.5484975 L16.5161405,32.0543336 L20.4573987,20.2350134 L17.6513681,12.5481549 C16.6816445,12.4912735 15.7629771,12.3764829 15.7629771,12.3764829 C14.7925681,12.3196016 14.9063308,10.8358903 15.8767397,10.8931142 C15.8767397,10.8931142 18.8506729,11.1216675 20.6201615,11.1216675 C22.5034127,11.1216675 25.4194367,10.8931142 25.4194367,10.8931142 C26.3908736,10.8358903 26.5049789,12.2616923 25.5349126,12.3764829 C25.5349126,12.3764829 24.5573079,12.4912735 23.4738216,12.5481549 L29.9815922,31.9063051 L31.7774655,25.9039558 C32.5563283,23.4131711 33.1487849,21.624151 33.1487849,20.0825303 L33.1487849,20.0825303 Z"/>
        <path d="M21.3078772,22.5664619 L15.9048377,38.2663898 C17.5566853,38.7532002 19.2698586,39.0003643 20.991946,39.0003643 C23.0890161,39.0003643 25.100079,38.637489 26.9720224,37.9795846 C26.9218084,37.9009823 26.8789105,37.8179395 26.8438682,37.7314998 L21.3078772,22.5664619 Z M36.7933008,12.3514689 C36.8707417,12.9250792 36.9146019,13.5411792 36.9146019,14.2031955 C36.9146019,16.0305934 36.5733141,18.0848312 35.5453385,20.6533994 L30.0446414,36.5572091 C35.398338,33.4352474 38.999359,27.6350667 38.999359,20.9912607 C39.0041389,17.9714033 38.2452745,14.9993613 36.7933008,12.3514689 L36.7933008,12.3514689 Z"/>
        <path d="M20.991946,0 C9.417284,0 0,9.41659868 0,20.9912607 C0,32.5672934 9.41694134,41.983892 20.991946,41.983892 C32.5662654,41.983892 41.98492,32.567636 41.98492,20.9912607 C41.98492,9.41659868 32.5662654,0 20.991946,0 Z M20.991946,41.0213643 C9.94806204,41.0213643 0.962527772,32.03583 0.962527772,20.9912607 C0.962527772,9.94771938 9.94771938,0.96287043 20.991946,0.96287043 C32.0354873,0.96287043 41.0203363,9.94771938 41.0203363,20.9912607 C41.0203363,32.03583 32.0351447,41.0213643 20.991946,41.0213643 Z"/>
      </g>
    </g>
  </g>
</svg>
