<svg xmlns="http://www.w3.org/2000/svg" xmlns:xlink="http://www.w3.org/1999/xlink" width="375" height="710" viewBox="0 0 375 710">
  <defs>
    <path id="view-responsive-mobile-a" d="M-1.02540719e-06,2.50111043e-12 C67.4414059,2.50111043e-12 101.162109,2.50111043e-12 101.162109,2.50111043e-12 C111.658203,2.50111043e-12 259.142578,2.50111043e-12 270.662109,2.50111043e-12 C270.662109,2.50111043e-12 305.441406,2.50111043e-12 374.999999,2.50111043e-12 L374.999999,812 L-1.02540719e-06,812 L-1.02540719e-06,2.50111043e-12 Z"/>
    <linearGradient id="view-responsive-mobile-c" x1="50.007%" x2="50.007%" y1="-141.4%" y2="-47.015%">
      <stop offset="0%" stop-color="#2A6CBE"/>
      <stop offset="38.688%" stop-color="#2062BC"/>
      <stop offset="49.182%" stop-color="#1F5FBC"/>
      <stop offset="66.583%" stop-color="#1C5ABD"/>
      <stop offset="85.354%" stop-color="#1956BC"/>
      <stop offset="100%" stop-color="#1851BE"/>
    </linearGradient>
  </defs>
  <g fill="none" fill-rule="evenodd">
    <mask id="view-responsive-mobile-b" fill="#fff">
      <use xlink:href="#view-responsive-mobile-a"/>
    </mask>
    <use fill="#FFF" xlink:href="#view-responsive-mobile-a"/>
    <g mask="url(#view-responsive-mobile-b)">
      <g transform="translate(0 -37)">
        <g transform="translate(13 54)">
          <rect width="98.389" height="25.395" x=".589" y=".535" fill="url(#view-responsive-mobile-c)" rx="5"/>
          <g fill="#FFF" opacity=".296" transform="translate(17.09 10.21)">
            <rect width="19.482" height="6.047" rx="3.023"/>
            <rect width="40.425" height="6.047" x="24.353" rx="3.023"/>
          </g>
        </g>
        <g transform="translate(0 143)">
          <rect width="375" height="63" fill="#1851BE" opacity=".1"/>
          <g transform="translate(14.178 11.434)">
            <ellipse cx="17.088" cy="17.448" fill="#1851BE" opacity=".24" rx="17.088" ry="17.448"/>
            <path fill="#1851BE" d="M84.6527474,14.2831873 C86.6088337,14.2831873 88.194555,15.8689086 88.194555,17.8249949 C88.194555,19.7810813 86.6088337,21.3668026 84.6527474,21.3668026 L54.5125258,21.3668026 C52.5564394,21.3668026 50.9707181,19.7810813 50.9707181,17.8249949 C50.9707181,15.8689086 52.5564394,14.2831873 54.5125258,14.2831873 L84.6527474,14.2831873 Z M142.663922,14.2831873 C144.620008,14.2831873 146.20573,15.8689086 146.20573,17.8249949 C146.20573,19.7810813 144.620008,21.3668026 142.663922,21.3668026 L142.663922,21.3668026 L96.5706272,21.3668026 C94.6145409,21.3668026 93.0288196,19.7810813 93.0288196,17.8249949 C93.0288196,15.8689086 94.6145409,14.2831873 96.5706272,14.2831873 L96.5706272,14.2831873 Z M219.528728,1.22445351 C221.484814,1.22445351 223.070536,2.81017481 223.070536,4.76626116 C223.070536,6.72234752 221.484814,8.30806882 219.528728,8.30806882 L54.5125258,8.30806882 C52.5564394,8.30806882 50.9707181,6.72234752 50.9707181,4.76626116 C50.9707181,2.81017481 52.5564394,1.22445351 54.5125258,1.22445351 L219.528728,1.22445351 Z" opacity=".897"/>
            <rect width="12.086" height="12.346" x="337.06" y="1.258" fill="#1851BE" rx="6.043"/>
            <rect width="21.559" height="8" x="306.013" y="3.491" fill="#1851BE" opacity=".164" rx="4"/>
            <rect width="20.71" height="4.96" x="65.94" y="36.765" fill="#1851BE" opacity=".158" rx="2.48"/>
            <rect width="9.633" height="9.921" x="50.57" y="34.285" fill="#F84F77" rx="4.816"/>
          </g>
        </g>
        <g transform="translate(253 55)">
          <g transform="translate(56.799 .537)">
            <rect width="51.271" height="23.75" x=".625" y=".625" stroke="#8792A2" stroke-opacity=".24" stroke-width="1.25" rx="5"/>
            <rect width="11.63" height="7.836" x="9.754" y="8.244" fill="#8792A2" opacity=".176" rx="3.918"/>
            <rect width="18.007" height="7.836" x="23.259" y="8.244" fill="#8792A2" opacity=".176" rx="3.918"/>
          </g>
          <g transform="translate(.263 .537)">
            <rect width="51.271" height="23.75" x=".625" y=".625" stroke="#8792A2" stroke-opacity=".24" stroke-width="1.25" rx="5"/>
            <rect width="21.759" height="7.836" x="9.754" y="8.244" fill="#8792A2" opacity=".176" rx="3.918"/>
            <rect width="9.754" height="7.836" x="33.388" y="8.244" fill="#8792A2" opacity=".176" rx="3.918"/>
          </g>
        </g>
        <g transform="translate(11.6 111.612)">
          <rect width="23.384" height="8" x="2" fill="#1851BE" rx="4"/>
          <rect width="5.996" height="8" x="31.38" fill="#8792A2" opacity=".164" rx="2.998"/>
          <rect width="49.765" height="8" x="43.371" fill="#8792A2" opacity=".164" rx="4"/>
          <rect width="23.384" height="8" x="99.132" fill="#8792A2" opacity=".164" rx="4"/>
          <g transform="translate(1.4 106.388)">
            <rect width="12.086" height="12.346" x="338.039" y="1" fill="#8792A2" opacity=".578" rx="6.043"/>
            <rect width="21.559" height="8" x="306.992" y="3.232" fill="#8792A2" opacity=".164" rx="4"/>
            <g transform="translate(.4 .22)">
              <ellipse cx="17.646" cy="17.695" fill="#8792A2" opacity=".24" rx="17.068" ry="17.1"/>
              <path fill="#8792A2" d="M67.5101356,12.8578512 C69.427157,12.8578512 70.98121,14.4119042 70.98121,16.3289256 C70.98121,18.2459471 69.427157,19.8 67.5101356,19.8 L3.47107438,19.8 C1.55405293,19.8 -1.77400917e-13,18.2459471 -1.77635684e-13,16.3289256 C-1.77870451e-13,14.4119042 1.55405293,12.8578512 3.47107438,12.8578512 L67.5101356,12.8578512 Z M132.696961,12.8578512 C134.613983,12.8578512 136.168035,14.4119042 136.168035,16.3289256 C136.168035,18.2459471 134.613983,19.8 132.696961,19.8 L132.696961,19.8 L79.2809381,19.8 C77.3639166,19.8 75.8098637,18.2459471 75.8098637,16.3289256 C75.8098637,14.4119042 77.3639166,12.8578512 79.2809381,12.8578512 L79.2809381,12.8578512 Z M168.428999,0 C170.34602,1.2526436e-14 171.900073,1.55405293 171.900073,3.47107438 C171.900073,5.38809583 170.34602,6.94214876 168.428999,6.94214876 L3.47107438,6.94214876 C1.55405293,6.94214876 2.34767418e-16,5.38809583 0,3.47107438 C-2.34767418e-16,1.55405293 1.55405293,3.52151127e-16 3.47107438,0 L168.428999,0 Z" opacity=".4" transform="translate(52.5 1.795)"/>
            </g>
          </g>
          <g transform="translate(1.4 181.388)">
            <rect width="12.086" height="12.346" x="338.039" y="1" fill="#1851BE" rx="6.043"/>
            <rect width="21.559" height="8" x="306.992" y="3.232" fill="#8792A2" opacity=".164" rx="4"/>
            <g transform="translate(.4 .132)">
              <ellipse cx="17.646" cy="17.122" fill="#8792A2" opacity=".24" rx="17.068" ry="17.1"/>
              <path fill="#8792A2" d="M33.7095594,12.8578512 C35.6265809,12.8578512 37.1806338,14.4119042 37.1806338,16.3289256 C37.1806338,18.2459471 35.6265809,19.8 33.7095594,19.8 L3.47107438,19.8 C1.55405293,19.8 -1.1345207e-13,18.2459471 -1.13686838e-13,16.3289256 C-1.13921605e-13,14.4119042 1.55405293,12.8578512 3.47107438,12.8578512 L33.7095594,12.8578512 Z M91.6534043,12.8578512 C93.5704257,12.8578512 95.1244787,14.4119042 95.1244787,16.3289256 C95.1244787,18.2459471 93.5704257,19.8 91.6534043,19.8 L91.6534043,19.8 L45.4803619,19.8 C43.5633405,19.8 42.0092875,18.2459471 42.0092875,16.3289256 C42.0092875,14.4119042 43.5633405,12.8578512 45.4803619,12.8578512 L45.4803619,12.8578512 Z M168.428999,0 C170.34602,-1.14543814e-14 171.900073,1.55405293 171.900073,3.47107438 C171.900073,5.38809583 170.34602,6.94214876 168.428999,6.94214876 L3.47107438,6.94214876 C1.55405293,6.94214876 2.34767418e-16,5.38809583 0,3.47107438 C-2.34767418e-16,1.55405293 1.55405293,3.52151127e-16 3.47107438,0 L168.428999,0 Z" opacity=".4" transform="translate(51.5 1.222)"/>
            </g>
          </g>
          <g transform="translate(2.4 256.388)">
            <rect width="12.086" height="12.346" x="338.039" y="2" fill="#1851BE" rx="6.043"/>
            <rect width="21.559" height="8" x="306.992" y="4.232" fill="#8792A2" opacity=".164" rx="4"/>
            <g transform="translate(.4 .657)">
              <ellipse cx="17.642" cy="17.15" fill="#8792A2" opacity=".24" rx="17.064" ry="17.1"/>
              <path fill="#8792A2" d="M33.7008856,12.8578512 C35.6179071,12.8578512 37.17196,14.4119042 37.17196,16.3289256 C37.17196,18.2459471 35.6179071,19.8 33.7008856,19.8 L3.47107438,19.8 C1.55405293,19.8 1.48526909e-12,18.2459471 1.48503432e-12,16.3289256 C1.48479955e-12,14.4119042 1.55405293,12.8578512 3.47107438,12.8578512 L33.7008856,12.8578512 Z M144.734013,12.8578512 C146.651034,12.8578512 148.205087,14.4119042 148.205087,16.3289256 C148.205087,18.2459471 146.651034,19.8 144.734013,19.8 L144.734013,19.8 L45.4705617,19.8 C43.5535402,19.8 41.9994873,18.2459471 41.9994873,16.3289256 C41.9994873,14.4119042 43.5535402,12.8578512 45.4705617,12.8578512 L45.4705617,12.8578512 Z M136.044464,0 C137.961485,1.34146144e-14 139.515538,1.55405293 139.515538,3.47107438 C139.515538,5.38809583 137.961485,6.94214876 136.044464,6.94214876 L3.47107438,6.94214876 C1.55405293,6.94214876 2.34767418e-16,5.38809583 0,3.47107438 C-2.34767418e-16,1.55405293 1.55405293,3.52151127e-16 3.47107438,0 L136.044464,0 Z" opacity=".4" transform="translate(50.49 1.25)"/>
            </g>
          </g>
          <g transform="translate(.4 331.388)">
            <rect width="12.086" height="12.346" x="338.039" y="2" fill="#1851BE" rx="6.043"/>
            <rect width="21.559" height="8" x="306.992" y="4.232" fill="#8792A2" opacity=".164" rx="4"/>
            <g transform="translate(.4 .957)">
              <ellipse cx="17.646" cy="17.426" fill="#8792A2" opacity=".24" rx="17.068" ry="17.348"/>
              <path fill="#8792A2" d="M33.659254,13.0567368 C35.6040584,13.0567368 37.1806338,14.6333122 37.1806338,16.5781166 C37.1806338,18.522921 35.6040584,20.0994964 33.659254,20.0994964 L3.52137981,20.0994964 C1.57657544,20.0994964 -1.13448668e-13,18.522921 -1.13686838e-13,16.5781166 C-1.13925008e-13,14.6333122 1.57657544,13.0567368 3.52137981,13.0567368 L33.659254,13.0567368 Z M91.6030989,13.0567368 C93.5479032,13.0567368 95.1244787,14.6333122 95.1244787,16.5781166 C95.1244787,18.522921 93.5479032,20.0994964 91.6030989,20.0994964 L91.6030989,20.0994964 L45.5306673,20.0994964 C43.585863,20.0994964 42.0092875,18.522921 42.0092875,16.5781166 C42.0092875,14.6333122 43.585863,13.0567368 45.5306673,13.0567368 L45.5306673,13.0567368 Z M168.378693,0.0560181492 C170.323498,0.0560181492 171.900073,1.63259359 171.900073,3.57739796 C171.900073,5.52220232 170.323498,7.09877776 168.378693,7.09877776 L3.52137981,7.09877776 C1.57657544,7.09877776 2.38169844e-16,5.52220232 0,3.57739796 C-2.38169844e-16,1.63259359 1.57657544,0.0560181492 3.52137981,0.0560181492 L168.378693,0.0560181492 Z" opacity=".4" transform="translate(52.5 .687)"/>
            </g>
          </g>
          <g transform="translate(.4 406.388)">
            <rect width="12.086" height="12.346" x="338.039" y="2" fill="#8792A2" opacity=".578" rx="6.043"/>
            <rect width="21.559" height="8" x="306.992" y="4.232" fill="#8792A2" opacity=".164" rx="4"/>
            <g transform="translate(.4 .87)">
              <ellipse cx="17.589" cy="17.205" fill="#8792A2" opacity=".24" rx="17.014" ry="17.1"/>
              <path fill="#8792A2" d="M62.469831,12.8578512 C64.3868524,12.8578512 65.9409053,14.4119042 65.9409053,16.3289256 C65.9409053,18.2459471 64.3868524,19.8 62.469831,19.8 L3.47107438,19.8 C1.55405293,19.8 -9.58997926e-13,18.2459471 -9.59232693e-13,16.3289256 C-9.59467461e-13,14.4119042 1.55405293,12.8578512 3.47107438,12.8578512 L62.469831,12.8578512 Z M125.041493,12.8578512 C126.958514,12.8578512 128.512567,14.4119042 128.512567,16.3289256 C128.512567,18.2459471 126.958514,19.8 125.041493,19.8 L125.041493,19.8 L74.2251845,19.8 C72.308163,19.8 70.7541101,18.2459471 70.7541101,16.3289256 C70.7541101,14.4119042 72.308163,12.8578512 74.2251845,12.8578512 L74.2251845,12.8578512 Z M150.551478,0 C152.4685,1.07500791e-14 154.022553,1.55405293 154.022553,3.47107438 C154.022553,5.38809583 152.4685,6.94214876 150.551478,6.94214876 L3.47107438,6.94214876 C1.55405293,6.94214876 2.34767418e-16,5.38809583 0,3.47107438 C-2.34767418e-16,1.55405293 1.55405293,-9.19380832e-17 3.47107438,0 L150.551478,0 Z" opacity=".4" transform="translate(53.364 1.305)"/>
            </g>
          </g>
          <g transform="translate(.4 481.388)">
            <g transform="translate(0 .993)">
              <rect width="12.086" height="12.346" x="338.039" y="1" fill="#8792A2" opacity=".578" rx="6.043"/>
              <rect width="21.559" height="8" x="306.992" y="3.232" fill="#8792A2" opacity=".164" rx="4"/>
            </g>
            <rect width="9.847" height="9.532" x="54.013" y="31.488" fill="#0E423C" rx="4.766"/>
            <rect width="21.171" height="4.766" x="69.927" y="33.871" fill="#8792A2" opacity=".158" rx="2.383"/>
            <ellipse cx="18.046" cy="18.62" fill="#8792A2" opacity=".24" rx="17.068" ry="17.1"/>
            <path fill="#8792A2" d="M86.6095374,15.5782499 C88.5265589,15.5782499 90.0806118,17.1323028 90.0806118,19.0493243 C90.0806118,20.9663457 88.5265589,22.5203987 86.6095374,22.5203987 L56.3710524,22.5203987 C54.454031,22.5203987 52.899978,20.9663457 52.899978,19.0493243 C52.899978,17.1323028 54.454031,15.5782499 56.3710524,15.5782499 L86.6095374,15.5782499 Z M144.553382,15.5782499 C146.470404,15.5782499 148.024457,17.1323028 148.024457,19.0493243 C148.024457,20.9663457 146.470404,22.5203987 144.553382,22.5203987 L144.553382,22.5203987 L98.3803399,22.5203987 C96.4633185,22.5203987 94.9092656,20.9663457 94.9092656,19.0493243 C94.9092656,17.1323028 96.4633185,15.5782499 98.3803399,15.5782499 L98.3803399,15.5782499 Z M221.328977,2.72039866 C223.245998,2.72039866 224.800051,4.2744516 224.800051,6.19147304 C224.800051,8.10849449 223.245998,9.66254742 221.328977,9.66254742 L56.3710524,9.66254742 C54.454031,9.66254742 52.899978,8.10849449 52.899978,6.19147304 C52.899978,4.2744516 54.454031,2.72039866 56.3710524,2.72039866 L221.328977,2.72039866 Z" opacity=".4"/>
          </g>
          <g transform="translate(.8 559.695)">
            <rect width="12.086" height="12.346" x="337.638" y=".873" fill="#8792A2" opacity=".578" rx="6.043"/>
            <rect width="21.559" height="8" x="306.592" y="3.105" fill="#8792A2" opacity=".164" rx="4"/>
            <g transform="translate(0 .18)">
              <ellipse cx="17.646" cy="17.26" fill="#8792A2" opacity=".24" rx="17.068" ry="17.1"/>
              <path fill="#8792A2" d="M33.7095594,12.8578512 C35.6265809,12.8578512 37.1806338,14.4119042 37.1806338,16.3289256 C37.1806338,18.2459471 35.6265809,19.8 33.7095594,19.8 L3.47107438,19.8 C1.55405293,19.8 -1.1345207e-13,18.2459471 -1.13686838e-13,16.3289256 C-1.13921605e-13,14.4119042 1.55405293,12.8578512 3.47107438,12.8578512 L33.7095594,12.8578512 Z M91.6534043,12.8578512 C93.5704257,12.8578512 95.1244787,14.4119042 95.1244787,16.3289256 C95.1244787,18.2459471 93.5704257,19.8 91.6534043,19.8 L91.6534043,19.8 L45.4803619,19.8 C43.5633405,19.8 42.0092875,18.2459471 42.0092875,16.3289256 C42.0092875,14.4119042 43.5633405,12.8578512 45.4803619,12.8578512 L45.4803619,12.8578512 Z M168.428999,0 C170.34602,-6.12531085e-15 171.900073,1.55405293 171.900073,3.47107438 C171.900073,5.38809583 170.34602,6.94214876 168.428999,6.94214876 L3.47107438,6.94214876 C1.55405293,6.94214876 2.34767418e-16,5.38809583 0,3.47107438 C-2.34767418e-16,1.55405293 1.55405293,3.52151127e-16 3.47107438,0 L168.428999,0 Z" opacity=".4" transform="translate(52.5 1.36)"/>
            </g>
            <rect width="9.847" height="9.532" x="53.612" y="29.307" fill="#8792A2" rx="4.766"/>
            <rect width="21.171" height="4.766" x="69.527" y="31.69" fill="#8792A2" opacity=".158" rx="2.383"/>
          </g>
        </g>
        <g transform="translate(65 251)">
          <rect width="9.847" height="9.902" x=".612" y=".574" fill="#1851BE" rx="4.923"/>
          <rect width="21.171" height="4.951" x="16.527" y="3.05" fill="#8792A2" opacity=".158" rx="2.476"/>
        </g>
        <g transform="translate(65 324)">
          <rect width="9.847" height="9.902" x=".612" y=".603" fill="#BCCCEB" rx="4.923"/>
          <rect width="21.171" height="4.951" x="16.527" y="3.078" fill="#8792A2" opacity=".158" rx="2.476"/>
        </g>
        <g transform="translate(65 397)">
          <rect width="9.847" height="9.532" x=".612" y=".019" fill="#512DA8" rx="4.766"/>
          <rect width="21.171" height="4.766" x="16.527" y="2.402" fill="#8792A2" opacity=".158" rx="2.383"/>
        </g>
        <g transform="translate(65 473)">
          <rect width="9.847" height="9.532" x=".612" y=".046" fill="#8369C0" rx="4.766"/>
          <rect width="21.171" height="4.766" x="16.527" y="2.429" fill="#8792A2" opacity=".158" rx="2.383"/>
        </g>
        <g transform="translate(66 546)">
          <rect width="9.847" height="9.532" x=".612" y=".073" fill="#BFE5E1" rx="4.766"/>
          <rect width="21.171" height="4.766" x="16.527" y="2.456" fill="#8792A2" opacity=".158" rx="2.383"/>
        </g>
      </g>
    </g>
  </g>
</svg>
