<?xml version="1.0" encoding="utf-8"?>
<!-- Generator: Adobe Illustrator 19.1.0, SVG Export Plug-In . SVG Version: 6.00 Build 0)  -->
<svg version="1.1" id="Layer_1" xmlns="http://www.w3.org/2000/svg" xmlns:xlink="http://www.w3.org/1999/xlink" x="0px" y="0px"
	 viewBox="0 0 219.8 80.4" enable-background="new 0 0 219.8 80.4" xml:space="preserve">
<g id="XMLID_1_">
	<g id="XMLID_4_">
		<linearGradient id="XMLID_3_" gradientUnits="userSpaceOnUse" x1="33.4957" y1="1.3108" x2="33.4957" y2="79.2281">
			<stop  offset="0.3" style="stop-color:#FF1B2D"/>
			<stop  offset="0.4381" style="stop-color:#FA1A2C"/>
			<stop  offset="0.5939" style="stop-color:#ED1528"/>
			<stop  offset="0.7581" style="stop-color:#D60E21"/>
			<stop  offset="0.9272" style="stop-color:#B70519"/>
			<stop  offset="1" style="stop-color:#A70014"/>
		</linearGradient>
		<path id="XMLID_5_" fill="url(#XMLID_3_)" d="M27,62.9c-4.4-5.2-7.3-13-7.5-21.7c0,0,0-1.9,0-1.9c0.2-8.7,3.1-16.5,7.5-21.7
			c5.8-7.5,14.3-12.2,23.9-12.2c5.9,0,11.4,1.8,16.1,4.9C59.9,3.9,50.6,0,40.4,0c-0.1,0-0.1,0-0.2,0C18,0,0,18,0,40.2
			c0,21.6,17,39.2,38.3,40.2c0.6,0,1.3,0,1.9,0c10.3,0,19.7-3.9,26.8-10.2c-4.7,3.1-10.2,4.9-16.1,4.9C41.3,75.1,32.7,70.3,27,62.9z
			"/>
		<g id="XMLID_8_">
			<linearGradient id="XMLID_6_" gradientUnits="userSpaceOnUse" x1="53.6825" y1="5.9033" x2="53.6825" y2="74.8173">
				<stop  offset="0" style="stop-color:#9C0000"/>
				<stop  offset="0.7" style="stop-color:#FF4B4B"/>
			</linearGradient>
			<path id="XMLID_39_" fill="url(#XMLID_6_)" d="M27,17.5c3.7-4.4,8.5-7,13.7-7c11.7,0,21.2,13.3,21.2,29.6s-9.5,29.6-21.2,29.6
				c-5.2,0-10-2.6-13.7-7c5.8,7.5,14.3,12.2,23.9,12.2c5.9,0,11.4-1.8,16.1-4.9c8.2-7.4,13.4-18.1,13.4-30c0-11.9-5.2-22.6-13.4-30
				c-4.7-3.1-10.2-4.9-16.1-4.9C41.3,5.3,32.7,10.1,27,17.5z"/>
		</g>
	</g>
	<g id="XMLID_9_">
		<path id="XMLID_10_" d="M142.7,33.8c-3.6,0-6.6,1.7-8.7,4.3v-3.7h-2.8V67h2.8V55.3c2.1,2.7,5.1,4.3,8.7,4.3c6.6,0,12-5.8,12-12.9
			C154.6,39.6,149.3,33.8,142.7,33.8z M142.7,56.9c-5.1,0-9.2-4.5-9.2-10.1c0-5.6,4.1-10.1,9.2-10.1c5.1,0,9.2,4.5,9.2,10.1
			C151.8,52.3,147.7,56.9,142.7,56.9z"/>
		<path id="XMLID_13_" d="M111.1,24.3c-9.5,0-17.2,8.1-17.2,18c0,9.9,7.7,18,17.2,18c9.5,0,17.2-8.1,17.2-18
			C128.3,32.4,120.6,24.3,111.1,24.3z M111.1,57.6c-8,0-14.5-6.9-14.5-15.3c0-8.4,6.5-15.3,14.5-15.3c8,0,14.5,6.9,14.5,15.3
			C125.6,50.8,119.1,57.6,111.1,57.6z"/>
		<path id="XMLID_16_" d="M194.3,33.9c-1,0-1.9,0.3-2.8,0.8c-1.8,1-3.1,2.4-3.9,4.3c0,0,0,0.1-0.1,0.1c0,0,0,0,0,0c0-1.5,0-3,0-4.5
			h0v0h-2.8v0c0,8.1,0,16.2,0,24.4c0.9,0,1.9,0,2.8,0c0,0,0,0,0,0c0-0.1,0-0.1,0-0.2c0-4.4,0-8.3,0-12.6c0-1.8,0.3-3.3,0.9-4.7
			c0.5-1.3,1.3-2.5,2.4-3.4c1.3-1.1,2.8-1.6,4.5-1.3c0.3,0,0.5,0.1,0.8,0.2c0.2-0.8,0.5-1.8,0.7-2.7C196.1,34,195,33.9,194.3,33.9z"
			/>
		<path id="XMLID_17_" d="M169.2,33.9c-6.6,0-12,5.8-12,12.9c0,7.1,5.4,12.9,12,12.9c4.7,0,8.8-3,10.8-7.3l-2.4-1.4
			c-1.5,3.5-4.6,5.9-8.3,5.9c-4.8,0-8.7-4.1-9.2-9.2h19.4l0,0h1.7c0-0.3,0-0.6,0-0.9C181.2,39.2,176.2,33.9,169.2,33.9z M169.2,36.7
			c5,0,8.5,3.4,9.1,8.5h-18.2C160.8,40.4,164.6,36.7,169.2,36.7z"/>
		<path id="XMLID_20_" d="M216.9,34.4v3.7c-2.1-2.7-5.1-4.3-8.7-4.3c-6.6,0-12,5.8-12,12.9c0,7.1,5.4,12.9,12,12.9
			c3.6,0,6.6-1.7,8.7-4.3V59h2.8V34.4H216.9z M208.2,56.9c-5.1,0-9.2-4.5-9.2-10.1c0-5.6,4.1-10.1,9.2-10.1s9.2,4.5,9.2,10.1
			C217.4,52.3,213.3,56.9,208.2,56.9z"/>
	</g>
</g>
</svg>
