<svg xmlns="http://www.w3.org/2000/svg" xmlns:xlink="http://www.w3.org/1999/xlink" width="172" height="202" viewBox="0 0 172 202">
  <defs>
    <circle id="analytics-presence-a" cx="60" cy="60" r="60"/>
    <mask id="analytics-presence-f" width="120" height="120" x="0" y="0" fill="#fff" maskContentUnits="userSpaceOnUse" maskUnits="objectBoundingBox">
      <use xlink:href="#analytics-presence-a"/>
    </mask>
    <circle id="analytics-presence-b" cx="60" cy="60" r="60"/>
    <mask id="analytics-presence-g" width="120" height="120" x="0" y="0" fill="#fff" maskContentUnits="userSpaceOnUse" maskUnits="objectBoundingBox">
      <use xlink:href="#analytics-presence-b"/>
    </mask>
    <circle id="analytics-presence-c" cx="60" cy="60" r="60"/>
    <mask id="analytics-presence-h" width="120" height="120" x="0" y="0" fill="#fff" maskContentUnits="userSpaceOnUse" maskUnits="objectBoundingBox">
      <use xlink:href="#analytics-presence-c"/>
    </mask>
    <circle id="analytics-presence-d" cx="60" cy="60" r="60"/>
    <mask id="analytics-presence-i" width="120" height="120" x="0" y="0" fill="#fff" maskContentUnits="userSpaceOnUse" maskUnits="objectBoundingBox">
      <use xlink:href="#analytics-presence-d"/>
    </mask>
    <circle id="analytics-presence-e" cx="60" cy="60" r="60"/>
    <mask id="analytics-presence-j" width="120" height="120" x="0" y="0" fill="#fff" maskContentUnits="userSpaceOnUse" maskUnits="objectBoundingBox">
      <use xlink:href="#analytics-presence-e"/>
    </mask>
  </defs>
  <g fill="none" fill-rule="evenodd" transform="translate(-11 -15)">
    <rect width="246" height="230" rx="5"/>
    <rect width="12" height="12" x="11" y="33" fill="#009688" rx="3"/>
    <rect width="12" height="12" x="11" y="49" fill="#A1D8D3" rx="3"/>
    <path fill="#000306" fill-rule="nonzero" d="M14.23 22.11C13.44 22.11 12.81 21.88 12.33 21.43 11.86 20.97 11.62 20.33 11.62 19.5L11.62 15.3C11.62 15.23 11.65 15.2 11.72 15.2L12.99 15.2C13.06 15.2 13.09 15.23 13.09 15.3L13.09 19.54C13.09 20.34 13.54 20.81 14.23 20.81 14.92 20.81 15.36 20.34 15.36 19.54L15.36 15.3C15.36 15.23 15.39 15.2 15.46 15.2L16.73 15.2C16.8 15.2 16.83 15.23 16.83 15.3L16.83 19.5C16.83 20.33 16.59 20.97 16.11 21.43 15.64 21.88 15.01 22.11 14.23 22.11zM20.6589335 22.11C20.1489335 22.11 19.6489335 22.02 19.1689335 21.85 18.6889335 21.67 18.3089335 21.45 18.0389335 21.18 17.9889335 21.13 17.9789335 21.07 18.0289335 21.01L18.7889335 20.14C18.8289335 20.09 18.8789335 20.08 18.9389335 20.13 19.5289335 20.6 20.1189335 20.83 20.7189335 20.83 21.4089335 20.83 21.8289335 20.51 21.8289335 20.02 21.8289335 19.59 21.5489335 19.37 20.7789335 19.26L20.4189335 19.21C18.9889335 19.01 18.2689335 18.33 18.2689335 17.17 18.2689335 16.54 18.4889335 16.04 18.9189335 15.66 19.3589335 15.28 19.9489335 15.09 20.6789335 15.09 21.6089335 15.09 22.3789335 15.33 22.9889335 15.8 23.0489335 15.84 23.0589335 15.89 23.0089335 15.95L22.3989335 16.86C22.3589335 16.91 22.3089335 16.92 22.2589335 16.89 21.7289335 16.54 21.1989335 16.37 20.6789335 16.37 20.0889335 16.37 19.7689335 16.67 19.7689335 17.11 19.7689335 17.51 20.0689335 17.75 20.8289335 17.86L21.1889335 17.91C22.6189335 18.1 23.3289335 18.79 23.3289335 19.97 23.3289335 21.25 22.3689335 22.11 20.6589335 22.11zM24.447867 21.9L24.447867 15.3C24.447867 15.23 24.477867 15.2 24.547867 15.2L28.907867 15.2C28.977867 15.2 29.007867 15.23 29.007867 15.3L29.007867 16.37C29.007867 16.44 28.977867 16.47 28.907867 16.47L25.977867 16.47C25.937867 16.47 25.917867 16.49 25.917867 16.53L25.917867 17.88C25.917867 17.92 25.937867 17.94 25.977867 17.94L28.417867 17.94C28.487867 17.94 28.517867 17.97 28.517867 18.04L28.517867 19.1C28.517867 19.17 28.487867 19.2 28.417867 19.2L25.977867 19.2C25.937867 19.2 25.917867 19.22 25.917867 19.26L25.917867 20.67C25.917867 20.71 25.937867 20.73 25.977867 20.73L28.907867 20.73C28.977867 20.73 29.007867 20.76 29.007867 20.83L29.007867 21.9C29.007867 21.97 28.977867 22 28.907867 22L24.547867 22C24.477867 22 24.447867 21.97 24.447867 21.9zM35.4768004 22L34.0568004 22C33.9868004 22 33.9368004 21.97 33.9068004 21.9L32.7368004 19.41 31.8268004 19.41C31.7868004 19.41 31.7668004 19.43 31.7668004 19.47L31.7668004 21.9C31.7668004 21.97 31.7368004 22 31.6668004 22L30.3968004 22C30.3268004 22 30.2968004 21.97 30.2968004 21.9L30.2968004 15.3C30.2968004 15.23 30.3268004 15.2 30.3968004 15.2L33.1068004 15.2C33.7968004 15.2 34.3568004 15.4 34.7768004 15.79 35.2068004 16.18 35.4168004 16.68 35.4168004 17.31 35.4168004 18.18 34.9668004 18.87 34.2068004 19.2L35.5468004 21.88C35.5768004 21.93 35.5468004 22 35.4768004 22zM31.8268004 18.16L33.0268004 18.16C33.5868004 18.16 33.9468004 17.83 33.9468004 17.31 33.9468004 16.8 33.5868004 16.47 33.0268004 16.47L31.8268004 16.47C31.7868004 16.47 31.7668004 16.49 31.7668004 16.53L31.7668004 18.1C31.7668004 18.14 31.7868004 18.16 31.8268004 18.16zM40.6646674 22L39.3946674 22C39.3246674 22 39.2946674 21.97 39.2946674 21.9L39.2946674 15.3C39.2946674 15.23 39.3246674 15.2 39.3946674 15.2L42.0346674 15.2C42.7646674 15.2 43.3446674 15.4 43.7646674 15.8 44.1946674 16.2 44.4046674 16.73 44.4046674 17.39 44.4046674 18.04 44.1946674 18.56 43.7646674 18.97 43.3346674 19.37 42.7646674 19.57 42.0346674 19.57L40.8246674 19.57C40.7846674 19.57 40.7646674 19.59 40.7646674 19.63L40.7646674 21.9C40.7646674 21.97 40.7346674 22 40.6646674 22zM40.8246674 18.3L41.9446674 18.3C42.5546674 18.3 42.9346674 17.95 42.9346674 17.39 42.9346674 16.83 42.5546674 16.47 41.9446674 16.47L40.8246674 16.47C40.7846674 16.47 40.7646674 16.49 40.7646674 16.53L40.7646674 18.24C40.7646674 18.28 40.7846674 18.3 40.8246674 18.3zM50.7236009 22L49.3036009 22C49.2336009 22 49.1836009 21.97 49.1536009 21.9L47.9836009 19.41 47.0736009 19.41C47.0336009 19.41 47.0136009 19.43 47.0136009 19.47L47.0136009 21.9C47.0136009 21.97 46.9836009 22 46.9136009 22L45.6436009 22C45.5736009 22 45.5436009 21.97 45.5436009 21.9L45.5436009 15.3C45.5436009 15.23 45.5736009 15.2 45.6436009 15.2L48.3536009 15.2C49.0436009 15.2 49.6036009 15.4 50.0236009 15.79 50.4536009 16.18 50.6636009 16.68 50.6636009 17.31 50.6636009 18.18 50.2136009 18.87 49.4536009 19.2L50.7936009 21.88C50.8236009 21.93 50.7936009 22 50.7236009 22zM47.0736009 18.16L48.2736009 18.16C48.8336009 18.16 49.1936009 17.83 49.1936009 17.31 49.1936009 16.8 48.8336009 16.47 48.2736009 16.47L47.0736009 16.47C47.0336009 16.47 47.0136009 16.49 47.0136009 16.53L47.0136009 18.1C47.0136009 18.14 47.0336009 18.16 47.0736009 18.16zM51.9825343 21.9L51.9825343 15.3C51.9825343 15.23 52.0125343 15.2 52.0825343 15.2L56.4425343 15.2C56.5125343 15.2 56.5425343 15.23 56.5425343 15.3L56.5425343 16.37C56.5425343 16.44 56.5125343 16.47 56.4425343 16.47L53.5125343 16.47C53.4725343 16.47 53.4525343 16.49 53.4525343 16.53L53.4525343 17.88C53.4525343 17.92 53.4725343 17.94 53.5125343 17.94L55.9525343 17.94C56.0225343 17.94 56.0525343 17.97 56.0525343 18.04L56.0525343 19.1C56.0525343 19.17 56.0225343 19.2 55.9525343 19.2L53.5125343 19.2C53.4725343 19.2 53.4525343 19.22 53.4525343 19.26L53.4525343 20.67C53.4525343 20.71 53.4725343 20.73 53.5125343 20.73L56.4425343 20.73C56.5125343 20.73 56.5425343 20.76 56.5425343 20.83L56.5425343 21.9C56.5425343 21.97 56.5125343 22 56.4425343 22L52.0825343 22C52.0125343 22 51.9825343 21.97 51.9825343 21.9zM60.1914678 22.11C59.6814678 22.11 59.1814678 22.02 58.7014678 21.85 58.2214678 21.67 57.8414678 21.45 57.5714678 21.18 57.5214678 21.13 57.5114678 21.07 57.5614678 21.01L58.3214678 20.14C58.3614678 20.09 58.4114678 20.08 58.4714678 20.13 59.0614678 20.6 59.6514678 20.83 60.2514678 20.83 60.9414678 20.83 61.3614678 20.51 61.3614678 20.02 61.3614678 19.59 61.0814678 19.37 60.3114678 19.26L59.9514678 19.21C58.5214678 19.01 57.8014678 18.33 57.8014678 17.17 57.8014678 16.54 58.0214678 16.04 58.4514678 15.66 58.8914678 15.28 59.4814678 15.09 60.2114678 15.09 61.1414678 15.09 61.9114678 15.33 62.5214678 15.8 62.5814678 15.84 62.5914678 15.89 62.5414678 15.95L61.9314678 16.86C61.8914678 16.91 61.8414678 16.92 61.7914678 16.89 61.2614678 16.54 60.7314678 16.37 60.2114678 16.37 59.6214678 16.37 59.3014678 16.67 59.3014678 17.11 59.3014678 17.51 59.6014678 17.75 60.3614678 17.86L60.7214678 17.91C62.1514678 18.1 62.8614678 18.79 62.8614678 19.97 62.8614678 21.25 61.9014678 22.11 60.1914678 22.11zM63.9804013 21.9L63.9804013 15.3C63.9804013 15.23 64.0104013 15.2 64.0804013 15.2L68.4404013 15.2C68.5104013 15.2 68.5404013 15.23 68.5404013 15.3L68.5404013 16.37C68.5404013 16.44 68.5104013 16.47 68.4404013 16.47L65.5104013 16.47C65.4704013 16.47 65.4504013 16.49 65.4504013 16.53L65.4504013 17.88C65.4504013 17.92 65.4704013 17.94 65.5104013 17.94L67.9504013 17.94C68.0204013 17.94 68.0504013 17.97 68.0504013 18.04L68.0504013 19.1C68.0504013 19.17 68.0204013 19.2 67.9504013 19.2L65.5104013 19.2C65.4704013 19.2 65.4504013 19.22 65.4504013 19.26L65.4504013 20.67C65.4504013 20.71 65.4704013 20.73 65.5104013 20.73L68.4404013 20.73C68.5104013 20.73 68.5404013 20.76 68.5404013 20.83L68.5404013 21.9C68.5404013 21.97 68.5104013 22 68.4404013 22L64.0804013 22C64.0104013 22 63.9804013 21.97 63.9804013 21.9zM69.8293348 21.9L69.8293348 15.3C69.8293348 15.23 69.8593348 15.2 69.9293348 15.2L71.1293348 15.2C71.1993348 15.2 71.2593348 15.23 71.2993348 15.3L73.6993348 19.58 73.7493348 19.58 73.7493348 15.3C73.7493348 15.23 73.7793348 15.2 73.8493348 15.2L74.9793348 15.2C75.0493348 15.2 75.0793348 15.23 75.0793348 15.3L75.0793348 21.9C75.0793348 21.97 75.0493348 22 74.9793348 22L73.7893348 22C73.7193348 22 73.6593348 21.97 73.6193348 21.9L71.2093348 17.63 71.1593348 17.63 71.1593348 21.9C71.1593348 21.97 71.1293348 22 71.0593348 22L69.9293348 22C69.8593348 22 69.8293348 21.97 69.8293348 21.9zM76.5882683 20.44C76.4582683 20.07 76.3982683 19.45 76.3982683 18.6 76.3982683 17.75 76.4582683 17.13 76.5882683 16.76 76.9482683 15.67 77.8082683 15.09 79.0082683 15.09 80.1582683 15.09 80.9882683 15.64 81.3782683 16.6 81.4082683 16.66 81.3982683 16.7 81.3282683 16.72L80.2382683 17.21C80.1782683 17.24 80.1282683 17.23 80.0982683 17.16 79.8782683 16.65 79.5182683 16.39 79.0182683 16.39 78.4982683 16.39 78.1582683 16.64 77.9982683 17.14 77.9282683 17.37 77.8882683 17.85 77.8882683 18.6 77.8882683 19.35 77.9282683 19.83 77.9982683 20.06 78.1582683 20.56 78.4982683 20.81 79.0182683 20.81 79.5182683 20.81 79.8782683 20.55 80.0982683 20.04 80.1282683 19.97 80.1782683 19.96 80.2382683 19.99L81.3282683 20.48C81.3982683 20.5 81.4082683 20.54 81.3782683 20.6 80.9882683 21.56 80.1582683 22.11 79.0082683 22.11 77.8082683 22.11 76.9482683 21.53 76.5882683 20.44zM82.5272017 21.9L82.5272017 15.3C82.5272017 15.23 82.5572017 15.2 82.6272017 15.2L86.9872017 15.2C87.0572017 15.2 87.0872017 15.23 87.0872017 15.3L87.0872017 16.37C87.0872017 16.44 87.0572017 16.47 86.9872017 16.47L84.0572017 16.47C84.0172017 16.47 83.9972017 16.49 83.9972017 16.53L83.9972017 17.88C83.9972017 17.92 84.0172017 17.94 84.0572017 17.94L86.4972017 17.94C86.5672017 17.94 86.5972017 17.97 86.5972017 18.04L86.5972017 19.1C86.5972017 19.17 86.5672017 19.2 86.4972017 19.2L84.0572017 19.2C84.0172017 19.2 83.9972017 19.22 83.9972017 19.26L83.9972017 20.67C83.9972017 20.71 84.0172017 20.73 84.0572017 20.73L86.9872017 20.73C87.0572017 20.73 87.0872017 20.76 87.0872017 20.83L87.0872017 21.9C87.0872017 21.97 87.0572017 22 86.9872017 22L82.6272017 22C82.5572017 22 82.5272017 21.97 82.5272017 21.9zM30.191 41.077C29.358 41.077 28.756 40.678 28.511 39.929 28.427 39.677 28.385 39.243 28.385 38.62 28.385 37.997 28.427 37.563 28.511 37.311 28.756 36.562 29.358 36.163 30.191 36.163 31.031 36.163 31.633 36.562 31.878 37.311 31.962 37.563 32.004 37.997 32.004 38.62 32.004 39.243 31.962 39.677 31.878 39.929 31.633 40.678 31.031 41.077 30.191 41.077zM30.191 40.335C30.639 40.335 30.933 40.125 31.08 39.712 31.136 39.537 31.164 39.173 31.164 38.62 31.164 38.067 31.136 37.703 31.08 37.528 30.933 37.115 30.639 36.905 30.191 36.905 29.75 36.905 29.456 37.115 29.309 37.528 29.253 37.703 29.225 38.067 29.225 38.62 29.225 39.173 29.253 39.537 29.309 39.712 29.456 40.125 29.75 40.335 30.191 40.335zM33.0532534 40.93L33.0532534 36.31C33.0532534 36.261 33.0742534 36.24 33.1232534 36.24L33.7672534 36.24C33.8162534 36.24 33.8582534 36.261 33.8862534 36.31L35.8252534 39.593 35.8532534 39.593 35.8532534 36.31C35.8532534 36.261 35.8742534 36.24 35.9232534 36.24L36.5322534 36.24C36.5812534 36.24 36.6022534 36.261 36.6022534 36.31L36.6022534 40.93C36.6022534 40.979 36.5812534 41 36.5322534 41L35.8952534 41C35.8462534 41 35.8042534 40.979 35.7762534 40.93L33.8302534 37.654 33.8022534 37.654 33.8022534 40.93C33.8022534 40.979 33.7812534 41 33.7322534 41L33.1232534 41C33.0742534 41 33.0532534 40.979 33.0532534 40.93zM39.5687603 39.908C39.4847603 39.656 39.4427603 39.229 39.4427603 38.62 39.4427603 38.011 39.4847603 37.584 39.5687603 37.332 39.8137603 36.569 40.4017603 36.163 41.2207603 36.163 41.9767603 36.163 42.5507603 36.541 42.8307603 37.185 42.8447603 37.227 42.8307603 37.255 42.7957603 37.269L42.2007603 37.556C42.1587603 37.577 42.1307603 37.57 42.1097603 37.521 41.9207603 37.108 41.6267603 36.905 41.2207603 36.905 40.7937603 36.905 40.5137603 37.115 40.3667603 37.535 40.3107603 37.71 40.2827603 38.067 40.2827603 38.62 40.2827603 39.173 40.3107603 39.53 40.3667603 39.705 40.5137603 40.125 40.7937603 40.335 41.2207603 40.335 41.6267603 40.335 41.9207603 40.132 42.1097603 39.719 42.1307603 39.67 42.1587603 39.663 42.2007603 39.684L42.7957603 39.971C42.8307603 39.985 42.8447603 40.013 42.8307603 40.055 42.5507603 40.699 41.9767603 41.077 41.2207603 41.077 40.4017603 41.077 39.8137603 40.671 39.5687603 39.908zM43.3690137 40.93L45.0000137 36.31C45.0140137 36.261 45.0420137 36.24 45.0910137 36.24L45.7350137 36.24C45.7840137 36.24 45.8120137 36.261 45.8260137 36.31L47.4360137 40.93C47.4500137 40.979 47.4360137 41 47.3870137 41L46.7010137 41C46.6520137 41 46.6240137 40.979 46.6100137 40.93L46.2950137 40.006 44.5030137 40.006 44.1880137 40.93C44.1740137 40.979 44.1460137 41 44.0970137 41L43.4180137 41C43.3690137 41 43.3550137 40.979 43.3690137 40.93zM45.3920137 37.423L44.7550137 39.271 46.0430137 39.271 45.4130137 37.423 45.3920137 37.423zM49.5282672 41L48.8422672 41C48.7932672 41 48.7722672 40.979 48.7722672 40.93L48.7722672 37.024C48.7722672 36.996 48.7582672 36.982 48.7302672 36.982L47.4842672 36.982C47.4352672 36.982 47.4142672 36.961 47.4142672 36.912L47.4142672 36.31C47.4142672 36.261 47.4352672 36.24 47.4842672 36.24L50.8862672 36.24C50.9352672 36.24 50.9562672 36.261 50.9562672 36.31L50.9562672 36.912C50.9562672 36.961 50.9352672 36.982 50.8862672 36.982L49.6402672 36.982C49.6122672 36.982 49.5982672 36.996 49.5982672 37.024L49.5982672 40.93C49.5982672 40.979 49.5772672 41 49.5282672 41zM51.7745206 40.93L51.7745206 36.31C51.7745206 36.261 51.7955206 36.24 51.8445206 36.24L54.8265206 36.24C54.8755206 36.24 54.8965206 36.261 54.8965206 36.31L54.8965206 36.912C54.8965206 36.961 54.8755206 36.982 54.8265206 36.982L52.6425206 36.982C52.6145206 36.982 52.6005206 36.996 52.6005206 37.024L52.6005206 38.186C52.6005206 38.214 52.6145206 38.228 52.6425206 38.228L54.4835206 38.228C54.5325206 38.228 54.5535206 38.249 54.5535206 38.298L54.5535206 38.9C54.5535206 38.949 54.5325206 38.97 54.4835206 38.97L52.6425206 38.97C52.6145206 38.97 52.6005206 38.984 52.6005206 39.012L52.6005206 40.216C52.6005206 40.244 52.6145206 40.258 52.6425206 40.258L54.8265206 40.258C54.8755206 40.258 54.8965206 40.279 54.8965206 40.328L54.8965206 40.93C54.8965206 40.979 54.8755206 41 54.8265206 41L51.8445206 41C51.7955206 41 51.7745206 40.979 51.7745206 40.93zM55.889774 39.929C55.805774 39.677 55.763774 39.243 55.763774 38.62 55.763774 37.997 55.805774 37.563 55.889774 37.311 56.134774 36.562 56.743774 36.163 57.590774 36.163 58.430774 36.163 59.032774 36.604 59.249774 37.171 59.270774 37.213 59.256774 37.248 59.221774 37.269L58.633774 37.528C58.591774 37.542 58.563774 37.528 58.542774 37.493 58.325774 37.101 58.003774 36.905 57.583774 36.905 57.128774 36.905 56.834774 37.115 56.687774 37.528 56.631774 37.703 56.603774 38.067 56.603774 38.62 56.603774 39.173 56.631774 39.537 56.687774 39.712 56.834774 40.125 57.128774 40.335 57.583774 40.335 58.010774 40.335 58.367774 40.111 58.486774 39.74 58.535774 39.586 58.563774 39.383 58.563774 39.124 58.563774 39.096 58.549774 39.082 58.521774 39.082L57.737774 39.082C57.688774 39.082 57.667774 39.061 57.667774 39.012L57.667774 38.452C57.667774 38.403 57.688774 38.382 57.737774 38.382L59.312774 38.382C59.361774 38.382 59.382774 38.403 59.382774 38.452L59.382774 38.865C59.382774 39.334 59.347774 39.677 59.270774 39.908 59.039774 40.643 58.409774 41.077 57.590774 41.077 56.743774 41.077 56.134774 40.678 55.889774 39.929zM62.0980275 41.077C61.2650275 41.077 60.6630275 40.678 60.4180275 39.929 60.3340275 39.677 60.2920275 39.243 60.2920275 38.62 60.2920275 37.997 60.3340275 37.563 60.4180275 37.311 60.6630275 36.562 61.2650275 36.163 62.0980275 36.163 62.9380275 36.163 63.5400275 36.562 63.7850275 37.311 63.8690275 37.563 63.9110275 37.997 63.9110275 38.62 63.9110275 39.243 63.8690275 39.677 63.7850275 39.929 63.5400275 40.678 62.9380275 41.077 62.0980275 41.077zM62.0980275 40.335C62.5460275 40.335 62.8400275 40.125 62.9870275 39.712 63.0430275 39.537 63.0710275 39.173 63.0710275 38.62 63.0710275 38.067 63.0430275 37.703 62.9870275 37.528 62.8400275 37.115 62.5460275 36.905 62.0980275 36.905 61.6570275 36.905 61.3630275 37.115 61.2160275 37.528 61.1600275 37.703 61.1320275 38.067 61.1320275 38.62 61.1320275 39.173 61.1600275 39.537 61.2160275 39.712 61.3630275 40.125 61.6570275 40.335 62.0980275 40.335zM68.4392809 41L67.6622809 41C67.6132809 41 67.5782809 40.979 67.5572809 40.93L66.6472809 39.075 65.8282809 39.075C65.8002809 39.075 65.7862809 39.089 65.7862809 39.117L65.7862809 40.93C65.7862809 40.979 65.7652809 41 65.7162809 41L65.0302809 41C64.9812809 41 64.9602809 40.979 64.9602809 40.93L64.9602809 36.31C64.9602809 36.261 64.9812809 36.24 65.0302809 36.24L66.8712809 36.24C67.3122809 36.24 67.6692809 36.373 67.9562809 36.639 68.2432809 36.905 68.3902809 37.248 68.3902809 37.661 68.3902809 38.277 68.0402809 38.767 67.4872809 38.97L68.4882809 40.909C68.5162809 40.958 68.4882809 41 68.4392809 41zM65.8282809 38.333L66.8432809 38.333C67.2842809 38.333 67.5712809 38.06 67.5712809 37.661 67.5712809 37.248 67.2842809 36.982 66.8432809 36.982L65.8282809 36.982C65.8002809 36.982 65.7862809 36.996 65.7862809 37.024L65.7862809 38.291C65.7862809 38.319 65.8002809 38.333 65.8282809 38.333zM69.4325343 40.93L69.4325343 36.31C69.4325343 36.261 69.4535343 36.24 69.5025343 36.24L70.1885343 36.24C70.2375343 36.24 70.2585343 36.261 70.2585343 36.31L70.2585343 40.93C70.2585343 40.979 70.2375343 41 70.1885343 41L69.5025343 41C69.4535343 41 69.4325343 40.979 69.4325343 40.93zM71.4477878 40.93L71.4477878 36.31C71.4477878 36.261 71.4687878 36.24 71.5177878 36.24L74.4997878 36.24C74.5487878 36.24 74.5697878 36.261 74.5697878 36.31L74.5697878 36.912C74.5697878 36.961 74.5487878 36.982 74.4997878 36.982L72.3157878 36.982C72.2877878 36.982 72.2737878 36.996 72.2737878 37.024L72.2737878 38.186C72.2737878 38.214 72.2877878 38.228 72.3157878 38.228L74.1567878 38.228C74.2057878 38.228 74.2267878 38.249 74.2267878 38.298L74.2267878 38.9C74.2267878 38.949 74.2057878 38.97 74.1567878 38.97L72.3157878 38.97C72.2877878 38.97 72.2737878 38.984 72.2737878 39.012L72.2737878 40.216C72.2737878 40.244 72.2877878 40.258 72.3157878 40.258L74.4997878 40.258C74.5487878 40.258 74.5697878 40.279 74.5697878 40.328L74.5697878 40.93C74.5697878 40.979 74.5487878 41 74.4997878 41L71.5177878 41C71.4687878 41 71.4477878 40.979 71.4477878 40.93zM77.1170412 41.077C76.7740412 41.077 76.4450412 41.021 76.1300412 40.902 75.8150412 40.783 75.5560412 40.629 75.3670412 40.447 75.3320412 40.412 75.3250412 40.377 75.3530412 40.342L75.7870412 39.838C75.8220412 39.803 75.8500412 39.796 75.8850412 39.831 76.3120412 40.167 76.7390412 40.335 77.1800412 40.335 77.7400412 40.335 78.0760412 40.062 78.0760412 39.649 78.0760412 39.285 77.8450412 39.075 77.2080412 38.991L76.9560412 38.956C75.9970412 38.823 75.5210412 38.375 75.5210412 37.598 75.5210412 36.73 76.1510412 36.163 77.1310412 36.163 77.7400412 36.163 78.2510412 36.324 78.6710412 36.639 78.7060412 36.667 78.7060412 36.702 78.6850412 36.737L78.3490412 37.255C78.3210412 37.29 78.2860412 37.297 78.2510412 37.276 77.8730412 37.031 77.4950412 36.905 77.1100412 36.905 76.6340412 36.905 76.3610412 37.157 76.3610412 37.542 76.3610412 37.885 76.6550412 38.102 77.2360412 38.186L77.4880412 38.221C78.4330412 38.354 78.9090412 38.809 78.9090412 39.6 78.9090412 40.475 78.2650412 41.077 77.1170412 41.077zM81.6165481 40.93L81.6165481 36.31C81.6165481 36.261 81.6375481 36.24 81.6865481 36.24L82.3725481 36.24C82.4215481 36.24 82.4425481 36.261 82.4425481 36.31L82.4425481 40.216C82.4425481 40.244 82.4565481 40.258 82.4845481 40.258L84.6685481 40.258C84.7175481 40.258 84.7385481 40.279 84.7385481 40.328L84.7385481 40.93C84.7385481 40.979 84.7175481 41 84.6685481 41L81.6865481 41C81.6375481 41 81.6165481 40.979 81.6165481 40.93zM85.5708015 40.93L85.5708015 36.31C85.5708015 36.261 85.5918015 36.24 85.6408015 36.24L86.3268015 36.24C86.3758015 36.24 86.3968015 36.261 86.3968015 36.31L86.3968015 40.93C86.3968015 40.979 86.3758015 41 86.3268015 41L85.6408015 41C85.5918015 41 85.5708015 40.979 85.5708015 40.93zM89.126055 41.077C88.783055 41.077 88.454055 41.021 88.139055 40.902 87.824055 40.783 87.565055 40.629 87.376055 40.447 87.341055 40.412 87.334055 40.377 87.362055 40.342L87.796055 39.838C87.831055 39.803 87.859055 39.796 87.894055 39.831 88.321055 40.167 88.748055 40.335 89.189055 40.335 89.749055 40.335 90.085055 40.062 90.085055 39.649 90.085055 39.285 89.854055 39.075 89.217055 38.991L88.965055 38.956C88.006055 38.823 87.530055 38.375 87.530055 37.598 87.530055 36.73 88.160055 36.163 89.140055 36.163 89.749055 36.163 90.260055 36.324 90.680055 36.639 90.715055 36.667 90.715055 36.702 90.694055 36.737L90.358055 37.255C90.330055 37.29 90.295055 37.297 90.260055 37.276 89.882055 37.031 89.504055 36.905 89.119055 36.905 88.643055 36.905 88.370055 37.157 88.370055 37.542 88.370055 37.885 88.664055 38.102 89.245055 38.186L89.497055 38.221C90.442055 38.354 90.918055 38.809 90.918055 39.6 90.918055 40.475 90.274055 41.077 89.126055 41.077zM93.5773084 41L92.8913084 41C92.8423084 41 92.8213084 40.979 92.8213084 40.93L92.8213084 37.024C92.8213084 36.996 92.8073084 36.982 92.7793084 36.982L91.5333084 36.982C91.4843084 36.982 91.4633084 36.961 91.4633084 36.912L91.4633084 36.31C91.4633084 36.261 91.4843084 36.24 91.5333084 36.24L94.9353084 36.24C94.9843084 36.24 95.0053084 36.261 95.0053084 36.31L95.0053084 36.912C95.0053084 36.961 94.9843084 36.982 94.9353084 36.982L93.6893084 36.982C93.6613084 36.982 93.6473084 36.996 93.6473084 37.024L93.6473084 40.93C93.6473084 40.979 93.6263084 41 93.5773084 41zM32.004 57L31.227 57C31.178 57 31.143 56.979 31.122 56.93L30.212 55.075 29.393 55.075C29.365 55.075 29.351 55.089 29.351 55.117L29.351 56.93C29.351 56.979 29.33 57 29.281 57L28.595 57C28.546 57 28.525 56.979 28.525 56.93L28.525 52.31C28.525 52.261 28.546 52.24 28.595 52.24L30.436 52.24C30.877 52.24 31.234 52.373 31.521 52.639 31.808 52.905 31.955 53.248 31.955 53.661 31.955 54.277 31.605 54.767 31.052 54.97L32.053 56.909C32.081 56.958 32.053 57 32.004 57zM29.393 54.333L30.408 54.333C30.849 54.333 31.136 54.06 31.136 53.661 31.136 53.248 30.849 52.982 30.408 52.982L29.393 52.982C29.365 52.982 29.351 52.996 29.351 53.024L29.351 54.291C29.351 54.319 29.365 54.333 29.393 54.333zM32.9972534 56.93L32.9972534 52.31C32.9972534 52.261 33.0182534 52.24 33.0672534 52.24L36.0492534 52.24C36.0982534 52.24 36.1192534 52.261 36.1192534 52.31L36.1192534 52.912C36.1192534 52.961 36.0982534 52.982 36.0492534 52.982L33.8652534 52.982C33.8372534 52.982 33.8232534 52.996 33.8232534 53.024L33.8232534 54.186C33.8232534 54.214 33.8372534 54.228 33.8652534 54.228L35.7062534 54.228C35.7552534 54.228 35.7762534 54.249 35.7762534 54.298L35.7762534 54.9C35.7762534 54.949 35.7552534 54.97 35.7062534 54.97L33.8652534 54.97C33.8372534 54.97 33.8232534 54.984 33.8232534 55.012L33.8232534 56.216C33.8232534 56.244 33.8372534 56.258 33.8652534 56.258L36.0492534 56.258C36.0982534 56.258 36.1192534 56.279 36.1192534 56.328L36.1192534 56.93C36.1192534 56.979 36.0982534 57 36.0492534 57L33.0672534 57C33.0182534 57 32.9972534 56.979 32.9972534 56.93zM36.7485069 56.93L38.3795069 52.31C38.3935069 52.261 38.4215069 52.24 38.4705069 52.24L39.1145069 52.24C39.1635069 52.24 39.1915069 52.261 39.2055069 52.31L40.8155069 56.93C40.8295069 56.979 40.8155069 57 40.7665069 57L40.0805069 57C40.0315069 57 40.0035069 56.979 39.9895069 56.93L39.6745069 56.006 37.8825069 56.006 37.5675069 56.93C37.5535069 56.979 37.5255069 57 37.4765069 57L36.7975069 57C36.7485069 57 36.7345069 56.979 36.7485069 56.93zM38.7715069 53.423L38.1345069 55.271 39.4225069 55.271 38.7925069 53.423 38.7715069 53.423zM41.5847603 56.93L41.5847603 52.31C41.5847603 52.261 41.6057603 52.24 41.6547603 52.24L43.3557603 52.24C44.1887603 52.24 44.7137603 52.59 44.9447603 53.297 45.0217603 53.542 45.0637603 53.983 45.0637603 54.62 45.0637603 55.257 45.0217603 55.698 44.9447603 55.943 44.7137603 56.65 44.1887603 57 43.3557603 57L41.6547603 57C41.6057603 57 41.5847603 56.979 41.5847603 56.93zM42.4107603 53.024L42.4107603 56.216C42.4107603 56.244 42.4247603 56.258 42.4527603 56.258L43.1597603 56.258C43.6847603 56.258 44.0137603 56.055 44.1467603 55.656 44.2027603 55.502 44.2307603 55.159 44.2307603 54.62 44.2307603 54.081 44.2027603 53.738 44.1467603 53.584 44.0137603 53.185 43.6847603 52.982 43.1597603 52.982L42.4527603 52.982C42.4247603 52.982 42.4107603 52.996 42.4107603 53.024zM46.0990137 56.93L46.0990137 52.31C46.0990137 52.261 46.1200137 52.24 46.1690137 52.24L46.8550137 52.24C46.9040137 52.24 46.9250137 52.261 46.9250137 52.31L46.9250137 56.93C46.9250137 56.979 46.9040137 57 46.8550137 57L46.1690137 57C46.1200137 57 46.0990137 56.979 46.0990137 56.93zM48.1142672 56.93L48.1142672 52.31C48.1142672 52.261 48.1352672 52.24 48.1842672 52.24L48.8282672 52.24C48.8772672 52.24 48.9192672 52.261 48.9472672 52.31L50.8862672 55.593 50.9142672 55.593 50.9142672 52.31C50.9142672 52.261 50.9352672 52.24 50.9842672 52.24L51.5932672 52.24C51.6422672 52.24 51.6632672 52.261 51.6632672 52.31L51.6632672 56.93C51.6632672 56.979 51.6422672 57 51.5932672 57L50.9562672 57C50.9072672 57 50.8652672 56.979 50.8372672 56.93L48.8912672 53.654 48.8632672 53.654 48.8632672 56.93C48.8632672 56.979 48.8422672 57 48.7932672 57L48.1842672 57C48.1352672 57 48.1142672 56.979 48.1142672 56.93zM52.8385206 55.929C52.7545206 55.677 52.7125206 55.243 52.7125206 54.62 52.7125206 53.997 52.7545206 53.563 52.8385206 53.311 53.0835206 52.562 53.6925206 52.163 54.5395206 52.163 55.3795206 52.163 55.9815206 52.604 56.1985206 53.171 56.2195206 53.213 56.2055206 53.248 56.1705206 53.269L55.5825206 53.528C55.5405206 53.542 55.5125206 53.528 55.4915206 53.493 55.2745206 53.101 54.9525206 52.905 54.5325206 52.905 54.0775206 52.905 53.7835206 53.115 53.6365206 53.528 53.5805206 53.703 53.5525206 54.067 53.5525206 54.62 53.5525206 55.173 53.5805206 55.537 53.6365206 55.712 53.7835206 56.125 54.0775206 56.335 54.5325206 56.335 54.9595206 56.335 55.3165206 56.111 55.4355206 55.74 55.4845206 55.586 55.5125206 55.383 55.5125206 55.124 55.5125206 55.096 55.4985206 55.082 55.4705206 55.082L54.6865206 55.082C54.6375206 55.082 54.6165206 55.061 54.6165206 55.012L54.6165206 54.452C54.6165206 54.403 54.6375206 54.382 54.6865206 54.382L56.2615206 54.382C56.3105206 54.382 56.3315206 54.403 56.3315206 54.452L56.3315206 54.865C56.3315206 55.334 56.2965206 55.677 56.2195206 55.908 55.9885206 56.643 55.3585206 57.077 54.5395206 57.077 53.6925206 57.077 53.0835206 56.678 52.8385206 55.929zM59.9280275 57L59.2420275 57C59.1930275 57 59.1720275 56.979 59.1720275 56.93L59.1720275 52.31C59.1720275 52.261 59.1930275 52.24 59.2420275 52.24L61.0270275 52.24C61.4890275 52.24 61.8670275 52.38 62.1540275 52.653 62.4480275 52.926 62.5950275 53.276 62.5950275 53.717 62.5950275 54.158 62.4480275 54.522 62.1540275 54.795 61.8670275 55.068 61.4890275 55.201 61.0270275 55.201L60.0400275 55.201C60.0120275 55.201 59.9980275 55.215 59.9980275 55.243L59.9980275 56.93C59.9980275 56.979 59.9770275 57 59.9280275 57zM60.0400275 54.452L60.9780275 54.452C61.4610275 54.452 61.7690275 54.165 61.7690275 53.717 61.7690275 53.276 61.4610275 52.982 60.9780275 52.982L60.0400275 52.982C60.0120275 52.982 59.9980275 52.996 59.9980275 53.024L59.9980275 54.41C59.9980275 54.438 60.0120275 54.452 60.0400275 54.452zM65.1632809 57.077C64.3302809 57.077 63.7282809 56.678 63.4832809 55.929 63.3992809 55.677 63.3572809 55.243 63.3572809 54.62 63.3572809 53.997 63.3992809 53.563 63.4832809 53.311 63.7282809 52.562 64.3302809 52.163 65.1632809 52.163 66.0032809 52.163 66.6052809 52.562 66.8502809 53.311 66.9342809 53.563 66.9762809 53.997 66.9762809 54.62 66.9762809 55.243 66.9342809 55.677 66.8502809 55.929 66.6052809 56.678 66.0032809 57.077 65.1632809 57.077zM65.1632809 56.335C65.6112809 56.335 65.9052809 56.125 66.0522809 55.712 66.1082809 55.537 66.1362809 55.173 66.1362809 54.62 66.1362809 54.067 66.1082809 53.703 66.0522809 53.528 65.9052809 53.115 65.6112809 52.905 65.1632809 52.905 64.7222809 52.905 64.4282809 53.115 64.2812809 53.528 64.2252809 53.703 64.1972809 54.067 64.1972809 54.62 64.1972809 55.173 64.2252809 55.537 64.2812809 55.712 64.4282809 56.125 64.7222809 56.335 65.1632809 56.335zM69.5655343 57.077C69.2225343 57.077 68.8935343 57.021 68.5785343 56.902 68.2635343 56.783 68.0045343 56.629 67.8155343 56.447 67.7805343 56.412 67.7735343 56.377 67.8015343 56.342L68.2355343 55.838C68.2705343 55.803 68.2985343 55.796 68.3335343 55.831 68.7605343 56.167 69.1875343 56.335 69.6285343 56.335 70.1885343 56.335 70.5245343 56.062 70.5245343 55.649 70.5245343 55.285 70.2935343 55.075 69.6565343 54.991L69.4045343 54.956C68.4455343 54.823 67.9695343 54.375 67.9695343 53.598 67.9695343 52.73 68.5995343 52.163 69.5795343 52.163 70.1885343 52.163 70.6995343 52.324 71.1195343 52.639 71.1545343 52.667 71.1545343 52.702 71.1335343 52.737L70.7975343 53.255C70.7695343 53.29 70.7345343 53.297 70.6995343 53.276 70.3215343 53.031 69.9435343 52.905 69.5585343 52.905 69.0825343 52.905 68.8095343 53.157 68.8095343 53.542 68.8095343 53.885 69.1035343 54.102 69.6845343 54.186L69.9365343 54.221C70.8815343 54.354 71.3575343 54.809 71.3575343 55.6 71.3575343 56.475 70.7135343 57.077 69.5655343 57.077zM74.0167878 57L73.3307878 57C73.2817878 57 73.2607878 56.979 73.2607878 56.93L73.2607878 53.024C73.2607878 52.996 73.2467878 52.982 73.2187878 52.982L71.9727878 52.982C71.9237878 52.982 71.9027878 52.961 71.9027878 52.912L71.9027878 52.31C71.9027878 52.261 71.9237878 52.24 71.9727878 52.24L75.3747878 52.24C75.4237878 52.24 75.4447878 52.261 75.4447878 52.31L75.4447878 52.912C75.4447878 52.961 75.4237878 52.982 75.3747878 52.982L74.1287878 52.982C74.1007878 52.982 74.0867878 52.996 74.0867878 53.024L74.0867878 56.93C74.0867878 56.979 74.0657878 57 74.0167878 57zM77.8030412 57.077C77.4600412 57.077 77.1310412 57.021 76.8160412 56.902 76.5010412 56.783 76.2420412 56.629 76.0530412 56.447 76.0180412 56.412 76.0110412 56.377 76.0390412 56.342L76.4730412 55.838C76.5080412 55.803 76.5360412 55.796 76.5710412 55.831 76.9980412 56.167 77.4250412 56.335 77.8660412 56.335 78.4260412 56.335 78.7620412 56.062 78.7620412 55.649 78.7620412 55.285 78.5310412 55.075 77.8940412 54.991L77.6420412 54.956C76.6830412 54.823 76.2070412 54.375 76.2070412 53.598 76.2070412 52.73 76.8370412 52.163 77.8170412 52.163 78.4260412 52.163 78.9370412 52.324 79.3570412 52.639 79.3920412 52.667 79.3920412 52.702 79.3710412 52.737L79.0350412 53.255C79.0070412 53.29 78.9720412 53.297 78.9370412 53.276 78.5590412 53.031 78.1810412 52.905 77.7960412 52.905 77.3200412 52.905 77.0470412 53.157 77.0470412 53.542 77.0470412 53.885 77.3410412 54.102 77.9220412 54.186L78.1740412 54.221C79.1190412 54.354 79.5950412 54.809 79.5950412 55.6 79.5950412 56.475 78.9510412 57.077 77.8030412 57.077z"/>
    <rect width="12" height="12" x="11" y="65" fill="#C3D2EE" rx="3"/>
    <path fill="#000306" fill-rule="nonzero" d="M28.525,72.93 L28.525,68.31 C28.525,68.261 28.546,68.24 28.595,68.24 L30.366,68.24 C31.346,68.24 31.85,68.723 31.85,69.507 C31.85,69.983 31.668,70.319 31.297,70.515 L31.297,70.529 C31.633,70.662 31.934,71.061 31.934,71.6 C31.934,72.531 31.353,73 30.296,73 L28.595,73 C28.546,73 28.525,72.979 28.525,72.93 Z M29.393,70.221 L30.345,70.221 C30.765,70.221 31.024,69.969 31.024,69.598 C31.024,69.213 30.765,68.968 30.345,68.968 L29.393,68.968 C29.365,68.968 29.351,68.982 29.351,69.01 L29.351,70.179 C29.351,70.207 29.365,70.221 29.393,70.221 Z M29.351,70.991 L29.351,72.23 C29.351,72.258 29.365,72.272 29.393,72.272 L30.387,72.272 C30.842,72.272 31.108,72.006 31.108,71.607 C31.108,71.208 30.842,70.949 30.387,70.949 L29.393,70.949 C29.365,70.949 29.351,70.963 29.351,70.991 Z M36.3922534,73 L35.6152534,73 C35.5662534,73 35.5312534,72.979 35.5102534,72.93 L34.6002534,71.075 L33.7812534,71.075 C33.7532534,71.075 33.7392534,71.089 33.7392534,71.117 L33.7392534,72.93 C33.7392534,72.979 33.7182534,73 33.6692534,73 L32.9832534,73 C32.9342534,73 32.9132534,72.979 32.9132534,72.93 L32.9132534,68.31 C32.9132534,68.261 32.9342534,68.24 32.9832534,68.24 L34.8242534,68.24 C35.2652534,68.24 35.6222534,68.373 35.9092534,68.639 C36.1962534,68.905 36.3432534,69.248 36.3432534,69.661 C36.3432534,70.277 35.9932534,70.767 35.4402534,70.97 L36.4412534,72.909 C36.4692534,72.958 36.4412534,73 36.3922534,73 Z M33.7812534,70.333 L34.7962534,70.333 C35.2372534,70.333 35.5242534,70.06 35.5242534,69.661 C35.5242534,69.248 35.2372534,68.982 34.7962534,68.982 L33.7812534,68.982 C33.7532534,68.982 33.7392534,68.996 33.7392534,69.024 L33.7392534,70.291 C33.7392534,70.319 33.7532534,70.333 33.7812534,70.333 Z M39.0515069,73.077 C38.2185069,73.077 37.6165069,72.678 37.3715069,71.929 C37.2875069,71.677 37.2455069,71.243 37.2455069,70.62 C37.2455069,69.997 37.2875069,69.563 37.3715069,69.311 C37.6165069,68.562 38.2185069,68.163 39.0515069,68.163 C39.8915069,68.163 40.4935069,68.562 40.7385069,69.311 C40.8225069,69.563 40.8645069,69.997 40.8645069,70.62 C40.8645069,71.243 40.8225069,71.677 40.7385069,71.929 C40.4935069,72.678 39.8915069,73.077 39.0515069,73.077 Z M39.0515069,72.335 C39.4995069,72.335 39.7935069,72.125 39.9405069,71.712 C39.9965069,71.537 40.0245069,71.173 40.0245069,70.62 C40.0245069,70.067 39.9965069,69.703 39.9405069,69.528 C39.7935069,69.115 39.4995069,68.905 39.0515069,68.905 C38.6105069,68.905 38.3165069,69.115 38.1695069,69.528 C38.1135069,69.703 38.0855069,70.067 38.0855069,70.62 C38.0855069,71.173 38.1135069,71.537 38.1695069,71.712 C38.3165069,72.125 38.6105069,72.335 39.0515069,72.335 Z M45.8337603,73 L45.3017603,73 C45.2597603,73 45.2317603,72.979 45.2177603,72.93 L44.3077603,69.675 L44.2937603,69.675 L43.3767603,72.93 C43.3627603,72.979 43.3347603,73 43.2927603,73 L42.7677603,73 C42.7257603,73 42.6977603,72.979 42.6837603,72.93 L41.5147603,68.31 C41.5077603,68.261 41.5217603,68.24 41.5707603,68.24 L42.2287603,68.24 C42.2777603,68.24 42.3057603,68.261 42.3127603,68.31 L43.0687603,71.516 L43.0827603,71.516 L43.9717603,68.31 C43.9857603,68.261 44.0137603,68.24 44.0557603,68.24 L44.5457603,68.24 C44.5877603,68.24 44.6157603,68.261 44.6297603,68.31 L45.5397603,71.516 L45.5537603,71.516 L46.2887603,68.31 C46.2957603,68.261 46.3237603,68.24 46.3727603,68.24 L47.0237603,68.24 C47.0727603,68.24 47.0867603,68.261 47.0797603,68.31 L45.9177603,72.93 C45.9107603,72.979 45.8827603,73 45.8337603,73 Z M49.3120137,73.077 C48.9690137,73.077 48.6400137,73.021 48.3250137,72.902 C48.0100137,72.783 47.7510137,72.629 47.5620137,72.447 C47.5270137,72.412 47.5200137,72.377 47.5480137,72.342 L47.9820137,71.838 C48.0170137,71.803 48.0450137,71.796 48.0800137,71.831 C48.5070137,72.167 48.9340137,72.335 49.3750137,72.335 C49.9350137,72.335 50.2710137,72.062 50.2710137,71.649 C50.2710137,71.285 50.0400137,71.075 49.4030137,70.991 L49.1510137,70.956 C48.1920137,70.823 47.7160137,70.375 47.7160137,69.598 C47.7160137,68.73 48.3460137,68.163 49.3260137,68.163 C49.9350137,68.163 50.4460137,68.324 50.8660137,68.639 C50.9010137,68.667 50.9010137,68.702 50.8800137,68.737 L50.5440137,69.255 C50.5160137,69.29 50.4810137,69.297 50.4460137,69.276 C50.0680137,69.031 49.6900137,68.905 49.3050137,68.905 C48.8290137,68.905 48.5560137,69.157 48.5560137,69.542 C48.5560137,69.885 48.8500137,70.102 49.4310137,70.186 L49.6830137,70.221 C50.6280137,70.354 51.1040137,70.809 51.1040137,71.6 C51.1040137,72.475 50.4600137,73.077 49.3120137,73.077 Z M52.0202672,72.93 L52.0202672,68.31 C52.0202672,68.261 52.0412672,68.24 52.0902672,68.24 L52.7762672,68.24 C52.8252672,68.24 52.8462672,68.261 52.8462672,68.31 L52.8462672,72.93 C52.8462672,72.979 52.8252672,73 52.7762672,73 L52.0902672,73 C52.0412672,73 52.0202672,72.979 52.0202672,72.93 Z M54.0355206,72.93 L54.0355206,68.31 C54.0355206,68.261 54.0565206,68.24 54.1055206,68.24 L54.7495206,68.24 C54.7985206,68.24 54.8405206,68.261 54.8685206,68.31 L56.8075206,71.593 L56.8355206,71.593 L56.8355206,68.31 C56.8355206,68.261 56.8565206,68.24 56.9055206,68.24 L57.5145206,68.24 C57.5635206,68.24 57.5845206,68.261 57.5845206,68.31 L57.5845206,72.93 C57.5845206,72.979 57.5635206,73 57.5145206,73 L56.8775206,73 C56.8285206,73 56.7865206,72.979 56.7585206,72.93 L54.8125206,69.654 L54.7845206,69.654 L54.7845206,72.93 C54.7845206,72.979 54.7635206,73 54.7145206,73 L54.1055206,73 C54.0565206,73 54.0355206,72.979 54.0355206,72.93 Z M58.759774,71.929 C58.675774,71.677 58.633774,71.243 58.633774,70.62 C58.633774,69.997 58.675774,69.563 58.759774,69.311 C59.004774,68.562 59.613774,68.163 60.460774,68.163 C61.300774,68.163 61.902774,68.604 62.119774,69.171 C62.140774,69.213 62.126774,69.248 62.091774,69.269 L61.503774,69.528 C61.461774,69.542 61.433774,69.528 61.412774,69.493 C61.195774,69.101 60.873774,68.905 60.453774,68.905 C59.998774,68.905 59.704774,69.115 59.557774,69.528 C59.501774,69.703 59.473774,70.067 59.473774,70.62 C59.473774,71.173 59.501774,71.537 59.557774,71.712 C59.704774,72.125 59.998774,72.335 60.453774,72.335 C60.880774,72.335 61.237774,72.111 61.356774,71.74 C61.405774,71.586 61.433774,71.383 61.433774,71.124 C61.433774,71.096 61.419774,71.082 61.391774,71.082 L60.607774,71.082 C60.558774,71.082 60.537774,71.061 60.537774,71.012 L60.537774,70.452 C60.537774,70.403 60.558774,70.382 60.607774,70.382 L62.182774,70.382 C62.231774,70.382 62.252774,70.403 62.252774,70.452 L62.252774,70.865 C62.252774,71.334 62.217774,71.677 62.140774,71.908 C61.909774,72.643 61.279774,73.077 60.460774,73.077 C59.613774,73.077 59.004774,72.678 58.759774,71.929 Z M66.7592809,73 L66.0732809,73 C66.0242809,73 66.0032809,72.979 66.0032809,72.93 L66.0032809,69.024 C66.0032809,68.996 65.9892809,68.982 65.9612809,68.982 L64.7152809,68.982 C64.6662809,68.982 64.6452809,68.961 64.6452809,68.912 L64.6452809,68.31 C64.6452809,68.261 64.6662809,68.24 64.7152809,68.24 L68.1172809,68.24 C68.1662809,68.24 68.1872809,68.261 68.1872809,68.31 L68.1872809,68.912 C68.1872809,68.961 68.1662809,68.982 68.1172809,68.982 L66.8712809,68.982 C66.8432809,68.982 66.8292809,68.996 66.8292809,69.024 L66.8292809,72.93 C66.8292809,72.979 66.8082809,73 66.7592809,73 Z M70.6715343,73.077 C69.8385343,73.077 69.2365343,72.678 68.9915343,71.929 C68.9075343,71.677 68.8655343,71.243 68.8655343,70.62 C68.8655343,69.997 68.9075343,69.563 68.9915343,69.311 C69.2365343,68.562 69.8385343,68.163 70.6715343,68.163 C71.5115343,68.163 72.1135343,68.562 72.3585343,69.311 C72.4425343,69.563 72.4845343,69.997 72.4845343,70.62 C72.4845343,71.243 72.4425343,71.677 72.3585343,71.929 C72.1135343,72.678 71.5115343,73.077 70.6715343,73.077 Z M70.6715343,72.335 C71.1195343,72.335 71.4135343,72.125 71.5605343,71.712 C71.6165343,71.537 71.6445343,71.173 71.6445343,70.62 C71.6445343,70.067 71.6165343,69.703 71.5605343,69.528 C71.4135343,69.115 71.1195343,68.905 70.6715343,68.905 C70.2305343,68.905 69.9365343,69.115 69.7895343,69.528 C69.7335343,69.703 69.7055343,70.067 69.7055343,70.62 C69.7055343,71.173 69.7335343,71.537 69.7895343,71.712 C69.9365343,72.125 70.2305343,72.335 70.6715343,72.335 Z M74.2897878,73 L73.6037878,73 C73.5547878,73 73.5337878,72.979 73.5337878,72.93 L73.5337878,68.31 C73.5337878,68.261 73.5547878,68.24 73.6037878,68.24 L75.3887878,68.24 C75.8507878,68.24 76.2287878,68.38 76.5157878,68.653 C76.8097878,68.926 76.9567878,69.276 76.9567878,69.717 C76.9567878,70.158 76.8097878,70.522 76.5157878,70.795 C76.2287878,71.068 75.8507878,71.201 75.3887878,71.201 L74.4017878,71.201 C74.3737878,71.201 74.3597878,71.215 74.3597878,71.243 L74.3597878,72.93 C74.3597878,72.979 74.3387878,73 74.2897878,73 Z M74.4017878,70.452 L75.3397878,70.452 C75.8227878,70.452 76.1307878,70.165 76.1307878,69.717 C76.1307878,69.276 75.8227878,68.982 75.3397878,68.982 L74.4017878,68.982 C74.3737878,68.982 74.3597878,68.996 74.3597878,69.024 L74.3597878,70.41 C74.3597878,70.438 74.3737878,70.452 74.4017878,70.452 Z M77.8590412,72.93 L77.8590412,68.31 C77.8590412,68.261 77.8800412,68.24 77.9290412,68.24 L78.6150412,68.24 C78.6640412,68.24 78.6850412,68.261 78.6850412,68.31 L78.6850412,72.93 C78.6850412,72.979 78.6640412,73 78.6150412,73 L77.9290412,73 C77.8800412,73 77.8590412,72.979 77.8590412,72.93 Z M79.8602947,71.908 C79.7762947,71.656 79.7342947,71.229 79.7342947,70.62 C79.7342947,70.011 79.7762947,69.584 79.8602947,69.332 C80.1052947,68.569 80.6932947,68.163 81.5122947,68.163 C82.2682947,68.163 82.8422947,68.541 83.1222947,69.185 C83.1362947,69.227 83.1222947,69.255 83.0872947,69.269 L82.4922947,69.556 C82.4502947,69.577 82.4222947,69.57 82.4012947,69.521 C82.2122947,69.108 81.9182947,68.905 81.5122947,68.905 C81.0852947,68.905 80.8052947,69.115 80.6582947,69.535 C80.6022947,69.71 80.5742947,70.067 80.5742947,70.62 C80.5742947,71.173 80.6022947,71.53 80.6582947,71.705 C80.8052947,72.125 81.0852947,72.335 81.5122947,72.335 C81.9182947,72.335 82.2122947,72.132 82.4012947,71.719 C82.4222947,71.67 82.4502947,71.663 82.4922947,71.684 L83.0872947,71.971 C83.1222947,71.985 83.1362947,72.013 83.1222947,72.055 C82.8422947,72.699 82.2682947,73.077 81.5122947,73.077 C80.6932947,73.077 80.1052947,72.671 79.8602947,71.908 Z M85.5785481,73.077 C85.2355481,73.077 84.9065481,73.021 84.5915481,72.902 C84.2765481,72.783 84.0175481,72.629 83.8285481,72.447 C83.7935481,72.412 83.7865481,72.377 83.8145481,72.342 L84.2485481,71.838 C84.2835481,71.803 84.3115481,71.796 84.3465481,71.831 C84.7735481,72.167 85.2005481,72.335 85.6415481,72.335 C86.2015481,72.335 86.5375481,72.062 86.5375481,71.649 C86.5375481,71.285 86.3065481,71.075 85.6695481,70.991 L85.4175481,70.956 C84.4585481,70.823 83.9825481,70.375 83.9825481,69.598 C83.9825481,68.73 84.6125481,68.163 85.5925481,68.163 C86.2015481,68.163 86.7125481,68.324 87.1325481,68.639 C87.1675481,68.667 87.1675481,68.702 87.1465481,68.737 L86.8105481,69.255 C86.7825481,69.29 86.7475481,69.297 86.7125481,69.276 C86.3345481,69.031 85.9565481,68.905 85.5715481,68.905 C85.0955481,68.905 84.8225481,69.157 84.8225481,69.542 C84.8225481,69.885 85.1165481,70.102 85.6975481,70.186 L85.9495481,70.221 C86.8945481,70.354 87.3705481,70.809 87.3705481,71.6 C87.3705481,72.475 86.7265481,73.077 85.5785481,73.077 Z"/>
    <rect width="12" height="12" x="11" y="81" fill="#5C84D1" rx="3"/>
    <path fill="#000306" fill-rule="nonzero" d="M32.004,89 L31.227,89 C31.178,89 31.143,88.979 31.122,88.93 L30.212,87.075 L29.393,87.075 C29.365,87.075 29.351,87.089 29.351,87.117 L29.351,88.93 C29.351,88.979 29.33,89 29.281,89 L28.595,89 C28.546,89 28.525,88.979 28.525,88.93 L28.525,84.31 C28.525,84.261 28.546,84.24 28.595,84.24 L30.436,84.24 C30.877,84.24 31.234,84.373 31.521,84.639 C31.808,84.905 31.955,85.248 31.955,85.661 C31.955,86.277 31.605,86.767 31.052,86.97 L32.053,88.909 C32.081,88.958 32.053,89 32.004,89 Z M29.393,86.333 L30.408,86.333 C30.849,86.333 31.136,86.06 31.136,85.661 C31.136,85.248 30.849,84.982 30.408,84.982 L29.393,84.982 C29.365,84.982 29.351,84.996 29.351,85.024 L29.351,86.291 C29.351,86.319 29.365,86.333 29.393,86.333 Z M32.9972534,88.93 L32.9972534,84.31 C32.9972534,84.261 33.0182534,84.24 33.0672534,84.24 L36.0492534,84.24 C36.0982534,84.24 36.1192534,84.261 36.1192534,84.31 L36.1192534,84.912 C36.1192534,84.961 36.0982534,84.982 36.0492534,84.982 L33.8652534,84.982 C33.8372534,84.982 33.8232534,84.996 33.8232534,85.024 L33.8232534,86.186 C33.8232534,86.214 33.8372534,86.228 33.8652534,86.228 L35.7062534,86.228 C35.7552534,86.228 35.7762534,86.249 35.7762534,86.298 L35.7762534,86.9 C35.7762534,86.949 35.7552534,86.97 35.7062534,86.97 L33.8652534,86.97 C33.8372534,86.97 33.8232534,86.984 33.8232534,87.012 L33.8232534,88.216 C33.8232534,88.244 33.8372534,88.258 33.8652534,88.258 L36.0492534,88.258 C36.0982534,88.258 36.1192534,88.279 36.1192534,88.328 L36.1192534,88.93 C36.1192534,88.979 36.0982534,89 36.0492534,89 L33.0672534,89 C33.0182534,89 32.9972534,88.979 32.9972534,88.93 Z M37.1125069,87.908 C37.0285069,87.656 36.9865069,87.229 36.9865069,86.62 C36.9865069,86.011 37.0285069,85.584 37.1125069,85.332 C37.3575069,84.569 37.9455069,84.163 38.7645069,84.163 C39.5205069,84.163 40.0945069,84.541 40.3745069,85.185 C40.3885069,85.227 40.3745069,85.255 40.3395069,85.269 L39.7445069,85.556 C39.7025069,85.577 39.6745069,85.57 39.6535069,85.521 C39.4645069,85.108 39.1705069,84.905 38.7645069,84.905 C38.3375069,84.905 38.0575069,85.115 37.9105069,85.535 C37.8545069,85.71 37.8265069,86.067 37.8265069,86.62 C37.8265069,87.173 37.8545069,87.53 37.9105069,87.705 C38.0575069,88.125 38.3375069,88.335 38.7645069,88.335 C39.1705069,88.335 39.4645069,88.132 39.6535069,87.719 C39.6745069,87.67 39.7025069,87.663 39.7445069,87.684 L40.3395069,87.971 C40.3745069,87.985 40.3885069,88.013 40.3745069,88.055 C40.0945069,88.699 39.5205069,89.077 38.7645069,89.077 C37.9455069,89.077 37.3575069,88.671 37.1125069,87.908 Z M41.2907603,88.93 L41.2907603,84.31 C41.2907603,84.261 41.3117603,84.24 41.3607603,84.24 L44.3427603,84.24 C44.3917603,84.24 44.4127603,84.261 44.4127603,84.31 L44.4127603,84.912 C44.4127603,84.961 44.3917603,84.982 44.3427603,84.982 L42.1587603,84.982 C42.1307603,84.982 42.1167603,84.996 42.1167603,85.024 L42.1167603,86.186 C42.1167603,86.214 42.1307603,86.228 42.1587603,86.228 L43.9997603,86.228 C44.0487603,86.228 44.0697603,86.249 44.0697603,86.298 L44.0697603,86.9 C44.0697603,86.949 44.0487603,86.97 43.9997603,86.97 L42.1587603,86.97 C42.1307603,86.97 42.1167603,86.984 42.1167603,87.012 L42.1167603,88.216 C42.1167603,88.244 42.1307603,88.258 42.1587603,88.258 L44.3427603,88.258 C44.3917603,88.258 44.4127603,88.279 44.4127603,88.328 L44.4127603,88.93 C44.4127603,88.979 44.3917603,89 44.3427603,89 L41.3607603,89 C41.3117603,89 41.2907603,88.979 41.2907603,88.93 Z M45.4200137,88.93 L45.4200137,84.31 C45.4200137,84.261 45.4410137,84.24 45.4900137,84.24 L46.1340137,84.24 C46.1830137,84.24 46.2250137,84.261 46.2530137,84.31 L48.1920137,87.593 L48.2200137,87.593 L48.2200137,84.31 C48.2200137,84.261 48.2410137,84.24 48.2900137,84.24 L48.8990137,84.24 C48.9480137,84.24 48.9690137,84.261 48.9690137,84.31 L48.9690137,88.93 C48.9690137,88.979 48.9480137,89 48.8990137,89 L48.2620137,89 C48.2130137,89 48.1710137,88.979 48.1430137,88.93 L46.1970137,85.654 L46.1690137,85.654 L46.1690137,88.93 C46.1690137,88.979 46.1480137,89 46.0990137,89 L45.4900137,89 C45.4410137,89 45.4200137,88.979 45.4200137,88.93 Z M51.9012672,89 L51.2152672,89 C51.1662672,89 51.1452672,88.979 51.1452672,88.93 L51.1452672,85.024 C51.1452672,84.996 51.1312672,84.982 51.1032672,84.982 L49.8572672,84.982 C49.8082672,84.982 49.7872672,84.961 49.7872672,84.912 L49.7872672,84.31 C49.7872672,84.261 49.8082672,84.24 49.8572672,84.24 L53.2592672,84.24 C53.3082672,84.24 53.3292672,84.261 53.3292672,84.31 L53.3292672,84.912 C53.3292672,84.961 53.3082672,84.982 53.2592672,84.982 L52.0132672,84.982 C51.9852672,84.982 51.9712672,84.996 51.9712672,85.024 L51.9712672,88.93 C51.9712672,88.979 51.9502672,89 51.9012672,89 Z"/>
    <rect width="12" height="12" x="11" y="97" fill="#1851BE" rx="3"/>
    <path fill="#009688" d="M16.0184077,33 L17.9815923,33 C19.6333945,33 20.3018396,33.1856512 20.9536914,33.5342654 C21.6055433,33.8828796 22.1171204,34.3944567 22.4657346,35.0463086 C22.8143488,35.6981604 23,36.3666055 23,38.0184077 L23,39.9815923 C23,41.6333945 22.8143488,42.3018396 22.4657346,42.9536914 C22.1171204,43.6055433 21.6055433,44.1171204 20.9536914,44.4657346 C20.3018396,44.8143488 19.6333945,45 17.9815923,45 L16.0184077,45 C14.3666055,45 13.6981604,44.8143488 13.0463086,44.4657346 C12.3944567,44.1171204 11.8828796,43.6055433 11.5342654,42.9536914 C11.1856512,42.3018396 11,41.6333945 11,39.9815923 L11,38.0184077 C11,36.3666055 11.1856512,35.6981604 11.5342654,35.0463086 C11.8828796,34.3944567 12.3944567,33.8828796 13.0463086,33.5342654 C13.6981604,33.1856512 14.3666055,33 16.0184077,33 Z"/>
    <path fill="#A1D8D3" d="M16.0184077,49 L17.9815923,49 C19.6333945,49 20.3018396,49.1856512 20.9536914,49.5342654 C21.6055433,49.8828796 22.1171204,50.3944567 22.4657346,51.0463086 C22.8143488,51.6981604 23,52.3666055 23,54.0184077 L23,55.9815923 C23,57.6333945 22.8143488,58.3018396 22.4657346,58.9536914 C22.1171204,59.6055433 21.6055433,60.1171204 20.9536914,60.4657346 C20.3018396,60.8143488 19.6333945,61 17.9815923,61 L16.0184077,61 C14.3666055,61 13.6981604,60.8143488 13.0463086,60.4657346 C12.3944567,60.1171204 11.8828796,59.6055433 11.5342654,58.9536914 C11.1856512,58.3018396 11,57.6333945 11,55.9815923 L11,54.0184077 C11,52.3666055 11.1856512,51.6981604 11.5342654,51.0463086 C11.8828796,50.3944567 12.3944567,49.8828796 13.0463086,49.5342654 C13.6981604,49.1856512 14.3666055,49 16.0184077,49 Z"/>
    <path fill="#C3D2EE" d="M16.0184077,65 L17.9815923,65 C19.6333945,65 20.3018396,65.1856512 20.9536914,65.5342654 C21.6055433,65.8828796 22.1171204,66.3944567 22.4657346,67.0463086 C22.8143488,67.6981604 23,68.3666055 23,70.0184077 L23,71.9815923 C23,73.6333945 22.8143488,74.3018396 22.4657346,74.9536914 C22.1171204,75.6055433 21.6055433,76.1171204 20.9536914,76.4657346 C20.3018396,76.8143488 19.6333945,77 17.9815923,77 L16.0184077,77 C14.3666055,77 13.6981604,76.8143488 13.0463086,76.4657346 C12.3944567,76.1171204 11.8828796,75.6055433 11.5342654,74.9536914 C11.1856512,74.3018396 11,73.6333945 11,71.9815923 L11,70.0184077 C11,68.3666055 11.1856512,67.6981604 11.5342654,67.0463086 C11.8828796,66.3944567 12.3944567,65.8828796 13.0463086,65.5342654 C13.6981604,65.1856512 14.3666055,65 16.0184077,65 Z"/>
    <path fill="#5C84D1" d="M16.0184077,81 L17.9815923,81 C19.6333945,81 20.3018396,81.1856512 20.9536914,81.5342654 C21.6055433,81.8828796 22.1171204,82.3944567 22.4657346,83.0463086 C22.8143488,83.6981604 23,84.3666055 23,86.0184077 L23,87.9815923 C23,89.6333945 22.8143488,90.3018396 22.4657346,90.9536914 C22.1171204,91.6055433 21.6055433,92.1171204 20.9536914,92.4657346 C20.3018396,92.8143488 19.6333945,93 17.9815923,93 L16.0184077,93 C14.3666055,93 13.6981604,92.8143488 13.0463086,92.4657346 C12.3944567,92.1171204 11.8828796,91.6055433 11.5342654,90.9536914 C11.1856512,90.3018396 11,89.6333945 11,87.9815923 L11,86.0184077 C11,84.3666055 11.1856512,83.6981604 11.5342654,83.0463086 C11.8828796,82.3944567 12.3944567,81.8828796 13.0463086,81.5342654 C13.6981604,81.1856512 14.3666055,81 16.0184077,81 Z"/>
    <path fill="#1851BE" d="M16.0184077,97 L17.9815923,97 C19.6333945,97 20.3018396,97.1856512 20.9536914,97.5342654 C21.6055433,97.8828796 22.1171204,98.3944567 22.4657346,99.0463086 C22.8143488,99.6981604 23,100.366605 23,102.018408 L23,103.981592 C23,105.633395 22.8143488,106.30184 22.4657346,106.953691 C22.1171204,107.605543 21.6055433,108.11712 20.9536914,108.465735 C20.3018396,108.814349 19.6333945,109 17.9815923,109 L16.0184077,109 C14.3666055,109 13.6981604,108.814349 13.0463086,108.465735 C12.3944567,108.11712 11.8828796,107.605543 11.5342654,106.953691 C11.1856512,106.30184 11,105.633395 11,103.981592 L11,102.018408 C11,100.366605 11.1856512,99.6981604 11.5342654,99.0463086 C11.8828796,98.3944567 12.3944567,97.8828796 13.0463086,97.5342654 C13.6981604,97.1856512 14.3666055,97 16.0184077,97 Z"/>
    <path fill="#000306" fill-rule="nonzero" d="M30.247,104.335 C30.807,104.335 31.178,103.957 31.178,103.313 L31.178,100.31 C31.178,100.261 31.199,100.24 31.248,100.24 L31.934,100.24 C31.983,100.24 32.004,100.261 32.004,100.31 L32.004,103.327 C32.004,103.866 31.843,104.293 31.514,104.608 C31.185,104.923 30.765,105.077 30.247,105.077 C29.736,105.077 29.316,104.923 28.987,104.608 C28.658,104.293 28.497,103.866 28.497,103.327 L28.497,100.31 C28.497,100.261 28.518,100.24 28.567,100.24 L29.253,100.24 C29.302,100.24 29.323,100.261 29.323,100.31 L29.323,103.313 C29.323,103.957 29.694,104.335 30.247,104.335 Z M33.1652534,104.93 L33.1652534,100.31 C33.1652534,100.261 33.1862534,100.24 33.2352534,100.24 L33.8792534,100.24 C33.9282534,100.24 33.9702534,100.261 33.9982534,100.31 L35.9372534,103.593 L35.9652534,103.593 L35.9652534,100.31 C35.9652534,100.261 35.9862534,100.24 36.0352534,100.24 L36.6442534,100.24 C36.6932534,100.24 36.7142534,100.261 36.7142534,100.31 L36.7142534,104.93 C36.7142534,104.979 36.6932534,105 36.6442534,105 L36.0072534,105 C35.9582534,105 35.9162534,104.979 35.8882534,104.93 L33.9422534,101.654 L33.9142534,101.654 L33.9142534,104.93 C33.9142534,104.979 33.8932534,105 33.8442534,105 L33.2352534,105 C33.1862534,105 33.1652534,104.979 33.1652534,104.93 Z M41.3825069,105 L40.6055069,105 C40.5565069,105 40.5215069,104.979 40.5005069,104.93 L39.5905069,103.075 L38.7715069,103.075 C38.7435069,103.075 38.7295069,103.089 38.7295069,103.117 L38.7295069,104.93 C38.7295069,104.979 38.7085069,105 38.6595069,105 L37.9735069,105 C37.9245069,105 37.9035069,104.979 37.9035069,104.93 L37.9035069,100.31 C37.9035069,100.261 37.9245069,100.24 37.9735069,100.24 L39.8145069,100.24 C40.2555069,100.24 40.6125069,100.373 40.8995069,100.639 C41.1865069,100.905 41.3335069,101.248 41.3335069,101.661 C41.3335069,102.277 40.9835069,102.767 40.4305069,102.97 L41.4315069,104.909 C41.4595069,104.958 41.4315069,105 41.3825069,105 Z M38.7715069,102.333 L39.7865069,102.333 C40.2275069,102.333 40.5145069,102.06 40.5145069,101.661 C40.5145069,101.248 40.2275069,100.982 39.7865069,100.982 L38.7715069,100.982 C38.7435069,100.982 38.7295069,100.996 38.7295069,101.024 L38.7295069,102.291 C38.7295069,102.319 38.7435069,102.333 38.7715069,102.333 Z M42.3757603,104.93 L42.3757603,100.31 C42.3757603,100.261 42.3967603,100.24 42.4457603,100.24 L45.4277603,100.24 C45.4767603,100.24 45.4977603,100.261 45.4977603,100.31 L45.4977603,100.912 C45.4977603,100.961 45.4767603,100.982 45.4277603,100.982 L43.2437603,100.982 C43.2157603,100.982 43.2017603,100.996 43.2017603,101.024 L43.2017603,102.186 C43.2017603,102.214 43.2157603,102.228 43.2437603,102.228 L45.0847603,102.228 C45.1337603,102.228 45.1547603,102.249 45.1547603,102.298 L45.1547603,102.9 C45.1547603,102.949 45.1337603,102.97 45.0847603,102.97 L43.2437603,102.97 C43.2157603,102.97 43.2017603,102.984 43.2017603,103.012 L43.2017603,104.216 C43.2017603,104.244 43.2157603,104.258 43.2437603,104.258 L45.4277603,104.258 C45.4767603,104.258 45.4977603,104.279 45.4977603,104.328 L45.4977603,104.93 C45.4977603,104.979 45.4767603,105 45.4277603,105 L42.4457603,105 C42.3967603,105 42.3757603,104.979 42.3757603,104.93 Z M46.1270137,104.93 L47.7580137,100.31 C47.7720137,100.261 47.8000137,100.24 47.8490137,100.24 L48.4930137,100.24 C48.5420137,100.24 48.5700137,100.261 48.5840137,100.31 L50.1940137,104.93 C50.2080137,104.979 50.1940137,105 50.1450137,105 L49.4590137,105 C49.4100137,105 49.3820137,104.979 49.3680137,104.93 L49.0530137,104.006 L47.2610137,104.006 L46.9460137,104.93 C46.9320137,104.979 46.9040137,105 46.8550137,105 L46.1760137,105 C46.1270137,105 46.1130137,104.979 46.1270137,104.93 Z M48.1500137,101.423 L47.5130137,103.271 L48.8010137,103.271 L48.1710137,101.423 L48.1500137,101.423 Z M50.9632672,104.93 L50.9632672,100.31 C50.9632672,100.261 50.9842672,100.24 51.0332672,100.24 L52.7342672,100.24 C53.5672672,100.24 54.0922672,100.59 54.3232672,101.297 C54.4002672,101.542 54.4422672,101.983 54.4422672,102.62 C54.4422672,103.257 54.4002672,103.698 54.3232672,103.943 C54.0922672,104.65 53.5672672,105 52.7342672,105 L51.0332672,105 C50.9842672,105 50.9632672,104.979 50.9632672,104.93 Z M51.7892672,101.024 L51.7892672,104.216 C51.7892672,104.244 51.8032672,104.258 51.8312672,104.258 L52.5382672,104.258 C53.0632672,104.258 53.3922672,104.055 53.5252672,103.656 C53.5812672,103.502 53.6092672,103.159 53.6092672,102.62 C53.6092672,102.081 53.5812672,101.738 53.5252672,101.584 C53.3922672,101.185 53.0632672,100.982 52.5382672,100.982 L51.8312672,100.982 C51.8032672,100.982 51.7892672,100.996 51.7892672,101.024 Z"/>
    <g transform="translate(62.962 96.962)">
      <path d="M60,120 C93.137085,120 120,93.137085 120,60 C120,26.862915 93.137085,3.41060513e-13 60,3.41060513e-13 C26.862915,3.41060513e-13 1.36424205e-12,26.862915 1.36424205e-12,60 C1.36424205e-12,93.137085 26.862915,120 60,120 Z"/>
      <use stroke="#C3D2EE" stroke-dasharray="330" stroke-linejoin="round" stroke-width="40" mask="url(#analytics-presence-f)" xlink:href="#analytics-presence-a"/>
      <use stroke="#5C84D1" stroke-dasharray="265" stroke-linejoin="round" stroke-width="40" mask="url(#analytics-presence-g)" xlink:href="#analytics-presence-b"/>
      <use stroke="#1851BE" stroke-dasharray="250" stroke-linejoin="round" stroke-width="40" mask="url(#analytics-presence-h)" xlink:href="#analytics-presence-c"/>
      <use stroke="#A1D8D3" stroke-dasharray="235" stroke-linejoin="round" stroke-width="40" mask="url(#analytics-presence-i)" xlink:href="#analytics-presence-d"/>
      <use stroke="#009688" stroke-dasharray="165" stroke-linejoin="round" stroke-width="40" mask="url(#analytics-presence-j)" xlink:href="#analytics-presence-e"/>
    </g>
  </g>
</svg>
