<svg xmlns="http://www.w3.org/2000/svg" width="310" height="75" viewBox="0 0 310 75">
  <g fill="none" fill-rule="evenodd" transform="translate(-20 -17)">
    <rect width="370" height="108" rx="5"/>
    <path fill="#000306" fill-rule="nonzero" d="M42.8527328,64.86 L42.8527328,57.692 L42.8247328,57.692 L41.3127328,58.728 C41.2147328,58.798 41.1587328,58.77 41.1587328,58.644 L41.1587328,56.908 C41.1587328,56.838 41.1867328,56.768 41.2567328,56.712 L42.8527328,55.564 C42.9227328,55.508 43.0067328,55.48 43.1047328,55.48 L44.6727328,55.48 C44.7707328,55.48 44.8127328,55.522 44.8127328,55.62 L44.8127328,64.86 C44.8127328,64.958 44.7707328,65 44.6727328,65 L42.9927328,65 C42.8947328,65 42.8527328,64.958 42.8527328,64.86 Z M48.3672397,66.358 L48.3672397,63.18 C48.3672397,63.082 48.4092397,63.04 48.5072397,63.04 L50.0892397,63.04 C50.1872397,63.04 50.2292397,63.082 50.2292397,63.18 L50.2292397,64.874 C50.2292397,64.972 50.1872397,65.07 50.1032397,65.154 L48.7172397,66.414 C48.6472397,66.484 48.5772397,66.512 48.5072397,66.512 C48.4092397,66.512 48.3672397,66.456 48.3672397,66.358 Z M53.3777466,64.86 L55.3937466,61.178 L55.3657466,61.15 C55.2397466,61.206 55.0437466,61.234 54.7777466,61.234 C54.0077466,61.234 53.3637466,60.968 52.8317466,60.45 C52.3137466,59.918 52.0477466,59.218 52.0477466,58.364 C52.0477466,57.426 52.3417466,56.698 52.9437466,56.152 C53.5457466,55.606 54.3157466,55.326 55.2397466,55.326 C56.1777466,55.326 56.9337466,55.592 57.5357466,56.138 C58.1377466,56.684 58.4317466,57.412 58.4317466,58.322 C58.4317466,59.036 58.1937466,59.82 57.7317466,60.674 L55.4217466,64.902 C55.3937466,64.972 55.3377466,65 55.2537466,65 L53.4757466,65 C53.3637466,65 53.3357466,64.958 53.3777466,64.86 Z M54.3157466,59.26 C54.5537466,59.498 54.8617466,59.624 55.2397466,59.624 C55.6177466,59.624 55.9257466,59.498 56.1497466,59.26 C56.3877466,59.008 56.4997466,58.686 56.4997466,58.294 C56.4997466,57.902 56.3877466,57.58 56.1497466,57.342 C55.9257466,57.104 55.6177466,56.978 55.2397466,56.978 C54.8617466,56.978 54.5537466,57.104 54.3157466,57.342 C54.0917466,57.58 53.9797466,57.902 53.9797466,58.294 C53.9797466,58.686 54.0917466,59.008 54.3157466,59.26 Z M60.2222534,62.97 C60.2082534,62.872 60.2362534,62.816 60.3342534,62.788 L61.8742534,62.494 C61.9582534,62.48 62.0142534,62.522 62.0422534,62.606 C62.2382534,63.208 62.6582534,63.502 63.2882534,63.502 C64.0022534,63.502 64.4642534,62.998 64.4642534,62.27 C64.4642534,61.43 63.9602534,60.926 63.1342534,60.926 L62.7282534,60.926 C62.6302534,60.926 62.5882534,60.884 62.5882534,60.786 L62.5882534,59.428 C62.5882534,59.33 62.6302534,59.288 62.7282534,59.288 L63.1062534,59.288 C63.8202534,59.288 64.2822534,58.826 64.2822534,58.098 C64.2822534,57.426 63.8762534,56.978 63.2042534,56.978 C62.6442534,56.978 62.2802534,57.272 62.1262534,57.86 C62.0982534,57.944 62.0422534,57.972 61.9582534,57.958 L60.4322534,57.664 C60.3342534,57.65 60.3062534,57.594 60.3202534,57.51 C60.5442534,56.208 61.6642534,55.326 63.3022534,55.326 C65.1362534,55.326 66.2422534,56.39 66.2422534,57.958 C66.2422534,58.798 65.8922534,59.456 65.1782534,59.918 L65.1782534,59.946 C65.8502534,60.268 66.4242534,61.094 66.4242534,62.256 C66.4242534,63.11 66.1302534,63.81 65.5422534,64.356 C64.9682534,64.888 64.2262534,65.154 63.3162534,65.154 C61.6782534,65.154 60.4882534,64.328 60.2222534,62.97 Z M68.1447603,62.256 C68.1447603,61.29 68.5227603,60.548 69.2787603,60.03 L69.2787603,60.002 C68.7747603,59.652 68.3547603,58.938 68.3547603,58.098 C68.3547603,57.328 68.6207603,56.67 69.1667603,56.138 C69.7127603,55.592 70.4407603,55.326 71.3647603,55.326 C72.2887603,55.326 73.0167603,55.592 73.5627603,56.138 C74.1087603,56.67 74.3747603,57.328 74.3747603,58.098 C74.3747603,58.938 73.9547603,59.652 73.4507603,60.002 L73.4507603,60.03 C74.2067603,60.548 74.5847603,61.29 74.5847603,62.256 C74.5847603,63.124 74.2767603,63.824 73.6747603,64.356 C73.0727603,64.888 72.3027603,65.154 71.3647603,65.154 C70.4267603,65.154 69.6567603,64.888 69.0547603,64.356 C68.4527603,63.824 68.1447603,63.124 68.1447603,62.256 Z M72.4567603,58.098 C72.4567603,57.468 72.0227603,56.978 71.3647603,56.978 C70.7067603,56.978 70.2727603,57.468 70.2727603,58.098 C70.2727603,58.714 70.7347603,59.204 71.3647603,59.204 C71.9947603,59.204 72.4567603,58.714 72.4567603,58.098 Z M70.0767603,62.172 C70.0767603,62.956 70.5947603,63.502 71.3647603,63.502 C72.1347603,63.502 72.6527603,62.956 72.6527603,62.172 C72.6527603,61.402 72.1347603,60.856 71.3647603,60.856 C70.5947603,60.856 70.0767603,61.402 70.0767603,62.172 Z"/>
    <path fill="#8792A2" fill-rule="nonzero" d="M46.7432397 88.86L46.7432397 79.62C46.7432397 79.522 46.7852397 79.48 46.8832397 79.48L50.2852397 79.48C51.9512397 79.48 53.0012397 80.18 53.4632397 81.594 53.6172397 82.084 53.7012397 82.966 53.7012397 84.24 53.7012397 85.514 53.6172397 86.396 53.4632397 86.886 53.0012397 88.3 51.9512397 89 50.2852397 89L46.8832397 89C46.7852397 89 46.7432397 88.958 46.7432397 88.86zM48.3952397 81.048L48.3952397 87.432C48.3952397 87.488 48.4232397 87.516 48.4792397 87.516L49.8932397 87.516C50.9432397 87.516 51.6012397 87.11 51.8672397 86.312 51.9792397 86.004 52.0352397 85.318 52.0352397 84.24 52.0352397 83.162 51.9792397 82.476 51.8672397 82.168 51.6012397 81.37 50.9432397 80.964 49.8932397 80.964L48.4792397 80.964C48.4232397 80.964 48.3952397 80.992 48.3952397 81.048zM60.9377466 89L59.7617466 89C59.6637466 89 59.6217466 88.958 59.6217466 88.86L59.6217466 88.37 59.6077466 88.37C59.2437466 88.888 58.6137466 89.154 57.7037466 89.154 56.4017466 89.154 55.4357466 88.44 55.4357466 87.096 55.4357466 85.654 56.4157466 84.954 58.1377466 84.954L59.5097466 84.954C59.5657466 84.954 59.5937466 84.926 59.5937466 84.87L59.5937466 84.548C59.5937466 83.764 59.2017466 83.428 58.0957466 83.428 57.4657466 83.428 56.9477466 83.582 56.5557466 83.89 56.4717466 83.96 56.4017466 83.946 56.3597466 83.862L55.8417466 82.938C55.7997466 82.868 55.7997466 82.798 55.8697466 82.756 56.4717466 82.322 57.2697466 82.098 58.2637466 82.098 60.2937466 82.098 61.0777466 82.784 61.0777466 84.45L61.0777466 88.86C61.0777466 88.958 61.0357466 89 60.9377466 89zM58.0957466 87.88C59.0897466 87.88 59.5937466 87.502 59.5937466 86.732L59.5937466 86.214C59.5937466 86.158 59.5657466 86.13 59.5097466 86.13L58.3897466 86.13C57.4237466 86.13 56.9337466 86.438 56.9337466 87.04 56.9337466 87.6 57.3257466 87.88 58.0957466 87.88zM63.9742534 91.52L63.5402534 91.52C63.4422534 91.52 63.4002534 91.478 63.4002534 91.38L63.4002534 90.26C63.4002534 90.162 63.4422534 90.12 63.5402534 90.12L63.7922534 90.12C64.3102534 90.12 64.5902534 89.896 64.8002534 89.322L64.9962534 88.748 62.5322534 82.392C62.5042534 82.294 62.5462534 82.252 62.6442534 82.252L64.0302534 82.252C64.1142534 82.252 64.1702534 82.294 64.1982534 82.392L65.7242534 86.802 65.7522534 86.802 67.2082534 82.392C67.2362534 82.294 67.2922534 82.252 67.3762534 82.252L68.7062534 82.252C68.8042534 82.252 68.8462534 82.294 68.8182534 82.392L66.2422534 89.42C65.9482534 90.218 65.6402534 90.764 65.3042534 91.058 64.9822534 91.366 64.5342534 91.52 63.9742534 91.52zM126.095986 89L125.031986 89C124.947986 89 124.891986 88.958 124.863986 88.86L123.043986 82.35 123.015986 82.35 121.181986 88.86C121.153986 88.958 121.097986 89 121.013986 89L119.963986 89C119.879986 89 119.823986 88.958 119.795986 88.86L117.457986 79.62C117.443986 79.522 117.471986 79.48 117.569986 79.48L118.885986 79.48C118.983986 79.48 119.039986 79.522 119.053986 79.62L120.565986 86.032 120.593986 86.032 122.371986 79.62C122.399986 79.522 122.455986 79.48 122.539986 79.48L123.519986 79.48C123.603986 79.48 123.659986 79.522 123.687986 79.62L125.507986 86.032 125.535986 86.032 127.005986 79.62C127.019986 79.522 127.075986 79.48 127.173986 79.48L128.475986 79.48C128.573986 79.48 128.601986 79.522 128.587986 79.62L126.263986 88.86C126.249986 88.958 126.193986 89 126.095986 89zM132.772493 89.154C131.358493 89.154 130.336493 88.454 129.958493 87.278 129.804493 86.788 129.720493 86.228 129.720493 85.626 129.720493 84.982 129.790493 84.422 129.944493 83.96 130.322493 82.784 131.358493 82.098 132.702493 82.098 134.088493 82.098 135.096493 82.798 135.474493 83.96 135.628493 84.422 135.698493 85.094 135.698493 85.99 135.698493 86.088 135.642493 86.13 135.544493 86.13L131.386493 86.13C131.330493 86.13 131.302493 86.158 131.302493 86.214 131.302493 86.382 131.330493 86.55 131.400493 86.732 131.638493 87.418 132.142493 87.754 132.912493 87.754 133.570493 87.754 134.102493 87.544 134.494493 87.11 134.564493 87.04 134.634493 87.026 134.704493 87.082L135.530493 87.81C135.600493 87.866 135.600493 87.936 135.544493 88.006 134.886493 88.776 133.962493 89.154 132.772493 89.154zM134.116493 84.87C134.116493 84.66 134.088493 84.464 134.032493 84.296 133.850493 83.75 133.346493 83.428 132.716493 83.428 132.030493 83.428 131.582493 83.722 131.386493 84.296 131.330493 84.464 131.302493 84.66 131.302493 84.87 131.302493 84.926 131.330493 84.954 131.386493 84.954L134.032493 84.954C134.088493 84.954 134.116493 84.926 134.116493 84.87zM140.345 89.154C138.931 89.154 137.909 88.454 137.531 87.278 137.377 86.788 137.293 86.228 137.293 85.626 137.293 84.982 137.363 84.422 137.517 83.96 137.895 82.784 138.931 82.098 140.275 82.098 141.661 82.098 142.669 82.798 143.047 83.96 143.201 84.422 143.271 85.094 143.271 85.99 143.271 86.088 143.215 86.13 143.117 86.13L138.959 86.13C138.903 86.13 138.875 86.158 138.875 86.214 138.875 86.382 138.903 86.55 138.973 86.732 139.211 87.418 139.715 87.754 140.485 87.754 141.143 87.754 141.675 87.544 142.067 87.11 142.137 87.04 142.207 87.026 142.277 87.082L143.103 87.81C143.173 87.866 143.173 87.936 143.117 88.006 142.459 88.776 141.535 89.154 140.345 89.154zM141.689 84.87C141.689 84.66 141.661 84.464 141.605 84.296 141.423 83.75 140.919 83.428 140.289 83.428 139.603 83.428 139.155 83.722 138.959 84.296 138.903 84.464 138.875 84.66 138.875 84.87 138.875 84.926 138.903 84.954 138.959 84.954L141.605 84.954C141.661 84.954 141.689 84.926 141.689 84.87zM151.109507 89L149.639507 89C149.541507 89 149.471507 88.958 149.415507 88.86L147.707507 86.032 146.797507 87.082 146.797507 88.86C146.797507 88.958 146.755507 89 146.657507 89L145.369507 89C145.271507 89 145.229507 88.958 145.229507 88.86L145.229507 79.62C145.229507 79.522 145.271507 79.48 145.369507 79.48L146.657507 79.48C146.755507 79.48 146.797507 79.522 146.797507 79.62L146.797507 85.108 149.107507 82.392C149.191507 82.294 149.275507 82.252 149.373507 82.252L150.801507 82.252C150.871507 82.252 150.913507 82.336 150.857507 82.392L148.715507 84.856 151.179507 88.86C151.207507 88.916 151.193507 89 151.109507 89zM195.981733 88.86L195.981733 79.62C195.981733 79.522 196.023733 79.48 196.121733 79.48L197.367733 79.48C197.493733 79.48 197.563733 79.522 197.605733 79.62L200.223733 85.486 200.279733 85.486 202.855733 79.62C202.897733 79.522 202.967733 79.48 203.093733 79.48L204.325733 79.48C204.423733 79.48 204.465733 79.522 204.465733 79.62L204.465733 88.86C204.465733 88.958 204.423733 89 204.325733 89L203.107733 89C203.009733 89 202.967733 88.958 202.967733 88.86L202.967733 83.036 202.911733 83.036 200.895733 87.516C200.839733 87.642 200.755733 87.698 200.629733 87.698L199.817733 87.698C199.691733 87.698 199.607733 87.642 199.551733 87.516L197.535733 83.036 197.479733 83.036 197.479733 88.86C197.479733 88.958 197.437733 89 197.339733 89L196.121733 89C196.023733 89 195.981733 88.958 195.981733 88.86zM209.46224 89.154C208.07624 89.154 207.05424 88.468 206.67624 87.292 206.52224 86.83 206.45224 86.284 206.45224 85.626 206.45224 84.968 206.52224 84.422 206.67624 83.96 207.05424 82.784 208.07624 82.098 209.46224 82.098 210.82024 82.098 211.85624 82.784 212.23424 83.96 212.38824 84.422 212.45824 84.968 212.45824 85.626 212.45824 86.284 212.38824 86.83 212.23424 87.292 211.85624 88.468 210.82024 89.154 209.46224 89.154zM209.46224 87.754C210.09224 87.754 210.51224 87.46 210.72224 86.872 210.82024 86.578 210.86224 86.172 210.86224 85.626 210.86224 85.094 210.82024 84.674 210.72224 84.38 210.51224 83.792 210.09224 83.498 209.46224 83.498 208.81824 83.498 208.39824 83.792 208.18824 84.38 208.09024 84.674 208.04824 85.094 208.04824 85.626 208.04824 86.172 208.09024 86.578 208.18824 86.872 208.39824 87.46 208.81824 87.754 209.46224 87.754zM219.974747 89L218.686747 89C218.588747 89 218.546747 88.958 218.546747 88.86L218.546747 84.968C218.546747 84.072 218.098747 83.498 217.272747 83.498 216.474747 83.498 215.984747 84.086 215.984747 84.968L215.984747 88.86C215.984747 88.958 215.942747 89 215.844747 89L214.556747 89C214.458747 89 214.416747 88.958 214.416747 88.86L214.416747 82.392C214.416747 82.294 214.458747 82.252 214.556747 82.252L215.844747 82.252C215.942747 82.252 215.984747 82.294 215.984747 82.392L215.984747 82.882 215.998747 82.882C216.362747 82.364 216.950747 82.098 217.776747 82.098 219.190747 82.098 220.114747 83.134 220.114747 84.604L220.114747 88.86C220.114747 88.958 220.072747 89 219.974747 89zM225.013253 89.084L224.341253 89.084C223.011253 89.084 222.465253 88.454 222.465253 87.11L222.465253 83.554C222.465253 83.498 222.437253 83.47 222.381253 83.47L221.933253 83.47C221.835253 83.47 221.793253 83.428 221.793253 83.33L221.793253 82.392C221.793253 82.294 221.835253 82.252 221.933253 82.252L222.381253 82.252C222.437253 82.252 222.465253 82.224 222.465253 82.168L222.465253 80.32C222.465253 80.222 222.507253 80.18 222.605253 80.18L223.893253 80.18C223.991253 80.18 224.033253 80.222 224.033253 80.32L224.033253 82.168C224.033253 82.224 224.061253 82.252 224.117253 82.252L225.013253 82.252C225.111253 82.252 225.153253 82.294 225.153253 82.392L225.153253 83.33C225.153253 83.428 225.111253 83.47 225.013253 83.47L224.117253 83.47C224.061253 83.47 224.033253 83.498 224.033253 83.554L224.033253 87.054C224.033253 87.516 224.215253 87.684 224.663253 87.684L225.013253 87.684C225.111253 87.684 225.153253 87.726 225.153253 87.824L225.153253 88.944C225.153253 89.042 225.111253 89.084 225.013253 89.084zM232.69776 89L231.40976 89C231.31176 89 231.26976 88.958 231.26976 88.86L231.26976 84.968C231.26976 84.072 230.82176 83.498 229.99576 83.498 229.19776 83.498 228.70776 84.086 228.70776 84.968L228.70776 88.86C228.70776 88.958 228.66576 89 228.56776 89L227.27976 89C227.18176 89 227.13976 88.958 227.13976 88.86L227.13976 79.62C227.13976 79.522 227.18176 79.48 227.27976 79.48L228.56776 79.48C228.66576 79.48 228.70776 79.522 228.70776 79.62L228.70776 82.882 228.72176 82.882C229.08576 82.364 229.67376 82.098 230.49976 82.098 231.91376 82.098 232.83776 83.134 232.83776 84.604L232.83776 88.86C232.83776 88.958 232.79576 89 232.69776 89zM278.549973 88.86L281.811973 79.62C281.839973 79.522 281.895973 79.48 281.993973 79.48L283.281973 79.48C283.379973 79.48 283.435973 79.522 283.463973 79.62L286.683973 88.86C286.711973 88.958 286.683973 89 286.585973 89L285.213973 89C285.115973 89 285.059973 88.958 285.031973 88.86L284.401973 87.012 280.817973 87.012 280.187973 88.86C280.159973 88.958 280.103973 89 280.005973 89L278.647973 89C278.549973 89 278.521973 88.958 278.549973 88.86zM282.595973 81.846L281.321973 85.542 283.897973 85.542 282.637973 81.846 282.595973 81.846zM290.588479 89.084L289.972479 89.084C288.670479 89.084 288.124479 88.482 288.124479 87.152L288.124479 79.62C288.124479 79.522 288.166479 79.48 288.264479 79.48L289.552479 79.48C289.650479 79.48 289.692479 79.522 289.692479 79.62L289.692479 87.068C289.692479 87.516 289.874479 87.684 290.280479 87.684L290.588479 87.684C290.686479 87.684 290.728479 87.726 290.728479 87.824L290.728479 88.944C290.728479 89.042 290.686479 89.084 290.588479 89.084zM294.898986 89.084L294.282986 89.084C292.980986 89.084 292.434986 88.482 292.434986 87.152L292.434986 79.62C292.434986 79.522 292.476986 79.48 292.574986 79.48L293.862986 79.48C293.960986 79.48 294.002986 79.522 294.002986 79.62L294.002986 87.068C294.002986 87.516 294.184986 87.684 294.590986 87.684L294.898986 87.684C294.996986 87.684 295.038986 87.726 295.038986 87.824L295.038986 88.944C295.038986 89.042 294.996986 89.084 294.898986 89.084zM303.758 89L302.386 89C302.288 89 302.246 88.958 302.246 88.86L302.246 81.048C302.246 80.992 302.218 80.964 302.162 80.964L299.67 80.964C299.572 80.964 299.53 80.922 299.53 80.824L299.53 79.62C299.53 79.522 299.572 79.48 299.67 79.48L306.474 79.48C306.572 79.48 306.614 79.522 306.614 79.62L306.614 80.824C306.614 80.922 306.572 80.964 306.474 80.964L303.982 80.964C303.926 80.964 303.898 80.992 303.898 81.048L303.898 88.86C303.898 88.958 303.856 89 303.758 89zM309.650507 80.978L308.362507 80.978C308.264507 80.978 308.222507 80.936 308.222507 80.838L308.222507 79.62C308.222507 79.522 308.264507 79.48 308.362507 79.48L309.650507 79.48C309.748507 79.48 309.790507 79.522 309.790507 79.62L309.790507 80.838C309.790507 80.936 309.748507 80.978 309.650507 80.978zM309.650507 89L308.362507 89C308.264507 89 308.222507 88.958 308.222507 88.86L308.222507 82.392C308.222507 82.294 308.264507 82.252 308.362507 82.252L309.650507 82.252C309.748507 82.252 309.790507 82.294 309.790507 82.392L309.790507 88.86C309.790507 88.958 309.748507 89 309.650507 89zM321.801014 89L320.513014 89C320.415014 89 320.373014 88.958 320.373014 88.86L320.373014 84.968C320.373014 84.072 319.925014 83.498 319.099014 83.498 318.301014 83.498 317.811014 84.086 317.811014 84.968L317.811014 88.86C317.811014 88.958 317.769014 89 317.671014 89L316.383014 89C316.285014 89 316.243014 88.958 316.243014 88.86L316.243014 84.968C316.243014 84.072 315.795014 83.498 314.969014 83.498 314.171014 83.498 313.681014 84.086 313.681014 84.968L313.681014 88.86C313.681014 88.958 313.639014 89 313.541014 89L312.253014 89C312.155014 89 312.113014 88.958 312.113014 88.86L312.113014 82.392C312.113014 82.294 312.155014 82.252 312.253014 82.252L313.541014 82.252C313.639014 82.252 313.681014 82.294 313.681014 82.392L313.681014 82.882 313.695014 82.882C314.059014 82.364 314.647014 82.098 315.473014 82.098 316.285014 82.098 316.901014 82.392 317.321014 82.994L317.335014 82.994C317.881014 82.392 318.609014 82.098 319.491014 82.098 321.017014 82.098 321.941014 83.134 321.941014 84.604L321.941014 88.86C321.941014 88.958 321.899014 89 321.801014 89zM326.881521 89.154C325.467521 89.154 324.445521 88.454 324.067521 87.278 323.913521 86.788 323.829521 86.228 323.829521 85.626 323.829521 84.982 323.899521 84.422 324.053521 83.96 324.431521 82.784 325.467521 82.098 326.811521 82.098 328.197521 82.098 329.205521 82.798 329.583521 83.96 329.737521 84.422 329.807521 85.094 329.807521 85.99 329.807521 86.088 329.751521 86.13 329.653521 86.13L325.495521 86.13C325.439521 86.13 325.411521 86.158 325.411521 86.214 325.411521 86.382 325.439521 86.55 325.509521 86.732 325.747521 87.418 326.251521 87.754 327.021521 87.754 327.679521 87.754 328.211521 87.544 328.603521 87.11 328.673521 87.04 328.743521 87.026 328.813521 87.082L329.639521 87.81C329.709521 87.866 329.709521 87.936 329.653521 88.006 328.995521 88.776 328.071521 89.154 326.881521 89.154zM328.225521 84.87C328.225521 84.66 328.197521 84.464 328.141521 84.296 327.959521 83.75 327.455521 83.428 326.825521 83.428 326.139521 83.428 325.691521 83.722 325.495521 84.296 325.439521 84.464 325.411521 84.66 325.411521 84.87 325.411521 84.926 325.439521 84.954 325.495521 84.954L328.141521 84.954C328.197521 84.954 328.225521 84.926 328.225521 84.87z"/>
    <path fill="#000306" fill-rule="nonzero" d="M117.486733 63.054C117.472733 62.97 117.500733 62.914 117.598733 62.9L119.110733 62.606C119.194733 62.592 119.250733 62.634 119.278733 62.718 119.474733 63.236 119.838733 63.502 120.384733 63.502 120.902733 63.502 121.238733 63.278 121.378733 62.83 121.448733 62.634 121.490733 62.326 121.490733 61.906 121.490733 61.472 121.448733 61.164 121.378733 60.968 121.238733 60.534 120.902733 60.31 120.384733 60.31 119.922733 60.31 119.600733 60.492 119.418733 60.856 119.376733 60.954 119.320733 60.996 119.236733 60.996L117.738733 60.996C117.640733 60.996 117.598733 60.954 117.598733 60.856L117.598733 55.62C117.598733 55.522 117.640733 55.48 117.738733 55.48L123.058733 55.48C123.156733 55.48 123.198733 55.522 123.198733 55.62L123.198733 57.006C123.198733 57.104 123.156733 57.146 123.058733 57.146L119.404733 57.146C119.348733 57.146 119.320733 57.174 119.320733 57.23L119.320733 59.106 119.362733 59.106C119.698733 58.812 120.174733 58.658 120.790733 58.658 122.064733 58.658 122.890733 59.19 123.240733 60.268 123.366733 60.674 123.436733 61.22 123.436733 61.892 123.436733 62.438 123.366733 62.942 123.226733 63.376 122.848733 64.51 121.798733 65.154 120.412733 65.154 119.614733 65.154 118.942733 64.958 118.410733 64.58 117.878733 64.188 117.570733 63.684 117.486733 63.054zM125.36724 66.358L125.36724 63.18C125.36724 63.082 125.40924 63.04 125.50724 63.04L127.08924 63.04C127.18724 63.04 127.22924 63.082 127.22924 63.18L127.22924 64.874C127.22924 64.972 127.18724 65.07 127.10324 65.154L125.71724 66.414C125.64724 66.484 125.57724 66.512 125.50724 66.512 125.40924 66.512 125.36724 66.456 125.36724 66.358zM129.369747 63.054C129.355747 62.97 129.383747 62.914 129.481747 62.9L130.993747 62.606C131.077747 62.592 131.133747 62.634 131.161747 62.718 131.357747 63.236 131.721747 63.502 132.267747 63.502 132.785747 63.502 133.121747 63.278 133.261747 62.83 133.331747 62.634 133.373747 62.326 133.373747 61.906 133.373747 61.472 133.331747 61.164 133.261747 60.968 133.121747 60.534 132.785747 60.31 132.267747 60.31 131.805747 60.31 131.483747 60.492 131.301747 60.856 131.259747 60.954 131.203747 60.996 131.119747 60.996L129.621747 60.996C129.523747 60.996 129.481747 60.954 129.481747 60.856L129.481747 55.62C129.481747 55.522 129.523747 55.48 129.621747 55.48L134.941747 55.48C135.039747 55.48 135.081747 55.522 135.081747 55.62L135.081747 57.006C135.081747 57.104 135.039747 57.146 134.941747 57.146L131.287747 57.146C131.231747 57.146 131.203747 57.174 131.203747 57.23L131.203747 59.106 131.245747 59.106C131.581747 58.812 132.057747 58.658 132.673747 58.658 133.947747 58.658 134.773747 59.19 135.123747 60.268 135.249747 60.674 135.319747 61.22 135.319747 61.892 135.319747 62.438 135.249747 62.942 135.109747 63.376 134.731747 64.51 133.681747 65.154 132.295747 65.154 131.497747 65.154 130.825747 64.958 130.293747 64.58 129.761747 64.188 129.453747 63.684 129.369747 63.054zM137.082253 62.256C137.082253 61.29 137.460253 60.548 138.216253 60.03L138.216253 60.002C137.712253 59.652 137.292253 58.938 137.292253 58.098 137.292253 57.328 137.558253 56.67 138.104253 56.138 138.650253 55.592 139.378253 55.326 140.302253 55.326 141.226253 55.326 141.954253 55.592 142.500253 56.138 143.046253 56.67 143.312253 57.328 143.312253 58.098 143.312253 58.938 142.892253 59.652 142.388253 60.002L142.388253 60.03C143.144253 60.548 143.522253 61.29 143.522253 62.256 143.522253 63.124 143.214253 63.824 142.612253 64.356 142.010253 64.888 141.240253 65.154 140.302253 65.154 139.364253 65.154 138.594253 64.888 137.992253 64.356 137.390253 63.824 137.082253 63.124 137.082253 62.256zM141.394253 58.098C141.394253 57.468 140.960253 56.978 140.302253 56.978 139.644253 56.978 139.210253 57.468 139.210253 58.098 139.210253 58.714 139.672253 59.204 140.302253 59.204 140.932253 59.204 141.394253 58.714 141.394253 58.098zM139.014253 62.172C139.014253 62.956 139.532253 63.502 140.302253 63.502 141.072253 63.502 141.590253 62.956 141.590253 62.172 141.590253 61.402 141.072253 60.856 140.302253 60.856 139.532253 60.856 139.014253 61.402 139.014253 62.172zM146.50276 64.86L148.51876 61.178 148.49076 61.15C148.36476 61.206 148.16876 61.234 147.90276 61.234 147.13276 61.234 146.48876 60.968 145.95676 60.45 145.43876 59.918 145.17276 59.218 145.17276 58.364 145.17276 57.426 145.46676 56.698 146.06876 56.152 146.67076 55.606 147.44076 55.326 148.36476 55.326 149.30276 55.326 150.05876 55.592 150.66076 56.138 151.26276 56.684 151.55676 57.412 151.55676 58.322 151.55676 59.036 151.31876 59.82 150.85676 60.674L148.54676 64.902C148.51876 64.972 148.46276 65 148.37876 65L146.60076 65C146.48876 65 146.46076 64.958 146.50276 64.86zM147.44076 59.26C147.67876 59.498 147.98676 59.624 148.36476 59.624 148.74276 59.624 149.05076 59.498 149.27476 59.26 149.51276 59.008 149.62476 58.686 149.62476 58.294 149.62476 57.902 149.51276 57.58 149.27476 57.342 149.05076 57.104 148.74276 56.978 148.36476 56.978 147.98676 56.978 147.67876 57.104 147.44076 57.342 147.21676 57.58 147.10476 57.902 147.10476 58.294 147.10476 58.686 147.21676 59.008 147.44076 59.26zM196.821479 64.86L196.821479 57.692 196.793479 57.692 195.281479 58.728C195.183479 58.798 195.127479 58.77 195.127479 58.644L195.127479 56.908C195.127479 56.838 195.155479 56.768 195.225479 56.712L196.821479 55.564C196.891479 55.508 196.975479 55.48 197.073479 55.48L198.641479 55.48C198.739479 55.48 198.781479 55.522 198.781479 55.62L198.781479 64.86C198.781479 64.958 198.739479 65 198.641479 65L196.961479 65C196.863479 65 196.821479 64.958 196.821479 64.86zM202.167986 62.256C202.167986 61.29 202.545986 60.548 203.301986 60.03L203.301986 60.002C202.797986 59.652 202.377986 58.938 202.377986 58.098 202.377986 57.328 202.643986 56.67 203.189986 56.138 203.735986 55.592 204.463986 55.326 205.387986 55.326 206.311986 55.326 207.039986 55.592 207.585986 56.138 208.131986 56.67 208.397986 57.328 208.397986 58.098 208.397986 58.938 207.977986 59.652 207.473986 60.002L207.473986 60.03C208.229986 60.548 208.607986 61.29 208.607986 62.256 208.607986 63.124 208.299986 63.824 207.697986 64.356 207.095986 64.888 206.325986 65.154 205.387986 65.154 204.449986 65.154 203.679986 64.888 203.077986 64.356 202.475986 63.824 202.167986 63.124 202.167986 62.256zM206.479986 58.098C206.479986 57.468 206.045986 56.978 205.387986 56.978 204.729986 56.978 204.295986 57.468 204.295986 58.098 204.295986 58.714 204.757986 59.204 205.387986 59.204 206.017986 59.204 206.479986 58.714 206.479986 58.098zM204.099986 62.172C204.099986 62.956 204.617986 63.502 205.387986 63.502 206.157986 63.502 206.675986 62.956 206.675986 62.172 206.675986 61.402 206.157986 60.856 205.387986 60.856 204.617986 60.856 204.099986 61.402 204.099986 62.172zM210.398493 66.358L210.398493 63.18C210.398493 63.082 210.440493 63.04 210.538493 63.04L212.120493 63.04C212.218493 63.04 212.260493 63.082 212.260493 63.18L212.260493 64.874C212.260493 64.972 212.218493 65.07 212.134493 65.154L210.748493 66.414C210.678493 66.484 210.608493 66.512 210.538493 66.512 210.440493 66.512 210.398493 66.456 210.398493 66.358zM215.409 64.86L217.425 61.178 217.397 61.15C217.271 61.206 217.075 61.234 216.809 61.234 216.039 61.234 215.395 60.968 214.863 60.45 214.345 59.918 214.079 59.218 214.079 58.364 214.079 57.426 214.373 56.698 214.975 56.152 215.577 55.606 216.347 55.326 217.271 55.326 218.209 55.326 218.965 55.592 219.567 56.138 220.169 56.684 220.463 57.412 220.463 58.322 220.463 59.036 220.225 59.82 219.763 60.674L217.453 64.902C217.425 64.972 217.369 65 217.285 65L215.507 65C215.395 65 215.367 64.958 215.409 64.86zM216.347 59.26C216.585 59.498 216.893 59.624 217.271 59.624 217.649 59.624 217.957 59.498 218.181 59.26 218.419 59.008 218.531 58.686 218.531 58.294 218.531 57.902 218.419 57.58 218.181 57.342 217.957 57.104 217.649 56.978 217.271 56.978 216.893 56.978 216.585 57.104 216.347 57.342 216.123 57.58 216.011 57.902 216.011 58.294 216.011 58.686 216.123 59.008 216.347 59.26zM222.463507 63.054C222.449507 62.97 222.477507 62.914 222.575507 62.9L224.087507 62.606C224.171507 62.592 224.227507 62.634 224.255507 62.718 224.451507 63.236 224.815507 63.502 225.361507 63.502 225.879507 63.502 226.215507 63.278 226.355507 62.83 226.425507 62.634 226.467507 62.326 226.467507 61.906 226.467507 61.472 226.425507 61.164 226.355507 60.968 226.215507 60.534 225.879507 60.31 225.361507 60.31 224.899507 60.31 224.577507 60.492 224.395507 60.856 224.353507 60.954 224.297507 60.996 224.213507 60.996L222.715507 60.996C222.617507 60.996 222.575507 60.954 222.575507 60.856L222.575507 55.62C222.575507 55.522 222.617507 55.48 222.715507 55.48L228.035507 55.48C228.133507 55.48 228.175507 55.522 228.175507 55.62L228.175507 57.006C228.175507 57.104 228.133507 57.146 228.035507 57.146L224.381507 57.146C224.325507 57.146 224.297507 57.174 224.297507 57.23L224.297507 59.106 224.339507 59.106C224.675507 58.812 225.151507 58.658 225.767507 58.658 227.041507 58.658 227.867507 59.19 228.217507 60.268 228.343507 60.674 228.413507 61.22 228.413507 61.892 228.413507 62.438 228.343507 62.942 228.203507 63.376 227.825507 64.51 226.775507 65.154 225.389507 65.154 224.591507 65.154 223.919507 64.958 223.387507 64.58 222.855507 64.188 222.547507 63.684 222.463507 63.054zM230.316014 62.97C230.302014 62.872 230.330014 62.816 230.428014 62.788L231.968014 62.494C232.052014 62.48 232.108014 62.522 232.136014 62.606 232.332014 63.208 232.752014 63.502 233.382014 63.502 234.096014 63.502 234.558014 62.998 234.558014 62.27 234.558014 61.43 234.054014 60.926 233.228014 60.926L232.822014 60.926C232.724014 60.926 232.682014 60.884 232.682014 60.786L232.682014 59.428C232.682014 59.33 232.724014 59.288 232.822014 59.288L233.200014 59.288C233.914014 59.288 234.376014 58.826 234.376014 58.098 234.376014 57.426 233.970014 56.978 233.298014 56.978 232.738014 56.978 232.374014 57.272 232.220014 57.86 232.192014 57.944 232.136014 57.972 232.052014 57.958L230.526014 57.664C230.428014 57.65 230.400014 57.594 230.414014 57.51 230.638014 56.208 231.758014 55.326 233.396014 55.326 235.230014 55.326 236.336014 56.39 236.336014 57.958 236.336014 58.798 235.986014 59.456 235.272014 59.918L235.272014 59.946C235.944014 60.268 236.518014 61.094 236.518014 62.256 236.518014 63.11 236.224014 63.81 235.636014 64.356 235.062014 64.888 234.320014 65.154 233.410014 65.154 231.772014 65.154 230.582014 64.328 230.316014 62.97zM279.214226 62.97C279.200226 62.872 279.228226 62.816 279.326226 62.788L280.866226 62.494C280.950226 62.48 281.006226 62.522 281.034226 62.606 281.230226 63.208 281.650226 63.502 282.280226 63.502 282.994226 63.502 283.456226 62.998 283.456226 62.27 283.456226 61.43 282.952226 60.926 282.126226 60.926L281.720226 60.926C281.622226 60.926 281.580226 60.884 281.580226 60.786L281.580226 59.428C281.580226 59.33 281.622226 59.288 281.720226 59.288L282.098226 59.288C282.812226 59.288 283.274226 58.826 283.274226 58.098 283.274226 57.426 282.868226 56.978 282.196226 56.978 281.636226 56.978 281.272226 57.272 281.118226 57.86 281.090226 57.944 281.034226 57.972 280.950226 57.958L279.424226 57.664C279.326226 57.65 279.298226 57.594 279.312226 57.51 279.536226 56.208 280.656226 55.326 282.294226 55.326 284.128226 55.326 285.234226 56.39 285.234226 57.958 285.234226 58.798 284.884226 59.456 284.170226 59.918L284.170226 59.946C284.842226 60.268 285.416226 61.094 285.416226 62.256 285.416226 63.11 285.122226 63.81 284.534226 64.356 283.960226 64.888 283.218226 65.154 282.308226 65.154 280.670226 65.154 279.480226 64.328 279.214226 62.97zM287.388733 64.86L287.388733 63.558C287.388733 63.488 287.416733 63.418 287.458733 63.362L290.804733 59.386C291.182733 58.952 291.364733 58.518 291.364733 58.07 291.364733 57.412 290.958733 56.978 290.328733 56.978 289.670733 56.978 289.292733 57.356 289.208733 58.098 289.208733 58.196 289.152733 58.224 289.054733 58.21L287.514733 57.958C287.416733 57.944 287.388733 57.888 287.402733 57.79 287.458733 57.104 287.752733 56.516 288.284733 56.04 288.816733 55.564 289.516733 55.326 290.398733 55.326 291.280733 55.326 291.994733 55.578 292.526733 56.096 293.058733 56.614 293.324733 57.258 293.324733 58.042 293.324733 58.84 293.002733 59.61 292.358733 60.352L289.852733 63.306 289.852733 63.334 293.184733 63.334C293.282733 63.334 293.324733 63.376 293.324733 63.474L293.324733 64.86C293.324733 64.958 293.282733 65 293.184733 65L287.528733 65C287.430733 65 287.388733 64.958 287.388733 64.86zM295.19924 62.256C295.19924 61.29 295.57724 60.548 296.33324 60.03L296.33324 60.002C295.82924 59.652 295.40924 58.938 295.40924 58.098 295.40924 57.328 295.67524 56.67 296.22124 56.138 296.76724 55.592 297.49524 55.326 298.41924 55.326 299.34324 55.326 300.07124 55.592 300.61724 56.138 301.16324 56.67 301.42924 57.328 301.42924 58.098 301.42924 58.938 301.00924 59.652 300.50524 60.002L300.50524 60.03C301.26124 60.548 301.63924 61.29 301.63924 62.256 301.63924 63.124 301.33124 63.824 300.72924 64.356 300.12724 64.888 299.35724 65.154 298.41924 65.154 297.48124 65.154 296.71124 64.888 296.10924 64.356 295.50724 63.824 295.19924 63.124 295.19924 62.256zM299.51124 58.098C299.51124 57.468 299.07724 56.978 298.41924 56.978 297.76124 56.978 297.32724 57.468 297.32724 58.098 297.32724 58.714 297.78924 59.204 298.41924 59.204 299.04924 59.204 299.51124 58.714 299.51124 58.098zM297.13124 62.172C297.13124 62.956 297.64924 63.502 298.41924 63.502 299.18924 63.502 299.70724 62.956 299.70724 62.172 299.70724 61.402 299.18924 60.856 298.41924 60.856 297.64924 60.856 297.13124 61.402 297.13124 62.172zM303.429747 66.358L303.429747 63.18C303.429747 63.082 303.471747 63.04 303.569747 63.04L305.151747 63.04C305.249747 63.04 305.291747 63.082 305.291747 63.18L305.291747 64.874C305.291747 64.972 305.249747 65.07 305.165747 65.154L303.779747 66.414C303.709747 66.484 303.639747 66.512 303.569747 66.512 303.471747 66.512 303.429747 66.456 303.429747 66.358zM307.334253 64.86L307.334253 63.558C307.334253 63.488 307.362253 63.418 307.404253 63.362L310.750253 59.386C311.128253 58.952 311.310253 58.518 311.310253 58.07 311.310253 57.412 310.904253 56.978 310.274253 56.978 309.616253 56.978 309.238253 57.356 309.154253 58.098 309.154253 58.196 309.098253 58.224 309.000253 58.21L307.460253 57.958C307.362253 57.944 307.334253 57.888 307.348253 57.79 307.404253 57.104 307.698253 56.516 308.230253 56.04 308.762253 55.564 309.462253 55.326 310.344253 55.326 311.226253 55.326 311.940253 55.578 312.472253 56.096 313.004253 56.614 313.270253 57.258 313.270253 58.042 313.270253 58.84 312.948253 59.61 312.304253 60.352L309.798253 63.306 309.798253 63.334 313.130253 63.334C313.228253 63.334 313.270253 63.376 313.270253 63.474L313.270253 64.86C313.270253 64.958 313.228253 65 313.130253 65L307.474253 65C307.376253 65 307.334253 64.958 307.334253 64.86zM316.50276 64.86L318.51876 61.178 318.49076 61.15C318.36476 61.206 318.16876 61.234 317.90276 61.234 317.13276 61.234 316.48876 60.968 315.95676 60.45 315.43876 59.918 315.17276 59.218 315.17276 58.364 315.17276 57.426 315.46676 56.698 316.06876 56.152 316.67076 55.606 317.44076 55.326 318.36476 55.326 319.30276 55.326 320.05876 55.592 320.66076 56.138 321.26276 56.684 321.55676 57.412 321.55676 58.322 321.55676 59.036 321.31876 59.82 320.85676 60.674L318.54676 64.902C318.51876 64.972 318.46276 65 318.37876 65L316.60076 65C316.48876 65 316.46076 64.958 316.50276 64.86zM317.44076 59.26C317.67876 59.498 317.98676 59.624 318.36476 59.624 318.74276 59.624 319.05076 59.498 319.27476 59.26 319.51276 59.008 319.62476 58.686 319.62476 58.294 319.62476 57.902 319.51276 57.58 319.27476 57.342 319.05076 57.104 318.74276 56.978 318.36476 56.978 317.98676 56.978 317.67876 57.104 317.44076 57.342 317.21676 57.58 317.10476 57.902 317.10476 58.294 317.10476 58.686 317.21676 59.008 317.44076 59.26zM325.923267 64.86L325.923267 57.692 325.895267 57.692 324.383267 58.728C324.285267 58.798 324.229267 58.77 324.229267 58.644L324.229267 56.908C324.229267 56.838 324.257267 56.768 324.327267 56.712L325.923267 55.564C325.993267 55.508 326.077267 55.48 326.175267 55.48L327.743267 55.48C327.841267 55.48 327.883267 55.522 327.883267 55.62L327.883267 64.86C327.883267 64.958 327.841267 65 327.743267 65L326.063267 65C325.965267 65 325.923267 64.958 325.923267 64.86zM23.876 26.132C22.928 26.132 22.172 25.856 21.596 25.316 21.032 24.764 20.744 23.996 20.744 23L20.744 17.96C20.744 17.876 20.78 17.84 20.864 17.84L22.388 17.84C22.472 17.84 22.508 17.876 22.508 17.96L22.508 23.048C22.508 24.008 23.048 24.572 23.876 24.572 24.704 24.572 25.232 24.008 25.232 23.048L25.232 17.96C25.232 17.876 25.268 17.84 25.352 17.84L26.876 17.84C26.96 17.84 26.996 17.876 26.996 17.96L26.996 23C26.996 23.996 26.708 24.764 26.132 25.316 25.568 25.856 24.812 26.132 23.876 26.132zM31.5907202 26.132C30.9787202 26.132 30.3787202 26.024 29.8027202 25.82 29.2267202 25.604 28.7707202 25.34 28.4467202 25.016 28.3867202 24.956 28.3747202 24.884 28.4347202 24.812L29.3467202 23.768C29.3947202 23.708 29.4547202 23.696 29.5267202 23.756 30.2347202 24.32 30.9427202 24.596 31.6627202 24.596 32.4907202 24.596 32.9947202 24.212 32.9947202 23.624 32.9947202 23.108 32.6587202 22.844 31.7347202 22.712L31.3027202 22.652C29.5867202 22.412 28.7227202 21.596 28.7227202 20.204 28.7227202 19.448 28.9867202 18.848 29.5027202 18.392 30.0307202 17.936 30.7387202 17.708 31.6147202 17.708 32.7307202 17.708 33.6547202 17.996 34.3867202 18.56 34.4587202 18.608 34.4707202 18.668 34.4107202 18.74L33.6787202 19.832C33.6307202 19.892 33.5707202 19.904 33.5107202 19.868 32.8747202 19.448 32.2387202 19.244 31.6147202 19.244 30.9067202 19.244 30.5227202 19.604 30.5227202 20.132 30.5227202 20.612 30.8827202 20.9 31.7947202 21.032L32.2267202 21.092C33.9427202 21.32 34.7947202 22.148 34.7947202 23.564 34.7947202 25.1 33.6427202 26.132 31.5907202 26.132zM36.1374403 25.88L36.1374403 17.96C36.1374403 17.876 36.1734403 17.84 36.2574403 17.84L41.4894403 17.84C41.5734403 17.84 41.6094403 17.876 41.6094403 17.96L41.6094403 19.244C41.6094403 19.328 41.5734403 19.364 41.4894403 19.364L37.9734403 19.364C37.9254403 19.364 37.9014403 19.388 37.9014403 19.436L37.9014403 21.056C37.9014403 21.104 37.9254403 21.128 37.9734403 21.128L40.9014403 21.128C40.9854403 21.128 41.0214403 21.164 41.0214403 21.248L41.0214403 22.52C41.0214403 22.604 40.9854403 22.64 40.9014403 22.64L37.9734403 22.64C37.9254403 22.64 37.9014403 22.664 37.9014403 22.712L37.9014403 24.404C37.9014403 24.452 37.9254403 24.476 37.9734403 24.476L41.4894403 24.476C41.5734403 24.476 41.6094403 24.512 41.6094403 24.596L41.6094403 25.88C41.6094403 25.964 41.5734403 26 41.4894403 26L36.2574403 26C36.1734403 26 36.1374403 25.964 36.1374403 25.88zM49.3721605 26L47.6681605 26C47.5841605 26 47.5241605 25.964 47.4881605 25.88L46.0841605 22.892 44.9921605 22.892C44.9441605 22.892 44.9201605 22.916 44.9201605 22.964L44.9201605 25.88C44.9201605 25.964 44.8841605 26 44.8001605 26L43.2761605 26C43.1921605 26 43.1561605 25.964 43.1561605 25.88L43.1561605 17.96C43.1561605 17.876 43.1921605 17.84 43.2761605 17.84L46.5281605 17.84C47.3561605 17.84 48.0281605 18.08 48.5321605 18.548 49.0481605 19.016 49.3001605 19.616 49.3001605 20.372 49.3001605 21.416 48.7601605 22.244 47.8481605 22.64L49.4561605 25.856C49.4921605 25.916 49.4561605 26 49.3721605 26zM44.9921605 21.392L46.4321605 21.392C47.1041605 21.392 47.5361605 20.996 47.5361605 20.372 47.5361605 19.76 47.1041605 19.364 46.4321605 19.364L44.9921605 19.364C44.9441605 19.364 44.9201605 19.388 44.9201605 19.436L44.9201605 21.32C44.9201605 21.368 44.9441605 21.392 44.9921605 21.392zM53.7148807 26.132C53.1028807 26.132 52.5028807 26.024 51.9268807 25.82 51.3508807 25.604 50.8948807 25.34 50.5708807 25.016 50.5108807 24.956 50.4988807 24.884 50.5588807 24.812L51.4708807 23.768C51.5188807 23.708 51.5788807 23.696 51.6508807 23.756 52.3588807 24.32 53.0668807 24.596 53.7868807 24.596 54.6148807 24.596 55.1188807 24.212 55.1188807 23.624 55.1188807 23.108 54.7828807 22.844 53.8588807 22.712L53.4268807 22.652C51.7108807 22.412 50.8468807 21.596 50.8468807 20.204 50.8468807 19.448 51.1108807 18.848 51.6268807 18.392 52.1548807 17.936 52.8628807 17.708 53.7388807 17.708 54.8548807 17.708 55.7788807 17.996 56.5108807 18.56 56.5828807 18.608 56.5948807 18.668 56.5348807 18.74L55.8028807 19.832C55.7548807 19.892 55.6948807 19.904 55.6348807 19.868 54.9988807 19.448 54.3628807 19.244 53.7388807 19.244 53.0308807 19.244 52.6468807 19.604 52.6468807 20.132 52.6468807 20.612 53.0068807 20.9 53.9188807 21.032L54.3508807 21.092C56.0668807 21.32 56.9188807 22.148 56.9188807 23.564 56.9188807 25.1 55.7668807 26.132 53.7148807 26.132z"/>
  </g>
</svg>
