<svg xmlns="http://www.w3.org/2000/svg" width="310" height="75" viewBox="0 0 310 75">
  <g fill="none" fill-rule="evenodd" transform="translate(-20 -17)">
    <rect width="370" height="108" rx="5"/>
    <path fill="#000306" fill-rule="nonzero" d="M23.876 26.132C22.928 26.132 22.172 25.856 21.596 25.316 21.032 24.764 20.744 23.996 20.744 23L20.744 17.96C20.744 17.876 20.78 17.84 20.864 17.84L22.388 17.84C22.472 17.84 22.508 17.876 22.508 17.96L22.508 23.048C22.508 24.008 23.048 24.572 23.876 24.572 24.704 24.572 25.232 24.008 25.232 23.048L25.232 17.96C25.232 17.876 25.268 17.84 25.352 17.84L26.876 17.84C26.96 17.84 26.996 17.876 26.996 17.96L26.996 23C26.996 23.996 26.708 24.764 26.132 25.316 25.568 25.856 24.812 26.132 23.876 26.132zM28.7587202 25.88L28.7587202 17.96C28.7587202 17.876 28.7947202 17.84 28.8787202 17.84L30.3187202 17.84C30.4027202 17.84 30.4747202 17.876 30.5227202 17.96L33.4027202 23.096 33.4627202 23.096 33.4627202 17.96C33.4627202 17.876 33.4987202 17.84 33.5827202 17.84L34.9387202 17.84C35.0227202 17.84 35.0587202 17.876 35.0587202 17.96L35.0587202 25.88C35.0587202 25.964 35.0227202 26 34.9387202 26L33.5107202 26C33.4267202 26 33.3547202 25.964 33.3067202 25.88L30.4147202 20.756 30.3547202 20.756 30.3547202 25.88C30.3547202 25.964 30.3187202 26 30.2347202 26L28.8787202 26C28.7947202 26 28.7587202 25.964 28.7587202 25.88zM36.8574403 25.88L36.8574403 17.96C36.8574403 17.876 36.8934403 17.84 36.9774403 17.84L38.5014403 17.84C38.5854403 17.84 38.6214403 17.876 38.6214403 17.96L38.6214403 25.88C38.6214403 25.964 38.5854403 26 38.5014403 26L36.9774403 26C36.8934403 26 36.8574403 25.964 36.8574403 25.88zM47.0321605 25.652L46.0721605 26.588C46.0121605 26.648 45.9521605 26.648 45.8921605 26.588L45.0641605 25.76C44.5721605 26.012 44.0201605 26.132 43.4081605 26.132 41.9561605 26.132 40.8521605 25.448 40.4321605 24.152 40.2761605 23.672 40.2041605 22.928 40.2041605 21.92 40.2041605 20.912 40.2761605 20.168 40.4321605 19.688 40.8521605 18.392 41.9561605 17.708 43.4081605 17.708 44.8601605 17.708 45.9641605 18.392 46.3841605 19.688 46.5401605 20.168 46.6121605 20.912 46.6121605 21.92 46.6121605 22.928 46.5401605 23.672 46.3841605 24.152 46.3481605 24.272 46.2761605 24.44 46.1801605 24.644L47.0321605 25.484C47.0921605 25.544 47.0921605 25.592 47.0321605 25.652zM43.4081605 24.584C43.5761605 24.584 43.7201605 24.572 43.8401605 24.536L43.3241605 24.02C43.2641605 23.96 43.2641605 23.912 43.3241605 23.852L44.2841605 22.94C44.3441605 22.88 44.4041605 22.88 44.4641605 22.94L44.7881605 23.264C44.8241605 23.012 44.8361605 22.568 44.8361605 21.92 44.8361605 21.008 44.7881605 20.42 44.7041605 20.156 44.5121605 19.556 44.0801605 19.256 43.4081605 19.256 42.7361605 19.256 42.3041605 19.556 42.1121605 20.156 42.0281605 20.42 41.9801605 21.008 41.9801605 21.92 41.9801605 22.832 42.0281605 23.42 42.1121605 23.684 42.3041605 24.284 42.7361605 24.584 43.4081605 24.584zM51.2908807 26.132C50.3428807 26.132 49.5868807 25.856 49.0108807 25.316 48.4468807 24.764 48.1588807 23.996 48.1588807 23L48.1588807 17.96C48.1588807 17.876 48.1948807 17.84 48.2788807 17.84L49.8028807 17.84C49.8868807 17.84 49.9228807 17.876 49.9228807 17.96L49.9228807 23.048C49.9228807 24.008 50.4628807 24.572 51.2908807 24.572 52.1188807 24.572 52.6468807 24.008 52.6468807 23.048L52.6468807 17.96C52.6468807 17.876 52.6828807 17.84 52.7668807 17.84L54.2908807 17.84C54.3748807 17.84 54.4108807 17.876 54.4108807 17.96L54.4108807 23C54.4108807 23.996 54.1228807 24.764 53.5468807 25.316 52.9828807 25.856 52.2268807 26.132 51.2908807 26.132zM56.1736009 25.88L56.1736009 17.96C56.1736009 17.876 56.2096009 17.84 56.2936009 17.84L61.5256009 17.84C61.6096009 17.84 61.6456009 17.876 61.6456009 17.96L61.6456009 19.244C61.6456009 19.328 61.6096009 19.364 61.5256009 19.364L58.0096009 19.364C57.9616009 19.364 57.9376009 19.388 57.9376009 19.436L57.9376009 21.056C57.9376009 21.104 57.9616009 21.128 58.0096009 21.128L60.9376009 21.128C61.0216009 21.128 61.0576009 21.164 61.0576009 21.248L61.0576009 22.52C61.0576009 22.604 61.0216009 22.64 60.9376009 22.64L58.0096009 22.64C57.9616009 22.64 57.9376009 22.664 57.9376009 22.712L57.9376009 24.404C57.9376009 24.452 57.9616009 24.476 58.0096009 24.476L61.5256009 24.476C61.6096009 24.476 61.6456009 24.512 61.6456009 24.596L61.6456009 25.88C61.6456009 25.964 61.6096009 26 61.5256009 26L56.2936009 26C56.2096009 26 56.1736009 25.964 56.1736009 25.88zM69.4430412 26L68.0510412 26C67.9670412 26 67.9190412 25.964 67.8950412 25.88L65.3030412 17.972C65.2790412 17.888 65.3150412 17.84 65.4110412 17.84L66.9710412 17.84C67.0550412 17.84 67.1030412 17.876 67.1270412 17.96L68.7590412 23.312 68.7950412 23.312 70.3790412 17.96C70.4030412 17.876 70.4510412 17.84 70.5350412 17.84L72.0830412 17.84C72.1670412 17.84 72.2030412 17.888 72.1790412 17.972L69.5870412 25.88C69.5630412 25.964 69.5150412 26 69.4430412 26zM73.2937614 25.88L73.2937614 17.96C73.2937614 17.876 73.3297614 17.84 73.4137614 17.84L74.9377614 17.84C75.0217614 17.84 75.0577614 17.876 75.0577614 17.96L75.0577614 25.88C75.0577614 25.964 75.0217614 26 74.9377614 26L73.4137614 26C73.3297614 26 73.2937614 25.964 73.2937614 25.88zM79.6884816 26.132C79.0764816 26.132 78.4764816 26.024 77.9004816 25.82 77.3244816 25.604 76.8684816 25.34 76.5444816 25.016 76.4844816 24.956 76.4724816 24.884 76.5324816 24.812L77.4444816 23.768C77.4924816 23.708 77.5524816 23.696 77.6244816 23.756 78.3324816 24.32 79.0404816 24.596 79.7604816 24.596 80.5884816 24.596 81.0924816 24.212 81.0924816 23.624 81.0924816 23.108 80.7564816 22.844 79.8324816 22.712L79.4004816 22.652C77.6844816 22.412 76.8204816 21.596 76.8204816 20.204 76.8204816 19.448 77.0844816 18.848 77.6004816 18.392 78.1284816 17.936 78.8364816 17.708 79.7124816 17.708 80.8284816 17.708 81.7524816 17.996 82.4844816 18.56 82.5564816 18.608 82.5684816 18.668 82.5084816 18.74L81.7764816 19.832C81.7284816 19.892 81.6684816 19.904 81.6084816 19.868 80.9724816 19.448 80.3364816 19.244 79.7124816 19.244 79.0044816 19.244 78.6204816 19.604 78.6204816 20.132 78.6204816 20.612 78.9804816 20.9 79.8924816 21.032L80.3244816 21.092C82.0404816 21.32 82.8924816 22.148 82.8924816 23.564 82.8924816 25.1 81.7404816 26.132 79.6884816 26.132zM84.2352017 25.88L84.2352017 17.96C84.2352017 17.876 84.2712017 17.84 84.3552017 17.84L85.8792017 17.84C85.9632017 17.84 85.9992017 17.876 85.9992017 17.96L85.9992017 25.88C85.9992017 25.964 85.9632017 26 85.8792017 26L84.3552017 26C84.2712017 26 84.2352017 25.964 84.2352017 25.88zM91.1219219 26L89.5979219 26C89.5139219 26 89.4779219 25.964 89.4779219 25.88L89.4779219 19.484C89.4779219 19.436 89.4539219 19.412 89.4059219 19.412L87.3419219 19.412C87.2579219 19.412 87.2219219 19.376 87.2219219 19.292L87.2219219 17.96C87.2219219 17.876 87.2579219 17.84 87.3419219 17.84L93.3779219 17.84C93.4619219 17.84 93.4979219 17.876 93.4979219 17.96L93.4979219 19.292C93.4979219 19.376 93.4619219 19.412 93.3779219 19.412L91.3139219 19.412C91.2659219 19.412 91.2419219 19.436 91.2419219 19.484L91.2419219 25.88C91.2419219 25.964 91.2059219 26 91.1219219 26zM94.7326421 24.152C94.5766421 23.672 94.5046421 22.928 94.5046421 21.92 94.5046421 20.912 94.5766421 20.168 94.7326421 19.688 95.1526421 18.392 96.2566421 17.708 97.7086421 17.708 99.1606421 17.708 100.264642 18.392 100.684642 19.688 100.840642 20.168 100.912642 20.912 100.912642 21.92 100.912642 22.928 100.840642 23.672 100.684642 24.152 100.264642 25.448 99.1606421 26.132 97.7086421 26.132 96.2566421 26.132 95.1526421 25.448 94.7326421 24.152zM98.9926421 23.672C99.0766421 23.408 99.1246421 22.82 99.1246421 21.92 99.1246421 21.02 99.0766421 20.432 98.9926421 20.168 98.8006421 19.568 98.3686421 19.268 97.7086421 19.268 97.0486421 19.268 96.6166421 19.568 96.4246421 20.168 96.3406421 20.432 96.2926421 21.02 96.2926421 21.92 96.2926421 22.82 96.3406421 23.408 96.4246421 23.672 96.6166421 24.272 97.0486421 24.572 97.7086421 24.572 98.3686421 24.572 98.8006421 24.272 98.9926421 23.672zM108.711362 26L107.007362 26C106.923362 26 106.863362 25.964 106.827362 25.88L105.423362 22.892 104.331362 22.892C104.283362 22.892 104.259362 22.916 104.259362 22.964L104.259362 25.88C104.259362 25.964 104.223362 26 104.139362 26L102.615362 26C102.531362 26 102.495362 25.964 102.495362 25.88L102.495362 17.96C102.495362 17.876 102.531362 17.84 102.615362 17.84L105.867362 17.84C106.695362 17.84 107.367362 18.08 107.871362 18.548 108.387362 19.016 108.639362 19.616 108.639362 20.372 108.639362 21.416 108.099362 22.244 107.187362 22.64L108.795362 25.856C108.831362 25.916 108.795362 26 108.711362 26zM104.331362 21.392L105.771362 21.392C106.443362 21.392 106.875362 20.996 106.875362 20.372 106.875362 19.76 106.443362 19.364 105.771362 19.364L104.331362 19.364C104.283362 19.364 104.259362 19.388 104.259362 19.436L104.259362 21.32C104.259362 21.368 104.283362 21.392 104.331362 21.392zM113.054082 26.132C112.442082 26.132 111.842082 26.024 111.266082 25.82 110.690082 25.604 110.234082 25.34 109.910082 25.016 109.850082 24.956 109.838082 24.884 109.898082 24.812L110.810082 23.768C110.858082 23.708 110.918082 23.696 110.990082 23.756 111.698082 24.32 112.406082 24.596 113.126082 24.596 113.954082 24.596 114.458082 24.212 114.458082 23.624 114.458082 23.108 114.122082 22.844 113.198082 22.712L112.766082 22.652C111.050082 22.412 110.186082 21.596 110.186082 20.204 110.186082 19.448 110.450082 18.848 110.966082 18.392 111.494082 17.936 112.202082 17.708 113.078082 17.708 114.194082 17.708 115.118082 17.996 115.850082 18.56 115.922082 18.608 115.934082 18.668 115.874082 18.74L115.142082 19.832C115.094082 19.892 115.034082 19.904 114.974082 19.868 114.338082 19.448 113.702082 19.244 113.078082 19.244 112.370082 19.244 111.986082 19.604 111.986082 20.132 111.986082 20.612 112.346082 20.9 113.258082 21.032L113.690082 21.092C115.406082 21.32 116.258082 22.148 116.258082 23.564 116.258082 25.1 115.106082 26.132 113.054082 26.132zM46.2182397 62.97C46.2042397 62.872 46.2322397 62.816 46.3302397 62.788L47.8702397 62.494C47.9542397 62.48 48.0102397 62.522 48.0382397 62.606 48.2342397 63.208 48.6542397 63.502 49.2842397 63.502 49.9982397 63.502 50.4602397 62.998 50.4602397 62.27 50.4602397 61.43 49.9562397 60.926 49.1302397 60.926L48.7242397 60.926C48.6262397 60.926 48.5842397 60.884 48.5842397 60.786L48.5842397 59.428C48.5842397 59.33 48.6262397 59.288 48.7242397 59.288L49.1022397 59.288C49.8162397 59.288 50.2782397 58.826 50.2782397 58.098 50.2782397 57.426 49.8722397 56.978 49.2002397 56.978 48.6402397 56.978 48.2762397 57.272 48.1222397 57.86 48.0942397 57.944 48.0382397 57.972 47.9542397 57.958L46.4282397 57.664C46.3302397 57.65 46.3022397 57.594 46.3162397 57.51 46.5402397 56.208 47.6602397 55.326 49.2982397 55.326 51.1322397 55.326 52.2382397 56.39 52.2382397 57.958 52.2382397 58.798 51.8882397 59.456 51.1742397 59.918L51.1742397 59.946C51.8462397 60.268 52.4202397 61.094 52.4202397 62.256 52.4202397 63.11 52.1262397 63.81 51.5382397 64.356 50.9642397 64.888 50.2222397 65.154 49.3122397 65.154 47.6742397 65.154 46.4842397 64.328 46.2182397 62.97zM54.3927466 64.86L54.3927466 63.558C54.3927466 63.488 54.4207466 63.418 54.4627466 63.362L57.8087466 59.386C58.1867466 58.952 58.3687466 58.518 58.3687466 58.07 58.3687466 57.412 57.9627466 56.978 57.3327466 56.978 56.6747466 56.978 56.2967466 57.356 56.2127466 58.098 56.2127466 58.196 56.1567466 58.224 56.0587466 58.21L54.5187466 57.958C54.4207466 57.944 54.3927466 57.888 54.4067466 57.79 54.4627466 57.104 54.7567466 56.516 55.2887466 56.04 55.8207466 55.564 56.5207466 55.326 57.4027466 55.326 58.2847466 55.326 58.9987466 55.578 59.5307466 56.096 60.0627466 56.614 60.3287466 57.258 60.3287466 58.042 60.3287466 58.84 60.0067466 59.61 59.3627466 60.352L56.8567466 63.306 56.8567466 63.334 60.1887466 63.334C60.2867466 63.334 60.3287466 63.376 60.3287466 63.474L60.3287466 64.86C60.3287466 64.958 60.2867466 65 60.1887466 65L54.5327466 65C54.4347466 65 54.3927466 64.958 54.3927466 64.86zM65.9552534 63.614L62.2452534 63.614C62.1472534 63.614 62.1052534 63.572 62.1052534 63.474L62.1052534 62.046C62.1052534 61.976 62.1192534 61.92 62.1332534 61.878L64.9892534 55.592C65.0312534 55.522 65.0872534 55.48 65.1852534 55.48L66.9632534 55.48C67.0612534 55.48 67.0892534 55.522 67.0612534 55.62L64.2052534 61.878 64.2052534 61.92 65.9552534 61.92C66.0112534 61.92 66.0392534 61.892 66.0392534 61.836L66.0392534 59.778C66.0392534 59.68 66.0812534 59.638 66.1792534 59.638L67.8032534 59.638C67.9012534 59.638 67.9432534 59.68 67.9432534 59.778L67.9432534 61.836C67.9432534 61.892 67.9712534 61.92 68.0272534 61.92L68.6572534 61.92C68.7552534 61.92 68.7972534 61.962 68.7972534 62.06L68.7972534 63.474C68.7972534 63.572 68.7552534 63.614 68.6572534 63.614L68.0272534 63.614C67.9712534 63.614 67.9432534 63.642 67.9432534 63.698L67.9432534 64.86C67.9432534 64.958 67.9012534 65 67.8032534 65L66.1792534 65C66.0812534 65 66.0392534 64.958 66.0392534 64.86L66.0392534 63.698C66.0392534 63.642 66.0112534 63.614 65.9552534 63.614z"/>
    <path fill="#8792A2" fill-rule="nonzero" d="M46.7432397 88.86L46.7432397 79.62C46.7432397 79.522 46.7852397 79.48 46.8832397 79.48L50.2852397 79.48C51.9512397 79.48 53.0012397 80.18 53.4632397 81.594 53.6172397 82.084 53.7012397 82.966 53.7012397 84.24 53.7012397 85.514 53.6172397 86.396 53.4632397 86.886 53.0012397 88.3 51.9512397 89 50.2852397 89L46.8832397 89C46.7852397 89 46.7432397 88.958 46.7432397 88.86zM48.3952397 81.048L48.3952397 87.432C48.3952397 87.488 48.4232397 87.516 48.4792397 87.516L49.8932397 87.516C50.9432397 87.516 51.6012397 87.11 51.8672397 86.312 51.9792397 86.004 52.0352397 85.318 52.0352397 84.24 52.0352397 83.162 51.9792397 82.476 51.8672397 82.168 51.6012397 81.37 50.9432397 80.964 49.8932397 80.964L48.4792397 80.964C48.4232397 80.964 48.3952397 80.992 48.3952397 81.048zM60.9377466 89L59.7617466 89C59.6637466 89 59.6217466 88.958 59.6217466 88.86L59.6217466 88.37 59.6077466 88.37C59.2437466 88.888 58.6137466 89.154 57.7037466 89.154 56.4017466 89.154 55.4357466 88.44 55.4357466 87.096 55.4357466 85.654 56.4157466 84.954 58.1377466 84.954L59.5097466 84.954C59.5657466 84.954 59.5937466 84.926 59.5937466 84.87L59.5937466 84.548C59.5937466 83.764 59.2017466 83.428 58.0957466 83.428 57.4657466 83.428 56.9477466 83.582 56.5557466 83.89 56.4717466 83.96 56.4017466 83.946 56.3597466 83.862L55.8417466 82.938C55.7997466 82.868 55.7997466 82.798 55.8697466 82.756 56.4717466 82.322 57.2697466 82.098 58.2637466 82.098 60.2937466 82.098 61.0777466 82.784 61.0777466 84.45L61.0777466 88.86C61.0777466 88.958 61.0357466 89 60.9377466 89zM58.0957466 87.88C59.0897466 87.88 59.5937466 87.502 59.5937466 86.732L59.5937466 86.214C59.5937466 86.158 59.5657466 86.13 59.5097466 86.13L58.3897466 86.13C57.4237466 86.13 56.9337466 86.438 56.9337466 87.04 56.9337466 87.6 57.3257466 87.88 58.0957466 87.88zM63.9742534 91.52L63.5402534 91.52C63.4422534 91.52 63.4002534 91.478 63.4002534 91.38L63.4002534 90.26C63.4002534 90.162 63.4422534 90.12 63.5402534 90.12L63.7922534 90.12C64.3102534 90.12 64.5902534 89.896 64.8002534 89.322L64.9962534 88.748 62.5322534 82.392C62.5042534 82.294 62.5462534 82.252 62.6442534 82.252L64.0302534 82.252C64.1142534 82.252 64.1702534 82.294 64.1982534 82.392L65.7242534 86.802 65.7522534 86.802 67.2082534 82.392C67.2362534 82.294 67.2922534 82.252 67.3762534 82.252L68.7062534 82.252C68.8042534 82.252 68.8462534 82.294 68.8182534 82.392L66.2422534 89.42C65.9482534 90.218 65.6402534 90.764 65.3042534 91.058 64.9822534 91.366 64.5342534 91.52 63.9742534 91.52zM126.095986 89L125.031986 89C124.947986 89 124.891986 88.958 124.863986 88.86L123.043986 82.35 123.015986 82.35 121.181986 88.86C121.153986 88.958 121.097986 89 121.013986 89L119.963986 89C119.879986 89 119.823986 88.958 119.795986 88.86L117.457986 79.62C117.443986 79.522 117.471986 79.48 117.569986 79.48L118.885986 79.48C118.983986 79.48 119.039986 79.522 119.053986 79.62L120.565986 86.032 120.593986 86.032 122.371986 79.62C122.399986 79.522 122.455986 79.48 122.539986 79.48L123.519986 79.48C123.603986 79.48 123.659986 79.522 123.687986 79.62L125.507986 86.032 125.535986 86.032 127.005986 79.62C127.019986 79.522 127.075986 79.48 127.173986 79.48L128.475986 79.48C128.573986 79.48 128.601986 79.522 128.587986 79.62L126.263986 88.86C126.249986 88.958 126.193986 89 126.095986 89zM132.772493 89.154C131.358493 89.154 130.336493 88.454 129.958493 87.278 129.804493 86.788 129.720493 86.228 129.720493 85.626 129.720493 84.982 129.790493 84.422 129.944493 83.96 130.322493 82.784 131.358493 82.098 132.702493 82.098 134.088493 82.098 135.096493 82.798 135.474493 83.96 135.628493 84.422 135.698493 85.094 135.698493 85.99 135.698493 86.088 135.642493 86.13 135.544493 86.13L131.386493 86.13C131.330493 86.13 131.302493 86.158 131.302493 86.214 131.302493 86.382 131.330493 86.55 131.400493 86.732 131.638493 87.418 132.142493 87.754 132.912493 87.754 133.570493 87.754 134.102493 87.544 134.494493 87.11 134.564493 87.04 134.634493 87.026 134.704493 87.082L135.530493 87.81C135.600493 87.866 135.600493 87.936 135.544493 88.006 134.886493 88.776 133.962493 89.154 132.772493 89.154zM134.116493 84.87C134.116493 84.66 134.088493 84.464 134.032493 84.296 133.850493 83.75 133.346493 83.428 132.716493 83.428 132.030493 83.428 131.582493 83.722 131.386493 84.296 131.330493 84.464 131.302493 84.66 131.302493 84.87 131.302493 84.926 131.330493 84.954 131.386493 84.954L134.032493 84.954C134.088493 84.954 134.116493 84.926 134.116493 84.87zM140.345 89.154C138.931 89.154 137.909 88.454 137.531 87.278 137.377 86.788 137.293 86.228 137.293 85.626 137.293 84.982 137.363 84.422 137.517 83.96 137.895 82.784 138.931 82.098 140.275 82.098 141.661 82.098 142.669 82.798 143.047 83.96 143.201 84.422 143.271 85.094 143.271 85.99 143.271 86.088 143.215 86.13 143.117 86.13L138.959 86.13C138.903 86.13 138.875 86.158 138.875 86.214 138.875 86.382 138.903 86.55 138.973 86.732 139.211 87.418 139.715 87.754 140.485 87.754 141.143 87.754 141.675 87.544 142.067 87.11 142.137 87.04 142.207 87.026 142.277 87.082L143.103 87.81C143.173 87.866 143.173 87.936 143.117 88.006 142.459 88.776 141.535 89.154 140.345 89.154zM141.689 84.87C141.689 84.66 141.661 84.464 141.605 84.296 141.423 83.75 140.919 83.428 140.289 83.428 139.603 83.428 139.155 83.722 138.959 84.296 138.903 84.464 138.875 84.66 138.875 84.87 138.875 84.926 138.903 84.954 138.959 84.954L141.605 84.954C141.661 84.954 141.689 84.926 141.689 84.87zM151.109507 89L149.639507 89C149.541507 89 149.471507 88.958 149.415507 88.86L147.707507 86.032 146.797507 87.082 146.797507 88.86C146.797507 88.958 146.755507 89 146.657507 89L145.369507 89C145.271507 89 145.229507 88.958 145.229507 88.86L145.229507 79.62C145.229507 79.522 145.271507 79.48 145.369507 79.48L146.657507 79.48C146.755507 79.48 146.797507 79.522 146.797507 79.62L146.797507 85.108 149.107507 82.392C149.191507 82.294 149.275507 82.252 149.373507 82.252L150.801507 82.252C150.871507 82.252 150.913507 82.336 150.857507 82.392L148.715507 84.856 151.179507 88.86C151.207507 88.916 151.193507 89 151.109507 89zM195.981733 88.86L195.981733 79.62C195.981733 79.522 196.023733 79.48 196.121733 79.48L197.367733 79.48C197.493733 79.48 197.563733 79.522 197.605733 79.62L200.223733 85.486 200.279733 85.486 202.855733 79.62C202.897733 79.522 202.967733 79.48 203.093733 79.48L204.325733 79.48C204.423733 79.48 204.465733 79.522 204.465733 79.62L204.465733 88.86C204.465733 88.958 204.423733 89 204.325733 89L203.107733 89C203.009733 89 202.967733 88.958 202.967733 88.86L202.967733 83.036 202.911733 83.036 200.895733 87.516C200.839733 87.642 200.755733 87.698 200.629733 87.698L199.817733 87.698C199.691733 87.698 199.607733 87.642 199.551733 87.516L197.535733 83.036 197.479733 83.036 197.479733 88.86C197.479733 88.958 197.437733 89 197.339733 89L196.121733 89C196.023733 89 195.981733 88.958 195.981733 88.86zM209.46224 89.154C208.07624 89.154 207.05424 88.468 206.67624 87.292 206.52224 86.83 206.45224 86.284 206.45224 85.626 206.45224 84.968 206.52224 84.422 206.67624 83.96 207.05424 82.784 208.07624 82.098 209.46224 82.098 210.82024 82.098 211.85624 82.784 212.23424 83.96 212.38824 84.422 212.45824 84.968 212.45824 85.626 212.45824 86.284 212.38824 86.83 212.23424 87.292 211.85624 88.468 210.82024 89.154 209.46224 89.154zM209.46224 87.754C210.09224 87.754 210.51224 87.46 210.72224 86.872 210.82024 86.578 210.86224 86.172 210.86224 85.626 210.86224 85.094 210.82024 84.674 210.72224 84.38 210.51224 83.792 210.09224 83.498 209.46224 83.498 208.81824 83.498 208.39824 83.792 208.18824 84.38 208.09024 84.674 208.04824 85.094 208.04824 85.626 208.04824 86.172 208.09024 86.578 208.18824 86.872 208.39824 87.46 208.81824 87.754 209.46224 87.754zM219.974747 89L218.686747 89C218.588747 89 218.546747 88.958 218.546747 88.86L218.546747 84.968C218.546747 84.072 218.098747 83.498 217.272747 83.498 216.474747 83.498 215.984747 84.086 215.984747 84.968L215.984747 88.86C215.984747 88.958 215.942747 89 215.844747 89L214.556747 89C214.458747 89 214.416747 88.958 214.416747 88.86L214.416747 82.392C214.416747 82.294 214.458747 82.252 214.556747 82.252L215.844747 82.252C215.942747 82.252 215.984747 82.294 215.984747 82.392L215.984747 82.882 215.998747 82.882C216.362747 82.364 216.950747 82.098 217.776747 82.098 219.190747 82.098 220.114747 83.134 220.114747 84.604L220.114747 88.86C220.114747 88.958 220.072747 89 219.974747 89zM225.013253 89.084L224.341253 89.084C223.011253 89.084 222.465253 88.454 222.465253 87.11L222.465253 83.554C222.465253 83.498 222.437253 83.47 222.381253 83.47L221.933253 83.47C221.835253 83.47 221.793253 83.428 221.793253 83.33L221.793253 82.392C221.793253 82.294 221.835253 82.252 221.933253 82.252L222.381253 82.252C222.437253 82.252 222.465253 82.224 222.465253 82.168L222.465253 80.32C222.465253 80.222 222.507253 80.18 222.605253 80.18L223.893253 80.18C223.991253 80.18 224.033253 80.222 224.033253 80.32L224.033253 82.168C224.033253 82.224 224.061253 82.252 224.117253 82.252L225.013253 82.252C225.111253 82.252 225.153253 82.294 225.153253 82.392L225.153253 83.33C225.153253 83.428 225.111253 83.47 225.013253 83.47L224.117253 83.47C224.061253 83.47 224.033253 83.498 224.033253 83.554L224.033253 87.054C224.033253 87.516 224.215253 87.684 224.663253 87.684L225.013253 87.684C225.111253 87.684 225.153253 87.726 225.153253 87.824L225.153253 88.944C225.153253 89.042 225.111253 89.084 225.013253 89.084zM232.69776 89L231.40976 89C231.31176 89 231.26976 88.958 231.26976 88.86L231.26976 84.968C231.26976 84.072 230.82176 83.498 229.99576 83.498 229.19776 83.498 228.70776 84.086 228.70776 84.968L228.70776 88.86C228.70776 88.958 228.66576 89 228.56776 89L227.27976 89C227.18176 89 227.13976 88.958 227.13976 88.86L227.13976 79.62C227.13976 79.522 227.18176 79.48 227.27976 79.48L228.56776 79.48C228.66576 79.48 228.70776 79.522 228.70776 79.62L228.70776 82.882 228.72176 82.882C229.08576 82.364 229.67376 82.098 230.49976 82.098 231.91376 82.098 232.83776 83.134 232.83776 84.604L232.83776 88.86C232.83776 88.958 232.79576 89 232.69776 89zM278.549973 88.86L281.811973 79.62C281.839973 79.522 281.895973 79.48 281.993973 79.48L283.281973 79.48C283.379973 79.48 283.435973 79.522 283.463973 79.62L286.683973 88.86C286.711973 88.958 286.683973 89 286.585973 89L285.213973 89C285.115973 89 285.059973 88.958 285.031973 88.86L284.401973 87.012 280.817973 87.012 280.187973 88.86C280.159973 88.958 280.103973 89 280.005973 89L278.647973 89C278.549973 89 278.521973 88.958 278.549973 88.86zM282.595973 81.846L281.321973 85.542 283.897973 85.542 282.637973 81.846 282.595973 81.846zM290.588479 89.084L289.972479 89.084C288.670479 89.084 288.124479 88.482 288.124479 87.152L288.124479 79.62C288.124479 79.522 288.166479 79.48 288.264479 79.48L289.552479 79.48C289.650479 79.48 289.692479 79.522 289.692479 79.62L289.692479 87.068C289.692479 87.516 289.874479 87.684 290.280479 87.684L290.588479 87.684C290.686479 87.684 290.728479 87.726 290.728479 87.824L290.728479 88.944C290.728479 89.042 290.686479 89.084 290.588479 89.084zM294.898986 89.084L294.282986 89.084C292.980986 89.084 292.434986 88.482 292.434986 87.152L292.434986 79.62C292.434986 79.522 292.476986 79.48 292.574986 79.48L293.862986 79.48C293.960986 79.48 294.002986 79.522 294.002986 79.62L294.002986 87.068C294.002986 87.516 294.184986 87.684 294.590986 87.684L294.898986 87.684C294.996986 87.684 295.038986 87.726 295.038986 87.824L295.038986 88.944C295.038986 89.042 294.996986 89.084 294.898986 89.084zM303.758 89L302.386 89C302.288 89 302.246 88.958 302.246 88.86L302.246 81.048C302.246 80.992 302.218 80.964 302.162 80.964L299.67 80.964C299.572 80.964 299.53 80.922 299.53 80.824L299.53 79.62C299.53 79.522 299.572 79.48 299.67 79.48L306.474 79.48C306.572 79.48 306.614 79.522 306.614 79.62L306.614 80.824C306.614 80.922 306.572 80.964 306.474 80.964L303.982 80.964C303.926 80.964 303.898 80.992 303.898 81.048L303.898 88.86C303.898 88.958 303.856 89 303.758 89zM309.650507 80.978L308.362507 80.978C308.264507 80.978 308.222507 80.936 308.222507 80.838L308.222507 79.62C308.222507 79.522 308.264507 79.48 308.362507 79.48L309.650507 79.48C309.748507 79.48 309.790507 79.522 309.790507 79.62L309.790507 80.838C309.790507 80.936 309.748507 80.978 309.650507 80.978zM309.650507 89L308.362507 89C308.264507 89 308.222507 88.958 308.222507 88.86L308.222507 82.392C308.222507 82.294 308.264507 82.252 308.362507 82.252L309.650507 82.252C309.748507 82.252 309.790507 82.294 309.790507 82.392L309.790507 88.86C309.790507 88.958 309.748507 89 309.650507 89zM321.801014 89L320.513014 89C320.415014 89 320.373014 88.958 320.373014 88.86L320.373014 84.968C320.373014 84.072 319.925014 83.498 319.099014 83.498 318.301014 83.498 317.811014 84.086 317.811014 84.968L317.811014 88.86C317.811014 88.958 317.769014 89 317.671014 89L316.383014 89C316.285014 89 316.243014 88.958 316.243014 88.86L316.243014 84.968C316.243014 84.072 315.795014 83.498 314.969014 83.498 314.171014 83.498 313.681014 84.086 313.681014 84.968L313.681014 88.86C313.681014 88.958 313.639014 89 313.541014 89L312.253014 89C312.155014 89 312.113014 88.958 312.113014 88.86L312.113014 82.392C312.113014 82.294 312.155014 82.252 312.253014 82.252L313.541014 82.252C313.639014 82.252 313.681014 82.294 313.681014 82.392L313.681014 82.882 313.695014 82.882C314.059014 82.364 314.647014 82.098 315.473014 82.098 316.285014 82.098 316.901014 82.392 317.321014 82.994L317.335014 82.994C317.881014 82.392 318.609014 82.098 319.491014 82.098 321.017014 82.098 321.941014 83.134 321.941014 84.604L321.941014 88.86C321.941014 88.958 321.899014 89 321.801014 89zM326.881521 89.154C325.467521 89.154 324.445521 88.454 324.067521 87.278 323.913521 86.788 323.829521 86.228 323.829521 85.626 323.829521 84.982 323.899521 84.422 324.053521 83.96 324.431521 82.784 325.467521 82.098 326.811521 82.098 328.197521 82.098 329.205521 82.798 329.583521 83.96 329.737521 84.422 329.807521 85.094 329.807521 85.99 329.807521 86.088 329.751521 86.13 329.653521 86.13L325.495521 86.13C325.439521 86.13 325.411521 86.158 325.411521 86.214 325.411521 86.382 325.439521 86.55 325.509521 86.732 325.747521 87.418 326.251521 87.754 327.021521 87.754 327.679521 87.754 328.211521 87.544 328.603521 87.11 328.673521 87.04 328.743521 87.026 328.813521 87.082L329.639521 87.81C329.709521 87.866 329.709521 87.936 329.653521 88.006 328.995521 88.776 328.071521 89.154 326.881521 89.154zM328.225521 84.87C328.225521 84.66 328.197521 84.464 328.141521 84.296 327.959521 83.75 327.455521 83.428 326.825521 83.428 326.139521 83.428 325.691521 83.722 325.495521 84.296 325.439521 84.464 325.411521 84.66 325.411521 84.87 325.411521 84.926 325.439521 84.954 325.495521 84.954L328.141521 84.954C328.197521 84.954 328.225521 84.926 328.225521 84.87z"/>
    <path fill="#000306" fill-rule="nonzero" d="M117.388733 64.86L117.388733 63.558C117.388733 63.488 117.416733 63.418 117.458733 63.362L120.804733 59.386C121.182733 58.952 121.364733 58.518 121.364733 58.07 121.364733 57.412 120.958733 56.978 120.328733 56.978 119.670733 56.978 119.292733 57.356 119.208733 58.098 119.208733 58.196 119.152733 58.224 119.054733 58.21L117.514733 57.958C117.416733 57.944 117.388733 57.888 117.402733 57.79 117.458733 57.104 117.752733 56.516 118.284733 56.04 118.816733 55.564 119.516733 55.326 120.398733 55.326 121.280733 55.326 121.994733 55.578 122.526733 56.096 123.058733 56.614 123.324733 57.258 123.324733 58.042 123.324733 58.84 123.002733 59.61 122.358733 60.352L119.852733 63.306 119.852733 63.334 123.184733 63.334C123.282733 63.334 123.324733 63.376 123.324733 63.474L123.324733 64.86C123.324733 64.958 123.282733 65 123.184733 65L117.528733 65C117.430733 65 117.388733 64.958 117.388733 64.86zM125.36724 66.358L125.36724 63.18C125.36724 63.082 125.40924 63.04 125.50724 63.04L127.08924 63.04C127.18724 63.04 127.22924 63.082 127.22924 63.18L127.22924 64.874C127.22924 64.972 127.18724 65.07 127.10324 65.154L125.71724 66.414C125.64724 66.484 125.57724 66.512 125.50724 66.512 125.40924 66.512 125.36724 66.456 125.36724 66.358zM131.735747 64.86L131.735747 57.692 131.707747 57.692 130.195747 58.728C130.097747 58.798 130.041747 58.77 130.041747 58.644L130.041747 56.908C130.041747 56.838 130.069747 56.768 130.139747 56.712L131.735747 55.564C131.805747 55.508 131.889747 55.48 131.987747 55.48L133.555747 55.48C133.653747 55.48 133.695747 55.522 133.695747 55.62L133.695747 64.86C133.695747 64.958 133.653747 65 133.555747 65L131.875747 65C131.777747 65 131.735747 64.958 131.735747 64.86zM138.440253 64.86L140.456253 61.178 140.428253 61.15C140.302253 61.206 140.106253 61.234 139.840253 61.234 139.070253 61.234 138.426253 60.968 137.894253 60.45 137.376253 59.918 137.110253 59.218 137.110253 58.364 137.110253 57.426 137.404253 56.698 138.006253 56.152 138.608253 55.606 139.378253 55.326 140.302253 55.326 141.240253 55.326 141.996253 55.592 142.598253 56.138 143.200253 56.684 143.494253 57.412 143.494253 58.322 143.494253 59.036 143.256253 59.82 142.794253 60.674L140.484253 64.902C140.456253 64.972 140.400253 65 140.316253 65L138.538253 65C138.426253 65 138.398253 64.958 138.440253 64.86zM139.378253 59.26C139.616253 59.498 139.924253 59.624 140.302253 59.624 140.680253 59.624 140.988253 59.498 141.212253 59.26 141.450253 59.008 141.562253 58.686 141.562253 58.294 141.562253 57.902 141.450253 57.58 141.212253 57.342 140.988253 57.104 140.680253 56.978 140.302253 56.978 139.924253 56.978 139.616253 57.104 139.378253 57.342 139.154253 57.58 139.042253 57.902 139.042253 58.294 139.042253 58.686 139.154253 59.008 139.378253 59.26zM145.39676 64.86L145.39676 63.558C145.39676 63.488 145.42476 63.418 145.46676 63.362L148.81276 59.386C149.19076 58.952 149.37276 58.518 149.37276 58.07 149.37276 57.412 148.96676 56.978 148.33676 56.978 147.67876 56.978 147.30076 57.356 147.21676 58.098 147.21676 58.196 147.16076 58.224 147.06276 58.21L145.52276 57.958C145.42476 57.944 145.39676 57.888 145.41076 57.79 145.46676 57.104 145.76076 56.516 146.29276 56.04 146.82476 55.564 147.52476 55.326 148.40676 55.326 149.28876 55.326 150.00276 55.578 150.53476 56.096 151.06676 56.614 151.33276 57.258 151.33276 58.042 151.33276 58.84 151.01076 59.61 150.36676 60.352L147.86076 63.306 147.86076 63.334 151.19276 63.334C151.29076 63.334 151.33276 63.376 151.33276 63.474L151.33276 64.86C151.33276 64.958 151.29076 65 151.19276 65L145.53676 65C145.43876 65 145.39676 64.958 145.39676 64.86zM196.821479 64.86L196.821479 57.692 196.793479 57.692 195.281479 58.728C195.183479 58.798 195.127479 58.77 195.127479 58.644L195.127479 56.908C195.127479 56.838 195.155479 56.768 195.225479 56.712L196.821479 55.564C196.891479 55.508 196.975479 55.48 197.073479 55.48L198.641479 55.48C198.739479 55.48 198.781479 55.522 198.781479 55.62L198.781479 64.86C198.781479 64.958 198.739479 65 198.641479 65L196.961479 65C196.863479 65 196.821479 64.958 196.821479 64.86zM202.419986 64.86L202.419986 63.558C202.419986 63.488 202.447986 63.418 202.489986 63.362L205.835986 59.386C206.213986 58.952 206.395986 58.518 206.395986 58.07 206.395986 57.412 205.989986 56.978 205.359986 56.978 204.701986 56.978 204.323986 57.356 204.239986 58.098 204.239986 58.196 204.183986 58.224 204.085986 58.21L202.545986 57.958C202.447986 57.944 202.419986 57.888 202.433986 57.79 202.489986 57.104 202.783986 56.516 203.315986 56.04 203.847986 55.564 204.547986 55.326 205.429986 55.326 206.311986 55.326 207.025986 55.578 207.557986 56.096 208.089986 56.614 208.355986 57.258 208.355986 58.042 208.355986 58.84 208.033986 59.61 207.389986 60.352L204.883986 63.306 204.883986 63.334 208.215986 63.334C208.313986 63.334 208.355986 63.376 208.355986 63.474L208.355986 64.86C208.355986 64.958 208.313986 65 208.215986 65L202.559986 65C202.461986 65 202.419986 64.958 202.419986 64.86zM210.398493 66.358L210.398493 63.18C210.398493 63.082 210.440493 63.04 210.538493 63.04L212.120493 63.04C212.218493 63.04 212.260493 63.082 212.260493 63.18L212.260493 64.874C212.260493 64.972 212.218493 65.07 212.134493 65.154L210.748493 66.414C210.678493 66.484 210.608493 66.512 210.538493 66.512 210.440493 66.512 210.398493 66.456 210.398493 66.358zM217.803 63.614L214.093 63.614C213.995 63.614 213.953 63.572 213.953 63.474L213.953 62.046C213.953 61.976 213.967 61.92 213.981 61.878L216.837 55.592C216.879 55.522 216.935 55.48 217.033 55.48L218.811 55.48C218.909 55.48 218.937 55.522 218.909 55.62L216.053 61.878 216.053 61.92 217.803 61.92C217.859 61.92 217.887 61.892 217.887 61.836L217.887 59.778C217.887 59.68 217.929 59.638 218.027 59.638L219.651 59.638C219.749 59.638 219.791 59.68 219.791 59.778L219.791 61.836C219.791 61.892 219.819 61.92 219.875 61.92L220.505 61.92C220.603 61.92 220.645 61.962 220.645 62.06L220.645 63.474C220.645 63.572 220.603 63.614 220.505 63.614L219.875 63.614C219.819 63.614 219.791 63.642 219.791 63.698L219.791 64.86C219.791 64.958 219.749 65 219.651 65L218.027 65C217.929 65 217.887 64.958 217.887 64.86L217.887 63.698C217.887 63.642 217.859 63.614 217.803 63.614zM222.113507 62.256C222.113507 61.29 222.491507 60.548 223.247507 60.03L223.247507 60.002C222.743507 59.652 222.323507 58.938 222.323507 58.098 222.323507 57.328 222.589507 56.67 223.135507 56.138 223.681507 55.592 224.409507 55.326 225.333507 55.326 226.257507 55.326 226.985507 55.592 227.531507 56.138 228.077507 56.67 228.343507 57.328 228.343507 58.098 228.343507 58.938 227.923507 59.652 227.419507 60.002L227.419507 60.03C228.175507 60.548 228.553507 61.29 228.553507 62.256 228.553507 63.124 228.245507 63.824 227.643507 64.356 227.041507 64.888 226.271507 65.154 225.333507 65.154 224.395507 65.154 223.625507 64.888 223.023507 64.356 222.421507 63.824 222.113507 63.124 222.113507 62.256zM226.425507 58.098C226.425507 57.468 225.991507 56.978 225.333507 56.978 224.675507 56.978 224.241507 57.468 224.241507 58.098 224.241507 58.714 224.703507 59.204 225.333507 59.204 225.963507 59.204 226.425507 58.714 226.425507 58.098zM224.045507 62.172C224.045507 62.956 224.563507 63.502 225.333507 63.502 226.103507 63.502 226.621507 62.956 226.621507 62.172 226.621507 61.402 226.103507 60.856 225.333507 60.856 224.563507 60.856 224.045507 61.402 224.045507 62.172zM230.526014 63.054C230.512014 62.97 230.540014 62.914 230.638014 62.9L232.150014 62.606C232.234014 62.592 232.290014 62.634 232.318014 62.718 232.514014 63.236 232.878014 63.502 233.424014 63.502 233.942014 63.502 234.278014 63.278 234.418014 62.83 234.488014 62.634 234.530014 62.326 234.530014 61.906 234.530014 61.472 234.488014 61.164 234.418014 60.968 234.278014 60.534 233.942014 60.31 233.424014 60.31 232.962014 60.31 232.640014 60.492 232.458014 60.856 232.416014 60.954 232.360014 60.996 232.276014 60.996L230.778014 60.996C230.680014 60.996 230.638014 60.954 230.638014 60.856L230.638014 55.62C230.638014 55.522 230.680014 55.48 230.778014 55.48L236.098014 55.48C236.196014 55.48 236.238014 55.522 236.238014 55.62L236.238014 57.006C236.238014 57.104 236.196014 57.146 236.098014 57.146L232.444014 57.146C232.388014 57.146 232.360014 57.174 232.360014 57.23L232.360014 59.106 232.402014 59.106C232.738014 58.812 233.214014 58.658 233.830014 58.658 235.104014 58.658 235.930014 59.19 236.280014 60.268 236.406014 60.674 236.476014 61.22 236.476014 61.892 236.476014 62.438 236.406014 62.942 236.266014 63.376 235.888014 64.51 234.838014 65.154 233.452014 65.154 232.654014 65.154 231.982014 64.958 231.450014 64.58 230.918014 64.188 230.610014 63.684 230.526014 63.054zM281.790226 64.86L281.790226 57.692 281.762226 57.692 280.250226 58.728C280.152226 58.798 280.096226 58.77 280.096226 58.644L280.096226 56.908C280.096226 56.838 280.124226 56.768 280.194226 56.712L281.790226 55.564C281.860226 55.508 281.944226 55.48 282.042226 55.48L283.610226 55.48C283.708226 55.48 283.750226 55.522 283.750226 55.62L283.750226 64.86C283.750226 64.958 283.708226 65 283.610226 65L281.930226 65C281.832226 65 281.790226 64.958 281.790226 64.86zM287.388733 64.86L287.388733 63.558C287.388733 63.488 287.416733 63.418 287.458733 63.362L290.804733 59.386C291.182733 58.952 291.364733 58.518 291.364733 58.07 291.364733 57.412 290.958733 56.978 290.328733 56.978 289.670733 56.978 289.292733 57.356 289.208733 58.098 289.208733 58.196 289.152733 58.224 289.054733 58.21L287.514733 57.958C287.416733 57.944 287.388733 57.888 287.402733 57.79 287.458733 57.104 287.752733 56.516 288.284733 56.04 288.816733 55.564 289.516733 55.326 290.398733 55.326 291.280733 55.326 291.994733 55.578 292.526733 56.096 293.058733 56.614 293.324733 57.258 293.324733 58.042 293.324733 58.84 293.002733 59.61 292.358733 60.352L289.852733 63.306 289.852733 63.334 293.184733 63.334C293.282733 63.334 293.324733 63.376 293.324733 63.474L293.324733 64.86C293.324733 64.958 293.282733 65 293.184733 65L287.528733 65C287.430733 65 287.388733 64.958 287.388733 64.86zM296.55724 64.86L298.57324 61.178 298.54524 61.15C298.41924 61.206 298.22324 61.234 297.95724 61.234 297.18724 61.234 296.54324 60.968 296.01124 60.45 295.49324 59.918 295.22724 59.218 295.22724 58.364 295.22724 57.426 295.52124 56.698 296.12324 56.152 296.72524 55.606 297.49524 55.326 298.41924 55.326 299.35724 55.326 300.11324 55.592 300.71524 56.138 301.31724 56.684 301.61124 57.412 301.61124 58.322 301.61124 59.036 301.37324 59.82 300.91124 60.674L298.60124 64.902C298.57324 64.972 298.51724 65 298.43324 65L296.65524 65C296.54324 65 296.51524 64.958 296.55724 64.86zM297.49524 59.26C297.73324 59.498 298.04124 59.624 298.41924 59.624 298.79724 59.624 299.10524 59.498 299.32924 59.26 299.56724 59.008 299.67924 58.686 299.67924 58.294 299.67924 57.902 299.56724 57.58 299.32924 57.342 299.10524 57.104 298.79724 56.978 298.41924 56.978 298.04124 56.978 297.73324 57.104 297.49524 57.342 297.27124 57.58 297.15924 57.902 297.15924 58.294 297.15924 58.686 297.27124 59.008 297.49524 59.26zM303.429747 66.358L303.429747 63.18C303.429747 63.082 303.471747 63.04 303.569747 63.04L305.151747 63.04C305.249747 63.04 305.291747 63.082 305.291747 63.18L305.291747 64.874C305.291747 64.972 305.249747 65.07 305.165747 65.154L303.779747 66.414C303.709747 66.484 303.639747 66.512 303.569747 66.512 303.471747 66.512 303.429747 66.456 303.429747 66.358zM307.110253 62.158C307.110253 61.444 307.348253 60.66 307.810253 59.806L310.120253 55.578C310.148253 55.508 310.204253 55.48 310.288253 55.48L312.066253 55.48C312.178253 55.48 312.206253 55.522 312.164253 55.62L310.148253 59.302 310.176253 59.33C310.302253 59.274 310.498253 59.246 310.764253 59.246 311.534253 59.246 312.178253 59.512 312.696253 60.044 313.228253 60.562 313.494253 61.262 313.494253 62.116 313.494253 63.054 313.186253 63.796 312.584253 64.342 311.982253 64.888 311.226253 65.154 310.302253 65.154 309.364253 65.154 308.608253 64.888 308.006253 64.342 307.404253 63.796 307.110253 63.068 307.110253 62.158zM309.378253 61.234C309.154253 61.472 309.042253 61.794 309.042253 62.186 309.042253 62.578 309.154253 62.9 309.378253 63.138 309.616253 63.376 309.924253 63.502 310.302253 63.502 310.680253 63.502 310.988253 63.376 311.212253 63.138 311.450253 62.9 311.562253 62.578 311.562253 62.186 311.562253 61.794 311.450253 61.472 311.212253 61.234 310.988253 60.982 310.680253 60.856 310.302253 60.856 309.924253 60.856 309.616253 60.982 309.378253 61.234zM315.17276 62.158C315.17276 61.444 315.41076 60.66 315.87276 59.806L318.18276 55.578C318.21076 55.508 318.26676 55.48 318.35076 55.48L320.12876 55.48C320.24076 55.48 320.26876 55.522 320.22676 55.62L318.21076 59.302 318.23876 59.33C318.36476 59.274 318.56076 59.246 318.82676 59.246 319.59676 59.246 320.24076 59.512 320.75876 60.044 321.29076 60.562 321.55676 61.262 321.55676 62.116 321.55676 63.054 321.24876 63.796 320.64676 64.342 320.04476 64.888 319.28876 65.154 318.36476 65.154 317.42676 65.154 316.67076 64.888 316.06876 64.342 315.46676 63.796 315.17276 63.068 315.17276 62.158zM317.44076 61.234C317.21676 61.472 317.10476 61.794 317.10476 62.186 317.10476 62.578 317.21676 62.9 317.44076 63.138 317.67876 63.376 317.98676 63.502 318.36476 63.502 318.74276 63.502 319.05076 63.376 319.27476 63.138 319.51276 62.9 319.62476 62.578 319.62476 62.186 319.62476 61.794 319.51276 61.472 319.27476 61.234 319.05076 60.982 318.74276 60.856 318.36476 60.856 317.98676 60.856 317.67876 60.982 317.44076 61.234zM324.397267 64.846L327.421267 57.23 327.421267 57.188 325.419267 57.188C325.363267 57.188 325.335267 57.216 325.335267 57.272L325.335267 58.266C325.335267 58.364 325.293267 58.406 325.195267 58.406L323.641267 58.406C323.543267 58.406 323.501267 58.364 323.501267 58.266L323.501267 55.62C323.501267 55.522 323.543267 55.48 323.641267 55.48L329.339267 55.48C329.437267 55.48 329.479267 55.522 329.479267 55.62L329.479267 57.076C329.479267 57.132 329.465267 57.188 329.451267 57.244L326.427267 64.874C326.385267 64.958 326.329267 65 326.231267 65L324.481267 65C324.383267 65 324.355267 64.944 324.397267 64.846z"/>
  </g>
</svg>
