<svg xmlns="http://www.w3.org/2000/svg" xmlns:xlink="http://www.w3.org/1999/xlink" width="172" height="196" viewBox="0 0 172 196">
  <defs>
    <circle id="analytics-vs-a" cx="60" cy="60" r="60"/>
    <mask id="analytics-vs-c" width="120" height="120" x="0" y="0" fill="#fff" maskContentUnits="userSpaceOnUse" maskUnits="objectBoundingBox">
      <use xlink:href="#analytics-vs-a"/>
    </mask>
    <circle id="analytics-vs-b" cx="60" cy="60" r="60"/>
    <mask id="analytics-vs-d" width="120" height="120" x="0" y="0" fill="#fff" maskContentUnits="userSpaceOnUse" maskUnits="objectBoundingBox">
      <use xlink:href="#analytics-vs-b"/>
    </mask>
  </defs>
  <g fill="none" fill-rule="evenodd" transform="translate(-11 -19)">
    <rect width="246" height="230" rx="5"/>
    <path fill="#000306" fill-rule="nonzero" d="M11.17 25.9L13.51 19.3C13.53 19.23 13.57 19.2 13.64 19.2L14.9 19.2C14.97 19.2 15.01 19.23 15.03 19.3L17.33 25.9C17.35 25.97 17.33 26 17.26 26L15.96 26C15.89 26 15.85 25.97 15.83 25.9L15.44 24.71 13.06 24.71 12.68 25.9C12.66 25.97 12.62 26 12.55 26L11.24 26C11.17 26 11.15 25.97 11.17 25.9zM14.24 21.08L13.47 23.46 15.04 23.46 14.27 21.08 14.24 21.08zM18.2889335 25.9L18.2889335 19.3C18.2889335 19.23 18.3189335 19.2 18.3889335 19.2L19.5889335 19.2C19.6589335 19.2 19.7189335 19.23 19.7589335 19.3L22.1589335 23.58 22.2089335 23.58 22.2089335 19.3C22.2089335 19.23 22.2389335 19.2 22.3089335 19.2L23.4389335 19.2C23.5089335 19.2 23.5389335 19.23 23.5389335 19.3L23.5389335 25.9C23.5389335 25.97 23.5089335 26 23.4389335 26L22.2489335 26C22.1789335 26 22.1189335 25.97 22.0789335 25.9L19.6689335 21.63 19.6189335 21.63 19.6189335 25.9C19.6189335 25.97 19.5889335 26 19.5189335 26L18.3889335 26C18.3189335 26 18.2889335 25.97 18.2889335 25.9zM25.047867 24.46C24.917867 24.06 24.857867 23.44 24.857867 22.6 24.857867 21.76 24.917867 21.14 25.047867 20.74 25.397867 19.66 26.317867 19.09 27.527867 19.09 28.737867 19.09 29.657867 19.66 30.007867 20.74 30.137867 21.14 30.197867 21.76 30.197867 22.6 30.197867 23.44 30.137867 24.06 30.007867 24.46 29.657867 25.54 28.737867 26.11 27.527867 26.11 26.317867 26.11 25.397867 25.54 25.047867 24.46zM28.597867 24.06C28.667867 23.84 28.707867 23.35 28.707867 22.6 28.707867 21.85 28.667867 21.36 28.597867 21.14 28.437867 20.64 28.077867 20.39 27.527867 20.39 26.977867 20.39 26.617867 20.64 26.457867 21.14 26.387867 21.36 26.347867 21.85 26.347867 22.6 26.347867 23.35 26.387867 23.84 26.457867 24.06 26.617867 24.56 26.977867 24.81 27.527867 24.81 28.077867 24.81 28.437867 24.56 28.597867 24.06zM31.5168004 25.9L31.5168004 19.3C31.5168004 19.23 31.5468004 19.2 31.6168004 19.2L32.8168004 19.2C32.8868004 19.2 32.9468004 19.23 32.9868004 19.3L35.3868004 23.58 35.4368004 23.58 35.4368004 19.3C35.4368004 19.23 35.4668004 19.2 35.5368004 19.2L36.6668004 19.2C36.7368004 19.2 36.7668004 19.23 36.7668004 19.3L36.7668004 25.9C36.7668004 25.97 36.7368004 26 36.6668004 26L35.4768004 26C35.4068004 26 35.3468004 25.97 35.3068004 25.9L32.8968004 21.63 32.8468004 21.63 32.8468004 25.9C32.8468004 25.97 32.8168004 26 32.7468004 26L31.6168004 26C31.5468004 26 31.5168004 25.97 31.5168004 25.9zM41.1257339 26L39.8557339 26C39.7857339 26 39.7557339 25.97 39.7557339 25.9L39.7557339 23.29 37.7457339 19.3C37.7157339 19.23 37.7457339 19.2 37.8157339 19.2L39.1157339 19.2C39.1857339 19.2 39.2357339 19.23 39.2657339 19.3L40.4957339 21.78 40.5257339 21.78 41.7557339 19.3C41.7857339 19.23 41.8357339 19.2 41.9057339 19.2L43.1657339 19.2C43.2357339 19.2 43.2657339 19.25 43.2357339 19.3L41.2257339 23.29 41.2257339 25.9C41.2257339 25.97 41.1957339 26 41.1257339 26zM44.1446674 25.9L44.1446674 19.3C44.1446674 19.23 44.1746674 19.2 44.2446674 19.2L45.4346674 19.2C45.5146674 19.2 45.5646674 19.23 45.5946674 19.3L47.3146674 23.18 47.3546674 23.18 49.0446674 19.3C49.0746674 19.23 49.1246674 19.2 49.2046674 19.2L50.3746674 19.2C50.4446674 19.2 50.4746674 19.23 50.4746674 19.3L50.4746674 25.9C50.4746674 25.97 50.4446674 26 50.3746674 26L49.2446674 26C49.1746674 26 49.1446674 25.97 49.1446674 25.9L49.1446674 22.07 49.1046674 22.07 47.8446674 24.94C47.8046674 25.03 47.7446674 25.07 47.6546674 25.07L46.9646674 25.07C46.8746674 25.07 46.8146674 25.03 46.7746674 24.94L45.5146674 22.07 45.4746674 22.07 45.4746674 25.9C45.4746674 25.97 45.4446674 26 45.3746674 26L44.2446674 26C44.1746674 26 44.1446674 25.97 44.1446674 25.9zM51.9836009 24.46C51.8536009 24.06 51.7936009 23.44 51.7936009 22.6 51.7936009 21.76 51.8536009 21.14 51.9836009 20.74 52.3336009 19.66 53.2536009 19.09 54.4636009 19.09 55.6736009 19.09 56.5936009 19.66 56.9436009 20.74 57.0736009 21.14 57.1336009 21.76 57.1336009 22.6 57.1336009 23.44 57.0736009 24.06 56.9436009 24.46 56.5936009 25.54 55.6736009 26.11 54.4636009 26.11 53.2536009 26.11 52.3336009 25.54 51.9836009 24.46zM55.5336009 24.06C55.6036009 23.84 55.6436009 23.35 55.6436009 22.6 55.6436009 21.85 55.6036009 21.36 55.5336009 21.14 55.3736009 20.64 55.0136009 20.39 54.4636009 20.39 53.9136009 20.39 53.5536009 20.64 53.3936009 21.14 53.3236009 21.36 53.2836009 21.85 53.2836009 22.6 53.2836009 23.35 53.3236009 23.84 53.3936009 24.06 53.5536009 24.56 53.9136009 24.81 54.4636009 24.81 55.0136009 24.81 55.3736009 24.56 55.5336009 24.06zM61.0325343 26.11C60.2425343 26.11 59.6125343 25.88 59.1325343 25.43 58.6625343 24.97 58.4225343 24.33 58.4225343 23.5L58.4225343 19.3C58.4225343 19.23 58.4525343 19.2 58.5225343 19.2L59.7925343 19.2C59.8625343 19.2 59.8925343 19.23 59.8925343 19.3L59.8925343 23.54C59.8925343 24.34 60.3425343 24.81 61.0325343 24.81 61.7225343 24.81 62.1625343 24.34 62.1625343 23.54L62.1625343 19.3C62.1625343 19.23 62.1925343 19.2 62.2625343 19.2L63.5325343 19.2C63.6025343 19.2 63.6325343 19.23 63.6325343 19.3L63.6325343 23.5C63.6325343 24.33 63.3925343 24.97 62.9125343 25.43 62.4425343 25.88 61.8125343 26.11 61.0325343 26.11zM67.4614678 26.11C66.9514678 26.11 66.4514678 26.02 65.9714678 25.85 65.4914678 25.67 65.1114678 25.45 64.8414678 25.18 64.7914678 25.13 64.7814678 25.07 64.8314678 25.01L65.5914678 24.14C65.6314678 24.09 65.6814678 24.08 65.7414678 24.13 66.3314678 24.6 66.9214678 24.83 67.5214678 24.83 68.2114678 24.83 68.6314678 24.51 68.6314678 24.02 68.6314678 23.59 68.3514678 23.37 67.5814678 23.26L67.2214678 23.21C65.7914678 23.01 65.0714678 22.33 65.0714678 21.17 65.0714678 20.54 65.2914678 20.04 65.7214678 19.66 66.1614678 19.28 66.7514678 19.09 67.4814678 19.09 68.4114678 19.09 69.1814678 19.33 69.7914678 19.8 69.8514678 19.84 69.8614678 19.89 69.8114678 19.95L69.2014678 20.86C69.1614678 20.91 69.1114678 20.92 69.0614678 20.89 68.5314678 20.54 68.0014678 20.37 67.4814678 20.37 66.8914678 20.37 66.5714678 20.67 66.5714678 21.11 66.5714678 21.51 66.8714678 21.75 67.6314678 21.86L67.9914678 21.91C69.4214678 22.1 70.1314678 22.79 70.1314678 23.97 70.1314678 25.25 69.1714678 26.11 67.4614678 26.11zM76.4593348 26L75.2993348 26C75.2293348 26 75.1893348 25.97 75.1693348 25.9L73.0093348 19.31C72.9893348 19.24 73.0193348 19.2 73.0993348 19.2L74.3993348 19.2C74.4693348 19.2 74.5093348 19.23 74.5293348 19.3L75.8893348 23.76 75.9193348 23.76 77.2393348 19.3C77.2593348 19.23 77.2993348 19.2 77.3693348 19.2L78.6593348 19.2C78.7293348 19.2 78.7593348 19.24 78.7393348 19.31L76.5793348 25.9C76.5593348 25.97 76.5193348 26 76.4593348 26zM81.8382683 26.11C81.3282683 26.11 80.8282683 26.02 80.3482683 25.85 79.8682683 25.67 79.4882683 25.45 79.2182683 25.18 79.1682683 25.13 79.1582683 25.07 79.2082683 25.01L79.9682683 24.14C80.0082683 24.09 80.0582683 24.08 80.1182683 24.13 80.7082683 24.6 81.2982683 24.83 81.8982683 24.83 82.5882683 24.83 83.0082683 24.51 83.0082683 24.02 83.0082683 23.59 82.7282683 23.37 81.9582683 23.26L81.5982683 23.21C80.1682683 23.01 79.4482683 22.33 79.4482683 21.17 79.4482683 20.54 79.6682683 20.04 80.0982683 19.66 80.5382683 19.28 81.1282683 19.09 81.8582683 19.09 82.7882683 19.09 83.5582683 19.33 84.1682683 19.8 84.2282683 19.84 84.2382683 19.89 84.1882683 19.95L83.5782683 20.86C83.5382683 20.91 83.4882683 20.92 83.4382683 20.89 82.9082683 20.54 82.3782683 20.37 81.8582683 20.37 81.2682683 20.37 80.9482683 20.67 80.9482683 21.11 80.9482683 21.51 81.2482683 21.75 82.0082683 21.86L82.3682683 21.91C83.7982683 22.1 84.5082683 22.79 84.5082683 23.97 84.5082683 25.25 83.5482683 26.11 81.8382683 26.11zM93.3661352 26L91.9461352 26C91.8761352 26 91.8261352 25.97 91.7961352 25.9L90.6261352 23.41 89.7161352 23.41C89.6761352 23.41 89.6561352 23.43 89.6561352 23.47L89.6561352 25.9C89.6561352 25.97 89.6261352 26 89.5561352 26L88.2861352 26C88.2161352 26 88.1861352 25.97 88.1861352 25.9L88.1861352 19.3C88.1861352 19.23 88.2161352 19.2 88.2861352 19.2L90.9961352 19.2C91.6861352 19.2 92.2461352 19.4 92.6661352 19.79 93.0961352 20.18 93.3061352 20.68 93.3061352 21.31 93.3061352 22.18 92.8561352 22.87 92.0961352 23.2L93.4361352 25.88C93.4661352 25.93 93.4361352 26 93.3661352 26zM89.7161352 22.16L90.9161352 22.16C91.4761352 22.16 91.8361352 21.83 91.8361352 21.31 91.8361352 20.8 91.4761352 20.47 90.9161352 20.47L89.7161352 20.47C89.6761352 20.47 89.6561352 20.49 89.6561352 20.53L89.6561352 22.1C89.6561352 22.14 89.6761352 22.16 89.7161352 22.16zM94.6250687 25.9L94.6250687 19.3C94.6250687 19.23 94.6550687 19.2 94.7250687 19.2L99.0850687 19.2C99.1550687 19.2 99.1850687 19.23 99.1850687 19.3L99.1850687 20.37C99.1850687 20.44 99.1550687 20.47 99.0850687 20.47L96.1550687 20.47C96.1150687 20.47 96.0950687 20.49 96.0950687 20.53L96.0950687 21.88C96.0950687 21.92 96.1150687 21.94 96.1550687 21.94L98.5950687 21.94C98.6650687 21.94 98.6950687 21.97 98.6950687 22.04L98.6950687 23.1C98.6950687 23.17 98.6650687 23.2 98.5950687 23.2L96.1550687 23.2C96.1150687 23.2 96.0950687 23.22 96.0950687 23.26L96.0950687 24.67C96.0950687 24.71 96.1150687 24.73 96.1550687 24.73L99.0850687 24.73C99.1550687 24.73 99.1850687 24.76 99.1850687 24.83L99.1850687 25.9C99.1850687 25.97 99.1550687 26 99.0850687 26L94.7250687 26C94.6550687 26 94.6250687 25.97 94.6250687 25.9zM100.484002 24.46C100.354002 24.06 100.294002 23.44 100.294002 22.6 100.294002 21.76 100.354002 21.14 100.484002 20.74 100.834002 19.66 101.744002 19.09 102.984002 19.09 104.194002 19.09 105.074002 19.67 105.404002 20.54 105.434002 20.61 105.424002 20.66 105.364002 20.69L104.294002 21.14C104.224002 21.16 104.174002 21.14 104.154002 21.09 103.884002 20.62 103.494002 20.39 102.984002 20.39 102.414002 20.39 102.054002 20.64 101.894002 21.15 101.824002 21.37 101.784002 21.85 101.784002 22.6 101.784002 23.35 101.824002 23.84 101.894002 24.06 102.054002 24.56 102.424002 24.81 103.004002 24.81 103.524002 24.81 103.964002 24.55 104.094002 24.11 104.144002 23.93 104.174002 23.71 104.174002 23.44 104.174002 23.4 104.154002 23.38 104.114002 23.38L103.194002 23.38C103.124002 23.38 103.094002 23.35 103.094002 23.28L103.094002 22.32C103.094002 22.25 103.124002 22.22 103.194002 22.22L105.534002 22.22C105.604002 22.22 105.634002 22.25 105.634002 22.32L105.634002 22.88C105.634002 23.55 105.574002 24.06 105.464002 24.41 105.134002 25.49 104.194002 26.11 102.984002 26.11 101.744002 26.11 100.834002 25.54 100.484002 24.46zM106.952936 25.9L106.952936 19.3C106.952936 19.23 106.982936 19.2 107.052936 19.2L108.322936 19.2C108.392936 19.2 108.422936 19.23 108.422936 19.3L108.422936 25.9C108.422936 25.97 108.392936 26 108.322936 26L107.052936 26C106.982936 26 106.952936 25.97 106.952936 25.9zM112.281869 26.11C111.771869 26.11 111.271869 26.02 110.791869 25.85 110.311869 25.67 109.931869 25.45 109.661869 25.18 109.611869 25.13 109.601869 25.07 109.651869 25.01L110.411869 24.14C110.451869 24.09 110.501869 24.08 110.561869 24.13 111.151869 24.6 111.741869 24.83 112.341869 24.83 113.031869 24.83 113.451869 24.51 113.451869 24.02 113.451869 23.59 113.171869 23.37 112.401869 23.26L112.041869 23.21C110.611869 23.01 109.891869 22.33 109.891869 21.17 109.891869 20.54 110.111869 20.04 110.541869 19.66 110.981869 19.28 111.571869 19.09 112.301869 19.09 113.231869 19.09 114.001869 19.33 114.611869 19.8 114.671869 19.84 114.681869 19.89 114.631869 19.95L114.021869 20.86C113.981869 20.91 113.931869 20.92 113.881869 20.89 113.351869 20.54 112.821869 20.37 112.301869 20.37 111.711869 20.37 111.391869 20.67 111.391869 21.11 111.391869 21.51 111.691869 21.75 112.451869 21.86L112.811869 21.91C114.241869 22.1 114.951869 22.79 114.951869 23.97 114.951869 25.25 113.991869 26.11 112.281869 26.11zM118.720803 26L117.450803 26C117.380803 26 117.350803 25.97 117.350803 25.9L117.350803 20.57C117.350803 20.53 117.330803 20.51 117.290803 20.51L115.570803 20.51C115.500803 20.51 115.470803 20.48 115.470803 20.41L115.470803 19.3C115.470803 19.23 115.500803 19.2 115.570803 19.2L120.600803 19.2C120.670803 19.2 120.700803 19.23 120.700803 19.3L120.700803 20.41C120.700803 20.48 120.670803 20.51 120.600803 20.51L118.880803 20.51C118.840803 20.51 118.820803 20.53 118.820803 20.57L118.820803 25.9C118.820803 25.97 118.790803 26 118.720803 26zM121.719736 25.9L121.719736 19.3C121.719736 19.23 121.749736 19.2 121.819736 19.2L126.179736 19.2C126.249736 19.2 126.279736 19.23 126.279736 19.3L126.279736 20.37C126.279736 20.44 126.249736 20.47 126.179736 20.47L123.249736 20.47C123.209736 20.47 123.189736 20.49 123.189736 20.53L123.189736 21.88C123.189736 21.92 123.209736 21.94 123.249736 21.94L125.689736 21.94C125.759736 21.94 125.789736 21.97 125.789736 22.04L125.789736 23.1C125.789736 23.17 125.759736 23.2 125.689736 23.2L123.249736 23.2C123.209736 23.2 123.189736 23.22 123.189736 23.26L123.189736 24.67C123.189736 24.71 123.209736 24.73 123.249736 24.73L126.179736 24.73C126.249736 24.73 126.279736 24.76 126.279736 24.83L126.279736 25.9C126.279736 25.97 126.249736 26 126.179736 26L121.819736 26C121.749736 26 121.719736 25.97 121.719736 25.9zM132.74867 26L131.32867 26C131.25867 26 131.20867 25.97 131.17867 25.9L130.00867 23.41 129.09867 23.41C129.05867 23.41 129.03867 23.43 129.03867 23.47L129.03867 25.9C129.03867 25.97 129.00867 26 128.93867 26L127.66867 26C127.59867 26 127.56867 25.97 127.56867 25.9L127.56867 19.3C127.56867 19.23 127.59867 19.2 127.66867 19.2L130.37867 19.2C131.06867 19.2 131.62867 19.4 132.04867 19.79 132.47867 20.18 132.68867 20.68 132.68867 21.31 132.68867 22.18 132.23867 22.87 131.47867 23.2L132.81867 25.88C132.84867 25.93 132.81867 26 132.74867 26zM129.09867 22.16L130.29867 22.16C130.85867 22.16 131.21867 21.83 131.21867 21.31 131.21867 20.8 130.85867 20.47 130.29867 20.47L129.09867 20.47C129.05867 20.47 129.03867 20.49 129.03867 20.53L129.03867 22.1C129.03867 22.14 129.05867 22.16 129.09867 22.16zM134.007603 25.9L134.007603 19.3C134.007603 19.23 134.037603 19.2 134.107603 19.2L138.467603 19.2C138.537603 19.2 138.567603 19.23 138.567603 19.3L138.567603 20.37C138.567603 20.44 138.537603 20.47 138.467603 20.47L135.537603 20.47C135.497603 20.47 135.477603 20.49 135.477603 20.53L135.477603 21.88C135.477603 21.92 135.497603 21.94 135.537603 21.94L137.977603 21.94C138.047603 21.94 138.077603 21.97 138.077603 22.04L138.077603 23.1C138.077603 23.17 138.047603 23.2 137.977603 23.2L135.537603 23.2C135.497603 23.2 135.477603 23.22 135.477603 23.26L135.477603 24.67C135.477603 24.71 135.497603 24.73 135.537603 24.73L138.467603 24.73C138.537603 24.73 138.567603 24.76 138.567603 24.83L138.567603 25.9C138.567603 25.97 138.537603 26 138.467603 26L134.107603 26C134.037603 26 134.007603 25.97 134.007603 25.9zM139.856537 25.9L139.856537 19.3C139.856537 19.23 139.886537 19.2 139.956537 19.2L142.486537 19.2C143.726537 19.2 144.506537 19.71 144.836537 20.73 144.956537 21.11 145.016537 21.73 145.016537 22.6 145.016537 23.47 144.956537 24.09 144.836537 24.47 144.506537 25.49 143.726537 26 142.486537 26L139.956537 26C139.886537 26 139.856537 25.97 139.856537 25.9zM141.326537 20.57L141.326537 24.63C141.326537 24.67 141.346537 24.69 141.386537 24.69L142.156537 24.69C142.846537 24.69 143.266537 24.44 143.416537 23.94 143.486537 23.73 143.526537 23.29 143.526537 22.6 143.526537 21.91 143.486537 21.47 143.416537 21.26 143.266537 20.76 142.846537 20.51 142.156537 20.51L141.386537 20.51C141.346537 20.51 141.326537 20.53 141.326537 20.57zM151.494403 26.11C150.704403 26.11 150.074403 25.88 149.594403 25.43 149.124403 24.97 148.884403 24.33 148.884403 23.5L148.884403 19.3C148.884403 19.23 148.914403 19.2 148.984403 19.2L150.254403 19.2C150.324403 19.2 150.354403 19.23 150.354403 19.3L150.354403 23.54C150.354403 24.34 150.804403 24.81 151.494403 24.81 152.184403 24.81 152.624403 24.34 152.624403 23.54L152.624403 19.3C152.624403 19.23 152.654403 19.2 152.724403 19.2L153.994403 19.2C154.064403 19.2 154.094403 19.23 154.094403 19.3L154.094403 23.5C154.094403 24.33 153.854403 24.97 153.374403 25.43 152.904403 25.88 152.274403 26.11 151.494403 26.11zM157.923337 26.11C157.413337 26.11 156.913337 26.02 156.433337 25.85 155.953337 25.67 155.573337 25.45 155.303337 25.18 155.253337 25.13 155.243337 25.07 155.293337 25.01L156.053337 24.14C156.093337 24.09 156.143337 24.08 156.203337 24.13 156.793337 24.6 157.383337 24.83 157.983337 24.83 158.673337 24.83 159.093337 24.51 159.093337 24.02 159.093337 23.59 158.813337 23.37 158.043337 23.26L157.683337 23.21C156.253337 23.01 155.533337 22.33 155.533337 21.17 155.533337 20.54 155.753337 20.04 156.183337 19.66 156.623337 19.28 157.213337 19.09 157.943337 19.09 158.873337 19.09 159.643337 19.33 160.253337 19.8 160.313337 19.84 160.323337 19.89 160.273337 19.95L159.663337 20.86C159.623337 20.91 159.573337 20.92 159.523337 20.89 158.993337 20.54 158.463337 20.37 157.943337 20.37 157.353337 20.37 157.033337 20.67 157.033337 21.11 157.033337 21.51 157.333337 21.75 158.093337 21.86L158.453337 21.91C159.883337 22.1 160.593337 22.79 160.593337 23.97 160.593337 25.25 159.633337 26.11 157.923337 26.11zM161.71227 25.9L161.71227 19.3C161.71227 19.23 161.74227 19.2 161.81227 19.2L166.17227 19.2C166.24227 19.2 166.27227 19.23 166.27227 19.3L166.27227 20.37C166.27227 20.44 166.24227 20.47 166.17227 20.47L163.24227 20.47C163.20227 20.47 163.18227 20.49 163.18227 20.53L163.18227 21.88C163.18227 21.92 163.20227 21.94 163.24227 21.94L165.68227 21.94C165.75227 21.94 165.78227 21.97 165.78227 22.04L165.78227 23.1C165.78227 23.17 165.75227 23.2 165.68227 23.2L163.24227 23.2C163.20227 23.2 163.18227 23.22 163.18227 23.26L163.18227 24.67C163.18227 24.71 163.20227 24.73 163.24227 24.73L166.17227 24.73C166.24227 24.73 166.27227 24.76 166.27227 24.83L166.27227 25.9C166.27227 25.97 166.24227 26 166.17227 26L161.81227 26C161.74227 26 161.71227 25.97 161.71227 25.9zM172.741204 26L171.321204 26C171.251204 26 171.201204 25.97 171.171204 25.9L170.001204 23.41 169.091204 23.41C169.051204 23.41 169.031204 23.43 169.031204 23.47L169.031204 25.9C169.031204 25.97 169.001204 26 168.931204 26L167.661204 26C167.591204 26 167.561204 25.97 167.561204 25.9L167.561204 19.3C167.561204 19.23 167.591204 19.2 167.661204 19.2L170.371204 19.2C171.061204 19.2 171.621204 19.4 172.041204 19.79 172.471204 20.18 172.681204 20.68 172.681204 21.31 172.681204 22.18 172.231204 22.87 171.471204 23.2L172.811204 25.88C172.841204 25.93 172.811204 26 172.741204 26zM169.091204 22.16L170.291204 22.16C170.851204 22.16 171.211204 21.83 171.211204 21.31 171.211204 20.8 170.851204 20.47 170.291204 20.47L169.091204 20.47C169.051204 20.47 169.031204 20.49 169.031204 20.53L169.031204 22.1C169.031204 22.14 169.051204 22.16 169.091204 22.16zM176.360137 26.11C175.850137 26.11 175.350137 26.02 174.870137 25.85 174.390137 25.67 174.010137 25.45 173.740137 25.18 173.690137 25.13 173.680137 25.07 173.730137 25.01L174.490137 24.14C174.530137 24.09 174.580137 24.08 174.640137 24.13 175.230137 24.6 175.820137 24.83 176.420137 24.83 177.110137 24.83 177.530137 24.51 177.530137 24.02 177.530137 23.59 177.250137 23.37 176.480137 23.26L176.120137 23.21C174.690137 23.01 173.970137 22.33 173.970137 21.17 173.970137 20.54 174.190137 20.04 174.620137 19.66 175.060137 19.28 175.650137 19.09 176.380137 19.09 177.310137 19.09 178.080137 19.33 178.690137 19.8 178.750137 19.84 178.760137 19.89 178.710137 19.95L178.100137 20.86C178.060137 20.91 178.010137 20.92 177.960137 20.89 177.430137 20.54 176.900137 20.37 176.380137 20.37 175.790137 20.37 175.470137 20.67 175.470137 21.11 175.470137 21.51 175.770137 21.75 176.530137 21.86L176.890137 21.91C178.320137 22.1 179.030137 22.79 179.030137 23.97 179.030137 25.25 178.070137 26.11 176.360137 26.11zM28.147 50.93L29.778 46.31C29.792 46.261 29.82 46.24 29.869 46.24L30.513 46.24C30.562 46.24 30.59 46.261 30.604 46.31L32.214 50.93C32.228 50.979 32.214 51 32.165 51L31.479 51C31.43 51 31.402 50.979 31.388 50.93L31.073 50.006 29.281 50.006 28.966 50.93C28.952 50.979 28.924 51 28.875 51L28.196 51C28.147 51 28.133 50.979 28.147 50.93zM30.17 47.423L29.533 49.271 30.821 49.271 30.191 47.423 30.17 47.423zM32.9832534 50.93L32.9832534 46.31C32.9832534 46.261 33.0042534 46.24 33.0532534 46.24L33.6972534 46.24C33.7462534 46.24 33.7882534 46.261 33.8162534 46.31L35.7552534 49.593 35.7832534 49.593 35.7832534 46.31C35.7832534 46.261 35.8042534 46.24 35.8532534 46.24L36.4622534 46.24C36.5112534 46.24 36.5322534 46.261 36.5322534 46.31L36.5322534 50.93C36.5322534 50.979 36.5112534 51 36.4622534 51L35.8252534 51C35.7762534 51 35.7342534 50.979 35.7062534 50.93L33.7602534 47.654 33.7322534 47.654 33.7322534 50.93C33.7322534 50.979 33.7112534 51 33.6622534 51L33.0532534 51C33.0042534 51 32.9832534 50.979 32.9832534 50.93zM39.3875069 51.077C38.5545069 51.077 37.9525069 50.678 37.7075069 49.929 37.6235069 49.677 37.5815069 49.243 37.5815069 48.62 37.5815069 47.997 37.6235069 47.563 37.7075069 47.311 37.9525069 46.562 38.5545069 46.163 39.3875069 46.163 40.2275069 46.163 40.8295069 46.562 41.0745069 47.311 41.1585069 47.563 41.2005069 47.997 41.2005069 48.62 41.2005069 49.243 41.1585069 49.677 41.0745069 49.929 40.8295069 50.678 40.2275069 51.077 39.3875069 51.077zM39.3875069 50.335C39.8355069 50.335 40.1295069 50.125 40.2765069 49.712 40.3325069 49.537 40.3605069 49.173 40.3605069 48.62 40.3605069 48.067 40.3325069 47.703 40.2765069 47.528 40.1295069 47.115 39.8355069 46.905 39.3875069 46.905 38.9465069 46.905 38.6525069 47.115 38.5055069 47.528 38.4495069 47.703 38.4215069 48.067 38.4215069 48.62 38.4215069 49.173 38.4495069 49.537 38.5055069 49.712 38.6525069 50.125 38.9465069 50.335 39.3875069 50.335zM42.2497603 50.93L42.2497603 46.31C42.2497603 46.261 42.2707603 46.24 42.3197603 46.24L42.9637603 46.24C43.0127603 46.24 43.0547603 46.261 43.0827603 46.31L45.0217603 49.593 45.0497603 49.593 45.0497603 46.31C45.0497603 46.261 45.0707603 46.24 45.1197603 46.24L45.7287603 46.24C45.7777603 46.24 45.7987603 46.261 45.7987603 46.31L45.7987603 50.93C45.7987603 50.979 45.7777603 51 45.7287603 51L45.0917603 51C45.0427603 51 45.0007603 50.979 44.9727603 50.93L43.0267603 47.654 42.9987603 47.654 42.9987603 50.93C42.9987603 50.979 42.9777603 51 42.9287603 51L42.3197603 51C42.2707603 51 42.2497603 50.979 42.2497603 50.93zM48.7100137 51L48.0240137 51C47.9750137 51 47.9540137 50.979 47.9540137 50.93L47.9540137 49.054 46.5750137 46.31C46.5540137 46.261 46.5750137 46.24 46.6310137 46.24L47.3380137 46.24C47.3870137 46.24 47.4150137 46.261 47.4360137 46.31L48.3670137 48.158 48.3880137 48.158 49.3260137 46.31C49.3470137 46.261 49.3750137 46.24 49.4240137 46.24L50.1030137 46.24C50.1590137 46.24 50.1800137 46.261 50.1590137 46.31L48.7800137 49.054 48.7800137 50.93C48.7800137 50.979 48.7590137 51 48.7100137 51zM50.8792672 50.93L50.8792672 46.31C50.8792672 46.261 50.9002672 46.24 50.9492672 46.24L51.5722672 46.24C51.6352672 46.24 51.6702672 46.261 51.6912672 46.31L53.0002672 49.243 53.0282672 49.243 54.3162672 46.31C54.3372672 46.261 54.3722672 46.24 54.4352672 46.24L55.0512672 46.24C55.1002672 46.24 55.1212672 46.261 55.1212672 46.31L55.1212672 50.93C55.1212672 50.979 55.1002672 51 55.0512672 51L54.4422672 51C54.3932672 51 54.3722672 50.979 54.3722672 50.93L54.3722672 48.018 54.3442672 48.018 53.3362672 50.258C53.3082672 50.321 53.2662672 50.349 53.2032672 50.349L52.7972672 50.349C52.7342672 50.349 52.6922672 50.321 52.6642672 50.258L51.6562672 48.018 51.6282672 48.018 51.6282672 50.93C51.6282672 50.979 51.6072672 51 51.5582672 51L50.9492672 51C50.9002672 51 50.8792672 50.979 50.8792672 50.93zM57.9765206 51.077C57.1435206 51.077 56.5415206 50.678 56.2965206 49.929 56.2125206 49.677 56.1705206 49.243 56.1705206 48.62 56.1705206 47.997 56.2125206 47.563 56.2965206 47.311 56.5415206 46.562 57.1435206 46.163 57.9765206 46.163 58.8165206 46.163 59.4185206 46.562 59.6635206 47.311 59.7475206 47.563 59.7895206 47.997 59.7895206 48.62 59.7895206 49.243 59.7475206 49.677 59.6635206 49.929 59.4185206 50.678 58.8165206 51.077 57.9765206 51.077zM57.9765206 50.335C58.4245206 50.335 58.7185206 50.125 58.8655206 49.712 58.9215206 49.537 58.9495206 49.173 58.9495206 48.62 58.9495206 48.067 58.9215206 47.703 58.8655206 47.528 58.7185206 47.115 58.4245206 46.905 57.9765206 46.905 57.5355206 46.905 57.2415206 47.115 57.0945206 47.528 57.0385206 47.703 57.0105206 48.067 57.0105206 48.62 57.0105206 49.173 57.0385206 49.537 57.0945206 49.712 57.2415206 50.125 57.5355206 50.335 57.9765206 50.335zM62.560774 50.335C63.120774 50.335 63.491774 49.957 63.491774 49.313L63.491774 46.31C63.491774 46.261 63.512774 46.24 63.561774 46.24L64.247774 46.24C64.296774 46.24 64.317774 46.261 64.317774 46.31L64.317774 49.327C64.317774 49.866 64.156774 50.293 63.827774 50.608 63.498774 50.923 63.078774 51.077 62.560774 51.077 62.049774 51.077 61.629774 50.923 61.300774 50.608 60.971774 50.293 60.810774 49.866 60.810774 49.327L60.810774 46.31C60.810774 46.261 60.831774 46.24 60.880774 46.24L61.566774 46.24C61.615774 46.24 61.636774 46.261 61.636774 46.31L61.636774 49.313C61.636774 49.957 62.007774 50.335 62.560774 50.335zM67.0190275 51.077C66.6760275 51.077 66.3470275 51.021 66.0320275 50.902 65.7170275 50.783 65.4580275 50.629 65.2690275 50.447 65.2340275 50.412 65.2270275 50.377 65.2550275 50.342L65.6890275 49.838C65.7240275 49.803 65.7520275 49.796 65.7870275 49.831 66.2140275 50.167 66.6410275 50.335 67.0820275 50.335 67.6420275 50.335 67.9780275 50.062 67.9780275 49.649 67.9780275 49.285 67.7470275 49.075 67.1100275 48.991L66.8580275 48.956C65.8990275 48.823 65.4230275 48.375 65.4230275 47.598 65.4230275 46.73 66.0530275 46.163 67.0330275 46.163 67.6420275 46.163 68.1530275 46.324 68.5730275 46.639 68.6080275 46.667 68.6080275 46.702 68.5870275 46.737L68.2510275 47.255C68.2230275 47.29 68.1880275 47.297 68.1530275 47.276 67.7750275 47.031 67.3970275 46.905 67.0120275 46.905 66.5360275 46.905 66.2630275 47.157 66.2630275 47.542 66.2630275 47.885 66.5570275 48.102 67.1380275 48.186L67.3900275 48.221C68.3350275 48.354 68.8110275 48.809 68.8110275 49.6 68.8110275 50.475 68.1670275 51.077 67.0190275 51.077zM32.004 67L31.227 67C31.178 67 31.143 66.979 31.122 66.93L30.212 65.075 29.393 65.075C29.365 65.075 29.351 65.089 29.351 65.117L29.351 66.93C29.351 66.979 29.33 67 29.281 67L28.595 67C28.546 67 28.525 66.979 28.525 66.93L28.525 62.31C28.525 62.261 28.546 62.24 28.595 62.24L30.436 62.24C30.877 62.24 31.234 62.373 31.521 62.639 31.808 62.905 31.955 63.248 31.955 63.661 31.955 64.277 31.605 64.767 31.052 64.97L32.053 66.909C32.081 66.958 32.053 67 32.004 67zM29.393 64.333L30.408 64.333C30.849 64.333 31.136 64.06 31.136 63.661 31.136 63.248 30.849 62.982 30.408 62.982L29.393 62.982C29.365 62.982 29.351 62.996 29.351 63.024L29.351 64.291C29.351 64.319 29.365 64.333 29.393 64.333zM32.9972534 66.93L32.9972534 62.31C32.9972534 62.261 33.0182534 62.24 33.0672534 62.24L36.0492534 62.24C36.0982534 62.24 36.1192534 62.261 36.1192534 62.31L36.1192534 62.912C36.1192534 62.961 36.0982534 62.982 36.0492534 62.982L33.8652534 62.982C33.8372534 62.982 33.8232534 62.996 33.8232534 63.024L33.8232534 64.186C33.8232534 64.214 33.8372534 64.228 33.8652534 64.228L35.7062534 64.228C35.7552534 64.228 35.7762534 64.249 35.7762534 64.298L35.7762534 64.9C35.7762534 64.949 35.7552534 64.97 35.7062534 64.97L33.8652534 64.97C33.8372534 64.97 33.8232534 64.984 33.8232534 65.012L33.8232534 66.216C33.8232534 66.244 33.8372534 66.258 33.8652534 66.258L36.0492534 66.258C36.0982534 66.258 36.1192534 66.279 36.1192534 66.328L36.1192534 66.93C36.1192534 66.979 36.0982534 67 36.0492534 67L33.0672534 67C33.0182534 67 32.9972534 66.979 32.9972534 66.93zM37.1125069 65.929C37.0285069 65.677 36.9865069 65.243 36.9865069 64.62 36.9865069 63.997 37.0285069 63.563 37.1125069 63.311 37.3575069 62.562 37.9665069 62.163 38.8135069 62.163 39.6535069 62.163 40.2555069 62.604 40.4725069 63.171 40.4935069 63.213 40.4795069 63.248 40.4445069 63.269L39.8565069 63.528C39.8145069 63.542 39.7865069 63.528 39.7655069 63.493 39.5485069 63.101 39.2265069 62.905 38.8065069 62.905 38.3515069 62.905 38.0575069 63.115 37.9105069 63.528 37.8545069 63.703 37.8265069 64.067 37.8265069 64.62 37.8265069 65.173 37.8545069 65.537 37.9105069 65.712 38.0575069 66.125 38.3515069 66.335 38.8065069 66.335 39.2335069 66.335 39.5905069 66.111 39.7095069 65.74 39.7585069 65.586 39.7865069 65.383 39.7865069 65.124 39.7865069 65.096 39.7725069 65.082 39.7445069 65.082L38.9605069 65.082C38.9115069 65.082 38.8905069 65.061 38.8905069 65.012L38.8905069 64.452C38.8905069 64.403 38.9115069 64.382 38.9605069 64.382L40.5355069 64.382C40.5845069 64.382 40.6055069 64.403 40.6055069 64.452L40.6055069 64.865C40.6055069 65.334 40.5705069 65.677 40.4935069 65.908 40.2625069 66.643 39.6325069 67.077 38.8135069 67.077 37.9665069 67.077 37.3575069 66.678 37.1125069 65.929zM41.6547603 66.93L41.6547603 62.31C41.6547603 62.261 41.6757603 62.24 41.7247603 62.24L42.4107603 62.24C42.4597603 62.24 42.4807603 62.261 42.4807603 62.31L42.4807603 66.93C42.4807603 66.979 42.4597603 67 42.4107603 67L41.7247603 67C41.6757603 67 41.6547603 66.979 41.6547603 66.93zM45.2100137 67.077C44.8670137 67.077 44.5380137 67.021 44.2230137 66.902 43.9080137 66.783 43.6490137 66.629 43.4600137 66.447 43.4250137 66.412 43.4180137 66.377 43.4460137 66.342L43.8800137 65.838C43.9150137 65.803 43.9430137 65.796 43.9780137 65.831 44.4050137 66.167 44.8320137 66.335 45.2730137 66.335 45.8330137 66.335 46.1690137 66.062 46.1690137 65.649 46.1690137 65.285 45.9380137 65.075 45.3010137 64.991L45.0490137 64.956C44.0900137 64.823 43.6140137 64.375 43.6140137 63.598 43.6140137 62.73 44.2440137 62.163 45.2240137 62.163 45.8330137 62.163 46.3440137 62.324 46.7640137 62.639 46.7990137 62.667 46.7990137 62.702 46.7780137 62.737L46.4420137 63.255C46.4140137 63.29 46.3790137 63.297 46.3440137 63.276 45.9660137 63.031 45.5880137 62.905 45.2030137 62.905 44.7270137 62.905 44.4540137 63.157 44.4540137 63.542 44.4540137 63.885 44.7480137 64.102 45.3290137 64.186L45.5810137 64.221C46.5260137 64.354 47.0020137 64.809 47.0020137 65.6 47.0020137 66.475 46.3580137 67.077 45.2100137 67.077zM49.6612672 67L48.9752672 67C48.9262672 67 48.9052672 66.979 48.9052672 66.93L48.9052672 63.024C48.9052672 62.996 48.8912672 62.982 48.8632672 62.982L47.6172672 62.982C47.5682672 62.982 47.5472672 62.961 47.5472672 62.912L47.5472672 62.31C47.5472672 62.261 47.5682672 62.24 47.6172672 62.24L51.0192672 62.24C51.0682672 62.24 51.0892672 62.261 51.0892672 62.31L51.0892672 62.912C51.0892672 62.961 51.0682672 62.982 51.0192672 62.982L49.7732672 62.982C49.7452672 62.982 49.7312672 62.996 49.7312672 63.024L49.7312672 66.93C49.7312672 66.979 49.7102672 67 49.6612672 67zM51.9075206 66.93L51.9075206 62.31C51.9075206 62.261 51.9285206 62.24 51.9775206 62.24L54.9595206 62.24C55.0085206 62.24 55.0295206 62.261 55.0295206 62.31L55.0295206 62.912C55.0295206 62.961 55.0085206 62.982 54.9595206 62.982L52.7755206 62.982C52.7475206 62.982 52.7335206 62.996 52.7335206 63.024L52.7335206 64.186C52.7335206 64.214 52.7475206 64.228 52.7755206 64.228L54.6165206 64.228C54.6655206 64.228 54.6865206 64.249 54.6865206 64.298L54.6865206 64.9C54.6865206 64.949 54.6655206 64.97 54.6165206 64.97L52.7755206 64.97C52.7475206 64.97 52.7335206 64.984 52.7335206 65.012L52.7335206 66.216C52.7335206 66.244 52.7475206 66.258 52.7755206 66.258L54.9595206 66.258C55.0085206 66.258 55.0295206 66.279 55.0295206 66.328L55.0295206 66.93C55.0295206 66.979 55.0085206 67 54.9595206 67L51.9775206 67C51.9285206 67 51.9075206 66.979 51.9075206 66.93zM59.515774 67L58.738774 67C58.689774 67 58.654774 66.979 58.633774 66.93L57.723774 65.075 56.904774 65.075C56.876774 65.075 56.862774 65.089 56.862774 65.117L56.862774 66.93C56.862774 66.979 56.841774 67 56.792774 67L56.106774 67C56.057774 67 56.036774 66.979 56.036774 66.93L56.036774 62.31C56.036774 62.261 56.057774 62.24 56.106774 62.24L57.947774 62.24C58.388774 62.24 58.745774 62.373 59.032774 62.639 59.319774 62.905 59.466774 63.248 59.466774 63.661 59.466774 64.277 59.116774 64.767 58.563774 64.97L59.564774 66.909C59.592774 66.958 59.564774 67 59.515774 67zM56.904774 64.333L57.919774 64.333C58.360774 64.333 58.647774 64.06 58.647774 63.661 58.647774 63.248 58.360774 62.982 57.919774 62.982L56.904774 62.982C56.876774 62.982 56.862774 62.996 56.862774 63.024L56.862774 64.291C56.862774 64.319 56.876774 64.333 56.904774 64.333zM60.5090275 66.93L60.5090275 62.31C60.5090275 62.261 60.5300275 62.24 60.5790275 62.24L63.5610275 62.24C63.6100275 62.24 63.6310275 62.261 63.6310275 62.31L63.6310275 62.912C63.6310275 62.961 63.6100275 62.982 63.5610275 62.982L61.3770275 62.982C61.3490275 62.982 61.3350275 62.996 61.3350275 63.024L61.3350275 64.186C61.3350275 64.214 61.3490275 64.228 61.3770275 64.228L63.2180275 64.228C63.2670275 64.228 63.2880275 64.249 63.2880275 64.298L63.2880275 64.9C63.2880275 64.949 63.2670275 64.97 63.2180275 64.97L61.3770275 64.97C61.3490275 64.97 61.3350275 64.984 61.3350275 65.012L61.3350275 66.216C61.3350275 66.244 61.3490275 66.258 61.3770275 66.258L63.5610275 66.258C63.6100275 66.258 63.6310275 66.279 63.6310275 66.328L63.6310275 66.93C63.6310275 66.979 63.6100275 67 63.5610275 67L60.5790275 67C60.5300275 67 60.5090275 66.979 60.5090275 66.93zM64.6382809 66.93L64.6382809 62.31C64.6382809 62.261 64.6592809 62.24 64.7082809 62.24L66.4092809 62.24C67.2422809 62.24 67.7672809 62.59 67.9982809 63.297 68.0752809 63.542 68.1172809 63.983 68.1172809 64.62 68.1172809 65.257 68.0752809 65.698 67.9982809 65.943 67.7672809 66.65 67.2422809 67 66.4092809 67L64.7082809 67C64.6592809 67 64.6382809 66.979 64.6382809 66.93zM65.4642809 63.024L65.4642809 66.216C65.4642809 66.244 65.4782809 66.258 65.5062809 66.258L66.2132809 66.258C66.7382809 66.258 67.0672809 66.055 67.2002809 65.656 67.2562809 65.502 67.2842809 65.159 67.2842809 64.62 67.2842809 64.081 67.2562809 63.738 67.2002809 63.584 67.0672809 63.185 66.7382809 62.982 66.2132809 62.982L65.5062809 62.982C65.4782809 62.982 65.4642809 62.996 65.4642809 63.024zM72.6657878 66.335C73.2257878 66.335 73.5967878 65.957 73.5967878 65.313L73.5967878 62.31C73.5967878 62.261 73.6177878 62.24 73.6667878 62.24L74.3527878 62.24C74.4017878 62.24 74.4227878 62.261 74.4227878 62.31L74.4227878 65.327C74.4227878 65.866 74.2617878 66.293 73.9327878 66.608 73.6037878 66.923 73.1837878 67.077 72.6657878 67.077 72.1547878 67.077 71.7347878 66.923 71.4057878 66.608 71.0767878 66.293 70.9157878 65.866 70.9157878 65.327L70.9157878 62.31C70.9157878 62.261 70.9367878 62.24 70.9857878 62.24L71.6717878 62.24C71.7207878 62.24 71.7417878 62.261 71.7417878 62.31L71.7417878 65.313C71.7417878 65.957 72.1127878 66.335 72.6657878 66.335zM77.1240412 67.077C76.7810412 67.077 76.4520412 67.021 76.1370412 66.902 75.8220412 66.783 75.5630412 66.629 75.3740412 66.447 75.3390412 66.412 75.3320412 66.377 75.3600412 66.342L75.7940412 65.838C75.8290412 65.803 75.8570412 65.796 75.8920412 65.831 76.3190412 66.167 76.7460412 66.335 77.1870412 66.335 77.7470412 66.335 78.0830412 66.062 78.0830412 65.649 78.0830412 65.285 77.8520412 65.075 77.2150412 64.991L76.9630412 64.956C76.0040412 64.823 75.5280412 64.375 75.5280412 63.598 75.5280412 62.73 76.1580412 62.163 77.1380412 62.163 77.7470412 62.163 78.2580412 62.324 78.6780412 62.639 78.7130412 62.667 78.7130412 62.702 78.6920412 62.737L78.3560412 63.255C78.3280412 63.29 78.2930412 63.297 78.2580412 63.276 77.8800412 63.031 77.5020412 62.905 77.1170412 62.905 76.6410412 62.905 76.3680412 63.157 76.3680412 63.542 76.3680412 63.885 76.6620412 64.102 77.2430412 64.186L77.4950412 64.221C78.4400412 64.354 78.9160412 64.809 78.9160412 65.6 78.9160412 66.475 78.2720412 67.077 77.1240412 67.077zM79.8322947 66.93L79.8322947 62.31C79.8322947 62.261 79.8532947 62.24 79.9022947 62.24L82.8842947 62.24C82.9332947 62.24 82.9542947 62.261 82.9542947 62.31L82.9542947 62.912C82.9542947 62.961 82.9332947 62.982 82.8842947 62.982L80.7002947 62.982C80.6722947 62.982 80.6582947 62.996 80.6582947 63.024L80.6582947 64.186C80.6582947 64.214 80.6722947 64.228 80.7002947 64.228L82.5412947 64.228C82.5902947 64.228 82.6112947 64.249 82.6112947 64.298L82.6112947 64.9C82.6112947 64.949 82.5902947 64.97 82.5412947 64.97L80.7002947 64.97C80.6722947 64.97 80.6582947 64.984 80.6582947 65.012L80.6582947 66.216C80.6582947 66.244 80.6722947 66.258 80.7002947 66.258L82.8842947 66.258C82.9332947 66.258 82.9542947 66.279 82.9542947 66.328L82.9542947 66.93C82.9542947 66.979 82.9332947 67 82.8842947 67L79.9022947 67C79.8532947 67 79.8322947 66.979 79.8322947 66.93zM87.4405481 67L86.6635481 67C86.6145481 67 86.5795481 66.979 86.5585481 66.93L85.6485481 65.075 84.8295481 65.075C84.8015481 65.075 84.7875481 65.089 84.7875481 65.117L84.7875481 66.93C84.7875481 66.979 84.7665481 67 84.7175481 67L84.0315481 67C83.9825481 67 83.9615481 66.979 83.9615481 66.93L83.9615481 62.31C83.9615481 62.261 83.9825481 62.24 84.0315481 62.24L85.8725481 62.24C86.3135481 62.24 86.6705481 62.373 86.9575481 62.639 87.2445481 62.905 87.3915481 63.248 87.3915481 63.661 87.3915481 64.277 87.0415481 64.767 86.4885481 64.97L87.4895481 66.909C87.5175481 66.958 87.4895481 67 87.4405481 67zM84.8295481 64.333L85.8445481 64.333C86.2855481 64.333 86.5725481 64.06 86.5725481 63.661 86.5725481 63.248 86.2855481 62.982 85.8445481 62.982L84.8295481 62.982C84.8015481 62.982 84.7875481 62.996 84.7875481 63.024L84.7875481 64.291C84.7875481 64.319 84.8015481 64.333 84.8295481 64.333zM89.9738015 67.077C89.6308015 67.077 89.3018015 67.021 88.9868015 66.902 88.6718015 66.783 88.4128015 66.629 88.2238015 66.447 88.1888015 66.412 88.1818015 66.377 88.2098015 66.342L88.6438015 65.838C88.6788015 65.803 88.7068015 65.796 88.7418015 65.831 89.1688015 66.167 89.5958015 66.335 90.0368015 66.335 90.5968015 66.335 90.9328015 66.062 90.9328015 65.649 90.9328015 65.285 90.7018015 65.075 90.0648015 64.991L89.8128015 64.956C88.8538015 64.823 88.3778015 64.375 88.3778015 63.598 88.3778015 62.73 89.0078015 62.163 89.9878015 62.163 90.5968015 62.163 91.1078015 62.324 91.5278015 62.639 91.5628015 62.667 91.5628015 62.702 91.5418015 62.737L91.2058015 63.255C91.1778015 63.29 91.1428015 63.297 91.1078015 63.276 90.7298015 63.031 90.3518015 62.905 89.9668015 62.905 89.4908015 62.905 89.2178015 63.157 89.2178015 63.542 89.2178015 63.885 89.5118015 64.102 90.0928015 64.186L90.3448015 64.221C91.2898015 64.354 91.7658015 64.809 91.7658015 65.6 91.7658015 66.475 91.1218015 67.077 89.9738015 67.077z"/>
    <g transform="rotate(83 37.814 143.063)">
      <path d="M60,120 C93.137085,120 120,93.137085 120,60 C120,26.862915 93.137085,3.41060513e-13 60,3.41060513e-13 C26.862915,3.41060513e-13 1.36424205e-12,26.862915 1.36424205e-12,60 C1.36424205e-12,93.137085 26.862915,120 60,120 Z"/>
      <use stroke="#EFE3F7" stroke-dasharray="440" stroke-linejoin="round" stroke-width="40" mask="url(#analytics-vs-c)" xlink:href="#analytics-vs-a"/>
      <use stroke="#CBA3E5" stroke-dasharray="165" stroke-linejoin="round" stroke-width="40" mask="url(#analytics-vs-d)" xlink:href="#analytics-vs-b"/>
    </g>
    <rect width="12" height="12" x="11" y="43" fill="#EFE3F7" rx="3"/>
    <rect width="12" height="12" x="11" y="59" fill="#CBA3E5" rx="3"/>
  </g>
</svg>
