<svg xmlns="http://www.w3.org/2000/svg" xmlns:xlink="http://www.w3.org/1999/xlink" width="1124" height="411" viewBox="0 0 1124 411">
  <defs>
    <linearGradient id="composer-dual-a" x1="50.007%" x2="50.007%" y1="-141.4%" y2="-47.015%">
      <stop offset="0%" stop-color="#2A6CBE"/>
      <stop offset="38.688%" stop-color="#2062BC"/>
      <stop offset="49.182%" stop-color="#1F5FBC"/>
      <stop offset="66.583%" stop-color="#1C5ABD"/>
      <stop offset="85.354%" stop-color="#1956BC"/>
      <stop offset="100%" stop-color="#1851BE"/>
    </linearGradient>
    <linearGradient id="composer-dual-b" x1="50.007%" x2="50.007%" y1="-141.4%" y2="-47.015%">
      <stop offset="0%" stop-color="#2A6CBE"/>
      <stop offset="38.688%" stop-color="#2062BC"/>
      <stop offset="49.182%" stop-color="#1F5FBC"/>
      <stop offset="66.583%" stop-color="#1C5ABD"/>
      <stop offset="85.354%" stop-color="#1956BC"/>
      <stop offset="100%" stop-color="#1851BE"/>
    </linearGradient>
    <path id="composer-dual-c" d="M7.6916556,-3.10752092e-16 L529.308344,3.10752092e-16 C531.982901,-1.80555915e-16 532.952759,0.278476833 533.930537,0.801398111 C534.908315,1.32431939 535.675681,2.09168511 536.198602,3.06946289 C536.721523,4.04724067 537,5.01709938 537,7.6916556 L537,216.308344 C537,218.982901 536.721523,219.952759 536.198602,220.930537 C535.675681,221.908315 534.908315,222.675681 533.930537,223.198602 C532.952759,223.721523 531.982901,224 529.308344,224 L7.6916556,224 C5.01709938,224 4.04724067,223.721523 3.06946289,223.198602 C2.09168511,222.675681 1.32431939,221.908315 0.801398111,220.930537 C0.278476833,219.952759 1.2037061e-16,218.982901 -2.07168062e-16,216.308344 L2.07168062e-16,7.6916556 C-1.2037061e-16,5.01709938 0.278476833,4.04724067 0.801398111,3.06946289 C1.32431939,2.09168511 2.09168511,1.32431939 3.06946289,0.801398111 C4.04724067,0.278476833 5.01709938,1.80555915e-16 7.6916556,-3.10752092e-16 Z"/>
  </defs>
  <g fill="none" fill-rule="evenodd">
    <rect width="1124" height="411" fill="#FFF"/>
    <g transform="translate(21 15)">
      <g transform="translate(0 352)">
        <rect width="107" height="26" fill="#1851BE" opacity=".26" rx="5"/>
        <rect width="16" height="16" x="84" y="5" fill="#0B3C9A" rx="4"/>
        <rect width="106" height="26" x="112" fill="#1851BE" opacity=".26" rx="5"/>
        <rect width="16" height="16" x="195" y="5" fill="#0B3C9A" rx="4"/>
        <rect width="321" height="26" x="228" fill="#ECEEF0" rx="3"/>
      </g>
      <g transform="translate(0 48)">
        <g fill="#8792A2" opacity=".24" transform="translate(0 12)">
          <rect width="26" height="24" rx="7"/>
          <rect width="26" height="24" x="64" rx="7"/>
          <rect width="26" height="24" x="128" rx="7"/>
          <rect width="26" height="24" x="192" rx="7"/>
          <rect width="26" height="24" x="256" rx="7"/>
          <rect width="26" height="24" x="320" rx="7"/>
          <rect width="26" height="24" x="383" rx="7"/>
          <rect width="26" height="24" x="447" rx="7"/>
        </g>
        <g transform="translate(825.93)">
          <g transform="translate(108.07)">
            <path fill="url(#composer-dual-a)" d="M5,0 L132,0 L132,0 L132,42 L5,42 C2.23857625,42 3.38176876e-16,39.7614237 0,37 L0,5 C-3.38176876e-16,2.23857625 2.23857625,5.07265313e-16 5,0 Z"/>
            <rect width="16" height="10" x="26" y="16" fill="#5C84D1" rx="3"/>
            <rect width="58" height="9" x="52" y="16" fill="#5C84D1" rx="3"/>
            <path fill="url(#composer-dual-b)" d="M132,0 L153,0 C155.761424,-5.07265313e-16 158,2.23857625 158,5 L158,37 C158,39.7614237 155.761424,42 153,42 L132,42 L132,42 L132,0 Z" opacity=".262"/>
            <rect width="9" height="10" x="141" y="16" fill="#1851BE" rx="3"/>
          </g>
          <rect width="97" height="41" x=".5" y=".545" stroke="#8792A2" stroke-opacity=".24" rx="5"/>
          <rect width="52" height="10" x="32.071" y="16" fill="#8792A2" opacity=".176" rx="3"/>
          <rect width="14" height="10" x="13.071" y="16" fill="#8792A2" opacity=".376" rx="3"/>
        </g>
      </g>
      <g transform="translate(0 111)">
        <g fill="#8792A2" transform="translate(546)">
          <path d="M7.6916556,-3.10752092e-16 L539.308344,3.10752092e-16 C541.982901,-1.80555915e-16 542.952759,0.278476833 543.930537,0.801398111 C544.908315,1.32431939 545.675681,2.09168511 546.198602,3.06946289 C546.721523,4.04724067 547,5.01709938 547,7.6916556 L547,216.308344 C547,218.982901 546.721523,219.952759 546.198602,220.930537 C545.675681,221.908315 544.908315,222.675681 543.930537,223.198602 C542.952759,223.721523 541.982901,224 539.308344,224 L7.6916556,224 C5.01709938,224 4.04724067,223.721523 3.06946289,223.198602 C2.09168511,222.675681 1.32431939,221.908315 0.801398111,220.930537 C0.278476833,219.952759 1.2037061e-16,218.982901 -2.07168062e-16,216.308344 L2.07168062e-16,7.6916556 C-1.2037061e-16,5.01709938 0.278476833,4.04724067 0.801398111,3.06946289 C1.32431939,2.09168511 2.09168511,1.32431939 3.06946289,0.801398111 C4.04724067,0.278476833 5.01709938,1.80555915e-16 7.6916556,-3.10752092e-16 Z" opacity=".1"/>
          <rect width="168.46" height="18" x="20.81" y="52" opacity=".341" rx="3"/>
          <rect width="286.382" height="18" x="194.225" y="52" opacity=".341" rx="3"/>
          <rect width="210.08" height="18" x="62.429" y="80" opacity=".341" rx="3"/>
          <rect width="110.986" height="18" x="62.429" y="136" opacity=".341" rx="3"/>
          <rect width="184.315" height="18" x="62.429" y="108" opacity=".341" rx="3"/>
          <rect width="11.891" height="8" x="40.629" y="85" opacity=".441" rx="4"/>
          <rect width="11.891" height="8" x="40.629" y="141" opacity=".441" rx="4"/>
          <rect width="11.891" height="8" x="40.629" y="113" opacity=".441" rx="4"/>
          <rect width="283.409" height="18" x="20.81" y="164" opacity=".341" rx="3"/>
          <rect width="153.596" height="18" x="314.129" y="164" opacity=".341" rx="3"/>
          <rect width="307.192" height="18" x="20.81" y="192" opacity=".341" rx="3"/>
          <rect width="127.832" height="18" x="19.819" y="19" opacity=".641" rx="3"/>
          <rect width="127.832" height="18" x="157.56" y="18" opacity=".441" rx="3"/>
          <rect width="66.393" height="8" x="468.716" y="19" opacity=".178" rx="3"/>
        </g>
        <mask id="composer-dual-d" fill="#fff">
          <use xlink:href="#composer-dual-c"/>
        </mask>
        <path stroke="#8792A2" stroke-opacity=".24" d="M7.6916556,0.5 C5.32868808,0.5 4.33413652,0.692056765 3.30526232,1.24230471 C2.41461878,1.71862609 1.71862609,2.41461878 1.24230471,3.30526232 C0.692056765,4.33413652 0.5,5.32868808 0.5,7.6916556 L0.5,216.308344 C0.5,218.671312 0.692056765,219.665863 1.24230471,220.694738 C1.71862609,221.585381 2.41461878,222.281374 3.30526232,222.757695 C4.33413652,223.307943 5.32868808,223.5 7.6916556,223.5 L529.308344,223.5 C531.671312,223.5 532.665863,223.307943 533.694738,222.757695 C534.585381,222.281374 535.281374,221.585381 535.757695,220.694738 C536.307943,219.665863 536.5,218.671312 536.5,216.308344 L536.5,7.6916556 C536.5,5.32868808 536.307943,4.33413652 535.757695,3.30526232 C535.281374,2.41461878 534.585381,1.71862609 533.694738,1.24230471 C532.665863,0.692056765 531.671312,0.5 529.308344,0.5 L7.6916556,0.5 Z"/>
        <rect width="127.81" height="18" x="29.723" y="19" fill="#8792A2" mask="url(#composer-dual-d)" opacity=".241" rx="3"/>
        <rect width="127.81" height="18" x="206.081" y="19" fill="#8792A2" mask="url(#composer-dual-d)" opacity=".241" rx="3"/>
        <rect width="19.815" height="4" x="181.312" y="33" fill="#8792A2" mask="url(#composer-dual-d)" opacity=".241" rx="2"/>
        <rect width="19.815" height="4" x="338.845" y="33" fill="#8792A2" mask="url(#composer-dual-d)" opacity=".241" rx="2"/>
        <rect width="5.945" height="8" x="10.899" y="19" fill="#8792A2" mask="url(#composer-dual-d)" opacity=".161" rx="2.972"/>
        <rect width="5.945" height="8" x="18.825" y="19" fill="#8792A2" mask="url(#composer-dual-d)" opacity=".161" rx="2.972"/>
        <rect width="5.945" height="8" x="162.487" y="19" fill="#8792A2" mask="url(#composer-dual-d)" opacity=".161" rx="2.972"/>
        <rect width="5.945" height="8" x="170.413" y="19" fill="#8792A2" mask="url(#composer-dual-d)" opacity=".161" rx="2.972"/>
        <rect width="168.432" height="18" x="10.899" y="47" fill="#8792A2" mask="url(#composer-dual-d)" opacity=".241" rx="3"/>
        <rect width="286.334" height="18" x="184.284" y="47" fill="#8792A2" mask="url(#composer-dual-d)" opacity=".241" rx="3"/>
        <rect width="210.044" height="18" x="52.511" y="75" fill="#8792A2" mask="url(#composer-dual-d)" opacity=".241" rx="3"/>
        <rect width="110.967" height="18" x="52.511" y="131" fill="#8792A2" mask="url(#composer-dual-d)" opacity=".241" rx="3"/>
        <rect width="184.284" height="18" x="52.511" y="103" fill="#8792A2" mask="url(#composer-dual-d)" opacity=".241" rx="3"/>
        <rect width="11.889" height="8" x="30.714" y="80" fill="#8792A2" mask="url(#composer-dual-d)" opacity=".441" rx="4"/>
        <rect width="11.889" height="8" x="30.714" y="136" fill="#8792A2" mask="url(#composer-dual-d)" opacity=".441" rx="4"/>
        <rect width="11.889" height="8" x="30.714" y="108" fill="#8792A2" mask="url(#composer-dual-d)" opacity=".441" rx="4"/>
        <rect width="283.362" height="18" x="10.899" y="159" fill="#8792A2" mask="url(#composer-dual-d)" opacity=".241" rx="3"/>
        <rect width="153.57" height="18" x="304.168" y="159" fill="#8792A2" mask="url(#composer-dual-d)" opacity=".241" rx="3"/>
        <rect width="307.14" height="18" x="10.899" y="187" fill="#8792A2" mask="url(#composer-dual-d)" opacity=".241" rx="3"/>
        <rect width="66.382" height="8" x="460.71" y="19" fill="#8792A2" mask="url(#composer-dual-d)" opacity=".178" rx="3"/>
      </g>
      <rect width="621" height="38" fill="#8792A2" opacity=".241" rx="3"/>
    </g>
    <rect width="64" height="64" x="1049.002" y="329.001" fill="#33BF1C" rx="32" transform="matrix(1 0 0 -1 0 722.001)"/>
  </g>
</svg>
