<svg height="710" viewBox="0 0 1124 710" width="1124" xmlns="http://www.w3.org/2000/svg"><g fill="none" fill-rule="evenodd"><path d="m0 0h1124v190h-1124z" fill="#2a2f45" transform="matrix(-1 0 0 -1 1124 190)"/><path d="m0 190h1124v520h-1124z" fill="#fff"/><rect fill="#fff" height="20" rx="10" width="264" x="49.999" y="88.002"/><rect fill="#fff" height="10" opacity=".4" rx="5" width="74" x="49.999" y="158.002"/><rect fill="#fff" height="10" opacity=".4" rx="5" width="54" x="144" y="158"/><g fill="#2a2f45"><rect height="10" opacity=".403" rx="5" width="54" x="50" y="248"/><rect height="10" opacity=".403" rx="5" width="74" x="50" y="418"/><rect height="10" opacity=".803" rx="5" width="54" x="254" y="418"/><rect height="12" opacity=".603" rx="5" width="64" x="254" y="443"/><rect height="2" opacity=".153" rx="1" width="594" x="254" y="460"/><rect height="10" opacity=".803" rx="5" width="112" x="254" y="596"/><rect height="12" opacity=".603" rx="5" width="234" x="254" y="621"/><rect height="2" opacity=".153" rx="1" width="594" x="254" y="638"/><rect height="12" opacity=".153" rx="5" width="108" x="254" y="537"/><rect height="10" opacity=".303" rx="5" width="268" x="254" y="566"/></g><rect fill="#1851be" height="2" opacity=".7" rx="1" width="594" x="254" y="554"/><rect fill="#1851be" height="10" opacity=".803" rx="5" width="94" x="286" y="258"/><rect fill="#1851be" height="10" opacity=".803" rx="5" width="74" x="286" y="288"/><rect fill="#1851be" height="10" opacity=".803" rx="5" width="54" x="286" y="318"/><rect fill="#1851be" height="10" opacity=".803" rx="5" width="114" x="286" y="348"/><rect fill="#1851be" height="10" opacity=".803" rx="5" width="24" x="254" y="482"/><rect fill="#1851be" height="10" opacity=".803" rx="5" width="12" x="283" y="482"/><rect fill="#2a2f45" height="10" opacity=".803" rx="5" width="122" x="310" y="482"/><rect fill="#2a2f45" height="10" opacity=".803" rx="5" width="92" x="254" y="512"/><rect fill="#2a2f45" height="12" opacity=".153" rx="5" width="338" x="254" y="685"/><rect fill="#2a2f45" height="2" opacity=".153" rx="1" width="594" x="254" y="702"/><rect fill="#2a2f45" height="10" opacity=".803" rx="5" width="96" x="254" y="660"/><rect fill="#1851be" height="132" opacity=".253" rx="3.5" width="8" x="254" y="248"/><rect fill="#fff" height="10" opacity=".4" rx="5" width="54" x="218" y="158"/><rect fill="#fff" height="10" rx="5" width="54" x="292" y="158"/><rect fill="#f84f77" height="4" rx="2" width="54" x="292" y="178"/><rect fill="#fff" height="10" opacity=".4" rx="5" width="74" x="366" y="158"/><rect fill="#fff" height="10" opacity=".4" rx="5" width="74" x="460" y="158"/><rect fill="#fff" height="10" opacity=".4" rx="5" width="69" x="554" y="158"/><rect fill="#fff" height="10" opacity=".4" rx="5" width="59" x="643" y="158"/><rect fill="#000306" height="29" opacity=".4" rx="4.5" stroke="#000306" width="219" x="802.5" y="148.5"/><rect fill="#fff" fill-opacity=".15" height="8" opacity=".7" rx="4" width="74" x="810" y="159"/><rect fill="#fff" height="7" opacity=".25" rx="3.5" transform="matrix(-1 0 0 1 2091 0)" width="7" x="1042" y="149"/><rect fill="#fff" height="7" opacity=".25" rx="3.5" transform="matrix(-1 0 0 1 2091 0)" width="7" x="1042" y="169"/><rect fill="#fff" height="7" opacity=".25" rx="3.5" transform="matrix(-1 0 0 1 2091 0)" width="7" x="1042" y="159"/><rect fill="#1851be" height="70" opacity=".965" rx="34.97" transform="matrix(1 0 0 -1 0 1270)" width="70.002" x="990" y="600"/></g></svg>