<svg height="78" viewBox="0 0 77 78" width="77" xmlns="http://www.w3.org/2000/svg" xmlns:xlink="http://www.w3.org/1999/xlink"><linearGradient id="a" x1="0%" x2="0%" y1="0%" y2="105.733%"><stop offset="0" stop-color="#3c3f4a"/><stop offset="1" stop-color="#2a2f45"/></linearGradient><filter id="b" height="107.4%" width="107.4%" x="-3.7%" y="-3.7%"><feGaussianBlur in="SourceGraphic" stdDeviation=".65"/></filter><linearGradient id="c" x1="0%" x2="0%" y1="0%" y2="105.733%"><stop offset="0" stop-color="#2a2f45"/><stop offset=".99285" stop-color="#1a1f36"/></linearGradient><linearGradient id="d"><stop offset="0" stop-color="#fff"/><stop offset="1" stop-color="#aec3eb"/></linearGradient><radialGradient id="e" cx="43.055%" cy="18.188%" gradientTransform="matrix(.19435 .97148 -.7963 .2371 .492 -.28)" r="105.675%" xlink:href="#d"/><filter id="f" height="107.8%" width="106.4%" x="-3.2%" y="-3.9%"><feGaussianBlur in="SourceGraphic" stdDeviation=".65"/></filter><radialGradient id="g" cx="32.053%" cy="0%" gradientTransform="matrix(0 1 -.81967 0 .32 -.32)" r="136.287%" xlink:href="#d"/><mask id="h" fill="#fff"><path d="m.5 13.84c0-7.367 5.973-13.34 13.34-13.34h48.32c7.367 0 13.34 5.973 13.34 13.34v48.32c0 7.367-5.973 13.34-13.34 13.34h-48.32c-7.367 0-13.34-5.973-13.34-13.34z" fill="#fff" fill-rule="evenodd"/></mask><g fill="none" fill-rule="evenodd" transform="translate(-6)"><path d="m.5 13.84c0-7.367 5.973-13.34 13.34-13.34h48.32c7.367 0 13.34 5.973 13.34 13.34v48.32c0 7.367-5.973 13.34-13.34 13.34h-48.32c-7.367 0-13.34-5.973-13.34-13.34z" mask="url(#h)"/><path d="m.5 13.84c0-7.367 5.973-13.34 13.34-13.34h48.32c7.367 0 13.34 5.973 13.34 13.34v48.32c0 7.367-5.973 13.34-13.34 13.34h-48.32c-7.367 0-13.34-5.973-13.34-13.34z"/><path d="m.5 13.84c0-7.367 5.973-13.34 13.34-13.34h48.32c7.367 0 13.34 5.973 13.34 13.34v48.32c0 7.367-5.973 13.34-13.34 13.34h-48.32c-7.367 0-13.34-5.973-13.34-13.34z"/><g fill-rule="nonzero" transform="translate(7 1)"><path d="m37.5 75.5c20.7106781 0 37.5-16.7893219 37.5-37.5s-16.7893219-37.5-37.5-37.5-37.5 16.7893219-37.5 37.5c.01938149 20.7026447 16.7973553 37.4806185 37.5 37.5z" fill="url(#a)" filter="url(#b)" stroke="#fff" stroke-opacity=".01" stroke-width="1.68"/><path d="m37.5 75.5c20.7106781 0 37.5-16.7893219 37.5-37.5s-16.7893219-37.5-37.5-37.5-37.5 16.7893219-37.5 37.5c.01938149 20.7026447 16.7973553 37.4806185 37.5 37.5z" fill="url(#c)" stroke="#fff" stroke-opacity=".01" stroke-width="1.68"/><g transform="translate(7 11)"><path d="m28.5735681 28.1818182c2.3703146 1.1363636 4.9787947 1.8181818 7.7687342 1.8181818 1.6160225-.0094781 3.2227729-.2454782 4.7735186-.7011364-.6997531 1.9318182-1.1443289 3.9852273-1.1443289 6.1556819 0 5.9693181 2.923766 11.228409 7.3717916 14.5454545h-27.3323349c-3.0065192 0-5.4437845-2.4420832-5.4437845-5.4545455v-3.2727272c.0018781-7.2291298 5.8502149-13.0890273 13.0650829-13.0909091zm26.2809095 0c.3768841 0 .6824091.3050696.6824091.681392v4.7735796h4.7807043c.1809861 0 .3545595.0717893.482536.1995751s.199873.3011005.199873.4818169v4.0909091c0 .3763224-.3055249.6813921-.682409.6813921h-4.7807043v4.7735795c0 .3763224-.305525.681392-.6824091.681392h-4.0970149c-.3768841 0-.6824091-.3050696-.6824091-.681392v-4.7735795h-4.7807043c-.3768841 0-.682409-.3050697-.682409-.6813921v-4.0909091c0-.3763224.3055249-.681392.682409-.681392h4.7807043v-4.7735796c0-.1807164.0718965-.3540311.199873-.4818169s.30155-.1995751.4825361-.1995751zm-40.716502-3.6363637c1.8670447-.002078 3.6586085.7580883 4.9814274 2.1136401-4.5377578 2.5434796-7.623496 7.1619535-8.3060607 12.4318145h-7.27884839c-1.95204709 0-3.53449391-1.628055-3.53449391-3.6363626v-3.6363625c.00365353-4.0150572 3.16640799-7.2689664 7.06898782-7.2727295zm21.369488-24.5454545c7.0395693 0 12.7462677 5.69819368 12.7462677 12.7272718 0 7.0290781-5.7066984 12.7272737-12.7462677 12.7272737-3.3810758.0018082-6.6241922-1.3385157-9.0149742-3.7257347-2.3907819-2.3872189-3.7331063-5.6255021-3.7312954-9.001539 0-7.02907812 5.7067003-12.7272718 12.7462696-12.7272718zm-25.4925382 7.27272727c4.0226113 0 7.2835821 3.25611093 7.2835821 7.27272723 0 4.0166164-3.2609708 7.2727273-7.2835821 7.2727273-4.02105102-.0037588-7.27981767-3.2576689-7.28358212-7.2727273 0-4.0166163 3.26097078-7.27272723 7.28358212-7.27272723z" fill="url(#e)" filter="url(#f)"/><path d="m28.5735681 28.1818182c2.3703146 1.1363636 4.9787947 1.8181818 7.7687342 1.8181818 1.6160225-.0094781 3.2227729-.2454782 4.7735186-.7011364-.6997531 1.9318182-1.1443289 3.9852273-1.1443289 6.1556819 0 5.9693181 2.923766 11.228409 7.3717916 14.5454545h-27.3323349c-3.0065192 0-5.4437845-2.4420832-5.4437845-5.4545455v-3.2727272c.0018781-7.2291298 5.8502149-13.0890273 13.0650829-13.0909091zm26.2809095 0c.3768841 0 .6824091.3050696.6824091.681392v4.7735796h4.7807043c.1809861 0 .3545595.0717893.482536.1995751s.199873.3011005.199873.4818169v4.0909091c0 .3763224-.3055249.6813921-.682409.6813921h-4.7807043v4.7735795c0 .3763224-.305525.681392-.6824091.681392h-4.0970149c-.3768841 0-.6824091-.3050696-.6824091-.681392v-4.7735795h-4.7807043c-.3768841 0-.682409-.3050697-.682409-.6813921v-4.0909091c0-.3763224.3055249-.681392.682409-.681392h4.7807043v-4.7735796c0-.1807164.0718965-.3540311.199873-.4818169s.30155-.1995751.4825361-.1995751zm-40.716502-3.6363637c1.8670447-.002078 3.6586085.7580883 4.9814274 2.1136401-4.5377578 2.5434796-7.623496 7.1619535-8.3060607 12.4318145h-7.27884839c-1.95204709 0-3.53449391-1.628055-3.53449391-3.6363626v-3.6363625c.00365353-4.0150572 3.16640799-7.2689664 7.06898782-7.2727295zm21.369488-24.5454545c7.0395693 0 12.7462677 5.69819368 12.7462677 12.7272718 0 7.0290781-5.7066984 12.7272737-12.7462677 12.7272737-3.3810758.0018082-6.6241922-1.3385157-9.0149742-3.7257347-2.3907819-2.3872189-3.7331063-5.6255021-3.7312954-9.001539 0-7.02907812 5.7067003-12.7272718 12.7462696-12.7272718zm-25.4925382 7.27272727c4.0226113 0 7.2835821 3.25611093 7.2835821 7.27272723 0 4.0166164-3.2609708 7.2727273-7.2835821 7.2727273-4.02105102-.0037588-7.27981767-3.2576689-7.28358212-7.2727273 0-4.0166163 3.26097078-7.27272723 7.28358212-7.27272723z" fill="url(#g)"/></g></g></g></svg>