<svg xmlns="http://www.w3.org/2000/svg" xmlns:xlink="http://www.w3.org/1999/xlink" width="80" height="80" viewBox="0 0 80 80">
  <defs>
    <path id="advanced-search-a" d="M0.5,13.84 C0.5,6.473 6.473,0.5 13.84,0.5 L62.16,0.5 C69.527,0.5 75.5,6.473 75.5,13.84 L75.5,62.16 C75.5,69.527 69.527,75.5 62.16,75.5 L13.84,75.5 C6.473,75.5 0.5,69.527 0.5,62.16 L0.5,13.84 Z"/>
    <linearGradient id="advanced-search-c" x1="50%" x2="50%" y1="0%" y2="100%">
      <stop offset="0%" stop-color="#3F6ABC"/>
      <stop offset="100%" stop-color="#1851BE"/>
    </linearGradient>
    <filter id="advanced-search-d" width="110.6%" height="110.6%" x="-5.3%" y="-5.3%" filterUnits="objectBoundingBox">
      <feGaussianBlur in="SourceGraphic" stdDeviation="1.05"/>
    </filter>
    <radialGradient id="advanced-search-e" cx="57.407%" cy="0%" r="133.013%" fx="57.407%" fy="0%" gradientTransform="matrix(0 1 -.87097 0 .574 -.574)">
      <stop offset="0%" stop-color="#FFF"/>
      <stop offset="100%" stop-color="#AEC3EB"/>
    </radialGradient>
    <filter id="advanced-search-f" width="106.9%" height="108%" x="-3.5%" y="-4%" filterUnits="objectBoundingBox">
      <feGaussianBlur in="SourceGraphic" stdDeviation=".65"/>
    </filter>
  </defs>
  <g fill="none" fill-rule="evenodd" transform="translate(0 2)">
    <g transform="translate(2)">
      <mask id="advanced-search-b" fill="#fff">
        <use xlink:href="#advanced-search-a"/>
      </mask>
      <path d="M0.5,13.84 C0.5,6.473 6.473,0.5 13.84,0.5 L62.16,0.5 C69.527,0.5 75.5,6.473 75.5,13.84 L75.5,62.16 C75.5,69.527 69.527,75.5 62.16,75.5 L13.84,75.5 C6.473,75.5 0.5,69.527 0.5,62.16 L0.5,13.84 Z" mask="url(#advanced-search-b)"/>
      <path d="M0.5,13.84 C0.5,6.473 6.473,0.5 13.84,0.5 L62.16,0.5 C69.527,0.5 75.5,6.473 75.5,13.84 L75.5,62.16 C75.5,69.527 69.527,75.5 62.16,75.5 L13.84,75.5 C6.473,75.5 0.5,69.527 0.5,62.16 L0.5,13.84 Z"/>
      <path d="M0.5,13.84 C0.5,6.473 6.473,0.5 13.84,0.5 L62.16,0.5 C69.527,0.5 75.5,6.473 75.5,13.84 L75.5,62.16 C75.5,69.527 69.527,75.5 62.16,75.5 L13.84,75.5 C6.473,75.5 0.5,69.527 0.5,62.16 L0.5,13.84 Z"/>
      <path fill="url(#advanced-search-c)" fill-rule="nonzero" stroke="#FFF" stroke-opacity=".01" stroke-width="1.68" d="M0.5,13.84 C0.5,6.473 6.473,0.5 13.84,0.5 L62.16,0.5 C69.527,0.5 75.5,6.473 75.5,13.84 L75.5,62.16 C75.5,69.527 69.527,75.5 62.16,75.5 L13.84,75.5 C6.473,75.5 0.5,69.527 0.5,62.16 L0.5,13.84 Z" filter="url(#advanced-search-d)"/>
      <path fill="url(#advanced-search-c)" fill-rule="nonzero" stroke="#FFF" stroke-opacity=".01" stroke-width="1.68" d="M0.5,13.84 C0.5,6.473 6.473,0.5 13.84,0.5 L62.16,0.5 C69.527,0.5 75.5,6.473 75.5,13.84 L75.5,62.16 C75.5,69.527 69.527,75.5 62.16,75.5 L13.84,75.5 C6.473,75.5 0.5,69.527 0.5,62.16 L0.5,13.84 Z"/>
    </g>
    <g fill="url(#advanced-search-e)" fill-rule="nonzero" transform="rotate(-30 53.156 13.206)">
      <path d="M46.2777778,1.81481481 C46.2777778,0.81212963 45.4656481,0 44.462963,0 L37.2037037,0 C36.2010185,0 35.3888889,0.81212963 35.3888889,1.81481481 L35.3888889,7.25925926 L46.2777778,7.25925926 L46.2777778,1.81481481 Z M6.94700714,14.3524527 C6.67417052,24.5136111 0.376101466,26.7201578 0,40.7714646 L0,45.5353535 C0,47.448488 1.55766879,49 3.47839506,49 L13.9135802,49 C15.8343065,49 17.3919753,47.448488 17.3919753,45.5353535 L17.3919753,28.2121212 L20.8703704,28.2121212 L20.8703704,10.8888889 L10.4177932,10.8888889 C8.50141493,10.8888889 6.99918306,12.4447317 6.94700714,14.3524527 Z M49.3122521,14.3524527 C49.2600762,12.4447317 47.7578443,10.8888889 45.841466,10.8888889 L35.3888889,10.8888889 L35.3888889,28.2121212 L38.867284,28.2121212 L38.867284,45.5353535 C38.867284,47.448488 40.4249527,49 42.345679,49 L52.7808642,49 C54.7015905,49 56.2592593,47.448488 56.2592593,45.5353535 L56.2592593,40.7714646 C55.8831578,26.7201578 49.5850887,24.5136111 49.3122521,14.3524527 Z M19.0555556,0 L11.7962963,0 C10.7936111,0 9.98148148,0.81212963 9.98148148,1.81481481 L9.98148148,7.25925926 L20.8703704,7.25925926 L20.8703704,1.81481481 C20.8703704,0.81212963 20.0582407,0 19.0555556,0 Z M24.5,28.1296296 L31.7592593,28.1296296 L31.7592593,10.8888889 L24.5,10.8888889 L24.5,28.1296296 Z" filter="url(#advanced-search-f)"/>
      <path d="M46.2777778,1.81481481 C46.2777778,0.81212963 45.4656481,0 44.462963,0 L37.2037037,0 C36.2010185,0 35.3888889,0.81212963 35.3888889,1.81481481 L35.3888889,7.25925926 L46.2777778,7.25925926 L46.2777778,1.81481481 Z M6.94700714,14.3524527 C6.67417052,24.5136111 0.376101466,26.7201578 0,40.7714646 L0,45.5353535 C0,47.448488 1.55766879,49 3.47839506,49 L13.9135802,49 C15.8343065,49 17.3919753,47.448488 17.3919753,45.5353535 L17.3919753,28.2121212 L20.8703704,28.2121212 L20.8703704,10.8888889 L10.4177932,10.8888889 C8.50141493,10.8888889 6.99918306,12.4447317 6.94700714,14.3524527 Z M49.3122521,14.3524527 C49.2600762,12.4447317 47.7578443,10.8888889 45.841466,10.8888889 L35.3888889,10.8888889 L35.3888889,28.2121212 L38.867284,28.2121212 L38.867284,45.5353535 C38.867284,47.448488 40.4249527,49 42.345679,49 L52.7808642,49 C54.7015905,49 56.2592593,47.448488 56.2592593,45.5353535 L56.2592593,40.7714646 C55.8831578,26.7201578 49.5850887,24.5136111 49.3122521,14.3524527 Z M19.0555556,0 L11.7962963,0 C10.7936111,0 9.98148148,0.81212963 9.98148148,1.81481481 L9.98148148,7.25925926 L20.8703704,7.25925926 L20.8703704,1.81481481 C20.8703704,0.81212963 20.0582407,0 19.0555556,0 Z M24.5,28.1296296 L31.7592593,28.1296296 L31.7592593,10.8888889 L24.5,10.8888889 L24.5,28.1296296 Z"/>
    </g>
  </g>
</svg>
