<svg height="80" viewBox="0 0 80 80" width="80" xmlns="http://www.w3.org/2000/svg" xmlns:xlink="http://www.w3.org/1999/xlink"><linearGradient id="a" x1="50%" x2="50%" y1="0%" y2="100%"><stop offset="0" stop-color="#3f6abc"/><stop offset="1" stop-color="#1851be"/></linearGradient><filter id="b" height="110.6%" width="110.6%" x="-5.3%" y="-5.3%"><feGaussianBlur in="SourceGraphic" stdDeviation="1.05"/></filter><radialGradient id="c" cx="57.407%" cy="0%" gradientTransform="matrix(0 1 -.87097 0 .574 -.574)" r="133.013%"><stop offset="0" stop-color="#fff"/><stop offset="1" stop-color="#aec3eb"/></radialGradient><filter id="d" height="108%" width="106.9%" x="-3.5%" y="-4%"><feGaussianBlur in="SourceGraphic" stdDeviation=".65"/></filter><mask id="e" fill="#fff"><path d="m.5 13.84c0-7.367 5.973-13.34 13.34-13.34h48.32c7.367 0 13.34 5.973 13.34 13.34v48.32c0 7.367-5.973 13.34-13.34 13.34h-48.32c-7.367 0-13.34-5.973-13.34-13.34z" fill="#fff" fill-rule="evenodd"/></mask><g fill="none" fill-rule="evenodd" transform="translate(0 2)"><g transform="translate(2)"><path d="m.5 13.84c0-7.367 5.973-13.34 13.34-13.34h48.32c7.367 0 13.34 5.973 13.34 13.34v48.32c0 7.367-5.973 13.34-13.34 13.34h-48.32c-7.367 0-13.34-5.973-13.34-13.34z" mask="url(#e)"/><path d="m.5 13.84c0-7.367 5.973-13.34 13.34-13.34h48.32c7.367 0 13.34 5.973 13.34 13.34v48.32c0 7.367-5.973 13.34-13.34 13.34h-48.32c-7.367 0-13.34-5.973-13.34-13.34z"/><path d="m.5 13.84c0-7.367 5.973-13.34 13.34-13.34h48.32c7.367 0 13.34 5.973 13.34 13.34v48.32c0 7.367-5.973 13.34-13.34 13.34h-48.32c-7.367 0-13.34-5.973-13.34-13.34z"/><g fill="url(#a)" fill-rule="nonzero" stroke="#fff" stroke-opacity=".01" stroke-width="1.68"><path d="m.5 13.84c0-7.367 5.973-13.34 13.34-13.34h48.32c7.367 0 13.34 5.973 13.34 13.34v48.32c0 7.367-5.973 13.34-13.34 13.34h-48.32c-7.367 0-13.34-5.973-13.34-13.34z" filter="url(#b)"/><path d="m.5 13.84c0-7.367 5.973-13.34 13.34-13.34h48.32c7.367 0 13.34 5.973 13.34 13.34v48.32c0 7.367-5.973 13.34-13.34 13.34h-48.32c-7.367 0-13.34-5.973-13.34-13.34z"/></g></g><g fill="url(#c)" fill-rule="nonzero" transform="matrix(.8660254 -.5 .5 .8660254 .518554 28.347269)"><path d="m46.2777778 1.81481481c0-1.00268518-.8121297-1.81481481-1.8148148-1.81481481h-7.2592593c-1.0026852 0-1.8148148.81212963-1.8148148 1.81481481v5.44444445h10.8888889zm-39.33077066 12.53763789c-.27283662 10.1611584-6.57090567 12.3677051-6.94700714 26.4190119v4.7638889c0 1.9131345 1.55766879 3.4646465 3.47839506 3.4646465h10.43518514c1.9207263 0 3.4783951-1.551512 3.4783951-3.4646465v-17.3232323h3.4783951v-17.3232323h-10.4525772c-1.91637827 0-3.41861014 1.5558428-3.47078606 3.4635638zm42.36524496 0c-.0521759-1.907721-1.5544078-3.4635638-3.4707861-3.4635638h-10.4525771v17.3232323h3.4783951v17.3232323c0 1.9131345 1.5576687 3.4646465 3.478395 3.4646465h10.4351852c1.9207263 0 3.4783951-1.551512 3.4783951-3.4646465v-4.7638889c-.3761015-14.0513068-6.6741706-16.2578535-6.9470072-26.4190119zm-30.2566965-14.3524527h-7.2592593c-1.0026852 0-1.81481482.81212963-1.81481482 1.81481481v5.44444445h10.88888892v-5.44444445c0-1.00268518-.8121297-1.81481481-1.8148148-1.81481481zm5.4444444 28.1296296h7.2592593v-17.2407407h-7.2592593z" filter="url(#d)"/><path d="m46.2777778 1.81481481c0-1.00268518-.8121297-1.81481481-1.8148148-1.81481481h-7.2592593c-1.0026852 0-1.8148148.81212963-1.8148148 1.81481481v5.44444445h10.8888889zm-39.33077066 12.53763789c-.27283662 10.1611584-6.57090567 12.3677051-6.94700714 26.4190119v4.7638889c0 1.9131345 1.55766879 3.4646465 3.47839506 3.4646465h10.43518514c1.9207263 0 3.4783951-1.551512 3.4783951-3.4646465v-17.3232323h3.4783951v-17.3232323h-10.4525772c-1.91637827 0-3.41861014 1.5558428-3.47078606 3.4635638zm42.36524496 0c-.0521759-1.907721-1.5544078-3.4635638-3.4707861-3.4635638h-10.4525771v17.3232323h3.4783951v17.3232323c0 1.9131345 1.5576687 3.4646465 3.478395 3.4646465h10.4351852c1.9207263 0 3.4783951-1.551512 3.4783951-3.4646465v-4.7638889c-.3761015-14.0513068-6.6741706-16.2578535-6.9470072-26.4190119zm-30.2566965-14.3524527h-7.2592593c-1.0026852 0-1.81481482.81212963-1.81481482 1.81481481v5.44444445h10.88888892v-5.44444445c0-1.00268518-.8121297-1.81481481-1.8148148-1.81481481zm5.4444444 28.1296296h7.2592593v-17.2407407h-7.2592593z"/></g></g></svg>