<svg height="197" viewBox="0 0 172 197" width="172" xmlns="http://www.w3.org/2000/svg" xmlns:xlink="http://www.w3.org/1999/xlink"><defs><circle id="a" cx="60" cy="60" r="60"/><mask id="b" fill="#fff" height="120" width="120" x="0" y="0"><use xlink:href="#a"/></mask><circle id="c" cx="60" cy="60" r="60"/><mask id="d" fill="#fff" height="120" width="120" x="0" y="0"><use xlink:href="#c"/></mask></defs><g fill="none" fill-rule="evenodd" transform="translate(-11 -18)"><rect height="230" rx="5" width="246"/><rect fill="#2a2f45" height="9" opacity=".8" rx="4.5" width="168" x="11" y="18"/><rect fill="#8792a2" height="6" opacity=".7" rx="3" width="40" x="28" y="46"/><rect fill="#8792a2" height="6" opacity=".7" rx="3" width="40" x="28" y="62"/><g transform="matrix(.12186934 .99254615 -.99254615 .12186934 175.202263 88.095866)"><path d="m60 120c33.137085 0 60-26.862915 60-60s-26.862915-60-60-60-60 26.862915-60 60 26.862915 60 60 60z"/><g stroke-linejoin="round" stroke-width="24"><use mask="url(#b)" stroke="#efe3f7" stroke-dasharray="440" xlink:href="#a"/><use mask="url(#d)" stroke="#cba3e5" stroke-dasharray="165" xlink:href="#c"/></g></g><rect fill="#efe3f7" height="12" rx="6" width="12" x="11" y="43"/><rect fill="#cba3e5" height="12" rx="6" width="12" x="11" y="59"/></g></svg>