<svg height="203" viewBox="0 0 172 203" width="172" xmlns="http://www.w3.org/2000/svg" xmlns:xlink="http://www.w3.org/1999/xlink"><defs><circle id="a" cx="60" cy="60" r="60"/><mask id="b" fill="#fff" height="120" width="120" x="0" y="0"><use xlink:href="#a"/></mask><circle id="c" cx="60" cy="60" r="60"/><mask id="d" fill="#fff" height="120" width="120" x="0" y="0"><use xlink:href="#c"/></mask><circle id="e" cx="60" cy="60" r="60"/><mask id="f" fill="#fff" height="120" width="120" x="0" y="0"><use xlink:href="#e"/></mask><circle id="g" cx="60" cy="60" r="60"/><mask id="h" fill="#fff" height="120" width="120" x="0" y="0"><use xlink:href="#g"/></mask><circle id="i" cx="60" cy="60" r="60"/><mask id="j" fill="#fff" height="120" width="120" x="0" y="0"><use xlink:href="#i"/></mask></defs><g fill="none" fill-rule="evenodd" transform="translate(-11 -14)"><rect height="230" rx="5" width="246"/><rect fill="#2a2f45" height="9" opacity=".8" rx="4.5" width="78" x="11" y="14"/><g fill="#8792a2"><rect height="6" opacity=".7" rx="3" width="38" x="28" y="36"/><rect height="6" opacity=".7" rx="3" width="46" x="28" y="52"/><rect height="6" opacity=".7" rx="3" width="60" x="28" y="68"/><rect height="6" opacity=".7" rx="3" width="60" x="28" y="84"/><rect height="6" opacity=".7" rx="3" width="36" x="28" y="100"/></g><rect fill="#009688" height="12" rx="6" width="12" x="11" y="33"/><rect fill="#a1d8d3" height="12" rx="6" width="12" x="11" y="49"/><rect fill="#c3d2ee" height="12" rx="6" width="12" x="11" y="65"/><rect fill="#5c84d1" height="12" rx="6" width="12" x="11" y="81"/><rect fill="#1851be" height="12" rx="6" width="12" x="11" y="97"/><path d="m17 65c3.3137085 0 6 2.6862915 6 6s-2.6862915 6-6 6-6-2.6862915-6-6 2.6862915-6 6-6z" fill="#c3d2ee"/><path d="m17 81c3.3137085 0 6 2.6862915 6 6s-2.6862915 6-6 6-6-2.6862915-6-6 2.6862915-6 6-6z" fill="#5c84d1"/><path d="m17 97c3.3137085 0 6 2.6862915 6 6 0 3.313708-2.6862915 6-6 6s-6-2.686292-6-6c0-3.3137085 2.6862915-6 6-6z" fill="#1851be"/><g opacity=".5" transform="translate(62.962 96.962)"><path d="m60 120c33.137085 0 60-26.862915 60-60s-26.862915-60-60-60-60 26.862915-60 60 26.862915 60 60 60z"/><g stroke-linejoin="round" stroke-width="24"><use mask="url(#b)" stroke="#c3d2ee" stroke-dasharray="330" xlink:href="#a"/><use mask="url(#d)" stroke="#5c84d1" stroke-dasharray="265" xlink:href="#c"/><use mask="url(#f)" stroke="#1851be" stroke-dasharray="250" xlink:href="#e"/><use mask="url(#h)" stroke="#a1d8d3" stroke-dasharray="235" xlink:href="#g"/><use mask="url(#j)" stroke="#009688" stroke-dasharray="165" xlink:href="#i"/></g></g></g></svg>