<svg height="407" viewBox="0 0 788 407" width="788" xmlns="http://www.w3.org/2000/svg" xmlns:xlink="http://www.w3.org/1999/xlink"><mask id="a" fill="#fff"><path d="m44 0h750c2.761424 0 5 2.23857625 5 5v335h-760v-335c0-2.76142375 2.2385763-5 5-5z" fill="#fff" fill-rule="evenodd"/></mask><g fill="none" fill-rule="evenodd" transform="translate(-11 -21)"><g fill="#8792a2" opacity=".4"><rect height="6" rx="3" width="18" x="11" y="55"/><rect height="6" rx="3" width="14" x="15" y="69"/><rect height="6" rx="3" width="14" x="15" y="83"/><rect height="6" rx="3" width="14" x="15" y="97"/><rect height="6" rx="3" width="14" x="15" y="111"/><rect height="6" rx="3" width="14" x="15" y="125"/><rect height="6" rx="3" width="14" x="15" y="139"/><rect height="6" rx="3" width="14" x="15" y="153"/><rect height="6" rx="3" width="14" x="15" y="167"/><rect height="6" rx="3" width="14" x="15" y="181"/><rect height="6" rx="3" width="14" x="15" y="195"/><rect height="6" rx="3" width="14" x="15" y="209"/><rect height="6" rx="3" width="14" x="15" y="223"/><rect height="6" rx="3" width="14" x="15" y="237"/><rect height="6" rx="3" width="14" x="15" y="251"/><rect height="6" rx="3" width="14" x="15" y="265"/><rect height="6" rx="3" width="14" x="15" y="279"/><rect height="6" rx="3" width="14" x="15" y="293"/><rect height="6" rx="3" width="14" x="15" y="307"/><rect height="6" rx="3" width="10" x="19" y="321"/><rect height="6" rx="3" width="8" x="21" y="335"/></g><rect fill="#8792a2" height="4" opacity=".3" rx="2" width="18" x="51" y="350"/><rect fill="#8792a2" height="4" opacity=".3" rx="2" width="18" x="87" y="350"/><rect fill="#2a2f45" height="12" opacity=".801" rx="6" width="65" x="162" y="401"/><rect fill="#2a2f45" height="12" opacity=".801" rx="6" width="65" x="387" y="401"/><rect fill="#2a2f45" height="12" opacity=".801" rx="6" width="65" x="612" y="401"/><rect fill="#2a2f45" height="8" opacity=".151" rx="3" width="88" x="153" y="420"/><rect fill="#2a2f45" height="8" opacity=".151" rx="3" width="88" x="378" y="420"/><rect fill="#2a2f45" height="8" opacity=".151" rx="3" width="88" x="603" y="420"/><g fill="#8792a2"><rect height="4" opacity=".3" rx="2" width="18" x="123" y="350"/><rect height="4" opacity=".3" rx="2" width="18" x="159" y="350"/><rect height="4" opacity=".3" rx="2" width="18" x="195" y="350"/><rect height="4" opacity=".3" rx="2" width="18" x="231" y="350"/><rect height="4" opacity=".3" rx="2" width="18" x="267" y="350"/><rect height="4" opacity=".3" rx="2" width="18" x="303" y="350"/><rect height="4" opacity=".3" rx="2" width="18" x="339" y="350"/><rect height="4" opacity=".3" rx="2" width="18" x="375" y="350"/><rect height="4" opacity=".3" rx="2" width="18" x="411" y="350"/><rect height="4" opacity=".3" rx="2" width="18" x="447" y="350"/><rect height="4" opacity=".3" rx="2" width="18" x="483" y="350"/><rect height="4" opacity=".3" rx="2" width="18" x="519" y="350"/><rect height="4" opacity=".3" rx="2" width="18" x="555" y="350"/><rect height="4" opacity=".3" rx="2" width="18" x="591" y="350"/><rect height="4" opacity=".3" rx="2" width="18" x="627" y="350"/><rect height="4" opacity=".3" rx="2" width="18" x="663" y="350"/><rect height="4" opacity=".3" rx="2" width="18" x="699" y="350"/><rect height="4" opacity=".3" rx="2" width="18" x="735" y="350"/><rect height="4" opacity=".3" rx="2" width="18" x="771" y="350"/></g><g mask="url(#a)"><g fill="#1851be" stroke-width="6" transform="translate(39 60)"><path d="m4.82460423 276h757.18455577l.488194-159.639352-45.657746-72.6072775c-.055724-.0886148-.112265-.176713-.169616-.2642834l-18.191177-27.7764027c-.212227-.3240533-.439645-.6378999-.681492-.9404903-4.241087-5.30629908-11.980773-6.16982384-17.287072-1.9287365l-8.426087 6.7345939c-2.61157 2.0873111-4.54971 4.8983268-5.571983 8.0814263l-31.018702 96.5843402c-1.237439 3.853071-3.772595 7.157877-7.173508 9.351321-8.118576 5.236135-18.944708 2.899454-24.180843-5.219122l-15.348871-23.798274c-.71092-1.102274-1.54702-2.118569-2.491614-3.028601l-25.47982-24.5475501c-3.29563-3.1750478-7.732155-4.8873138-12.306337-4.7496007l-13.811785.415826c-7.869234.2369159-15.312915-3.5675888-19.730343-10.0842835l-10.439253-15.4002337c-1.432141-2.1127283-3.503168-3.7113565-5.909727-4.5617242-6.222192-2.1986381-13.048624 1.0630969-15.247262 7.2852891l-19.263106 54.5149971c-2.886162 8.167897-10.1169 14.021295-18.70674 15.143404l-12.487469 1.631263c-3.302829.431456-6.406141 1.82368-8.924496 4.003754l-13.36288 11.567898c-1.411541 1.221935-2.978915 2.251256-4.661123 3.061039-10.50695 5.057848-23.124711.640478-28.182558-9.866471l-6.712077-13.943372c-1.472315-3.058521-3.87913-5.56959-6.872509-7.170198-7.793065-4.167077-17.488676-1.227632-21.655753 6.565433-2.295407 4.292759-6.114409 7.570927-10.705418 9.189354-10.149848 3.578033-21.278494-1.749475-24.856528-11.899323l-17.875443-50.7074732c-.292169-.8287993-.65801-1.629754-1.093134-2.3932576-4.023139-7.0593093-13.007237-9.5206124-20.066547-5.4974743l-13.760844 7.842379c-2.596578 1.4798037-4.757153 3.6179858-6.263927 6.1990067l-31.332002 53.6699964c-2.849997 4.881887-7.398029 8.543233-12.775877 10.285086l-24.476179 7.92769c-3.123251 1.011602-5.886778 2.905913-7.956748 5.454099l-25.239535 31.070516c-5.848406 7.199539-15.449074 10.181437-24.347166 7.562055l-11.90682-3.505079c-6.538448-1.92476-13.5943833.241738-17.9260453 5.504124l-16.1237806 19.588223c-.0738941.089464-.0738941.089464-.1483883.178429-8.1713501 9.72542-22.6795488 10.985243-32.4049689 2.813893l-3.2157697-2.701907c-1.4299405-1.201444-3.1171723-2.057726-4.9310946-2.502566-6.5291506-1.601187-13.1200912 2.393717-14.7212779 8.922868z" fill-opacity=".1" stroke="#bcc5de"/><path d="m5.79973652 277h756.20026348v-54.998932c0-2.790972-.687158-5.539017-2.000804-8.001508l-30.003462-56.242872c-2.650494-4.968474-7.589357-8.302024-13.188566-8.901794l-23.640482-2.532295c-1.785595-.191268-3.59022-.098404-5.346751.275138l-22.247395 4.731099c-5.291059 1.125189-9.730795 4.701293-11.957204 9.631248l-20.943822 46.376063c-.385314.853204-.829861 1.678399-1.330382 2.469538-5.925435 9.365917-18.321524 12.154979-27.687441 6.229544l-13.713607-8.676041c-2.194455-1.388342-4.137955-3.138279-5.748074-5.175591l-22.905634-28.982926c-4.206027-5.321965-11.188887-7.609731-17.728697-5.808383l-5.126684 1.412112c-4.141137 1.140649-7.696977 3.80663-9.952702 7.462009l-23.516858 38.108827c-1.156474 1.874053-2.592543 3.560373-4.258481 5.000566-9.030815 7.807084-22.68063 6.815054-30.487714-2.215761l-3.674274-4.250202c-6.087692-7.041915-16.70665-7.878356-23.82179-1.87641l-12.60995 10.637069c-4.07438 3.436927-9.21603 5.351974-14.546012 5.417774l-16.345592.201793c-7.030427.086793-13.714388-3.046881-18.144364-8.506712l-16.542406-20.388086c-5.18984-6.396343-14.21858-8.15186-21.42706-4.166202l-13.425279 7.423002c-5.294969 2.927654-11.530294 3.650965-17.354861 2.013202l-22.643741-6.367011c-5.05572-1.421577-9.472677-4.530557-12.516697-8.810174l-19.325826-27.170364c-.599514-.842862-1.274701-1.629253-2.017158-2.349386-6.739462-6.536818-17.502013-6.372543-24.038831.366919l-18.979596 19.567971c-1.249054 1.287774-2.644487 2.424988-4.157843 3.388448l-24.913431 15.860844c-.336487.214221-.66533.440218-.985918.677572l-43.965394 32.550697c-2.029538 1.502611-4.292678 2.660737-6.698576 3.427889l-35.7176305 11.38904c-3.9205765 1.250127-8.1047505 1.425511-12.1161914.507861l-20.3039571-4.644696c-2.7708125-.633846-5.65633-.562825-8.3926048.206566l-25.6191303 7.203636c-3.7491349 1.054189-7.0226413 3.363689-9.2730184 6.542231z" fill-opacity=".7" stroke="#4967ac"/></g><g transform="translate(59 21)"><rect fill="#d8e0f1" height="14" rx="3" width="14" y="19"/><rect fill="#527ccd" height="14" rx="3" width="14" y="40"/><rect fill="#8792a2" height="6" opacity=".7" rx="3" width="48" x="22" y="23"/><rect fill="#2a2f45" height="9" opacity=".8" rx="4.5" width="98"/><rect fill="#8792a2" height="6" opacity=".7" rx="3" width="48" x="22" y="44"/></g></g></g></svg>