<svg height="76" viewBox="0 0 70 76" width="70" xmlns="http://www.w3.org/2000/svg" xmlns:xlink="http://www.w3.org/1999/xlink"><linearGradient id="a" x1="50%" x2="50%" y1="0%" y2="100%"><stop offset="0" stop-color="#3f6abc"/><stop offset="1" stop-color="#1851be"/></linearGradient><filter id="b" height="107.6%" width="108.2%" x="-4.1%" y="-3.8%"><feGaussianBlur in="SourceGraphic" stdDeviation=".65"/></filter><linearGradient id="c" x1="0%" x2="0%" y1="0%" y2="100%"><stop offset="0" stop-color="#fff"/><stop offset="1" stop-color="#aec3eb"/></linearGradient><filter id="d" height="108.5%" width="108.5%" x="-4.2%" y="-4.2%"><feGaussianBlur in="SourceGraphic" stdDeviation=".65"/></filter><mask id="e" fill="#fff"><path d="m.5 13.84c0-7.367 5.973-13.34 13.34-13.34h48.32c7.367 0 13.34 5.973 13.34 13.34v48.32c0 7.367-5.973 13.34-13.34 13.34h-48.32c-7.367 0-13.34-5.973-13.34-13.34z" fill="#fff" fill-rule="evenodd"/></mask><g fill="none" fill-rule="evenodd" transform="translate(-3 1)"><path d="m.5 13.84c0-7.367 5.973-13.34 13.34-13.34h48.32c7.367 0 13.34 5.973 13.34 13.34v48.32c0 7.367-5.973 13.34-13.34 13.34h-48.32c-7.367 0-13.34-5.973-13.34-13.34z" mask="url(#e)"/><path d="m.5 13.84c0-7.367 5.973-13.34 13.34-13.34h48.32c7.367 0 13.34 5.973 13.34 13.34v48.32c0 7.367-5.973 13.34-13.34 13.34h-48.32c-7.367 0-13.34-5.973-13.34-13.34z"/><path d="m.5 13.84c0-7.367 5.973-13.34 13.34-13.34h48.32c7.367 0 13.34 5.973 13.34 13.34v48.32c0 7.367-5.973 13.34-13.34 13.34h-48.32c-7.367 0-13.34-5.973-13.34-13.34z"/><g fill-rule="nonzero" transform="translate(4)"><g fill="url(#a)" stroke="#fff" stroke-opacity=".01" stroke-width="1.68"><path d="m63.8208333 11.9313973-27.2-11.40736256c-1.6733631-.69871299-3.5541368-.69871299-5.2275 0l-27.19999997 11.40736256c-2.53583333 1.0551811-4.19333333 3.5505416-4.19333333 6.3168271 0 28.3045184 16.2208333 47.8681452 31.3791667 54.2277499 1.6716666.6987009 3.5558333.6987009 5.2275 0 12.1408333-5.0905356 31.3933333-22.6721332 31.3933333-54.2277499 0-2.7662855-1.6575-5.261646-4.1791667-6.3168271z" filter="url(#b)"/><path d="m63.8208333 12.9313973-27.2-11.40736256c-1.6733631-.69871298-3.5541368-.69871298-5.2275 0l-27.19999997 11.40736256c-2.53583333 1.0551811-4.19333333 3.5505416-4.19333333 6.3168271 0 28.3045184 16.2208333 47.8681452 31.3791667 54.2277499 1.6716666.6987009 3.5558333.6987009 5.2275 0 12.1408333-5.0905356 31.3933333-22.6721332 31.3933333-54.2277499 0-2.7662855-1.6575-5.261646-4.1791667-6.3168271z"/></g><g fill="url(#c)"><path d="m35 14c-12.7024919 0-23 10.2974153-23 23s10.2975081 23 23 23 23-10.2975081 23-23-10.2974153-23-23-23zm11.9738139 11.0262641c6.1031845 6.1031886 6.5276695 15.4315145 1.9281803 21.9737359l-23.9019942-23.9018243c6.546693-4.6025697 15.8739866-4.17165 21.9738139 1.9280884zm-23.9476278 23.9474468c-6.1031845-6.1031817-6.5276695-15.431497-1.9281803-21.9737109l23.9019942 23.9017971c-6.5465997 4.6025645-15.8739866 4.1717385-21.9738139-1.9280862z" filter="url(#d)"/><path d="m35 14c-12.7024919 0-23 10.2974153-23 23s10.2975081 23 23 23 23-10.2975081 23-23-10.2974153-23-23-23zm11.9738139 11.0262641c6.1031845 6.1031886 6.5276695 15.4315145 1.9281803 21.9737359l-23.9019942-23.9018243c6.546693-4.6025697 15.8739866-4.17165 21.9738139 1.9280884zm-23.9476278 23.9474468c-6.1031845-6.1031817-6.5276695-15.431497-1.9281803-21.9737109l23.9019942 23.9017971c-6.5465997 4.6025645-15.8739866 4.1717385-21.9738139-1.9280862z"/></g></g></g></svg>