<svg xmlns="http://www.w3.org/2000/svg" xmlns:xlink="http://www.w3.org/1999/xlink" width="70" height="74" viewBox="0 0 70 74">
  <defs>
    <path id="antispam-a" d="M0.5,13.84 C0.5,6.473 6.473,0.5 13.84,0.5 L62.16,0.5 C69.527,0.5 75.5,6.473 75.5,13.84 L75.5,62.16 C75.5,69.527 69.527,75.5 62.16,75.5 L13.84,75.5 C6.473,75.5 0.5,69.527 0.5,62.16 L0.5,13.84 Z"/>
    <path id="antispam-c" d="M0.5,13.84 C0.5,6.473 6.473,0.5 13.84,0.5 L62.16,0.5 C69.527,0.5 75.5,6.473 75.5,13.84 L75.5,62.16 C75.5,69.527 69.527,75.5 62.16,75.5 L13.84,75.5 C6.473,75.5 0.5,69.527 0.5,62.16 L0.5,13.84 Z"/>
    <linearGradient id="antispam-d" x1="50%" x2="50%" y1="0%" y2="100%">
      <stop offset="0%" stop-color="#3F6ABC"/>
      <stop offset="100%" stop-color="#1851BE"/>
    </linearGradient>
    <filter id="antispam-e" width="108.2%" height="107.6%" x="-4.1%" y="-3.8%" filterUnits="objectBoundingBox">
      <feGaussianBlur in="SourceGraphic" stdDeviation=".65"/>
    </filter>
    <linearGradient id="antispam-g" x1="0%" x2="0%" y1="0%" y2="100%">
      <stop offset="0%" stop-color="#FFF"/>
      <stop offset="100%" stop-color="#AEC3EB"/>
    </linearGradient>
  </defs>
  <g fill="none" fill-rule="evenodd" transform="translate(-3 -7)">
    <g transform="translate(0 5)">
      <mask id="antispam-b" fill="#fff">
        <use xlink:href="#antispam-a"/>
      </mask>
      <path d="M0.5,13.84 C0.5,6.473 6.473,0.5 13.84,0.5 L62.16,0.5 C69.527,0.5 75.5,6.473 75.5,13.84 L75.5,62.16 C75.5,69.527 69.527,75.5 62.16,75.5 L13.84,75.5 C6.473,75.5 0.5,69.527 0.5,62.16 L0.5,13.84 Z" mask="url(#antispam-b)"/>
      <path d="M0.5,13.84 C0.5,6.473 6.473,0.5 13.84,0.5 L62.16,0.5 C69.527,0.5 75.5,6.473 75.5,13.84 L75.5,62.16 C75.5,69.527 69.527,75.5 62.16,75.5 L13.84,75.5 C6.473,75.5 0.5,69.527 0.5,62.16 L0.5,13.84 Z"/>
      <path d="M0.5,13.84 C0.5,6.473 6.473,0.5 13.84,0.5 L62.16,0.5 C69.527,0.5 75.5,6.473 75.5,13.84 L75.5,62.16 C75.5,69.527 69.527,75.5 62.16,75.5 L13.84,75.5 C6.473,75.5 0.5,69.527 0.5,62.16 L0.5,13.84 Z"/>
      <mask id="antispam-f" fill="#fff">
        <use xlink:href="#antispam-c"/>
      </mask>
      <path fill="url(#antispam-d)" fill-rule="nonzero" stroke="#FFF" stroke-opacity=".01" stroke-width="1.68" d="M67.8208333,14.9313973 L40.6208333,3.52403474 C38.9474702,2.82532175 37.0666965,2.82532175 35.3933333,3.52403474 L8.19333333,14.9313973 C5.6575,15.9865784 4,18.4819389 4,21.2482244 C4,49.5527428 20.2208333,69.1163696 35.3791667,75.4759743 C37.0508333,76.1746752 38.935,76.1746752 40.6066667,75.4759743 C52.7475,70.3854387 72,52.8038411 72,21.2482244 C72,18.4819389 70.3425,15.9865784 67.8208333,14.9313973 Z" filter="url(#antispam-e)" mask="url(#antispam-f)"/>
      <path fill="url(#antispam-d)" fill-rule="nonzero" stroke="#FFF" stroke-opacity=".01" stroke-width="1.68" d="M67.8208333,14.9313973 L40.6208333,3.52403474 C38.9474702,2.82532175 37.0666965,2.82532175 35.3933333,3.52403474 L8.19333333,14.9313973 C5.6575,15.9865784 4,18.4819389 4,21.2482244 C4,49.5527428 20.2208333,69.1163696 35.3791667,75.4759743 C37.0508333,76.1746752 38.935,76.1746752 40.6066667,75.4759743 C52.7475,70.3854387 72,52.8038411 72,21.2482244 C72,18.4819389 70.3425,15.9865784 67.8208333,14.9313973 Z" mask="url(#antispam-f)"/>
    </g>
    <path fill="url(#antispam-g)" fill-rule="nonzero" d="M28,20 C15.2975081,20 5,30.2974153 5,43 C5,55.7025847 15.2975081,66 28,66 C40.7024919,66 51,55.7024919 51,43 C51,30.2975081 40.7025847,20 28,20 Z M39.9738139,31.0262641 C46.0769984,37.1294527 46.5014834,46.4577786 41.9019942,53 L18,29.0981757 C24.546693,24.495606 33.8739866,24.9265257 39.9738139,31.0262641 Z M16.0261861,54.9737109 C9.92300162,48.8705292 9.4985166,39.5422139 14.0980058,33 L38,56.9017971 C31.4534003,61.5043616 22.1260134,61.0735356 16.0261861,54.9737109 Z" transform="translate(11)"/>
  </g>
</svg>
