<svg xmlns="http://www.w3.org/2000/svg" xmlns:xlink="http://www.w3.org/1999/xlink" width="84" height="80" viewBox="0 0 84 80">
  <defs>
    <path id="apis-a" d="M0.5,13.84 C0.5,6.473 6.473,0.5 13.84,0.5 L62.16,0.5 C69.527,0.5 75.5,6.473 75.5,13.84 L75.5,62.16 C75.5,69.527 69.527,75.5 62.16,75.5 L13.84,75.5 C6.473,75.5 0.5,69.527 0.5,62.16 L0.5,13.84 Z"/>
    <linearGradient id="apis-c" x1="50%" x2="50%" y1="0%" y2="100%">
      <stop offset="0%" stop-color="#3F6ABC"/>
      <stop offset="100%" stop-color="#1851BE"/>
    </linearGradient>
    <filter id="apis-d" width="110.6%" height="110.6%" x="-5.3%" y="-5.3%" filterUnits="objectBoundingBox">
      <feGaussianBlur in="SourceGraphic" stdDeviation="1.05"/>
    </filter>
    <radialGradient id="apis-e" cx="57.581%" cy="0%" r="100%" fx="57.581%" fy="0%" gradientTransform="matrix(0 1 -.88 0 .576 -.576)">
      <stop offset="0%" stop-color="#FFF"/>
      <stop offset="100%" stop-color="#BDCEEE"/>
    </radialGradient>
    <filter id="apis-f" width="105.2%" height="105.9%" x="-2.6%" y="-3%" filterUnits="objectBoundingBox">
      <feGaussianBlur in="SourceGraphic" stdDeviation=".65"/>
    </filter>
    <radialGradient id="apis-g" cx="57.581%" cy="0%" r="111.779%" fx="57.581%" fy="0%" gradientTransform="matrix(0 1 -.88 0 .576 -.576)">
      <stop offset="0%" stop-color="#FFF"/>
      <stop offset="100%" stop-color="#BDCEEE"/>
    </radialGradient>
  </defs>
  <g fill="none" fill-rule="evenodd" transform="translate(2 2)">
    <mask id="apis-b" fill="#fff">
      <use xlink:href="#apis-a"/>
    </mask>
    <path d="M0.5,13.84 C0.5,6.473 6.473,0.5 13.84,0.5 L62.16,0.5 C69.527,0.5 75.5,6.473 75.5,13.84 L75.5,62.16 C75.5,69.527 69.527,75.5 62.16,75.5 L13.84,75.5 C6.473,75.5 0.5,69.527 0.5,62.16 L0.5,13.84 Z" mask="url(#apis-b)"/>
    <path d="M0.5,13.84 C0.5,6.473 6.473,0.5 13.84,0.5 L62.16,0.5 C69.527,0.5 75.5,6.473 75.5,13.84 L75.5,62.16 C75.5,69.527 69.527,75.5 62.16,75.5 L13.84,75.5 C6.473,75.5 0.5,69.527 0.5,62.16 L0.5,13.84 Z"/>
    <path d="M0.5,13.84 C0.5,6.473 6.473,0.5 13.84,0.5 L62.16,0.5 C69.527,0.5 75.5,6.473 75.5,13.84 L75.5,62.16 C75.5,69.527 69.527,75.5 62.16,75.5 L13.84,75.5 C6.473,75.5 0.5,69.527 0.5,62.16 L0.5,13.84 Z"/>
    <path fill="url(#apis-c)" fill-rule="nonzero" stroke="#FFF" stroke-opacity=".01" stroke-width="1.68" d="M0.5,13.84 C0.5,6.473 6.473,0.5 13.84,0.5 L62.16,0.5 C69.527,0.5 75.5,6.473 75.5,13.84 L75.5,62.16 C75.5,69.527 69.527,75.5 62.16,75.5 L13.84,75.5 C6.473,75.5 0.5,69.527 0.5,62.16 L0.5,13.84 Z" filter="url(#apis-d)"/>
    <path fill="url(#apis-c)" fill-rule="nonzero" stroke="#FFF" stroke-opacity=".01" stroke-width="1.68" d="M0.5,13.84 C0.5,6.473 6.473,0.5 13.84,0.5 L62.16,0.5 C69.527,0.5 75.5,6.473 75.5,13.84 L75.5,62.16 C75.5,69.527 69.527,75.5 62.16,75.5 L13.84,75.5 C6.473,75.5 0.5,69.527 0.5,62.16 L0.5,13.84 Z"/>
    <g fill-rule="nonzero" transform="translate(6 2)">
      <path fill="url(#apis-e)" d="M60.6170671,21.260643 L59.6944909,22.8533455 C59.356963,23.4436479 58.6369035,23.688679 57.9956005,23.4547856 C56.6679908,22.9647233 55.4528904,22.2630432 54.3840521,21.3831586 C53.8665093,20.9599229 53.7314982,20.2136916 54.0690261,19.6345271 L54.9916023,18.0418245 C54.2152881,17.1508021 53.6077379,16.1149886 53.2027045,14.9900728 L51.3463011,14.9900728 C50.6712453,14.9900728 50.086197,14.5111483 49.9736877,13.8428815 C49.7486691,12.5063478 49.7374182,11.1029876 49.9736877,9.71076505 C50.086197,9.04249825 50.6712453,8.55243592 51.3463011,8.55243592 L53.2027045,8.55243592 C53.6077379,7.42752014 54.2152881,6.39170659 54.9916023,5.50068419 L54.0690261,3.90798164 C53.7314982,3.32881707 53.8552584,2.58258581 54.3840521,2.15935017 C55.4528904,1.27946554 56.6792417,0.577785397 57.9956005,0.0877230742 C58.6369035,-0.146170307 59.356963,0.0988608542 59.6944909,0.689163198 L60.6170671,2.28186575 C61.7984147,2.07024793 63.0022642,2.07024793 64.1836118,2.28186575 L65.106188,0.689163198 C65.4437159,0.0988608542 66.1637754,-0.146170307 66.8050784,0.0877230742 C68.1326881,0.577785397 69.3477885,1.27946554 70.4166268,2.15935017 C70.9341696,2.58258581 71.0691807,3.32881707 70.7316529,3.90798164 L69.8090766,5.50068419 C70.5853908,6.39170659 71.192941,7.42752014 71.5979744,8.55243592 L73.4543778,8.55243592 C74.1294336,8.55243592 74.7144819,9.03136047 74.8269912,9.69962727 C75.0520098,11.0361609 75.0632608,12.4395212 74.8269912,13.8317437 C74.7144819,14.5000105 74.1294336,14.9900728 73.4543778,14.9900728 L71.5979744,14.9900728 C71.192941,16.1149886 70.5853908,17.1508021 69.8090766,18.0418245 L70.7316529,19.6345271 C71.0691807,20.2136916 70.9454205,20.9599229 70.4166268,21.3831586 C69.3477885,22.2630432 68.1214372,22.9647233 66.8050784,23.4547856 C66.1637754,23.688679 65.4437159,23.4436479 65.106188,22.8533455 L64.1836118,21.260643 C63.0135151,21.4722608 61.7984147,21.4722608 60.6170671,21.260643 L60.6170671,21.260643 Z M59.4357195,14.7116283 C63.7673274,18.0084112 68.7064855,13.1189257 65.3762103,8.83088042 C61.0446024,5.52295975 56.1054443,10.423583 59.4357195,14.7116283 L59.4357195,14.7116283 Z M43.4633976,38.0193385 L47.2549609,39.8904855 C48.3913048,40.5364768 48.8863457,41.9064237 48.4363085,43.1315795 C47.4349758,45.8269223 45.4660631,48.2995095 43.6434125,50.4602388 C42.8108437,51.4515012 41.3707247,51.6965324 40.2343808,51.0505412 L36.9603603,49.1793941 C35.1602116,50.70527 33.0675386,51.919288 30.7835999,52.7100704 L30.7835999,56.4523645 C30.7835999,57.744347 29.8497728,58.858125 28.5671668,59.0808806 C25.7994381,59.5486673 22.8966983,59.5709429 20.0277112,59.0808806 C18.7338543,58.858125 17.7775253,57.7554848 17.7775253,56.4523645 L17.7775253,52.7100704 C15.4935866,51.9081502 13.4009136,50.70527 11.6007649,49.1793941 L8.32674438,51.0394034 C7.20165142,51.6853946 5.7502815,51.4403635 4.9177127,50.449101 C3.0950621,48.2883717 1.17115314,45.8157845 0.169820399,43.1315795 C-0.280216787,41.9175615 0.214824117,40.5476146 1.35116801,39.8904855 L5.09772758,38.0193385 C4.65894132,35.6915424 4.65894132,33.2969197 5.09772758,30.9579859 L1.35116801,29.0757011 C0.214824117,28.4297098 -0.291467716,27.0597629 0.169820399,25.8457449 C1.17115314,23.1504021 3.0950621,20.6778149 4.9177127,18.5170856 C5.7502815,17.5258232 7.19040049,17.280792 8.32674438,17.9267832 L11.6007649,19.7979303 C13.4009136,18.2720544 15.4935866,17.0580364 17.7775253,16.267254 L17.7775253,12.5138221 C17.7775253,11.2329774 18.7001015,10.1191994 19.9827075,9.89644382 C22.7504362,9.42865706 25.6644269,9.4063815 28.533414,9.88530604 C29.8272709,10.1080616 30.7835999,11.2107019 30.7835999,12.5138221 L30.7835999,16.2561162 C33.0675386,17.0580364 35.1602116,18.2609166 36.9603603,19.7867925 L40.2343808,17.9156455 C41.3594738,17.2696542 42.8108437,17.5146854 43.6434125,18.5059478 C45.4660631,20.6666771 47.3787211,23.1392643 48.3800539,25.8346071 C48.8300911,27.0486251 48.3913048,28.4185721 47.2549609,29.0757011 L43.4633976,30.9468481 C43.9021839,33.285782 43.9021839,35.6804047 43.4633976,38.0193385 Z M30.2323044,40.3694101 C36.8928547,31.7933194 27.0032876,22.0032108 18.3400718,28.5967765 C11.6795214,37.1728672 21.5690886,46.9629759 30.2323044,40.3694101 Z M60.6170671,63.7181343 L59.6944909,65.3108368 C59.356963,65.9011391 58.6369035,66.1461703 57.9956005,65.9122769 C56.6679908,65.4222146 55.4528904,64.7205345 54.3840521,63.8406498 C53.8665093,63.4174142 53.7314982,62.6711829 54.0690261,62.0920184 L54.9916023,60.4993158 C54.2152881,59.6082934 53.6077379,58.5724799 53.2027045,57.4475641 L51.3463011,57.4475641 C50.6712453,57.4475641 50.086197,56.9686395 49.9736877,56.3003727 C49.7486691,54.9638391 49.7374182,53.5604788 49.9736877,52.1682563 C50.086197,51.4999895 50.6712453,51.0099272 51.3463011,51.0099272 L53.2027045,51.0099272 C53.6077379,49.8850114 54.2152881,48.8491979 54.9916023,47.9581755 L54.0690261,46.3654729 C53.7314982,45.7863084 53.8552584,45.0400771 54.3840521,44.6168414 C55.4528904,43.7369568 56.6792417,43.0352767 57.9956005,42.5452144 C58.6369035,42.311321 59.356963,42.5563521 59.6944909,43.1466545 L60.6170671,44.739357 C61.7984147,44.5277392 63.0022642,44.5277392 64.1836118,44.739357 L65.106188,43.1466545 C65.4437159,42.5563521 66.1637754,42.311321 66.8050784,42.5452144 C68.1326881,43.0352767 69.3477885,43.7369568 70.4166268,44.6168414 C70.9341696,45.0400771 71.0691807,45.7863084 70.7316529,46.3654729 L69.8090766,47.9581755 C70.5853908,48.8491979 71.192941,49.8850114 71.5979744,51.0099272 L73.4543778,51.0099272 C74.1294336,51.0099272 74.7144819,51.4888517 74.8269912,52.1571185 C75.0520098,53.4936522 75.0632608,54.8970124 74.8269912,56.289235 C74.7144819,56.9575018 74.1294336,57.4475641 73.4543778,57.4475641 L71.5979744,57.4475641 C71.192941,58.5724799 70.5853908,59.6082934 69.8090766,60.4993158 L70.7316529,62.0920184 C71.0691807,62.6711829 70.9454205,63.4174142 70.4166268,63.8406498 C69.3477885,64.7205345 68.1214372,65.4222146 66.8050784,65.9122769 C66.1637754,66.1461703 65.4437159,65.9011391 65.106188,65.3108368 L64.1836118,63.7181343 C63.0135151,63.9297521 61.7984147,63.9297521 60.6170671,63.7181343 Z M59.4357195,57.1579818 C63.7673274,60.4547647 68.7064855,55.5652792 65.3762103,51.2772339 C61.0446024,47.980451 56.1054443,52.8699365 59.4357195,57.1579818 L59.4357195,57.1579818 Z" filter="url(#apis-f)"/>
      <path fill="url(#apis-g)" d="M60.6170671,21.260643 L59.6944909,22.8533455 C59.356963,23.4436479 58.6369035,23.688679 57.9956005,23.4547856 C56.6679908,22.9647233 55.4528904,22.2630432 54.3840521,21.3831586 C53.8665093,20.9599229 53.7314982,20.2136916 54.0690261,19.6345271 L54.9916023,18.0418245 C54.2152881,17.1508021 53.6077379,16.1149886 53.2027045,14.9900728 L51.3463011,14.9900728 C50.6712453,14.9900728 50.086197,14.5111483 49.9736877,13.8428815 C49.7486691,12.5063478 49.7374182,11.1029876 49.9736877,9.71076505 C50.086197,9.04249825 50.6712453,8.55243592 51.3463011,8.55243592 L53.2027045,8.55243592 C53.6077379,7.42752014 54.2152881,6.39170659 54.9916023,5.50068419 L54.0690261,3.90798164 C53.7314982,3.32881707 53.8552584,2.58258581 54.3840521,2.15935017 C55.4528904,1.27946554 56.6792417,0.577785397 57.9956005,0.0877230742 C58.6369035,-0.146170307 59.356963,0.0988608542 59.6944909,0.689163198 L60.6170671,2.28186575 C61.7984147,2.07024793 63.0022642,2.07024793 64.1836118,2.28186575 L65.106188,0.689163198 C65.4437159,0.0988608542 66.1637754,-0.146170307 66.8050784,0.0877230742 C68.1326881,0.577785397 69.3477885,1.27946554 70.4166268,2.15935017 C70.9341696,2.58258581 71.0691807,3.32881707 70.7316529,3.90798164 L69.8090766,5.50068419 C70.5853908,6.39170659 71.192941,7.42752014 71.5979744,8.55243592 L73.4543778,8.55243592 C74.1294336,8.55243592 74.7144819,9.03136047 74.8269912,9.69962727 C75.0520098,11.0361609 75.0632608,12.4395212 74.8269912,13.8317437 C74.7144819,14.5000105 74.1294336,14.9900728 73.4543778,14.9900728 L71.5979744,14.9900728 C71.192941,16.1149886 70.5853908,17.1508021 69.8090766,18.0418245 L70.7316529,19.6345271 C71.0691807,20.2136916 70.9454205,20.9599229 70.4166268,21.3831586 C69.3477885,22.2630432 68.1214372,22.9647233 66.8050784,23.4547856 C66.1637754,23.688679 65.4437159,23.4436479 65.106188,22.8533455 L64.1836118,21.260643 C63.0135151,21.4722608 61.7984147,21.4722608 60.6170671,21.260643 L60.6170671,21.260643 Z M59.4357195,14.7116283 C63.7673274,18.0084112 68.7064855,13.1189257 65.3762103,8.83088042 C61.0446024,5.52295975 56.1054443,10.423583 59.4357195,14.7116283 L59.4357195,14.7116283 Z M43.4633976,38.0193385 L47.2549609,39.8904855 C48.3913048,40.5364768 48.8863457,41.9064237 48.4363085,43.1315795 C47.4349758,45.8269223 45.4660631,48.2995095 43.6434125,50.4602388 C42.8108437,51.4515012 41.3707247,51.6965324 40.2343808,51.0505412 L36.9603603,49.1793941 C35.1602116,50.70527 33.0675386,51.919288 30.7835999,52.7100704 L30.7835999,56.4523645 C30.7835999,57.744347 29.8497728,58.858125 28.5671668,59.0808806 C25.7994381,59.5486673 22.8966983,59.5709429 20.0277112,59.0808806 C18.7338543,58.858125 17.7775253,57.7554848 17.7775253,56.4523645 L17.7775253,52.7100704 C15.4935866,51.9081502 13.4009136,50.70527 11.6007649,49.1793941 L8.32674438,51.0394034 C7.20165142,51.6853946 5.7502815,51.4403635 4.9177127,50.449101 C3.0950621,48.2883717 1.17115314,45.8157845 0.169820399,43.1315795 C-0.280216787,41.9175615 0.214824117,40.5476146 1.35116801,39.8904855 L5.09772758,38.0193385 C4.65894132,35.6915424 4.65894132,33.2969197 5.09772758,30.9579859 L1.35116801,29.0757011 C0.214824117,28.4297098 -0.291467716,27.0597629 0.169820399,25.8457449 C1.17115314,23.1504021 3.0950621,20.6778149 4.9177127,18.5170856 C5.7502815,17.5258232 7.19040049,17.280792 8.32674438,17.9267832 L11.6007649,19.7979303 C13.4009136,18.2720544 15.4935866,17.0580364 17.7775253,16.267254 L17.7775253,12.5138221 C17.7775253,11.2329774 18.7001015,10.1191994 19.9827075,9.89644382 C22.7504362,9.42865706 25.6644269,9.4063815 28.533414,9.88530604 C29.8272709,10.1080616 30.7835999,11.2107019 30.7835999,12.5138221 L30.7835999,16.2561162 C33.0675386,17.0580364 35.1602116,18.2609166 36.9603603,19.7867925 L40.2343808,17.9156455 C41.3594738,17.2696542 42.8108437,17.5146854 43.6434125,18.5059478 C45.4660631,20.6666771 47.3787211,23.1392643 48.3800539,25.8346071 C48.8300911,27.0486251 48.3913048,28.4185721 47.2549609,29.0757011 L43.4633976,30.9468481 C43.9021839,33.285782 43.9021839,35.6804047 43.4633976,38.0193385 Z M30.2323044,40.3694101 C36.8928547,31.7933194 27.0032876,22.0032108 18.3400718,28.5967765 C11.6795214,37.1728672 21.5690886,46.9629759 30.2323044,40.3694101 Z M60.6170671,63.7181343 L59.6944909,65.3108368 C59.356963,65.9011391 58.6369035,66.1461703 57.9956005,65.9122769 C56.6679908,65.4222146 55.4528904,64.7205345 54.3840521,63.8406498 C53.8665093,63.4174142 53.7314982,62.6711829 54.0690261,62.0920184 L54.9916023,60.4993158 C54.2152881,59.6082934 53.6077379,58.5724799 53.2027045,57.4475641 L51.3463011,57.4475641 C50.6712453,57.4475641 50.086197,56.9686395 49.9736877,56.3003727 C49.7486691,54.9638391 49.7374182,53.5604788 49.9736877,52.1682563 C50.086197,51.4999895 50.6712453,51.0099272 51.3463011,51.0099272 L53.2027045,51.0099272 C53.6077379,49.8850114 54.2152881,48.8491979 54.9916023,47.9581755 L54.0690261,46.3654729 C53.7314982,45.7863084 53.8552584,45.0400771 54.3840521,44.6168414 C55.4528904,43.7369568 56.6792417,43.0352767 57.9956005,42.5452144 C58.6369035,42.311321 59.356963,42.5563521 59.6944909,43.1466545 L60.6170671,44.739357 C61.7984147,44.5277392 63.0022642,44.5277392 64.1836118,44.739357 L65.106188,43.1466545 C65.4437159,42.5563521 66.1637754,42.311321 66.8050784,42.5452144 C68.1326881,43.0352767 69.3477885,43.7369568 70.4166268,44.6168414 C70.9341696,45.0400771 71.0691807,45.7863084 70.7316529,46.3654729 L69.8090766,47.9581755 C70.5853908,48.8491979 71.192941,49.8850114 71.5979744,51.0099272 L73.4543778,51.0099272 C74.1294336,51.0099272 74.7144819,51.4888517 74.8269912,52.1571185 C75.0520098,53.4936522 75.0632608,54.8970124 74.8269912,56.289235 C74.7144819,56.9575018 74.1294336,57.4475641 73.4543778,57.4475641 L71.5979744,57.4475641 C71.192941,58.5724799 70.5853908,59.6082934 69.8090766,60.4993158 L70.7316529,62.0920184 C71.0691807,62.6711829 70.9454205,63.4174142 70.4166268,63.8406498 C69.3477885,64.7205345 68.1214372,65.4222146 66.8050784,65.9122769 C66.1637754,66.1461703 65.4437159,65.9011391 65.106188,65.3108368 L64.1836118,63.7181343 C63.0135151,63.9297521 61.7984147,63.9297521 60.6170671,63.7181343 Z M59.4357195,57.1579818 C63.7673274,60.4547647 68.7064855,55.5652792 65.3762103,51.2772339 C61.0446024,47.980451 56.1054443,52.8699365 59.4357195,57.1579818 L59.4357195,57.1579818 Z"/>
    </g>
  </g>
</svg>
