<svg xmlns="http://www.w3.org/2000/svg" xmlns:xlink="http://www.w3.org/1999/xlink" width="169" height="155" viewBox="0 0 169 155">
  <defs>
    <path id="apis-a" d="M0.986842105,27.3157895 C0.986842105,12.7756579 12.7756579,0.986842105 27.3157895,0.986842105 L122.684211,0.986842105 C137.224342,0.986842105 149.013158,12.7756579 149.013158,27.3157895 L149.013158,122.684211 C149.013158,137.224342 137.224342,149.013158 122.684211,149.013158 L27.3157895,149.013158 C12.7756579,149.013158 0.986842105,137.224342 0.986842105,122.684211 L0.986842105,27.3157895 Z"/>
    <linearGradient id="apis-c" x1="50%" x2="50%" y1="0%" y2="100%">
      <stop offset="0%" stop-color="#3F6ABC"/>
      <stop offset="100%" stop-color="#1851BE"/>
    </linearGradient>
    <filter id="apis-d" width="105.4%" height="105.4%" x="-2.7%" y="-2.7%" filterUnits="objectBoundingBox">
      <feGaussianBlur in="SourceGraphic" stdDeviation="1.05"/>
    </filter>
    <radialGradient id="apis-g" cx="18.205%" cy="0%" r="100%" fx="18.205%" fy="0%">
      <stop offset="0%" stop-color="#3F6ABC"/>
      <stop offset="100%" stop-color="#1851BE"/>
    </radialGradient>
    <path id="apis-f" d="M0.986842105,27.3157895 C0.986842105,12.7756579 12.7756579,0.986842105 27.3157895,0.986842105 L122.684211,0.986842105 C137.224342,0.986842105 149.013158,12.7756579 149.013158,27.3157895 L149.013158,122.684211 C149.013158,137.224342 137.224342,149.013158 122.684211,149.013158 L27.3157895,149.013158 C12.7756579,149.013158 0.986842105,137.224342 0.986842105,122.684211 L0.986842105,27.3157895 Z"/>
    <filter id="apis-e" width="107.1%" height="107.1%" x="-3.5%" y="-2.5%" filterUnits="objectBoundingBox">
      <feMorphology in="SourceAlpha" operator="dilate" radius=".75" result="shadowSpreadOuter1"/>
      <feOffset dy="1.5" in="shadowSpreadOuter1" result="shadowOffsetOuter1"/>
      <feGaussianBlur in="shadowOffsetOuter1" result="shadowBlurOuter1" stdDeviation="1.25"/>
      <feComposite in="shadowBlurOuter1" in2="SourceAlpha" operator="out" result="shadowBlurOuter1"/>
      <feColorMatrix in="shadowBlurOuter1" values="0 0 0 0 0.0941176471   0 0 0 0 0.317647059   0 0 0 0 0.745098039  0 0 0 0.3 0"/>
    </filter>
    <filter id="apis-h" width="111.8%" height="111.8%" x="-5.9%" y="-4.9%" filterUnits="objectBoundingBox">
      <feGaussianBlur in="SourceAlpha" result="shadowBlurInner1" stdDeviation="5"/>
      <feOffset dy="1" in="shadowBlurInner1" result="shadowOffsetInner1"/>
      <feComposite in="shadowOffsetInner1" in2="SourceAlpha" k2="-1" k3="1" operator="arithmetic" result="shadowInnerInner1"/>
      <feColorMatrix in="shadowInnerInner1" result="shadowMatrixInner1" values="0 0 0 0 0.0941176471   0 0 0 0 0.317647059   0 0 0 0 0.745098039  0 0 0 0.0490329983 0"/>
      <feOffset dy="1" in="SourceAlpha" result="shadowOffsetInner2"/>
      <feComposite in="shadowOffsetInner2" in2="SourceAlpha" k2="-1" k3="1" operator="arithmetic" result="shadowInnerInner2"/>
      <feColorMatrix in="shadowInnerInner2" result="shadowMatrixInner2" values="0 0 0 0 0.0941176471   0 0 0 0 0.317647059   0 0 0 0 0.745098039  0 0 0 0.0528299825 0"/>
      <feMerge>
        <feMergeNode in="shadowMatrixInner1"/>
        <feMergeNode in="shadowMatrixInner2"/>
      </feMerge>
    </filter>
    <radialGradient id="apis-i" cx="57.581%" cy="0%" r="100%" fx="57.581%" fy="0%" gradientTransform="matrix(0 1 -.88 0 .576 -.576)">
      <stop offset="0%" stop-color="#FFF"/>
      <stop offset="100%" stop-color="#BDCEEE"/>
    </radialGradient>
    <filter id="apis-j" width="102.6%" height="103%" x="-1.3%" y="-1.5%" filterUnits="objectBoundingBox">
      <feGaussianBlur in="SourceGraphic" stdDeviation=".65"/>
    </filter>
    <radialGradient id="apis-m" cx="22.09%" cy="0%" r="106.679%" fx="22.09%" fy="0%" gradientTransform="matrix(0 1 -.88 0 .22 -.22)">
      <stop offset="0%" stop-color="#FFF"/>
      <stop offset="100%" stop-color="#AEC3EB"/>
    </radialGradient>
    <path id="apis-l" d="M119.638948,41.9617953 L117.818074,45.1052872 C117.151901,46.2703576 115.730731,46.7539718 114.465001,46.2923401 C111.844719,45.3251118 109.446494,43.9402168 107.336945,42.2036024 C106.315479,41.3682689 106.04901,39.895444 106.715183,38.7523561 L108.536057,35.6088642 C107.003858,33.8502674 105.804746,31.8058985 105.005338,29.58567 L101.341384,29.58567 C100.009037,29.58567 98.8543361,28.6404242 98.6322783,27.3214766 C98.1881627,24.6835813 98.1659569,21.9137912 98.6322783,19.1659837 C98.8543361,17.847036 100.009037,16.8798077 101.341384,16.8798077 L105.005338,16.8798077 C105.804746,14.6595792 107.003858,12.6152104 108.536057,10.8566135 L106.715183,7.71312165 C106.04901,6.5700337 106.293273,5.09720883 107.336945,4.26187533 C109.446494,2.52526094 111.866924,1.14036592 114.465001,0.173137646 C115.730731,-0.288494027 117.151901,0.195120107 117.818074,1.36019052 L119.638948,4.50368239 C121.970555,4.08601564 124.346574,4.08601564 126.678181,4.50368239 L128.499055,1.36019052 C129.165229,0.195120107 130.586399,-0.288494027 131.852128,0.173137646 C134.472411,1.14036592 136.870635,2.52526094 138.980185,4.26187533 C140.00165,5.09720883 140.26812,6.5700337 139.601946,7.71312165 L137.781072,10.8566135 C139.313271,12.6152104 140.512383,14.6595792 141.311792,16.8798077 L144.975746,16.8798077 C146.308093,16.8798077 147.462793,17.8250536 147.684851,19.1440012 C148.128967,21.7818965 148.151173,24.5516865 147.684851,27.2994941 C147.462793,28.6184417 146.308093,29.58567 144.975746,29.58567 L141.311792,29.58567 C140.512383,31.8058985 139.313271,33.8502674 137.781072,35.6088642 L139.601946,38.7523561 C140.26812,39.895444 140.023856,41.3682689 138.980185,42.2036024 C136.870635,43.9402168 134.450205,45.3251118 131.852128,46.2923401 C130.586399,46.7539718 129.165229,46.2703576 128.499055,45.1052872 L126.678181,41.9617953 C124.36878,42.3794621 121.970555,42.3794621 119.638948,41.9617953 L119.638948,41.9617953 Z M117.307341,29.0361085 C125.856567,35.5429168 135.604906,25.8926166 129.031994,17.4293693 C120.482768,10.9005784 110.73443,20.5728611 117.307341,29.0361085 L117.307341,29.0361085 Z M85.7830216,75.0381681 L93.2663702,78.7312214 C95.5091542,80.0062042 96.4862086,82.7100468 95.5979774,85.1281175 C93.6216627,90.447873 89.7356509,95.3279792 86.1383142,99.5925766 C84.4950863,101.549016 81.6527462,102.03263 79.4099622,100.757647 L72.9480795,97.0645936 C69.3951544,100.076191 65.2648789,102.472279 60.7571051,104.033034 L60.7571051,111.41914 C60.7571051,113.969106 58.9140252,116.167352 56.382566,116.607001 C50.9199436,117.530264 45.1908518,117.574229 39.5283774,116.607001 C36.9747124,116.167352 35.0872209,113.991088 35.0872209,111.41914 L35.0872209,104.033034 C30.5794472,102.450296 26.4491717,100.076191 22.8962465,97.0645936 L16.4343639,100.735665 C14.2137857,102.010647 11.3492398,101.527033 9.70601192,99.5705941 C6.1086752,95.3059968 2.31148645,90.4258905 0.335171839,85.1281175 C-0.553059448,82.7320293 0.423994968,80.0281866 2.66677897,78.7312214 L10.0613044,75.0381681 C9.19527893,70.4438338 9.19527893,65.7176047 10.0613044,61.101288 L2.66677897,57.3862522 C0.423994968,56.1112694 -0.57526523,53.4074268 0.335171839,51.0113386 C2.31148645,45.6915831 6.1086752,40.8114768 9.70601192,36.5468795 C11.3492398,34.5904405 14.1915799,34.1068263 16.4343639,35.381809 L22.8962465,39.0748624 C26.4491717,36.0632653 30.5794472,33.6671771 35.0872209,32.1064224 L35.0872209,24.6983332 C35.0872209,22.1703502 36.9080951,19.9721041 39.4395542,19.5324549 C44.9021767,18.6091916 50.6534742,18.5652266 56.3159487,19.5104725 C58.8696136,19.9501217 60.7571051,22.1263853 60.7571051,24.6983332 L60.7571051,32.0844399 C65.2648789,33.6671771 69.3951544,36.0412829 72.9480795,39.05288 L79.4099622,35.3598266 C81.6305404,34.0848439 84.4950863,34.568458 86.1383142,36.524897 C89.7356509,40.7894944 93.5106338,45.6696006 95.4869484,50.9893561 C96.3751797,53.3854443 95.5091542,56.089287 93.2663702,57.3862522 L85.7830216,61.0793055 C86.6490471,65.6956223 86.6490471,70.4218513 85.7830216,75.0381681 Z M59.6690218,79.6764673 C72.8148449,62.7499726 53.2959623,43.4273896 36.19751,56.4410063 C23.051687,73.367501 42.5705695,92.690084 59.6690218,79.6764673 Z M119.638948,125.759475 L117.818074,128.902967 C117.151901,130.068038 115.730731,130.551652 114.465001,130.09002 C111.844719,129.122792 109.446494,127.737897 107.336945,126.001283 C106.315479,125.165949 106.04901,123.693124 106.715183,122.550036 L108.536057,119.406544 C107.003858,117.647948 105.804746,115.603579 105.005338,113.38335 L101.341384,113.38335 C100.009037,113.38335 98.8543361,112.438104 98.6322783,111.119157 C98.1881627,108.481261 98.1659569,105.711471 98.6322783,102.963664 C98.8543361,101.644716 100.009037,100.677488 101.341384,100.677488 L105.005338,100.677488 C105.804746,98.4572594 107.003858,96.4128905 108.536057,94.6542937 L106.715183,91.5108018 C106.04901,90.3677138 106.293273,88.894889 107.336945,88.0595555 C109.446494,86.3229411 111.866924,84.9380461 114.465001,83.9708178 C115.730731,83.5091861 117.151901,83.9928003 117.818074,85.1578707 L119.638948,88.3013625 C121.970555,87.8836958 124.346574,87.8836958 126.678181,88.3013625 L128.499055,85.1578707 C129.165229,83.9928003 130.586399,83.5091861 131.852128,83.9708178 C134.472411,84.9380461 136.870635,86.3229411 138.980185,88.0595555 C140.00165,88.894889 140.26812,90.3677138 139.601946,91.5108018 L137.781072,94.6542937 C139.313271,96.4128905 140.512383,98.4572594 141.311792,100.677488 L144.975746,100.677488 C146.308093,100.677488 147.462793,101.622734 147.684851,102.941681 C148.128967,105.579577 148.151173,108.349367 147.684851,111.097174 C147.462793,112.416122 146.308093,113.38335 144.975746,113.38335 L141.311792,113.38335 C140.512383,115.603579 139.313271,117.647948 137.781072,119.406544 L139.601946,122.550036 C140.26812,123.693124 140.023856,125.165949 138.980185,126.001283 C136.870635,127.737897 134.450205,129.122792 131.852128,130.09002 C130.586399,130.551652 129.165229,130.068038 128.499055,128.902967 L126.678181,125.759475 C124.36878,126.177142 121.970555,126.177142 119.638948,125.759475 Z M117.307341,112.811806 C125.856567,119.318615 135.604906,109.668314 129.031994,101.205067 C120.482768,94.6982586 110.73443,104.348559 117.307341,112.811806 L117.307341,112.811806 Z"/>
    <filter id="apis-k" width="114.4%" height="116.3%" x="-7.2%" y="-4.3%" filterUnits="objectBoundingBox">
      <feMorphology in="SourceAlpha" operator="dilate" radius=".625" result="shadowSpreadOuter1"/>
      <feOffset dy="2" in="shadowSpreadOuter1" result="shadowOffsetOuter1"/>
      <feGaussianBlur in="shadowOffsetOuter1" result="shadowBlurOuter1" stdDeviation="1"/>
      <feComposite in="shadowBlurOuter1" in2="SourceAlpha" operator="out" result="shadowBlurOuter1"/>
      <feColorMatrix in="shadowBlurOuter1" result="shadowMatrixOuter1" values="0 0 0 0 0.0941176471   0 0 0 0 0.317647059   0 0 0 0 0.745098039  0 0 0 0.147836538 0"/>
      <feMorphology in="SourceAlpha" operator="dilate" radius=".625" result="shadowSpreadOuter2"/>
      <feOffset dy="5" in="shadowSpreadOuter2" result="shadowOffsetOuter2"/>
      <feGaussianBlur in="shadowOffsetOuter2" result="shadowBlurOuter2" stdDeviation="2.5"/>
      <feComposite in="shadowBlurOuter2" in2="SourceAlpha" operator="out" result="shadowBlurOuter2"/>
      <feColorMatrix in="shadowBlurOuter2" result="shadowMatrixOuter2" values="0 0 0 0 0.0941176471   0 0 0 0 0.317647059   0 0 0 0 0.745098039  0 0 0 0.0864565122 0"/>
      <feMerge>
        <feMergeNode in="shadowMatrixOuter1"/>
        <feMergeNode in="shadowMatrixOuter2"/>
      </feMerge>
    </filter>
    <filter id="apis-n" width="117.4%" height="119.8%" x="-8.7%" y="-6%" filterUnits="objectBoundingBox">
      <feGaussianBlur in="SourceAlpha" result="shadowBlurInner1" stdDeviation="1.25"/>
      <feOffset dy="12" in="shadowBlurInner1" result="shadowOffsetInner1"/>
      <feComposite in="shadowOffsetInner1" in2="SourceAlpha" k2="-1" k3="1" operator="arithmetic" result="shadowInnerInner1"/>
      <feColorMatrix in="shadowInnerInner1" values="0 0 0 0 1   0 0 0 0 1   0 0 0 0 1  0 0 0 0.0782615822 0"/>
    </filter>
  </defs>
  <g fill="none" fill-rule="evenodd" transform="translate(3 1)">
    <mask id="apis-b" fill="#fff">
      <use xlink:href="#apis-a"/>
    </mask>
    <path d="M0.986842105,27.3157895 C0.986842105,12.7756579 12.7756579,0.986842105 27.3157895,0.986842105 L122.684211,0.986842105 C137.224342,0.986842105 149.013158,12.7756579 149.013158,27.3157895 L149.013158,122.684211 C149.013158,137.224342 137.224342,149.013158 122.684211,149.013158 L27.3157895,149.013158 C12.7756579,149.013158 0.986842105,137.224342 0.986842105,122.684211 L0.986842105,27.3157895 Z" mask="url(#apis-b)"/>
    <path d="M0.986842105,27.3157895 C0.986842105,12.7756579 12.7756579,0.986842105 27.3157895,0.986842105 L122.684211,0.986842105 C137.224342,0.986842105 149.013158,12.7756579 149.013158,27.3157895 L149.013158,122.684211 C149.013158,137.224342 137.224342,149.013158 122.684211,149.013158 L27.3157895,149.013158 C12.7756579,149.013158 0.986842105,137.224342 0.986842105,122.684211 L0.986842105,27.3157895 Z"/>
    <path d="M0.986842105,27.3157895 C0.986842105,12.7756579 12.7756579,0.986842105 27.3157895,0.986842105 L122.684211,0.986842105 C137.224342,0.986842105 149.013158,12.7756579 149.013158,27.3157895 L149.013158,122.684211 C149.013158,137.224342 137.224342,149.013158 122.684211,149.013158 L27.3157895,149.013158 C12.7756579,149.013158 0.986842105,137.224342 0.986842105,122.684211 L0.986842105,27.3157895 Z"/>
    <path fill="url(#apis-c)" fill-rule="nonzero" stroke="#FFF" stroke-opacity=".01" stroke-width="1.68" d="M0.986842105,27.3157895 C0.986842105,12.7756579 12.7756579,0.986842105 27.3157895,0.986842105 L122.684211,0.986842105 C137.224342,0.986842105 149.013158,12.7756579 149.013158,27.3157895 L149.013158,122.684211 C149.013158,137.224342 137.224342,149.013158 122.684211,149.013158 L27.3157895,149.013158 C12.7756579,149.013158 0.986842105,137.224342 0.986842105,122.684211 L0.986842105,27.3157895 Z" filter="url(#apis-d)"/>
    <g fill-rule="nonzero">
      <use fill="#000" filter="url(#apis-e)" xlink:href="#apis-f"/>
      <use fill="url(#apis-g)" xlink:href="#apis-f"/>
      <use fill="#000" filter="url(#apis-h)" xlink:href="#apis-f"/>
      <use stroke="#FFF" stroke-opacity=".01" stroke-width="1.5" xlink:href="#apis-f"/>
    </g>
    <g fill-rule="nonzero" transform="translate(11.842 3.947)">
      <path fill="url(#apis-i)" d="M119.638948,41.9617953 L117.818074,45.1052872 C117.151901,46.2703576 115.730731,46.7539718 114.465001,46.2923401 C111.844719,45.3251118 109.446494,43.9402168 107.336945,42.2036024 C106.315479,41.3682689 106.04901,39.895444 106.715183,38.7523561 L108.536057,35.6088642 C107.003858,33.8502674 105.804746,31.8058985 105.005338,29.58567 L101.341384,29.58567 C100.009037,29.58567 98.8543361,28.6404242 98.6322783,27.3214766 C98.1881627,24.6835813 98.1659569,21.9137912 98.6322783,19.1659837 C98.8543361,17.847036 100.009037,16.8798077 101.341384,16.8798077 L105.005338,16.8798077 C105.804746,14.6595792 107.003858,12.6152104 108.536057,10.8566135 L106.715183,7.71312165 C106.04901,6.5700337 106.293273,5.09720883 107.336945,4.26187533 C109.446494,2.52526094 111.866924,1.14036592 114.465001,0.173137646 C115.730731,-0.288494027 117.151901,0.195120107 117.818074,1.36019052 L119.638948,4.50368239 C121.970555,4.08601564 124.346574,4.08601564 126.678181,4.50368239 L128.499055,1.36019052 C129.165229,0.195120107 130.586399,-0.288494027 131.852128,0.173137646 C134.472411,1.14036592 136.870635,2.52526094 138.980185,4.26187533 C140.00165,5.09720883 140.26812,6.5700337 139.601946,7.71312165 L137.781072,10.8566135 C139.313271,12.6152104 140.512383,14.6595792 141.311792,16.8798077 L144.975746,16.8798077 C146.308093,16.8798077 147.462793,17.8250536 147.684851,19.1440012 C148.128967,21.7818965 148.151173,24.5516865 147.684851,27.2994941 C147.462793,28.6184417 146.308093,29.58567 144.975746,29.58567 L141.311792,29.58567 C140.512383,31.8058985 139.313271,33.8502674 137.781072,35.6088642 L139.601946,38.7523561 C140.26812,39.895444 140.023856,41.3682689 138.980185,42.2036024 C136.870635,43.9402168 134.450205,45.3251118 131.852128,46.2923401 C130.586399,46.7539718 129.165229,46.2703576 128.499055,45.1052872 L126.678181,41.9617953 C124.36878,42.3794621 121.970555,42.3794621 119.638948,41.9617953 L119.638948,41.9617953 Z M117.307341,29.0361085 C125.856567,35.5429168 135.604906,25.8926166 129.031994,17.4293693 C120.482768,10.9005784 110.73443,20.5728611 117.307341,29.0361085 L117.307341,29.0361085 Z M85.7830216,75.0381681 L93.2663702,78.7312214 C95.5091542,80.0062042 96.4862086,82.7100468 95.5979774,85.1281175 C93.6216627,90.447873 89.7356509,95.3279792 86.1383142,99.5925766 C84.4950863,101.549016 81.6527462,102.03263 79.4099622,100.757647 L72.9480795,97.0645936 C69.3951544,100.076191 65.2648789,102.472279 60.7571051,104.033034 L60.7571051,111.41914 C60.7571051,113.969106 58.9140252,116.167352 56.382566,116.607001 C50.9199436,117.530264 45.1908518,117.574229 39.5283774,116.607001 C36.9747124,116.167352 35.0872209,113.991088 35.0872209,111.41914 L35.0872209,104.033034 C30.5794472,102.450296 26.4491717,100.076191 22.8962465,97.0645936 L16.4343639,100.735665 C14.2137857,102.010647 11.3492398,101.527033 9.70601192,99.5705941 C6.1086752,95.3059968 2.31148645,90.4258905 0.335171839,85.1281175 C-0.553059448,82.7320293 0.423994968,80.0281866 2.66677897,78.7312214 L10.0613044,75.0381681 C9.19527893,70.4438338 9.19527893,65.7176047 10.0613044,61.101288 L2.66677897,57.3862522 C0.423994968,56.1112694 -0.57526523,53.4074268 0.335171839,51.0113386 C2.31148645,45.6915831 6.1086752,40.8114768 9.70601192,36.5468795 C11.3492398,34.5904405 14.1915799,34.1068263 16.4343639,35.381809 L22.8962465,39.0748624 C26.4491717,36.0632653 30.5794472,33.6671771 35.0872209,32.1064224 L35.0872209,24.6983332 C35.0872209,22.1703502 36.9080951,19.9721041 39.4395542,19.5324549 C44.9021767,18.6091916 50.6534742,18.5652266 56.3159487,19.5104725 C58.8696136,19.9501217 60.7571051,22.1263853 60.7571051,24.6983332 L60.7571051,32.0844399 C65.2648789,33.6671771 69.3951544,36.0412829 72.9480795,39.05288 L79.4099622,35.3598266 C81.6305404,34.0848439 84.4950863,34.568458 86.1383142,36.524897 C89.7356509,40.7894944 93.5106338,45.6696006 95.4869484,50.9893561 C96.3751797,53.3854443 95.5091542,56.089287 93.2663702,57.3862522 L85.7830216,61.0793055 C86.6490471,65.6956223 86.6490471,70.4218513 85.7830216,75.0381681 Z M59.6690218,79.6764673 C72.8148449,62.7499726 53.2959623,43.4273896 36.19751,56.4410063 C23.051687,73.367501 42.5705695,92.690084 59.6690218,79.6764673 Z M119.638948,125.759475 L117.818074,128.902967 C117.151901,130.068038 115.730731,130.551652 114.465001,130.09002 C111.844719,129.122792 109.446494,127.737897 107.336945,126.001283 C106.315479,125.165949 106.04901,123.693124 106.715183,122.550036 L108.536057,119.406544 C107.003858,117.647948 105.804746,115.603579 105.005338,113.38335 L101.341384,113.38335 C100.009037,113.38335 98.8543361,112.438104 98.6322783,111.119157 C98.1881627,108.481261 98.1659569,105.711471 98.6322783,102.963664 C98.8543361,101.644716 100.009037,100.677488 101.341384,100.677488 L105.005338,100.677488 C105.804746,98.4572594 107.003858,96.4128905 108.536057,94.6542937 L106.715183,91.5108018 C106.04901,90.3677138 106.293273,88.894889 107.336945,88.0595555 C109.446494,86.3229411 111.866924,84.9380461 114.465001,83.9708178 C115.730731,83.5091861 117.151901,83.9928003 117.818074,85.1578707 L119.638948,88.3013625 C121.970555,87.8836958 124.346574,87.8836958 126.678181,88.3013625 L128.499055,85.1578707 C129.165229,83.9928003 130.586399,83.5091861 131.852128,83.9708178 C134.472411,84.9380461 136.870635,86.3229411 138.980185,88.0595555 C140.00165,88.894889 140.26812,90.3677138 139.601946,91.5108018 L137.781072,94.6542937 C139.313271,96.4128905 140.512383,98.4572594 141.311792,100.677488 L144.975746,100.677488 C146.308093,100.677488 147.462793,101.622734 147.684851,102.941681 C148.128967,105.579577 148.151173,108.349367 147.684851,111.097174 C147.462793,112.416122 146.308093,113.38335 144.975746,113.38335 L141.311792,113.38335 C140.512383,115.603579 139.313271,117.647948 137.781072,119.406544 L139.601946,122.550036 C140.26812,123.693124 140.023856,125.165949 138.980185,126.001283 C136.870635,127.737897 134.450205,129.122792 131.852128,130.09002 C130.586399,130.551652 129.165229,130.068038 128.499055,128.902967 L126.678181,125.759475 C124.36878,126.177142 121.970555,126.177142 119.638948,125.759475 Z M117.307341,112.811806 C125.856567,119.318615 135.604906,109.668314 129.031994,101.205067 C120.482768,94.6982586 110.73443,104.348559 117.307341,112.811806 L117.307341,112.811806 Z" filter="url(#apis-j)"/>
      <use fill="#000" filter="url(#apis-k)" xlink:href="#apis-l"/>
      <use fill="url(#apis-m)" xlink:href="#apis-l"/>
      <use fill="#000" filter="url(#apis-n)" xlink:href="#apis-l"/>
      <use stroke="#FFF" stroke-opacity=".01" stroke-width="1.25" xlink:href="#apis-l"/>
    </g>
  </g>
</svg>
