<svg height="80" viewBox="0 0 84 80" width="84" xmlns="http://www.w3.org/2000/svg" xmlns:xlink="http://www.w3.org/1999/xlink"><linearGradient id="a" x1="50%" x2="50%" y1="0%" y2="100%"><stop offset="0" stop-color="#3f6abc"/><stop offset="1" stop-color="#1851be"/></linearGradient><filter id="b" height="110.6%" width="110.6%" x="-5.3%" y="-5.3%"><feGaussianBlur in="SourceGraphic" stdDeviation="1.05"/></filter><linearGradient id="c"><stop offset="0" stop-color="#fff"/><stop offset="1" stop-color="#bdceee"/></linearGradient><radialGradient id="d" cx="57.581%" cy="0%" gradientTransform="matrix(0 1 -.88 0 .576 -.576)" r="100%" xlink:href="#c"/><filter id="e" height="105.9%" width="105.2%" x="-2.6%" y="-3%"><feGaussianBlur in="SourceGraphic" stdDeviation=".65"/></filter><radialGradient id="f" cx="57.581%" cy="0%" gradientTransform="matrix(0 1 -.88 0 .576 -.576)" r="111.779%" xlink:href="#c"/><mask id="g" fill="#fff"><path d="m.5 13.84c0-7.367 5.973-13.34 13.34-13.34h48.32c7.367 0 13.34 5.973 13.34 13.34v48.32c0 7.367-5.973 13.34-13.34 13.34h-48.32c-7.367 0-13.34-5.973-13.34-13.34z" fill="#fff" fill-rule="evenodd"/></mask><g fill="none" fill-rule="evenodd" transform="translate(2 2)"><path d="m.5 13.84c0-7.367 5.973-13.34 13.34-13.34h48.32c7.367 0 13.34 5.973 13.34 13.34v48.32c0 7.367-5.973 13.34-13.34 13.34h-48.32c-7.367 0-13.34-5.973-13.34-13.34z" mask="url(#g)"/><path d="m.5 13.84c0-7.367 5.973-13.34 13.34-13.34h48.32c7.367 0 13.34 5.973 13.34 13.34v48.32c0 7.367-5.973 13.34-13.34 13.34h-48.32c-7.367 0-13.34-5.973-13.34-13.34z"/><path d="m.5 13.84c0-7.367 5.973-13.34 13.34-13.34h48.32c7.367 0 13.34 5.973 13.34 13.34v48.32c0 7.367-5.973 13.34-13.34 13.34h-48.32c-7.367 0-13.34-5.973-13.34-13.34z"/><g fill-rule="nonzero"><path d="m.5 13.84c0-7.367 5.973-13.34 13.34-13.34h48.32c7.367 0 13.34 5.973 13.34 13.34v48.32c0 7.367-5.973 13.34-13.34 13.34h-48.32c-7.367 0-13.34-5.973-13.34-13.34z" fill="url(#a)" filter="url(#b)" stroke="#fff" stroke-opacity=".01" stroke-width="1.68"/><path d="m.5 13.84c0-7.367 5.973-13.34 13.34-13.34h48.32c7.367 0 13.34 5.973 13.34 13.34v48.32c0 7.367-5.973 13.34-13.34 13.34h-48.32c-7.367 0-13.34-5.973-13.34-13.34z" fill="url(#a)" stroke="#fff" stroke-opacity=".01" stroke-width="1.68"/><g transform="translate(6 2)"><path d="m60.6170671 21.260643-.9225762 1.5927025c-.3375279.5903024-1.0575874.8353335-1.6988904.6014401-1.3276097-.4900623-2.5427101-1.1917424-3.6115484-2.071627-.5175428-.4232357-.6525539-1.169467-.315026-1.7486315l.9225762-1.5927026c-.7763142-.8910224-1.3838644-1.9268359-1.7888978-3.0517517h-1.8564034c-.6750558 0-1.2601041-.4789245-1.3726134-1.1471913-.2250186-1.3365337-.2362695-2.7398939 0-4.13211645.1125093-.6682668.6975576-1.15832913 1.3726134-1.15832913h1.8564034c.4050334-1.12491578 1.0125836-2.16072933 1.7888978-3.05175173l-.9225762-1.59270255c-.3375279-.57916457-.2137677-1.32539583.315026-1.74863147 1.0688383-.87988463 2.2951896-1.58156477 3.6115484-2.0716271.641303-.23389338 1.3613625.01113778 1.6988904.60144013l.9225762 1.59270255c1.1813476-.21161782 2.3851971-.21161782 3.5665447 0l.9225762-1.59270255c.3375279-.59030235 1.0575874-.83533351 1.6988904-.60144013 1.3276097.49006233 2.5427101 1.19174247 3.6115484 2.0716271.5175428.42323564.6525539 1.1694669.3150261 1.74863147l-.9225763 1.59270255c.7763142.8910224 1.3838644 1.92683595 1.7888978 3.05175173h1.8564034c.6750558 0 1.2601041.47892455 1.3726134 1.14719135.2250186 1.33653363.2362696 2.73989393 0 4.13211643-.1125093.6682668-.6975576 1.1583291-1.3726134 1.1583291h-1.8564034c-.4050334 1.1249158-1.0125836 2.1607293-1.7888978 3.0517517l.9225763 1.5927026c.3375278.5791645.2137676 1.3253958-.3150261 1.7486315-1.0688383.8798846-2.2951896 1.5815647-3.6115484 2.071627-.641303.2338934-1.3613625-.0111377-1.6988904-.6014401l-.9225762-1.5927025c-1.1700967.2116178-2.3851971.2116178-3.5665447 0zm-1.1813476-6.5490147c4.3316079 3.2967829 9.270766-1.5927026 5.9404908-5.88074788-4.3316079-3.30792067-9.270766 1.59270258-5.9404908 5.88074788zm-15.9723219 23.3077102 3.7915633 1.871147c1.1363439.6459913 1.6313848 2.0159382 1.1813476 3.241094-1.0013327 2.6953428-2.9702454 5.16793-4.792896 7.3286593-.8325688.9912624-2.2726878 1.2362936-3.4090317.5903024l-3.2740205-1.8711471c-1.8001487 1.5258759-3.8928217 2.7398939-6.1767604 3.5306763v3.7422941c0 1.2919825-.9338271 2.4057605-2.2164331 2.6285161-2.7677287.4677867-5.6704685.4900623-8.5394556 0-1.2938569-.2227556-2.2501859-1.3253958-2.2501859-2.6285161v-3.7422941c-2.2839387-.8019202-4.3766117-2.0048004-6.1767604-3.5306763l-3.27402052 1.8600093c-1.12509296.6459912-2.57646288.4009601-3.40903168-.5903024-1.8226506-2.1607293-3.74655956-4.6333165-4.7478923-7.3175215-.45003719-1.214018.04500372-2.5839649 1.18134761-3.241094l3.74655957-1.871147c-.43878626-2.3277961-.43878626-4.7224188 0-7.0613526l-3.74655957-1.8822848c-1.13634389-.6459913-1.64263573-2.0159382-1.18134761-3.2299562 1.00133274-2.6953428 2.9252417-5.16793 4.7478923-7.3286593.8325688-.9912624 2.27268779-1.2362936 3.40903168-.5903024l3.27402052 1.8711471c1.8001487-1.5258759 3.8928217-2.7398939 6.1767604-3.5306763v-3.7534319c0-1.2808447.9225762-2.3946227 2.2051822-2.61737828 2.7677287-.46778676 5.6817194-.49006232 8.5507065-.01113778 1.2938569.22275556 2.2501859 1.32539586 2.2501859 2.62851606v3.7422941c2.2839387.8019202 4.3766117 2.0048004 6.1767604 3.5306763l3.2740205-1.871147c1.125093-.6459913 2.5764629-.4009601 3.4090317.5903023 1.8226506 2.1607293 3.7353086 4.6333165 4.7366414 7.3286593.4500372 1.214018.0112509 2.583965-1.125093 3.241094l-3.7915633 1.871147c.4387863 2.3389339.4387863 4.7335566 0 7.0724904zm-13.2310932 2.3500716c6.6605503-8.5760907-3.2290168-18.3661993-11.8922326-11.7726336-6.6605504 8.5760907 3.2290168 18.3661994 11.8922326 11.7726336zm30.3847627 23.3487242-.9225762 1.5927025c-.3375279.5903023-1.0575874.8353335-1.6988904.6014401-1.3276097-.4900623-2.5427101-1.1917424-3.6115484-2.0716271-.5175428-.4232356-.6525539-1.1694669-.315026-1.7486314l.9225762-1.5927026c-.7763142-.8910224-1.3838644-1.9268359-1.7888978-3.0517517h-1.8564034c-.6750558 0-1.2601041-.4789246-1.3726134-1.1471914-.2250186-1.3365336-.2362695-2.7398939 0-4.1321164.1125093-.6682668.6975576-1.1583291 1.3726134-1.1583291h1.8564034c.4050334-1.1249158 1.0125836-2.1607293 1.7888978-3.0517517l-.9225762-1.5927026c-.3375279-.5791645-.2137677-1.3253958.315026-1.7486315 1.0688383-.8798846 2.2951896-1.5815647 3.6115484-2.071627.641303-.2338934 1.3613625.0111377 1.6988904.6014401l.9225762 1.5927025c1.1813476-.2116178 2.3851971-.2116178 3.5665447 0l.9225762-1.5927025c.3375279-.5903024 1.0575874-.8353335 1.6988904-.6014401 1.3276097.4900623 2.5427101 1.1917424 3.6115484 2.071627.5175428.4232357.6525539 1.169467.3150261 1.7486315l-.9225763 1.5927026c.7763142.8910224 1.3838644 1.9268359 1.7888978 3.0517517h1.8564034c.6750558 0 1.2601041.4789245 1.3726134 1.1471913.2250186 1.3365337.2362696 2.7398939 0 4.1321165-.1125093.6682668-.6975576 1.1583291-1.3726134 1.1583291h-1.8564034c-.4050334 1.1249158-1.0125836 2.1607293-1.7888978 3.0517517l.9225763 1.5927026c.3375278.5791645.2137676 1.3253958-.3150261 1.7486314-1.0688383.8798847-2.2951896 1.5815648-3.6115484 2.0716271-.641303.2338934-1.3613625-.0111378-1.6988904-.6014401l-.9225762-1.5927025c-1.1700967.2116178-2.3851971.2116178-3.5665447 0zm-1.1813476-6.5601525c4.3316079 3.2967829 9.270766-1.5927026 5.9404908-5.8807479-4.3316079-3.2967829-9.270766 1.5927026-5.9404908 5.8807479z" fill="url(#d)" filter="url(#e)"/><path d="m60.6170671 21.260643-.9225762 1.5927025c-.3375279.5903024-1.0575874.8353335-1.6988904.6014401-1.3276097-.4900623-2.5427101-1.1917424-3.6115484-2.071627-.5175428-.4232357-.6525539-1.169467-.315026-1.7486315l.9225762-1.5927026c-.7763142-.8910224-1.3838644-1.9268359-1.7888978-3.0517517h-1.8564034c-.6750558 0-1.2601041-.4789245-1.3726134-1.1471913-.2250186-1.3365337-.2362695-2.7398939 0-4.13211645.1125093-.6682668.6975576-1.15832913 1.3726134-1.15832913h1.8564034c.4050334-1.12491578 1.0125836-2.16072933 1.7888978-3.05175173l-.9225762-1.59270255c-.3375279-.57916457-.2137677-1.32539583.315026-1.74863147 1.0688383-.87988463 2.2951896-1.58156477 3.6115484-2.0716271.641303-.23389338 1.3613625.01113778 1.6988904.60144013l.9225762 1.59270255c1.1813476-.21161782 2.3851971-.21161782 3.5665447 0l.9225762-1.59270255c.3375279-.59030235 1.0575874-.83533351 1.6988904-.60144013 1.3276097.49006233 2.5427101 1.19174247 3.6115484 2.0716271.5175428.42323564.6525539 1.1694669.3150261 1.74863147l-.9225763 1.59270255c.7763142.8910224 1.3838644 1.92683595 1.7888978 3.05175173h1.8564034c.6750558 0 1.2601041.47892455 1.3726134 1.14719135.2250186 1.33653363.2362696 2.73989393 0 4.13211643-.1125093.6682668-.6975576 1.1583291-1.3726134 1.1583291h-1.8564034c-.4050334 1.1249158-1.0125836 2.1607293-1.7888978 3.0517517l.9225763 1.5927026c.3375278.5791645.2137676 1.3253958-.3150261 1.7486315-1.0688383.8798846-2.2951896 1.5815647-3.6115484 2.071627-.641303.2338934-1.3613625-.0111377-1.6988904-.6014401l-.9225762-1.5927025c-1.1700967.2116178-2.3851971.2116178-3.5665447 0zm-1.1813476-6.5490147c4.3316079 3.2967829 9.270766-1.5927026 5.9404908-5.88074788-4.3316079-3.30792067-9.270766 1.59270258-5.9404908 5.88074788zm-15.9723219 23.3077102 3.7915633 1.871147c1.1363439.6459913 1.6313848 2.0159382 1.1813476 3.241094-1.0013327 2.6953428-2.9702454 5.16793-4.792896 7.3286593-.8325688.9912624-2.2726878 1.2362936-3.4090317.5903024l-3.2740205-1.8711471c-1.8001487 1.5258759-3.8928217 2.7398939-6.1767604 3.5306763v3.7422941c0 1.2919825-.9338271 2.4057605-2.2164331 2.6285161-2.7677287.4677867-5.6704685.4900623-8.5394556 0-1.2938569-.2227556-2.2501859-1.3253958-2.2501859-2.6285161v-3.7422941c-2.2839387-.8019202-4.3766117-2.0048004-6.1767604-3.5306763l-3.27402052 1.8600093c-1.12509296.6459912-2.57646288.4009601-3.40903168-.5903024-1.8226506-2.1607293-3.74655956-4.6333165-4.7478923-7.3175215-.45003719-1.214018.04500372-2.5839649 1.18134761-3.241094l3.74655957-1.871147c-.43878626-2.3277961-.43878626-4.7224188 0-7.0613526l-3.74655957-1.8822848c-1.13634389-.6459913-1.64263573-2.0159382-1.18134761-3.2299562 1.00133274-2.6953428 2.9252417-5.16793 4.7478923-7.3286593.8325688-.9912624 2.27268779-1.2362936 3.40903168-.5903024l3.27402052 1.8711471c1.8001487-1.5258759 3.8928217-2.7398939 6.1767604-3.5306763v-3.7534319c0-1.2808447.9225762-2.3946227 2.2051822-2.61737828 2.7677287-.46778676 5.6817194-.49006232 8.5507065-.01113778 1.2938569.22275556 2.2501859 1.32539586 2.2501859 2.62851606v3.7422941c2.2839387.8019202 4.3766117 2.0048004 6.1767604 3.5306763l3.2740205-1.871147c1.125093-.6459913 2.5764629-.4009601 3.4090317.5903023 1.8226506 2.1607293 3.7353086 4.6333165 4.7366414 7.3286593.4500372 1.214018.0112509 2.583965-1.125093 3.241094l-3.7915633 1.871147c.4387863 2.3389339.4387863 4.7335566 0 7.0724904zm-13.2310932 2.3500716c6.6605503-8.5760907-3.2290168-18.3661993-11.8922326-11.7726336-6.6605504 8.5760907 3.2290168 18.3661994 11.8922326 11.7726336zm30.3847627 23.3487242-.9225762 1.5927025c-.3375279.5903023-1.0575874.8353335-1.6988904.6014401-1.3276097-.4900623-2.5427101-1.1917424-3.6115484-2.0716271-.5175428-.4232356-.6525539-1.1694669-.315026-1.7486314l.9225762-1.5927026c-.7763142-.8910224-1.3838644-1.9268359-1.7888978-3.0517517h-1.8564034c-.6750558 0-1.2601041-.4789246-1.3726134-1.1471914-.2250186-1.3365336-.2362695-2.7398939 0-4.1321164.1125093-.6682668.6975576-1.1583291 1.3726134-1.1583291h1.8564034c.4050334-1.1249158 1.0125836-2.1607293 1.7888978-3.0517517l-.9225762-1.5927026c-.3375279-.5791645-.2137677-1.3253958.315026-1.7486315 1.0688383-.8798846 2.2951896-1.5815647 3.6115484-2.071627.641303-.2338934 1.3613625.0111377 1.6988904.6014401l.9225762 1.5927025c1.1813476-.2116178 2.3851971-.2116178 3.5665447 0l.9225762-1.5927025c.3375279-.5903024 1.0575874-.8353335 1.6988904-.6014401 1.3276097.4900623 2.5427101 1.1917424 3.6115484 2.071627.5175428.4232357.6525539 1.169467.3150261 1.7486315l-.9225763 1.5927026c.7763142.8910224 1.3838644 1.9268359 1.7888978 3.0517517h1.8564034c.6750558 0 1.2601041.4789245 1.3726134 1.1471913.2250186 1.3365337.2362696 2.7398939 0 4.1321165-.1125093.6682668-.6975576 1.1583291-1.3726134 1.1583291h-1.8564034c-.4050334 1.1249158-1.0125836 2.1607293-1.7888978 3.0517517l.9225763 1.5927026c.3375278.5791645.2137676 1.3253958-.3150261 1.7486314-1.0688383.8798847-2.2951896 1.5815648-3.6115484 2.0716271-.641303.2338934-1.3613625-.0111378-1.6988904-.6014401l-.9225762-1.5927025c-1.1700967.2116178-2.3851971.2116178-3.5665447 0zm-1.1813476-6.5601525c4.3316079 3.2967829 9.270766-1.5927026 5.9404908-5.8807479-4.3316079-3.2967829-9.270766 1.5927026-5.9404908 5.8807479z" fill="url(#f)"/></g></g></g></svg>