<svg height="65" viewBox="0 0 74 65" width="74" xmlns="http://www.w3.org/2000/svg" xmlns:xlink="http://www.w3.org/1999/xlink"><linearGradient id="a" x1="0%" x2="0%" y1="0%" y2="105.733%"><stop offset="0" stop-color="#3c3f4a"/><stop offset="1" stop-color="#2a2f45"/></linearGradient><filter id="b" height="108.9%" width="108.9%" x="-4.4%" y="-4.4%"><feGaussianBlur in="SourceGraphic" stdDeviation=".65"/></filter><linearGradient id="c" x1="0%" x2="0%" y1="0%" y2="105.733%"><stop offset="0" stop-color="#2a2f45"/><stop offset=".99285" stop-color="#1a1f36"/></linearGradient><radialGradient id="d" cx="28.972%" cy="6.284%" gradientTransform="matrix(.58807 .77593 -.72333 .63082 .165 -.201)" r="120.781%"><stop offset="0" stop-color="#fff"/><stop offset="1" stop-color="#aec3eb"/></radialGradient><filter id="e" height="108.6%" width="108%" x="-4%" y="-4.3%"><feGaussianBlur in="SourceGraphic" stdDeviation=".65"/></filter><mask id="f" fill="#fff"><path d="m.5 13.84c0-7.367 5.973-13.34 13.34-13.34h48.32c7.367 0 13.34 5.973 13.34 13.34v48.32c0 7.367-5.973 13.34-13.34 13.34h-48.32c-7.367 0-13.34-5.973-13.34-13.34z" fill="#fff" fill-rule="evenodd"/></mask><g fill="none" fill-rule="evenodd" transform="translate(-3 -5)"><path d="m.5 13.84c0-7.367 5.973-13.34 13.34-13.34h48.32c7.367 0 13.34 5.973 13.34 13.34v48.32c0 7.367-5.973 13.34-13.34 13.34h-48.32c-7.367 0-13.34-5.973-13.34-13.34z" mask="url(#f)"/><path d="m.5 13.84c0-7.367 5.973-13.34 13.34-13.34h48.32c7.367 0 13.34 5.973 13.34 13.34v48.32c0 7.367-5.973 13.34-13.34 13.34h-48.32c-7.367 0-13.34-5.973-13.34-13.34z"/><path d="m.5 13.84c0-7.367 5.973-13.34 13.34-13.34h48.32c7.367 0 13.34 5.973 13.34 13.34v48.32c0 7.367-5.973 13.34-13.34 13.34h-48.32c-7.367 0-13.34-5.973-13.34-13.34z"/><g fill-rule="nonzero" transform="translate(4 6)"><path d="m69.2852482 13.7729531-11.7959062-11.79590623c-1.2658634-1.2658727-2.9827454-1.97704687-4.7729532-1.97704687h-37.7040937c-3.7279688 0-6.75000002 3.02203125-6.75000002 6.75v49.5c0 3.7279687 3.02203122 6.75 6.75000002 6.75h49.5c3.7279687 0 6.75-3.0220313 6.75-6.75v-37.7040938c0-1.7902077-.7111742-3.5070897-1.9770469-4.7729531z" fill="url(#a)" filter="url(#b)" stroke="#fff" stroke-opacity=".01" stroke-width="1.68"/><path d="m69.2852482 13.7729531-11.7959062-11.79590623c-1.2658634-1.2658727-2.9827454-1.97704687-4.7729532-1.97704687h-37.7040937c-3.7279688 0-6.75000002 3.02203125-6.75000002 6.75v49.5c0 3.7279687 3.02203122 6.75 6.75000002 6.75h49.5c3.7279687 0 6.75-3.0220313 6.75-6.75v-37.7040938c0-1.7902077-.7111742-3.5070897-1.9770469-4.7729531z" fill="url(#c)" stroke="#fff" stroke-opacity=".01" stroke-width="1.68"/><g fill="url(#d)"><path d="m39.7622951 35.5645161c5.0507011 0 9.1451613 4.0944602 9.1451613 9.1451613s-4.0944602 9.1451613-9.1451613 9.1451613-9.1451613-4.0944602-9.1451613-9.1451613 4.0944602-9.1451613 9.1451613-9.1451613zm-6.3483208-27.30222102c.4421947 0 .8661904.18061694 1.1787692.50226941l.4834551.49726814c.312696.32151994.4883175.75767257.4883175 1.21244837v14.3636189c0 .9469529-.746438 1.7147178-1.6670867 1.7147178h-32.23034271c-.92064862 0-1.66708669-.7677649-1.66708669-1.7147178v-14.86088708c0-.94695287.74643807-1.71471774 1.66708669-1.71471774z" filter="url(#e)"/><path d="m39.7622951 35.5645161c5.0507011 0 9.1451613 4.0944602 9.1451613 9.1451613s-4.0944602 9.1451613-9.1451613 9.1451613-9.1451613-4.0944602-9.1451613-9.1451613 4.0944602-9.1451613 9.1451613-9.1451613zm-6.3483208-27.30222102c.4421947 0 .8661904.18061694 1.1787692.50226941l.4834551.49726814c.312696.32151994.4883175.75767257.4883175 1.21244837v14.3636189c0 .9469529-.746438 1.7147178-1.6670867 1.7147178h-32.23034271c-.92064862 0-1.66708669-.7677649-1.66708669-1.7147178v-14.86088708c0-.94695287.74643807-1.71471774 1.66708669-1.71471774z"/></g></g></g></svg>