<svg xmlns="http://www.w3.org/2000/svg" xmlns:xlink="http://www.w3.org/1999/xlink" width="74" height="65" viewBox="0 0 74 65">
  <defs>
    <path id="automated-backup-a" d="M0.5,13.84 C0.5,6.473 6.473,0.5 13.84,0.5 L62.16,0.5 C69.527,0.5 75.5,6.473 75.5,13.84 L75.5,62.16 C75.5,69.527 69.527,75.5 62.16,75.5 L13.84,75.5 C6.473,75.5 0.5,69.527 0.5,62.16 L0.5,13.84 Z"/>
    <linearGradient id="automated-backup-c" x1="0%" x2="0%" y1="0%" y2="105.733%">
      <stop offset="0%" stop-color="#3C3F4A"/>
      <stop offset="100%" stop-color="#2A2F45"/>
    </linearGradient>
    <filter id="automated-backup-d" width="108.9%" height="108.9%" x="-4.4%" y="-4.4%" filterUnits="objectBoundingBox">
      <feGaussianBlur in="SourceGraphic" stdDeviation=".65"/>
    </filter>
    <linearGradient id="automated-backup-e" x1="0%" x2="0%" y1="0%" y2="105.733%">
      <stop offset="0%" stop-color="#2A2F45"/>
      <stop offset="99.285%" stop-color="#1A1F36"/>
    </linearGradient>
    <radialGradient id="automated-backup-f" cx="28.972%" cy="6.284%" r="120.781%" fx="28.972%" fy="6.284%" gradientTransform="matrix(.58807 .77593 -.72333 .63082 .165 -.201)">
      <stop offset="0%" stop-color="#FFF"/>
      <stop offset="100%" stop-color="#AEC3EB"/>
    </radialGradient>
    <filter id="automated-backup-g" width="108%" height="108.6%" x="-4%" y="-4.3%" filterUnits="objectBoundingBox">
      <feGaussianBlur in="SourceGraphic" stdDeviation=".65"/>
    </filter>
  </defs>
  <g fill="none" fill-rule="evenodd" transform="translate(-3 -5)">
    <mask id="automated-backup-b" fill="#fff">
      <use xlink:href="#automated-backup-a"/>
    </mask>
    <path d="M0.5,13.84 C0.5,6.473 6.473,0.5 13.84,0.5 L62.16,0.5 C69.527,0.5 75.5,6.473 75.5,13.84 L75.5,62.16 C75.5,69.527 69.527,75.5 62.16,75.5 L13.84,75.5 C6.473,75.5 0.5,69.527 0.5,62.16 L0.5,13.84 Z" mask="url(#automated-backup-b)"/>
    <path d="M0.5,13.84 C0.5,6.473 6.473,0.5 13.84,0.5 L62.16,0.5 C69.527,0.5 75.5,6.473 75.5,13.84 L75.5,62.16 C75.5,69.527 69.527,75.5 62.16,75.5 L13.84,75.5 C6.473,75.5 0.5,69.527 0.5,62.16 L0.5,13.84 Z"/>
    <path d="M0.5,13.84 C0.5,6.473 6.473,0.5 13.84,0.5 L62.16,0.5 C69.527,0.5 75.5,6.473 75.5,13.84 L75.5,62.16 C75.5,69.527 69.527,75.5 62.16,75.5 L13.84,75.5 C6.473,75.5 0.5,69.527 0.5,62.16 L0.5,13.84 Z"/>
    <g fill-rule="nonzero" transform="translate(4 6)">
      <path fill="url(#automated-backup-c)" stroke="#FFF" stroke-opacity=".01" stroke-width="1.68" d="M69.2852482,13.7729531 L57.489342,1.97704687 C56.2234786,0.711174173 54.5065966,0 52.7163888,0 L15.0122951,0 C11.2843263,0 8.26229508,3.02203125 8.26229508,6.75 L8.26229508,56.25 C8.26229508,59.9779687 11.2843263,63 15.0122951,63 L64.5122951,63 C68.2402638,63 71.2622951,59.9779687 71.2622951,56.25 L71.2622951,18.5459062 C71.2622951,16.7556985 70.5511209,15.0388165 69.2852482,13.7729531 Z" filter="url(#automated-backup-d)"/>
      <path fill="url(#automated-backup-e)" stroke="#FFF" stroke-opacity=".01" stroke-width="1.68" d="M69.2852482,13.7729531 L57.489342,1.97704687 C56.2234786,0.711174173 54.5065966,0 52.7163888,0 L15.0122951,0 C11.2843263,0 8.26229508,3.02203125 8.26229508,6.75 L8.26229508,56.25 C8.26229508,59.9779687 11.2843263,63 15.0122951,63 L64.5122951,63 C68.2402638,63 71.2622951,59.9779687 71.2622951,56.25 L71.2622951,18.5459062 C71.2622951,16.7556985 70.5511209,15.0388165 69.2852482,13.7729531 Z"/>
      <path fill="url(#automated-backup-f)" d="M39.7622951,35.5645161 C44.8129962,35.5645161 48.9074564,39.6589763 48.9074564,44.7096774 C48.9074564,49.7603785 44.8129962,53.8548387 39.7622951,53.8548387 C34.711594,53.8548387 30.6171338,49.7603785 30.6171338,44.7096774 C30.6171338,39.6589763 34.711594,35.5645161 39.7622951,35.5645161 Z M33.4139743,8.26229508 C33.856169,8.26229508 34.2801647,8.44291202 34.5927435,8.76456449 L35.0761986,9.26183263 C35.3888946,9.58335257 35.5645161,10.0195052 35.5645161,10.474281 L35.5645161,24.8378999 C35.5645161,25.7848528 34.8180781,26.5526177 33.8974294,26.5526177 L1.66708669,26.5526177 C0.746438067,26.5526177 2.48689958e-14,25.7848528 2.48689958e-14,24.8378999 L2.48689958e-14,9.97701282 C2.48689958e-14,9.03005995 0.746438067,8.26229508 1.66708669,8.26229508 L33.4139743,8.26229508 Z" filter="url(#automated-backup-g)"/>
      <path fill="url(#automated-backup-f)" d="M39.7622951,35.5645161 C44.8129962,35.5645161 48.9074564,39.6589763 48.9074564,44.7096774 C48.9074564,49.7603785 44.8129962,53.8548387 39.7622951,53.8548387 C34.711594,53.8548387 30.6171338,49.7603785 30.6171338,44.7096774 C30.6171338,39.6589763 34.711594,35.5645161 39.7622951,35.5645161 Z M33.4139743,8.26229508 C33.856169,8.26229508 34.2801647,8.44291202 34.5927435,8.76456449 L35.0761986,9.26183263 C35.3888946,9.58335257 35.5645161,10.0195052 35.5645161,10.474281 L35.5645161,24.8378999 C35.5645161,25.7848528 34.8180781,26.5526177 33.8974294,26.5526177 L1.66708669,26.5526177 C0.746438067,26.5526177 2.48689958e-14,25.7848528 2.48689958e-14,24.8378999 L2.48689958e-14,9.97701282 C2.48689958e-14,9.03005995 0.746438067,8.26229508 1.66708669,8.26229508 L33.4139743,8.26229508 Z"/>
    </g>
  </g>
</svg>
