<svg xmlns="http://www.w3.org/2000/svg" xmlns:xlink="http://www.w3.org/1999/xlink" width="162" height="149" viewBox="0 0 162 149">
  <defs>
    <path id="benefit-search-a" d="M0.986842105,27.3157895 C0.986842105,12.7756579 12.7756579,0.986842105 27.3157895,0.986842105 L122.684211,0.986842105 C137.224342,0.986842105 149.013158,12.7756579 149.013158,27.3157895 L149.013158,122.684211 C149.013158,137.224342 137.224342,149.013158 122.684211,149.013158 L27.3157895,149.013158 C12.7756579,149.013158 0.986842105,137.224342 0.986842105,122.684211 L0.986842105,27.3157895 Z"/>
    <radialGradient id="benefit-search-e" cx="18.205%" cy="0%" r="100%" fx="18.205%" fy="0%">
      <stop offset="0%" stop-color="#3F6ABC"/>
      <stop offset="100%" stop-color="#1851BE"/>
    </radialGradient>
    <rect id="benefit-search-d" width="138" height="138" x="6.053" y="6" rx="30"/>
    <filter id="benefit-search-c" width="107.6%" height="107.6%" x="-3.8%" y="-2.7%" filterUnits="objectBoundingBox">
      <feMorphology in="SourceAlpha" operator="dilate" radius=".75" result="shadowSpreadOuter1"/>
      <feOffset dy="1.5" in="shadowSpreadOuter1" result="shadowOffsetOuter1"/>
      <feGaussianBlur in="shadowOffsetOuter1" result="shadowBlurOuter1" stdDeviation="1.25"/>
      <feComposite in="shadowBlurOuter1" in2="SourceAlpha" operator="out" result="shadowBlurOuter1"/>
      <feColorMatrix in="shadowBlurOuter1" values="0 0 0 0 0.0941176471   0 0 0 0 0.317647059   0 0 0 0 0.745098039  0 0 0 0.3 0"/>
    </filter>
    <filter id="benefit-search-f" width="112.7%" height="112.7%" x="-6.3%" y="-5.3%" filterUnits="objectBoundingBox">
      <feGaussianBlur in="SourceAlpha" result="shadowBlurInner1" stdDeviation="5"/>
      <feOffset dy="1" in="shadowBlurInner1" result="shadowOffsetInner1"/>
      <feComposite in="shadowOffsetInner1" in2="SourceAlpha" k2="-1" k3="1" operator="arithmetic" result="shadowInnerInner1"/>
      <feColorMatrix in="shadowInnerInner1" result="shadowMatrixInner1" values="0 0 0 0 0.0941176471   0 0 0 0 0.317647059   0 0 0 0 0.745098039  0 0 0 0.0490329983 0"/>
      <feOffset dy="1" in="SourceAlpha" result="shadowOffsetInner2"/>
      <feComposite in="shadowOffsetInner2" in2="SourceAlpha" k2="-1" k3="1" operator="arithmetic" result="shadowInnerInner2"/>
      <feColorMatrix in="shadowInnerInner2" result="shadowMatrixInner2" values="0 0 0 0 0.0941176471   0 0 0 0 0.317647059   0 0 0 0 0.745098039  0 0 0 0.0528299825 0"/>
      <feMerge>
        <feMergeNode in="shadowMatrixInner1"/>
        <feMergeNode in="shadowMatrixInner2"/>
      </feMerge>
    </filter>
    <radialGradient id="benefit-search-i" cx="22.09%" cy="0%" r="106.679%" fx="22.09%" fy="0%">
      <stop offset="0%" stop-color="#FFF"/>
      <stop offset="100%" stop-color="#AEC3EB"/>
    </radialGradient>
    <path id="benefit-search-h" d="M89.672619,10 C116.554881,10 138.345238,31.7903571 138.345238,58.672619 C138.345238,68.3074757 135.546107,77.2882399 130.716647,84.8461094 L150.338204,104.458337 C152.563207,106.70805 152.552545,110.331521 150.31434,112.568113 L143.560813,119.318308 C142.490239,120.394732 141.034395,121 139.515856,121 C137.997317,121 136.541472,120.394732 135.470899,119.318308 L115.854079,99.7115532 C108.294553,104.544139 99.3108625,107.345238 89.672619,107.345238 C62.7903571,107.345238 41,85.554881 41,58.672619 C41,31.7903571 62.7903571,10 89.672619,10 Z M89.672619,28.7201233 C81.7243735,28.6981752 74.0977171,31.8572002 68.4930097,37.4930097 C58.3887655,47.5971797 56.8291252,63.4318467 64.7679017,75.3131695 C72.7066782,87.1944923 87.9328141,91.8133605 101.134621,86.3450615 C114.336428,80.8767625 121.837023,66.8442919 119.049346,52.8293406 C116.261669,38.8143894 103.962126,28.7201233 89.672619,28.7201233 Z"/>
    <filter id="benefit-search-g" width="119.1%" height="119.1%" x="-9.6%" y="-5.1%" filterUnits="objectBoundingBox">
      <feMorphology in="SourceAlpha" operator="dilate" radius=".625" result="shadowSpreadOuter1"/>
      <feOffset dy="2" in="shadowSpreadOuter1" result="shadowOffsetOuter1"/>
      <feGaussianBlur in="shadowOffsetOuter1" result="shadowBlurOuter1" stdDeviation="1"/>
      <feComposite in="shadowBlurOuter1" in2="SourceAlpha" operator="out" result="shadowBlurOuter1"/>
      <feColorMatrix in="shadowBlurOuter1" result="shadowMatrixOuter1" values="0 0 0 0 0.0941176471   0 0 0 0 0.317647059   0 0 0 0 0.745098039  0 0 0 0.147836538 0"/>
      <feMorphology in="SourceAlpha" operator="dilate" radius=".625" result="shadowSpreadOuter2"/>
      <feOffset dy="5" in="shadowSpreadOuter2" result="shadowOffsetOuter2"/>
      <feGaussianBlur in="shadowOffsetOuter2" result="shadowBlurOuter2" stdDeviation="2.5"/>
      <feComposite in="shadowBlurOuter2" in2="SourceAlpha" operator="out" result="shadowBlurOuter2"/>
      <feColorMatrix in="shadowBlurOuter2" result="shadowMatrixOuter2" values="0 0 0 0 0.0941176471   0 0 0 0 0.317647059   0 0 0 0 0.745098039  0 0 0 0.0864565122 0"/>
      <feMerge>
        <feMergeNode in="shadowMatrixOuter1"/>
        <feMergeNode in="shadowMatrixOuter2"/>
      </feMerge>
    </filter>
    <filter id="benefit-search-j" width="123.2%" height="123.2%" x="-11.6%" y="-7.1%" filterUnits="objectBoundingBox">
      <feGaussianBlur in="SourceAlpha" result="shadowBlurInner1" stdDeviation="1.25"/>
      <feOffset dy="12" in="shadowBlurInner1" result="shadowOffsetInner1"/>
      <feComposite in="shadowOffsetInner1" in2="SourceAlpha" k2="-1" k3="1" operator="arithmetic" result="shadowInnerInner1"/>
      <feColorMatrix in="shadowInnerInner1" values="0 0 0 0 1   0 0 0 0 1   0 0 0 0 1  0 0 0 0.0782615822 0"/>
    </filter>
    <radialGradient id="benefit-search-m" cx="66.584%" cy="29.986%" r="128.593%" fx="66.584%" fy="29.986%" gradientTransform="matrix(.41007 -.7026 .40489 .71159 .271 .554)">
      <stop offset="0%" stop-color="#FFF"/>
      <stop offset="100%" stop-color="#AEC3EB"/>
    </radialGradient>
    <path id="benefit-search-l" d="M49.8909897,0 L33.8850922,0 C30.9865145,0 29.5345141,3.46213085 31.584397,5.48717605 L35.9770031,9.82655863 L26.0299195,19.6544566 L16.0828358,9.82789794 C14.3881575,8.15375343 11.641423,8.15375343 9.94810044,9.82789794 L0.635504355,19.0276569 C-0.211834785,19.8647291 -0.211834785,21.2214558 0.635504355,22.0585281 L3.70219417,25.08806 C4.54953331,25.9251323 5.92290059,25.9251323 6.77023973,25.08806 L13.0147903,18.917833 L22.9618739,28.7443916 C24.6565522,30.4185361 27.4032867,30.4185361 29.0966093,28.7443916 L42.1117385,15.8869618 L46.5043446,20.2263443 C48.5542274,22.2513895 52.0588235,20.8169825 52.0588235,17.9535257 L52.0588235,2.14290498 C52.0601779,0.958949977 51.0894661,0 49.8909897,0 Z"/>
    <filter id="benefit-search-k" width="140.8%" height="170.8%" x="-20.4%" y="-18.8%" filterUnits="objectBoundingBox">
      <feMorphology in="SourceAlpha" operator="dilate" radius=".625" result="shadowSpreadOuter1"/>
      <feOffset dy="2" in="shadowSpreadOuter1" result="shadowOffsetOuter1"/>
      <feGaussianBlur in="shadowOffsetOuter1" result="shadowBlurOuter1" stdDeviation="1"/>
      <feComposite in="shadowBlurOuter1" in2="SourceAlpha" operator="out" result="shadowBlurOuter1"/>
      <feColorMatrix in="shadowBlurOuter1" result="shadowMatrixOuter1" values="0 0 0 0 0.0941176471   0 0 0 0 0.317647059   0 0 0 0 0.745098039  0 0 0 0.147836538 0"/>
      <feMorphology in="SourceAlpha" operator="dilate" radius=".625" result="shadowSpreadOuter2"/>
      <feOffset dy="5" in="shadowSpreadOuter2" result="shadowOffsetOuter2"/>
      <feGaussianBlur in="shadowOffsetOuter2" result="shadowBlurOuter2" stdDeviation="2.5"/>
      <feComposite in="shadowBlurOuter2" in2="SourceAlpha" operator="out" result="shadowBlurOuter2"/>
      <feColorMatrix in="shadowBlurOuter2" result="shadowMatrixOuter2" values="0 0 0 0 0.0941176471   0 0 0 0 0.317647059   0 0 0 0 0.745098039  0 0 0 0.0864565122 0"/>
      <feMerge>
        <feMergeNode in="shadowMatrixOuter1"/>
        <feMergeNode in="shadowMatrixOuter2"/>
      </feMerge>
    </filter>
    <filter id="benefit-search-n" width="149.5%" height="185.8%" x="-24.7%" y="-26.2%" filterUnits="objectBoundingBox">
      <feGaussianBlur in="SourceAlpha" result="shadowBlurInner1" stdDeviation="1.25"/>
      <feOffset dy="12" in="shadowBlurInner1" result="shadowOffsetInner1"/>
      <feComposite in="shadowOffsetInner1" in2="SourceAlpha" k2="-1" k3="1" operator="arithmetic" result="shadowInnerInner1"/>
      <feColorMatrix in="shadowInnerInner1" values="0 0 0 0 1   0 0 0 0 1   0 0 0 0 1  0 0 0 0.0782615822 0"/>
    </filter>
  </defs>
  <g fill="none" fill-rule="evenodd" transform="translate(4 -4)">
    <g transform="translate(.947)">
      <mask id="benefit-search-b" fill="#fff">
        <use xlink:href="#benefit-search-a"/>
      </mask>
      <path d="M0.986842105,27.3157895 C0.986842105,12.7756579 12.7756579,0.986842105 27.3157895,0.986842105 L122.684211,0.986842105 C137.224342,0.986842105 149.013158,12.7756579 149.013158,27.3157895 L149.013158,122.684211 C149.013158,137.224342 137.224342,149.013158 122.684211,149.013158 L27.3157895,149.013158 C12.7756579,149.013158 0.986842105,137.224342 0.986842105,122.684211 L0.986842105,27.3157895 Z" mask="url(#benefit-search-b)"/>
      <path d="M0.986842105,27.3157895 C0.986842105,12.7756579 12.7756579,0.986842105 27.3157895,0.986842105 L122.684211,0.986842105 C137.224342,0.986842105 149.013158,12.7756579 149.013158,27.3157895 L149.013158,122.684211 C149.013158,137.224342 137.224342,149.013158 122.684211,149.013158 L27.3157895,149.013158 C12.7756579,149.013158 0.986842105,137.224342 0.986842105,122.684211 L0.986842105,27.3157895 Z"/>
      <path d="M0.986842105,27.3157895 C0.986842105,12.7756579 12.7756579,0.986842105 27.3157895,0.986842105 L122.684211,0.986842105 C137.224342,0.986842105 149.013158,12.7756579 149.013158,27.3157895 L149.013158,122.684211 C149.013158,137.224342 137.224342,149.013158 122.684211,149.013158 L27.3157895,149.013158 C12.7756579,149.013158 0.986842105,137.224342 0.986842105,122.684211 L0.986842105,27.3157895 Z"/>
      <g fill-rule="nonzero">
        <use fill="#000" filter="url(#benefit-search-c)" xlink:href="#benefit-search-d"/>
        <use fill="url(#benefit-search-e)" xlink:href="#benefit-search-d"/>
        <use fill="#000" filter="url(#benefit-search-f)" xlink:href="#benefit-search-d"/>
        <use stroke="#FFF" stroke-opacity=".01" stroke-width="1.5" xlink:href="#benefit-search-d"/>
      </g>
    </g>
    <g fill-rule="nonzero" transform="translate(1 21)">
      <g transform="matrix(-1 0 0 1 193 0)">
        <use fill="#000" filter="url(#benefit-search-g)" xlink:href="#benefit-search-h"/>
        <use fill="url(#benefit-search-i)" xlink:href="#benefit-search-h"/>
        <use fill="#000" filter="url(#benefit-search-j)" xlink:href="#benefit-search-h"/>
        <use stroke="#FFF" stroke-opacity=".01" stroke-width="1.25" xlink:href="#benefit-search-h"/>
      </g>
      <use fill="#000" filter="url(#benefit-search-k)" xlink:href="#benefit-search-l"/>
      <use fill="url(#benefit-search-m)" xlink:href="#benefit-search-l"/>
      <use fill="#000" filter="url(#benefit-search-n)" xlink:href="#benefit-search-l"/>
      <use stroke="#FFF" stroke-opacity=".01" stroke-width="1.25" xlink:href="#benefit-search-l"/>
    </g>
  </g>
</svg>
