<svg height="65" viewBox="0 0 76 65" width="76" xmlns="http://www.w3.org/2000/svg" xmlns:xlink="http://www.w3.org/1999/xlink"><linearGradient id="a" x1="50%" x2="50%" y1="0%" y2="100%"><stop offset="0" stop-color="#3f6abc"/><stop offset="1" stop-color="#1851be"/></linearGradient><filter id="b" height="109.3%" width="109.3%" x="-4.7%" y="-4.7%"><feGaussianBlur in="SourceGraphic" stdDeviation=".65"/></filter><radialGradient id="c" cx="59.794%" cy="0%" gradientTransform="matrix(0 .98387 -1 0 .598 -.588)" r="101.639%"><stop offset="0" stop-color="#fff"/><stop offset="1" stop-color="#aec3eb"/></radialGradient><filter id="d" height="106.3%" width="106.4%" x="-3.2%" y="-3.1%"><feGaussianBlur in="SourceGraphic" stdDeviation=".65"/></filter><mask id="e" fill="#fff"><path d="m.5 13.84c0-7.367 5.973-13.34 13.34-13.34h48.32c7.367 0 13.34 5.973 13.34 13.34v48.32c0 7.367-5.973 13.34-13.34 13.34h-48.32c-7.367 0-13.34-5.973-13.34-13.34z" fill="#fff" fill-rule="evenodd"/></mask><mask id="f" fill="#fff"><path d="m.5 13.84c0-7.367 5.973-13.34 13.34-13.34h48.32c7.367 0 13.34 5.973 13.34 13.34v48.32c0 7.367-5.973 13.34-13.34 13.34h-48.32c-7.367 0-13.34-5.973-13.34-13.34z" fill="#fff" fill-rule="evenodd"/></mask><g fill="none" fill-rule="evenodd" transform="translate(-6 1)"><path d="m.5 13.84c0-7.367 5.973-13.34 13.34-13.34h48.32c7.367 0 13.34 5.973 13.34 13.34v48.32c0 7.367-5.973 13.34-13.34 13.34h-48.32c-7.367 0-13.34-5.973-13.34-13.34z" mask="url(#e)"/><path d="m.5 13.84c0-7.367 5.973-13.34 13.34-13.34h48.32c7.367 0 13.34 5.973 13.34 13.34v48.32c0 7.367-5.973 13.34-13.34 13.34h-48.32c-7.367 0-13.34-5.973-13.34-13.34z"/><path d="m.5 13.84c0-7.367 5.973-13.34 13.34-13.34h48.32c7.367 0 13.34 5.973 13.34 13.34v48.32c0 7.367-5.973 13.34-13.34 13.34h-48.32c-7.367 0-13.34-5.973-13.34-13.34z"/><g fill-rule="nonzero"><rect height="60" rx="30" style="stroke:#fff;stroke-opacity:.01;stroke-width:1.68;fill:url(#a);filter:url(#b);mask:url(#f)" width="60" x="7" y="3"/><rect fill="url(#a)" height="60" mask="url(#f)" rx="30" stroke="#fff" stroke-opacity=".01" stroke-width="1.68" width="60" x="7" y="3"/><g fill="url(#c)" transform="translate(20)"><path d="m61 38.0512624c-3.1836361 13.7262429-15.4459307 23.9487376-30.0981329 23.9487376-17.0707687 0-30.9018671-13.8749928-30.9018671-30.999984-.01109317-7.1551523 2.45538361-14.0920603 6.97787001-19.6249899v5.7137471c.00030859 1.2450379.3712843 2.4616117 1.06536549 3.4937482 1.46036066 2.1737488 3.5362658 5.2587473 4.4446301 6.5962466.6438441.9515104 1.3993819 1.8219216 2.250351 2.5924986l.0996833.09c1.1879191 1.0785138 2.514242 1.992863 3.9437214 2.7187486 1.7444581.8812495 4.291367 2.2699988 6.0819286 3.2637483 1.2688574.704051 2.0548703 2.0453795 2.0509844 3.4999982v3.9999979c-.0001707 1.060931.4198101 2.0784715 1.1675409 2.8287486 1.8690623 1.874999 3.030373 4.8287475 2.8197919 6.4062467v3.6337481c.0000662.7503713.3202381 1.4648418.8796515 1.9629609s1.3045813.7322603 2.0473001.6432877c.2180572-.0262499.4348685-.0549999.6516797-.0874999 1.0456579-.1601191 1.891043-.9385459 2.1394533-1.969999l1.7581645-7.2037463c.2492084-.6862496.4062096-1.4012493.5943619-2.1087489.1369517-.5069472.4047109-.9687145.7762838-1.3387493.4136858-.4162498.9233168-.9249995 1.409273-1.4099993 1.0953205-1.0913326 1.7107653-2.5763319 1.7095689-4.1249978.0013441-1.0125462-.3990127-1.9840103-1.112715-2.6999987l-1.708323-1.7087491c-.7487167-.7482727-1.762935-1.1677474-2.8197919-1.1662494h-8.3185732c-1.1725251-.5887497-2.6764972-3.9999979-3.9873328-3.9999979-1.3111332.0000677-2.6042441-.3063685-3.7767519-.8949995l-1.380614-.6924997c-.5313971-.2749134-.8484567-.8409638-.8061664-1.439259.0422902-.5982953.435799-1.1137998 1.0005489-1.3107396l3.8839114-1.2987493c.6688889-.2243472 1.4061597-.0774704 1.9388406.3862498l1.1563265 1.0074995c.1804369.159646.4123416.2484403.6529258.2499999h.7027674c.3454422-.000185.6661644-.1797701.8476486-.4746319.1814842-.2948619.1978565-.6629628.0432711-.9728674l-1.9425787-3.898748c-.1927045-.388902-.1131545-.8581215.1968745-1.1612494l1.2360732-1.2062494c.1844511-.1855146.4341154-.290994.6952912-.2937498h1.1214373c.2644562.0002086.5181568-.1050114.7052595-.2924999l.9968333-.9999994c.3889796-.3904711.3889796-1.0232783 0-1.4137493l-.5843935-.5862497c-.3889796-.390471-.3889796-1.0232783 0-1.4137493l1.2871609-1.2937493.5843934-.5849997c.3739835-.3750857.5840924-.8838625.5840924-1.4143743s-.2101089-1.03928858-.5840924-1.41437426l-3.0403413-3.04999842c-.313485-.31512937-.747075-.47955155-1.1899696-.45124977-.3152485.02124999-.629251.04749998-.9444995.08124996-.7888694.08011815-1.3895033.74582965-1.3905823 1.5412492.0104056.90823247-.5779473 1.71437642-1.4441621 1.97874898-.4802852.13822355-.9947996.09048984-1.4416701-.13374993-.7303228-.36657667-1.4022304-.84009098-1.9936664-1.40499927l-5.0564365-4.82999751c4.3167844-2.18792786 9.0868084-3.32448188 13.9232679-3.31753028 12.9376491 0 24.0124661 7.97002788 28.6178356 19.283772l-4.5492976.3937498c-1.1919308.1032698-2.3536803.4315268-3.4241221.9674995-.4654493.2335326-.8622512.5846372-1.1513424 1.0187495l-2.4409953 3.6724981c-.6693608 1.0075369-.6693608 2.3199614 0 3.3274983l2.2428747 3.3749983c.3220126.4862236.7784359.8676397 1.3133278 1.0974994l2.5568772 1.2624993z" filter="url(#d)"/><path d="m61 38.0512624c-3.1836361 13.7262429-15.4459307 23.9487376-30.0981329 23.9487376-17.0707687 0-30.9018671-13.8749928-30.9018671-30.999984-.01109317-7.1551523 2.45538361-14.0920603 6.97787001-19.6249899v5.7137471c.00030859 1.2450379.3712843 2.4616117 1.06536549 3.4937482 1.46036066 2.1737488 3.5362658 5.2587473 4.4446301 6.5962466.6438441.9515104 1.3993819 1.8219216 2.250351 2.5924986l.0996833.09c1.1879191 1.0785138 2.514242 1.992863 3.9437214 2.7187486 1.7444581.8812495 4.291367 2.2699988 6.0819286 3.2637483 1.2688574.704051 2.0548703 2.0453795 2.0509844 3.4999982v3.9999979c-.0001707 1.060931.4198101 2.0784715 1.1675409 2.8287486 1.8690623 1.874999 3.030373 4.8287475 2.8197919 6.4062467v3.6337481c.0000662.7503713.3202381 1.4648418.8796515 1.9629609s1.3045813.7322603 2.0473001.6432877c.2180572-.0262499.4348685-.0549999.6516797-.0874999 1.0456579-.1601191 1.891043-.9385459 2.1394533-1.969999l1.7581645-7.2037463c.2492084-.6862496.4062096-1.4012493.5943619-2.1087489.1369517-.5069472.4047109-.9687145.7762838-1.3387493.4136858-.4162498.9233168-.9249995 1.409273-1.4099993 1.0953205-1.0913326 1.7107653-2.5763319 1.7095689-4.1249978.0013441-1.0125462-.3990127-1.9840103-1.112715-2.6999987l-1.708323-1.7087491c-.7487167-.7482727-1.762935-1.1677474-2.8197919-1.1662494h-8.3185732c-1.1725251-.5887497-2.6764972-3.9999979-3.9873328-3.9999979-1.3111332.0000677-2.6042441-.3063685-3.7767519-.8949995l-1.380614-.6924997c-.5313971-.2749134-.8484567-.8409638-.8061664-1.439259.0422902-.5982953.435799-1.1137998 1.0005489-1.3107396l3.8839114-1.2987493c.6688889-.2243472 1.4061597-.0774704 1.9388406.3862498l1.1563265 1.0074995c.1804369.159646.4123416.2484403.6529258.2499999h.7027674c.3454422-.000185.6661644-.1797701.8476486-.4746319.1814842-.2948619.1978565-.6629628.0432711-.9728674l-1.9425787-3.898748c-.1927045-.388902-.1131545-.8581215.1968745-1.1612494l1.2360732-1.2062494c.1844511-.1855146.4341154-.290994.6952912-.2937498h1.1214373c.2644562.0002086.5181568-.1050114.7052595-.2924999l.9968333-.9999994c.3889796-.3904711.3889796-1.0232783 0-1.4137493l-.5843935-.5862497c-.3889796-.390471-.3889796-1.0232783 0-1.4137493l1.2871609-1.2937493.5843934-.5849997c.3739835-.3750857.5840924-.8838625.5840924-1.4143743s-.2101089-1.03928858-.5840924-1.41437426l-3.0403413-3.04999842c-.313485-.31512937-.747075-.47955155-1.1899696-.45124977-.3152485.02124999-.629251.04749998-.9444995.08124996-.7888694.08011815-1.3895033.74582965-1.3905823 1.5412492.0104056.90823247-.5779473 1.71437642-1.4441621 1.97874898-.4802852.13822355-.9947996.09048984-1.4416701-.13374993-.7303228-.36657667-1.4022304-.84009098-1.9936664-1.40499927l-5.0564365-4.82999751c4.3167844-2.18792786 9.0868084-3.32448188 13.9232679-3.31753028 12.9376491 0 24.0124661 7.97002788 28.6178356 19.283772l-4.5492976.3937498c-1.1919308.1032698-2.3536803.4315268-3.4241221.9674995-.4654493.2335326-.8622512.5846372-1.1513424 1.0187495l-2.4409953 3.6724981c-.6693608 1.0075369-.6693608 2.3199614 0 3.3274983l2.2428747 3.3749983c.3220126.4862236.7784359.8676397 1.3133278 1.0974994l2.5568772 1.2624993z"/></g></g></g></svg>