<svg height="80" viewBox="0 0 83 80" width="83" xmlns="http://www.w3.org/2000/svg" xmlns:xlink="http://www.w3.org/1999/xlink"><linearGradient id="a" x1="50%" x2="50%" y1="0%" y2="100%"><stop offset="0" stop-color="#3f6abc"/><stop offset="1" stop-color="#1851be"/></linearGradient><filter id="b" height="110.6%" width="110.6%" x="-5.3%" y="-5.3%"><feGaussianBlur in="SourceGraphic" stdDeviation="1.05"/></filter><radialGradient id="c" cx="57.581%" cy="0%" gradientTransform="matrix(0 1 -.76812 0 .576 -.576)" r="100%"><stop offset="0" stop-color="#fff"/><stop offset="1" stop-color="#bdceee"/></radialGradient><filter id="d" height="107.4%" width="105.7%" x="-2.8%" y="-3.7%"><feGaussianBlur in="SourceGraphic" stdDeviation=".65"/></filter><mask id="e" fill="#fff"><path d="m.5 13.84c0-7.367 5.973-13.34 13.34-13.34h48.32c7.367 0 13.34 5.973 13.34 13.34v48.32c0 7.367-5.973 13.34-13.34 13.34h-48.32c-7.367 0-13.34-5.973-13.34-13.34z" fill="#fff" fill-rule="evenodd"/></mask><g fill="none" fill-rule="evenodd" transform="translate(1 2)"><g transform="translate(4)"><path d="m.5 13.84c0-7.367 5.973-13.34 13.34-13.34h48.32c7.367 0 13.34 5.973 13.34 13.34v48.32c0 7.367-5.973 13.34-13.34 13.34h-48.32c-7.367 0-13.34-5.973-13.34-13.34z" mask="url(#e)"/><path d="m.5 13.84c0-7.367 5.973-13.34 13.34-13.34h48.32c7.367 0 13.34 5.973 13.34 13.34v48.32c0 7.367-5.973 13.34-13.34 13.34h-48.32c-7.367 0-13.34-5.973-13.34-13.34z"/><path d="m.5 13.84c0-7.367 5.973-13.34 13.34-13.34h48.32c7.367 0 13.34 5.973 13.34 13.34v48.32c0 7.367-5.973 13.34-13.34 13.34h-48.32c-7.367 0-13.34-5.973-13.34-13.34z"/><g fill="url(#a)" fill-rule="nonzero" stroke="#fff" stroke-opacity=".01" stroke-width="1.68"><path d="m.5 13.84c0-7.367 5.973-13.34 13.34-13.34h48.32c7.367 0 13.34 5.973 13.34 13.34v48.32c0 7.367-5.973 13.34-13.34 13.34h-48.32c-7.367 0-13.34-5.973-13.34-13.34z" filter="url(#b)"/><path d="m.5 13.84c0-7.367 5.973-13.34 13.34-13.34h48.32c7.367 0 13.34 5.973 13.34 13.34v48.32c0 7.367-5.973 13.34-13.34 13.34h-48.32c-7.367 0-13.34-5.973-13.34-13.34z"/></g></g><g fill="url(#c)" fill-rule="nonzero" transform="translate(0 12)"><path d="m10.2915254 32.9777778c1.2369622 0 2.4739244 1.2341113 2.5672455 2.5156885l.0056359.1539411v14.682963c0 1.2834758-1.1893867 2.5669515-2.4245191 2.6637818l-.1483623.0058478h-7.71864404c-1.23696219 0-2.47392438-1.2341113-2.5672455-2.5156885l-.00563586-.1539411v-14.682963c0-1.2834758 1.18938672-2.5669516 2.42451909-2.6637818l.14836227-.0058478zm18.7118644-25.91111113c1.2369622 0 2.4739244 1.21336996 2.5672455 2.473408l.0056359.1513539v40.68380953c0 1.2619048-1.1893867 2.5238095-2.4245191 2.6190124l-.1483623.0057495h-7.718644c-1.2369622 0-2.4739244-1.21337-2.5672455-2.473408l-.0056359-.1513539v-40.68380953c0-1.26190476 1.1893867-2.52380952 2.4245191-2.6190124l.1483623-.0057495zm29.7050848-7.06666667h7.718644c1.2369622 0 2.4739244 1.22503698 2.5672455 2.49719077l.0056359.15280923v47.7c0 1.2740385-1.1893867 2.5480769-2.4245191 2.6441952l-.1483623.0058048h-7.718644c-1.2369622 0-2.4739244-1.225037-2.5672455-2.4971908l-.0056359-.1528092v-47.7c0-1.27403846 1.1893867-2.54807692 2.4245191-2.64419521l.1483623-.00580479h7.718644zm-10.9932204 20.0222222c1.2864407 0 2.5728814 1.3191111 2.5728814 2.6382222v27.7013334c0 1.3191111-1.2864407 2.6382222-2.5728814 2.6382222h-7.718644c-1.2864407 0-2.5728814-1.3191111-2.5728814-2.6382222v-27.7013334c0-1.3191111 1.2864407-2.6382222 2.5728814-2.6382222z" filter="url(#d)"/><path d="m10.2915254 32.9777778c1.2369622 0 2.4739244 1.2341113 2.5672455 2.5156885l.0056359.1539411v14.682963c0 1.2834758-1.1893867 2.5669515-2.4245191 2.6637818l-.1483623.0058478h-7.71864404c-1.23696219 0-2.47392438-1.2341113-2.5672455-2.5156885l-.00563586-.1539411v-14.682963c0-1.2834758 1.18938672-2.5669516 2.42451909-2.6637818l.14836227-.0058478zm18.7118644-25.91111113c1.2369622 0 2.4739244 1.21336996 2.5672455 2.473408l.0056359.1513539v40.68380953c0 1.2619048-1.1893867 2.5238095-2.4245191 2.6190124l-.1483623.0057495h-7.718644c-1.2369622 0-2.4739244-1.21337-2.5672455-2.473408l-.0056359-.1513539v-40.68380953c0-1.26190476 1.1893867-2.52380952 2.4245191-2.6190124l.1483623-.0057495zm29.7050848-7.06666667h7.718644c1.2369622 0 2.4739244 1.22503698 2.5672455 2.49719077l.0056359.15280923v47.7c0 1.2740385-1.1893867 2.5480769-2.4245191 2.6441952l-.1483623.0058048h-7.718644c-1.2369622 0-2.4739244-1.225037-2.5672455-2.4971908l-.0056359-.1528092v-47.7c0-1.27403846 1.1893867-2.54807692 2.4245191-2.64419521l.1483623-.00580479h7.718644zm-10.9932204 20.0222222c1.2864407 0 2.5728814 1.3191111 2.5728814 2.6382222v27.7013334c0 1.3191111-1.2864407 2.6382222-2.5728814 2.6382222h-7.718644c-1.2864407 0-2.5728814-1.3191111-2.5728814-2.6382222v-27.7013334c0-1.3191111 1.2864407-2.6382222 2.5728814-2.6382222z"/></g></g></svg>