<svg xmlns="http://www.w3.org/2000/svg" xmlns:xlink="http://www.w3.org/1999/xlink" width="153" height="131" viewBox="0 0 153 131">
  <defs>
    <path id="benefit-i18n-a" d="M0.986842105,27.3157895 C0.986842105,12.7756579 12.7756579,0.986842105 27.3157895,0.986842105 L122.684211,0.986842105 C137.224342,0.986842105 149.013158,12.7756579 149.013158,27.3157895 L149.013158,122.684211 C149.013158,137.224342 137.224342,149.013158 122.684211,149.013158 L27.3157895,149.013158 C12.7756579,149.013158 0.986842105,137.224342 0.986842105,122.684211 L0.986842105,27.3157895 Z"/>
    <path id="benefit-i18n-c" d="M0.986842105,27.3157895 C0.986842105,12.7756579 12.7756579,0.986842105 27.3157895,0.986842105 L122.684211,0.986842105 C137.224342,0.986842105 149.013158,12.7756579 149.013158,27.3157895 L149.013158,122.684211 C149.013158,137.224342 137.224342,149.013158 122.684211,149.013158 L27.3157895,149.013158 C12.7756579,149.013158 0.986842105,137.224342 0.986842105,122.684211 L0.986842105,27.3157895 Z"/>
    <radialGradient id="benefit-i18n-g" cx="18.205%" cy="0%" r="100%" fx="18.205%" fy="0%">
      <stop offset="0%" stop-color="#3F6ABC"/>
      <stop offset="100%" stop-color="#1851BE"/>
    </radialGradient>
    <rect id="benefit-i18n-f" width="118.421" height="118.421" x="9" y="13.921" rx="59.211"/>
    <filter id="benefit-i18n-e" width="108.9%" height="108.9%" x="-4.4%" y="-3.2%" filterUnits="objectBoundingBox">
      <feMorphology in="SourceAlpha" operator="dilate" radius=".75" result="shadowSpreadOuter1"/>
      <feOffset dy="1.5" in="shadowSpreadOuter1" result="shadowOffsetOuter1"/>
      <feGaussianBlur in="shadowOffsetOuter1" result="shadowBlurOuter1" stdDeviation="1.25"/>
      <feComposite in="shadowBlurOuter1" in2="SourceAlpha" operator="out" result="shadowBlurOuter1"/>
      <feColorMatrix in="shadowBlurOuter1" values="0 0 0 0 0.0941176471   0 0 0 0 0.317647059   0 0 0 0 0.745098039  0 0 0 0.3 0"/>
    </filter>
    <filter id="benefit-i18n-h" width="114.8%" height="114.8%" x="-7.4%" y="-6.1%" filterUnits="objectBoundingBox">
      <feGaussianBlur in="SourceAlpha" result="shadowBlurInner1" stdDeviation="5"/>
      <feOffset dy="1" in="shadowBlurInner1" result="shadowOffsetInner1"/>
      <feComposite in="shadowOffsetInner1" in2="SourceAlpha" k2="-1" k3="1" operator="arithmetic" result="shadowInnerInner1"/>
      <feColorMatrix in="shadowInnerInner1" result="shadowMatrixInner1" values="0 0 0 0 0.0941176471   0 0 0 0 0.317647059   0 0 0 0 0.745098039  0 0 0 0.0490329983 0"/>
      <feOffset dy="1" in="SourceAlpha" result="shadowOffsetInner2"/>
      <feComposite in="shadowOffsetInner2" in2="SourceAlpha" k2="-1" k3="1" operator="arithmetic" result="shadowInnerInner2"/>
      <feColorMatrix in="shadowInnerInner2" result="shadowMatrixInner2" values="0 0 0 0 0.0941176471   0 0 0 0 0.317647059   0 0 0 0 0.745098039  0 0 0 0.0528299825 0"/>
      <feMerge>
        <feMergeNode in="shadowMatrixInner1"/>
        <feMergeNode in="shadowMatrixInner2"/>
      </feMerge>
    </filter>
    <radialGradient id="benefit-i18n-k" cx="22.09%" cy="0%" r="108.428%" fx="22.09%" fy="0%" gradientTransform="matrix(0 .98387 -1 0 .22 -.217)">
      <stop offset="0%" stop-color="#FFF"/>
      <stop offset="100%" stop-color="#AEC3EB"/>
    </radialGradient>
    <path id="benefit-i18n-j" d="M117.96944,73.2599856 C111.839994,99.6870814 88.231434,119.368421 60.0215914,119.368421 C27.1552895,119.368421 0.526315789,92.6549373 0.526315789,59.6842413 C0.504958133,45.9084472 5.25365877,32.5528383 13.9607888,21.9003049 L13.9607888,32.9009657 C13.9613829,35.2980336 14.6756214,37.6402996 16.0119339,39.627469 C18.823562,43.8125814 22.8202963,49.7521199 24.5691674,52.3272035 C25.8087585,54.1591438 27.2633932,55.834944 28.9017616,57.3185337 L29.0936816,57.4918103 C31.3807789,59.5682699 33.9343446,61.3286638 36.6865171,62.7262092 C40.0451172,64.4228764 44.9486735,67.0966314 48.3960367,69.0098944 C50.8389641,70.3654017 52.3522725,72.9478576 52.3447909,75.7484308 L52.3447909,83.4496153 C52.3444622,85.4922226 53.1530501,87.4512903 54.5926541,88.8957967 C58.1911543,92.5057269 60.4270224,98.1925703 60.0215914,101.229725 L60.0215914,108.22577 C60.0217187,109.670457 60.6381448,111.046026 61.7151818,112.005053 C62.7922188,112.96408 64.2268885,113.414871 65.6568427,113.243573 C66.0766677,113.193034 66.4940938,113.137681 66.9115198,113.075109 C68.924722,112.766832 70.5523395,111.26813 71.030603,109.282276 L74.4155922,95.412924 C74.8953922,94.0916896 75.1976662,92.7151028 75.5599153,91.3529558 C75.8235881,90.3769317 76.3391042,89.4878926 77.0544924,88.7754657 C77.8509604,87.9740612 78.8321515,86.9945668 79.7677615,86.0607981 C81.8765789,83.9596585 83.0614931,81.1005936 83.0591897,78.1189516 C83.0617774,76.1694995 82.2909717,74.2991425 80.9168826,72.9206521 L77.6278534,69.6308024 C76.1863512,68.1901551 74.2336796,67.3825416 72.1989161,67.3854258 L56.1831912,67.3854258 C53.925732,66.2519077 51.0301389,59.6842413 48.5063907,59.6842413 C45.9820697,59.6843716 43.4924472,59.0943908 41.2350213,57.9611013 L38.5769292,56.6278337 C37.5538318,56.0985437 36.9433979,55.0087286 37.0248192,53.8568325 C37.1062405,52.7049363 37.8638619,51.7124369 38.9511732,51.3332694 L46.4288566,48.832791 C47.7166665,48.4008559 49.1361319,48.6836374 50.1617008,49.5764367 L52.387973,51.5161725 C52.7353676,51.8235385 53.1818529,51.994494 53.645049,51.9974965 L54.9980851,51.9974965 C55.6631639,51.9971404 56.2806495,51.6513858 56.6300605,51.0836891 C56.9794714,50.5159925 57.0109931,49.8072889 56.7133702,49.2106304 L52.973329,41.7043822 C52.6023157,40.9556303 52.7554731,40.0522432 53.352371,39.468632 L55.7321791,37.1462436 C56.0873024,36.7890727 56.5679803,36.5859937 57.0708212,36.5806879 L59.2299213,36.5806879 C59.739078,36.5810895 60.2275271,36.3785098 60.5877554,36.0175387 L62.5069555,34.0922426 C63.2558569,33.3404699 63.2558569,32.1221279 62.5069555,31.3703552 L61.3818245,30.2416504 C60.6329231,29.4898777 60.6329231,28.2715357 61.3818245,27.519763 L63.8599916,25.0289111 L64.9851227,23.9026129 C65.7051519,23.1804615 66.1096739,22.2009151 66.1096739,21.1795222 C66.1096739,20.1581293 65.7051519,19.1785829 64.9851227,18.4564315 L64.9851227,18.4564315 L59.1315623,12.5842784 C58.5280105,11.9775607 57.6932208,11.6609991 56.8405172,11.7154885 C56.2335702,11.756401 55.6290221,11.80694 55.0220751,11.8719188 C53.5032672,12.02617 52.3468683,13.3078625 52.3447909,14.8392814 C52.3648248,16.5878988 51.2320708,18.1399654 49.5643498,18.6489611 C48.6396582,18.9150825 47.649065,18.8231809 46.7887066,18.3914528 C45.3826181,17.6856838 44.0889965,16.774028 42.9503064,15.6864117 L33.2151639,6.38723147 C41.5262564,2.17482029 50.7099697,-0.0133838982 60.0215914,0 C84.9304098,0 106.252723,15.3446717 115.119428,37.1269906 L106.360678,37.885076 C104.065857,38.083901 101.829144,38.7158933 99.7682256,39.7478 C98.8720974,40.1974195 98.108136,40.8734003 97.5515495,41.7091954 L92.8519082,48.7798454 C91.5631899,50.7196533 91.5631899,53.2464604 92.8519082,55.1862682 L97.1701085,61.6841426 C97.7900783,62.6202677 98.6688287,63.354607 99.6986546,63.7971551 L104.621403,66.2278415 L117.96944,73.2599856 Z"/>
    <filter id="benefit-i18n-i" width="118.2%" height="117.8%" x="-9%" y="-4.7%" filterUnits="objectBoundingBox">
      <feMorphology in="SourceAlpha" operator="dilate" radius=".625" result="shadowSpreadOuter1"/>
      <feOffset dy="2" in="shadowSpreadOuter1" result="shadowOffsetOuter1"/>
      <feGaussianBlur in="shadowOffsetOuter1" result="shadowBlurOuter1" stdDeviation="1"/>
      <feComposite in="shadowBlurOuter1" in2="SourceAlpha" operator="out" result="shadowBlurOuter1"/>
      <feColorMatrix in="shadowBlurOuter1" result="shadowMatrixOuter1" values="0 0 0 0 0.0941176471   0 0 0 0 0.317647059   0 0 0 0 0.745098039  0 0 0 0.147836538 0"/>
      <feMorphology in="SourceAlpha" operator="dilate" radius=".625" result="shadowSpreadOuter2"/>
      <feOffset dy="5" in="shadowSpreadOuter2" result="shadowOffsetOuter2"/>
      <feGaussianBlur in="shadowOffsetOuter2" result="shadowBlurOuter2" stdDeviation="2.5"/>
      <feComposite in="shadowBlurOuter2" in2="SourceAlpha" operator="out" result="shadowBlurOuter2"/>
      <feColorMatrix in="shadowBlurOuter2" result="shadowMatrixOuter2" values="0 0 0 0 0.0941176471   0 0 0 0 0.317647059   0 0 0 0 0.745098039  0 0 0 0.0864565122 0"/>
      <feMerge>
        <feMergeNode in="shadowMatrixOuter1"/>
        <feMergeNode in="shadowMatrixOuter2"/>
      </feMerge>
    </filter>
    <filter id="benefit-i18n-l" width="122%" height="121.6%" x="-11%" y="-6.6%" filterUnits="objectBoundingBox">
      <feGaussianBlur in="SourceAlpha" result="shadowBlurInner1" stdDeviation="1.25"/>
      <feOffset dy="12" in="shadowBlurInner1" result="shadowOffsetInner1"/>
      <feComposite in="shadowOffsetInner1" in2="SourceAlpha" k2="-1" k3="1" operator="arithmetic" result="shadowInnerInner1"/>
      <feColorMatrix in="shadowInnerInner1" values="0 0 0 0 1   0 0 0 0 1   0 0 0 0 1  0 0 0 0.0782615822 0"/>
    </filter>
  </defs>
  <g fill="none" fill-rule="evenodd" transform="translate(-5 -6)">
    <mask id="benefit-i18n-b" fill="#fff">
      <use xlink:href="#benefit-i18n-a"/>
    </mask>
    <path d="M0.986842105,27.3157895 C0.986842105,12.7756579 12.7756579,0.986842105 27.3157895,0.986842105 L122.684211,0.986842105 C137.224342,0.986842105 149.013158,12.7756579 149.013158,27.3157895 L149.013158,122.684211 C149.013158,137.224342 137.224342,149.013158 122.684211,149.013158 L27.3157895,149.013158 C12.7756579,149.013158 0.986842105,137.224342 0.986842105,122.684211 L0.986842105,27.3157895 Z" mask="url(#benefit-i18n-b)"/>
    <path d="M0.986842105,27.3157895 C0.986842105,12.7756579 12.7756579,0.986842105 27.3157895,0.986842105 L122.684211,0.986842105 C137.224342,0.986842105 149.013158,12.7756579 149.013158,27.3157895 L149.013158,122.684211 C149.013158,137.224342 137.224342,149.013158 122.684211,149.013158 L27.3157895,149.013158 C12.7756579,149.013158 0.986842105,137.224342 0.986842105,122.684211 L0.986842105,27.3157895 Z"/>
    <path d="M0.986842105,27.3157895 C0.986842105,12.7756579 12.7756579,0.986842105 27.3157895,0.986842105 L122.684211,0.986842105 C137.224342,0.986842105 149.013158,12.7756579 149.013158,27.3157895 L149.013158,122.684211 C149.013158,137.224342 137.224342,149.013158 122.684211,149.013158 L27.3157895,149.013158 C12.7756579,149.013158 0.986842105,137.224342 0.986842105,122.684211 L0.986842105,27.3157895 Z"/>
    <mask id="benefit-i18n-d" fill="#fff">
      <use xlink:href="#benefit-i18n-c"/>
    </mask>
    <g fill-rule="nonzero" mask="url(#benefit-i18n-d)">
      <use fill="#000" filter="url(#benefit-i18n-e)" xlink:href="#benefit-i18n-f"/>
      <use fill="url(#benefit-i18n-g)" xlink:href="#benefit-i18n-f"/>
      <use fill="#000" filter="url(#benefit-i18n-h)" xlink:href="#benefit-i18n-f"/>
      <use stroke="#FFF" stroke-opacity=".01" stroke-width="1.5" xlink:href="#benefit-i18n-f"/>
    </g>
    <g fill-rule="nonzero" transform="translate(34.658 7)">
      <use fill="#000" filter="url(#benefit-i18n-i)" xlink:href="#benefit-i18n-j"/>
      <use fill="url(#benefit-i18n-k)" xlink:href="#benefit-i18n-j"/>
      <use fill="#000" filter="url(#benefit-i18n-l)" xlink:href="#benefit-i18n-j"/>
      <use stroke="#FFF" stroke-opacity=".01" stroke-width="1.25" xlink:href="#benefit-i18n-j"/>
    </g>
  </g>
</svg>
