<svg height="57" viewBox="0 0 80 57" width="80" xmlns="http://www.w3.org/2000/svg" xmlns:xlink="http://www.w3.org/1999/xlink"><radialGradient id="a" cx="22.09%" cy="0%" r="106.679%"><stop offset="0" stop-color="#fff"/><stop offset="1" stop-color="#aec3eb"/></radialGradient><linearGradient id="b" x1="50%" x2="50%" y1="0%" y2="100%"><stop offset="0" stop-color="#3f6abc"/><stop offset="1" stop-color="#1851be"/></linearGradient><filter id="c" height="111.4%" width="108.5%" x="-4.2%" y="-5.7%"><feGaussianBlur in="SourceGraphic" stdDeviation=".65"/></filter><mask id="d" fill="#fff"><path d="m.5 13.84c0-7.367 5.973-13.34 13.34-13.34h48.32c7.367 0 13.34 5.973 13.34 13.34v48.32c0 7.367-5.973 13.34-13.34 13.34h-48.32c-7.367 0-13.34-5.973-13.34-13.34z" fill="#fff" fill-rule="evenodd"/></mask><mask id="e" fill="#fff"><path d="m.5 13.84c0-7.367 5.973-13.34 13.34-13.34h48.32c7.367 0 13.34 5.973 13.34 13.34v48.32c0 7.367-5.973 13.34-13.34 13.34h-48.32c-7.367 0-13.34-5.973-13.34-13.34z" fill="#fff" fill-rule="evenodd"/></mask><g fill="none" fill-rule="evenodd" transform="translate(-4 -7)"><path d="m.5 13.84c0-7.367 5.973-13.34 13.34-13.34h48.32c7.367 0 13.34 5.973 13.34 13.34v48.32c0 7.367-5.973 13.34-13.34 13.34h-48.32c-7.367 0-13.34-5.973-13.34-13.34z" mask="url(#d)"/><path d="m.5 13.84c0-7.367 5.973-13.34 13.34-13.34h48.32c7.367 0 13.34 5.973 13.34 13.34v48.32c0 7.367-5.973 13.34-13.34 13.34h-48.32c-7.367 0-13.34-5.973-13.34-13.34z"/><path d="m.5 13.84c0-7.367 5.973-13.34 13.34-13.34h48.32c7.367 0 13.34 5.973 13.34 13.34v48.32c0 7.367-5.973 13.34-13.34 13.34h-48.32c-7.367 0-13.34-5.973-13.34-13.34z"/><g fill-rule="nonzero" stroke="#fff" stroke-opacity=".01" stroke-width="1.68"><rect fill="url(#a)" height="40" mask="url(#e)" rx="20" width="40" x="5" y="8"/><rect fill="url(#a)" height="40" mask="url(#e)" rx="20" width="40" x="5" y="8"/><g fill="url(#b)" transform="translate(17 14)"><path d="m47.1122449 38.5c.9636805 0 1.744898.7835017 1.744898 1.75v7c0 .9664983-.7812175 1.75-1.744898 1.75h-45.36734694c-.96368053 0-1.74489796-.7835017-1.74489796-1.75v-7c0-.9664983.78121743-1.75 1.74489796-1.75zm16.6377551-18.7280702c1.1637429 0 2.1071429.7697561 2.1071429 1.7192983v6.877193c0 .9495422-.9434 1.7192982-2.1071429 1.7192982h-54.78571429c-1.16374286 0-2.10714285-.769756-2.10714285-1.7192982v-6.877193c0-.9495422.94339999-1.7192983 2.10714285-1.7192983zm-61.75-19.7719298h52c1.051971 0 1.9142467.71065913 1.9939827 1.61323853l.0060173.13676147v7c0 .92047458-.8121819 1.6749658-1.8437012 1.7447349l-.1562988.0052651h-52c-1.05197095 0-1.91424667-.71065913-1.99398274-1.61323853l-.00601726-.13676147v-7c0-.92047458.81218186-1.67496583 1.84370118-1.7447349l.15629882-.0052651h52z" filter="url(#c)"/><path d="m47.1122449 38.5c.9636805 0 1.744898.7835017 1.744898 1.75v7c0 .9664983-.7812175 1.75-1.744898 1.75h-45.36734694c-.96368053 0-1.74489796-.7835017-1.74489796-1.75v-7c0-.9664983.78121743-1.75 1.74489796-1.75zm16.6377551-18.7280702c1.1637429 0 2.1071429.7697561 2.1071429 1.7192983v6.877193c0 .9495422-.9434 1.7192982-2.1071429 1.7192982h-54.78571429c-1.16374286 0-2.10714285-.769756-2.10714285-1.7192982v-6.877193c0-.9495422.94339999-1.7192983 2.10714285-1.7192983zm-61.75-19.7719298h52c1.051971 0 1.9142467.71065913 1.9939827 1.61323853l.0060173.13676147v7c0 .92047458-.8121819 1.6749658-1.8437012 1.7447349l-.1562988.0052651h-52c-1.05197095 0-1.91424667-.71065913-1.99398274-1.61323853l-.00601726-.13676147v-7c0-.92047458.81218186-1.67496583 1.84370118-1.7447349l.15629882-.0052651h52z"/></g></g></g></svg>