<svg xmlns="http://www.w3.org/2000/svg" xmlns:xlink="http://www.w3.org/1999/xlink" width="152" height="152" viewBox="0 0 152 152">
  <defs>
    <path id="benefit-sai-a" d="M0.986842105,27.3157895 C0.986842105,12.7756579 12.7756579,0.986842105 27.3157895,0.986842105 L122.684211,0.986842105 C137.224342,0.986842105 149.013158,12.7756579 149.013158,27.3157895 L149.013158,122.684211 C149.013158,137.224342 137.224342,149.013158 122.684211,149.013158 L27.3157895,149.013158 C12.7756579,149.013158 0.986842105,137.224342 0.986842105,122.684211 L0.986842105,27.3157895 Z"/>
    <linearGradient id="benefit-sai-c" x1="50%" x2="50%" y1="0%" y2="100%">
      <stop offset="0%" stop-color="#3F6ABC"/>
      <stop offset="100%" stop-color="#1851BE"/>
    </linearGradient>
    <filter id="benefit-sai-d" width="105.4%" height="105.4%" x="-2.7%" y="-2.7%" filterUnits="objectBoundingBox">
      <feGaussianBlur in="SourceGraphic" stdDeviation="1.05"/>
    </filter>
    <radialGradient id="benefit-sai-e" cx="55.954%" cy="0%" r="116.607%" fx="55.954%" fy="0%" gradientTransform="matrix(0 1 -.88567 0 .56 -.56)">
      <stop offset="0%" stop-color="#FFF"/>
      <stop offset="100%" stop-color="#AEC3EB"/>
    </radialGradient>
    <radialGradient id="benefit-sai-f" cx="55.954%" cy="0%" r="315.185%" fx="55.954%" fy="0%" gradientTransform="matrix(0 1 -.50386 0 .56 -.56)">
      <stop offset="0%" stop-color="#FFF"/>
      <stop offset="100%" stop-color="#AEC3EB"/>
    </radialGradient>
  </defs>
  <g fill="none" fill-rule="evenodd" transform="translate(1 1)">
    <mask id="benefit-sai-b" fill="#fff">
      <use xlink:href="#benefit-sai-a"/>
    </mask>
    <path d="M0.986842105,27.3157895 C0.986842105,12.7756579 12.7756579,0.986842105 27.3157895,0.986842105 L122.684211,0.986842105 C137.224342,0.986842105 149.013158,12.7756579 149.013158,27.3157895 L149.013158,122.684211 C149.013158,137.224342 137.224342,149.013158 122.684211,149.013158 L27.3157895,149.013158 C12.7756579,149.013158 0.986842105,137.224342 0.986842105,122.684211 L0.986842105,27.3157895 Z" mask="url(#benefit-sai-b)"/>
    <path d="M0.986842105,27.3157895 C0.986842105,12.7756579 12.7756579,0.986842105 27.3157895,0.986842105 L122.684211,0.986842105 C137.224342,0.986842105 149.013158,12.7756579 149.013158,27.3157895 L149.013158,122.684211 C149.013158,137.224342 137.224342,149.013158 122.684211,149.013158 L27.3157895,149.013158 C12.7756579,149.013158 0.986842105,137.224342 0.986842105,122.684211 L0.986842105,27.3157895 Z"/>
    <path d="M0.986842105,27.3157895 C0.986842105,12.7756579 12.7756579,0.986842105 27.3157895,0.986842105 L122.684211,0.986842105 C137.224342,0.986842105 149.013158,12.7756579 149.013158,27.3157895 L149.013158,122.684211 C149.013158,137.224342 137.224342,149.013158 122.684211,149.013158 L27.3157895,149.013158 C12.7756579,149.013158 0.986842105,137.224342 0.986842105,122.684211 L0.986842105,27.3157895 Z"/>
    <path fill="url(#benefit-sai-c)" fill-rule="nonzero" stroke="#FFF" stroke-opacity=".01" stroke-width="1.68" d="M0.986842105,27.3157895 C0.986842105,12.7756579 12.7756579,0.986842105 27.3157895,0.986842105 L122.684211,0.986842105 C137.224342,0.986842105 149.013158,12.7756579 149.013158,27.3157895 L149.013158,122.684211 C149.013158,137.224342 137.224342,149.013158 122.684211,149.013158 L27.3157895,149.013158 C12.7756579,149.013158 0.986842105,137.224342 0.986842105,122.684211 L0.986842105,27.3157895 Z" filter="url(#benefit-sai-d)"/>
    <path fill="url(#benefit-sai-c)" fill-rule="nonzero" stroke="#FFF" stroke-opacity=".01" stroke-width="1.68" d="M0.986842105,27.3157895 C0.986842105,12.7756579 12.7756579,0.986842105 27.3157895,0.986842105 L122.684211,0.986842105 C137.224342,0.986842105 149.013158,12.7756579 149.013158,27.3157895 L149.013158,122.684211 C149.013158,137.224342 137.224342,149.013158 122.684211,149.013158 L27.3157895,149.013158 C12.7756579,149.013158 0.986842105,137.224342 0.986842105,122.684211 L0.986842105,27.3157895 Z"/>
    <g fill-rule="nonzero" transform="translate(19 26)">
      <path fill="url(#benefit-sai-e)" d="M18.2416268,24.6710526 C24.9580083,24.6710526 30.4027113,19.1482494 30.4027113,12.3355263 C30.4027113,5.52280325 24.9580083,0 18.2416268,0 C11.5252453,0 6.08054226,5.52280325 6.08054226,12.3355263 C6.08054226,19.1482494 11.5252453,24.6710526 18.2416268,24.6710526 Z M24.3221691,30.8388158 L12.1610845,30.8388158 C5.444703,30.8388158 2.91322522e-13,36.361619 2.91322522e-13,43.1743421 L2.91322522e-13,61.6776316 C2.91322522e-13,65.0839931 2.7223515,67.8453947 6.08054226,67.8453947 L6.08054226,92.5164474 C6.08054226,95.9228089 8.80289377,98.6842105 12.1610845,98.6842105 L24.3221691,98.6842105 C27.6803598,98.6842105 30.4027113,95.9228089 30.4027113,92.5164474 L30.4027113,73.9379883 L20.8334579,64.7769326 C19.1783055,63.1643586 18.2427521,60.9370614 18.2427521,58.6091694 C18.2427521,56.2812774 19.1783055,54.0539802 20.8334579,52.4414062 L34.5393802,39.3194901 C34.8529082,39.0207391 35.2557441,38.8742547 35.6053753,38.6313991 C33.7755471,33.932664 29.3027658,30.8436023 24.3221691,30.8388158 Z M93.1818182,24.6710526 C99.8981997,24.6710526 105.342903,19.1482494 105.342903,12.3355263 C105.342903,5.52280325 99.8981997,0 93.1818182,0 C86.4654367,0 81.0207337,5.52280325 81.0207337,12.3355263 C81.0207337,19.1482494 86.4654367,24.6710526 93.1818182,24.6710526 Z M99.2623604,30.8388158 L87.1012759,30.8388158 C82.1211506,30.8432894 77.6485041,33.931494 75.8180697,38.6294716 C76.1677009,38.8742547 76.5781375,39.0149568 76.8859649,39.3214176 L90.589987,52.4394788 C92.2451395,54.0520528 93.1806929,56.27935 93.1806929,58.607242 C93.1806929,60.935134 92.2451395,63.1624312 90.589987,64.7750051 L81.0207337,73.9399157 L81.0207337,92.5164474 C81.0207337,95.9228089 83.7430852,98.6842105 87.1012759,98.6842105 L99.2623604,98.6842105 C102.620551,98.6842105 105.342903,95.9228089 105.342903,92.5164474 L105.342903,67.8453947 C108.701093,67.8453947 111.423445,65.0839931 111.423445,61.6776316 L111.423445,43.1743421 C111.423445,36.361619 105.978742,30.8388158 99.2623604,30.8388158 Z"/>
      <path fill="url(#benefit-sai-f)" d="M85.7302305,58.9852303 L72.0976059,71.9314962 C71.4393363,72.5628984 70.4698931,72.7376688 69.6346898,72.3755086 C68.7994865,72.0133484 68.2600158,71.184284 68.2641391,70.2692314 L68.2641391,63.3957475 L44.0686878,63.3957475 L44.0686878,70.2692314 C44.0728111,71.184284 43.5333405,72.0133484 42.6981371,72.3755086 C41.8629338,72.7376688 40.8934907,72.5628984 40.235221,71.9314962 L26.6025965,58.9852303 C25.6955502,58.0656923 25.6955502,56.5821405 26.6025965,55.6626026 L40.235221,42.7163366 C40.8934907,42.0849344 41.8629338,41.910164 42.6981371,42.2723242 C43.5333405,42.6344844 44.0728111,43.4635488 44.0686878,44.3786014 L44.0686878,51.2254587 L68.2641391,51.2254587 L68.2641391,44.3786014 C68.2600158,43.4635488 68.7994865,42.6344844 69.6346898,42.2723242 C70.4698931,41.910164 71.4393363,42.0849344 72.0976059,42.7163366 L85.7302305,55.6683083 C86.633531,56.5871732 86.633531,58.0663654 85.7302305,58.9852303 Z"/>
    </g>
  </g>
</svg>
