<svg height="80" viewBox="0 0 85 80" width="85" xmlns="http://www.w3.org/2000/svg" xmlns:xlink="http://www.w3.org/1999/xlink"><linearGradient id="a" x1="50%" x2="50%" y1="0%" y2="100%"><stop offset="0" stop-color="#3f6abc"/><stop offset="1" stop-color="#1851be"/></linearGradient><filter id="b" height="110.6%" width="110.6%" x="-5.3%" y="-5.3%"><feGaussianBlur in="SourceGraphic" stdDeviation="1.05"/></filter><radialGradient id="c" cx="57.589%" cy="6.679%" gradientTransform="matrix(0 1 -.77108 0 .627 -.51)" r="100%"><stop offset="0" stop-color="#fff"/><stop offset="1" stop-color="#aec3eb"/></radialGradient><filter id="d" height="106.1%" width="104.7%" x="-2.3%" y="-3%"><feGaussianBlur in="SourceGraphic" stdDeviation=".65"/></filter><mask id="e" fill="#fff"><path d="m.5 13.84c0-7.367 5.973-13.34 13.34-13.34h48.32c7.367 0 13.34 5.973 13.34 13.34v48.32c0 7.367-5.973 13.34-13.34 13.34h-48.32c-7.367 0-13.34-5.973-13.34-13.34z" fill="#fff" fill-rule="evenodd"/></mask><g fill="none" fill-rule="evenodd"><g transform="translate(3 2)"><path d="m.5 13.84c0-7.367 5.973-13.34 13.34-13.34h48.32c7.367 0 13.34 5.973 13.34 13.34v48.32c0 7.367-5.973 13.34-13.34 13.34h-48.32c-7.367 0-13.34-5.973-13.34-13.34z" mask="url(#e)"/><path d="m.5 13.84c0-7.367 5.973-13.34 13.34-13.34h48.32c7.367 0 13.34 5.973 13.34 13.34v48.32c0 7.367-5.973 13.34-13.34 13.34h-48.32c-7.367 0-13.34-5.973-13.34-13.34z"/><path d="m.5 13.84c0-7.367 5.973-13.34 13.34-13.34h48.32c7.367 0 13.34 5.973 13.34 13.34v48.32c0 7.367-5.973 13.34-13.34 13.34h-48.32c-7.367 0-13.34-5.973-13.34-13.34z"/><g fill="url(#a)" fill-rule="nonzero" stroke="#fff" stroke-opacity=".01" stroke-width="1.68"><path d="m.5 13.84c0-7.367 5.973-13.34 13.34-13.34h48.32c7.367 0 13.34 5.973 13.34 13.34v48.32c0 7.367-5.973 13.34-13.34 13.34h-48.32c-7.367 0-13.34-5.973-13.34-13.34z" filter="url(#b)"/><path d="m.5 13.84c0-7.367 5.973-13.34 13.34-13.34h48.32c7.367 0 13.34 5.973 13.34 13.34v48.32c0 7.367-5.973 13.34-13.34 13.34h-48.32c-7.367 0-13.34-5.973-13.34-13.34z"/></g></g><g fill="url(#c)" fill-rule="nonzero" transform="translate(1 9)"><path d="m49.3095238 4c14.5309524 0 26.3095238 11.7785714 26.3095238 26.3095238 0 5.2082661-1.5131807 10.0629368-4.123917 14.1483869l10.6066012 10.6006499c1.2027046 1.2160609 1.196941 3.1746938-.0128995 4.3836624l-3.6505551 3.6487543c-.5786884.5818509-1.3656315.9090227-2.1864633.9090227s-1.607775-.3271718-2.1864633-.9090227l-10.6034524-10.5983954c-4.0862786 2.6123002-8.9424137 4.1264657-14.1523744 4.1264657-14.5309524 0-26.3095238-11.7785714-26.3095238-26.3095238s11.7785714-26.3095238 26.3095238-26.3095238zm0 10.1189856c-4.2963489-.0118639-8.4188659 1.6957172-11.4484375 4.7421007-5.4617536 5.4617136-6.3048024 14.020993-2.0135719 20.4433296 4.2912306 6.4223367 12.5215743 8.9190222 19.6576862 5.9631849s11.1904876-10.5409565 9.6836351-18.1166059c-1.5068524-7.5756493-8.1552542-13.0320093-15.8793119-13.0320093zm-19.7507948-12.97263546c.6255857.95666469.5823727 2.22977167-.1064901 3.13732345-.6888627.90755178-1.8618268 1.23671423-2.8905408.81115655l-4.9583229 4.16306014c.0211329.1278746.0333029.25720252.0364123.38694411 0 1.44679261-1.1178767 2.61964981-2.4968475 2.61964981-1.3789707 0-2.4968474-1.1728572-2.4968474-2.61964981.0030219-.12995289.0153677-.25948247.0369325-.38748987l-4.9588431-4.16251438c-.4901984.21083053-1.0339719.2414146-1.5428437.0867759l-5.27979209 5.53946786c.27128035 1.0825485-.14444245 2.2261782-1.03391898 2.844252-.88947653.6180737-2.05530513.5734224-2.89946164-.1110496s-1.17929716-1.8568598-.83350799-2.9157746c.34578916-1.05891476 1.29576711-1.7693514 2.36263256-1.76688391.2160409.00316865.43076997.0358247.63877681.09714534l5.27979207-5.53946781c-.05844608-.21823723-.08957131-.44352731-.09259142-.67019374.00000003-1.44679262 1.11787671-2.61964975 2.49684748-2.61964975 1.3789708 0 2.4968475 1.17285713 2.4968475 2.61964975-.003022.12995289-.0153677.25948247-.0369326.38748987l4.958323 4.16196862c.580049-.24523786 1.2280848-.24523786 1.8081337 0l4.9593633-4.16251438c-.0213073-.12786109-.0336512-.2571891-.0369325-.38694411-.0082137-1.16014372.7066287-2.18987972 1.7615895-2.5375832 1.0549608-.34770349 2.2026363.06816708 2.828222 1.02483176z" filter="url(#d)"/><path d="m49.3095238 4c14.5309524 0 26.3095238 11.7785714 26.3095238 26.3095238 0 5.2082661-1.5131807 10.0629368-4.123917 14.1483869l10.6066012 10.6006499c1.2027046 1.2160609 1.196941 3.1746938-.0128995 4.3836624l-3.6505551 3.6487543c-.5786884.5818509-1.3656315.9090227-2.1864633.9090227s-1.607775-.3271718-2.1864633-.9090227l-10.6034524-10.5983954c-4.0862786 2.6123002-8.9424137 4.1264657-14.1523744 4.1264657-14.5309524 0-26.3095238-11.7785714-26.3095238-26.3095238s11.7785714-26.3095238 26.3095238-26.3095238zm0 10.1189856c-4.2963489-.0118639-8.4188659 1.6957172-11.4484375 4.7421007-5.4617536 5.4617136-6.3048024 14.020993-2.0135719 20.4433296 4.2912306 6.4223367 12.5215743 8.9190222 19.6576862 5.9631849s11.1904876-10.5409565 9.6836351-18.1166059c-1.5068524-7.5756493-8.1552542-13.0320093-15.8793119-13.0320093zm-19.7507948-12.97263546c.6255857.95666469.5823727 2.22977167-.1064901 3.13732345-.6888627.90755178-1.8618268 1.23671423-2.8905408.81115655l-4.9583229 4.16306014c.0211329.1278746.0333029.25720252.0364123.38694411 0 1.44679261-1.1178767 2.61964981-2.4968475 2.61964981-1.3789707 0-2.4968474-1.1728572-2.4968474-2.61964981.0030219-.12995289.0153677-.25948247.0369325-.38748987l-4.9588431-4.16251438c-.4901984.21083053-1.0339719.2414146-1.5428437.0867759l-5.27979209 5.53946786c.27128035 1.0825485-.14444245 2.2261782-1.03391898 2.844252-.88947653.6180737-2.05530513.5734224-2.89946164-.1110496s-1.17929716-1.8568598-.83350799-2.9157746c.34578916-1.05891476 1.29576711-1.7693514 2.36263256-1.76688391.2160409.00316865.43076997.0358247.63877681.09714534l5.27979207-5.53946781c-.05844608-.21823723-.08957131-.44352731-.09259142-.67019374.00000003-1.44679262 1.11787671-2.61964975 2.49684748-2.61964975 1.3789708 0 2.4968475 1.17285713 2.4968475 2.61964975-.003022.12995289-.0153677.25948247-.0369326.38748987l4.958323 4.16196862c.580049-.24523786 1.2280848-.24523786 1.8081337 0l4.9593633-4.16251438c-.0213073-.12786109-.0336512-.2571891-.0369325-.38694411-.0082137-1.16014372.7066287-2.18987972 1.7615895-2.5375832 1.0549608-.34770349 2.2026363.06816708 2.828222 1.02483176z"/></g></g></svg>