<svg xmlns="http://www.w3.org/2000/svg" xmlns:xlink="http://www.w3.org/1999/xlink" width="83" height="80" viewBox="0 0 83 80">
  <defs>
    <path id="benefit-analytics-a" d="M0.5,13.84 C0.5,6.473 6.473,0.5 13.84,0.5 L62.16,0.5 C69.527,0.5 75.5,6.473 75.5,13.84 L75.5,62.16 C75.5,69.527 69.527,75.5 62.16,75.5 L13.84,75.5 C6.473,75.5 0.5,69.527 0.5,62.16 L0.5,13.84 Z"/>
    <linearGradient id="benefit-analytics-c" x1="50%" x2="50%" y1="0%" y2="100%">
      <stop offset="0%" stop-color="#3F6ABC"/>
      <stop offset="100%" stop-color="#1851BE"/>
    </linearGradient>
    <filter id="benefit-analytics-d" width="110.6%" height="110.6%" x="-5.3%" y="-5.3%" filterUnits="objectBoundingBox">
      <feGaussianBlur in="SourceGraphic" stdDeviation="1.05"/>
    </filter>
    <radialGradient id="benefit-analytics-e" cx="57.581%" cy="0%" r="100%" fx="57.581%" fy="0%" gradientTransform="matrix(0 1 -.76812 0 .576 -.576)">
      <stop offset="0%" stop-color="#FFF"/>
      <stop offset="100%" stop-color="#BDCEEE"/>
    </radialGradient>
    <filter id="benefit-analytics-f" width="105.7%" height="107.4%" x="-2.8%" y="-3.7%" filterUnits="objectBoundingBox">
      <feGaussianBlur in="SourceGraphic" stdDeviation=".65"/>
    </filter>
  </defs>
  <g fill="none" fill-rule="evenodd" transform="translate(1 2)">
    <g transform="translate(4)">
      <mask id="benefit-analytics-b" fill="#fff">
        <use xlink:href="#benefit-analytics-a"/>
      </mask>
      <path d="M0.5,13.84 C0.5,6.473 6.473,0.5 13.84,0.5 L62.16,0.5 C69.527,0.5 75.5,6.473 75.5,13.84 L75.5,62.16 C75.5,69.527 69.527,75.5 62.16,75.5 L13.84,75.5 C6.473,75.5 0.5,69.527 0.5,62.16 L0.5,13.84 Z" mask="url(#benefit-analytics-b)"/>
      <path d="M0.5,13.84 C0.5,6.473 6.473,0.5 13.84,0.5 L62.16,0.5 C69.527,0.5 75.5,6.473 75.5,13.84 L75.5,62.16 C75.5,69.527 69.527,75.5 62.16,75.5 L13.84,75.5 C6.473,75.5 0.5,69.527 0.5,62.16 L0.5,13.84 Z"/>
      <path d="M0.5,13.84 C0.5,6.473 6.473,0.5 13.84,0.5 L62.16,0.5 C69.527,0.5 75.5,6.473 75.5,13.84 L75.5,62.16 C75.5,69.527 69.527,75.5 62.16,75.5 L13.84,75.5 C6.473,75.5 0.5,69.527 0.5,62.16 L0.5,13.84 Z"/>
      <path fill="url(#benefit-analytics-c)" fill-rule="nonzero" stroke="#FFF" stroke-opacity=".01" stroke-width="1.68" d="M0.5,13.84 C0.5,6.473 6.473,0.5 13.84,0.5 L62.16,0.5 C69.527,0.5 75.5,6.473 75.5,13.84 L75.5,62.16 C75.5,69.527 69.527,75.5 62.16,75.5 L13.84,75.5 C6.473,75.5 0.5,69.527 0.5,62.16 L0.5,13.84 Z" filter="url(#benefit-analytics-d)"/>
      <path fill="url(#benefit-analytics-c)" fill-rule="nonzero" stroke="#FFF" stroke-opacity=".01" stroke-width="1.68" d="M0.5,13.84 C0.5,6.473 6.473,0.5 13.84,0.5 L62.16,0.5 C69.527,0.5 75.5,6.473 75.5,13.84 L75.5,62.16 C75.5,69.527 69.527,75.5 62.16,75.5 L13.84,75.5 C6.473,75.5 0.5,69.527 0.5,62.16 L0.5,13.84 Z"/>
    </g>
    <g fill="url(#benefit-analytics-e)" fill-rule="nonzero" transform="translate(0 12)">
      <path d="M10.2915254,32.9777778 C11.5284876,32.9777778 12.7654498,34.2118891 12.8587709,35.4934663 L12.8644068,35.6474074 L12.8644068,50.3303704 C12.8644068,51.6138462 11.6750201,52.8973219 10.4398877,52.9941522 L10.2915254,53 L2.57288136,53 C1.33591917,53 0.0989569752,51.7658887 0.00563586323,50.4843115 L1.47437618e-13,50.3303704 L1.47437618e-13,35.6474074 C1.47437618e-13,34.3639316 1.18938672,33.0804558 2.42451909,32.9836256 L2.57288136,32.9777778 L10.2915254,32.9777778 Z M29.0033898,7.06666667 C30.240352,7.06666667 31.4773142,8.28003663 31.5706353,9.54007467 L31.5762712,9.69142857 L31.5762712,50.3752381 C31.5762712,51.6371429 30.3868845,52.8990476 29.1517521,52.9942505 L29.0033898,53 L21.2847458,53 C20.0477836,53 18.8108214,51.78663 18.7175003,50.526592 L18.7118644,50.3752381 L18.7118644,9.69142857 C18.7118644,8.42952381 19.9012511,7.16761905 21.1363835,7.07241617 L21.2847458,7.06666667 L29.0033898,7.06666667 Z M58.7084746,-1.42108547e-14 L66.4271186,-1.42108547e-14 C67.6640808,-1.42108547e-14 68.901043,1.22503698 68.9943641,2.49719077 L69,2.65 L69,50.35 C69,51.6240385 67.8106133,52.8980769 66.5754809,52.9941952 L66.4271186,53 L58.7084746,53 C57.4715124,53 56.2345502,51.774963 56.1412291,50.5028092 L56.1355932,50.35 L56.1355932,2.65 C56.1355932,1.37596154 57.3249799,0.101923077 58.5601123,0.00580479062 L58.7084746,-1.42108547e-14 L66.4271186,-1.42108547e-14 Z M47.7152542,20.0222222 C49.0016949,20.0222222 50.2881356,21.3413333 50.2881356,22.6604444 L50.2881356,22.6604444 L50.2881356,50.3617778 C50.2881356,51.6808889 49.0016949,53 47.7152542,53 L47.7152542,53 L39.9966102,53 C38.7101695,53 37.4237288,51.6808889 37.4237288,50.3617778 L37.4237288,50.3617778 L37.4237288,22.6604444 C37.4237288,21.3413333 38.7101695,20.0222222 39.9966102,20.0222222 L39.9966102,20.0222222 Z" filter="url(#benefit-analytics-f)"/>
      <path d="M10.2915254,32.9777778 C11.5284876,32.9777778 12.7654498,34.2118891 12.8587709,35.4934663 L12.8644068,35.6474074 L12.8644068,50.3303704 C12.8644068,51.6138462 11.6750201,52.8973219 10.4398877,52.9941522 L10.2915254,53 L2.57288136,53 C1.33591917,53 0.0989569752,51.7658887 0.00563586323,50.4843115 L1.47437618e-13,50.3303704 L1.47437618e-13,35.6474074 C1.47437618e-13,34.3639316 1.18938672,33.0804558 2.42451909,32.9836256 L2.57288136,32.9777778 L10.2915254,32.9777778 Z M29.0033898,7.06666667 C30.240352,7.06666667 31.4773142,8.28003663 31.5706353,9.54007467 L31.5762712,9.69142857 L31.5762712,50.3752381 C31.5762712,51.6371429 30.3868845,52.8990476 29.1517521,52.9942505 L29.0033898,53 L21.2847458,53 C20.0477836,53 18.8108214,51.78663 18.7175003,50.526592 L18.7118644,50.3752381 L18.7118644,9.69142857 C18.7118644,8.42952381 19.9012511,7.16761905 21.1363835,7.07241617 L21.2847458,7.06666667 L29.0033898,7.06666667 Z M58.7084746,-1.42108547e-14 L66.4271186,-1.42108547e-14 C67.6640808,-1.42108547e-14 68.901043,1.22503698 68.9943641,2.49719077 L69,2.65 L69,50.35 C69,51.6240385 67.8106133,52.8980769 66.5754809,52.9941952 L66.4271186,53 L58.7084746,53 C57.4715124,53 56.2345502,51.774963 56.1412291,50.5028092 L56.1355932,50.35 L56.1355932,2.65 C56.1355932,1.37596154 57.3249799,0.101923077 58.5601123,0.00580479062 L58.7084746,-1.42108547e-14 L66.4271186,-1.42108547e-14 Z M47.7152542,20.0222222 C49.0016949,20.0222222 50.2881356,21.3413333 50.2881356,22.6604444 L50.2881356,22.6604444 L50.2881356,50.3617778 C50.2881356,51.6808889 49.0016949,53 47.7152542,53 L47.7152542,53 L39.9966102,53 C38.7101695,53 37.4237288,51.6808889 37.4237288,50.3617778 L37.4237288,50.3617778 L37.4237288,22.6604444 C37.4237288,21.3413333 38.7101695,20.0222222 39.9966102,20.0222222 L39.9966102,20.0222222 Z"/>
    </g>
  </g>
</svg>
