<svg height="66" viewBox="0 0 65 66" width="65" xmlns="http://www.w3.org/2000/svg" xmlns:xlink="http://www.w3.org/1999/xlink"><linearGradient id="a" x1="50%" x2="50%" y1="0%" y2="100%"><stop offset="0" stop-color="#3f6abc"/><stop offset="1" stop-color="#1851be"/></linearGradient><filter id="b" height="108.7%" width="113.8%" x="-6.9%" y="-4.4%"><feGaussianBlur in="SourceGraphic" stdDeviation=".65"/></filter><linearGradient id="c"><stop offset="0" stop-color="#fff"/><stop offset="1" stop-color="#aec3eb"/></linearGradient><linearGradient id="d" x1="0%" x2="0%" xlink:href="#c" y1="0%" y2="100%"/><radialGradient id="e" cx="100%" cy="0%" gradientTransform="matrix(0 .63265 -1 0 1 -.633)" r="207.252%" xlink:href="#c"/><mask id="f" fill="#fff"><path d="m.5 13.84c0-7.367 5.973-13.34 13.34-13.34h48.32c7.367 0 13.34 5.973 13.34 13.34v48.32c0 7.367-5.973 13.34-13.34 13.34h-48.32c-7.367 0-13.34-5.973-13.34-13.34z" fill="#fff" fill-rule="evenodd"/></mask><g fill="none" fill-rule="evenodd" transform="translate(-15 -5)"><path d="m.5 13.84c0-7.367 5.973-13.34 13.34-13.34h48.32c7.367 0 13.34 5.973 13.34 13.34v48.32c0 7.367-5.973 13.34-13.34 13.34h-48.32c-7.367 0-13.34-5.973-13.34-13.34z" mask="url(#f)"/><path d="m.5 13.84c0-7.367 5.973-13.34 13.34-13.34h48.32c7.367 0 13.34 5.973 13.34 13.34v48.32c0 7.367-5.973 13.34-13.34 13.34h-48.32c-7.367 0-13.34-5.973-13.34-13.34z"/><path d="m.5 13.84c0-7.367 5.973-13.34 13.34-13.34h48.32c7.367 0 13.34 5.973 13.34 13.34v48.32c0 7.367-5.973 13.34-13.34 13.34h-48.32c-7.367 0-13.34-5.973-13.34-13.34z"/><g fill-rule="nonzero" transform="translate(16 6)"><path d="m34.4 0h-28.32941176c-3.35147059 0-6.07058824 2.6875-6.07058824 6v52c0 3.3125 2.71911765 6 6.07058824 6h28.32941176c3.3514706 0 6.0705882-2.6875 6.0705882-6v-52c0-3.3125-2.7191176-6-6.0705882-6zm-14.1647059 60c-2.2385294 0-4.0470588-1.7875-4.0470588-4s1.8085294-4 4.0470588-4 4.0470588 1.7875 4.0470588 4-1.8085294 4-4.0470588 4z" fill="url(#a)" filter="url(#b)" stroke="#fff" stroke-opacity=".01" stroke-width="1.68"/><path d="m34.4 0h-28.32941176c-3.35147059 0-6.07058824 2.6875-6.07058824 6v52c0 3.3125 2.71911765 6 6.07058824 6h28.32941176c3.3514706 0 6.0705882-2.6875 6.0705882-6v-52c0-3.3125-2.7191176-6-6.0705882-6zm-14.1647059 60c-2.2385294 0-4.0470588-1.7875-4.0470588-4s1.8085294-4 4.0470588-4 4.0470588 1.7875 4.0470588 4-1.8085294 4-4.0470588 4z" fill="url(#a)" stroke="#fff" stroke-opacity=".01" stroke-width="1.68"/><path d="m59.6235294 14.1176471h-20.4235294c-2.4161765 0-4.3764706 1.9365808-4.3764706 4.3235294v37.4705882c0 2.3869485 1.9602941 4.3235294 4.3764706 4.3235294h20.4235294c2.4161765 0 4.3764706-1.9365809 4.3764706-4.3235294v-37.4705882c0-2.3869486-1.9602941-4.3235294-4.3764706-4.3235294zm-10.2117647 43.2352941c-1.6138235 0-2.9176471-1.2880515-2.9176471-2.882353 0-1.5943014 1.3038236-2.8823529 2.9176471-2.8823529s2.9176471 1.2880515 2.9176471 2.8823529c0 1.5943015-1.3038236 2.882353-2.9176471 2.882353z" fill="url(#d)"/><path d="m59.6235294 14.1176471h-20.4235294c-2.4161765 0-4.3764706 1.9365808-4.3764706 4.3235294v37.4705882c0 2.3869485 1.9602941 4.3235294 4.3764706 4.3235294h20.4235294c2.4161765 0 4.3764706-1.9365809 4.3764706-4.3235294v-37.4705882c0-2.3869486-1.9602941-4.3235294-4.3764706-4.3235294z" fill="url(#e)"/></g></g></svg>