<svg xmlns="http://www.w3.org/2000/svg" xmlns:xlink="http://www.w3.org/1999/xlink" width="167" height="155" viewBox="0 0 167 155">
  <defs>
    <path id="benefit-analytics-a" d="M0.9875,27.3157895 C0.9875,12.7756579 12.784175,0.986842105 27.334,0.986842105 L122.766,0.986842105 C137.315825,0.986842105 149.1125,12.7756579 149.1125,27.3157895 L149.1125,122.684211 C149.1125,137.224342 137.315825,149.013158 122.766,149.013158 L27.334,149.013158 C12.784175,149.013158 0.9875,137.224342 0.9875,122.684211 L0.9875,27.3157895 Z"/>
    <radialGradient id="benefit-analytics-e" cx="18.205%" cy="0%" r="100%" fx="18.205%" fy="0%" gradientTransform="matrix(0 1 -.99933 0 .182 -.182)">
      <stop offset="0%" stop-color="#3F6ABC"/>
      <stop offset="100%" stop-color="#1851BE"/>
    </radialGradient>
    <path id="benefit-analytics-d" d="M0.9875,27.3157895 C0.9875,12.7756579 12.784175,0.986842105 27.334,0.986842105 L122.766,0.986842105 C137.315825,0.986842105 149.1125,12.7756579 149.1125,27.3157895 L149.1125,122.684211 C149.1125,137.224342 137.315825,149.013158 122.766,149.013158 L27.334,149.013158 C12.784175,149.013158 0.9875,137.224342 0.9875,122.684211 L0.9875,27.3157895 Z"/>
    <filter id="benefit-analytics-c" width="107.1%" height="107.1%" x="-3.5%" y="-2.5%" filterUnits="objectBoundingBox">
      <feMorphology in="SourceAlpha" operator="dilate" radius=".75" result="shadowSpreadOuter1"/>
      <feOffset dy="1.5" in="shadowSpreadOuter1" result="shadowOffsetOuter1"/>
      <feGaussianBlur in="shadowOffsetOuter1" result="shadowBlurOuter1" stdDeviation="1.25"/>
      <feComposite in="shadowBlurOuter1" in2="SourceAlpha" operator="out" result="shadowBlurOuter1"/>
      <feColorMatrix in="shadowBlurOuter1" values="0 0 0 0 0.0941176471   0 0 0 0 0.317647059   0 0 0 0 0.745098039  0 0 0 0.3 0"/>
    </filter>
    <filter id="benefit-analytics-f" width="111.8%" height="111.8%" x="-5.9%" y="-4.9%" filterUnits="objectBoundingBox">
      <feGaussianBlur in="SourceAlpha" result="shadowBlurInner1" stdDeviation="5"/>
      <feOffset dy="1" in="shadowBlurInner1" result="shadowOffsetInner1"/>
      <feComposite in="shadowOffsetInner1" in2="SourceAlpha" k2="-1" k3="1" operator="arithmetic" result="shadowInnerInner1"/>
      <feColorMatrix in="shadowInnerInner1" result="shadowMatrixInner1" values="0 0 0 0 0.0941176471   0 0 0 0 0.317647059   0 0 0 0 0.745098039  0 0 0 0.0490329983 0"/>
      <feOffset dy="1" in="SourceAlpha" result="shadowOffsetInner2"/>
      <feComposite in="shadowOffsetInner2" in2="SourceAlpha" k2="-1" k3="1" operator="arithmetic" result="shadowInnerInner2"/>
      <feColorMatrix in="shadowInnerInner2" result="shadowMatrixInner2" values="0 0 0 0 0.0941176471   0 0 0 0 0.317647059   0 0 0 0 0.745098039  0 0 0 0.0528299825 0"/>
      <feMerge>
        <feMergeNode in="shadowMatrixInner1"/>
        <feMergeNode in="shadowMatrixInner2"/>
      </feMerge>
    </filter>
    <radialGradient id="benefit-analytics-i" cx="65.5%" cy="0%" r="103.59%" fx="65.5%" fy="0%" gradientTransform="matrix(-.20033 .96534 -.741 -.26098 .786 -.632)">
      <stop offset="0%" stop-color="#FFF"/>
      <stop offset="100%" stop-color="#AEC3EB"/>
    </radialGradient>
    <path id="benefit-analytics-h" d="M57.2816949,13.9473684 C59.7572686,13.9473684 62.2328422,16.4064649 62.3581671,18.9286151 L62.3631356,19.1278195 L62.3631356,99.424812 C62.3631356,101.948622 59.9510382,104.472431 57.4770921,104.600198 L57.2816949,104.605263 L42.0373729,104.605263 C39.5617992,104.605263 37.0862256,102.146167 36.9609007,99.6240165 L36.9559322,99.424812 L36.9559322,19.1278195 C36.9559322,16.60401 39.3680296,14.0802005 41.8419757,13.9524337 L42.0373729,13.9473684 L57.2816949,13.9473684 Z M20.3257627,65.0877193 C22.8013364,65.0877193 25.27691,67.5888516 25.4022349,70.1541155 L25.4072034,70.3567251 L25.4072034,99.3362573 C25.4072034,101.903209 22.995106,104.47016 20.5211599,104.600111 L20.3257627,104.605263 L5.08144068,104.605263 C2.60586701,104.605263 0.130293351,102.104131 0.00496845124,99.538867 L1.47437618e-13,99.3362573 L1.47437618e-13,70.3567251 C1.47437618e-13,67.7897736 2.41209742,65.222822 4.88604348,65.0928711 L5.08144068,65.0877193 L20.3257627,65.0877193 Z M115.949237,-1.42108547e-14 L131.193559,-1.42108547e-14 C133.669133,-1.42108547e-14 136.144707,2.48274162 136.270032,5.02914328 L136.275,5.23026316 L136.275,99.375 C136.275,101.923077 133.862903,104.471154 131.388957,104.600149 L131.193559,104.605263 L115.949237,104.605263 C113.473664,104.605263 110.99809,102.122522 110.872765,99.5761199 L110.867797,99.375 L110.867797,5.23026316 C110.867797,2.68218623 113.279894,0.134109312 115.75384,0.00511396455 L115.949237,-1.42108547e-14 L131.193559,-1.42108547e-14 Z M94.2376271,39.5175439 C96.7783475,39.5175439 99.3190678,42.1210526 99.3190678,44.7245614 L99.3190678,44.7245614 L99.3190678,99.3982456 C99.3190678,102.001754 96.7783475,104.605263 94.2376271,104.605263 L94.2376271,104.605263 L78.9933051,104.605263 C76.4525847,104.605263 73.9118644,102.001754 73.9118644,99.3982456 L73.9118644,99.3982456 L73.9118644,44.7245614 C73.9118644,42.1210526 76.4525847,39.5175439 78.9933051,39.5175439 L78.9933051,39.5175439 Z"/>
    <filter id="benefit-analytics-g" width="115.6%" height="120.3%" x="-7.8%" y="-5.4%" filterUnits="objectBoundingBox">
      <feMorphology in="SourceAlpha" operator="dilate" radius=".625" result="shadowSpreadOuter1"/>
      <feOffset dy="2" in="shadowSpreadOuter1" result="shadowOffsetOuter1"/>
      <feGaussianBlur in="shadowOffsetOuter1" result="shadowBlurOuter1" stdDeviation="1"/>
      <feComposite in="shadowBlurOuter1" in2="SourceAlpha" operator="out" result="shadowBlurOuter1"/>
      <feColorMatrix in="shadowBlurOuter1" result="shadowMatrixOuter1" values="0 0 0 0 0.0941176471   0 0 0 0 0.317647059   0 0 0 0 0.745098039  0 0 0 0.147836538 0"/>
      <feMorphology in="SourceAlpha" operator="dilate" radius=".625" result="shadowSpreadOuter2"/>
      <feOffset dy="5" in="shadowSpreadOuter2" result="shadowOffsetOuter2"/>
      <feGaussianBlur in="shadowOffsetOuter2" result="shadowBlurOuter2" stdDeviation="2.5"/>
      <feComposite in="shadowBlurOuter2" in2="SourceAlpha" operator="out" result="shadowBlurOuter2"/>
      <feColorMatrix in="shadowBlurOuter2" result="shadowMatrixOuter2" values="0 0 0 0 0.0941176471   0 0 0 0 0.317647059   0 0 0 0 0.745098039  0 0 0 0.0864565122 0"/>
      <feMerge>
        <feMergeNode in="shadowMatrixOuter1"/>
        <feMergeNode in="shadowMatrixOuter2"/>
      </feMerge>
    </filter>
    <filter id="benefit-analytics-j" width="118.9%" height="124.6%" x="-9.4%" y="-7.5%" filterUnits="objectBoundingBox">
      <feGaussianBlur in="SourceAlpha" result="shadowBlurInner1" stdDeviation="1.25"/>
      <feOffset dy="12" in="shadowBlurInner1" result="shadowOffsetInner1"/>
      <feComposite in="shadowOffsetInner1" in2="SourceAlpha" k2="-1" k3="1" operator="arithmetic" result="shadowInnerInner1"/>
      <feColorMatrix in="shadowInnerInner1" values="0 0 0 0 1   0 0 0 0 1   0 0 0 0 1  0 0 0 0.0782615822 0"/>
    </filter>
  </defs>
  <g fill="none" fill-rule="evenodd" transform="translate(6 1)">
    <g transform="translate(7.9)">
      <mask id="benefit-analytics-b" fill="#fff">
        <use xlink:href="#benefit-analytics-a"/>
      </mask>
      <path d="M0.9875,27.3157895 C0.9875,12.7756579 12.784175,0.986842105 27.334,0.986842105 L122.766,0.986842105 C137.315825,0.986842105 149.1125,12.7756579 149.1125,27.3157895 L149.1125,122.684211 C149.1125,137.224342 137.315825,149.013158 122.766,149.013158 L27.334,149.013158 C12.784175,149.013158 0.9875,137.224342 0.9875,122.684211 L0.9875,27.3157895 Z" mask="url(#benefit-analytics-b)"/>
      <path d="M0.9875,27.3157895 C0.9875,12.7756579 12.784175,0.986842105 27.334,0.986842105 L122.766,0.986842105 C137.315825,0.986842105 149.1125,12.7756579 149.1125,27.3157895 L149.1125,122.684211 C149.1125,137.224342 137.315825,149.013158 122.766,149.013158 L27.334,149.013158 C12.784175,149.013158 0.9875,137.224342 0.9875,122.684211 L0.9875,27.3157895 Z"/>
      <path d="M0.9875,27.3157895 C0.9875,12.7756579 12.784175,0.986842105 27.334,0.986842105 L122.766,0.986842105 C137.315825,0.986842105 149.1125,12.7756579 149.1125,27.3157895 L149.1125,122.684211 C149.1125,137.224342 137.315825,149.013158 122.766,149.013158 L27.334,149.013158 C12.784175,149.013158 0.9875,137.224342 0.9875,122.684211 L0.9875,27.3157895 Z"/>
      <g fill-rule="nonzero">
        <use fill="#000" filter="url(#benefit-analytics-c)" xlink:href="#benefit-analytics-d"/>
        <use fill="url(#benefit-analytics-e)" xlink:href="#benefit-analytics-d"/>
        <use fill="#000" filter="url(#benefit-analytics-f)" xlink:href="#benefit-analytics-d"/>
        <use stroke="#FFF" stroke-opacity=".01" stroke-width="1.5" xlink:href="#benefit-analytics-d"/>
      </g>
    </g>
    <g fill-rule="nonzero" transform="translate(0 23.684)">
      <use fill="#000" filter="url(#benefit-analytics-g)" xlink:href="#benefit-analytics-h"/>
      <use fill="url(#benefit-analytics-i)" xlink:href="#benefit-analytics-h"/>
      <use fill="#000" filter="url(#benefit-analytics-j)" xlink:href="#benefit-analytics-h"/>
      <use stroke="#FFF" stroke-opacity=".01" stroke-width="1.25" xlink:href="#benefit-analytics-h"/>
    </g>
  </g>
</svg>
