<svg height="80" viewBox="0 0 80 80" width="80" xmlns="http://www.w3.org/2000/svg" xmlns:xlink="http://www.w3.org/1999/xlink"><linearGradient id="a" x1="50%" x2="50%" y1="0%" y2="100%"><stop offset="0" stop-color="#3f6abc"/><stop offset="1" stop-color="#1851be"/></linearGradient><filter id="b" height="110.6%" width="110.6%" x="-5.3%" y="-5.3%"><feGaussianBlur in="SourceGraphic" stdDeviation="1.05"/></filter><linearGradient id="c"><stop offset="0" stop-color="#fff"/><stop offset="1" stop-color="#aec3eb"/></linearGradient><radialGradient id="d" cx="55.954%" cy="0%" gradientTransform="matrix(0 1 -.88567 0 .56 -.56)" r="116.607%" xlink:href="#c"/><filter id="e" height="107.8%" width="106.9%" x="-3.5%" y="-3.9%"><feGaussianBlur in="SourceGraphic" stdDeviation=".65"/></filter><radialGradient id="f" cx="55.954%" cy="0%" gradientTransform="matrix(0 1 -.50386 0 .56 -.56)" r="315.185%" xlink:href="#c"/><filter id="g" height="125.3%" width="112.7%" x="-6.4%" y="-12.6%"><feGaussianBlur in="SourceGraphic" stdDeviation=".65"/></filter><mask id="h" fill="#fff"><path d="m.5 13.84c0-7.367 5.973-13.34 13.34-13.34h48.32c7.367 0 13.34 5.973 13.34 13.34v48.32c0 7.367-5.973 13.34-13.34 13.34h-48.32c-7.367 0-13.34-5.973-13.34-13.34z" fill="#fff" fill-rule="evenodd"/></mask><g fill="none" fill-rule="evenodd" transform="translate(2 2)"><path d="m.5 13.84c0-7.367 5.973-13.34 13.34-13.34h48.32c7.367 0 13.34 5.973 13.34 13.34v48.32c0 7.367-5.973 13.34-13.34 13.34h-48.32c-7.367 0-13.34-5.973-13.34-13.34z" mask="url(#h)"/><path d="m.5 13.84c0-7.367 5.973-13.34 13.34-13.34h48.32c7.367 0 13.34 5.973 13.34 13.34v48.32c0 7.367-5.973 13.34-13.34 13.34h-48.32c-7.367 0-13.34-5.973-13.34-13.34z"/><path d="m.5 13.84c0-7.367 5.973-13.34 13.34-13.34h48.32c7.367 0 13.34 5.973 13.34 13.34v48.32c0 7.367-5.973 13.34-13.34 13.34h-48.32c-7.367 0-13.34-5.973-13.34-13.34z"/><g fill-rule="nonzero"><path d="m.5 13.84c0-7.367 5.973-13.34 13.34-13.34h48.32c7.367 0 13.34 5.973 13.34 13.34v48.32c0 7.367-5.973 13.34-13.34 13.34h-48.32c-7.367 0-13.34-5.973-13.34-13.34z" fill="url(#a)" filter="url(#b)" stroke="#fff" stroke-opacity=".01" stroke-width="1.68"/><path d="m.5 13.84c0-7.367 5.973-13.34 13.34-13.34h48.32c7.367 0 13.34 5.973 13.34 13.34v48.32c0 7.367-5.973 13.34-13.34 13.34h-48.32c-7.367 0-13.34-5.973-13.34-13.34z" fill="url(#a)" stroke="#fff" stroke-opacity=".01" stroke-width="1.68"/><g transform="translate(10 13)"><path d="m9.24242424 12.5c3.40296666 0 6.16161616-2.79822031 6.16161616-6.25s-2.7586495-6.25-6.16161616-6.25c-3.40296664 0-6.16161616 2.79822031-6.16161616 6.25s2.75864952 6.25 6.16161616 6.25zm3.08080806 3.125h-6.16161614c-3.40296664 0-6.16161616 2.7982203-6.16161616 6.25v9.375c0 1.7258898 1.37932476 3.125 3.08080808 3.125v12.5c0 1.7258898 1.37932476 3.125 3.08080808 3.125h6.16161614c1.7014833 0 3.0808081-1.3991102 3.0808081-3.125v-9.4130859l-4.8484217-4.6416016c-.83861059-.8170375-1.31262432-1.9455347-1.31262432-3.125s.47401373-2.3079625 1.31262432-3.125l6.944334-6.6484375c.1588541-.1513672.3629577-.2255859.5401041-.3486328-.9271129-2.3806924-3.1933221-3.9458171-5.7168245-3.9482422zm34.8888889-3.125c3.4029667 0 6.1616162-2.79822031 6.1616162-6.25s-2.7586495-6.25-6.1616162-6.25c-3.4029666 0-6.1616161 2.79822031-6.1616161 6.25s2.7586495 6.25 6.1616161 6.25zm3.0808081 3.125h-6.1616162c-2.5232635.0022666-4.7894044 1.566957-5.7168245 3.9472656.1771465.1240235.385101.1953125.541067.350586l6.9433712 6.6464843c.8386105.8170375 1.3126243 1.9455348 1.3126243 3.125 0 1.1794653-.4740138 2.3079626-1.3126243 3.125l-4.8484217 4.6435547v9.4121094c0 1.7258898 1.3793247 3.125 3.080808 3.125h6.1616162c1.7014833 0 3.0808081-1.3991102 3.0808081-3.125v-12.5c1.7014833 0 3.0808081-1.3991102 3.0808081-3.125v-9.375c0-3.4517797-2.7586496-6.25-6.1616162-6.25z" fill="url(#d)" filter="url(#e)"/><path d="m43.4366501 29.88585-6.9071964 6.5594414c-.3335233.3199105-.8247078.4084608-1.2478775.2249663s-.6965015-.6035538-.6944124-1.0671804v-3.4825652h-12.2590286v3.4825652c.0020891.4636266-.2712427.8836859-.6944124 1.0671804s-.9143542.0949442-1.2478775-.2249663l-6.9071964-6.5594414c-.4595701-.4658992-.4595701-1.2175655 0-1.6834647l6.9071964-6.5594414c.3335233-.3199105.8247078-.4084608 1.2478775-.2249663s.6965015.6035538.6944124 1.0671804v3.4690744h12.2590286v-3.4690744c-.0020891-.4636266.2712427-.8836859.6944124-1.0671804s.9143542-.0949442 1.2478775.2249663l6.9071964 6.5623323c.4576723.4655582.4576723 1.2150156 0 1.6805738z" fill="url(#f)" filter="url(#g)"/><path d="m9.24242424 12.5c3.40296666 0 6.16161616-2.79822031 6.16161616-6.25s-2.7586495-6.25-6.16161616-6.25c-3.40296664 0-6.16161616 2.79822031-6.16161616 6.25s2.75864952 6.25 6.16161616 6.25zm3.08080806 3.125h-6.16161614c-3.40296664 0-6.16161616 2.7982203-6.16161616 6.25v9.375c0 1.7258898 1.37932476 3.125 3.08080808 3.125v12.5c0 1.7258898 1.37932476 3.125 3.08080808 3.125h6.16161614c1.7014833 0 3.0808081-1.3991102 3.0808081-3.125v-9.4130859l-4.8484217-4.6416016c-.83861059-.8170375-1.31262432-1.9455347-1.31262432-3.125s.47401373-2.3079625 1.31262432-3.125l6.944334-6.6484375c.1588541-.1513672.3629577-.2255859.5401041-.3486328-.9271129-2.3806924-3.1933221-3.9458171-5.7168245-3.9482422zm34.8888889-3.125c3.4029667 0 6.1616162-2.79822031 6.1616162-6.25s-2.7586495-6.25-6.1616162-6.25c-3.4029666 0-6.1616161 2.79822031-6.1616161 6.25s2.7586495 6.25 6.1616161 6.25zm3.0808081 3.125h-6.1616162c-2.5232635.0022666-4.7894044 1.566957-5.7168245 3.9472656.1771465.1240235.385101.1953125.541067.350586l6.9433712 6.6464843c.8386105.8170375 1.3126243 1.9455348 1.3126243 3.125 0 1.1794653-.4740138 2.3079626-1.3126243 3.125l-4.8484217 4.6435547v9.4121094c0 1.7258898 1.3793247 3.125 3.080808 3.125h6.1616162c1.7014833 0 3.0808081-1.3991102 3.0808081-3.125v-12.5c1.7014833 0 3.0808081-1.3991102 3.0808081-3.125v-9.375c0-3.4517797-2.7586496-6.25-6.1616162-6.25z" fill="url(#d)"/><path d="m43.4366501 29.88585-6.9071964 6.5594414c-.3335233.3199105-.8247078.4084608-1.2478775.2249663s-.6965015-.6035538-.6944124-1.0671804v-3.4825652h-12.2590286v3.4825652c.0020891.4636266-.2712427.8836859-.6944124 1.0671804s-.9143542.0949442-1.2478775-.2249663l-6.9071964-6.5594414c-.4595701-.4658992-.4595701-1.2175655 0-1.6834647l6.9071964-6.5594414c.3335233-.3199105.8247078-.4084608 1.2478775-.2249663s.6965015.6035538.6944124 1.0671804v3.4690744h12.2590286v-3.4690744c-.0020891-.4636266.2712427-.8836859.6944124-1.0671804s.9143542-.0949442 1.2478775.2249663l6.9071964 6.5623323c.4576723.4655582.4576723 1.2150156 0 1.6805738z" fill="url(#f)"/></g></g></g></svg>