<svg height="51" viewBox="0 0 510 51" width="510" xmlns="http://www.w3.org/2000/svg"><g fill="none" fill-rule="evenodd"><g fill="#1851be"><ellipse cx="25" cy="25.5" opacity=".24" rx="25" ry="25.5"/><path d="m123.124037 16.6694215c2.85271 0 5.165289 2.3125788 5.165289 5.1652892 0 2.8527105-2.312579 5.1652893-5.165289 5.1652893h-43.9587477c-2.8527105 0-5.1652893-2.3125788-5.1652893-5.1652893 0-2.8527104 2.3125788-5.1652892 5.1652893-5.1652892zm84.606741 0c2.852711 0 5.165289 2.3125788 5.165289 5.1652892 0 2.8527105-2.312578 5.1652893-5.165289 5.1652893h-67.225601c-2.852711 0-5.165289-2.3125788-5.165289-5.1652893 0-2.8527104 2.312578-5.1652892 5.165289-5.1652892zm112.103933-14.6694215c2.85271 0 5.165289 2.31257877 5.165289 5.16528926 0 2.85271044-2.312579 5.16528924-5.165289 5.16528924h-240.6694217c-2.8527105 0-5.1652893-2.3125788-5.1652893-5.16528924 0-2.85271049 2.3125788-5.16528926 5.1652893-5.16528926z" opacity=".897"/><rect height="18" rx="9" width="18" x="492" y="2"/><rect height="12" opacity=".164" rx="5" width="32" x="447" y="5"/><rect height="7" opacity=".158" rx="3" width="30" x="96" y="41"/></g><rect fill="#f84f77" height="14" rx="5" width="14" x="74" y="37"/></g></svg>