<svg height="47" viewBox="0 0 515 47" width="515" xmlns="http://www.w3.org/2000/svg"><g fill="none" fill-rule="evenodd"><rect fill="#8792a2" height="32" opacity=".322" rx="10" width="41" x="308"/><rect fill="#8792a2" height="32" opacity=".322" rx="10" width="40" x="248"/><rect fill="#eceef0" height="7" rx="3.5" width="40" x="248" y="39"/><rect fill="#eceef0" height="7" rx="3.5" width="40" x="309" y="39"/><rect fill="#f84f77" height="46" rx="4" width="8" x="366" y="1"/><g fill="#8792a2"><rect height="18" opacity=".32" rx="9" width="18" x="390"/><rect height="7" opacity=".164" rx="3.5" width="40" x="415" y="6"/><rect height="7" opacity=".164" rx="3.5" width="87" x="390" y="22"/><rect height="7" opacity=".164" rx="3.5" width="34" x="481" y="22"/><rect height="7" opacity=".164" rx="3.5" width="37" x="390" y="33"/><circle cx="23" cy="23" opacity=".24" r="23"/><path d="m123.470588 18c2.761424 0 5 2.2385763 5 5s-2.238576 5-5 5h-58.470588c-2.7614237 0-5-2.2385763-5-5s2.2385763-5 5-5zm63.529412 0c2.761424 0 5 2.2385763 5 5s-2.238576 5-5 5h-48.588235c-2.761424 0-5-2.2385763-5-5s2.238576-5 5-5z" opacity=".28"/><rect height="11" opacity=".28" rx="5.5" width="166" x="60"/></g></g></svg>