<svg height="782" viewBox="0 0 611 782" width="611" xmlns="http://www.w3.org/2000/svg" xmlns:xlink="http://www.w3.org/1999/xlink"><linearGradient id="a" x1="50.007%" x2="50.007%" y1="-141.4%" y2="-47.015%"><stop offset="0" stop-color="#2a6cbe"/><stop offset=".38688" stop-color="#2062bc"/><stop offset=".49182" stop-color="#1f5fbc"/><stop offset=".66583" stop-color="#1c5abd"/><stop offset=".85354" stop-color="#1956bc"/><stop offset="1" stop-color="#1851be"/></linearGradient><g fill="none" fill-rule="evenodd"><path d="m0 0h611v782h-611z" fill="#fff"/><path d="m0 0h611v61h-611z" fill="#e8eaed"/><g fill="#8792a2"><circle cx="42" cy="123" opacity=".24" r="22"/><rect height="14" opacity=".4" rx="7" width="76" x="74" y="103"/><rect height="14" opacity=".241" rx="7" width="254.049" x="74" y="141"/><rect height="14" opacity=".241" rx="7" width="167" x="74" y="169"/><rect height="14" opacity=".241" rx="7" width="34" x="251" y="169"/><rect height="14" opacity=".241" rx="7" width="292" x="295" y="169"/></g><rect fill="#eceef0" height="14" rx="7" width="24" x="160" y="103"/><circle cx="42" cy="240" fill="#8792a2" opacity=".24" r="22"/><rect fill="#8792a2" height="14" opacity=".4" rx="7" width="76" x="74" y="220"/><rect fill="#8792a2" height="14" opacity=".241" rx="7" width="348" x="74" y="258"/><rect fill="#eceef0" height="14" rx="7" width="24" x="160" y="220"/><circle cx="42" cy="329" fill="#8792a2" opacity=".24" r="22"/><rect fill="#8792a2" height="14" opacity=".4" rx="7" width="76" x="74" y="309"/><rect fill="#8792a2" height="14" opacity=".241" rx="7" width="148" x="74" y="347"/><rect fill="#8792a2" height="14" opacity=".241" rx="7" width="241" x="232" y="347"/><rect fill="#8792a2" height="14" opacity=".241" rx="7" width="34" x="74" y="375"/><rect fill="#8792a2" height="14" opacity=".241" rx="7" width="241" x="118" y="375"/><rect fill="#eceef0" height="14" rx="7" width="24" x="160" y="309"/><circle cx="42" cy="446" fill="#8792a2" opacity=".24" r="22"/><rect fill="#8792a2" height="14" opacity=".4" rx="7" width="76" x="74" y="426"/><rect fill="#8792a2" height="14" opacity=".241" rx="7" width="187" x="74" y="464"/><rect fill="#8792a2" height="14" opacity=".241" rx="7" width="167" x="74" y="492"/><rect fill="#8792a2" height="14" opacity=".241" rx="7" width="209" x="74" y="520"/><rect fill="#8792a2" height="14" opacity=".241" rx="7" width="76" x="293" y="520"/><rect fill="#eceef0" height="14" rx="7" width="24" x="160" y="426"/><circle cx="42" cy="591" fill="#8792a2" opacity=".24" r="22"/><rect fill="#8792a2" height="14" opacity=".4" rx="7" width="76" x="74" y="571"/><rect fill="#8792a2" height="14" opacity=".241" rx="7" width="254.049" x="74" y="609"/><rect fill="#8792a2" height="14" opacity=".241" rx="7" width="167" x="74" y="637"/><rect fill="#8792a2" height="14" opacity=".241" rx="7" width="34" x="251" y="637"/><rect fill="#8792a2" height="14" opacity=".241" rx="7" width="292" x="295" y="637"/><rect fill="#eceef0" height="14" rx="7" width="24" x="160" y="571"/><circle cx="33" cy="29" fill="#8792a2" opacity=".597" r="12"/><circle cx="67" cy="29" fill="#8792a2" opacity=".597" r="12"/><circle cx="505" cy="29" fill="#c6cbd2" fill-opacity=".3" r="14.5" stroke="#e8eaed" stroke-width="3"/><rect fill="#8792a2" height="14" opacity=".605" rx="7" width="39" x="526" y="21"/><rect fill="#8792a2" height="14" opacity=".305" rx="7" width="20" x="570" y="21"/><circle cx="481" cy="29" fill="#c6cbd2" fill-opacity=".5" r="14.5" stroke="#e8eaed" stroke-width="3"/><circle cx="459" cy="29" fill="#c6cbd2" fill-opacity=".8" r="14.5" stroke="#e8eaed" stroke-width="3"/><circle cx="437" cy="29" fill="#c6cbd2" r="14.5" stroke="#e8eaed" stroke-width="3"/><rect fill="#8792a2" fill-opacity=".219" height="16" rx="8" transform="translate(21 710)" width="100" x="10" y="13"/><rect fill="#eceef0" height="16" rx="8" transform="translate(21 710)" width="24" x="394" y="13"/><rect fill="#0e423c" height="12" rx="6" stroke="#bfe5e1" stroke-width="20" transform="translate(21 710)" width="12" x="435" y="15"/><rect height="15" rx="7.5" stroke="#fff" stroke-opacity=".819" stroke-width="3" transform="translate(21 710)" width="15" x="433.5" y="13.5"/><g transform="translate(499 710)"><rect fill="url(#a)" height="42" rx="5" width="91" x=".071"/><rect fill="#5c84d1" height="9" rx="4.5" width="58" x="16.071" y="17"/></g><rect height="40.75" opacity=".241" rx="3" stroke="#8792a2" stroke-width="1.25" transform="translate(21 710)" width="466.75" x=".625" y=".625"/></g></svg>