<svg xmlns="http://www.w3.org/2000/svg" xmlns:xlink="http://www.w3.org/1999/xlink" width="611" height="782" viewBox="0 0 611 782">
  <defs>
    <rect id="chat-a" width="12" height="12" x="435" y="15" rx="6"/>
    <linearGradient id="chat-b" x1="50.007%" x2="50.007%" y1="-141.4%" y2="-47.015%">
      <stop offset="0%" stop-color="#2A6CBE"/>
      <stop offset="38.688%" stop-color="#2062BC"/>
      <stop offset="49.182%" stop-color="#1F5FBC"/>
      <stop offset="66.583%" stop-color="#1C5ABD"/>
      <stop offset="85.354%" stop-color="#1956BC"/>
      <stop offset="100%" stop-color="#1851BE"/>
    </linearGradient>
  </defs>
  <g fill="none" fill-rule="evenodd">
    <rect width="611" height="782" fill="#FFF"/>
    <rect width="611" height="61" fill="#E8EAED"/>
    <g transform="translate(20 101)">
      <circle cx="22" cy="22" r="22" fill="#8792A2" opacity=".24"/>
      <rect width="76" height="14" x="54" y="2" fill="#8792A2" opacity=".4" rx="7"/>
      <rect width="254.049" height="14" x="54" y="40" fill="#8792A2" opacity=".241" rx="7"/>
      <rect width="167" height="14" x="54" y="68" fill="#8792A2" opacity=".241" rx="7"/>
      <rect width="34" height="14" x="231" y="68" fill="#8792A2" opacity=".241" rx="7"/>
      <rect width="292" height="14" x="275" y="68" fill="#8792A2" opacity=".241" rx="7"/>
      <rect width="24" height="14" x="140" y="2" fill="#ECEEF0" rx="7"/>
    </g>
    <g transform="translate(20 218)">
      <circle cx="22" cy="22" r="22" fill="#8792A2" opacity=".24"/>
      <rect width="76" height="14" x="54" y="2" fill="#8792A2" opacity=".4" rx="7"/>
      <rect width="348" height="14" x="54" y="40" fill="#8792A2" opacity=".241" rx="7"/>
      <rect width="24" height="14" x="140" y="2" fill="#ECEEF0" rx="7"/>
    </g>
    <g transform="translate(20 307)">
      <circle cx="22" cy="22" r="22" fill="#8792A2" opacity=".24"/>
      <rect width="76" height="14" x="54" y="2" fill="#8792A2" opacity=".4" rx="7"/>
      <rect width="148" height="14" x="54" y="40" fill="#8792A2" opacity=".241" rx="7"/>
      <rect width="241" height="14" x="212" y="40" fill="#8792A2" opacity=".241" rx="7"/>
      <rect width="34" height="14" x="54" y="68" fill="#8792A2" opacity=".241" rx="7"/>
      <rect width="241" height="14" x="98" y="68" fill="#8792A2" opacity=".241" rx="7"/>
      <rect width="24" height="14" x="140" y="2" fill="#ECEEF0" rx="7"/>
    </g>
    <g transform="translate(20 424)">
      <circle cx="22" cy="22" r="22" fill="#8792A2" opacity=".24"/>
      <rect width="76" height="14" x="54" y="2" fill="#8792A2" opacity=".4" rx="7"/>
      <rect width="187" height="14" x="54" y="40" fill="#8792A2" opacity=".241" rx="7"/>
      <rect width="167" height="14" x="54" y="68" fill="#8792A2" opacity=".241" rx="7"/>
      <rect width="209" height="14" x="54" y="96" fill="#8792A2" opacity=".241" rx="7"/>
      <rect width="76" height="14" x="273" y="96" fill="#8792A2" opacity=".241" rx="7"/>
      <rect width="24" height="14" x="140" y="2" fill="#ECEEF0" rx="7"/>
    </g>
    <g transform="translate(20 569)">
      <circle cx="22" cy="22" r="22" fill="#8792A2" opacity=".24"/>
      <rect width="76" height="14" x="54" y="2" fill="#8792A2" opacity=".4" rx="7"/>
      <rect width="254.049" height="14" x="54" y="40" fill="#8792A2" opacity=".241" rx="7"/>
      <rect width="167" height="14" x="54" y="68" fill="#8792A2" opacity=".241" rx="7"/>
      <rect width="34" height="14" x="231" y="68" fill="#8792A2" opacity=".241" rx="7"/>
      <rect width="292" height="14" x="275" y="68" fill="#8792A2" opacity=".241" rx="7"/>
      <rect width="24" height="14" x="140" y="2" fill="#ECEEF0" rx="7"/>
    </g>
    <circle cx="33" cy="29" r="12" fill="#8792A2" opacity=".597"/>
    <circle cx="67" cy="29" r="12" fill="#8792A2" opacity=".597"/>
    <circle cx="505" cy="29" r="14.5" fill="#C6CBD2" fill-opacity=".3" stroke="#E8EAED" stroke-width="3"/>
    <rect width="39" height="14" x="526" y="21" fill="#8792A2" opacity=".605" rx="7"/>
    <rect width="20" height="14" x="570" y="21" fill="#8792A2" opacity=".305" rx="7"/>
    <circle cx="481" cy="29" r="14.5" fill="#C6CBD2" fill-opacity=".5" stroke="#E8EAED" stroke-width="3"/>
    <circle cx="459" cy="29" r="14.5" fill="#C6CBD2" fill-opacity=".8" stroke="#E8EAED" stroke-width="3"/>
    <circle cx="437" cy="29" r="14.5" fill="#C6CBD2" stroke="#E8EAED" stroke-width="3"/>
    <g transform="translate(21 710)">
      <rect width="100" height="16" x="10" y="13" fill="#8792A2" fill-opacity=".219" rx="8"/>
      <rect width="24" height="16" x="394" y="13" fill="#ECEEF0" rx="8"/>
      <use fill="#0E423C" stroke="#BFE5E1" stroke-width="20" xlink:href="#chat-a"/>
      <rect width="15" height="15" x="433.5" y="13.5" stroke="#FFF" stroke-opacity=".819" stroke-width="3" rx="7.5"/>
      <g transform="translate(478)">
        <rect width="91" height="42" x=".071" fill="url(#chat-b)" rx="5"/>
        <rect width="58" height="9" x="16.071" y="17" fill="#5C84D1" rx="4.5"/>
      </g>
      <rect width="466.75" height="40.75" x=".625" y=".625" stroke="#8792A2" stroke-width="1.25" opacity=".241" rx="3"/>
    </g>
  </g>
</svg>
