<svg xmlns="http://www.w3.org/2000/svg" width="837" height="1072" viewBox="0 0 837 1072">
  <g fill="none" fill-rule="evenodd">
    <rect width="837" height="1072" fill="#000306"/>
    <polygon fill="#2A2F45" points="0 .248 837 .248 837 1072.248 0 1072.248"/>
    <path fill="#8792A2" d="M5 30L6 30C8.76142375 30 11 32.2385763 11 35 11 37.7614237 8.76142375 40 6 40L5 40C2.23857625 40 3.38176876e-16 37.7614237 0 35-3.38176876e-16 32.2385763 2.23857625 30 5 30zM5 0L6 0C8.76142375-5.07265313e-16 11 2.23857625 11 5 11 7.76142375 8.76142375 10 6 10L5 10C2.23857625 10 3.38176876e-16 7.76142375 0 5-3.38176876e-16 2.23857625 2.23857625 5.07265313e-16 5 0zM5 64.1654572L6 64.1654572C8.76142375 64.1654572 11 66.4040334 11 69.1654572 11 71.9268809 8.76142375 74.1654572 6 74.1654572L5 74.1654572C2.23857625 74.1654572 3.38176876e-16 71.9268809 0 69.1654572-3.38176876e-16 66.4040334 2.23857625 64.1654572 5 64.1654572zM5 98.3309144L6 98.3309144C8.76142375 98.3309144 11 100.569491 11 103.330914 11 106.092338 8.76142375 108.330914 6 108.330914L5 108.330914C2.23857625 108.330914 3.38176876e-16 106.092338 0 103.330914-3.38176876e-16 100.569491 2.23857625 98.3309144 5 98.3309144zM5 134.049347L6 134.049347C8.76142375 134.049347 11 136.287923 11 139.049347 11 141.810771 8.76142375 144.049347 6 144.049347L5 144.049347C2.23857625 144.049347 3.38176876e-16 141.810771 0 139.049347-3.38176876e-16 136.287923 2.23857625 134.049347 5 134.049347zM5 168.214804L6 168.214804C8.76142375 168.214804 11 170.45338 11 173.214804 11 175.976228 8.76142375 178.214804 6 178.214804L5 178.214804C2.23857625 178.214804 3.38176876e-16 175.976228 0 173.214804-3.38176876e-16 170.45338 2.23857625 168.214804 5 168.214804zM5 202.380261L6 202.380261C8.76142375 202.380261 11 204.618837 11 207.380261 11 210.141685 8.76142375 212.380261 6 212.380261L5 212.380261C2.23857625 212.380261 3.38176876e-16 210.141685 0 207.380261-3.38176876e-16 204.618837 2.23857625 202.380261 5 202.380261zM5 238.098694L6 238.098694C8.76142375 238.098694 11 240.33727 11 243.098694 11 245.860118 8.76142375 248.098694 6 248.098694L5 248.098694C2.23857625 248.098694 3.38176876e-16 245.860118 0 243.098694-3.38176876e-16 240.33727 2.23857625 238.098694 5 238.098694zM5 272.264151L6 272.264151C8.76142375 272.264151 11 274.502727 11 277.264151 11 280.025575 8.76142375 282.264151 6 282.264151L5 282.264151C2.23857625 282.264151 3.38176876e-16 280.025575 0 277.264151-3.38176876e-16 274.502727 2.23857625 272.264151 5 272.264151zM5 306.429608L6 306.429608C8.76142375 306.429608 11 308.668184 11 311.429608 11 314.191032 8.76142375 316.429608 6 316.429608L5 316.429608C2.23857625 316.429608 3.38176876e-16 314.191032 0 311.429608-3.38176876e-16 308.668184 2.23857625 306.429608 5 306.429608zM5 342.148041L6 342.148041C8.76142375 342.148041 11 344.386617 11 347.148041 11 349.909464 8.76142375 352.148041 6 352.148041L5 352.148041C2.23857625 352.148041 3.38176876e-16 349.909464 0 347.148041-3.38176876e-16 344.386617 2.23857625 342.148041 5 342.148041zM5 376.313498L6 376.313498C8.76142375 376.313498 11 378.552074 11 381.313498 11 384.074922 8.76142375 386.313498 6 386.313498L5 386.313498C2.23857625 386.313498 3.38176876e-16 384.074922 0 381.313498-3.38176876e-16 378.552074 2.23857625 376.313498 5 376.313498zM5 410.478955L6 410.478955C8.76142375 410.478955 11 412.717531 11 415.478955 11 418.240379 8.76142375 420.478955 6 420.478955L5 420.478955C2.23857625 420.478955 3.38176876e-16 418.240379 0 415.478955-3.38176876e-16 412.717531 2.23857625 410.478955 5 410.478955zM5 446.197388L6 446.197388C8.76142375 446.197388 11 448.435964 11 451.197388 11 453.958811 8.76142375 456.197388 6 456.197388L5 456.197388C2.23857625 456.197388 3.38176876e-16 453.958811 0 451.197388-3.38176876e-16 448.435964 2.23857625 446.197388 5 446.197388zM5 480.362845L6 480.362845C8.76142375 480.362845 11 482.601421 11 485.362845 11 488.124268 8.76142375 490.362845 6 490.362845L5 490.362845C2.23857625 490.362845 3.38176876e-16 488.124268 0 485.362845-3.38176876e-16 482.601421 2.23857625 480.362845 5 480.362845zM5 514.528302L6 514.528302C8.76142375 514.528302 11 516.766878 11 519.528302 11 522.289726 8.76142375 524.528302 6 524.528302L5 524.528302C2.23857625 524.528302 3.38176876e-16 522.289726 0 519.528302-3.38176876e-16 516.766878 2.23857625 514.528302 5 514.528302zM5 548.693759L6 548.693759C8.76142375 548.693759 11 550.932335 11 553.693759 11 556.455183 8.76142375 558.693759 6 558.693759L5 558.693759C2.23857625 558.693759 3.38176876e-16 556.455183 0 553.693759-3.38176876e-16 550.932335 2.23857625 548.693759 5 548.693759zM5 584.412192L6 584.412192C8.76142375 584.412192 11 586.650768 11 589.412192 11 592.173615 8.76142375 594.412192 6 594.412192L5 594.412192C2.23857625 594.412192 3.38176876e-16 592.173615 0 589.412192-3.38176876e-16 586.650768 2.23857625 584.412192 5 584.412192zM5 618.577649L6 618.577649C8.76142375 618.577649 11 620.816225 11 623.577649 11 626.339073 8.76142375 628.577649 6 628.577649L5 628.577649C2.23857625 628.577649 3.38176876e-16 626.339073 0 623.577649-3.38176876e-16 620.816225 2.23857625 618.577649 5 618.577649zM5 652.743106L6 652.743106C8.76142375 652.743106 11 654.981682 11 657.743106 11 660.50453 8.76142375 662.743106 6 662.743106L5 662.743106C2.23857625 662.743106 3.38176876e-16 660.50453 0 657.743106-3.38176876e-16 654.981682 2.23857625 652.743106 5 652.743106zM5 686.908563L6 686.908563C8.76142375 686.908563 11 689.147139 11 691.908563 11 694.669987 8.76142375 696.908563 6 696.908563L5 696.908563C2.23857625 696.908563 3.38176876e-16 694.669987 0 691.908563-3.38176876e-16 689.147139 2.23857625 686.908563 5 686.908563zM5 722.626996L6 722.626996C8.76142375 722.626996 11 724.865572 11 727.626996 11 730.388419 8.76142375 732.626996 6 732.626996L5 732.626996C2.23857625 732.626996 3.38176876e-16 730.388419 0 727.626996-3.38176876e-16 724.865572 2.23857625 722.626996 5 722.626996zM5 756.792453L6 756.792453C8.76142375 756.792453 11 759.031029 11 761.792453 11 764.553877 8.76142375 766.792453 6 766.792453L5 766.792453C2.23857625 766.792453 3.38176876e-16 764.553877 0 761.792453-3.38176876e-16 759.031029 2.23857625 756.792453 5 756.792453zM5 790.95791L6 790.95791C8.76142375 790.95791 11 793.196486 11 795.95791 11 798.719334 8.76142375 800.95791 6 800.95791L5 800.95791C2.23857625 800.95791 3.38176876e-16 798.719334 0 795.95791-3.38176876e-16 793.196486 2.23857625 790.95791 5 790.95791zM5 825.123367L6 825.123367C8.76142375 825.123367 11 827.361943 11 830.123367 11 832.884791 8.76142375 835.123367 6 835.123367L5 835.123367C2.23857625 835.123367 3.38176876e-16 832.884791 0 830.123367-3.38176876e-16 827.361943 2.23857625 825.123367 5 825.123367zM5 859.288824L6 859.288824C8.76142375 859.288824 11 861.527401 11 864.288824 11 867.050248 8.76142375 869.288824 6 869.288824L5 869.288824C2.23857625 869.288824 3.38176876e-16 867.050248 0 864.288824-3.38176876e-16 861.527401 2.23857625 859.288824 5 859.288824zM5 893.454282L6 893.454282C8.76142375 893.454282 11 895.692858 11 898.454282 11 901.215705 8.76142375 903.454282 6 903.454282L5 903.454282C2.23857625 903.454282 3.38176876e-16 901.215705 0 898.454282-3.38176876e-16 895.692858 2.23857625 893.454282 5 893.454282zM5 927.619739L6 927.619739C8.76142375 927.619739 11 929.858315 11 932.619739 11 935.381163 8.76142375 937.619739 6 937.619739L5 937.619739C2.23857625 937.619739 3.38176876e-16 935.381163 0 932.619739-3.38176876e-16 929.858315 2.23857625 927.619739 5 927.619739z" opacity=".203" transform="translate(44.694 78.708)"/>
    <path fill="#F84F77" d="M100.329413,78.9898403 L255.192431,78.9898403 C256.290553,78.9898403 257.126271,79.190244 257.829921,79.5665601 C258.53357,79.9428762 259.085799,80.4951048 259.462115,81.1987548 C259.838431,81.9024047 260.038835,82.7381227 260.038835,83.836244 L260.038835,84.1434367 C260.038835,85.241558 259.838431,86.077276 259.462115,86.7809259 C259.085799,87.4845759 258.53357,88.0368045 257.829921,88.4131206 C257.126271,88.7894367 256.290553,88.9898403 255.192431,88.9898403 L100.329413,88.9898403 C99.2312921,88.9898403 98.3955741,88.7894367 97.6919241,88.4131206 C96.9882742,88.0368045 96.4360456,87.4845759 96.0597294,86.7809259 C95.6834133,86.077276 95.4830097,85.241558 95.4830097,84.1434367 L95.4830097,83.836244 C95.4830097,82.7381227 95.6834133,81.9024047 96.0597294,81.1987548 C96.4360456,80.4951048 96.9882742,79.9428762 97.6919241,79.5665601 C98.3955741,79.190244 99.2312921,78.9898403 100.329413,78.9898403 Z"/>
    <path fill="#EFF1F6" d="M100.329413,108.708273 L157.677868,108.708273 C158.775989,108.708273 159.611707,108.908676 160.315357,109.284993 C161.019007,109.661309 161.571236,110.213537 161.947552,110.917187 C162.323868,111.620837 162.524272,112.456555 162.524272,113.554676 L162.524272,113.861869 C162.524272,114.95999 162.323868,115.795708 161.947552,116.499358 C161.571236,117.203008 161.019007,117.755237 160.315357,118.131553 C159.611707,118.507869 158.775989,118.708273 157.677868,118.708273 L100.329413,118.708273 C99.2312921,118.708273 98.3955741,118.507869 97.6919241,118.131553 C96.9882742,117.755237 96.4360456,117.203008 96.0597294,116.499358 C95.6834133,115.795708 95.4830097,114.95999 95.4830097,113.861869 L95.4830097,113.554676 C95.4830097,112.456555 95.6834133,111.620837 96.0597294,110.917187 C96.4360456,110.213537 96.9882742,109.661309 97.6919241,109.284993 C98.3955741,108.908676 99.2312921,108.708273 100.329413,108.708273 Z" opacity=".1"/>
    <path fill="#8792A2" d="M80.0138793-2.93953059e-16L167.835635 1.77802623e-15C168.933756-1.91600908e-15 169.769474.200403625 170.473124.57671974 171.176774.953035854 171.729003 1.50526446 172.105319 2.20891441 172.481635 2.91256437 172.682039 3.74828239 172.682039 4.84640362L172.682039 5.15359638C172.682039 6.25171761 172.481635 7.08743563 172.105319 7.79108559 171.729003 8.49473554 171.176774 9.04696415 170.473124 9.42328026 169.769474 9.79959637 168.933756 10 167.835635 10L80.0138793 10C78.9157581 10 78.0800401 9.79959637 77.3763901 9.42328026 76.6727402 9.04696415 76.1205116 8.49473554 75.7441955 7.79108559 75.3678794 7.08743563 75.1674757 6.25171761 75.1674757 5.15359638L75.1674757 4.84640362C75.1674757 3.74828239 75.3678794 2.91256437 75.7441955 2.20891441 76.1205116 1.50526446 76.6727402.953035854 77.3763901.57671974 78.0800401.200403625 78.9157581 3.16765141e-16 80.0138793-2.93953059e-16zM191.749316-2.93953059e-16L279.571072-9.9766344e-17C280.669193 1.07508662e-16 281.504911.200403625 282.208561.57671974 282.912211.953035854 283.46444 1.50526446 283.840756 2.20891441 284.217072 2.91256437 284.417476 3.74828239 284.417476 4.84640362L284.417476 5.15359638C284.417476 6.25171761 284.217072 7.08743563 283.840756 7.79108559 283.46444 8.49473554 282.912211 9.04696415 282.208561 9.42328026 281.504911 9.79959637 280.669193 10 279.571072 10L191.749316 10C190.651195 10 189.815477 9.79959637 189.111827 9.42328026 188.408177 9.04696415 187.855948 8.49473554 187.479632 7.79108559 187.103316 7.08743563 186.902913 6.25171761 186.902913 5.15359638L186.902913 4.84640362C186.902913 3.74828239 187.103316 2.91256437 187.479632 2.20891441 187.855948 1.50526446 188.408177.953035854 189.111827.57671974 189.815477.200403625 190.651195 3.16765141e-16 191.749316-2.93953059e-16zM4.84640362 34.1654572L92.6681595 34.1654572C93.7662807 34.1654572 94.6019987 34.3658608 95.3056487 34.7421769 96.0092986 35.118493 96.5615273 35.6707216 96.9378434 36.3743716 97.3141595 37.0780216 97.5145631 37.9137396 97.5145631 39.0118608L97.5145631 39.3190536C97.5145631 40.4171748 97.3141595 41.2528928 96.9378434 41.9565428 96.5615273 42.6601927 96.0092986 43.2124213 95.3056487 43.5887374 94.6019987 43.9650536 93.7662807 44.1654572 92.6681595 44.1654572L4.84640362 44.1654572C3.74828239 44.1654572 2.91256437 43.9650536 2.20891441 43.5887374 1.50526446 43.2124213.953035854 42.6601927.57671974 41.9565428.200403625 41.2528928 4.94025962e-16 40.4171748-4.58448308e-16 39.3190536L6.47289051e-17 39.0118608C-6.97521597e-17 37.9137396.200403625 37.0780216.57671974 36.3743716.953035854 35.6707216 1.50526446 35.118493 2.20891441 34.7421769 2.91256437 34.3658608 3.74828239 34.1654572 4.84640362 34.1654572zM4.84640362 138.214804L234.876897 138.214804C235.975019 138.214804 236.810737 138.415208 237.514387 138.791524 238.218037 139.16784 238.770265 139.720069 239.146581 140.423718 239.522897 141.127368 239.723301 141.963086 239.723301 143.061208L239.723301 143.3684C239.723301 144.466522 239.522897 145.30224 239.146581 146.00589 238.770265 146.70954 238.218037 147.261768 237.514387 147.638084 236.810737 148.0144 235.975019 148.214804 234.876897 148.214804L4.84640362 148.214804C3.74828239 148.214804 2.91256437 148.0144 2.20891441 147.638084 1.50526446 147.261768.953035854 146.70954.57671974 146.00589.200403625 145.30224 4.94025962e-16 144.466522-4.58448308e-16 143.3684L6.47289051e-17 143.061208C-6.97521597e-17 141.963086.200403625 141.127368.57671974 140.423718.953035854 139.720069 1.50526446 139.16784 2.20891441 138.791524 2.91256437 138.415208 3.74828239 138.214804 4.84640362 138.214804zM252.695918 138.214804L318.170587 138.214804C319.268708 138.214804 320.104426 138.415208 320.808076 138.791524 321.511726 139.16784 322.063954 139.720069 322.440271 140.423718 322.816587 141.127368 323.01699 141.963086 323.01699 143.061208L323.01699 143.3684C323.01699 144.466522 322.816587 145.30224 322.440271 146.00589 322.063954 146.70954 321.511726 147.261768 320.808076 147.638084 320.104426 148.0144 319.268708 148.214804 318.170587 148.214804L252.695918 148.214804C251.597797 148.214804 250.762079 148.0144 250.058429 147.638084 249.354779 147.261768 248.80255 146.70954 248.426234 146.00589 248.049918 145.30224 247.849515 144.466522 247.849515 143.3684L247.849515 143.061208C247.849515 141.963086 248.049918 141.127368 248.426234 140.423718 248.80255 139.720069 249.354779 139.16784 250.058429 138.791524 250.762079 138.415208 251.597797 138.214804 252.695918 138.214804zM335.989608 138.214804L401.464276 138.214804C402.562397 138.214804 403.398115 138.415208 404.101765 138.791524 404.805415 139.16784 405.357644 139.720069 405.73396 140.423718 406.110276 141.127368 406.31068 141.963086 406.31068 143.061208L406.31068 143.3684C406.31068 144.466522 406.110276 145.30224 405.73396 146.00589 405.357644 146.70954 404.805415 147.261768 404.101765 147.638084 403.398115 148.0144 402.562397 148.214804 401.464276 148.214804L335.989608 148.214804C334.891486 148.214804 334.055768 148.0144 333.352118 147.638084 332.648468 147.261768 332.09624 146.70954 331.719924 146.00589 331.343608 145.30224 331.143204 144.466522 331.143204 143.3684L331.143204 143.061208C331.143204 141.963086 331.343608 141.127368 331.719924 140.423718 332.09624 139.720069 332.648468 139.16784 333.352118 138.791524 334.055768 138.415208 334.891486 138.214804 335.989608 138.214804zM4.84640362 172.380261L117.0468 172.380261C118.144921 172.380261 118.98064 172.580665 119.684289 172.956981 120.387939 173.333297 120.940168 173.885526 121.316484 174.589176 121.6928 175.292826 121.893204 176.128544 121.893204 177.226665L121.893204 177.533858C121.893204 178.631979 121.6928 179.467697 121.316484 180.171347 120.940168 180.874997 120.387939 181.427225 119.684289 181.803542 118.98064 182.179858 118.144921 182.380261 117.0468 182.380261L4.84640362 182.380261C3.74828239 182.380261 2.91256437 182.179858 2.20891441 181.803542 1.50526446 181.427225.953035854 180.874997.57671974 180.171347.200403625 179.467697 4.94025962e-16 178.631979-4.58448308e-16 177.533858L6.47289051e-17 177.226665C-6.97521597e-17 176.128544.200403625 175.292826.57671974 174.589176.953035854 173.885526 1.50526446 173.333297 2.20891441 172.956981 2.91256437 172.580665 3.74828239 172.380261 4.84640362 172.380261zM45.4774716 416.197388L206.43515 416.197388C207.533271 416.197388 208.368989 416.397791 209.072639 416.774107 209.776289 417.150423 210.328518 417.702652 210.704834 418.406302 211.08115 419.109952 211.281553 419.94567 211.281553 421.043791L211.281553 421.350984C211.281553 422.449105 211.08115 423.284823 210.704834 423.988473 210.328518 424.692123 209.776289 425.244352 209.072639 425.620668 208.368989 425.996984 207.533271 426.197388 206.43515 426.197388L45.4774716 426.197388C44.3793504 426.197388 43.5436323 425.996984 42.8399824 425.620668 42.1363324 425.244352 41.5841038 424.692123 41.2077877 423.988473 40.8314716 423.284823 40.631068 422.449105 40.631068 421.350984L40.631068 421.043791C40.631068 419.94567 40.8314716 419.109952 41.2077877 418.406302 41.5841038 417.702652 42.1363324 417.150423 42.8399824 416.774107 43.5436323 416.397791 44.3793504 416.197388 45.4774716 416.197388zM476.166792 450.362845L541.64146 450.362845C542.739582 450.362845 543.5753 450.563248 544.27895 450.939564 544.9826 451.315881 545.534828 451.868109 545.911144 452.571759 546.28746 453.275409 546.487864 454.111127 546.487864 455.209248L546.487864 455.516441C546.487864 456.614562 546.28746 457.45028 545.911144 458.15393 545.534828 458.85758 544.9826 459.409809 544.27895 459.786125 543.5753 460.162441 542.739582 460.362845 541.64146 460.362845L476.166792 460.362845C475.068671 460.362845 474.232953 460.162441 473.529303 459.786125 472.825653 459.409809 472.273424 458.85758 471.897108 458.15393 471.520792 457.45028 471.320388 456.614562 471.320388 455.516441L471.320388 455.209248C471.320388 454.111127 471.520792 453.275409 471.897108 452.571759 472.273424 451.868109 472.825653 451.315881 473.529303 450.939564 474.232953 450.563248 475.068671 450.362845 476.166792 450.362845zM81.3633939 588.291727L313.670587 588.291727C314.768708 588.291727 315.604426 588.492131 316.308076 588.868447 317.011726 589.244763 317.563954 589.796992 317.940271 590.500642 318.316587 591.204292 318.51699 592.04001 318.51699 593.138131L318.51699 593.445324C318.51699 594.543445 318.316587 595.379163 317.940271 596.082813 317.563954 596.786463 317.011726 597.338691 316.308076 597.715007 315.604426 598.091324 314.768708 598.291727 313.670587 598.291727L81.3633939 598.291727C80.2652727 598.291727 79.4295547 598.091324 78.7259047 597.715007 78.0222547 597.338691 77.4700261 596.786463 77.09371 596.082813 76.7173939 595.379163 76.5169903 594.543445 76.5169903 593.445324L76.5169903 593.138131C76.5169903 592.04001 76.7173939 591.204292 77.09371 590.500642 77.4700261 589.796992 78.0222547 589.244763 78.7259047 588.868447 79.4295547 588.492131 80.2652727 588.291727 81.3633939 588.291727zM134.865821 554.412192L628.998257 554.412192C630.096378 554.412192 630.932096 554.612595 631.635746 554.988911 632.339396 555.365227 632.891624 555.917456 633.26794 556.621106 633.644257 557.324756 633.84466 558.160474 633.84466 559.258595L633.84466 559.565788C633.84466 560.663909 633.644257 561.499627 633.26794 562.203277 632.891624 562.906927 632.339396 563.459156 631.635746 563.835472 630.932096 564.211788 630.096378 564.412192 628.998257 564.412192L134.865821 564.412192C133.7677 564.412192 132.931982 564.211788 132.228332 563.835472 131.524682 563.459156 130.972453 562.906927 130.596137 562.203277 130.219821 561.499627 130.019417 560.663909 130.019417 559.565788L130.019417 559.258595C130.019417 558.160474 130.219821 557.324756 130.596137 556.621106 130.972453 555.917456 131.524682 555.365227 132.228332 554.988911 132.931982 554.612595 133.7677 554.412192 134.865821 554.412192zM4.84640362 622.743106L117.0468 622.743106C118.144921 622.743106 118.98064 622.94351 119.684289 623.319826 120.387939 623.696142 120.940168 624.24837 121.316484 624.95202 121.6928 625.65567 121.893204 626.491388 121.893204 627.58951L121.893204 627.896702C121.893204 628.994824 121.6928 629.830542 121.316484 630.534192 120.940168 631.237841 120.387939 631.79007 119.684289 632.166386 118.98064 632.542702 118.144921 632.743106 117.0468 632.743106L4.84640362 632.743106C3.74828239 632.743106 2.91256437 632.542702 2.20891441 632.166386 1.50526446 631.79007.953035854 631.237841.57671974 630.534192.200403625 629.830542 4.94025962e-16 628.994824-4.58448308e-16 627.896702L6.47289051e-17 627.58951C-6.97521597e-17 626.491388.200403625 625.65567.57671974 624.95202.953035854 624.24837 1.50526446 623.696142 2.20891441 623.319826 2.91256437 622.94351 3.74828239 622.743106 4.84640362 622.743106zM136.897374 622.743106L297.855053 622.743106C298.953174 622.743106 299.788892 622.94351 300.492542 623.319826 301.196192 623.696142 301.74842 624.24837 302.124737 624.95202 302.501053 625.65567 302.701456 626.491388 302.701456 627.58951L302.701456 627.896702C302.701456 628.994824 302.501053 629.830542 302.124737 630.534192 301.74842 631.237841 301.196192 631.79007 300.492542 632.166386 299.788892 632.542702 298.953174 632.743106 297.855053 632.743106L136.897374 632.743106C135.799253 632.743106 134.963535 632.542702 134.259885 632.166386 133.556235 631.79007 133.004007 631.237841 132.627691 630.534192 132.251374 629.830542 132.050971 628.994824 132.050971 627.896702L132.050971 627.58951C132.050971 626.491388 132.251374 625.65567 132.627691 624.95202 133.004007 624.24837 133.556235 623.696142 134.259885 623.319826 134.963535 622.94351 135.799253 622.743106 136.897374 622.743106zM94.2347531 656.908563L192.214276 656.908563C193.312397 656.908563 194.148115 657.108967 194.851765 657.485283 195.555415 657.861599 196.107644 658.413828 196.48396 659.117478 196.860276 659.821128 197.06068 660.656846 197.06068 661.754967L197.06068 662.06216C197.06068 663.160281 196.860276 663.995999 196.48396 664.699649 196.107644 665.403299 195.555415 665.955527 194.851765 666.331843 194.148115 666.70816 193.312397 666.908563 192.214276 666.908563L94.2347531 666.908563C93.1366319 666.908563 92.3009139 666.70816 91.5972639 666.331843 90.893614 665.955527 90.3413854 665.403299 89.9650693 664.699649 89.5887531 663.995999 89.3883495 663.160281 89.3883495 662.06216L89.3883495 661.754967C89.3883495 660.656846 89.5887531 659.821128 89.9650693 659.117478 90.3413854 658.413828 90.893614 657.861599 91.5972639 657.485283 92.3009139 657.108967 93.1366319 656.908563 94.2347531 656.908563zM4.84640362 692.626996L165.804082 692.626996C166.902203 692.626996 167.737921 692.827399 168.441571 693.203715 169.145221 693.580031 169.69745 694.13226 170.073766 694.83591 170.450082 695.53956 170.650485 696.375278 170.650485 697.473399L170.650485 697.780592C170.650485 698.878713 170.450082 699.714431 170.073766 700.418081 169.69745 701.121731 169.145221 701.67396 168.441571 702.050276 167.737921 702.426592 166.902203 702.626996 165.804082 702.626996L4.84640362 702.626996C3.74828239 702.626996 2.91256437 702.426592 2.20891441 702.050276 1.50526446 701.67396.953035854 701.121731.57671974 700.418081.200403625 699.714431 4.94025962e-16 698.878713-4.58448308e-16 697.780592L6.47289051e-17 697.473399C-6.97521597e-17 696.375278.200403625 695.53956.57671974 694.83591.953035854 694.13226 1.50526446 693.580031 2.20891441 693.203715 2.91256437 692.827399 3.74828239 692.626996 4.84640362 692.626996zM376.620675 484.528302L401.464276 484.528302C402.562397 484.528302 403.398115 484.728706 404.101765 485.105022 404.805415 485.481338 405.357644 486.033566 405.73396 486.737216 406.110276 487.440866 406.31068 488.276584 406.31068 489.374706L406.31068 489.681898C406.31068 490.780019 406.110276 491.615738 405.73396 492.319387 405.357644 493.023037 404.805415 493.575266 404.101765 493.951582 403.398115 494.327898 402.562397 494.528302 401.464276 494.528302L376.620675 494.528302C375.522554 494.528302 374.686836 494.327898 373.983186 493.951582 373.279536 493.575266 372.727308 493.023037 372.350992 492.319387 371.974675 491.615738 371.774272 490.780019 371.774272 489.681898L371.774272 489.374706C371.774272 488.276584 371.974675 487.440866 372.350992 486.737216 372.727308 486.033566 373.279536 485.481338 373.983186 485.105022 374.686836 484.728706 375.522554 484.528302 376.620675 484.528302zM421.31485 484.528302L446.158451 484.528302C447.256572 484.528302 448.09229 484.728706 448.79594 485.105022 449.49959 485.481338 450.051819 486.033566 450.428135 486.737216 450.804451 487.440866 451.004854 488.276584 451.004854 489.374706L451.004854 489.681898C451.004854 490.780019 450.804451 491.615738 450.428135 492.319387 450.051819 493.023037 449.49959 493.575266 448.79594 493.951582 448.09229 494.327898 447.256572 494.528302 446.158451 494.528302L421.31485 494.528302C420.216729 494.528302 419.381011 494.327898 418.677361 493.951582 417.973711 493.575266 417.421482 493.023037 417.045166 492.319387 416.66885 491.615738 416.468447 490.780019 416.468447 489.681898L416.468447 489.374706C416.468447 488.276584 416.66885 487.440866 417.045166 486.737216 417.421482 486.033566 417.973711 485.481338 418.677361 485.105022 419.381011 484.728706 420.216729 484.528302 421.31485 484.528302zM466.009025 484.528302L490.852626 484.528302C491.950747 484.528302 492.786465 484.728706 493.490115 485.105022 494.193765 485.481338 494.745993 486.033566 495.122309 486.737216 495.498626 487.440866 495.699029 488.276584 495.699029 489.374706L495.699029 489.681898C495.699029 490.780019 495.498626 491.615738 495.122309 492.319387 494.745993 493.023037 494.193765 493.575266 493.490115 493.951582 492.786465 494.327898 491.950747 494.528302 490.852626 494.528302L466.009025 494.528302C464.910904 494.528302 464.075186 494.327898 463.371536 493.951582 462.667886 493.575266 462.115657 493.023037 461.739341 492.319387 461.363025 491.615738 461.162621 490.780019 461.162621 489.681898L461.162621 489.374706C461.162621 488.276584 461.363025 487.440866 461.739341 486.737216 462.115657 486.033566 462.667886 485.481338 463.371536 485.105022 464.075186 484.728706 464.910904 484.528302 466.009025 484.528302zM67.824559 829.288824L180.024956 829.288824C181.123077 829.288824 181.958795 829.489228 182.662445 829.865544 183.366095 830.24186 183.918323 830.794089 184.294639 831.497739 184.670956 832.201389 184.871359 833.037107 184.871359 834.135228L184.871359 834.442421C184.871359 835.540542 184.670956 836.37626 184.294639 837.07991 183.918323 837.78356 183.366095 838.335789 182.662445 838.712105 181.958795 839.088421 181.123077 839.288824 180.024956 839.288824L67.824559 839.288824C66.7264377 839.288824 65.8907197 839.088421 65.1870698 838.712105 64.4834198 838.335789 63.9311912 837.78356 63.5548751 837.07991 63.178559 836.37626 62.9781553 835.540542 62.9781553 834.442421L62.9781553 834.135228C62.9781553 833.037107 63.178559 832.201389 63.5548751 831.497739 63.9311912 830.794089 64.4834198 830.24186 65.1870698 829.865544 65.8907197 829.489228 66.7264377 829.288824 67.824559 829.288824zM197.843976 829.288824L281.602626 829.288824C282.700747 829.288824 283.536465 829.489228 284.240115 829.865544 284.943765 830.24186 285.495993 830.794089 285.872309 831.497739 286.248626 832.201389 286.449029 833.037107 286.449029 834.135228L286.449029 834.442421C286.449029 835.540542 286.248626 836.37626 285.872309 837.07991 285.495993 837.78356 284.943765 838.335789 284.240115 838.712105 283.536465 839.088421 282.700747 839.288824 281.602626 839.288824L197.843976 839.288824C196.745855 839.288824 195.910137 839.088421 195.206487 838.712105 194.502837 838.335789 193.950609 837.78356 193.574293 837.07991 193.197976 836.37626 192.997573 835.540542 192.997573 834.442421L192.997573 834.135228C192.997573 833.037107 193.197976 832.201389 193.574293 831.497739 193.950609 830.794089 194.502837 830.24186 195.206487 829.865544 195.910137 829.489228 196.745855 829.288824 197.843976 829.288824zM301.4532 829.288824L385.211849 829.288824C386.30997 829.288824 387.145688 829.489228 387.849338 829.865544 388.552988 830.24186 389.105217 830.794089 389.481533 831.497739 389.857849 832.201389 390.058252 833.037107 390.058252 834.135228L390.058252 834.442421C390.058252 835.540542 389.857849 836.37626 389.481533 837.07991 389.105217 837.78356 388.552988 838.335789 387.849338 838.712105 387.145688 839.088421 386.30997 839.288824 385.211849 839.288824L301.4532 839.288824C300.355079 839.288824 299.51936 839.088421 298.815711 838.712105 298.112061 838.335789 297.559832 837.78356 297.183516 837.07991 296.8072 836.37626 296.606796 835.540542 296.606796 834.442421L296.606796 834.135228C296.606796 833.037107 296.8072 832.201389 297.183516 831.497739 297.559832 830.794089 298.112061 830.24186 298.815711 829.865544 299.51936 829.489228 300.355079 829.288824 301.4532 829.288824zM405.062423 829.288824L427.87447 829.288824C428.972591 829.288824 429.808309 829.489228 430.511959 829.865544 431.215609 830.24186 431.767838 830.794089 432.144154 831.497739 432.52047 832.201389 432.720874 833.037107 432.720874 834.135228L432.720874 834.442421C432.720874 835.540542 432.52047 836.37626 432.144154 837.07991 431.767838 837.78356 431.215609 838.335789 430.511959 838.712105 429.808309 839.088421 428.972591 839.288824 427.87447 839.288824L405.062423 839.288824C403.964302 839.288824 403.128584 839.088421 402.424934 838.712105 401.721284 838.335789 401.169055 837.78356 400.792739 837.07991 400.416423 836.37626 400.216019 835.540542 400.216019 834.442421L400.216019 834.135228C400.216019 833.037107 400.416423 832.201389 400.792739 831.497739 401.169055 830.794089 401.721284 830.24186 402.424934 829.865544 403.128584 829.489228 403.964302 829.288824 405.062423 829.288824zM4.84640362 312.148041L98.7628197 312.148041C99.8609409 312.148041 100.696659 312.348444 101.400309 312.72476 102.103959 313.101076 102.656187 313.653305 103.032504 314.356955 103.40882 315.060605 103.609223 315.896323 103.609223 316.994444L103.609223 317.301637C103.609223 318.399758 103.40882 319.235476 103.032504 319.939126 102.656187 320.642776 102.103959 321.195005 101.400309 321.571321 100.696659 321.947637 99.8609409 322.148041 98.7628197 322.148041L4.84640362 322.148041C3.74828239 322.148041 2.91256437 321.947637 2.20891441 321.571321 1.50526446 321.195005.953035854 320.642776.57671974 319.939126.200403625 319.235476 2.81889061e-16 318.399758-2.61588607e-16 317.301637L2.61588607e-16 316.994444C-2.81889061e-16 315.896323.200403625 315.060605.57671974 314.356955.953035854 313.653305 1.50526446 313.101076 2.20891441 312.72476 2.91256437 312.348444 3.74828239 312.148041 4.84640362 312.148041zM214.096404 312.148041L458.347771 312.148041C459.445892 312.148041 460.28161 312.348444 460.98526 312.72476 461.68891 313.101076 462.241139 313.653305 462.617455 314.356955 462.993771 315.060605 463.194175 315.896323 463.194175 316.994444L463.194175 317.301637C463.194175 318.399758 462.993771 319.235476 462.617455 319.939126 462.241139 320.642776 461.68891 321.195005 460.98526 321.571321 460.28161 321.947637 459.445892 322.148041 458.347771 322.148041L214.096404 322.148041C212.998282 322.148041 212.162564 321.947637 211.458914 321.571321 210.755264 321.195005 210.203036 320.642776 209.82672 319.939126 209.450404 319.235476 209.25 318.399758 209.25 317.301637L209.25 316.994444C209.25 315.896323 209.450404 315.060605 209.82672 314.356955 210.203036 313.653305 210.755264 313.101076 211.458914 312.72476 212.162564 312.348444 212.998282 312.148041 214.096404 312.148041zM4.84640362 346.313498L303.949713 346.313498C305.047834 346.313498 305.883552 346.513901 306.587202 346.890218 307.290852 347.266534 307.843081 347.818762 308.219397 348.522412 308.595713 349.226062 308.796117 350.06178 308.796117 351.159901L308.796117 351.467094C308.796117 352.565215 308.595713 353.400933 308.219397 354.104583 307.843081 354.808233 307.290852 355.360462 306.587202 355.736778 305.883552 356.113094 305.047834 356.313498 303.949713 356.313498L4.84640362 356.313498C3.74828239 356.313498 2.91256437 356.113094 2.20891441 355.736778 1.50526446 355.360462.953035854 354.808233.57671974 354.104583.200403625 353.400933 3.88821638e-15 352.565215-3.60820353e-15 351.467094L6.47289051e-17 351.159901C-6.97521597e-17 350.06178.200403625 349.226062.57671974 348.522412.953035854 347.818762 1.50526446 347.266534 2.20891441 346.890218 2.91256437 346.513901 3.74828239 346.313498 4.84640362 346.313498z" opacity=".5" transform="translate(95.483 108.708)"/>
    <path fill="#F84F77" d="M99.8464036,697 L162.153596,697 C163.251718,697 164.087436,697.200404 164.791086,697.57672 C165.494736,697.953036 166.046964,698.505264 166.42328,699.208914 C166.799596,699.912564 167,700.748282 167,701.846404 L167,702.153596 C167,703.251718 166.799596,704.087436 166.42328,704.791086 C166.046964,705.494736 165.494736,706.046964 164.791086,706.42328 C164.087436,706.799596 163.251718,707 162.153596,707 L99.8464036,707 C98.7482824,707 97.9125644,706.799596 97.2089144,706.42328 C96.5052645,706.046964 95.9530359,705.494736 95.5767197,704.791086 C95.2004036,704.087436 95,703.251718 95,702.153596 L95,701.846404 C95,700.748282 95.2004036,699.912564 95.5767197,699.208914 C95.9530359,698.505264 96.5052645,697.953036 97.2089144,697.57672 C97.9125644,697.200404 98.7482824,697 99.8464036,697 Z"/>
    <path fill="#8792A2" d="M205.97019,142.87373 L466.473985,142.87373 C467.572106,142.87373 468.407824,143.074134 469.111474,143.45045 C469.815124,143.826766 470.367352,144.378995 470.743669,145.082644 C471.119985,145.786294 471.320388,146.622012 471.320388,147.720134 L471.320388,148.027326 C471.320388,149.125448 471.119985,149.961166 470.743669,150.664816 C470.367352,151.368466 469.815124,151.920694 469.111474,152.29701 C468.407824,152.673326 467.572106,152.87373 466.473985,152.87373 L205.97019,152.87373 C204.872069,152.87373 204.036351,152.673326 203.332701,152.29701 C202.629051,151.920694 202.076822,151.368466 201.700506,150.664816 C201.32419,149.961166 201.123786,149.125448 201.123786,148.027326 L201.123786,147.720134 C201.123786,146.622012 201.32419,145.786294 201.700506,145.082644 C202.076822,144.378995 202.629051,143.826766 203.332701,143.45045 C204.036351,143.074134 204.872069,142.87373 205.97019,142.87373 Z" opacity=".1"/>
    <path fill="#8792A2" d="M189.717763,177.039187 L287.697286,177.039187 C288.795407,177.039187 289.631125,177.239591 290.334775,177.615907 C291.038425,177.992223 291.590653,178.544452 291.96697,179.248102 C292.343286,179.951752 292.543689,180.78747 292.543689,181.885591 L292.543689,182.192784 C292.543689,183.290905 292.343286,184.126623 291.96697,184.830273 C291.590653,185.533923 291.038425,186.086151 290.334775,186.462467 C289.631125,186.838784 288.795407,187.039187 287.697286,187.039187 L189.717763,187.039187 C188.619642,187.039187 187.783924,186.838784 187.080274,186.462467 C186.376624,186.086151 185.824395,185.533923 185.448079,184.830273 C185.071763,184.126623 184.871359,183.290905 184.871359,182.192784 L184.871359,181.885591 C184.871359,180.78747 185.071763,179.951752 185.448079,179.248102 C185.824395,178.544452 186.376624,177.992223 187.080274,177.615907 C187.783924,177.239591 188.619642,177.039187 189.717763,177.039187 Z" opacity=".284"/>
    <path fill="#1851BE" d="M100.329413 177.039187L125.173014 177.039187C126.271135 177.039187 127.106853 177.239591 127.810503 177.615907 128.514153 177.992223 129.066382 178.544452 129.442698 179.248102 129.819014 179.951752 130.019417 180.78747 130.019417 181.885591L130.019417 182.192784C130.019417 183.290905 129.819014 184.126623 129.442698 184.830273 129.066382 185.533923 128.514153 186.086151 127.810503 186.462467 127.106853 186.838784 126.271135 187.039187 125.173014 187.039187L100.329413 187.039187C99.2312921 187.039187 98.3955741 186.838784 97.6919241 186.462467 96.9882742 186.086151 96.4360456 185.533923 96.0597294 184.830273 95.6834133 184.126623 95.4830097 183.290905 95.4830097 182.192784L95.4830097 181.885591C95.4830097 180.78747 95.6834133 179.951752 96.0597294 179.248102 96.4360456 178.544452 96.9882742 177.992223 97.6919241 177.615907 98.3955741 177.239591 99.2312921 177.039187 100.329413 177.039187zM128.771161 316.806967L182.056509 316.806967C183.15463 316.806967 183.990348 317.00737 184.693998 317.383686 185.397648 317.760002 185.949877 318.312231 186.326193 319.015881 186.702509 319.719531 186.902913 320.555249 186.902913 321.65337L186.902913 321.960563C186.902913 323.058684 186.702509 323.894402 186.326193 324.598052 185.949877 325.301702 185.397648 325.853931 184.693998 326.230247 183.990348 326.606563 183.15463 326.806967 182.056509 326.806967L128.771161 326.806967C127.67304 326.806967 126.837322 326.606563 126.133672 326.230247 125.430022 325.853931 124.877793 325.301702 124.501477 324.598052 124.125161 323.894402 123.924757 323.058684 123.924757 321.960563L123.924757 321.65337C123.924757 320.555249 124.125161 319.719531 124.501477 319.015881 124.877793 318.312231 125.430022 317.760002 126.133672 317.383686 126.837322 317.00737 127.67304 316.806967 128.771161 316.806967z"/>
    <path fill="#1851BE" d="M100.329413 316.806967L106.889033 316.806967C107.987155 316.806967 108.822873 317.00737 109.526522 317.383686 110.230172 317.760002 110.782401 318.312231 111.158717 319.015881 111.535033 319.719531 111.735437 320.555249 111.735437 321.65337L111.735437 321.960563C111.735437 323.058684 111.535033 323.894402 111.158717 324.598052 110.782401 325.301702 110.230172 325.853931 109.526522 326.230247 108.822873 326.606563 107.987155 326.806967 106.889033 326.806967L100.329413 326.806967C99.2312921 326.806967 98.3955741 326.606563 97.6919241 326.230247 96.9882742 325.853931 96.4360456 325.301702 96.0597294 324.598052 95.6834133 323.894402 95.4830097 323.058684 95.4830097 321.960563L95.4830097 321.65337C95.4830097 320.555249 95.6834133 319.719531 96.0597294 319.015881 96.4360456 318.312231 96.9882742 317.760002 97.6919241 317.383686 98.3955741 317.00737 99.2312921 316.806967 100.329413 316.806967zM201.907083 315.253991L208.466703 315.253991C209.564824 315.253991 210.400542 315.454395 211.104192 315.830711 211.807842 316.207027 212.360071 316.759256 212.736387 317.462906 213.112703 318.166556 213.313107 319.002274 213.313107 320.100395L213.313107 320.407588C213.313107 321.505709 213.112703 322.341427 212.736387 323.045077 212.360071 323.748727 211.807842 324.300955 211.104192 324.677272 210.400542 325.053588 209.564824 325.253991 208.466703 325.253991L201.907083 325.253991C200.808962 325.253991 199.973244 325.053588 199.269594 324.677272 198.565944 324.300955 198.013715 323.748727 197.637399 323.045077 197.261083 322.341427 197.06068 321.505709 197.06068 320.407588L197.06068 320.100395C197.06068 319.002274 197.261083 318.166556 197.637399 317.462906 198.013715 316.759256 198.565944 316.207027 199.269594 315.830711 199.973244 315.454395 200.808962 315.253991 201.907083 315.253991z" opacity=".544"/>
    <path fill="#1851BE" d="M433.504171,316.806967 L486.789519,316.806967 C487.88764,316.806967 488.723358,317.00737 489.427008,317.383686 C490.130658,317.760002 490.682886,318.312231 491.059203,319.015881 C491.435519,319.719531 491.635922,320.555249 491.635922,321.65337 L491.635922,321.960563 C491.635922,323.058684 491.435519,323.894402 491.059203,324.598052 C490.682886,325.301702 490.130658,325.853931 489.427008,326.230247 C488.723358,326.606563 487.88764,326.806967 486.789519,326.806967 L433.504171,326.806967 C432.406049,326.806967 431.570331,326.606563 430.866681,326.230247 C430.163031,325.853931 429.610803,325.301702 429.234487,324.598052 C428.858171,323.894402 428.657767,323.058684 428.657767,321.960563 L428.657767,321.65337 C428.657767,320.555249 428.858171,319.719531 429.234487,319.015881 C429.610803,318.312231 430.163031,317.760002 430.866681,317.383686 C431.570331,317.00737 432.406049,316.806967 433.504171,316.806967 Z"/>
    <path fill="#1851BE" d="M405.062423 316.806967L411.622043 316.806967C412.720164 316.806967 413.555882 317.00737 414.259532 317.383686 414.963182 317.760002 415.515411 318.312231 415.891727 319.015881 416.268043 319.719531 416.468447 320.555249 416.468447 321.65337L416.468447 321.960563C416.468447 323.058684 416.268043 323.894402 415.891727 324.598052 415.515411 325.301702 414.963182 325.853931 414.259532 326.230247 413.555882 326.606563 412.720164 326.806967 411.622043 326.806967L405.062423 326.806967C403.964302 326.806967 403.128584 326.606563 402.424934 326.230247 401.721284 325.853931 401.169055 325.301702 400.792739 324.598052 400.416423 323.894402 400.216019 323.058684 400.216019 321.960563L400.216019 321.65337C400.216019 320.555249 400.416423 319.719531 400.792739 319.015881 401.169055 318.312231 401.721284 317.760002 402.424934 317.383686 403.128584 317.00737 403.964302 316.806967 405.062423 316.806967zM506.640093 316.806967L513.199713 316.806967C514.297834 316.806967 515.133552 317.00737 515.837202 317.383686 516.540852 317.760002 517.093081 318.312231 517.469397 319.015881 517.845713 319.719531 518.046117 320.555249 518.046117 321.65337L518.046117 321.960563C518.046117 323.058684 517.845713 323.894402 517.469397 324.598052 517.093081 325.301702 516.540852 325.853931 515.837202 326.230247 515.133552 326.606563 514.297834 326.806967 513.199713 326.806967L506.640093 326.806967C505.541972 326.806967 504.706254 326.606563 504.002604 326.230247 503.298954 325.853931 502.746725 325.301702 502.370409 324.598052 501.994093 323.894402 501.793689 323.058684 501.793689 321.960563L501.793689 321.65337C501.793689 320.555249 501.994093 319.719531 502.370409 319.015881 502.746725 318.312231 503.298954 317.760002 504.002604 317.383686 504.706254 317.00737 505.541972 316.806967 506.640093 316.806967z" opacity=".544"/>
    <path fill="#1851BE" d="M145.023588,177.039187 L169.867189,177.039187 C170.96531,177.039187 171.801028,177.239591 172.504678,177.615907 C173.208328,177.992223 173.760556,178.544452 174.136872,179.248102 C174.513189,179.951752 174.713592,180.78747 174.713592,181.885591 L174.713592,182.192784 C174.713592,183.290905 174.513189,184.126623 174.136872,184.830273 C173.760556,185.533923 173.208328,186.086151 172.504678,186.462467 C171.801028,186.838784 170.96531,187.039187 169.867189,187.039187 L145.023588,187.039187 C143.925467,187.039187 143.089749,186.838784 142.386099,186.462467 C141.682449,186.086151 141.13022,185.533923 140.753904,184.830273 C140.377588,184.126623 140.177184,183.290905 140.177184,182.192784 L140.177184,181.885591 C140.177184,180.78747 140.377588,179.951752 140.753904,179.248102 C141.13022,178.544452 141.682449,177.992223 142.386099,177.615907 C143.089749,177.239591 143.925467,177.039187 145.023588,177.039187 Z" opacity=".542"/>
    <path fill="#1851BE" d="M307.54786,177.039187 L332.39146,177.039187 C333.489582,177.039187 334.3253,177.239591 335.02895,177.615907 C335.7326,177.992223 336.284828,178.544452 336.661144,179.248102 C337.03746,179.951752 337.237864,180.78747 337.237864,181.885591 L337.237864,182.192784 C337.237864,183.290905 337.03746,184.126623 336.661144,184.830273 C336.284828,185.533923 335.7326,186.086151 335.02895,186.462467 C334.3253,186.838784 333.489582,187.039187 332.39146,187.039187 L307.54786,187.039187 C306.449739,187.039187 305.614021,186.838784 304.910371,186.462467 C304.206721,186.086151 303.654492,185.533923 303.278176,184.830273 C302.90186,184.126623 302.701456,183.290905 302.701456,182.192784 L302.701456,181.885591 C302.701456,180.78747 302.90186,179.951752 303.278176,179.248102 C303.654492,178.544452 304.206721,177.992223 304.910371,177.615907 C305.614021,177.239591 306.449739,177.039187 307.54786,177.039187 Z"/>
    <path fill="#8792A2" d="M100.329413 212.75762L261.287092 212.75762C262.385213 212.75762 263.220931 212.958023 263.924581 213.334339 264.628231 213.710656 265.180459 214.262884 265.556775 214.966534 265.933092 215.670184 266.133495 216.505902 266.133495 217.604023L266.133495 217.911216C266.133495 219.009337 265.933092 219.845055 265.556775 220.548705 265.180459 221.252355 264.628231 221.804584 263.924581 222.1809 263.220931 222.557216 262.385213 222.75762 261.287092 222.75762L100.329413 222.75762C99.2312921 222.75762 98.3955741 222.557216 97.6919241 222.1809 96.9882742 221.804584 96.4360456 221.252355 96.0597294 220.548705 95.6834133 219.845055 95.4830097 219.009337 95.4830097 217.911216L95.4830097 217.604023C95.4830097 216.505902 95.6834133 215.670184 96.0597294 214.966534 96.4360456 214.262884 96.9882742 213.710656 97.6919241 213.334339 98.3955741 212.958023 99.2312921 212.75762 100.329413 212.75762zM279.106112 212.75762L578.209422 212.75762C579.307543 212.75762 580.143261 212.958023 580.846911 213.334339 581.550561 213.710656 582.102789 214.262884 582.479106 214.966534 582.855422 215.670184 583.055825 216.505902 583.055825 217.604023L583.055825 217.911216C583.055825 219.009337 582.855422 219.845055 582.479106 220.548705 582.102789 221.252355 581.550561 221.804584 580.846911 222.1809 580.143261 222.557216 579.307543 222.75762 578.209422 222.75762L279.106112 222.75762C278.007991 222.75762 277.172273 222.557216 276.468623 222.1809 275.764973 221.804584 275.212745 221.252355 274.836428 220.548705 274.460112 219.845055 274.259709 219.009337 274.259709 217.911216L274.259709 217.604023C274.259709 216.505902 274.460112 215.670184 274.836428 214.966534 275.212745 214.262884 275.764973 213.710656 276.468623 213.334339 277.172273 212.958023 278.007991 212.75762 279.106112 212.75762zM232.380384 281.088534L393.338062 281.088534C394.436184 281.088534 395.271902 281.288938 395.975552 281.665254 396.679202 282.04157 397.23143 282.593799 397.607746 283.297449 397.984062 284.001098 398.184466 284.836816 398.184466 285.934938L398.184466 286.24213C398.184466 287.340252 397.984062 288.17597 397.607746 288.87962 397.23143 289.58327 396.679202 290.135498 395.975552 290.511814 395.271902 290.88813 394.436184 291.088534 393.338062 291.088534L232.380384 291.088534C231.282263 291.088534 230.446545 290.88813 229.742895 290.511814 229.039245 290.135498 228.487016 289.58327 228.1107 288.87962 227.734384 288.17597 227.533981 287.340252 227.533981 286.24213L227.533981 285.934938C227.533981 284.836816 227.734384 284.001098 228.1107 283.297449 228.487016 282.593799 229.039245 282.04157 229.742895 281.665254 230.446545 281.288938 231.282263 281.088534 232.380384 281.088534zM413.188637 281.088534L657.440004 281.088534C658.538125 281.088534 659.373843 281.288938 660.077493 281.665254 660.781143 282.04157 661.333372 282.593799 661.709688 283.297449 662.086004 284.001098 662.286408 284.836816 662.286408 285.934938L662.286408 286.24213C662.286408 287.340252 662.086004 288.17597 661.709688 288.87962 661.333372 289.58327 660.781143 290.135498 660.077493 290.511814 659.373843 290.88813 658.538125 291.088534 657.440004 291.088534L413.188637 291.088534C412.090515 291.088534 411.254797 290.88813 410.551147 290.511814 409.847497 290.135498 409.295269 289.58327 408.918953 288.87962 408.542637 288.17597 408.342233 287.340252 408.342233 286.24213L408.342233 285.934938C408.342233 284.836816 408.542637 284.001098 408.918953 283.297449 409.295269 282.593799 409.847497 282.04157 410.551147 281.665254 411.254797 281.288938 412.090515 281.088534 413.188637 281.088534zM189.717763 489.187228L287.697286 489.187228C288.795407 489.187228 289.631125 489.387631 290.334775 489.763948 291.038425 490.140264 291.590653 490.692492 291.96697 491.396142 292.343286 492.099792 292.543689 492.93551 292.543689 494.033631L292.543689 494.340824C292.543689 495.438945 292.343286 496.274663 291.96697 496.978313 291.590653 497.681963 291.038425 498.234192 290.334775 498.610508 289.631125 498.986824 288.795407 499.187228 287.697286 499.187228L189.717763 499.187228C188.619642 499.187228 187.783924 498.986824 187.080274 498.610508 186.376624 498.234192 185.824395 497.681963 185.448079 496.978313 185.071763 496.274663 184.871359 495.438945 184.871359 494.340824L184.871359 494.033631C184.871359 492.93551 185.071763 492.099792 185.448079 491.396142 185.824395 490.692492 186.376624 490.140264 187.080274 489.763948 187.783924 489.387631 188.619642 489.187228 189.717763 489.187228z" opacity=".284"/>
    <path fill="#1851BE" d="M100.329413,489.187228 L125.173014,489.187228 C126.271135,489.187228 127.106853,489.387631 127.810503,489.763948 C128.514153,490.140264 129.066382,490.692492 129.442698,491.396142 C129.819014,492.099792 130.019417,492.93551 130.019417,494.033631 L130.019417,494.340824 C130.019417,495.438945 129.819014,496.274663 129.442698,496.978313 C129.066382,497.681963 128.514153,498.234192 127.810503,498.610508 C127.106853,498.986824 126.271135,499.187228 125.173014,499.187228 L100.329413,499.187228 C99.2312921,499.187228 98.3955741,498.986824 97.6919241,498.610508 C96.9882742,498.234192 96.4360456,497.681963 96.0597294,496.978313 C95.6834133,496.274663 95.4830097,495.438945 95.4830097,494.340824 L95.4830097,494.033631 C95.4830097,492.93551 95.6834133,492.099792 96.0597294,491.396142 C96.4360456,490.692492 96.9882742,490.140264 97.6919241,489.763948 C98.3955741,489.387631 99.2312921,489.187228 100.329413,489.187228 Z"/>
    <path fill="#1851BE" d="M145.023588,489.187228 L169.867189,489.187228 C170.96531,489.187228 171.801028,489.387631 172.504678,489.763948 C173.208328,490.140264 173.760556,490.692492 174.136872,491.396142 C174.513189,492.099792 174.713592,492.93551 174.713592,494.033631 L174.713592,494.340824 C174.713592,495.438945 174.513189,496.274663 174.136872,496.978313 C173.760556,497.681963 173.208328,498.234192 172.504678,498.610508 C171.801028,498.986824 170.96531,499.187228 169.867189,499.187228 L145.023588,499.187228 C143.925467,499.187228 143.089749,498.986824 142.386099,498.610508 C141.682449,498.234192 141.13022,497.681963 140.753904,496.978313 C140.377588,496.274663 140.177184,495.438945 140.177184,494.340824 L140.177184,494.033631 C140.177184,492.93551 140.377588,492.099792 140.753904,491.396142 C141.13022,490.692492 141.682449,490.140264 142.386099,489.763948 C143.089749,489.387631 143.925467,489.187228 145.023588,489.187228 Z" opacity=".542"/>
    <path fill="#1851BE" d="M307.54786,489.187228 L332.39146,489.187228 C333.489582,489.187228 334.3253,489.387631 335.02895,489.763948 C335.7326,490.140264 336.284828,490.692492 336.661144,491.396142 C337.03746,492.099792 337.237864,492.93551 337.237864,494.033631 L337.237864,494.340824 C337.237864,495.438945 337.03746,496.274663 336.661144,496.978313 C336.284828,497.681963 335.7326,498.234192 335.02895,498.610508 C334.3253,498.986824 333.489582,499.187228 332.39146,499.187228 L307.54786,499.187228 C306.449739,499.187228 305.614021,498.986824 304.910371,498.610508 C304.206721,498.234192 303.654492,497.681963 303.278176,496.978313 C302.90186,496.274663 302.701456,495.438945 302.701456,494.340824 L302.701456,494.033631 C302.701456,492.93551 302.90186,492.099792 303.278176,491.396142 C303.654492,490.692492 304.206721,490.140264 304.910371,489.763948 C305.614021,489.387631 306.449739,489.187228 307.54786,489.187228 Z"/>
    <path fill="#8792A2" d="M319.73718 524.90566L618.84049 524.90566C619.938611 524.90566 620.774329 525.106064 621.477979 525.48238 622.181629 525.858696 622.733857 526.410925 623.110173 527.114575 623.48649 527.818225 623.686893 528.653943 623.686893 529.752064L623.686893 530.059257C623.686893 531.157378 623.48649 531.993096 623.110173 532.696746 622.733857 533.400396 622.181629 533.952625 621.477979 534.328941 620.774329 534.705257 619.938611 534.90566 618.84049 534.90566L319.73718 534.90566C318.639059 534.90566 317.803341 534.705257 317.099691 534.328941 316.396041 533.952625 315.843813 533.400396 315.467496 532.696746 315.09118 531.993096 314.890777 531.157378 314.890777 530.059257L314.890777 529.752064C314.890777 528.653943 315.09118 527.818225 315.467496 527.114575 315.843813 526.410925 316.396041 525.858696 317.099691 525.48238 317.803341 525.106064 318.639059 524.90566 319.73718 524.90566zM323.800287 559.071118L553.830781 559.071118C554.928902 559.071118 555.76462 559.271521 556.46827 559.647837 557.17192 560.024153 557.724149 560.576382 558.100465 561.280032 558.476781 561.983682 558.677184 562.8194 558.677184 563.917521L558.677184 564.224714C558.677184 565.322835 558.476781 566.158553 558.100465 566.862203 557.724149 567.565853 557.17192 568.118082 556.46827 568.494398 555.76462 568.870714 554.928902 569.071118 553.830781 569.071118L323.800287 569.071118C322.702166 569.071118 321.866448 568.870714 321.162798 568.494398 320.459148 568.118082 319.906919 567.565853 319.530603 566.862203 319.154287 566.158553 318.953883 565.322835 318.953883 564.224714L318.953883 563.917521C318.953883 562.8194 319.154287 561.983682 319.530603 561.280032 319.906919 560.576382 320.459148 560.024153 321.162798 559.647837 321.866448 559.271521 322.702166 559.071118 323.800287 559.071118zM654.943491 559.071118L720.418159 559.071118C721.516281 559.071118 722.351999 559.271521 723.055649 559.647837 723.759299 560.024153 724.311527 560.576382 724.687843 561.280032 725.064159 561.983682 725.264563 562.8194 725.264563 563.917521L725.264563 564.224714C725.264563 565.322835 725.064159 566.158553 724.687843 566.862203 724.311527 567.565853 723.759299 568.118082 723.055649 568.494398 722.351999 568.870714 721.516281 569.071118 720.418159 569.071118L654.943491 569.071118C653.84537 569.071118 653.009652 568.870714 652.306002 568.494398 651.602352 568.118082 651.050123 567.565853 650.673807 566.862203 650.297491 566.158553 650.097087 565.322835 650.097087 564.224714L650.097087 563.917521C650.097087 562.8194 650.297491 561.983682 650.673807 561.280032 651.050123 560.576382 651.602352 560.024153 652.306002 559.647837 653.009652 559.271521 653.84537 559.071118 654.943491 559.071118zM208.001743 593.236575L452.253111 593.236575C453.351232 593.236575 454.18695 593.436978 454.8906 593.813294 455.59425 594.189611 456.146479 594.741839 456.522795 595.445489 456.899111 596.149139 457.099515 596.984857 457.099515 598.082978L457.099515 598.390171C457.099515 599.488292 456.899111 600.32401 456.522795 601.02766 456.146479 601.73131 455.59425 602.283539 454.8906 602.659855 454.18695 603.036171 453.351232 603.236575 452.253111 603.236575L208.001743 603.236575C206.903622 603.236575 206.067904 603.036171 205.364254 602.659855 204.660604 602.283539 204.108376 601.73131 203.73206 601.02766 203.355743 600.32401 203.15534 599.488292 203.15534 598.390171L203.15534 598.082978C203.15534 596.984857 203.355743 596.149139 203.73206 595.445489 204.108376 594.741839 204.660604 594.189611 205.364254 593.813294 206.067904 593.436978 206.903622 593.236575 208.001743 593.236575zM291.295433 627.402032L389.274956 627.402032C390.373077 627.402032 391.208795 627.602436 391.912445 627.978752 392.616095 628.355068 393.168323 628.907296 393.544639 629.610946 393.920956 630.314596 394.121359 631.150314 394.121359 632.248436L394.121359 632.555628C394.121359 633.65375 393.920956 634.489468 393.544639 635.193118 393.168323 635.896767 392.616095 636.448996 391.912445 636.825312 391.208795 637.201628 390.373077 637.402032 389.274956 637.402032L291.295433 637.402032C290.197312 637.402032 289.361593 637.201628 288.657944 636.825312 287.954294 636.448996 287.402065 635.896767 287.025749 635.193118 286.649433 634.489468 286.449029 633.65375 286.449029 632.555628L286.449029 632.248436C286.449029 631.150314 286.649433 630.314596 287.025749 629.610946 287.402065 628.907296 287.954294 628.355068 288.657944 627.978752 289.361593 627.602436 290.197312 627.402032 291.295433 627.402032z" opacity=".284"/>
    <path fill="#1851BE" d="M201.907083,627.402032 L226.750684,627.402032 C227.848805,627.402032 228.684523,627.602436 229.388173,627.978752 C230.091823,628.355068 230.644052,628.907296 231.020368,629.610946 C231.396684,630.314596 231.597087,631.150314 231.597087,632.248436 L231.597087,632.555628 C231.597087,633.65375 231.396684,634.489468 231.020368,635.193118 C230.644052,635.896767 230.091823,636.448996 229.388173,636.825312 C228.684523,637.201628 227.848805,637.402032 226.750684,637.402032 L201.907083,637.402032 C200.808962,637.402032 199.973244,637.201628 199.269594,636.825312 C198.565944,636.448996 198.013715,635.896767 197.637399,635.193118 C197.261083,634.489468 197.06068,633.65375 197.06068,632.555628 L197.06068,632.248436 C197.06068,631.150314 197.261083,630.314596 197.637399,629.610946 C198.013715,628.907296 198.565944,628.355068 199.269594,627.978752 C199.973244,627.602436 200.808962,627.402032 201.907083,627.402032 Z"/>
    <path fill="#1851BE" d="M246.601258,627.402032 L271.444859,627.402032 C272.54298,627.402032 273.378698,627.602436 274.082348,627.978752 C274.785998,628.355068 275.338226,628.907296 275.714542,629.610946 C276.090859,630.314596 276.291262,631.150314 276.291262,632.248436 L276.291262,632.555628 C276.291262,633.65375 276.090859,634.489468 275.714542,635.193118 C275.338226,635.896767 274.785998,636.448996 274.082348,636.825312 C273.378698,637.201628 272.54298,637.402032 271.444859,637.402032 L246.601258,637.402032 C245.503137,637.402032 244.667419,637.201628 243.963769,636.825312 C243.260119,636.448996 242.70789,635.896767 242.331574,635.193118 C241.955258,634.489468 241.754854,633.65375 241.754854,632.555628 L241.754854,632.248436 C241.754854,631.150314 241.955258,630.314596 242.331574,629.610946 C242.70789,628.907296 243.260119,628.355068 243.963769,627.978752 C244.667419,627.602436 245.503137,627.402032 246.601258,627.402032 Z" opacity=".542"/>
    <path fill="#1851BE" d="M409.12553,627.402032 L433.96913,627.402032 C435.067252,627.402032 435.90297,627.602436 436.60662,627.978752 C437.31027,628.355068 437.862498,628.907296 438.238814,629.610946 C438.61513,630.314596 438.815534,631.150314 438.815534,632.248436 L438.815534,632.555628 C438.815534,633.65375 438.61513,634.489468 438.238814,635.193118 C437.862498,635.896767 437.31027,636.448996 436.60662,636.825312 C435.90297,637.201628 435.067252,637.402032 433.96913,637.402032 L409.12553,637.402032 C408.027409,637.402032 407.191691,637.201628 406.488041,636.825312 C405.784391,636.448996 405.232162,635.896767 404.855846,635.193118 C404.47953,634.489468 404.279126,633.65375 404.279126,632.555628 L404.279126,632.248436 C404.279126,631.150314 404.47953,630.314596 404.855846,629.610946 C405.232162,628.907296 405.784391,628.355068 406.488041,627.978752 C407.191691,627.602436 408.027409,627.402032 409.12553,627.402032 Z"/>
    <path fill="#8792A2" d="M422.846404 697L488.321072 697C489.419193 697 490.254911 697.200404 490.958561 697.57672 491.662211 697.953036 492.21444 698.505264 492.590756 699.208914 492.967072 699.912564 493.167476 700.748282 493.167476 701.846404L493.167476 702.153596C493.167476 703.251718 492.967072 704.087436 492.590756 704.791086 492.21444 705.494736 491.662211 706.046964 490.958561 706.42328 490.254911 706.799596 489.419193 707 488.321072 707L422.846404 707C421.748282 707 420.912564 706.799596 420.208914 706.42328 419.505264 706.046964 418.953036 705.494736 418.57672 704.791086 418.200404 704.087436 418 703.251718 418 702.153596L418 701.846404C418 700.748282 418.200404 699.912564 418.57672 699.208914 418.953036 698.505264 419.505264 697.953036 420.208914 697.57672 420.912564 697.200404 421.748282 697 422.846404 697zM411.157083 731.451379L655.408451 731.451379C656.506572 731.451379 657.34229 731.651782 658.04594 732.028099 658.74959 732.404415 659.301819 732.956643 659.678135 733.660293 660.054451 734.363943 660.254854 735.199661 660.254854 736.297782L660.254854 736.604975C660.254854 737.703096 660.054451 738.538814 659.678135 739.242464 659.301819 739.946114 658.74959 740.498343 658.04594 740.874659 657.34229 741.250975 656.506572 741.451379 655.408451 741.451379L411.157083 741.451379C410.058962 741.451379 409.223244 741.250975 408.519594 740.874659 407.815944 740.498343 407.263715 739.946114 406.887399 739.242464 406.511083 738.538814 406.31068 737.703096 406.31068 736.604975L406.31068 736.297782C406.31068 735.199661 406.511083 734.363943 406.887399 733.660293 407.263715 732.956643 407.815944 732.404415 408.519594 732.028099 409.223244 731.651782 410.058962 731.451379 411.157083 731.451379z" opacity=".284"/>
    <path fill="#F84F77" d="M100.329413 765.616836L125.173014 765.616836C126.271135 765.616836 127.106853 765.81724 127.810503 766.193556 128.514153 766.569872 129.066382 767.1221 129.442698 767.82575 129.819014 768.5294 130.019417 769.365118 130.019417 770.46324L130.019417 770.770432C130.019417 771.868554 129.819014 772.704272 129.442698 773.407922 129.066382 774.111572 128.514153 774.6638 127.810503 775.040116 127.106853 775.416432 126.271135 775.616836 125.173014 775.616836L100.329413 775.616836C99.2312921 775.616836 98.3955741 775.416432 97.6919241 775.040116 96.9882742 774.6638 96.4360456 774.111572 96.0597294 773.407922 95.6834133 772.704272 95.4830097 771.868554 95.4830097 770.770432L95.4830097 770.46324C95.4830097 769.365118 95.6834133 768.5294 96.0597294 767.82575 96.4360456 767.1221 96.9882742 766.569872 97.6919241 766.193556 98.3955741 765.81724 99.2312921 765.616836 100.329413 765.616836zM145.023588 765.616836L169.867189 765.616836C170.96531 765.616836 171.801028 765.81724 172.504678 766.193556 173.208328 766.569872 173.760556 767.1221 174.136872 767.82575 174.513189 768.5294 174.713592 769.365118 174.713592 770.46324L174.713592 770.770432C174.713592 771.868554 174.513189 772.704272 174.136872 773.407922 173.760556 774.111572 173.208328 774.6638 172.504678 775.040116 171.801028 775.416432 170.96531 775.616836 169.867189 775.616836L145.023588 775.616836C143.925467 775.616836 143.089749 775.416432 142.386099 775.040116 141.682449 774.6638 141.13022 774.111572 140.753904 773.407922 140.377588 772.704272 140.177184 771.868554 140.177184 770.770432L140.177184 770.46324C140.177184 769.365118 140.377588 768.5294 140.753904 767.82575 141.13022 767.1221 141.682449 766.569872 142.386099 766.193556 143.089749 765.81724 143.925467 765.616836 145.023588 765.616836z"/>
    <path fill="#1851BE" d="M307.54786,765.616836 L332.39146,765.616836 C333.489582,765.616836 334.3253,765.81724 335.02895,766.193556 C335.7326,766.569872 336.284828,767.1221 336.661144,767.82575 C337.03746,768.5294 337.237864,769.365118 337.237864,770.46324 L337.237864,770.770432 C337.237864,771.868554 337.03746,772.704272 336.661144,773.407922 C336.284828,774.111572 335.7326,774.6638 335.02895,775.040116 C334.3253,775.416432 333.489582,775.616836 332.39146,775.616836 L307.54786,775.616836 C306.449739,775.616836 305.614021,775.416432 304.910371,775.040116 C304.206721,774.6638 303.654492,774.111572 303.278176,773.407922 C302.90186,772.704272 302.701456,771.868554 302.701456,770.770432 L302.701456,770.46324 C302.701456,769.365118 302.90186,768.5294 303.278176,767.82575 C303.654492,767.1221 304.206721,766.569872 304.910371,766.193556 C305.614021,765.81724 306.449739,765.616836 307.54786,765.616836 Z"/>
    <path fill="#8792A2" d="M279.106112 801.335269L303.949713 801.335269C305.047834 801.335269 305.883552 801.535672 306.587202 801.911988 307.290852 802.288304 307.843081 802.840533 308.219397 803.544183 308.595713 804.247833 308.796117 805.083551 308.796117 806.181672L308.796117 806.488865C308.796117 807.586986 308.595713 808.422704 308.219397 809.126354 307.843081 809.830004 307.290852 810.382233 306.587202 810.758549 305.883552 811.134865 305.047834 811.335269 303.949713 811.335269L279.106112 811.335269C278.007991 811.335269 277.172273 811.134865 276.468623 810.758549 275.764973 810.382233 275.212745 809.830004 274.836428 809.126354 274.460112 808.422704 274.259709 807.586986 274.259709 806.488865L274.259709 806.181672C274.259709 805.083551 274.460112 804.247833 274.836428 803.544183 275.212745 802.840533 275.764973 802.288304 276.468623 801.911988 277.172273 801.535672 278.007991 801.335269 279.106112 801.335269zM323.800287 801.335269L348.643888 801.335269C349.742009 801.335269 350.577727 801.535672 351.281377 801.911988 351.985027 802.288304 352.537255 802.840533 352.913572 803.544183 353.289888 804.247833 353.490291 805.083551 353.490291 806.181672L353.490291 806.488865C353.490291 807.586986 353.289888 808.422704 352.913572 809.126354 352.537255 809.830004 351.985027 810.382233 351.281377 810.758549 350.577727 811.134865 349.742009 811.335269 348.643888 811.335269L323.800287 811.335269C322.702166 811.335269 321.866448 811.134865 321.162798 810.758549 320.459148 810.382233 319.906919 809.830004 319.530603 809.126354 319.154287 808.422704 318.953883 807.586986 318.953883 806.488865L318.953883 806.181672C318.953883 805.083551 319.154287 804.247833 319.530603 803.544183 319.906919 802.840533 320.459148 802.288304 321.162798 801.911988 321.866448 801.535672 322.702166 801.335269 323.800287 801.335269zM368.494462 801.335269L393.338062 801.335269C394.436184 801.335269 395.271902 801.535672 395.975552 801.911988 396.679202 802.288304 397.23143 802.840533 397.607746 803.544183 397.984062 804.247833 398.184466 805.083551 398.184466 806.181672L398.184466 806.488865C398.184466 807.586986 397.984062 808.422704 397.607746 809.126354 397.23143 809.830004 396.679202 810.382233 395.975552 810.758549 395.271902 811.134865 394.436184 811.335269 393.338062 811.335269L368.494462 811.335269C367.396341 811.335269 366.560623 811.134865 365.856973 810.758549 365.153323 810.382233 364.601094 809.830004 364.224778 809.126354 363.848462 808.422704 363.648058 807.586986 363.648058 806.488865L363.648058 806.181672C363.648058 805.083551 363.848462 804.247833 364.224778 803.544183 364.601094 802.840533 365.153323 802.288304 365.856973 801.911988 366.560623 801.535672 367.396341 801.335269 368.494462 801.335269z" opacity=".1"/>
    <path fill="#1851BE" d="M102.360967,869.666183 L108.920587,869.666183 C110.018708,869.666183 110.854426,869.866586 111.558076,870.242903 C112.261726,870.619219 112.813954,871.171447 113.190271,871.875097 C113.566587,872.578747 113.76699,873.414465 113.76699,874.512586 L113.76699,874.819779 C113.76699,875.9179 113.566587,876.753619 113.190271,877.457268 C112.813954,878.160918 112.261726,878.713147 111.558076,879.089463 C110.854426,879.465779 110.018708,879.666183 108.920587,879.666183 L102.360967,879.666183 C101.262845,879.666183 100.427127,879.465779 99.7234775,879.089463 C99.0198276,878.713147 98.467599,878.160918 98.0912828,877.457268 C97.7149667,876.753619 97.5145631,875.9179 97.5145631,874.819779 L97.5145631,874.512586 C97.5145631,873.414465 97.7149667,872.578747 98.0912828,871.875097 C98.467599,871.171447 99.0198276,870.619219 99.7234775,870.242903 C100.427127,869.866586 101.262845,869.666183 102.360967,869.666183 Z" opacity=".3"/>
    <path fill="#1851BE" d="M128.771161,869.666183 L192.214276,869.666183 C193.312397,869.666183 194.148115,869.866586 194.851765,870.242903 C195.555415,870.619219 196.107644,871.171447 196.48396,871.875097 C196.860276,872.578747 197.06068,873.414465 197.06068,874.512586 L197.06068,874.819779 C197.06068,875.9179 196.860276,876.753619 196.48396,877.457268 C196.107644,878.160918 195.555415,878.713147 194.851765,879.089463 C194.148115,879.465779 193.312397,879.666183 192.214276,879.666183 L128.771161,879.666183 C127.67304,879.666183 126.837322,879.465779 126.133672,879.089463 C125.430022,878.713147 124.877793,878.160918 124.501477,877.457268 C124.125161,876.753619 123.924757,875.9179 123.924757,874.819779 L123.924757,874.512586 C123.924757,873.414465 124.125161,872.578747 124.501477,871.875097 C124.877793,871.171447 125.430022,870.619219 126.133672,870.242903 C126.837322,869.866586 127.67304,869.666183 128.771161,869.666183 Z" opacity=".701"/>
    <path fill="#1851BE" d="M102.360967,972.162554 L108.920587,972.162554 C110.018708,972.162554 110.854426,972.362958 111.558076,972.739274 C112.261726,973.11559 112.813954,973.667819 113.190271,974.371469 C113.566587,975.075119 113.76699,975.910837 113.76699,977.008958 L113.76699,977.316151 C113.76699,978.414272 113.566587,979.24999 113.190271,979.95364 C112.813954,980.65729 112.261726,981.209519 111.558076,981.585835 C110.854426,981.962151 110.018708,982.162554 108.920587,982.162554 L102.360967,982.162554 C101.262845,982.162554 100.427127,981.962151 99.7234775,981.585835 C99.0198276,981.209519 98.467599,980.65729 98.0912828,979.95364 C97.7149667,979.24999 97.5145631,978.414272 97.5145631,977.316151 L97.5145631,977.008958 C97.5145631,975.910837 97.7149667,975.075119 98.0912828,974.371469 C98.467599,973.667819 99.0198276,973.11559 99.7234775,972.739274 C100.427127,972.362958 101.262845,972.162554 102.360967,972.162554 Z" opacity=".3"/>
    <path fill="#1851BE" d="M128.771161,972.162554 L192.214276,972.162554 C193.312397,972.162554 194.148115,972.362958 194.851765,972.739274 C195.555415,973.11559 196.107644,973.667819 196.48396,974.371469 C196.860276,975.075119 197.06068,975.910837 197.06068,977.008958 L197.06068,977.316151 C197.06068,978.414272 196.860276,979.24999 196.48396,979.95364 C196.107644,980.65729 195.555415,981.209519 194.851765,981.585835 C194.148115,981.962151 193.312397,982.162554 192.214276,982.162554 L128.771161,982.162554 C127.67304,982.162554 126.837322,981.962151 126.133672,981.585835 C125.430022,981.209519 124.877793,980.65729 124.501477,979.95364 C124.125161,979.24999 123.924757,978.414272 123.924757,977.316151 L123.924757,977.008958 C123.924757,975.910837 124.125161,975.075119 124.501477,974.371469 C124.877793,973.667819 125.430022,973.11559 126.133672,972.739274 C126.837322,972.362958 127.67304,972.162554 128.771161,972.162554 Z" opacity=".701"/>
    <path fill="#1851BE" d="M212.06485 869.666183L218.62447 869.666183C219.722591 869.666183 220.558309 869.866586 221.261959 870.242903 221.965609 870.619219 222.517838 871.171447 222.894154 871.875097 223.27047 872.578747 223.470874 873.414465 223.470874 874.512586L223.470874 874.819779C223.470874 875.9179 223.27047 876.753619 222.894154 877.457268 222.517838 878.160918 221.965609 878.713147 221.261959 879.089463 220.558309 879.465779 219.722591 879.666183 218.62447 879.666183L212.06485 879.666183C210.966729 879.666183 210.131011 879.465779 209.427361 879.089463 208.723711 878.713147 208.171482 878.160918 207.795166 877.457268 207.41885 876.753619 207.218447 875.9179 207.218447 874.819779L207.218447 874.512586C207.218447 873.414465 207.41885 872.578747 207.795166 871.875097 208.171482 871.171447 208.723711 870.619219 209.427361 870.242903 210.131011 869.866586 210.966729 869.666183 212.06485 869.666183zM212.06485 972.162554L218.62447 972.162554C219.722591 972.162554 220.558309 972.362958 221.261959 972.739274 221.965609 973.11559 222.517838 973.667819 222.894154 974.371469 223.27047 975.075119 223.470874 975.910837 223.470874 977.008958L223.470874 977.316151C223.470874 978.414272 223.27047 979.24999 222.894154 979.95364 222.517838 980.65729 221.965609 981.209519 221.261959 981.585835 220.558309 981.962151 219.722591 982.162554 218.62447 982.162554L212.06485 982.162554C210.966729 982.162554 210.131011 981.962151 209.427361 981.585835 208.723711 981.209519 208.171482 980.65729 207.795166 979.95364 207.41885 979.24999 207.218447 978.414272 207.218447 977.316151L207.218447 977.008958C207.218447 975.910837 207.41885 975.075119 207.795166 974.371469 208.171482 973.667819 208.723711 973.11559 209.427361 972.739274 210.131011 972.362958 210.966729 972.162554 212.06485 972.162554z" opacity=".3"/>
    <path fill="#8792A2" d="M238.475044,972.162554 L322.233693,972.162554 C323.331815,972.162554 324.167533,972.362958 324.871183,972.739274 C325.574833,973.11559 326.127061,973.667819 326.503377,974.371469 C326.879693,975.075119 327.080097,975.910837 327.080097,977.008958 L327.080097,977.316151 C327.080097,978.414272 326.879693,979.24999 326.503377,979.95364 C326.127061,980.65729 325.574833,981.209519 324.871183,981.585835 C324.167533,981.962151 323.331815,982.162554 322.233693,982.162554 L238.475044,982.162554 C237.376923,982.162554 236.541205,981.962151 235.837555,981.585835 C235.133905,981.209519 234.581677,980.65729 234.205361,979.95364 C233.829044,979.24999 233.628641,978.414272 233.628641,977.316151 L233.628641,977.008958 C233.628641,975.910837 233.829044,975.075119 234.205361,974.371469 C234.581677,973.667819 235.133905,973.11559 235.837555,972.739274 C236.541205,972.362958 237.376923,972.162554 238.475044,972.162554 Z" opacity=".1"/>
    <path fill="#8792A2" d="M352.242035 765.616836L436.000684 765.616836C437.098805 765.616836 437.934523 765.81724 438.638173 766.193556 439.341823 766.569872 439.894052 767.1221 440.270368 767.82575 440.646684 768.5294 440.847087 769.365118 440.847087 770.46324L440.847087 770.770432C440.847087 771.868554 440.646684 772.704272 440.270368 773.407922 439.894052 774.111572 439.341823 774.6638 438.638173 775.040116 437.934523 775.416432 437.098805 775.616836 436.000684 775.616836L352.242035 775.616836C351.143913 775.616836 350.308195 775.416432 349.604545 775.040116 348.900896 774.6638 348.348667 774.111572 347.972351 773.407922 347.596035 772.704272 347.395631 771.868554 347.395631 770.770432L347.395631 770.46324C347.395631 769.365118 347.596035 768.5294 347.972351 767.82575 348.348667 767.1221 348.900896 766.569872 349.604545 766.193556 350.308195 765.81724 351.143913 765.616836 352.242035 765.616836zM102.360967 903.83164L346.612334 903.83164C347.710455 903.83164 348.546173 904.032044 349.249823 904.40836 349.953473 904.784676 350.505702 905.336905 350.882018 906.040554 351.258334 906.744204 351.458738 907.579922 351.458738 908.678044L351.458738 908.985236C351.458738 910.083358 351.258334 910.919076 350.882018 911.622726 350.505702 912.326376 349.953473 912.878604 349.249823 913.25492 348.546173 913.631236 347.710455 913.83164 346.612334 913.83164L102.360967 913.83164C101.262845 913.83164 100.427127 913.631236 99.7234775 913.25492 99.0198276 912.878604 98.467599 912.326376 98.0912828 911.622726 97.7149667 910.919076 97.5145631 910.083358 97.5145631 908.985236L97.5145631 908.678044C97.5145631 907.579922 97.7149667 906.744204 98.0912828 906.040554 98.467599 905.336905 99.0198276 904.784676 99.7234775 904.40836 100.427127 904.032044 101.262845 903.83164 102.360967 903.83164zM230.348831 316.806967L385.211849 316.806967C386.30997 316.806967 387.145688 317.00737 387.849338 317.383686 388.552988 317.760002 389.105217 318.312231 389.481533 319.015881 389.857849 319.719531 390.058252 320.555249 390.058252 321.65337L390.058252 321.960563C390.058252 323.058684 389.857849 323.894402 389.481533 324.598052 389.105217 325.301702 388.552988 325.853931 387.849338 326.230247 387.145688 326.606563 386.30997 326.806967 385.211849 326.806967L230.348831 326.806967C229.25071 326.806967 228.414992 326.606563 227.711342 326.230247 227.007692 325.853931 226.455463 325.301702 226.079147 324.598052 225.702831 323.894402 225.502427 323.058684 225.502427 321.960563L225.502427 321.65337C225.502427 320.555249 225.702831 319.719531 226.079147 319.015881 226.455463 318.312231 227.007692 317.760002 227.711342 317.383686 228.414992 317.00737 229.25071 316.806967 230.348831 316.806967zM100.329413 350.972424L541.64146 350.972424C542.739582 350.972424 543.5753 351.172827 544.27895 351.549144 544.9826 351.92546 545.534828 352.477688 545.911144 353.181338 546.28746 353.884988 546.487864 354.720706 546.487864 355.818827L546.487864 356.12602C546.487864 357.224141 546.28746 358.059859 545.911144 358.763509 545.534828 359.467159 544.9826 360.019388 544.27895 360.395704 543.5753 360.77202 542.739582 360.972424 541.64146 360.972424L100.329413 360.972424C99.2312921 360.972424 98.3955741 360.77202 97.6919241 360.395704 96.9882742 360.019388 96.4360456 359.467159 96.0597294 358.763509 95.6834133 358.059859 95.4830097 357.224141 95.4830097 356.12602L95.4830097 355.818827C95.4830097 354.720706 95.6834133 353.884988 96.0597294 353.181338 96.4360456 352.477688 96.9882742 351.92546 97.6919241 351.549144 98.3955741 351.172827 99.2312921 350.972424 100.329413 350.972424z" opacity=".284"/>
    <path fill="#8792A2" d="M100.329413,385.137881 L450.221558,385.137881 C451.319679,385.137881 452.155397,385.338285 452.859047,385.714601 C453.562697,386.090917 454.114925,386.643145 454.491241,387.346795 C454.867558,388.050445 455.067961,388.886163 455.067961,389.984285 L455.067961,390.291477 C455.067961,391.389599 454.867558,392.225317 454.491241,392.928967 C454.114925,393.632617 453.562697,394.184845 452.859047,394.561161 C452.155397,394.937477 451.319679,395.137881 450.221558,395.137881 L100.329413,395.137881 C99.2312921,395.137881 98.3955741,394.937477 97.6919241,394.561161 C96.9882742,394.184845 96.4360456,393.632617 96.0597294,392.928967 C95.6834133,392.225317 95.4830097,391.389599 95.4830097,390.291477 L95.4830097,389.984285 C95.4830097,388.886163 95.6834133,388.050445 96.0597294,387.346795 C96.4360456,386.643145 96.9882742,386.090917 97.6919241,385.714601 C98.3955741,385.338285 99.2312921,385.137881 100.329413,385.137881 Z" opacity=".1"/>
    <path fill="#8792A2" d="M214.096404 420.856313L220.656024 420.856313C221.754145 420.856313 222.589863 421.056717 223.293513 421.433033 223.997163 421.809349 224.549391 422.361578 224.925707 423.065228 225.302024 423.768878 225.502427 424.604596 225.502427 425.702717L225.502427 426.00991C225.502427 427.108031 225.302024 427.943749 224.925707 428.647399 224.549391 429.351049 223.997163 429.903278 223.293513 430.279594 222.589863 430.65591 221.754145 430.856313 220.656024 430.856313L214.096404 430.856313C212.998282 430.856313 212.162564 430.65591 211.458914 430.279594 210.755264 429.903278 210.203036 429.351049 209.82672 428.647399 209.450404 427.943749 209.25 427.108031 209.25 426.00991L209.25 425.702717C209.25 424.604596 209.450404 423.768878 209.82672 423.065228 210.203036 422.361578 210.755264 421.809349 211.458914 421.433033 212.162564 421.056717 212.998282 420.856313 214.096404 420.856313zM283.169219 420.856313L289.728839 420.856313C290.82696 420.856313 291.662678 421.056717 292.366328 421.433033 293.069978 421.809349 293.622207 422.361578 293.998523 423.065228 294.374839 423.768878 294.575243 424.604596 294.575243 425.702717L294.575243 426.00991C294.575243 427.108031 294.374839 427.943749 293.998523 428.647399 293.622207 429.351049 293.069978 429.903278 292.366328 430.279594 291.662678 430.65591 290.82696 430.856313 289.728839 430.856313L283.169219 430.856313C282.071098 430.856313 281.23538 430.65591 280.53173 430.279594 279.82808 429.903278 279.275851 429.351049 278.899535 428.647399 278.523219 427.943749 278.322816 427.108031 278.322816 426.00991L278.322816 425.702717C278.322816 424.604596 278.523219 423.768878 278.899535 423.065228 279.275851 422.361578 279.82808 421.809349 280.53173 421.433033 281.23538 421.056717 282.071098 420.856313 283.169219 420.856313zM573.681355 420.856313L580.240975 420.856313C581.339096 420.856313 582.174814 421.056717 582.878464 421.433033 583.582114 421.809349 584.134343 422.361578 584.510659 423.065228 584.886975 423.768878 585.087379 424.604596 585.087379 425.702717L585.087379 426.00991C585.087379 427.108031 584.886975 427.943749 584.510659 428.647399 584.134343 429.351049 583.582114 429.903278 582.878464 430.279594 582.174814 430.65591 581.339096 430.856313 580.240975 430.856313L573.681355 430.856313C572.583234 430.856313 571.747516 430.65591 571.043866 430.279594 570.340216 429.903278 569.787987 429.351049 569.411671 428.647399 569.035355 427.943749 568.834951 427.108031 568.834951 426.00991L568.834951 425.702717C568.834951 424.604596 569.035355 423.768878 569.411671 423.065228 569.787987 422.361578 570.340216 421.809349 571.043866 421.433033 571.747516 421.056717 572.583234 420.856313 573.681355 420.856313z" opacity=".201"/>
    <path fill="#1851BE" d="M128.771161,663.120464 L182.056509,663.120464 C183.15463,663.120464 183.990348,663.320868 184.693998,663.697184 C185.397648,664.0735 185.949877,664.625729 186.326193,665.329379 C186.702509,666.033029 186.902913,666.868747 186.902913,667.966868 L186.902913,668.274061 C186.902913,669.372182 186.702509,670.2079 186.326193,670.91155 C185.949877,671.6152 185.397648,672.167429 184.693998,672.543745 C183.990348,672.920061 183.15463,673.120464 182.056509,673.120464 L128.771161,673.120464 C127.67304,673.120464 126.837322,672.920061 126.133672,672.543745 C125.430022,672.167429 124.877793,671.6152 124.501477,670.91155 C124.125161,670.2079 123.924757,669.372182 123.924757,668.274061 L123.924757,667.966868 C123.924757,666.868747 124.125161,666.033029 124.501477,665.329379 C124.877793,664.625729 125.430022,664.0735 126.133672,663.697184 C126.837322,663.320868 127.67304,663.120464 128.771161,663.120464 Z"/>
    <path fill="#1851BE" d="M100.329413 663.120464L106.889033 663.120464C107.987155 663.120464 108.822873 663.320868 109.526522 663.697184 110.230172 664.0735 110.782401 664.625729 111.158717 665.329379 111.535033 666.033029 111.735437 666.868747 111.735437 667.966868L111.735437 668.274061C111.735437 669.372182 111.535033 670.2079 111.158717 670.91155 110.782401 671.6152 110.230172 672.167429 109.526522 672.543745 108.822873 672.920061 107.987155 673.120464 106.889033 673.120464L100.329413 673.120464C99.2312921 673.120464 98.3955741 672.920061 97.6919241 672.543745 96.9882742 672.167429 96.4360456 671.6152 96.0597294 670.91155 95.6834133 670.2079 95.4830097 669.372182 95.4830097 668.274061L95.4830097 667.966868C95.4830097 666.868747 95.6834133 666.033029 96.0597294 665.329379 96.4360456 664.625729 96.9882742 664.0735 97.6919241 663.697184 98.3955741 663.320868 99.2312921 663.120464 100.329413 663.120464zM201.907083 663.120464L208.466703 663.120464C209.564824 663.120464 210.400542 663.320868 211.104192 663.697184 211.807842 664.0735 212.360071 664.625729 212.736387 665.329379 213.112703 666.033029 213.313107 666.868747 213.313107 667.966868L213.313107 668.274061C213.313107 669.372182 213.112703 670.2079 212.736387 670.91155 212.360071 671.6152 211.807842 672.167429 211.104192 672.543745 210.400542 672.920061 209.564824 673.120464 208.466703 673.120464L201.907083 673.120464C200.808962 673.120464 199.973244 672.920061 199.269594 672.543745 198.565944 672.167429 198.013715 671.6152 197.637399 670.91155 197.261083 670.2079 197.06068 669.372182 197.06068 668.274061L197.06068 667.966868C197.06068 666.868747 197.261083 666.033029 197.637399 665.329379 198.013715 664.625729 198.565944 664.0735 199.269594 663.697184 199.973244 663.320868 200.808962 663.120464 201.907083 663.120464z" opacity=".544"/>
    <path fill="#1851BE" d="M545.239608,697.285922 L598.524956,697.285922 C599.623077,697.285922 600.458795,697.486325 601.162445,697.862641 C601.866095,698.238957 602.418323,698.791186 602.794639,699.494836 C603.170956,700.198486 603.371359,701.034204 603.371359,702.132325 L603.371359,702.439518 C603.371359,703.537639 603.170956,704.373357 602.794639,705.077007 C602.418323,705.780657 601.866095,706.332886 601.162445,706.709202 C600.458795,707.085518 599.623077,707.285922 598.524956,707.285922 L545.239608,707.285922 C544.141486,707.285922 543.305768,707.085518 542.602118,706.709202 C541.898468,706.332886 541.34624,705.780657 540.969924,705.077007 C540.593608,704.373357 540.393204,703.537639 540.393204,702.439518 L540.393204,702.132325 C540.393204,701.034204 540.593608,700.198486 540.969924,699.494836 C541.34624,698.791186 541.898468,698.238957 542.602118,697.862641 C543.305768,697.486325 544.141486,697.285922 545.239608,697.285922 Z"/>
    <path fill="#1851BE" d="M523.846404 697L530.406024 697C531.504145 697 532.339863 697.200404 533.043513 697.57672 533.747163 697.953036 534.299391 698.505264 534.675707 699.208914 535.052024 699.912564 535.252427 700.748282 535.252427 701.846404L535.252427 702.153596C535.252427 703.251718 535.052024 704.087436 534.675707 704.791086 534.299391 705.494736 533.747163 706.046964 533.043513 706.42328 532.339863 706.799596 531.504145 707 530.406024 707L523.846404 707C522.748282 707 521.912564 706.799596 521.208914 706.42328 520.505264 706.046964 519.953036 705.494736 519.57672 704.791086 519.200404 704.087436 519 703.251718 519 702.153596L519 701.846404C519 700.748282 519.200404 699.912564 519.57672 699.208914 519.953036 698.505264 520.505264 697.953036 521.208914 697.57672 521.912564 697.200404 522.748282 697 523.846404 697zM613.37553 697.285922L619.93515 697.285922C621.033271 697.285922 621.868989 697.486325 622.572639 697.862641 623.276289 698.238957 623.828518 698.791186 624.204834 699.494836 624.58115 700.198486 624.781553 701.034204 624.781553 702.132325L624.781553 702.439518C624.781553 703.537639 624.58115 704.373357 624.204834 705.077007 623.828518 705.780657 623.276289 706.332886 622.572639 706.709202 621.868989 707.085518 621.033271 707.285922 619.93515 707.285922L613.37553 707.285922C612.277409 707.285922 611.441691 707.085518 610.738041 706.709202 610.034391 706.332886 609.482162 705.780657 609.105846 705.077007 608.72953 704.373357 608.529126 703.537639 608.529126 702.439518L608.529126 702.132325C608.529126 701.034204 608.72953 700.198486 609.105846 699.494836 609.482162 698.791186 610.034391 698.238957 610.738041 697.862641 611.441691 697.486325 612.277409 697.285922 613.37553 697.285922z" opacity=".544"/>
    <path fill="#8792A2" d="M642.754171,420.856313 L649.313791,420.856313 C650.411912,420.856313 651.24763,421.056717 651.95128,421.433033 C652.65493,421.809349 653.207158,422.361578 653.583474,423.065228 C653.959791,423.768878 654.160194,424.604596 654.160194,425.702717 L654.160194,426.00991 C654.160194,427.108031 653.959791,427.943749 653.583474,428.647399 C653.207158,429.351049 652.65493,429.903278 651.95128,430.279594 C651.24763,430.65591 650.411912,430.856313 649.313791,430.856313 L642.754171,430.856313 C641.656049,430.856313 640.820331,430.65591 640.116681,430.279594 C639.413031,429.903278 638.860803,429.351049 638.484487,428.647399 C638.108171,427.943749 637.907767,427.108031 637.907767,426.00991 L637.907767,425.702717 C637.907767,424.604596 638.108171,423.768878 638.484487,423.065228 C638.860803,422.361578 639.413031,421.809349 640.116681,421.433033 C640.820331,421.056717 641.656049,420.856313 642.754171,420.856313 Z" opacity=".201"/>
  </g>
</svg>
