<svg height="1072" viewBox="0 0 837 1072" width="837" xmlns="http://www.w3.org/2000/svg"><g fill="none" fill-rule="evenodd"><path d="m0 0h837v1072h-837z" fill="#000306"/><path d="m0 .248h837v1072h-837z" fill="#1a1f36"/><path d="m5 30h1c2.76142375 0 5 2.2385763 5 5s-2.23857625 5-5 5h-1c-2.76142375 0-5-2.2385763-5-5s2.23857625-5 5-5zm0-30h1c2.76142375 0 5 2.23857625 5 5s-2.23857625 5-5 5h-1c-2.76142375 0-5-2.23857625-5-5s2.23857625-5 5-5zm0 64.1654572h1c2.76142375 0 5 2.2385762 5 5 0 2.7614237-2.23857625 5-5 5h-1c-2.76142375 0-5-2.2385763-5-5 0-2.7614238 2.23857625-5 5-5zm0 34.1654572h1c2.76142375 0 5 2.2385766 5 4.9999996 0 2.761424-2.23857625 5-5 5h-1c-2.76142375 0-5-2.238576-5-5 0-2.761423 2.23857625-4.9999996 5-4.9999996zm0 35.7184326h1c2.76142375 0 5 2.238576 5 5s-2.23857625 5-5 5h-1c-2.76142375 0-5-2.238576-5-5s2.23857625-5 5-5zm0 34.165457h1c2.76142375 0 5 2.238576 5 5s-2.23857625 5-5 5h-1c-2.76142375 0-5-2.238576-5-5s2.23857625-5 5-5zm0 34.165457h1c2.76142375 0 5 2.238576 5 5s-2.23857625 5-5 5h-1c-2.76142375 0-5-2.238576-5-5s2.23857625-5 5-5zm0 35.718433h1c2.76142375 0 5 2.238576 5 5s-2.23857625 5-5 5h-1c-2.76142375 0-5-2.238576-5-5s2.23857625-5 5-5zm0 34.165457h1c2.76142375 0 5 2.238576 5 5s-2.23857625 5-5 5h-1c-2.76142375 0-5-2.238576-5-5s2.23857625-5 5-5zm0 34.165457h1c2.76142375 0 5 2.238576 5 5s-2.23857625 5-5 5h-1c-2.76142375 0-5-2.238576-5-5s2.23857625-5 5-5zm0 35.718433h1c2.76142375 0 5 2.238576 5 5 0 2.761423-2.23857625 5-5 5h-1c-2.76142375 0-5-2.238577-5-5 0-2.761424 2.23857625-5 5-5zm0 34.165457h1c2.76142375 0 5 2.238576 5 5s-2.23857625 5-5 5h-1c-2.76142375 0-5-2.238576-5-5s2.23857625-5 5-5zm0 34.165457h1c2.76142375 0 5 2.238576 5 5s-2.23857625 5-5 5h-1c-2.76142375 0-5-2.238576-5-5s2.23857625-5 5-5zm0 35.718433h1c2.76142375 0 5 2.238576 5 5 0 2.761423-2.23857625 5-5 5h-1c-2.76142375 0-5-2.238577-5-5 0-2.761424 2.23857625-5 5-5zm0 34.165457h1c2.76142375 0 5 2.238576 5 5 0 2.761423-2.23857625 5-5 5h-1c-2.76142375 0-5-2.238577-5-5 0-2.761424 2.23857625-5 5-5zm0 34.165457h1c2.76142375 0 5 2.238576 5 5s-2.23857625 5-5 5h-1c-2.76142375 0-5-2.238576-5-5s2.23857625-5 5-5zm0 34.165457h1c2.76142375 0 5 2.238576 5 5s-2.23857625 5-5 5h-1c-2.76142375 0-5-2.238576-5-5s2.23857625-5 5-5zm0 35.718433h1c2.76142375 0 5 2.238576 5 5 0 2.761423-2.23857625 5-5 5h-1c-2.76142375 0-5-2.238577-5-5 0-2.761424 2.23857625-5 5-5zm0 34.165457h1c2.76142375 0 5 2.238576 5 5s-2.23857625 5-5 5h-1c-2.76142375 0-5-2.238576-5-5s2.23857625-5 5-5zm0 34.165457h1c2.76142375 0 5 2.238576 5 5s-2.23857625 5-5 5h-1c-2.76142375 0-5-2.238576-5-5s2.23857625-5 5-5zm0 34.165457h1c2.76142375 0 5 2.238576 5 5s-2.23857625 5-5 5h-1c-2.76142375 0-5-2.238576-5-5s2.23857625-5 5-5zm0 35.718433h1c2.76142375 0 5 2.238576 5 5 0 2.761423-2.23857625 5-5 5h-1c-2.76142375 0-5-2.238577-5-5 0-2.761424 2.23857625-5 5-5zm0 34.165457h1c2.76142375 0 5 2.238576 5 5s-2.23857625 5-5 5h-1c-2.76142375 0-5-2.238576-5-5s2.23857625-5 5-5zm0 34.165457h1c2.76142375 0 5 2.238576 5 5s-2.23857625 5-5 5h-1c-2.76142375 0-5-2.238576-5-5s2.23857625-5 5-5zm0 34.165457h1c2.76142375 0 5 2.238576 5 5s-2.23857625 5-5 5h-1c-2.76142375 0-5-2.238576-5-5s2.23857625-5 5-5zm0 34.165457h1c2.76142375 0 5 2.238577 5 5 0 2.761424-2.23857625 5-5 5h-1c-2.76142375 0-5-2.238576-5-5 0-2.761423 2.23857625-5 5-5zm0 34.165458h1c2.76142375 0 5 2.238576 5 5 0 2.761423-2.23857625 5-5 5h-1c-2.76142375 0-5-2.238577-5-5 0-2.761424 2.23857625-5 5-5zm0 34.165457h1c2.76142375 0 5 2.238576 5 5s-2.23857625 5-5 5h-1c-2.76142375 0-5-2.238576-5-5s2.23857625-5 5-5z" fill="#8792a2" opacity=".203" transform="translate(44.694 78.708)"/><path d="m100.329413 78.9898403h154.863018c1.098122 0 1.93384.2004037 2.63749.5767198.703649.3763161 1.255878.9285447 1.632194 1.6321947.376316.7036499.57672 1.5393679.57672 2.6374892v.3071927c0 1.0981213-.200404 1.9338393-.57672 2.6374892-.376316.70365-.928545 1.2558786-1.632194 1.6321947-.70365.3763161-1.539368.5767197-2.63749.5767197h-154.863018c-1.0981209 0-1.9338389-.2004036-2.6374889-.5767197-.7036499-.3763161-1.2558785-.9285447-1.6321947-1.6321947-.3763161-.7036499-.5767197-1.5393679-.5767197-2.6374892v-.3071927c0-1.0981213.2004036-1.9338393.5767197-2.6374892.3763162-.70365.9285448-1.2558786 1.6321947-1.6321947.70365-.3763161 1.539368-.5767198 2.6374889-.5767198z" fill="#f84f77"/><path d="m100.329413 108.708273h57.348455c1.098121 0 1.933839.200403 2.637489.57672.70365.376316 1.255879.928544 1.632195 1.632194s.57672 1.539368.57672 2.637489v.307193c0 1.098121-.200404 1.933839-.57672 2.637489s-.928545 1.255879-1.632195 1.632195-1.539368.57672-2.637489.57672h-57.348455c-1.0981209 0-1.9338389-.200404-2.6374889-.57672-.7036499-.376316-1.2558785-.928545-1.6321947-1.632195-.3763161-.70365-.5767197-1.539368-.5767197-2.637489v-.307193c0-1.098121.2004036-1.933839.5767197-2.637489.3763162-.70365.9285448-1.255878 1.6321947-1.632194.70365-.376317 1.539368-.57672 2.6374889-.57672z" fill="#eff1f6" opacity=".1"/><path d="m80.0138793 0h87.8217557c1.098121 0 1.933839.20040363 2.637489.57671974s1.255879.92854472 1.632195 1.63219467c.376316.70364996.57672 1.53936798.57672 2.63748921v.30719276c0 1.09812123-.200404 1.93383925-.57672 2.63748921-.376316.70364995-.928545 1.25587856-1.632195 1.63219467s-1.539368.57671974-2.637489.57671974h-87.8217557c-1.0981212 0-1.9338392-.20040363-2.6374892-.57671974-.7036499-.37631611-1.2558785-.92854472-1.6321946-1.63219467-.3763161-.70364996-.5767198-1.53936798-.5767198-2.63748921v-.30719276c0-1.09812123.2004037-1.93383925.5767198-2.63748921.3763161-.70364995.9285447-1.25587856 1.6321946-1.63219467.70365-.37631611 1.539368-.57671974 2.6374892-.57671974zm111.7354367 0h87.821756c1.098121 0 1.933839.20040363 2.637489.57671974s1.255879.92854472 1.632195 1.63219467c.376316.70364996.57672 1.53936798.57672 2.63748921v.30719276c0 1.09812123-.200404 1.93383925-.57672 2.63748921-.376316.70364995-.928545 1.25587856-1.632195 1.63219467s-1.539368.57671974-2.637489.57671974h-87.821756c-1.098121 0-1.933839-.20040363-2.637489-.57671974s-1.255879-.92854472-1.632195-1.63219467c-.376316-.70364996-.576719-1.53936798-.576719-2.63748921v-.30719276c0-1.09812123.200403-1.93383925.576719-2.63748921.376316-.70364995.928545-1.25587856 1.632195-1.63219467s1.539368-.57671974 2.637489-.57671974zm-186.90291238 34.1654572h87.82175588c1.0981212 0 1.9338392.2004036 2.6374892.5767197.7036499.3763161 1.2558786.9285447 1.6321947 1.6321947s.5767197 1.539368.5767197 2.6374892v.3071928c0 1.0981212-.2004036 1.9338392-.5767197 2.6374892-.3763161.7036499-.9285448 1.2558785-1.6321947 1.6321946-.70365.3763162-1.539368.5767198-2.6374892.5767198h-87.82175588c-1.09812123 0-1.93383925-.2004036-2.63748921-.5767198-.70364995-.3763161-1.25587856-.9285447-1.63219467-1.6321946-.37631611-.70365-.57671974-1.539368-.57671974-2.6374892v-.3071928c0-1.0981212.20040363-1.9338392.57671974-2.6374892s.92854472-1.2558786 1.63219467-1.6321947c.70364996-.3763161 1.53936798-.5767197 2.63748921-.5767197zm0 104.0493468h230.03049338c1.098122 0 1.93384.200404 2.63749.57672s1.255878.928545 1.632194 1.632194c.376316.70365.57672 1.539368.57672 2.63749v.307192c0 1.098122-.200404 1.93384-.57672 2.63749s-.928544 1.255878-1.632194 1.632194-1.539368.57672-2.63749.57672h-230.03049338c-1.09812123 0-1.93383925-.200404-2.63748921-.57672-.70364995-.376316-1.25587856-.928544-1.63219467-1.632194s-.57671974-1.539368-.57671974-2.63749v-.307192c0-1.098122.20040363-1.93384.57671974-2.63749.37631611-.703649.92854472-1.255878 1.63219467-1.632194.70364996-.376316 1.53936798-.57672 2.63748921-.57672zm247.84951438 0h65.474669c1.098121 0 1.933839.200404 2.637489.57672s1.255878.928545 1.632195 1.632194c.376316.70365.576719 1.539368.576719 2.63749v.307192c0 1.098122-.200403 1.93384-.576719 2.63749-.376317.70365-.928545 1.255878-1.632195 1.632194s-1.539368.57672-2.637489.57672h-65.474669c-1.098121 0-1.933839-.200404-2.637489-.57672s-1.255879-.928544-1.632195-1.632194-.576719-1.539368-.576719-2.63749v-.307192c0-1.098122.200403-1.93384.576719-2.63749.376316-.703649.928545-1.255878 1.632195-1.632194s1.539368-.57672 2.637489-.57672zm83.29369 0h65.474668c1.098121 0 1.933839.200404 2.637489.57672s1.255879.928545 1.632195 1.632194c.376316.70365.57672 1.539368.57672 2.63749v.307192c0 1.098122-.200404 1.93384-.57672 2.63749s-.928545 1.255878-1.632195 1.632194-1.539368.57672-2.637489.57672h-65.474668c-1.098122 0-1.93384-.200404-2.63749-.57672s-1.255878-.928544-1.632194-1.632194-.57672-1.539368-.57672-2.63749v-.307192c0-1.098122.200404-1.93384.57672-2.63749.376316-.703649.928544-1.255878 1.632194-1.632194s1.539368-.57672 2.63749-.57672zm-331.14320438 34.165457h112.20039638c1.098121 0 1.93384.200404 2.637489.57672.70365.376316 1.255879.928545 1.632195 1.632195s.57672 1.539368.57672 2.637489v.307193c0 1.098121-.200404 1.933839-.57672 2.637489s-.928545 1.255878-1.632195 1.632195c-.703649.376316-1.539368.576719-2.637489.576719h-112.20039638c-1.09812123 0-1.93383925-.200403-2.63748921-.576719-.70364995-.376317-1.25587856-.928545-1.63219467-1.632195s-.57671974-1.539368-.57671974-2.637489v-.307193c0-1.098121.20040363-1.933839.57671974-2.637489s.92854472-1.255879 1.63219467-1.632195c.70364996-.376316 1.53936798-.57672 2.63748921-.57672zm40.63106798 243.817127h160.9576784c1.098121 0 1.933839.200403 2.637489.576719s1.255879.928545 1.632195 1.632195.576719 1.539368.576719 2.637489v.307193c0 1.098121-.200403 1.933839-.576719 2.637489s-.928545 1.255879-1.632195 1.632195-1.539368.57672-2.637489.57672h-160.9576784c-1.0981212 0-1.9338393-.200404-2.6374892-.57672-.70365-.376316-1.2558786-.928545-1.6321947-1.632195s-.5767197-1.539368-.5767197-2.637489v-.307193c0-1.098121.2004036-1.933839.5767197-2.637489s.9285447-1.255879 1.6321947-1.632195c.7036499-.376316 1.539368-.576719 2.6374892-.576719zm430.6893204 34.165457h65.474668c1.098122 0 1.93384.200403 2.63749.576719.70365.376317 1.255878.928545 1.632194 1.632195s.57672 1.539368.57672 2.637489v.307193c0 1.098121-.200404 1.933839-.57672 2.637489s-.928544 1.255879-1.632194 1.632195-1.539368.57672-2.63749.57672h-65.474668c-1.098121 0-1.933839-.200404-2.637489-.57672s-1.255879-.928545-1.632195-1.632195-.57672-1.539368-.57672-2.637489v-.307193c0-1.098121.200404-1.933839.57672-2.637489s.928545-1.255878 1.632195-1.632195c.70365-.376316 1.539368-.576719 2.637489-.576719zm-394.8033981 137.928882h232.3071931c1.098121 0 1.933839.200404 2.637489.57672s1.255878.928545 1.632195 1.632195c.376316.70365.576719 1.539368.576719 2.637489v.307193c0 1.098121-.200403 1.933839-.576719 2.637489-.376317.70365-.928545 1.255878-1.632195 1.632194-.70365.376317-1.539368.57672-2.637489.57672h-232.3071931c-1.0981212 0-1.9338392-.200403-2.6374892-.57672-.70365-.376316-1.2558786-.928544-1.6321947-1.632194s-.5767197-1.539368-.5767197-2.637489v-.307193c0-1.098121.2004036-1.933839.5767197-2.637489s.9285447-1.255879 1.6321947-1.632195 1.539368-.57672 2.6374892-.57672zm53.5024271-33.879535h494.132436c1.098121 0 1.933839.200403 2.637489.576719s1.255878.928545 1.632194 1.632195c.376317.70365.57672 1.539368.57672 2.637489v.307193c0 1.098121-.200403 1.933839-.57672 2.637489-.376316.70365-.928544 1.255879-1.632194 1.632195s-1.539368.57672-2.637489.57672h-494.132436c-1.098121 0-1.933839-.200404-2.637489-.57672s-1.255879-.928545-1.632195-1.632195-.57672-1.539368-.57672-2.637489v-.307193c0-1.098121.200404-1.933839.57672-2.637489s.928545-1.255879 1.632195-1.632195 1.539368-.576719 2.637489-.576719zm-130.01941738 68.330914h112.20039638c1.098121 0 1.93384.200404 2.637489.57672.70365.376316 1.255879.928544 1.632195 1.632194s.57672 1.539368.57672 2.63749v.307192c0 1.098122-.200404 1.93384-.57672 2.63749-.376316.703649-.928545 1.255878-1.632195 1.632194-.703649.376316-1.539368.57672-2.637489.57672h-112.20039638c-1.09812123 0-1.93383925-.200404-2.63748921-.57672-.70364995-.376316-1.25587856-.928545-1.63219467-1.632194-.37631611-.70365-.57671974-1.539368-.57671974-2.63749v-.307192c0-1.098122.20040363-1.93384.57671974-2.63749s.92854472-1.255878 1.63219467-1.632194c.70364996-.376316 1.53936798-.57672 2.63748921-.57672zm132.05097038 0h160.957679c1.098121 0 1.933839.200404 2.637489.57672s1.255878.928544 1.632195 1.632194c.376316.70365.576719 1.539368.576719 2.63749v.307192c0 1.098122-.200403 1.93384-.576719 2.63749-.376317.703649-.928545 1.255878-1.632195 1.632194s-1.539368.57672-2.637489.57672h-160.957679c-1.098121 0-1.933839-.200404-2.637489-.57672s-1.255878-.928545-1.632194-1.632194c-.376317-.70365-.57672-1.539368-.57672-2.63749v-.307192c0-1.098122.200403-1.93384.57672-2.63749.376316-.70365.928544-1.255878 1.632194-1.632194s1.539368-.57672 2.637489-.57672zm-42.6626209 34.165457h97.9795229c1.098121 0 1.933839.200404 2.637489.57672s1.255879.928545 1.632195 1.632195.57672 1.539368.57672 2.637489v.307193c0 1.098121-.200404 1.933839-.57672 2.637489s-.928545 1.255878-1.632195 1.632194c-.70365.376317-1.539368.57672-2.637489.57672h-97.9795229c-1.0981212 0-1.9338392-.200403-2.6374892-.57672-.7036499-.376316-1.2558785-.928544-1.6321946-1.632194-.3763162-.70365-.5767198-1.539368-.5767198-2.637489v-.307193c0-1.098121.2004036-1.933839.5767198-2.637489.3763161-.70365.9285447-1.255879 1.6321946-1.632195.70365-.376316 1.539368-.57672 2.6374892-.57672zm-89.38834948 35.718433h160.95767838c1.098121 0 1.933839.200403 2.637489.576719s1.255879.928545 1.632195 1.632195.576719 1.539368.576719 2.637489v.307193c0 1.098121-.200403 1.933839-.576719 2.637489s-.928545 1.255879-1.632195 1.632195-1.539368.57672-2.637489.57672h-160.95767838c-1.09812123 0-1.93383925-.200404-2.63748921-.57672-.70364995-.376316-1.25587856-.928545-1.63219467-1.632195s-.57671974-1.539368-.57671974-2.637489v-.307193c0-1.098121.20040363-1.933839.57671974-2.637489s.92854472-1.255879 1.63219467-1.632195c.70364996-.376316 1.53936798-.576719 2.63748921-.576719zm371.77427138-208.098694h24.843601c1.098121 0 1.933839.200404 2.637489.57672s1.255879.928544 1.632195 1.632194.57672 1.539368.57672 2.63749v.307192c0 1.098121-.200404 1.93384-.57672 2.637489-.376316.70365-.928545 1.255879-1.632195 1.632195s-1.539368.57672-2.637489.57672h-24.843601c-1.098121 0-1.933839-.200404-2.637489-.57672s-1.255878-.928545-1.632194-1.632195c-.376317-.703649-.57672-1.539368-.57672-2.637489v-.307192c0-1.098122.200403-1.93384.57672-2.63749.376316-.70365.928544-1.255878 1.632194-1.632194s1.539368-.57672 2.637489-.57672zm44.694175 0h24.843601c1.098121 0 1.933839.200404 2.637489.57672s1.255879.928544 1.632195 1.632194.576719 1.539368.576719 2.63749v.307192c0 1.098121-.200403 1.93384-.576719 2.637489-.376316.70365-.928545 1.255879-1.632195 1.632195s-1.539368.57672-2.637489.57672h-24.843601c-1.098121 0-1.933839-.200404-2.637489-.57672s-1.255879-.928545-1.632195-1.632195c-.376316-.703649-.576719-1.539368-.576719-2.637489v-.307192c0-1.098122.200403-1.93384.576719-2.63749s.928545-1.255878 1.632195-1.632194 1.539368-.57672 2.637489-.57672zm44.694175 0h24.843601c1.098121 0 1.933839.200404 2.637489.57672s1.255878.928544 1.632194 1.632194c.376317.70365.57672 1.539368.57672 2.63749v.307192c0 1.098121-.200403 1.93384-.57672 2.637489-.376316.70365-.928544 1.255879-1.632194 1.632195s-1.539368.57672-2.637489.57672h-24.843601c-1.098121 0-1.933839-.200404-2.637489-.57672s-1.255879-.928545-1.632195-1.632195c-.376316-.703649-.57672-1.539368-.57672-2.637489v-.307192c0-1.098122.200404-1.93384.57672-2.63749s.928545-1.255878 1.632195-1.632194 1.539368-.57672 2.637489-.57672zm-398.184466 344.760522h112.200397c1.098121 0 1.933839.200404 2.637489.57672s1.255878.928545 1.632194 1.632195c.376317.70365.57672 1.539368.57672 2.637489v.307193c0 1.098121-.200403 1.933839-.57672 2.637489-.376316.70365-.928544 1.255879-1.632194 1.632195s-1.539368.576719-2.637489.576719h-112.200397c-1.0981213 0-1.9338393-.200403-2.6374892-.576719-.70365-.376316-1.2558786-.928545-1.6321947-1.632195s-.5767198-1.539368-.5767198-2.637489v-.307193c0-1.098121.2004037-1.933839.5767198-2.637489s.9285447-1.255879 1.6321947-1.632195c.7036499-.376316 1.5393679-.57672 2.6374892-.57672zm130.019417 0h83.75865c1.098121 0 1.933839.200404 2.637489.57672s1.255878.928545 1.632194 1.632195c.376317.70365.57672 1.539368.57672 2.637489v.307193c0 1.098121-.200403 1.933839-.57672 2.637489-.376316.70365-.928544 1.255879-1.632194 1.632195s-1.539368.576719-2.637489.576719h-83.75865c-1.098121 0-1.933839-.200403-2.637489-.576719s-1.255878-.928545-1.632194-1.632195c-.376317-.70365-.57672-1.539368-.57672-2.637489v-.307193c0-1.098121.200403-1.933839.57672-2.637489.376316-.70365.928544-1.255879 1.632194-1.632195s1.539368-.57672 2.637489-.57672zm103.609224 0h83.758649c1.098121 0 1.933839.200404 2.637489.57672s1.255879.928545 1.632195 1.632195.576719 1.539368.576719 2.637489v.307193c0 1.098121-.200403 1.933839-.576719 2.637489s-.928545 1.255879-1.632195 1.632195-1.539368.576719-2.637489.576719h-83.758649c-1.098121 0-1.93384-.200403-2.637489-.576719-.70365-.376316-1.255879-.928545-1.632195-1.632195s-.57672-1.539368-.57672-2.637489v-.307193c0-1.098121.200404-1.933839.57672-2.637489s.928545-1.255879 1.632195-1.632195c.703649-.376316 1.539368-.57672 2.637489-.57672zm103.609223 0h22.812047c1.098121 0 1.933839.200404 2.637489.57672s1.255879.928545 1.632195 1.632195.57672 1.539368.57672 2.637489v.307193c0 1.098121-.200404 1.933839-.57672 2.637489s-.928545 1.255879-1.632195 1.632195-1.539368.576719-2.637489.576719h-22.812047c-1.098121 0-1.933839-.200403-2.637489-.576719s-1.255879-.928545-1.632195-1.632195-.57672-1.539368-.57672-2.637489v-.307193c0-1.098121.200404-1.933839.57672-2.637489s.928545-1.255879 1.632195-1.632195 1.539368-.57672 2.637489-.57672zm-400.21601938-517.140783h93.91641608c1.0981212 0 1.9338393.200403 2.6374893.576719s1.255878.928545 1.632195 1.632195c.376316.70365.576719 1.539368.576719 2.637489v.307193c0 1.098121-.200403 1.933839-.576719 2.637489-.376317.70365-.928545 1.255879-1.632195 1.632195s-1.5393681.57672-2.6374893.57672h-93.91641608c-1.09812123 0-1.93383925-.200404-2.63748921-.57672-.70364995-.376316-1.25587856-.928545-1.63219467-1.632195s-.57671974-1.539368-.57671974-2.637489v-.307193c0-1.098121.20040363-1.933839.57671974-2.637489s.92854472-1.255879 1.63219467-1.632195c.70364996-.376316 1.53936798-.576719 2.63748921-.576719zm209.25000038 0h244.251367c1.098121 0 1.933839.200403 2.637489.576719s1.255879.928545 1.632195 1.632195.57672 1.539368.57672 2.637489v.307193c0 1.098121-.200404 1.933839-.57672 2.637489s-.928545 1.255879-1.632195 1.632195-1.539368.57672-2.637489.57672h-244.251367c-1.098122 0-1.93384-.200404-2.63749-.57672s-1.255878-.928545-1.632194-1.632195-.57672-1.539368-.57672-2.637489v-.307193c0-1.098121.200404-1.933839.57672-2.637489s.928544-1.255879 1.632194-1.632195 1.539368-.576719 2.63749-.576719zm-209.25000038 34.165457h299.10330938c1.098121 0 1.933839.200403 2.637489.57672.70365.376316 1.255879.928544 1.632195 1.632194s.57672 1.539368.57672 2.637489v.307193c0 1.098121-.200404 1.933839-.57672 2.637489s-.928545 1.255879-1.632195 1.632195-1.539368.57672-2.637489.57672h-299.10330938c-1.09812123 0-1.93383925-.200404-2.63748921-.57672-.70364995-.376316-1.25587856-.928545-1.63219467-1.632195s-.57671974-1.539368-.57671974-2.637489v-.307193c0-1.098121.20040363-1.933839.57671974-2.637489s.92854472-1.255878 1.63219467-1.632194c.70364996-.376317 1.53936798-.57672 2.63748921-.57672z" fill="#8792a2" opacity=".5" transform="translate(95.483 108.708)"/><path d="m99.8464036 697h62.3071924c1.098122 0 1.93384.200404 2.63749.57672s1.255878.928544 1.632194 1.632194.57672 1.539368.57672 2.63749v.307192c0 1.098122-.200404 1.93384-.57672 2.63749s-.928544 1.255878-1.632194 1.632194-1.539368.57672-2.63749.57672h-62.3071924c-1.0981212 0-1.9338392-.200404-2.6374892-.57672-.7036499-.376316-1.2558785-.928544-1.6321947-1.632194-.3763161-.70365-.5767197-1.539368-.5767197-2.63749v-.307192c0-1.098122.2004036-1.93384.5767197-2.63749.3763162-.70365.9285448-1.255878 1.6321947-1.632194.70365-.376316 1.539368-.57672 2.6374892-.57672z" fill="#f84f77"/><path d="m205.97019 142.87373h260.503795c1.098121 0 1.933839.200404 2.637489.57672s1.255878.928545 1.632195 1.632194c.376316.70365.576719 1.539368.576719 2.63749v.307192c0 1.098122-.200403 1.93384-.576719 2.63749-.376317.70365-.928545 1.255878-1.632195 1.632194s-1.539368.57672-2.637489.57672h-260.503795c-1.098121 0-1.933839-.200404-2.637489-.57672s-1.255879-.928544-1.632195-1.632194-.57672-1.539368-.57672-2.63749v-.307192c0-1.098122.200404-1.93384.57672-2.63749.376316-.703649.928545-1.255878 1.632195-1.632194s1.539368-.57672 2.637489-.57672z" fill="#8792a2" opacity=".1"/><path d="m189.717763 177.039187h97.979523c1.098121 0 1.933839.200404 2.637489.57672s1.255878.928545 1.632195 1.632195c.376316.70365.576719 1.539368.576719 2.637489v.307193c0 1.098121-.200403 1.933839-.576719 2.637489-.376317.70365-.928545 1.255878-1.632195 1.632194-.70365.376317-1.539368.57672-2.637489.57672h-97.979523c-1.098121 0-1.933839-.200403-2.637489-.57672-.70365-.376316-1.255879-.928544-1.632195-1.632194s-.57672-1.539368-.57672-2.637489v-.307193c0-1.098121.200404-1.933839.57672-2.637489s.928545-1.255879 1.632195-1.632195 1.539368-.57672 2.637489-.57672z" fill="#8792a2" opacity=".284"/><g fill="#1851be"><path d="m100.329413 177.039187h24.843601c1.098121 0 1.933839.200404 2.637489.57672s1.255879.928545 1.632195 1.632195.576719 1.539368.576719 2.637489v.307193c0 1.098121-.200403 1.933839-.576719 2.637489s-.928545 1.255878-1.632195 1.632194c-.70365.376317-1.539368.57672-2.637489.57672h-24.843601c-1.0981209 0-1.9338389-.200403-2.6374889-.57672-.7036499-.376316-1.2558785-.928544-1.6321947-1.632194-.3763161-.70365-.5767197-1.539368-.5767197-2.637489v-.307193c0-1.098121.2004036-1.933839.5767197-2.637489.3763162-.70365.9285448-1.255879 1.6321947-1.632195.70365-.376316 1.539368-.57672 2.6374889-.57672zm28.441748 139.76778h53.285348c1.098121 0 1.933839.200403 2.637489.576719s1.255879.928545 1.632195 1.632195.57672 1.539368.57672 2.637489v.307193c0 1.098121-.200404 1.933839-.57672 2.637489s-.928545 1.255879-1.632195 1.632195-1.539368.57672-2.637489.57672h-53.285348c-1.098121 0-1.933839-.200404-2.637489-.57672s-1.255879-.928545-1.632195-1.632195-.57672-1.539368-.57672-2.637489v-.307193c0-1.098121.200404-1.933839.57672-2.637489s.928545-1.255879 1.632195-1.632195 1.539368-.576719 2.637489-.576719z"/><path d="m100.329413 316.806967h6.55962c1.098122 0 1.93384.200403 2.637489.576719.70365.376316 1.255879.928545 1.632195 1.632195s.57672 1.539368.57672 2.637489v.307193c0 1.098121-.200404 1.933839-.57672 2.637489s-.928545 1.255879-1.632195 1.632195c-.703649.376316-1.539367.57672-2.637489.57672h-6.55962c-1.0981209 0-1.9338389-.200404-2.6374889-.57672-.7036499-.376316-1.2558785-.928545-1.6321947-1.632195-.3763161-.70365-.5767197-1.539368-.5767197-2.637489v-.307193c0-1.098121.2004036-1.933839.5767197-2.637489.3763162-.70365.9285448-1.255879 1.6321947-1.632195.70365-.376316 1.539368-.576719 2.6374889-.576719zm101.57767-1.552976h6.55962c1.098121 0 1.933839.200404 2.637489.57672s1.255879.928545 1.632195 1.632195.57672 1.539368.57672 2.637489v.307193c0 1.098121-.200404 1.933839-.57672 2.637489s-.928545 1.255878-1.632195 1.632195c-.70365.376316-1.539368.576719-2.637489.576719h-6.55962c-1.098121 0-1.933839-.200403-2.637489-.576719-.70365-.376317-1.255879-.928545-1.632195-1.632195s-.576719-1.539368-.576719-2.637489v-.307193c0-1.098121.200403-1.933839.576719-2.637489s.928545-1.255879 1.632195-1.632195 1.539368-.57672 2.637489-.57672z" opacity=".544"/><path d="m433.504171 316.806967h53.285348c1.098121 0 1.933839.200403 2.637489.576719s1.255878.928545 1.632195 1.632195c.376316.70365.576719 1.539368.576719 2.637489v.307193c0 1.098121-.200403 1.933839-.576719 2.637489-.376317.70365-.928545 1.255879-1.632195 1.632195s-1.539368.57672-2.637489.57672h-53.285348c-1.098122 0-1.93384-.200404-2.63749-.57672s-1.255878-.928545-1.632194-1.632195-.57672-1.539368-.57672-2.637489v-.307193c0-1.098121.200404-1.933839.57672-2.637489s.928544-1.255879 1.632194-1.632195 1.539368-.576719 2.63749-.576719z"/><path d="m405.062423 316.806967h6.55962c1.098121 0 1.933839.200403 2.637489.576719s1.255879.928545 1.632195 1.632195.57672 1.539368.57672 2.637489v.307193c0 1.098121-.200404 1.933839-.57672 2.637489s-.928545 1.255879-1.632195 1.632195-1.539368.57672-2.637489.57672h-6.55962c-1.098121 0-1.933839-.200404-2.637489-.57672s-1.255879-.928545-1.632195-1.632195-.57672-1.539368-.57672-2.637489v-.307193c0-1.098121.200404-1.933839.57672-2.637489s.928545-1.255879 1.632195-1.632195 1.539368-.576719 2.637489-.576719zm101.57767 0h6.55962c1.098121 0 1.933839.200403 2.637489.576719s1.255879.928545 1.632195 1.632195.57672 1.539368.57672 2.637489v.307193c0 1.098121-.200404 1.933839-.57672 2.637489s-.928545 1.255879-1.632195 1.632195-1.539368.57672-2.637489.57672h-6.55962c-1.098121 0-1.933839-.200404-2.637489-.57672s-1.255879-.928545-1.632195-1.632195-.57672-1.539368-.57672-2.637489v-.307193c0-1.098121.200404-1.933839.57672-2.637489s.928545-1.255879 1.632195-1.632195 1.539368-.576719 2.637489-.576719z" opacity=".544"/><path d="m145.023588 177.039187h24.843601c1.098121 0 1.933839.200404 2.637489.57672s1.255878.928545 1.632194 1.632195c.376317.70365.57672 1.539368.57672 2.637489v.307193c0 1.098121-.200403 1.933839-.57672 2.637489-.376316.70365-.928544 1.255878-1.632194 1.632194-.70365.376317-1.539368.57672-2.637489.57672h-24.843601c-1.098121 0-1.933839-.200403-2.637489-.57672-.70365-.376316-1.255879-.928544-1.632195-1.632194s-.57672-1.539368-.57672-2.637489v-.307193c0-1.098121.200404-1.933839.57672-2.637489s.928545-1.255879 1.632195-1.632195 1.539368-.57672 2.637489-.57672z" opacity=".542"/><path d="m307.54786 177.039187h24.8436c1.098122 0 1.93384.200404 2.63749.57672s1.255878.928545 1.632194 1.632195.57672 1.539368.57672 2.637489v.307193c0 1.098121-.200404 1.933839-.57672 2.637489s-.928544 1.255878-1.632194 1.632194c-.70365.376317-1.539368.57672-2.63749.57672h-24.8436c-1.098121 0-1.933839-.200403-2.637489-.57672-.70365-.376316-1.255879-.928544-1.632195-1.632194s-.57672-1.539368-.57672-2.637489v-.307193c0-1.098121.200404-1.933839.57672-2.637489s.928545-1.255879 1.632195-1.632195 1.539368-.57672 2.637489-.57672z"/></g><path d="m100.329413 212.75762h160.957679c1.098121 0 1.933839.200403 2.637489.576719.70365.376317 1.255878.928545 1.632194 1.632195.376317.70365.57672 1.539368.57672 2.637489v.307193c0 1.098121-.200403 1.933839-.57672 2.637489-.376316.70365-.928544 1.255879-1.632194 1.632195s-1.539368.57672-2.637489.57672h-160.957679c-1.0981209 0-1.9338389-.200404-2.6374889-.57672-.7036499-.376316-1.2558785-.928545-1.6321947-1.632195-.3763161-.70365-.5767197-1.539368-.5767197-2.637489v-.307193c0-1.098121.2004036-1.933839.5767197-2.637489.3763162-.70365.9285448-1.255878 1.6321947-1.632195.70365-.376316 1.539368-.576719 2.6374889-.576719zm178.776699 0h299.10331c1.098121 0 1.933839.200403 2.637489.576719.70365.376317 1.255878.928545 1.632195 1.632195.376316.70365.576719 1.539368.576719 2.637489v.307193c0 1.098121-.200403 1.933839-.576719 2.637489-.376317.70365-.928545 1.255879-1.632195 1.632195s-1.539368.57672-2.637489.57672h-299.10331c-1.098121 0-1.933839-.200404-2.637489-.57672s-1.255878-.928545-1.632195-1.632195c-.376316-.70365-.576719-1.539368-.576719-2.637489v-.307193c0-1.098121.200403-1.933839.576719-2.637489.376317-.70365.928545-1.255878 1.632195-1.632195.70365-.376316 1.539368-.576719 2.637489-.576719zm-46.725728 68.330914h160.957678c1.098122 0 1.93384.200404 2.63749.57672s1.255878.928545 1.632194 1.632195c.376316.703649.57672 1.539367.57672 2.637489v.307192c0 1.098122-.200404 1.93384-.57672 2.63749s-.928544 1.255878-1.632194 1.632194-1.539368.57672-2.63749.57672h-160.957678c-1.098121 0-1.933839-.200404-2.637489-.57672s-1.255879-.928544-1.632195-1.632194-.576719-1.539368-.576719-2.63749v-.307192c0-1.098122.200403-1.93384.576719-2.637489.376316-.70365.928545-1.255879 1.632195-1.632195s1.539368-.57672 2.637489-.57672zm180.808253 0h244.251367c1.098121 0 1.933839.200404 2.637489.57672s1.255879.928545 1.632195 1.632195c.376316.703649.57672 1.539367.57672 2.637489v.307192c0 1.098122-.200404 1.93384-.57672 2.63749s-.928545 1.255878-1.632195 1.632194-1.539368.57672-2.637489.57672h-244.251367c-1.098122 0-1.93384-.200404-2.63749-.57672s-1.255878-.928544-1.632194-1.632194-.57672-1.539368-.57672-2.63749v-.307192c0-1.098122.200404-1.93384.57672-2.637489.376316-.70365.928544-1.255879 1.632194-1.632195s1.539368-.57672 2.63749-.57672zm-223.470874 208.098694h97.979523c1.098121 0 1.933839.200403 2.637489.57672.70365.376316 1.255878.928544 1.632195 1.632194.376316.70365.576719 1.539368.576719 2.637489v.307193c0 1.098121-.200403 1.933839-.576719 2.637489-.376317.70365-.928545 1.255879-1.632195 1.632195s-1.539368.57672-2.637489.57672h-97.979523c-1.098121 0-1.933839-.200404-2.637489-.57672s-1.255879-.928545-1.632195-1.632195-.57672-1.539368-.57672-2.637489v-.307193c0-1.098121.200404-1.933839.57672-2.637489s.928545-1.255878 1.632195-1.632194c.70365-.376317 1.539368-.57672 2.637489-.57672z" fill="#8792a2" opacity=".284"/><path d="m100.329413 489.187228h24.843601c1.098121 0 1.933839.200403 2.637489.57672.70365.376316 1.255879.928544 1.632195 1.632194s.576719 1.539368.576719 2.637489v.307193c0 1.098121-.200403 1.933839-.576719 2.637489s-.928545 1.255879-1.632195 1.632195-1.539368.57672-2.637489.57672h-24.843601c-1.0981209 0-1.9338389-.200404-2.6374889-.57672-.7036499-.376316-1.2558785-.928545-1.6321947-1.632195-.3763161-.70365-.5767197-1.539368-.5767197-2.637489v-.307193c0-1.098121.2004036-1.933839.5767197-2.637489.3763162-.70365.9285448-1.255878 1.6321947-1.632194.70365-.376317 1.539368-.57672 2.6374889-.57672z" fill="#1851be"/><path d="m145.023588 489.187228h24.843601c1.098121 0 1.933839.200403 2.637489.57672.70365.376316 1.255878.928544 1.632194 1.632194.376317.70365.57672 1.539368.57672 2.637489v.307193c0 1.098121-.200403 1.933839-.57672 2.637489-.376316.70365-.928544 1.255879-1.632194 1.632195s-1.539368.57672-2.637489.57672h-24.843601c-1.098121 0-1.933839-.200404-2.637489-.57672s-1.255879-.928545-1.632195-1.632195-.57672-1.539368-.57672-2.637489v-.307193c0-1.098121.200404-1.933839.57672-2.637489s.928545-1.255878 1.632195-1.632194c.70365-.376317 1.539368-.57672 2.637489-.57672z" fill="#1851be" opacity=".542"/><path d="m307.54786 489.187228h24.8436c1.098122 0 1.93384.200403 2.63749.57672.70365.376316 1.255878.928544 1.632194 1.632194s.57672 1.539368.57672 2.637489v.307193c0 1.098121-.200404 1.933839-.57672 2.637489s-.928544 1.255879-1.632194 1.632195-1.539368.57672-2.63749.57672h-24.8436c-1.098121 0-1.933839-.200404-2.637489-.57672s-1.255879-.928545-1.632195-1.632195-.57672-1.539368-.57672-2.637489v-.307193c0-1.098121.200404-1.933839.57672-2.637489s.928545-1.255878 1.632195-1.632194c.70365-.376317 1.539368-.57672 2.637489-.57672z" fill="#1851be"/><path d="m319.73718 524.90566h299.10331c1.098121 0 1.933839.200404 2.637489.57672s1.255878.928545 1.632194 1.632195c.376317.70365.57672 1.539368.57672 2.637489v.307193c0 1.098121-.200403 1.933839-.57672 2.637489-.376316.70365-.928544 1.255879-1.632194 1.632195s-1.539368.576719-2.637489.576719h-299.10331c-1.098121 0-1.933839-.200403-2.637489-.576719s-1.255878-.928545-1.632195-1.632195c-.376316-.70365-.576719-1.539368-.576719-2.637489v-.307193c0-1.098121.200403-1.933839.576719-2.637489.376317-.70365.928545-1.255879 1.632195-1.632195s1.539368-.57672 2.637489-.57672zm4.063107 34.165458h230.030494c1.098121 0 1.933839.200403 2.637489.576719s1.255879.928545 1.632195 1.632195.576719 1.539368.576719 2.637489v.307193c0 1.098121-.200403 1.933839-.576719 2.637489s-.928545 1.255879-1.632195 1.632195-1.539368.57672-2.637489.57672h-230.030494c-1.098121 0-1.933839-.200404-2.637489-.57672s-1.255879-.928545-1.632195-1.632195-.57672-1.539368-.57672-2.637489v-.307193c0-1.098121.200404-1.933839.57672-2.637489s.928545-1.255879 1.632195-1.632195 1.539368-.576719 2.637489-.576719zm331.143204 0h65.474668c1.098122 0 1.93384.200403 2.63749.576719s1.255878.928545 1.632194 1.632195.57672 1.539368.57672 2.637489v.307193c0 1.098121-.200404 1.933839-.57672 2.637489s-.928544 1.255879-1.632194 1.632195-1.539368.57672-2.63749.57672h-65.474668c-1.098121 0-1.933839-.200404-2.637489-.57672s-1.255879-.928545-1.632195-1.632195-.57672-1.539368-.57672-2.637489v-.307193c0-1.098121.200404-1.933839.57672-2.637489s.928545-1.255879 1.632195-1.632195 1.539368-.576719 2.637489-.576719zm-446.941748 34.165457h244.251368c1.098121 0 1.933839.200403 2.637489.576719.70365.376317 1.255879.928545 1.632195 1.632195s.57672 1.539368.57672 2.637489v.307193c0 1.098121-.200404 1.933839-.57672 2.637489s-.928545 1.255879-1.632195 1.632195-1.539368.57672-2.637489.57672h-244.251368c-1.098121 0-1.933839-.200404-2.637489-.57672s-1.255878-.928545-1.632194-1.632195c-.376317-.70365-.57672-1.539368-.57672-2.637489v-.307193c0-1.098121.200403-1.933839.57672-2.637489.376316-.70365.928544-1.255878 1.632194-1.632195.70365-.376316 1.539368-.576719 2.637489-.576719zm83.29369 34.165457h97.979523c1.098121 0 1.933839.200404 2.637489.57672s1.255878.928544 1.632194 1.632194c.376317.70365.57672 1.539368.57672 2.63749v.307192c0 1.098122-.200403 1.93384-.57672 2.63749-.376316.703649-.928544 1.255878-1.632194 1.632194s-1.539368.57672-2.637489.57672h-97.979523c-1.098121 0-1.93384-.200404-2.637489-.57672-.70365-.376316-1.255879-.928545-1.632195-1.632194-.376316-.70365-.57672-1.539368-.57672-2.63749v-.307192c0-1.098122.200404-1.93384.57672-2.63749s.928545-1.255878 1.632195-1.632194c.703649-.376316 1.539368-.57672 2.637489-.57672z" fill="#8792a2" opacity=".284"/><path d="m201.907083 627.402032h24.843601c1.098121 0 1.933839.200404 2.637489.57672s1.255879.928544 1.632195 1.632194.576719 1.539368.576719 2.63749v.307192c0 1.098122-.200403 1.93384-.576719 2.63749-.376316.703649-.928545 1.255878-1.632195 1.632194s-1.539368.57672-2.637489.57672h-24.843601c-1.098121 0-1.933839-.200404-2.637489-.57672s-1.255879-.928545-1.632195-1.632194c-.376316-.70365-.576719-1.539368-.576719-2.63749v-.307192c0-1.098122.200403-1.93384.576719-2.63749s.928545-1.255878 1.632195-1.632194 1.539368-.57672 2.637489-.57672z" fill="#1851be"/><path d="m246.601258 627.402032h24.843601c1.098121 0 1.933839.200404 2.637489.57672s1.255878.928544 1.632194 1.632194c.376317.70365.57672 1.539368.57672 2.63749v.307192c0 1.098122-.200403 1.93384-.57672 2.63749-.376316.703649-.928544 1.255878-1.632194 1.632194s-1.539368.57672-2.637489.57672h-24.843601c-1.098121 0-1.933839-.200404-2.637489-.57672s-1.255879-.928545-1.632195-1.632194c-.376316-.70365-.57672-1.539368-.57672-2.63749v-.307192c0-1.098122.200404-1.93384.57672-2.63749s.928545-1.255878 1.632195-1.632194 1.539368-.57672 2.637489-.57672z" fill="#1851be" opacity=".542"/><path d="m409.12553 627.402032h24.8436c1.098122 0 1.93384.200404 2.63749.57672s1.255878.928544 1.632194 1.632194.57672 1.539368.57672 2.63749v.307192c0 1.098122-.200404 1.93384-.57672 2.63749-.376316.703649-.928544 1.255878-1.632194 1.632194s-1.539368.57672-2.63749.57672h-24.8436c-1.098121 0-1.933839-.200404-2.637489-.57672s-1.255879-.928545-1.632195-1.632194c-.376316-.70365-.57672-1.539368-.57672-2.63749v-.307192c0-1.098122.200404-1.93384.57672-2.63749s.928545-1.255878 1.632195-1.632194 1.539368-.57672 2.637489-.57672z" fill="#1851be"/><path d="m422.846404 697h65.474668c1.098121 0 1.933839.200404 2.637489.57672s1.255879.928544 1.632195 1.632194.57672 1.539368.57672 2.63749v.307192c0 1.098122-.200404 1.93384-.57672 2.63749s-.928545 1.255878-1.632195 1.632194-1.539368.57672-2.637489.57672h-65.474668c-1.098122 0-1.93384-.200404-2.63749-.57672s-1.255878-.928544-1.632194-1.632194-.57672-1.539368-.57672-2.63749v-.307192c0-1.098122.200404-1.93384.57672-2.63749s.928544-1.255878 1.632194-1.632194 1.539368-.57672 2.63749-.57672zm-11.689321 34.451379h244.251368c1.098121 0 1.933839.200403 2.637489.57672.70365.376316 1.255879.928544 1.632195 1.632194s.576719 1.539368.576719 2.637489v.307193c0 1.098121-.200403 1.933839-.576719 2.637489s-.928545 1.255879-1.632195 1.632195-1.539368.57672-2.637489.57672h-244.251368c-1.098121 0-1.933839-.200404-2.637489-.57672s-1.255879-.928545-1.632195-1.632195-.576719-1.539368-.576719-2.637489v-.307193c0-1.098121.200403-1.933839.576719-2.637489s.928545-1.255878 1.632195-1.632194c.70365-.376317 1.539368-.57672 2.637489-.57672z" fill="#8792a2" opacity=".284"/><path d="m100.329413 765.616836h24.843601c1.098121 0 1.933839.200404 2.637489.57672s1.255879.928544 1.632195 1.632194.576719 1.539368.576719 2.63749v.307192c0 1.098122-.200403 1.93384-.576719 2.63749s-.928545 1.255878-1.632195 1.632194-1.539368.57672-2.637489.57672h-24.843601c-1.0981209 0-1.9338389-.200404-2.6374889-.57672-.7036499-.376316-1.2558785-.928544-1.6321947-1.632194-.3763161-.70365-.5767197-1.539368-.5767197-2.63749v-.307192c0-1.098122.2004036-1.93384.5767197-2.63749.3763162-.70365.9285448-1.255878 1.6321947-1.632194.70365-.376316 1.539368-.57672 2.6374889-.57672zm44.694175 0h24.843601c1.098121 0 1.933839.200404 2.637489.57672s1.255878.928544 1.632194 1.632194c.376317.70365.57672 1.539368.57672 2.63749v.307192c0 1.098122-.200403 1.93384-.57672 2.63749-.376316.70365-.928544 1.255878-1.632194 1.632194s-1.539368.57672-2.637489.57672h-24.843601c-1.098121 0-1.933839-.200404-2.637489-.57672s-1.255879-.928544-1.632195-1.632194-.57672-1.539368-.57672-2.63749v-.307192c0-1.098122.200404-1.93384.57672-2.63749s.928545-1.255878 1.632195-1.632194 1.539368-.57672 2.637489-.57672z" fill="#f84f77"/><path d="m307.54786 765.616836h24.8436c1.098122 0 1.93384.200404 2.63749.57672s1.255878.928544 1.632194 1.632194.57672 1.539368.57672 2.63749v.307192c0 1.098122-.200404 1.93384-.57672 2.63749s-.928544 1.255878-1.632194 1.632194-1.539368.57672-2.63749.57672h-24.8436c-1.098121 0-1.933839-.200404-2.637489-.57672s-1.255879-.928544-1.632195-1.632194-.57672-1.539368-.57672-2.63749v-.307192c0-1.098122.200404-1.93384.57672-2.63749s.928545-1.255878 1.632195-1.632194 1.539368-.57672 2.637489-.57672z" fill="#1851be"/><path d="m279.106112 801.335269h24.843601c1.098121 0 1.933839.200403 2.637489.576719s1.255879.928545 1.632195 1.632195.57672 1.539368.57672 2.637489v.307193c0 1.098121-.200404 1.933839-.57672 2.637489s-.928545 1.255879-1.632195 1.632195-1.539368.57672-2.637489.57672h-24.843601c-1.098121 0-1.933839-.200404-2.637489-.57672s-1.255878-.928545-1.632195-1.632195c-.376316-.70365-.576719-1.539368-.576719-2.637489v-.307193c0-1.098121.200403-1.933839.576719-2.637489.376317-.70365.928545-1.255879 1.632195-1.632195s1.539368-.576719 2.637489-.576719zm44.694175 0h24.843601c1.098121 0 1.933839.200403 2.637489.576719s1.255878.928545 1.632195 1.632195c.376316.70365.576719 1.539368.576719 2.637489v.307193c0 1.098121-.200403 1.933839-.576719 2.637489-.376317.70365-.928545 1.255879-1.632195 1.632195s-1.539368.57672-2.637489.57672h-24.843601c-1.098121 0-1.933839-.200404-2.637489-.57672s-1.255879-.928545-1.632195-1.632195-.57672-1.539368-.57672-2.637489v-.307193c0-1.098121.200404-1.933839.57672-2.637489s.928545-1.255879 1.632195-1.632195 1.539368-.576719 2.637489-.576719zm44.694175 0h24.8436c1.098122 0 1.93384.200403 2.63749.576719s1.255878.928545 1.632194 1.632195.57672 1.539368.57672 2.637489v.307193c0 1.098121-.200404 1.933839-.57672 2.637489s-.928544 1.255879-1.632194 1.632195-1.539368.57672-2.63749.57672h-24.8436c-1.098121 0-1.933839-.200404-2.637489-.57672s-1.255879-.928545-1.632195-1.632195-.57672-1.539368-.57672-2.637489v-.307193c0-1.098121.200404-1.933839.57672-2.637489s.928545-1.255879 1.632195-1.632195 1.539368-.576719 2.637489-.576719z" fill="#8792a2" opacity=".1"/><path d="m102.360967 869.666183h6.55962c1.098121 0 1.933839.200403 2.637489.57672.70365.376316 1.255878.928544 1.632195 1.632194.376316.70365.576719 1.539368.576719 2.637489v.307193c0 1.098121-.200403 1.93384-.576719 2.637489-.376317.70365-.928545 1.255879-1.632195 1.632195s-1.539368.57672-2.637489.57672h-6.55962c-1.098122 0-1.93384-.200404-2.6374895-.57672-.7036499-.376316-1.2558785-.928545-1.6321947-1.632195-.3763161-.703649-.5767197-1.539368-.5767197-2.637489v-.307193c0-1.098121.2004036-1.933839.5767197-2.637489.3763162-.70365.9285448-1.255878 1.6321947-1.632194.7036495-.376317 1.5393675-.57672 2.6374895-.57672z" fill="#1851be" opacity=".3"/><path d="m128.771161 869.666183h63.443115c1.098121 0 1.933839.200403 2.637489.57672.70365.376316 1.255879.928544 1.632195 1.632194s.57672 1.539368.57672 2.637489v.307193c0 1.098121-.200404 1.93384-.57672 2.637489-.376316.70365-.928545 1.255879-1.632195 1.632195s-1.539368.57672-2.637489.57672h-63.443115c-1.098121 0-1.933839-.200404-2.637489-.57672s-1.255879-.928545-1.632195-1.632195c-.376316-.703649-.57672-1.539368-.57672-2.637489v-.307193c0-1.098121.200404-1.933839.57672-2.637489s.928545-1.255878 1.632195-1.632194c.70365-.376317 1.539368-.57672 2.637489-.57672z" fill="#1851be" opacity=".701"/><path d="m102.360967 972.162554h6.55962c1.098121 0 1.933839.200404 2.637489.57672s1.255878.928545 1.632195 1.632195c.376316.70365.576719 1.539368.576719 2.637489v.307193c0 1.098121-.200403 1.933839-.576719 2.637489-.376317.70365-.928545 1.255879-1.632195 1.632195s-1.539368.576719-2.637489.576719h-6.55962c-1.098122 0-1.93384-.200403-2.6374895-.576719-.7036499-.376316-1.2558785-.928545-1.6321947-1.632195-.3763161-.70365-.5767197-1.539368-.5767197-2.637489v-.307193c0-1.098121.2004036-1.933839.5767197-2.637489.3763162-.70365.9285448-1.255879 1.6321947-1.632195.7036495-.376316 1.5393675-.57672 2.6374895-.57672z" fill="#1851be" opacity=".3"/><path d="m128.771161 972.162554h63.443115c1.098121 0 1.933839.200404 2.637489.57672s1.255879.928545 1.632195 1.632195.57672 1.539368.57672 2.637489v.307193c0 1.098121-.200404 1.933839-.57672 2.637489s-.928545 1.255879-1.632195 1.632195-1.539368.576719-2.637489.576719h-63.443115c-1.098121 0-1.933839-.200403-2.637489-.576719s-1.255879-.928545-1.632195-1.632195-.57672-1.539368-.57672-2.637489v-.307193c0-1.098121.200404-1.933839.57672-2.637489s.928545-1.255879 1.632195-1.632195 1.539368-.57672 2.637489-.57672z" fill="#1851be" opacity=".701"/><path d="m212.06485 869.666183h6.55962c1.098121 0 1.933839.200403 2.637489.57672.70365.376316 1.255879.928544 1.632195 1.632194s.57672 1.539368.57672 2.637489v.307193c0 1.098121-.200404 1.93384-.57672 2.637489-.376316.70365-.928545 1.255879-1.632195 1.632195s-1.539368.57672-2.637489.57672h-6.55962c-1.098121 0-1.933839-.200404-2.637489-.57672s-1.255879-.928545-1.632195-1.632195c-.376316-.703649-.576719-1.539368-.576719-2.637489v-.307193c0-1.098121.200403-1.933839.576719-2.637489s.928545-1.255878 1.632195-1.632194c.70365-.376317 1.539368-.57672 2.637489-.57672zm0 102.496371h6.55962c1.098121 0 1.933839.200404 2.637489.57672s1.255879.928545 1.632195 1.632195.57672 1.539368.57672 2.637489v.307193c0 1.098121-.200404 1.933839-.57672 2.637489s-.928545 1.255879-1.632195 1.632195-1.539368.576719-2.637489.576719h-6.55962c-1.098121 0-1.933839-.200403-2.637489-.576719s-1.255879-.928545-1.632195-1.632195-.576719-1.539368-.576719-2.637489v-.307193c0-1.098121.200403-1.933839.576719-2.637489s.928545-1.255879 1.632195-1.632195 1.539368-.57672 2.637489-.57672z" fill="#1851be" opacity=".3"/><path d="m238.475044 972.162554h83.758649c1.098122 0 1.93384.200404 2.63749.57672s1.255878.928545 1.632194 1.632195.57672 1.539368.57672 2.637489v.307193c0 1.098121-.200404 1.933839-.57672 2.637489s-.928544 1.255879-1.632194 1.632195-1.539368.576719-2.63749.576719h-83.758649c-1.098121 0-1.933839-.200403-2.637489-.576719s-1.255878-.928545-1.632194-1.632195c-.376317-.70365-.57672-1.539368-.57672-2.637489v-.307193c0-1.098121.200403-1.933839.57672-2.637489.376316-.70365.928544-1.255879 1.632194-1.632195s1.539368-.57672 2.637489-.57672z" fill="#8792a2" opacity=".1"/><path d="m352.242035 765.616836h83.758649c1.098121 0 1.933839.200404 2.637489.57672s1.255879.928544 1.632195 1.632194.576719 1.539368.576719 2.63749v.307192c0 1.098122-.200403 1.93384-.576719 2.63749s-.928545 1.255878-1.632195 1.632194-1.539368.57672-2.637489.57672h-83.758649c-1.098122 0-1.93384-.200404-2.63749-.57672-.703649-.376316-1.255878-.928544-1.632194-1.632194s-.57672-1.539368-.57672-2.63749v-.307192c0-1.098122.200404-1.93384.57672-2.63749s.928545-1.255878 1.632194-1.632194c.70365-.376316 1.539368-.57672 2.63749-.57672zm-249.881068 138.214804h244.251367c1.098121 0 1.933839.200404 2.637489.57672s1.255879.928545 1.632195 1.632194c.376316.70365.57672 1.539368.57672 2.63749v.307192c0 1.098122-.200404 1.93384-.57672 2.63749s-.928545 1.255878-1.632195 1.632194-1.539368.57672-2.637489.57672h-244.251367c-1.098122 0-1.93384-.200404-2.6374895-.57672-.7036499-.376316-1.2558785-.928544-1.6321947-1.632194-.3763161-.70365-.5767197-1.539368-.5767197-2.63749v-.307192c0-1.098122.2004036-1.93384.5767197-2.63749.3763162-.703649.9285448-1.255878 1.6321947-1.632194.7036495-.376316 1.5393675-.57672 2.6374895-.57672zm127.987864-587.024673h154.863018c1.098121 0 1.933839.200403 2.637489.576719s1.255879.928545 1.632195 1.632195.576719 1.539368.576719 2.637489v.307193c0 1.098121-.200403 1.933839-.576719 2.637489s-.928545 1.255879-1.632195 1.632195-1.539368.57672-2.637489.57672h-154.863018c-1.098121 0-1.933839-.200404-2.637489-.57672s-1.255879-.928545-1.632195-1.632195-.57672-1.539368-.57672-2.637489v-.307193c0-1.098121.200404-1.933839.57672-2.637489s.928545-1.255879 1.632195-1.632195 1.539368-.576719 2.637489-.576719zm-130.019418 34.165457h441.312047c1.098122 0 1.93384.200403 2.63749.57672.70365.376316 1.255878.928544 1.632194 1.632194s.57672 1.539368.57672 2.637489v.307193c0 1.098121-.200404 1.933839-.57672 2.637489s-.928544 1.255879-1.632194 1.632195-1.539368.57672-2.63749.57672h-441.312047c-1.0981209 0-1.9338389-.200404-2.6374889-.57672-.7036499-.376316-1.2558785-.928545-1.6321947-1.632195-.3763161-.70365-.5767197-1.539368-.5767197-2.637489v-.307193c0-1.098121.2004036-1.933839.5767197-2.637489.3763162-.70365.9285448-1.255878 1.6321947-1.632194.70365-.376317 1.539368-.57672 2.6374889-.57672z" fill="#8792a2" opacity=".284"/><path d="m100.329413 385.137881h349.892145c1.098121 0 1.933839.200404 2.637489.57672s1.255878.928544 1.632194 1.632194c.376317.70365.57672 1.539368.57672 2.63749v.307192c0 1.098122-.200403 1.93384-.57672 2.63749-.376316.70365-.928544 1.255878-1.632194 1.632194s-1.539368.57672-2.637489.57672h-349.892145c-1.0981209 0-1.9338389-.200404-2.6374889-.57672-.7036499-.376316-1.2558785-.928544-1.6321947-1.632194-.3763161-.70365-.5767197-1.539368-.5767197-2.63749v-.307192c0-1.098122.2004036-1.93384.5767197-2.63749.3763162-.70365.9285448-1.255878 1.6321947-1.632194.70365-.376316 1.539368-.57672 2.6374889-.57672z" fill="#8792a2" opacity=".1"/><path d="m214.096404 420.856313h6.55962c1.098121 0 1.933839.200404 2.637489.57672s1.255878.928545 1.632194 1.632195c.376317.70365.57672 1.539368.57672 2.637489v.307193c0 1.098121-.200403 1.933839-.57672 2.637489-.376316.70365-.928544 1.255879-1.632194 1.632195s-1.539368.576719-2.637489.576719h-6.55962c-1.098122 0-1.93384-.200403-2.63749-.576719s-1.255878-.928545-1.632194-1.632195-.57672-1.539368-.57672-2.637489v-.307193c0-1.098121.200404-1.933839.57672-2.637489s.928544-1.255879 1.632194-1.632195 1.539368-.57672 2.63749-.57672zm69.072815 0h6.55962c1.098121 0 1.933839.200404 2.637489.57672s1.255879.928545 1.632195 1.632195.57672 1.539368.57672 2.637489v.307193c0 1.098121-.200404 1.933839-.57672 2.637489s-.928545 1.255879-1.632195 1.632195-1.539368.576719-2.637489.576719h-6.55962c-1.098121 0-1.933839-.200403-2.637489-.576719s-1.255879-.928545-1.632195-1.632195-.576719-1.539368-.576719-2.637489v-.307193c0-1.098121.200403-1.933839.576719-2.637489s.928545-1.255879 1.632195-1.632195 1.539368-.57672 2.637489-.57672zm290.512136 0h6.55962c1.098121 0 1.933839.200404 2.637489.57672s1.255879.928545 1.632195 1.632195.57672 1.539368.57672 2.637489v.307193c0 1.098121-.200404 1.933839-.57672 2.637489s-.928545 1.255879-1.632195 1.632195-1.539368.576719-2.637489.576719h-6.55962c-1.098121 0-1.933839-.200403-2.637489-.576719s-1.255879-.928545-1.632195-1.632195-.57672-1.539368-.57672-2.637489v-.307193c0-1.098121.200404-1.933839.57672-2.637489s.928545-1.255879 1.632195-1.632195 1.539368-.57672 2.637489-.57672z" fill="#8792a2" opacity=".201"/><path d="m128.771161 663.120464h53.285348c1.098121 0 1.933839.200404 2.637489.57672s1.255879.928545 1.632195 1.632195.57672 1.539368.57672 2.637489v.307193c0 1.098121-.200404 1.933839-.57672 2.637489s-.928545 1.255879-1.632195 1.632195-1.539368.576719-2.637489.576719h-53.285348c-1.098121 0-1.933839-.200403-2.637489-.576719s-1.255879-.928545-1.632195-1.632195-.57672-1.539368-.57672-2.637489v-.307193c0-1.098121.200404-1.933839.57672-2.637489s.928545-1.255879 1.632195-1.632195 1.539368-.57672 2.637489-.57672z" fill="#1851be"/><path d="m100.329413 663.120464h6.55962c1.098122 0 1.93384.200404 2.637489.57672.70365.376316 1.255879.928545 1.632195 1.632195s.57672 1.539368.57672 2.637489v.307193c0 1.098121-.200404 1.933839-.57672 2.637489s-.928545 1.255879-1.632195 1.632195c-.703649.376316-1.539367.576719-2.637489.576719h-6.55962c-1.0981209 0-1.9338389-.200403-2.6374889-.576719-.7036499-.376316-1.2558785-.928545-1.6321947-1.632195-.3763161-.70365-.5767197-1.539368-.5767197-2.637489v-.307193c0-1.098121.2004036-1.933839.5767197-2.637489.3763162-.70365.9285448-1.255879 1.6321947-1.632195.70365-.376316 1.539368-.57672 2.6374889-.57672zm101.57767 0h6.55962c1.098121 0 1.933839.200404 2.637489.57672s1.255879.928545 1.632195 1.632195.57672 1.539368.57672 2.637489v.307193c0 1.098121-.200404 1.933839-.57672 2.637489s-.928545 1.255879-1.632195 1.632195-1.539368.576719-2.637489.576719h-6.55962c-1.098121 0-1.933839-.200403-2.637489-.576719s-1.255879-.928545-1.632195-1.632195-.576719-1.539368-.576719-2.637489v-.307193c0-1.098121.200403-1.933839.576719-2.637489s.928545-1.255879 1.632195-1.632195 1.539368-.57672 2.637489-.57672z" fill="#1851be" opacity=".544"/><path d="m545.239608 697.285922h53.285348c1.098121 0 1.933839.200403 2.637489.576719s1.255878.928545 1.632194 1.632195c.376317.70365.57672 1.539368.57672 2.637489v.307193c0 1.098121-.200403 1.933839-.57672 2.637489-.376316.70365-.928544 1.255879-1.632194 1.632195s-1.539368.57672-2.637489.57672h-53.285348c-1.098122 0-1.93384-.200404-2.63749-.57672s-1.255878-.928545-1.632194-1.632195-.57672-1.539368-.57672-2.637489v-.307193c0-1.098121.200404-1.933839.57672-2.637489s.928544-1.255879 1.632194-1.632195 1.539368-.576719 2.63749-.576719z" fill="#1851be"/><path d="m523.846404 697h6.55962c1.098121 0 1.933839.200404 2.637489.57672s1.255878.928544 1.632194 1.632194c.376317.70365.57672 1.539368.57672 2.63749v.307192c0 1.098122-.200403 1.93384-.57672 2.63749-.376316.70365-.928544 1.255878-1.632194 1.632194s-1.539368.57672-2.637489.57672h-6.55962c-1.098122 0-1.93384-.200404-2.63749-.57672s-1.255878-.928544-1.632194-1.632194-.57672-1.539368-.57672-2.63749v-.307192c0-1.098122.200404-1.93384.57672-2.63749s.928544-1.255878 1.632194-1.632194 1.539368-.57672 2.63749-.57672zm89.529126.285922h6.55962c1.098121 0 1.933839.200403 2.637489.576719s1.255879.928545 1.632195 1.632195.576719 1.539368.576719 2.637489v.307193c0 1.098121-.200403 1.933839-.576719 2.637489s-.928545 1.255879-1.632195 1.632195-1.539368.57672-2.637489.57672h-6.55962c-1.098121 0-1.933839-.200404-2.637489-.57672s-1.255879-.928545-1.632195-1.632195-.57672-1.539368-.57672-2.637489v-.307193c0-1.098121.200404-1.933839.57672-2.637489s.928545-1.255879 1.632195-1.632195 1.539368-.576719 2.637489-.576719z" fill="#1851be" opacity=".544"/><path d="m642.754171 420.856313h6.55962c1.098121 0 1.933839.200404 2.637489.57672s1.255878.928545 1.632194 1.632195c.376317.70365.57672 1.539368.57672 2.637489v.307193c0 1.098121-.200403 1.933839-.57672 2.637489-.376316.70365-.928544 1.255879-1.632194 1.632195s-1.539368.576719-2.637489.576719h-6.55962c-1.098122 0-1.93384-.200403-2.63749-.576719s-1.255878-.928545-1.632194-1.632195-.57672-1.539368-.57672-2.637489v-.307193c0-1.098121.200404-1.933839.57672-2.637489s.928544-1.255879 1.632194-1.632195 1.539368-.57672 2.63749-.57672z" fill="#8792a2" opacity=".201"/></g></svg>