<svg xmlns="http://www.w3.org/2000/svg" xmlns:xlink="http://www.w3.org/1999/xlink" width="611" height="1112" viewBox="0 0 611 1112">
  <defs>
    <linearGradient id="community-mobile-a" x1="50.007%" x2="50.007%" y1="-141.4%" y2="-47.015%">
      <stop offset="0%" stop-color="#2A6CBE"/>
      <stop offset="38.688%" stop-color="#2062BC"/>
      <stop offset="49.182%" stop-color="#1F5FBC"/>
      <stop offset="66.583%" stop-color="#1C5ABD"/>
      <stop offset="85.354%" stop-color="#1956BC"/>
      <stop offset="100%" stop-color="#1851BE"/>
    </linearGradient>
    <linearGradient id="community-mobile-d" x1="50%" x2="50%" y1="0%" y2="100%">
      <stop offset="0%" stop-color="#F1F1F1" stop-opacity=".22"/>
      <stop offset="41.652%" stop-color="#FFF" stop-opacity=".548"/>
      <stop offset="62.476%" stop-color="#ECEEF0" stop-opacity=".28"/>
      <stop offset="100%" stop-color="#8792A2" stop-opacity=".16"/>
    </linearGradient>
    <circle id="community-mobile-c" cx="256" cy="277" r="65"/>
    <filter id="community-mobile-b" width="156%" height="156%" x="-28%" y="-28%" filterUnits="objectBoundingBox">
      <feMorphology in="SourceAlpha" operator="dilate" radius=".375" result="shadowSpreadOuter1"/>
      <feOffset dy="3" in="shadowSpreadOuter1" result="shadowOffsetOuter1"/>
      <feGaussianBlur in="shadowOffsetOuter1" result="shadowBlurOuter1" stdDeviation="7"/>
      <feComposite in="shadowBlurOuter1" in2="SourceAlpha" operator="out" result="shadowBlurOuter1"/>
      <feColorMatrix in="shadowBlurOuter1" result="shadowMatrixOuter1" values="0 0 0 0 0.529411765   0 0 0 0 0.57254902   0 0 0 0 0.635294118  0 0 0 0.282315341 0"/>
      <feMorphology in="SourceAlpha" operator="dilate" radius=".375" result="shadowSpreadOuter2"/>
      <feOffset in="shadowSpreadOuter2" result="shadowOffsetOuter2"/>
      <feGaussianBlur in="shadowOffsetOuter2" result="shadowBlurOuter2" stdDeviation="12"/>
      <feComposite in="shadowBlurOuter2" in2="SourceAlpha" operator="out" result="shadowBlurOuter2"/>
      <feColorMatrix in="shadowBlurOuter2" result="shadowMatrixOuter2" values="0 0 0 0 0.529411765   0 0 0 0 0.57254902   0 0 0 0 0.635294118  0 0 0 0.08 0"/>
      <feMerge>
        <feMergeNode in="shadowMatrixOuter1"/>
        <feMergeNode in="shadowMatrixOuter2"/>
      </feMerge>
    </filter>
    <filter id="community-mobile-e" width="139%" height="139%" x="-19.5%" y="-19.5%" filterUnits="objectBoundingBox">
      <feGaussianBlur in="SourceAlpha" result="shadowBlurInner1" stdDeviation=".5"/>
      <feOffset dy="1" in="shadowBlurInner1" result="shadowOffsetInner1"/>
      <feComposite in="shadowOffsetInner1" in2="SourceAlpha" k2="-1" k3="1" operator="arithmetic" result="shadowInnerInner1"/>
      <feColorMatrix in="shadowInnerInner1" values="0 0 0 0 1   0 0 0 0 1   0 0 0 0 1  0 0 0 0.5 0"/>
    </filter>
  </defs>
  <g fill="none" fill-rule="evenodd">
    <rect width="611" height="1112" fill="#FFF"/>
    <g transform="translate(-1 25)">
      <g transform="translate(21 85)">
        <rect width="161" height="42" x=".964" y=".885" fill="url(#community-mobile-a)" rx="5"/>
        <g fill="#FFF" opacity=".296" transform="translate(27.964 16.885)">
          <rect width="31.88" height="10" rx="5"/>
          <rect width="66.15" height="10" x="39.85" rx="5"/>
        </g>
      </g>
      <rect width="612" height="97" y="237" fill="#ECEEF0"/>
      <g fill="#000306" transform="translate(21 14)">
        <rect width="30" height="5.5" rx="2.75"/>
        <rect width="30" height="5.5" y="11" rx="2.75"/>
      </g>
      <g transform="translate(413 79)">
        <g transform="translate(92.427 .885)">
          <rect width="83.216" height="51.795" x="1.125" y="1.125" stroke="#8792A2" stroke-opacity=".24" stroke-width="2.25" rx="5"/>
          <rect width="18.925" height="12.906" x="15.872" y="20.166" fill="#8792A2" opacity=".176" rx="6.453"/>
          <rect width="29.303" height="12.906" x="37.849" y="20.166" fill="#8792A2" opacity=".176" rx="6.453"/>
        </g>
        <g transform="translate(.427 .885)">
          <rect width="83.216" height="51.795" x="1.125" y="1.125" stroke="#8792A2" stroke-opacity=".24" stroke-width="2.25" rx="5"/>
          <rect width="35.407" height="12.906" x="15.872" y="20.166" fill="#8792A2" opacity=".176" rx="6.453"/>
          <rect width="15.872" height="12.906" x="54.332" y="20.166" fill="#8792A2" opacity=".176" rx="6.453"/>
        </g>
      </g>
      <g transform="translate(21 178)">
        <circle cx="30.464" cy="99.445" r="28.5" fill="#8792A2" opacity=".24"/>
        <g transform="translate(.964 .945)">
          <path fill="#8792A2" d="M127.297888,88.4297521 C130.492924,88.4297521 133.083012,91.0198403 133.083012,94.214876 C133.083012,97.4099118 130.492924,100 127.297888,100 L76.785124,100 C73.5900882,100 71,97.4099118 71,94.214876 C71,91.0198403 73.5900882,88.4297521 76.785124,88.4297521 L127.297888,88.4297521 Z M224.050633,88.4297521 C227.245669,88.4297521 229.835757,91.0198403 229.835757,94.214876 C229.835757,97.4099118 227.245669,100 224.050633,100 L224.050633,100 L146.930865,100 C143.735829,100 141.145741,97.4099118 141.145741,94.214876 C141.145741,91.0198403 143.735829,88.4297521 146.930865,88.4297521 L146.930865,88.4297521 Z M352.248021,72 C355.443057,72 358.033145,74.5900882 358.033145,77.785124 C358.033145,80.9801597 355.443057,83.5702479 352.248021,83.5702479 L76.785124,83.5702479 C73.5900882,83.5702479 71,80.9801597 71,77.785124 C71,74.5900882 73.5900882,72 76.785124,72 L352.248021,72 Z" opacity=".475"/>
          <g transform="translate(.036 .055)">
            <rect width="20.157" height="20.166" x="549.78" y="72" fill="#1851BE" rx="10.078"/>
            <rect width="35.958" height="13.066" x="498" y="75.646" fill="#8792A2" opacity=".164" rx="5"/>
            <rect width="39" height="13.066" fill="#1851BE" rx="6.533"/>
            <rect width="10" height="13.066" x="49" fill="#8792A2" opacity=".164" rx="3"/>
            <rect width="83" height="13.066" x="69" fill="#8792A2" opacity=".164" rx="6.533"/>
            <rect width="39" height="13.066" x="162" fill="#8792A2" opacity=".164" rx="6.533"/>
            <rect width="20.157" height="20.166" x="548.78" y="175.046" fill="#8792A2" opacity=".578" rx="10.078"/>
            <rect width="35.958" height="13.066" x="497" y="178.693" fill="#8792A2" opacity=".164" rx="5"/>
            <rect width="20.157" height="20.166" x="548.78" y="278.092" fill="#1851BE" rx="10.078"/>
            <rect width="35.958" height="13.066" x="497" y="281.739" fill="#8792A2" opacity=".164" rx="5"/>
            <rect width="20.157" height="20.166" x="548.78" y="380.138" fill="#1851BE" rx="10.078"/>
            <rect width="35.958" height="13.066" x="497" y="383.785" fill="#8792A2" opacity=".164" rx="5"/>
            <rect width="20.157" height="20.166" x="548.78" y="484.184" fill="#1851BE" rx="10.078"/>
            <rect width="35.958" height="13.066" x="497" y="487.831" fill="#8792A2" opacity=".164" rx="5"/>
            <rect width="20.157" height="20.166" x="548.78" y="587.23" fill="#8792A2" opacity=".578" rx="10.078"/>
            <rect width="35.958" height="13.066" x="497" y="590.877" fill="#8792A2" opacity=".164" rx="5"/>
            <rect width="20.157" height="20.166" x="548.78" y="689.276" fill="#8792A2" opacity=".578" rx="10.078"/>
            <rect width="35.958" height="13.066" x="497" y="692.923" fill="#8792A2" opacity=".164" rx="5"/>
            <rect width="20.157" height="20.166" x="548.78" y="792.322" fill="#8792A2" opacity=".578" rx="10.078"/>
            <rect width="35.958" height="13.066" x="497" y="795.969" fill="#8792A2" opacity=".164" rx="5"/>
          </g>
        </g>
        <g transform="translate(72.964 126.945)">
          <rect width="34.541" height="8.102" x="23.966" y="4.051" fill="#8792A2" opacity=".158" rx="3"/>
          <rect width="16.066" height="16.204" fill="#F84F77" rx="5"/>
        </g>
      </g>
      <g transform="translate(90.966 407.051)">
        <rect width="16.066" height="16.204" x=".999" y=".94" fill="#1851BE" rx="5"/>
        <rect width="34.541" height="8.102" x="26.964" y="4.991" fill="#8792A2" opacity=".158" rx="3"/>
      </g>
      <g transform="translate(90.966 510.051)">
        <rect width="16.066" height="16.204" x=".999" y=".986" fill="#BCCCEB" rx="5"/>
        <rect width="34.541" height="8.102" x="26.964" y="5.037" fill="#8792A2" opacity=".158" rx="3"/>
      </g>
      <g transform="translate(90.966 613.051)">
        <rect width="16.066" height="16.204" x=".999" y=".032" fill="#512DA8" rx="5"/>
        <rect width="34.541" height="8.102" x="26.964" y="4.083" fill="#8792A2" opacity=".158" rx="3"/>
      </g>
      <g transform="translate(90.966 716.051)">
        <rect width="16.066" height="16.204" x=".999" y=".078" fill="#8369C0" rx="5"/>
        <rect width="34.541" height="8.102" x="26.964" y="4.129" fill="#8792A2" opacity=".158" rx="3"/>
      </g>
      <g transform="translate(90.966 820.051)">
        <rect width="16.066" height="16.204" x=".999" y=".124" fill="#BFE5E1" rx="5"/>
        <rect width="34.541" height="8.102" x="26.964" y="4.175" fill="#8792A2" opacity=".158" rx="3"/>
      </g>
      <g transform="translate(90.966 922.051)">
        <rect width="16.066" height="16.204" x=".999" y=".17" fill="#0E423C" rx="5"/>
        <rect width="34.541" height="8.102" x="26.964" y="4.221" fill="#8792A2" opacity=".158" rx="3"/>
      </g>
      <g fill="#8792A2" transform="translate(90.966 1025.051)">
        <rect width="16.066" height="16.204" x=".999" y=".216" rx="5"/>
        <rect width="34.541" height="8.102" x="26.964" y="4.267" opacity=".158" rx="3"/>
      </g>
      <g transform="translate(21 351)">
        <circle cx="29.464" cy="29.491" r="28.5" fill="#8792A2" opacity=".24"/>
        <path fill="#8792A2" d="M112.736989,16.4297521 C115.932025,16.4297521 118.522113,19.0198403 118.522113,22.214876 C118.522113,25.4099118 115.932025,28 112.736989,28 L5.78512397,28 C2.59008822,28 9.9867262e-14,25.4099118 9.9475983e-14,22.214876 C9.9084704e-14,19.0198403 2.59008822,16.4297521 5.78512397,16.4297521 L112.736989,16.4297521 Z M221.583828,16.4297521 C224.778864,16.4297521 227.368952,19.0198403 227.368952,22.214876 C227.368952,25.4099118 224.778864,28 221.583828,28 L221.583828,28 L132.369966,28 C129.17493,28 126.584842,25.4099118 126.584842,22.214876 C126.584842,19.0198403 129.17493,16.4297521 132.369966,16.4297521 L132.369966,16.4297521 Z M281.248021,0 C284.443057,2.94820126e-14 287.033145,2.59008822 287.033145,5.78512397 C287.033145,8.98015971 284.443057,11.5702479 281.248021,11.5702479 L5.78512397,11.5702479 C2.59008822,11.5702479 3.9127903e-16,8.98015971 0,5.78512397 C-3.9127903e-16,2.59008822 2.59008822,5.86918544e-16 5.78512397,0 L281.248021,0 Z" opacity=".4" transform="translate(70.964 2.991)"/>
      </g>
      <g transform="translate(21 455)">
        <circle cx="29.464" cy="28.537" r="28.5" fill="#8792A2" opacity=".24"/>
        <path fill="#8792A2" d="M56.2978878,16.4297521 C59.4929235,16.4297521 62.0830118,19.0198403 62.0830118,22.214876 C62.0830118,25.4099118 59.4929235,28 56.2978878,28 L5.78512397,28 C2.59008822,28 -6.71102809e-14,25.4099118 -6.75015599e-14,22.214876 C-6.78928389e-14,19.0198403 2.59008822,16.4297521 5.78512397,16.4297521 L56.2978878,16.4297521 Z M153.050633,16.4297521 C156.245669,16.4297521 158.835757,19.0198403 158.835757,22.214876 C158.835757,25.4099118 156.245669,28 153.050633,28 L153.050633,28 L75.9308645,28 C72.7358288,28 70.1457406,25.4099118 70.1457406,22.214876 C70.1457406,19.0198403 72.7358288,16.4297521 75.9308645,16.4297521 L75.9308645,16.4297521 Z M281.248021,0 C284.443057,-2.36327538e-15 287.033145,2.59008822 287.033145,5.78512397 C287.033145,8.98015971 284.443057,11.5702479 281.248021,11.5702479 L5.78512397,11.5702479 C2.59008822,11.5702479 3.9127903e-16,8.98015971 0,5.78512397 C-3.9127903e-16,2.59008822 2.59008822,-3.01259875e-16 5.78512397,0 L281.248021,0 Z" opacity=".4" transform="translate(70.964 2.037)"/>
      </g>
      <g transform="translate(21 557)">
        <circle cx="29.464" cy="28.583" r="28.5" fill="#8792A2" opacity=".24"/>
        <path fill="#8792A2" d="M56.2978878,16.4297521 C59.4929235,16.4297521 62.0830118,19.0198403 62.0830118,22.214876 C62.0830118,25.4099118 59.4929235,28 56.2978878,28 L5.78512397,28 C2.59008822,28 -4.57939988e-14,25.4099118 -4.61852778e-14,22.214876 C-4.65765569e-14,19.0198403 2.59008822,16.4297521 5.78512397,16.4297521 L56.2978878,16.4297521 Z M241.74065,16.4297521 C244.935686,16.4297521 247.525774,19.0198403 247.525774,22.214876 C247.525774,25.4099118 244.935686,28 241.74065,28 L241.74065,28 L75.9308645,28 C72.7358288,28 70.1457406,25.4099118 70.1457406,22.214876 C70.1457406,19.0198403 72.7358288,16.4297521 75.9308645,16.4297521 L75.9308645,16.4297521 Z M227.227738,0 C230.422774,-4.13963222e-15 233.012862,2.59008822 233.012862,5.78512397 C233.012862,8.98015971 230.422774,11.5702479 227.227738,11.5702479 L5.78512397,11.5702479 C2.59008822,11.5702479 3.9127903e-16,8.98015971 0,5.78512397 C-3.9127903e-16,2.59008822 2.59008822,5.86918544e-16 5.78512397,0 L227.227738,0 Z" opacity=".4" transform="translate(70.964 2.083)"/>
      </g>
      <g transform="translate(21 661)">
        <circle cx="29.464" cy="28.629" r="28.5" fill="#8792A2" opacity=".24"/>
        <path fill="#8792A2" d="M56.2978878,16.5217819 C59.4929235,16.5217819 62.0830118,19.1118701 62.0830118,22.3069058 C62.0830118,25.5019416 59.4929235,28.0920298 56.2978878,28.0920298 L5.78512397,28.0920298 C2.59008822,28.0920298 -6.71102809e-14,25.5019416 -6.75015599e-14,22.3069058 C-6.78928389e-14,19.1118701 2.59008822,16.5217819 5.78512397,16.5217819 L56.2978878,16.5217819 Z M153.050633,16.5217819 C156.245669,16.5217819 158.835757,19.1118701 158.835757,22.3069058 C158.835757,25.5019416 156.245669,28.0920298 153.050633,28.0920298 L153.050633,28.0920298 L75.9308645,28.0920298 C72.7358288,28.0920298 70.1457406,25.5019416 70.1457406,22.3069058 C70.1457406,19.1118701 72.7358288,16.5217819 75.9308645,16.5217819 L75.9308645,16.5217819 Z M281.248021,0.0920298165 C284.443057,0.0920298165 287.033145,2.68211804 287.033145,5.87715378 C287.033145,9.07218953 284.443057,11.6622778 281.248021,11.6622778 L5.78512397,11.6622778 C2.59008822,11.6622778 3.9127903e-16,9.07218953 0,5.87715378 C-3.9127903e-16,2.68211804 2.59008822,0.0920298165 5.78512397,0.0920298165 L281.248021,0.0920298165 Z" opacity=".4" transform="translate(70.964 1.129)"/>
      </g>
      <g transform="translate(21 764)">
        <circle cx="29.464" cy="28.675" r="28.5" fill="#8792A2" opacity=".24"/>
        <path fill="#8792A2" d="M104.674261,16.4297521 C107.869296,16.4297521 110.459385,19.0198403 110.459385,22.214876 C110.459385,25.4099118 107.869296,28 104.674261,28 L5.78512397,28 C2.59008822,28 -5.64521398e-14,25.4099118 -5.68434189e-14,22.214876 C-5.72346979e-14,19.0198403 2.59008822,16.4297521 5.78512397,16.4297521 L104.674261,16.4297521 Z M209.489735,16.4297521 C212.684771,16.4297521 215.274859,19.0198403 215.274859,22.214876 C215.274859,25.4099118 212.684771,28 209.489735,28 L209.489735,28 L124.307237,28 C121.112202,28 118.522113,25.4099118 118.522113,22.214876 C118.522113,19.0198403 121.112202,16.4297521 124.307237,16.4297521 L124.307237,16.4297521 Z M252.222198,0 C255.417233,-1.47509696e-15 258.007322,2.59008822 258.007322,5.78512397 C258.007322,8.98015971 255.417233,11.5702479 252.222198,11.5702479 L5.78512397,11.5702479 C2.59008822,11.5702479 3.9127903e-16,8.98015971 0,5.78512397 C-3.9127903e-16,2.59008822 2.59008822,5.86918544e-16 5.78512397,0 L252.222198,0 Z" opacity=".4" transform="translate(70.964 2.175)"/>
      </g>
      <g transform="translate(21 866)">
        <circle cx="29.464" cy="28.721" r="28.5" fill="#8792A2" opacity=".24"/>
        <path fill="#8792A2" d="M56.2978878,16.4297521 C59.4929235,16.4297521 62.0830118,19.0198403 62.0830118,22.214876 C62.0830118,25.4099118 59.4929235,28 56.2978878,28 L5.78512397,28 C2.59008822,28 -6.71102809e-14,25.4099118 -6.75015599e-14,22.214876 C-6.78928389e-14,19.0198403 2.59008822,16.4297521 5.78512397,16.4297521 L56.2978878,16.4297521 Z M153.050633,16.4297521 C156.245669,16.4297521 158.835757,19.0198403 158.835757,22.214876 C158.835757,25.4099118 156.245669,28 153.050633,28 L153.050633,28 L75.9308645,28 C72.7358288,28 70.1457406,25.4099118 70.1457406,22.214876 C70.1457406,19.0198403 72.7358288,16.4297521 75.9308645,16.4297521 L75.9308645,16.4297521 Z M281.248021,0 C284.443057,-2.36327538e-15 287.033145,2.59008822 287.033145,5.78512397 C287.033145,8.98015971 284.443057,11.5702479 281.248021,11.5702479 L5.78512397,11.5702479 C2.59008822,11.5702479 3.9127903e-16,8.98015971 0,5.78512397 C-3.9127903e-16,2.59008822 2.59008822,5.86918544e-16 5.78512397,0 L281.248021,0 Z" opacity=".4" transform="translate(70.964 2.221)"/>
      </g>
      <g transform="translate(21 969)">
        <circle cx="29.464" cy="28.767" r="28.5" fill="#8792A2" opacity=".24"/>
        <path fill="#8792A2" d="M56.2978878,16.4297521 C59.4929235,16.4297521 62.0830118,19.0198403 62.0830118,22.214876 C62.0830118,25.4099118 59.4929235,28 56.2978878,28 L5.78512397,28 C2.59008822,28 -6.71102809e-14,25.4099118 -6.75015599e-14,22.214876 C-6.78928389e-14,19.0198403 2.59008822,16.4297521 5.78512397,16.4297521 L56.2978878,16.4297521 Z M153.050633,16.4297521 C156.245669,16.4297521 158.835757,19.0198403 158.835757,22.214876 C158.835757,25.4099118 156.245669,28 153.050633,28 L153.050633,28 L75.9308645,28 C72.7358288,28 70.1457406,25.4099118 70.1457406,22.214876 C70.1457406,19.0198403 72.7358288,16.4297521 75.9308645,16.4297521 L75.9308645,16.4297521 Z M281.248021,0 C284.443057,-2.36327538e-15 287.033145,2.59008822 287.033145,5.78512397 C287.033145,8.98015971 284.443057,11.5702479 281.248021,11.5702479 L5.78512397,11.5702479 C2.59008822,11.5702479 3.9127903e-16,8.98015971 0,5.78512397 C-3.9127903e-16,2.59008822 2.59008822,-3.01259875e-16 5.78512397,0 L281.248021,0 Z" opacity=".4" transform="translate(70.964 2.267)"/>
      </g>
      <g transform="translate(73.316 .002)">
        <rect width="29" height="26" x="485.684" y="9.998" fill="#8792A2" opacity=".6" rx="10"/>
        <g fill-rule="nonzero" transform="translate(.682)">
          <path fill="#1851BE" d="M127.35494,9.23705556e-14 C142.320087,9.23705556e-14 154.451735,9.40202678 154.451735,21.0000146 C154.451735,32.5980024 142.320087,42.0000292 127.35494,42.0000292 C112.389793,42.0000292 100.258144,32.5980024 100.258144,21.0000146 C100.258144,9.40202678 112.389793,9.23705556e-14 127.35494,9.23705556e-14 Z M129.658663,5.06869506 L129.140085,5.06869506 C128.035516,5.06869506 127.140085,5.96412556 127.140085,7.06869506 L127.140085,7.06869506 L127.141089,15.4254727 C125.313566,14.156743 123.045076,13.4284089 120.514614,13.4284089 C114.055175,13.4284089 109.234,18.2433597 109.234,24.6787266 C109.234,31.1140936 114.055175,35.9290444 120.514614,35.9290444 C124.836037,35.9290444 128.393431,33.8048981 130.295302,30.4926499 L130.295302,30.4926499 L130.42988,30.6281331 C132.437922,32.5942018 135.230059,33.769961 138.422241,33.769961 C144.929377,33.769961 149.704397,28.954352 149.704397,22.5181053 C149.704397,16.0818587 144.929377,11.2662497 138.422241,11.2662497 C135.52065,11.2662497 132.949587,12.2376882 130.997473,13.8910888 C130.878595,13.9917761 130.997473,10.3398978 130.997473,6.81727359 C130.997473,5.60749283 130.103451,5.06869506 129.658663,5.06869506 L129.658663,5.06869506 Z M120.354928,18.5799345 C123.943684,18.5799345 126.467644,21.2477369 126.467644,24.7046077 C126.467644,28.086329 123.943684,30.8292808 120.354928,30.8292808 C116.766172,30.8292808 114.242212,28.086329 114.242212,24.7046077 C114.242212,21.2477369 116.766172,18.5799345 120.354928,18.5799345 Z M138.954448,16.5524564 C142.543204,16.5524564 145.067164,19.2202589 145.067164,22.6771296 C145.067164,26.058851 142.543204,28.8018028 138.954448,28.8018028 C135.365692,28.8018028 132.841732,26.058851 132.841732,22.6771296 C132.841732,19.2202589 135.365692,16.5524564 138.954448,16.5524564 Z M111.329418,7.16843678 L110.005854,7.16843678 C109.596339,7.16843678 109.264362,7.50106345 109.264362,7.91137925 L109.264362,7.91137925 L109.264362,16.6928703 C109.264362,16.7975152 109.297195,16.8995229 109.358234,16.9845213 C109.519309,17.2088194 109.831715,17.2600723 110.056013,17.0989979 L110.056013,17.0989979 L112.43452,15.3909289 C112.826907,15.1091455 113.059567,14.655629 113.059567,14.172546 L113.059567,14.172546 L113.059567,8.9019692 C113.059567,7.94456568 112.284953,7.16843678 111.329418,7.16843678 L111.329418,7.16843678 Z"/>
          <path fill="#040F20" stroke="#040E1F" stroke-width=".275" d="M83.4573712 12.1935569C89.8219332 12.1935569 94.3695912 15.866714 94.6064664 23.0738547L94.6145534 23.4253448 94.6145534 23.4253448C94.6275802 24.4068405 93.842481 25.2130604 92.8609853 25.2260872L76.200266 25.2262222C76.200266 28.1135057 77.7705548 31.4345101 83.7042115 31.4345101 86.734901 31.4345101 89.703657 30.6000482 92.6104796 28.9311244L93.0253326 28.6870533C93.6102087 28.3345466 94.3701075 28.5229192 94.7226142 29.1077953 94.9695449 29.5175005 94.9561591 30.028476 94.6989983 30.4220436L94.6145534 30.5363729 94.6145534 30.5363729C94.1660906 31.0759931 90.0158448 35.2258309 83.7042115 35.2258309 76.8420508 35.2258309 71.8065084 30.3918969 71.8065084 23.6623024 71.8065084 17.1222739 76.5952105 12.1935569 83.4573712 12.1935569zM83.4573712 15.9848777C79.5079262 15.9848777 76.7926828 18.2596702 76.2496341 21.6718589L90.1714277 21.6718589C89.628379 18.2596702 87.209344 15.9848777 83.4573712 15.9848777zM68.4255625 3.38709913C69.5269282 3.38709913 70.4197615 4.27993241 70.4197615 5.38129809L70.4196193 22.6261286C70.4408759 22.9271323 70.4516687 23.2320474 70.4516687 23.5405477 70.4516687 30.2247221 65.3850738 35.2258309 58.5968206 35.2258309 51.7593771 35.2258309 46.7419725 30.2247221 46.7419725 23.5405477 46.7419725 16.8563734 51.7593771 11.8552646 58.5968206 11.8552646 61.6624027 11.8552646 64.3768639 12.8752082 66.4321317 14.6094999L66.4313636 5.38129809C66.4313636 4.27993241 67.3241968 3.38709913 68.4255625 3.38709913zM58.5968206 15.7022714C54.1205086 15.7022714 50.9723332 19.1164899 50.9723332 23.5405477 50.9723332 27.8684304 54.1205086 31.3788241 58.5968206 31.3788241 63.0731325 31.3788241 66.2213079 27.8684304 66.2213079 23.5405477 66.2213079 19.1164899 63.0731325 15.7022714 58.5968206 15.7022714zM34.2097045 12.1935569C40.9979578 12.1935569 46.0645526 17.1222739 46.0645526 23.7096939 46.0645526 30.2971138 40.9979578 35.2258309 34.2097045 35.2258309 27.372261 35.2258309 22.3548564 30.2971138 22.3548564 23.7096939 22.3548564 17.1222739 27.372261 12.1935569 34.2097045 12.1935569zM34.2097045 15.9848777C29.7333926 15.9848777 26.5852171 19.3496749 26.5852171 23.7096939 26.5852171 27.9749298 29.7333926 31.4345101 34.2097045 31.4345101 38.6860164 31.4345101 41.8341919 27.9749298 41.8341919 23.7096939 41.8341919 19.3496749 38.6860164 15.9848777 34.2097045 15.9848777zM11.8463995 12.1935569C18.0399528 12.1935569 21.6774365 16.210814 21.6774365 21.7404502L21.6774365 32.4347381C21.6774365 33.6020875 20.7311129 34.5484111 19.5637636 34.5484111L19.4500906 34.5484111C18.3455211 34.5484111 17.4500906 33.6529806 17.4500906 32.5484111L17.4500906 22.0712831 17.4500906 22.0712831C17.4500906 18.4793827 15.5330384 15.9745047 11.4040029 15.9745047 4.2273459 15.9745047 4.2273459 19.239518 4.2273459 23.2528294L4.2273459 34.5484111 2 34.5484111C.8954305 34.5484111 1.13378019e-13 33.6529806 1.13686838e-13 32.5484111 1.13686838e-13 27.9979658 1.13686838e-13 23.4475205 1.13686838e-13 18.8970752 1.13686838e-13 14.1193933 8.30722624 12.1935569 11.8463995 12.1935569z"/>
        </g>
      </g>
      <use fill="#000" filter="url(#community-mobile-b)" xlink:href="#community-mobile-c"/>
      <use fill="url(#community-mobile-d)" xlink:href="#community-mobile-c"/>
      <use fill="#000" filter="url(#community-mobile-e)" xlink:href="#community-mobile-c"/>
      <use stroke="#FFF" stroke-opacity=".116" stroke-width=".75" xlink:href="#community-mobile-c"/>
    </g>
  </g>
</svg>
