<svg xmlns="http://www.w3.org/2000/svg" width="1124" height="1202" viewBox="0 0 1124 1202">
  <g fill="none" fill-rule="evenodd">
    <rect width="1124" height="1202" fill="#FFF"/>
    <g transform="translate(50 -26)">
      <g fill="#FFF" opacity=".296" transform="translate(34.066 142.78)">
        <rect width="40.036" height="12.716" rx="3"/>
        <rect width="83.074" height="12.716" x="50.045" rx="3"/>
      </g>
      <g transform="translate(.316 .002)">
        <g fill-rule="nonzero" transform="translate(.682 42)">
          <path fill="#1851BE" d="M127.35494,9.23705556e-14 C142.320087,9.23705556e-14 154.451735,9.40202678 154.451735,21.0000146 C154.451735,32.5980024 142.320087,42.0000292 127.35494,42.0000292 C112.389793,42.0000292 100.258144,32.5980024 100.258144,21.0000146 C100.258144,9.40202678 112.389793,9.23705556e-14 127.35494,9.23705556e-14 Z M129.658663,5.06869506 L129.140085,5.06869506 C128.035516,5.06869506 127.140085,5.96412556 127.140085,7.06869506 L127.140085,7.06869506 L127.141089,15.4254727 C125.313566,14.156743 123.045076,13.4284089 120.514614,13.4284089 C114.055175,13.4284089 109.234,18.2433597 109.234,24.6787266 C109.234,31.1140936 114.055175,35.9290444 120.514614,35.9290444 C124.836037,35.9290444 128.393431,33.8048981 130.295302,30.4926499 L130.295302,30.4926499 L130.42988,30.6281331 C132.437922,32.5942018 135.230059,33.769961 138.422241,33.769961 C144.929377,33.769961 149.704397,28.954352 149.704397,22.5181053 C149.704397,16.0818587 144.929377,11.2662497 138.422241,11.2662497 C135.52065,11.2662497 132.949587,12.2376882 130.997473,13.8910888 C130.878595,13.9917761 130.997473,10.3398978 130.997473,6.81727359 C130.997473,5.60749283 130.103451,5.06869506 129.658663,5.06869506 L129.658663,5.06869506 Z M120.354928,18.5799345 C123.943684,18.5799345 126.467644,21.2477369 126.467644,24.7046077 C126.467644,28.086329 123.943684,30.8292808 120.354928,30.8292808 C116.766172,30.8292808 114.242212,28.086329 114.242212,24.7046077 C114.242212,21.2477369 116.766172,18.5799345 120.354928,18.5799345 Z M138.954448,16.5524564 C142.543204,16.5524564 145.067164,19.2202589 145.067164,22.6771296 C145.067164,26.058851 142.543204,28.8018028 138.954448,28.8018028 C135.365692,28.8018028 132.841732,26.058851 132.841732,22.6771296 C132.841732,19.2202589 135.365692,16.5524564 138.954448,16.5524564 Z M111.329418,7.16843678 L110.005854,7.16843678 C109.596339,7.16843678 109.264362,7.50106345 109.264362,7.91137925 L109.264362,7.91137925 L109.264362,16.6928703 C109.264362,16.7975152 109.297195,16.8995229 109.358234,16.9845213 C109.519309,17.2088194 109.831715,17.2600723 110.056013,17.0989979 L110.056013,17.0989979 L112.43452,15.3909289 C112.826907,15.1091455 113.059567,14.655629 113.059567,14.172546 L113.059567,14.172546 L113.059567,8.9019692 C113.059567,7.94456568 112.284953,7.16843678 111.329418,7.16843678 L111.329418,7.16843678 Z"/>
          <path fill="#040F20" stroke="#040E1F" stroke-width=".275" d="M83.4573712 12.1935569C89.8219332 12.1935569 94.3695912 15.866714 94.6064664 23.0738547L94.6145534 23.4253448 94.6145534 23.4253448C94.6275802 24.4068405 93.842481 25.2130604 92.8609853 25.2260872L76.200266 25.2262222C76.200266 28.1135057 77.7705548 31.4345101 83.7042115 31.4345101 86.734901 31.4345101 89.703657 30.6000482 92.6104796 28.9311244L93.0253326 28.6870533C93.6102087 28.3345466 94.3701075 28.5229192 94.7226142 29.1077953 94.9695449 29.5175005 94.9561591 30.028476 94.6989983 30.4220436L94.6145534 30.5363729 94.6145534 30.5363729C94.1660906 31.0759931 90.0158448 35.2258309 83.7042115 35.2258309 76.8420508 35.2258309 71.8065084 30.3918969 71.8065084 23.6623024 71.8065084 17.1222739 76.5952105 12.1935569 83.4573712 12.1935569zM83.4573712 15.9848777C79.5079262 15.9848777 76.7926828 18.2596702 76.2496341 21.6718589L90.1714277 21.6718589C89.628379 18.2596702 87.209344 15.9848777 83.4573712 15.9848777zM68.4255625 3.38709913C69.5269282 3.38709913 70.4197615 4.27993241 70.4197615 5.38129809L70.4196193 22.6261286C70.4408759 22.9271323 70.4516687 23.2320474 70.4516687 23.5405477 70.4516687 30.2247221 65.3850738 35.2258309 58.5968206 35.2258309 51.7593771 35.2258309 46.7419725 30.2247221 46.7419725 23.5405477 46.7419725 16.8563734 51.7593771 11.8552646 58.5968206 11.8552646 61.6624027 11.8552646 64.3768639 12.8752082 66.4321317 14.6094999L66.4313636 5.38129809C66.4313636 4.27993241 67.3241968 3.38709913 68.4255625 3.38709913zM58.5968206 15.7022714C54.1205086 15.7022714 50.9723332 19.1164899 50.9723332 23.5405477 50.9723332 27.8684304 54.1205086 31.3788241 58.5968206 31.3788241 63.0731325 31.3788241 66.2213079 27.8684304 66.2213079 23.5405477 66.2213079 19.1164899 63.0731325 15.7022714 58.5968206 15.7022714zM34.2097045 12.1935569C40.9979578 12.1935569 46.0645526 17.1222739 46.0645526 23.7096939 46.0645526 30.2971138 40.9979578 35.2258309 34.2097045 35.2258309 27.372261 35.2258309 22.3548564 30.2971138 22.3548564 23.7096939 22.3548564 17.1222739 27.372261 12.1935569 34.2097045 12.1935569zM34.2097045 15.9848777C29.7333926 15.9848777 26.5852171 19.3496749 26.5852171 23.7096939 26.5852171 27.9749298 29.7333926 31.4345101 34.2097045 31.4345101 38.6860164 31.4345101 41.8341919 27.9749298 41.8341919 23.7096939 41.8341919 19.3496749 38.6860164 15.9848777 34.2097045 15.9848777zM11.8463995 12.1935569C18.0399528 12.1935569 21.6774365 16.210814 21.6774365 21.7404502L21.6774365 32.4347381C21.6774365 33.6020875 20.7311129 34.5484111 19.5637636 34.5484111L19.4500906 34.5484111C18.3455211 34.5484111 17.4500906 33.6529806 17.4500906 32.5484111L17.4500906 22.0712831 17.4500906 22.0712831C17.4500906 18.4793827 15.5330384 15.9745047 11.4040029 15.9745047 4.2273459 15.9745047 4.2273459 19.239518 4.2273459 23.2528294L4.2273459 34.5484111 2 34.5484111C.8954305 34.5484111 1.13378019e-13 33.6529806 1.13686838e-13 32.5484111 1.13686838e-13 27.9979658 1.13686838e-13 23.4475205 1.13686838e-13 18.8970752 1.13686838e-13 14.1193933 8.30722624 12.1935569 11.8463995 12.1935569z"/>
        </g>
        <g fill="#8792A2" opacity=".499" transform="translate(212.682 49)">
          <rect width="29" height="26" y="4" opacity=".3" rx="10"/>
          <rect width="29" height="26" x="59" y="4" opacity=".3" rx="10"/>
          <rect width="29" height="26" x="295" y="4" opacity=".3" rx="10"/>
          <rect width="29" height="26" x="118" y="4" opacity=".3" rx="10"/>
          <rect width="29" height="26" x="177" y="4" opacity=".3" rx="10"/>
          <rect width="29" height="26" x="354" y="4" opacity=".3" rx="10"/>
          <rect width="29" height="26" x="742.002" y="3.998" opacity=".3" rx="10"/>
          <rect width="29" height="26" x="683.002" y="3.998" opacity=".3" rx="10"/>
          <rect width="29" height="26" x="624.002" y="3.998" opacity=".3" rx="10"/>
          <rect width="32" height="33" x="798.002" y=".998" opacity=".6" rx="16"/>
          <rect width="29" height="26" x="236" y="4" opacity=".3" rx="10"/>
        </g>
        <rect width="16" height="16" x="351.682" y="45" fill="#F84F77" rx="8"/>
        <rect width="16" height="16" x="917.684" y="44.998" fill="#F84F77" rx="8"/>
      </g>
    </g>
    <g transform="translate(31 120)">
      <rect width="58.052" height="46.038" x="439.077" y="220.099" fill="#8792A2" opacity=".322" rx="3"/>
      <rect width="57.051" height="46.038" x="353" y="220.099" fill="#8792A2" opacity=".322" rx="3"/>
      <rect width="58.052" height="46.038" x="439.077" y="339.198" fill="#8792A2" opacity=".322" rx="3"/>
      <rect width="57.051" height="46.038" x="353" y="339.198" fill="#8792A2" opacity=".322" rx="3"/>
      <rect width="58.052" height="46.038" x="439.077" y="458.298" fill="#8792A2" opacity=".322" rx="3"/>
      <rect width="57.051" height="46.038" x="353" y="458.298" fill="#8792A2" opacity=".322" rx="3"/>
      <rect width="58.052" height="46.038" x="439.077" y="597.397" fill="#8792A2" opacity=".322" rx="3"/>
      <rect width="57.051" height="46.038" x="353" y="597.397" fill="#8792A2" opacity=".322" rx="3"/>
      <rect width="58.052" height="46.038" x="439.077" y="727.496" fill="#8792A2" opacity=".322" rx="3"/>
      <rect width="57.051" height="46.038" x="353" y="727.496" fill="#8792A2" opacity=".322" rx="3"/>
      <rect width="58.052" height="46.038" x="439.077" y="846.595" fill="#8792A2" opacity=".322" rx="3"/>
      <rect width="57.051" height="46.038" x="353" y="846.595" fill="#8792A2" opacity=".322" rx="3"/>
      <rect width="58.052" height="46.038" x="439.077" y="965.695" fill="#8792A2" opacity=".322" rx="3"/>
      <rect width="57.051" height="46.038" x="353" y="965.695" fill="#8792A2" opacity=".322" rx="3"/>
      <rect width="57.051" height="10.008" x="353" y="275.146" fill="#ECEEF0" rx="3"/>
      <rect width="57.051" height="10.008" x="440.077" y="275.146" fill="#ECEEF0" rx="3"/>
      <rect width="57.051" height="10.008" x="353" y="394.245" fill="#ECEEF0" rx="3"/>
      <rect width="57.051" height="10.008" x="440.077" y="394.245" fill="#ECEEF0" rx="3"/>
      <rect width="57.051" height="10.008" x="353" y="513.344" fill="#ECEEF0" rx="3"/>
      <rect width="57.051" height="10.008" x="440.077" y="513.344" fill="#ECEEF0" rx="3"/>
      <rect width="57.051" height="10.008" x="353" y="652.444" fill="#ECEEF0" rx="3"/>
      <rect width="57.051" height="10.008" x="440.077" y="652.444" fill="#ECEEF0" rx="3"/>
      <rect width="57.051" height="10.008" x="353" y="782.543" fill="#ECEEF0" rx="3"/>
      <rect width="57.051" height="10.008" x="440.077" y="782.543" fill="#ECEEF0" rx="3"/>
      <rect width="57.051" height="10.008" x="353" y="901.642" fill="#ECEEF0" rx="3"/>
      <rect width="57.051" height="10.008" x="440.077" y="901.642" fill="#ECEEF0" rx="3"/>
      <rect width="57.051" height="10.008" x="353" y="1020.741" fill="#ECEEF0" rx="3"/>
      <rect width="57.051" height="10.008" x="440.077" y="1020.741" fill="#ECEEF0" rx="3"/>
      <rect width="12" height="66" x="520.553" y="219.998" fill="#F84F77" rx="3"/>
      <rect width="12" height="66" x="520.553" y="338.998" fill="#1851BE" rx="3"/>
      <rect width="12" height="66" x="520.553" y="456.998" fill="#BCCCEB" rx="3"/>
      <rect width="12" height="66" x="520.553" y="596.998" fill="#512DA8" rx="3"/>
      <rect width="12" height="66" x="520.553" y="726.998" fill="#8369C0" rx="3"/>
      <rect width="12" height="66" x="520.553" y="845.998" fill="#BFE5E1" rx="3"/>
      <rect width="25.022" height="25.021" x="555.305" y="220.099" fill="#8792A2" opacity=".32" rx="11.5"/>
      <rect width="25.022" height="25.021" x="555.305" y="339.198" fill="#8792A2" opacity=".32" rx="11.5"/>
      <rect width="25.022" height="25.021" x="555.305" y="458.298" fill="#8792A2" opacity=".32" rx="11.5"/>
      <rect width="25.022" height="25.021" x="555.305" y="597.397" fill="#8792A2" opacity=".32" rx="11.5"/>
      <rect width="25.022" height="25.021" x="555.305" y="727.496" fill="#8792A2" opacity=".32" rx="11.5"/>
      <rect width="25.022" height="25.021" x="555.305" y="846.595" fill="#8792A2" opacity=".32" rx="11.5"/>
      <rect width="25.022" height="25.021" x="555.305" y="965.695" fill="#8792A2" opacity=".32" rx="11.5"/>
      <rect width="57.051" height="10.008" x="590.372" y="228.309" fill="#8792A2" opacity=".164" rx="3"/>
      <rect width="124.11" height="10.008" x="555.341" y="251.329" fill="#8792A2" opacity=".164" rx="3"/>
      <rect width="48.043" height="10.008" x="684.456" y="251.329" fill="#8792A2" opacity=".164" rx="3"/>
      <rect width="53.047" height="10.008" x="555.341" y="266.341" fill="#8792A2" opacity=".164" rx="3"/>
      <rect width="57.051" height="10.008" x="590.372" y="347.409" fill="#8792A2" opacity=".164" rx="3"/>
      <rect width="124.11" height="10.008" x="555.341" y="370.428" fill="#8792A2" opacity=".164" rx="3"/>
      <rect width="48.043" height="10.008" x="684.456" y="370.428" fill="#8792A2" opacity=".164" rx="3"/>
      <rect width="53.047" height="10.008" x="555.341" y="385.44" fill="#8792A2" opacity=".164" rx="3"/>
      <rect width="57.051" height="10.008" x="590.372" y="466.508" fill="#8792A2" opacity=".164" rx="3"/>
      <rect width="74.066" height="10.008" x="555.341" y="489.527" fill="#8792A2" opacity=".164" rx="3"/>
      <rect width="98.087" height="10.008" x="634.411" y="489.527" fill="#8792A2" opacity=".164" rx="3"/>
      <rect width="110.098" height="10.008" x="555.341" y="504.523" fill="#8792A2" opacity=".164" rx="3"/>
      <rect width="57.051" height="10.008" x="590.372" y="605.607" fill="#8792A2" opacity=".164" rx="3"/>
      <rect width="102.091" height="10.008" x="555.341" y="628.626" fill="#8792A2" opacity=".164" rx="3"/>
      <rect width="53.047" height="10.008" x="555.341" y="643.639" fill="#8792A2" opacity=".164" rx="3"/>
      <rect width="70.062" height="10.008" x="613.393" y="643.639" fill="#8792A2" opacity=".164" rx="3"/>
      <rect width="57.051" height="10.008" x="590.372" y="735.706" fill="#8792A2" opacity=".164" rx="3"/>
      <rect width="124.11" height="10.008" x="555.341" y="758.726" fill="#8792A2" opacity=".164" rx="3"/>
      <rect width="48.043" height="10.008" x="684.456" y="758.726" fill="#8792A2" opacity=".164" rx="3"/>
      <rect width="53.047" height="10.008" x="555.341" y="773.738" fill="#8792A2" opacity=".164" rx="3"/>
      <rect width="57.051" height="10.008" x="590.372" y="854.806" fill="#8792A2" opacity=".164" rx="3"/>
      <rect width="124.11" height="10.008" x="555.341" y="877.825" fill="#8792A2" opacity=".164" rx="3"/>
      <rect width="53.047" height="10.008" x="555.341" y="892.837" fill="#8792A2" opacity=".164" rx="3"/>
      <rect width="57.051" height="10.008" x="590.372" y="973.905" fill="#8792A2" opacity=".164" rx="3"/>
      <rect width="124.11" height="10.008" x="555.341" y="996.924" fill="#8792A2" opacity=".164" rx="3"/>
      <rect width="53.047" height="10.008" x="555.341" y="1011.937" fill="#8792A2" opacity=".164" rx="3"/>
      <ellipse cx="35.62" cy="253.331" fill="#8792A2" opacity=".24" rx="35.031" ry="35.029"/>
      <path fill="#8792A2" d="M177.552983,244.998332 C181.418976,244.998332 184.552983,248.132339 184.552983,251.998332 C184.552983,255.864325 181.418976,258.998332 177.552983,258.998332 L94.5529831,258.998332 C90.6869898,258.998332 87.5529831,255.864325 87.5529831,251.998332 C87.5529831,248.132339 90.6869898,244.998332 94.5529831,244.998332 L177.552983,244.998332 Z M267.552983,244.998332 C271.418976,244.998332 274.552983,248.132339 274.552983,251.998332 C274.552983,255.864325 271.418976,258.998332 267.552983,258.998332 L267.552983,258.998332 L198.552983,258.998332 C194.68699,258.998332 191.552983,255.864325 191.552983,251.998332 C191.552983,248.132339 194.68699,244.998332 198.552983,244.998332 L198.552983,244.998332 Z" opacity=".4"/>
      <rect width="235" height="15.475" x="87.666" y="220.304" fill="#8792A2" opacity=".4" rx="7.738"/>
      <ellipse cx="35.62" cy="372.43" fill="#8792A2" opacity=".24" rx="35.031" ry="35.029"/>
      <path fill="#8792A2" d="M159.552983,363.998332 C163.418976,363.998332 166.552983,367.132339 166.552983,370.998332 C166.552983,374.864325 163.418976,377.998332 159.552983,377.998332 L94.5529831,377.998332 C90.6869898,377.998332 87.5529831,374.864325 87.5529831,370.998332 C87.5529831,367.132339 90.6869898,363.998332 94.5529831,363.998332 L159.552983,363.998332 Z M286.552983,363.998332 C290.418976,363.998332 293.552983,367.132339 293.552983,370.998332 C293.552983,374.864325 290.418976,377.998332 286.552983,377.998332 L286.552983,377.998332 L181.552983,377.998332 C177.68699,377.998332 174.552983,374.864325 174.552983,370.998332 C174.552983,367.132339 177.68699,363.998332 181.552983,363.998332 L181.552983,363.998332 Z" opacity=".4"/>
      <rect width="180" height="15.475" x="87.666" y="339.403" fill="#8792A2" opacity=".4" rx="7.738"/>
      <ellipse cx="35.62" cy="491.53" fill="#8792A2" opacity=".24" rx="35.031" ry="35.029"/>
      <circle cx="95.553" cy="527.998" r="9" fill="#1851BE"/>
      <rect width="69" height="12" x="109.553" y="521.998" fill="#ECEEF0" rx="5"/>
      <rect width="52" height="12" x="109.553" y="544.998" fill="#ECEEF0" rx="5"/>
      <circle cx="95.553" cy="550.998" r="9" fill="#F84F77"/>
      <circle cx="207.553" cy="527.998" r="9" fill="#BCCCEB"/>
      <rect width="69" height="12" x="221.553" y="544.998" fill="#ECEEF0" rx="5"/>
      <rect width="96" height="12" x="221.553" y="520.998" fill="#ECEEF0" rx="5"/>
      <circle cx="95.553" cy="664.998" r="9" fill="#512DA8"/>
      <rect width="69" height="12" x="109.553" y="658.998" fill="#ECEEF0" rx="5"/>
      <circle cx="207.553" cy="664.998" r="9" fill="#8369C0"/>
      <rect width="64" height="12" x="221.553" y="658.998" fill="#ECEEF0" rx="5"/>
      <circle cx="95.553" cy="903.998" r="9" fill="#BFE5E1"/>
      <rect width="69" height="12" x="109.553" y="897.998" fill="#ECEEF0" rx="6"/>
      <circle cx="207.553" cy="903.998" r="9" fill="#0E423C"/>
      <rect width="109" height="12" x="221.553" y="897.998" fill="#ECEEF0" rx="6"/>
      <circle cx="207.553" cy="550.998" r="9" fill="#8792A2"/>
      <rect width="231" height="14" x="87.553" y="482.998" fill="#8792A2" opacity=".4" rx="7"/>
      <rect width="163" height="15.475" x="87.666" y="458.502" fill="#8792A2" opacity=".4" rx="7.738"/>
      <ellipse cx="35.62" cy="630.629" fill="#8792A2" opacity=".24" rx="35.031" ry="35.029"/>
      <path fill="#8792A2" d="M154.552983,621.998332 C158.418976,621.998332 161.552983,625.132339 161.552983,628.998332 C161.552983,632.864325 158.418976,635.998332 154.552983,635.998332 L94.5529831,635.998332 C90.6869898,635.998332 87.5529831,632.864325 87.5529831,628.998332 C87.5529831,625.132339 90.6869898,621.998332 94.5529831,621.998332 L154.552983,621.998332 Z M270.552983,621.998332 C274.418976,621.998332 277.552983,625.132339 277.552983,628.998332 C277.552983,632.864325 274.418976,635.998332 270.552983,635.998332 L270.552983,635.998332 L178.552983,635.998332 C174.68699,635.998332 171.552983,632.864325 171.552983,628.998332 C171.552983,625.132339 174.68699,621.998332 178.552983,621.998332 L178.552983,621.998332 Z" opacity=".4"/>
      <rect width="124" height="15.475" x="87.666" y="597.601" fill="#8792A2" opacity=".4" rx="7.738"/>
      <ellipse cx="35.62" cy="759.728" fill="#8792A2" opacity=".24" rx="35.031" ry="35.029"/>
      <path fill="#8792A2" d="M188.552983,751.998332 C192.418976,751.998332 195.552983,755.132339 195.552983,758.998332 C195.552983,762.864325 192.418976,765.998332 188.552983,765.998332 L94.5529831,765.998332 C90.6869898,765.998332 87.5529831,762.864325 87.5529831,758.998332 C87.5529831,755.132339 90.6869898,751.998332 94.5529831,751.998332 L188.552983,751.998332 Z M290.552983,751.998332 C294.418976,751.998332 297.552983,755.132339 297.552983,758.998332 C297.552983,762.864325 294.418976,765.998332 290.552983,765.998332 L290.552983,765.998332 L210.552983,765.998332 C206.68699,765.998332 203.552983,762.864325 203.552983,758.998332 C203.552983,755.132339 206.68699,751.998332 210.552983,751.998332 L210.552983,751.998332 Z" opacity=".4"/>
      <rect width="187" height="15.475" x="87.666" y="726.701" fill="#8792A2" opacity=".4" rx="7.738"/>
      <ellipse cx="35.62" cy="878.827" fill="#8792A2" opacity=".24" rx="35.031" ry="35.029"/>
      <path fill="#8792A2" d="M157.496941,870.370309 C161.494212,870.370309 164.734639,873.610737 164.734639,877.608007 C164.734639,881.605277 161.494212,884.845705 157.496941,884.845705 L94.903771,884.845705 C90.9065008,884.845705 87.666073,881.605277 87.666073,877.608007 C87.666073,873.610737 90.9065008,870.370309 94.903771,870.370309 L157.496941,870.370309 Z M277.603798,870.370309 C281.601068,870.370309 284.841496,873.610737 284.841496,877.608007 C284.841496,881.605277 281.601068,884.845705 277.603798,884.845705 L277.603798,884.845705 L181.981242,884.845705 C177.983972,884.845705 174.743544,881.605277 174.743544,877.608007 C174.743544,873.610737 177.983972,870.370309 181.981242,870.370309 L181.981242,870.370309 Z" opacity=".4"/>
      <rect width="223" height="15.475" x="87.666" y="845.8" fill="#8792A2" opacity=".4" rx="7.738"/>
      <rect width="12" height="66" x="520.553" y="965.998" fill="#0E423C" rx="3"/>
      <ellipse cx="35.62" cy="997.927" fill="#8792A2" opacity=".24" rx="35.031" ry="35.029"/>
      <path fill="#8792A2" d="M130.552983,989.998332 C134.418976,989.998332 137.552983,993.132339 137.552983,996.998332 C137.552983,1000.86433 134.418976,1003.99833 130.552983,1003.99833 L94.5529831,1003.99833 C90.6869898,1003.99833 87.5529831,1000.86433 87.5529831,996.998332 C87.5529831,993.132339 90.6869898,989.998332 94.5529831,989.998332 L130.552983,989.998332 Z M209.552983,989.998332 C213.418976,989.998332 216.552983,993.132339 216.552983,996.998332 C216.552983,1000.86433 213.418976,1003.99833 209.552983,1003.99833 L209.552983,1003.99833 L151.552983,1003.99833 C147.68699,1003.99833 144.552983,1000.86433 144.552983,996.998332 C144.552983,993.132339 147.68699,989.998332 151.552983,989.998332 L151.552983,989.998332 Z" opacity=".4"/>
      <rect width="181" height="15.475" x="87.666" y="964.899" fill="#8792A2" opacity=".4" rx="7.738"/>
      <rect width="235" height="120" x="798.553" y="218.998" fill="#D7D0E9" opacity=".598" rx="3"/>
      <rect width="60" height="10" x="811.553" y="234.998" fill="#512DA8" opacity=".666" rx="5"/>
      <rect width="145" height="10" x="876.553" y="234.998" fill="#512DA8" opacity=".298" rx="5"/>
      <rect width="210" height="10" x="811.553" y="253.998" fill="#512DA8" opacity=".298" rx="5"/>
      <rect width="145" height="10" x="811.553" y="272.998" fill="#512DA8" opacity=".298" rx="5"/>
      <rect width="98" height="10" x="811.553" y="291.998" fill="#512DA8" opacity=".298" rx="5"/>
      <rect width="235" height="120" x="798.553" y="348.998" fill="#D7D0E9" opacity=".598" rx="3"/>
      <rect width="88" height="10" x="811.553" y="364.998" fill="#512DA8" opacity=".673" rx="5"/>
      <rect width="117" height="10" x="904.553" y="364.998" fill="#512DA8" opacity=".298" rx="5"/>
      <rect width="194" height="10" x="811.553" y="383.998" fill="#512DA8" opacity=".298" rx="5"/>
      <rect width="210" height="10" x="811.553" y="402.998" fill="#512DA8" opacity=".298" rx="5"/>
      <rect width="145" height="10" x="811.553" y="421.998" fill="#512DA8" opacity=".298" rx="5"/>
      <rect width="237" height="120" x="2.553" y="38.998" fill="#1851BE" rx="5"/>
      <rect width="210" height="10" x="15.553" y="58.998" fill="#FFF" opacity=".966" rx="5"/>
      <rect width="125" height="10" x="15.553" y="77.998" fill="#FFF" opacity=".598" rx="5"/>
      <rect width="80" height="10" x="145.553" y="77.998" fill="#FFF" opacity=".298" rx="5" transform="matrix(-1 0 0 1 371.106 0)"/>
      <rect width="20" height="20" x="15.553" y="128.998" fill="#FFF" opacity=".298" rx="3" transform="matrix(-1 0 0 1 51.106 0)"/>
      <rect width="20" height="10" x="206.553" y="133.998" fill="#FFF" opacity=".598" rx="3" transform="matrix(-1 0 0 1 433.106 0)"/>
      <rect width="12" height="8" x="90.553" y="5.998" fill="#8792A2" opacity=".241" rx="3"/>
      <rect width="83" height="18" x="2.553" y=".998" fill="#1851BE" rx="9"/>
      <rect width="125" height="18" x="107.553" y=".998" fill="#8792A2" opacity=".141" rx="9"/>
      <rect width="237" height="120" x="266.553" y="38.998" fill="#F84F77" opacity=".25" rx="5"/>
      <rect width="210" height="10" x="279.553" y="58.998" fill="#F84F77" opacity=".866" rx="5"/>
      <rect width="128" height="10" x="279.553" y="77.998" fill="#F84F77" opacity=".498" rx="5"/>
      <rect width="77" height="10" x="412.553" y="77.998" fill="#F84F77" opacity=".198" rx="5"/>
      <rect width="237" height="120" x="531.553" y="38.998" fill="#512DA8" rx="5"/>
      <rect width="237" height="120" x="796.553" y="38.998" fill="#BFE5E1" rx="5"/>
      <path fill="#1851BE" d="M984.552983 498.998332L1030.55298 498.998332C1032.20984 498.998332 1033.55298 500.341478 1033.55298 501.998332L1033.55298 525.998332C1033.55298 527.655186 1032.20984 528.998332 1030.55298 528.998332L984.552983 528.998332 984.552983 528.998332 984.552983 498.998332zM984.552983 548.998332L1030.55298 548.998332C1032.20984 548.998332 1033.55298 550.341478 1033.55298 551.998332L1033.55298 575.998332C1033.55298 577.655186 1032.20984 578.998332 1030.55298 578.998332L984.552983 578.998332 984.552983 578.998332 984.552983 548.998332zM984.552983 598.998332L1030.55298 598.998332C1032.20984 598.998332 1033.55298 600.341478 1033.55298 601.998332L1033.55298 625.998332C1033.55298 627.655186 1032.20984 628.998332 1030.55298 628.998332L984.552983 628.998332 984.552983 628.998332 984.552983 598.998332zM984.552983 648.998332L1030.55298 648.998332C1032.20984 648.998332 1033.55298 650.341478 1033.55298 651.998332L1033.55298 675.998332C1033.55298 677.655186 1032.20984 678.998332 1030.55298 678.998332L984.552983 678.998332 984.552983 678.998332 984.552983 648.998332zM984.552983 698.998332L1030.55298 698.998332C1032.20984 698.998332 1033.55298 700.341478 1033.55298 701.998332L1033.55298 725.998332C1033.55298 727.655186 1032.20984 728.998332 1030.55298 728.998332L984.552983 728.998332 984.552983 728.998332 984.552983 698.998332zM984.552983 748.998332L1030.55298 748.998332C1032.20984 748.998332 1033.55298 750.341478 1033.55298 751.998332L1033.55298 775.998332C1033.55298 777.655186 1032.20984 778.998332 1030.55298 778.998332L984.552983 778.998332 984.552983 778.998332 984.552983 748.998332z" opacity=".197"/>
      <rect width="36" height="10" x="991.553" y="508.998" fill="#1851BE" opacity=".383" rx="5"/>
      <rect width="36" height="10" x="991.553" y="558.998" fill="#1851BE" opacity=".383" rx="5"/>
      <rect width="36" height="10" x="991.553" y="608.998" fill="#1851BE" opacity=".383" rx="5"/>
      <rect width="36" height="10" x="991.553" y="658.998" fill="#1851BE" opacity=".383" rx="5"/>
      <rect width="36" height="10" x="991.553" y="708.998" fill="#1851BE" opacity=".383" rx="5"/>
      <rect width="36" height="10" x="991.553" y="758.998" fill="#1851BE" opacity=".383" rx="5"/>
      <path fill="#1851BE" d="M801.552983 498.998332L984.552983 498.998332 984.552983 498.998332 984.552983 528.998332 801.552983 528.998332C799.896129 528.998332 798.552983 527.655186 798.552983 525.998332L798.552983 501.998332C798.552983 500.341478 799.896129 498.998332 801.552983 498.998332zM801.552983 548.998332L984.552983 548.998332 984.552983 548.998332 984.552983 578.998332 801.552983 578.998332C799.896129 578.998332 798.552983 577.655186 798.552983 575.998332L798.552983 551.998332C798.552983 550.341478 799.896129 548.998332 801.552983 548.998332z" opacity=".117"/>
      <path fill="#1851BE" d="M801.552983,598.998332 L984.552983,598.998332 L984.552983,598.998332 L984.552983,628.998332 L801.552983,628.998332 C799.896129,628.998332 798.552983,627.655186 798.552983,625.998332 L798.552983,601.998332 C798.552983,600.341478 799.896129,598.998332 801.552983,598.998332 Z" opacity=".125"/>
      <path fill="#1851BE" d="M801.552983 648.998332L984.552983 648.998332 984.552983 648.998332 984.552983 678.998332 801.552983 678.998332C799.896129 678.998332 798.552983 677.655186 798.552983 675.998332L798.552983 651.998332C798.552983 650.341478 799.896129 648.998332 801.552983 648.998332zM801.552983 698.998332L984.552983 698.998332 984.552983 698.998332 984.552983 728.998332 801.552983 728.998332C799.896129 728.998332 798.552983 727.655186 798.552983 725.998332L798.552983 701.998332C798.552983 700.341478 799.896129 698.998332 801.552983 698.998332z" opacity=".117"/>
      <rect width="176" height="10" x="544.553" y="58.998" fill="#FFF" opacity=".966" rx="5"/>
      <rect width="128" height="10" x="544.553" y="77.998" fill="#FFF" opacity=".598" rx="5"/>
      <rect width="72" height="10" x="677.553" y="77.998" fill="#FFF" opacity=".298" rx="5" transform="matrix(-1 0 0 1 1427.106 0)"/>
      <rect width="164" height="10" x="809.553" y="58.998" fill="#0E423C" opacity=".966" rx="5"/>
      <rect width="148" height="10" x="809.553" y="77.998" fill="#0E423C" opacity=".598" rx="5"/>
      <rect width="56" height="10" x="962.553" y="77.998" fill="#0E423C" opacity=".298" rx="5" transform="matrix(-1 0 0 1 1981.106 0)"/>
      <path fill="#1851BE" d="M801.552983,748.998332 L984.552983,748.998332 L984.552983,748.998332 L984.552983,778.998332 L801.552983,778.998332 C799.896129,778.998332 798.552983,777.655186 798.552983,775.998332 L798.552983,751.998332 C798.552983,750.341478 799.896129,748.998332 801.552983,748.998332 Z" opacity=".117"/>
      <rect width="234" height="99" x="799.053" y="799.498" stroke="#ECEEF0" rx="3"/>
      <rect width="32" height="32" x="813.553" y="848.998" fill="#8792A2" opacity=".425" rx="16"/>
      <rect width="32" height="32" x="855.553" y="848.998" fill="#8792A2" opacity=".425" rx="16"/>
      <rect width="32" height="32" x="897.553" y="848.998" fill="#8792A2" opacity=".425" rx="16"/>
      <rect width="32" height="32" x="939.553" y="848.998" fill="#8792A2" opacity=".425" rx="16"/>
      <path fill="#ECEEF0" d="M801.552983,798.998332 L1030.55298,798.998332 C1032.20984,798.998332 1033.55298,800.341478 1033.55298,801.998332 L1033.55298,834.998332 L1033.55298,834.998332 L798.552983,834.998332 L798.552983,801.998332 C798.552983,800.341478 799.896129,798.998332 801.552983,798.998332 Z"/>
      <rect width="84" height="12" x="813.553" y="810.998" fill="#8792A2" opacity=".483" rx="6"/>
      <rect width="89" height="10" x="811.553" y="508.998" fill="#FFF" opacity=".717" rx="3"/>
      <rect width="114" height="10" x="811.553" y="558.998" fill="#FFF" opacity=".717" rx="3"/>
      <rect width="78" height="10" x="811.553" y="608.998" fill="#FFF" opacity=".717" rx="3"/>
      <rect width="114" height="10" x="811.553" y="658.998" fill="#FFF" opacity=".717" rx="3"/>
      <rect width="60" height="10" x="811.553" y="708.998" fill="#FFF" opacity=".717" rx="3"/>
      <rect width="84" height="10" x="811.553" y="758.998" fill="#FFF" opacity=".717" rx="3"/>
      <path fill="#1851BE" d="M801.552983 498.998332L970.552983 498.998332 970.552983 498.998332 970.552983 528.998332 801.552983 528.998332C799.896129 528.998332 798.552983 527.655186 798.552983 525.998332L798.552983 501.998332C798.552983 500.341478 799.896129 498.998332 801.552983 498.998332zM801.552983 548.998332L957.552983 548.998332 957.552983 548.998332 957.552983 578.998332 801.552983 578.998332C799.896129 578.998332 798.552983 577.655186 798.552983 575.998332L798.552983 551.998332C798.552983 550.341478 799.896129 548.998332 801.552983 548.998332zM801.552983 598.998332L900.552983 598.998332 900.552983 598.998332 900.552983 628.998332 801.552983 628.998332C799.896129 628.998332 798.552983 627.655186 798.552983 625.998332L798.552983 601.998332C798.552983 600.341478 799.896129 598.998332 801.552983 598.998332zM801.552983 648.998332L891.552983 648.998332 891.552983 648.998332 891.552983 678.998332 801.552983 678.998332C799.896129 678.998332 798.552983 677.655186 798.552983 675.998332L798.552983 651.998332C798.552983 650.341478 799.896129 648.998332 801.552983 648.998332z" opacity=".2"/>
      <path fill="#1851BE" d="M801.552983,698.998332 L862.552983,698.998332 L862.552983,698.998332 L862.552983,728.998332 L801.552983,728.998332 C799.896129,728.998332 798.552983,727.655186 798.552983,725.998332 L798.552983,701.998332 C798.552983,700.341478 799.896129,698.998332 801.552983,698.998332 Z" opacity=".197"/>
      <path fill="#1851BE" d="M801.552983,748.998332 L850.552983,748.998332 L850.552983,748.998332 L850.552983,778.998332 L801.552983,778.998332 C799.896129,778.998332 798.552983,777.655186 798.552983,775.998332 L798.552983,751.998332 C798.552983,750.341478 799.896129,748.998332 801.552983,748.998332 Z" opacity=".2"/>
      <rect width="76" height="14" x="1.553" y="178.998" fill="#8792A2" opacity=".364" rx="3"/>
      <rect width="20" height="20" x="279.553" y="128.998" fill="#F84F77" opacity=".198" rx="3" transform="matrix(-1 0 0 1 579.106 0)"/>
      <rect width="20" height="20" x="544.553" y="128.998" fill="#FFF" opacity=".298" rx="3" transform="matrix(-1 0 0 1 1109.106 0)"/>
      <rect width="20" height="20" x="809.553" y="128.998" fill="#0E423C" opacity=".298" rx="3" transform="matrix(-1 0 0 1 1639.106 0)"/>
      <rect width="20" height="10" x="469.553" y="133.998" fill="#F84F77" opacity=".498" rx="3" transform="matrix(-1 0 0 1 959.106 0)"/>
      <rect width="20" height="10" x="735.553" y="133.998" fill="#FFF" opacity=".598" rx="3" transform="matrix(-1 0 0 1 1491.106 0)"/>
      <rect width="20" height="10" x="998.553" y="133.998" fill="#0E423C" opacity=".598" rx="3" transform="matrix(-1 0 0 1 2017.106 0)"/>
    </g>
  </g>
</svg>
