<svg xmlns="http://www.w3.org/2000/svg" width="1124" height="1202" viewBox="0 0 1124 1202">
  <defs>
    <linearGradient id="community-home-alt-a" x1="50.007%" x2="50.007%" y1="-141.4%" y2="-47.015%">
      <stop offset="0%" stop-color="#2A6CBE"/>
      <stop offset="38.688%" stop-color="#2062BC"/>
      <stop offset="49.182%" stop-color="#1F5FBC"/>
      <stop offset="66.583%" stop-color="#1C5ABD"/>
      <stop offset="85.354%" stop-color="#1956BC"/>
      <stop offset="100%" stop-color="#1851BE"/>
    </linearGradient>
    <linearGradient id="community-home-alt-b" x1="50.007%" x2="50.007%" y1="0%" y2="100%">
      <stop offset="0%" stop-color="#040F20"/>
      <stop offset="100%" stop-color="#000306"/>
    </linearGradient>
  </defs>
  <g fill="none" fill-rule="evenodd">
    <rect width="1124" height="1202" fill="#FFF"/>
    <g transform="translate(39 -26)">
      <g transform="translate(0 146)">
        <rect width="202.18" height="53.25" y=".274" fill="url(#community-home-alt-a)" rx="5"/>
        <g fill="#FFF" opacity=".296" transform="translate(34.03 20.664)">
          <rect width="40.036" height="12.716" rx="6.358"/>
          <rect width="83.074" height="12.716" x="50.045" rx="6.358"/>
        </g>
        <g transform="translate(603.537)">
          <g transform="translate(300.267)">
            <rect width="137.625" height="51.545" x="1.25" y="1.25" stroke="#8792A2" stroke-opacity=".2" stroke-width="2.5" rx="5"/>
            <rect width="31.028" height="12.906" x="26.023" y="20.166" fill="#8792A2" opacity=".18" rx="6.453"/>
            <rect width="48.043" height="12.906" x="62.055" y="20.166" fill="#8792A2" opacity=".18" rx="6.453"/>
          </g>
          <g transform="translate(150.134)">
            <rect width="137.625" height="51.545" x="1.25" y="1.25" stroke="#8792A2" stroke-opacity=".2" stroke-width="2.5" rx="5"/>
            <rect width="58.052" height="12.906" x="26.023" y="20.166" fill="#8792A2" opacity=".18" rx="6.453"/>
            <rect width="26.023" height="12.906" x="89.079" y="20.166" fill="#8792A2" opacity=".18" rx="6.453"/>
          </g>
          <rect width="137.625" height="51.545" x="1.25" y="1.25" stroke="#8792A2" stroke-opacity=".2" stroke-width="2.5" rx="5"/>
          <rect width="28.025" height="12.906" x="26.023" y="20.166" fill="#8792A2" opacity=".18" rx="6.453"/>
          <rect width="56.05" height="12.906" x="59.053" y="20.166" fill="#8792A2" opacity=".18" rx="6.453"/>
        </g>
        <g transform="translate(0 107.09)">
          <ellipse cx="35.031" cy="35.029" fill="#8792A2" opacity=".24" rx="35.031" ry="35.029"/>
          <g transform="translate(87.077 1.002)">
            <path fill="#8792A2" d="M66.7092146,32.3271684 C72.4305266,32.3271684 77.0685663,36.9652082 77.0685663,42.6865202 C77.0685663,48.4078322 72.4305266,53.045872 66.7092146,53.045872 L10.3593518,53.045872 C4.63803977,53.045872 -2.62200154e-13,48.4078322 -2.62900812e-13,42.6865202 C-2.63601471e-13,36.9652082 4.63803977,32.3271684 10.3593518,32.3271684 L66.7092146,32.3271684 Z M186.816071,32.3271684 C192.537383,32.3271684 197.175423,36.9652082 197.175423,42.6865202 C197.175423,48.4078322 192.537383,53.045872 186.816071,53.045872 L186.816071,53.045872 L97.4368228,53.045872 C91.7155108,53.045872 87.0774711,48.4078322 87.0774711,42.6865202 C87.0774711,36.9652082 91.7155108,32.3271684 97.4368228,32.3271684 L97.4368228,32.3271684 Z M345.957656,2 C351.678968,2 356.317008,6.63803977 356.317008,12.3593518 C356.317008,18.0806638 351.678968,22.7187036 345.957656,22.7187036 L10.3593518,22.7187036 C4.63803977,22.7187036 -1.41407889e-13,18.0806638 -1.42108547e-13,12.3593518 C-1.42809206e-13,6.63803977 4.63803977,2 10.3593518,2 L345.957656,2 Z" opacity=".4"/>
            <g transform="translate(415.37)">
              <rect width="58.052" height="46.038" x="86.077" y="1" fill="#8792A2" opacity=".322" rx="3"/>
              <rect width="57.051" height="46.038" y="1" fill="#8792A2" opacity=".322" rx="3"/>
              <rect width="57.051" height="46.038" x="173.154" y="1" fill="#8792A2" opacity=".322" rx="3"/>
              <rect width="10" height="66" x="279.517" y=".794" fill="#F84F77" rx="3"/>
              <rect width="10" height="66" x="279.517" y="119.794" fill="#1851BE" rx="3"/>
              <rect width="10" height="66" x="279.517" y="238.794" fill="#BCCCEB" rx="3"/>
              <rect width="10" height="66" x="279.517" y="357.794" fill="#512DA8" rx="3"/>
              <rect width="10" height="66" x="279.517" y="475.794" fill="#8369C0" rx="3"/>
              <rect width="10" height="66" x="279.517" y="594.794" fill="#BFE5E1" rx="3"/>
              <rect width="10" height="66" x="279.517" y="715.794" fill="#0E423C" rx="3"/>
              <rect width="10" height="66" x="279.517" y="832.794" fill="#8792A2" rx="3"/>
              <rect width="58.052" height="46.038" x="86.077" y="120.099" fill="#8792A2" opacity=".322" rx="3"/>
              <rect width="57.051" height="46.038" y="120.099" fill="#8792A2" opacity=".322" rx="3"/>
              <rect width="57.051" height="46.038" x="173.154" y="120.099" fill="#8792A2" opacity=".322" rx="3"/>
              <rect width="58.052" height="46.038" x="86.077" y="239.198" fill="#8792A2" opacity=".322" rx="3"/>
              <rect width="57.051" height="46.038" y="239.198" fill="#8792A2" opacity=".322" rx="3"/>
              <rect width="57.051" height="46.038" x="173.154" y="239.198" fill="#8792A2" opacity=".322" rx="3"/>
              <rect width="58.052" height="46.038" x="86.077" y="358.298" fill="#8792A2" opacity=".322" rx="3"/>
              <rect width="57.051" height="46.038" y="358.298" fill="#8792A2" opacity=".322" rx="3"/>
              <rect width="57.051" height="46.038" x="173.154" y="358.298" fill="#8792A2" opacity=".322" rx="3"/>
              <rect width="58.052" height="46.038" x="86.077" y="477.397" fill="#8792A2" opacity=".322" rx="3"/>
              <rect width="57.051" height="46.038" y="477.397" fill="#8792A2" opacity=".322" rx="3"/>
              <rect width="57.051" height="46.038" x="173.154" y="477.397" fill="#8792A2" opacity=".322" rx="3"/>
              <rect width="58.052" height="46.038" x="86.077" y="596.496" fill="#8792A2" opacity=".322" rx="3"/>
              <rect width="57.051" height="46.038" y="596.496" fill="#8792A2" opacity=".322" rx="3"/>
              <rect width="57.051" height="46.038" x="173.154" y="596.496" fill="#8792A2" opacity=".322" rx="3"/>
              <rect width="58.052" height="46.038" x="86.077" y="715.595" fill="#8792A2" opacity=".322" rx="3"/>
              <rect width="57.051" height="46.038" y="715.595" fill="#8792A2" opacity=".322" rx="3"/>
              <rect width="57.051" height="46.038" x="173.154" y="715.595" fill="#8792A2" opacity=".322" rx="3"/>
              <rect width="58.052" height="46.038" x="86.077" y="834.695" fill="#8792A2" opacity=".322" rx="3"/>
              <rect width="57.051" height="46.038" y="834.695" fill="#8792A2" opacity=".322" rx="3"/>
              <rect width="57.051" height="46.038" x="173.154" y="834.695" fill="#8792A2" opacity=".322" rx="3"/>
              <g fill="#ECEEF0" transform="translate(0 57.047)">
                <rect width="57.051" height="10.008" rx="3"/>
                <rect width="57.051" height="10.008" x="87.077" rx="3"/>
                <rect width="57.051" height="10.008" x="173.154" rx="3"/>
                <rect width="57.051" height="10.008" y="119.099" rx="3"/>
                <rect width="57.051" height="10.008" x="87.077" y="119.099" rx="3"/>
                <rect width="57.051" height="10.008" x="173.154" y="119.099" rx="3"/>
                <rect width="57.051" height="10.008" y="238.198" rx="3"/>
                <rect width="57.051" height="10.008" x="87.077" y="238.198" rx="3"/>
                <rect width="57.051" height="10.008" x="173.154" y="238.198" rx="3"/>
                <rect width="57.051" height="10.008" y="357.298" rx="3"/>
                <rect width="57.051" height="10.008" x="87.077" y="357.298" rx="3"/>
                <rect width="57.051" height="10.008" x="173.154" y="357.298" rx="3"/>
                <rect width="57.051" height="10.008" y="476.397" rx="3"/>
                <rect width="57.051" height="10.008" x="87.077" y="476.397" rx="3"/>
                <rect width="57.051" height="10.008" x="173.154" y="476.397" rx="3"/>
                <rect width="57.051" height="10.008" y="595.496" rx="3"/>
                <rect width="57.051" height="10.008" x="87.077" y="595.496" rx="3"/>
                <rect width="57.051" height="10.008" x="173.154" y="595.496" rx="3"/>
                <rect width="57.051" height="10.008" y="714.595" rx="3"/>
                <rect width="57.051" height="10.008" x="87.077" y="714.595" rx="3"/>
                <rect width="57.051" height="10.008" x="173.154" y="714.595" rx="3"/>
                <rect width="57.051" height="10.008" y="833.695" rx="3"/>
                <rect width="57.051" height="10.008" x="87.077" y="833.695" rx="3"/>
                <rect width="57.051" height="10.008" x="173.154" y="833.695" rx="3"/>
              </g>
            </g>
            <g fill="#8792A2" opacity=".32" transform="translate(758.675 1)">
              <rect width="25.022" height="25.021" rx="11.5"/>
              <rect width="25.022" height="25.021" y="119.099" rx="11.5"/>
              <rect width="25.022" height="25.021" y="238.198" rx="11.5"/>
              <rect width="25.022" height="25.021" y="357.298" rx="11.5"/>
              <rect width="25.022" height="25.021" y="476.397" rx="11.5"/>
              <rect width="25.022" height="25.021" y="595.496" rx="11.5"/>
              <rect width="25.022" height="25.021" y="714.595" rx="11.5"/>
              <rect width="25.022" height="25.021" y="833.695" rx="11.5"/>
            </g>
            <rect width="57.051" height="10.008" x="793.706" y="8.006" fill="#8792A2" opacity=".164" rx="3"/>
            <rect width="124.11" height="10.008" x="758.675" y="31.025" fill="#8792A2" opacity=".164" rx="3"/>
            <rect width="48.043" height="10.008" x="887.79" y="31.025" fill="#8792A2" opacity=".164" rx="3"/>
            <rect width="53.047" height="10.008" x="758.675" y="46.038" fill="#8792A2" opacity=".164" rx="3"/>
          </g>
          <g transform="translate(87.077 69.058)">
            <rect width="16.014" height="10.008" x="30.027" y="5.004" fill="#8792A2" opacity=".158" rx="3"/>
            <rect width="43.038" height="10.008" x="51.045" y="5.004" fill="#8792A2" opacity=".158" rx="3"/>
            <rect width="20.018" height="10.008" x="157.14" y="5.004" fill="#8792A2" opacity=".158" rx="3"/>
            <rect width="30.027" height="10.008" x="187.167" y="5.004" fill="#8792A2" opacity=".158" rx="3"/>
            <rect width="10.009" height="10.008" x="222.198" y="5.004" fill="#8792A2" opacity=".158" rx="3"/>
            <rect width="43.038" height="10.017" x="104.093" y="5" fill="#8792A2" opacity=".204" rx="3"/>
            <rect width="20.018" height="20.017" fill="#F84F77" rx="10"/>
          </g>
        </g>
        <g transform="translate(0 226.188)">
          <ellipse cx="35.031" cy="35.029" fill="#8792A2" opacity=".24" rx="35.031" ry="35.029"/>
          <g transform="translate(87.077 2.002)">
            <path fill="#8792A2" d="M136.771548,31.3271684 C142.49286,31.3271684 147.130899,35.9652082 147.130899,41.6865202 C147.130899,47.4078322 142.49286,52.045872 136.771548,52.045872 L10.3593518,52.045872 C4.63803977,52.045872 -7.03536149e-14,47.4078322 -7.10542736e-14,41.6865202 C-7.17549322e-14,35.9652082 4.63803977,31.3271684 10.3593518,31.3271684 L136.771548,31.3271684 Z M271.891761,31.3271684 C277.613073,31.3271684 282.251113,35.9652082 282.251113,41.6865202 C282.251113,47.4078322 277.613073,52.045872 271.891761,52.045872 L271.891761,52.045872 L167.499156,52.045872 C161.777844,52.045872 157.139804,47.4078322 157.139804,41.6865202 C157.139804,35.9652082 161.777844,31.3271684 167.499156,31.3271684 L167.499156,31.3271684 Z M345.957656,1 C351.678968,1 356.317008,5.63803977 356.317008,11.3593518 C356.317008,17.0806638 351.678968,21.7187036 345.957656,21.7187036 L10.3593518,21.7187036 C4.63803977,21.7187036 -1.41407889e-13,17.0806638 -1.42108547e-13,11.3593518 C-1.42809206e-13,5.63803977 4.63803977,1 10.3593518,1 L345.957656,1 Z" opacity=".4"/>
            <rect width="57.051" height="10.008" x="793.706" y="7.006" fill="#8792A2" opacity=".164" rx="3"/>
            <rect width="124.11" height="10.008" x="758.675" y="30.025" fill="#8792A2" opacity=".164" rx="3"/>
            <rect width="48.043" height="10.008" x="887.79" y="30.025" fill="#8792A2" opacity=".164" rx="3"/>
            <rect width="53.047" height="10.008" x="758.675" y="45.038" fill="#8792A2" opacity=".164" rx="3"/>
          </g>
          <g transform="translate(87.077 69.058)">
            <rect width="16.014" height="10.008" x="30.027" y="5.004" fill="#8792A2" opacity=".158" rx="3"/>
            <rect width="43.038" height="10.008" x="51.045" y="5.004" fill="#8792A2" opacity=".158" rx="3"/>
            <rect width="20.018" height="10.008" x="157.14" y="5.004" fill="#8792A2" opacity=".158" rx="3"/>
            <rect width="30.027" height="10.008" x="187.167" y="5.004" fill="#8792A2" opacity=".158" rx="3"/>
            <rect width="10.009" height="10.008" x="222.198" y="5.004" fill="#8792A2" opacity=".158" rx="3"/>
            <rect width="43.038" height="10.017" x="104.093" y="5" fill="#8792A2" opacity=".204" rx="3"/>
            <rect width="20.018" height="20.017" fill="#1851BE" rx="10"/>
          </g>
        </g>
        <g transform="translate(0 345.288)">
          <ellipse cx="35.031" cy="35.029" fill="#8792A2" opacity=".24" rx="35.031" ry="35.029"/>
          <g transform="translate(87.077 2.002)">
            <path fill="#8792A2" d="M66.7092146,30.3271684 C72.4305266,30.3271684 77.0685663,34.9652082 77.0685663,40.6865202 C77.0685663,46.4078322 72.4305266,51.045872 66.7092146,51.045872 L10.3593518,51.045872 C4.63803977,51.045872 -1.20091606e-13,46.4078322 -1.20792265e-13,40.6865202 C-1.21492924e-13,34.9652082 4.63803977,30.3271684 10.3593518,30.3271684 L66.7092146,30.3271684 Z M186.816071,30.3271684 C192.537383,30.3271684 197.175423,34.9652082 197.175423,40.6865202 C197.175423,46.4078322 192.537383,51.045872 186.816071,51.045872 L186.816071,51.045872 L97.4368228,51.045872 C91.7155108,51.045872 87.0774711,46.4078322 87.0774711,40.6865202 C87.0774711,34.9652082 91.7155108,30.3271684 97.4368228,30.3271684 L97.4368228,30.3271684 Z M345.957656,0 C351.678968,1.13835099e-14 356.317008,4.63803977 356.317008,10.3593518 C356.317008,16.0806638 351.678968,20.7187036 345.957656,20.7187036 L10.3593518,20.7187036 C4.63803977,20.7187036 7.00658643e-16,16.0806638 0,10.3593518 C-7.00658643e-16,4.63803977 4.63803977,1.05098796e-15 10.3593518,0 L345.957656,0 Z" opacity=".4"/>
            <rect width="57.051" height="10.008" x="793.706" y="7.006" fill="#8792A2" opacity=".164" rx="3"/>
            <rect width="124.11" height="10.008" x="758.675" y="30.025" fill="#8792A2" opacity=".164" rx="3"/>
            <rect width="48.043" height="10.008" x="887.79" y="30.025" fill="#8792A2" opacity=".164" rx="3"/>
            <rect width="53.047" height="10.008" x="758.675" y="45.038" fill="#8792A2" opacity=".164" rx="3"/>
          </g>
          <g transform="translate(87.077 69.058)">
            <rect width="16.014" height="10.008" x="30.027" y="5.004" fill="#8792A2" opacity=".158" rx="3"/>
            <rect width="43.038" height="10.008" x="51.045" y="5.004" fill="#8792A2" opacity=".158" rx="3"/>
            <rect width="20.018" height="10.008" x="157.14" y="5.004" fill="#8792A2" opacity=".158" rx="3"/>
            <rect width="30.027" height="10.008" x="187.167" y="5.004" fill="#8792A2" opacity=".158" rx="3"/>
            <rect width="10.009" height="10.008" x="222.198" y="5.004" fill="#8792A2" opacity=".158" rx="3"/>
            <rect width="43.038" height="10.017" x="104.093" y="5" fill="#8792A2" opacity=".204" rx="3"/>
            <rect width="20.018" height="20.017" fill="#BCCCEB" rx="10"/>
          </g>
        </g>
        <g transform="translate(0 464.387)">
          <ellipse cx="35.031" cy="35.029" fill="#8792A2" opacity=".24" rx="35.031" ry="35.029"/>
          <g transform="translate(87.077 2.002)">
            <path fill="#8792A2" d="M66.7092146,30.3271684 C72.4305266,30.3271684 77.0685663,34.9652082 77.0685663,40.6865202 C77.0685663,46.4078322 72.4305266,51.045872 66.7092146,51.045872 L10.3593518,51.045872 C4.63803977,51.045872 -1.20091606e-13,46.4078322 -1.20792265e-13,40.6865202 C-1.21492924e-13,34.9652082 4.63803977,30.3271684 10.3593518,30.3271684 L66.7092146,30.3271684 Z M296.914023,30.3271684 C302.635335,30.3271684 307.273375,34.9652082 307.273375,40.6865202 C307.273375,46.4078322 302.635335,51.045872 296.914023,51.045872 L296.914023,51.045872 L97.4368228,51.045872 C91.7155108,51.045872 87.0774711,46.4078322 87.0774711,40.6865202 C87.0774711,34.9652082 91.7155108,30.3271684 97.4368228,30.3271684 L97.4368228,30.3271684 Z M278.897995,0 C284.619307,9.60715307e-15 289.257346,4.63803977 289.257346,10.3593518 C289.257346,16.0806638 284.619307,20.7187036 278.897995,20.7187036 L10.3593518,20.7187036 C4.63803977,20.7187036 7.00658643e-16,16.0806638 0,10.3593518 C-7.00658643e-16,4.63803977 4.63803977,1.05098796e-15 10.3593518,0 L278.897995,0 Z" opacity=".4"/>
            <rect width="57.051" height="10.008" x="793.706" y="7.006" fill="#8792A2" opacity=".164" rx="3"/>
            <rect width="74.066" height="10.008" x="758.675" y="30.025" fill="#8792A2" opacity=".164" rx="3"/>
            <rect width="98.087" height="10.008" x="837.745" y="30.025" fill="#8792A2" opacity=".164" rx="3"/>
            <rect width="110.098" height="10.008" x="758.675" y="45.021" fill="#8792A2" opacity=".164" rx="3"/>
          </g>
          <g transform="translate(87.077 69.058)">
            <rect width="16.014" height="10.008" x="30.027" y="5.004" fill="#8792A2" opacity=".158" rx="3"/>
            <rect width="43.038" height="10.008" x="51.045" y="5.004" fill="#8792A2" opacity=".158" rx="3"/>
            <rect width="20.018" height="10.008" x="157.14" y="5.004" fill="#8792A2" opacity=".158" rx="3"/>
            <rect width="30.027" height="10.008" x="187.167" y="5.004" fill="#8792A2" opacity=".158" rx="3"/>
            <rect width="10.009" height="10.008" x="222.198" y="5.004" fill="#8792A2" opacity=".158" rx="3"/>
            <rect width="43.038" height="10.017" x="104.093" y="5" fill="#8792A2" opacity=".204" rx="3"/>
            <rect width="20.018" height="20.017" fill="#512DA8" rx="10"/>
          </g>
        </g>
        <g transform="translate(0 583.486)">
          <ellipse cx="35.031" cy="35.029" fill="#8792A2" opacity=".24" rx="35.031" ry="35.029"/>
          <g transform="translate(87.077 2.002)">
            <path fill="#8792A2" d="M66.7092146,30.3271684 C72.4305266,30.3271684 77.0685663,34.9652082 77.0685663,40.6865202 C77.0685663,46.4078322 72.4305266,51.045872 66.7092146,51.045872 L10.3593518,51.045872 C4.63803977,51.045872 -1.20091606e-13,46.4078322 -1.20792265e-13,40.6865202 C-1.21492924e-13,34.9652082 4.63803977,30.3271684 10.3593518,30.3271684 L66.7092146,30.3271684 Z M186.816071,30.3271684 C192.537383,30.3271684 197.175423,34.9652082 197.175423,40.6865202 C197.175423,46.4078322 192.537383,51.045872 186.816071,51.045872 L186.816071,51.045872 L97.4368228,51.045872 C91.7155108,51.045872 87.0774711,46.4078322 87.0774711,40.6865202 C87.0774711,34.9652082 91.7155108,30.3271684 97.4368228,30.3271684 L97.4368228,30.3271684 Z M345.957656,0 C351.678968,1.13835099e-14 356.317008,4.63803977 356.317008,10.3593518 C356.317008,16.0806638 351.678968,20.7187036 345.957656,20.7187036 L10.3593518,20.7187036 C4.63803977,20.7187036 7.00658643e-16,16.0806638 0,10.3593518 C-7.00658643e-16,4.63803977 4.63803977,1.05098796e-15 10.3593518,0 L345.957656,0 Z" opacity=".4"/>
            <rect width="57.051" height="10.008" x="793.706" y="7.006" fill="#8792A2" opacity=".164" rx="3"/>
            <rect width="102.091" height="10.008" x="758.675" y="30.025" fill="#8792A2" opacity=".164" rx="3"/>
            <rect width="70.062" height="10.008" x="865.77" y="30.025" fill="#8792A2" opacity=".164" rx="3"/>
            <rect width="53.047" height="10.008" x="758.675" y="45.038" fill="#8792A2" opacity=".164" rx="3"/>
            <rect width="70.062" height="10.008" x="816.727" y="45.038" fill="#8792A2" opacity=".164" rx="3"/>
          </g>
          <g transform="translate(87.077 69.058)">
            <rect width="16.014" height="10.008" x="30.027" y="5.004" fill="#8792A2" opacity=".158" rx="3"/>
            <rect width="43.038" height="10.008" x="51.045" y="5.004" fill="#8792A2" opacity=".158" rx="3"/>
            <rect width="20.018" height="10.008" x="157.14" y="5.004" fill="#8792A2" opacity=".158" rx="3"/>
            <rect width="30.027" height="10.008" x="187.167" y="5.004" fill="#8792A2" opacity=".158" rx="3"/>
            <rect width="10.009" height="10.008" x="222.198" y="5.004" fill="#8792A2" opacity=".158" rx="3"/>
            <rect width="43.038" height="10.017" x="104.093" y="5" fill="#8792A2" opacity=".204" rx="3"/>
            <rect width="20.018" height="20.017" fill="#8369C0" rx="10"/>
          </g>
        </g>
        <g transform="translate(0 702.585)">
          <ellipse cx="35.031" cy="35.029" fill="#8792A2" opacity=".24" rx="35.031" ry="35.029"/>
          <g transform="translate(87.077 2.002)">
            <path fill="#8792A2" d="M126.762643,30.3271684 C132.483955,30.3271684 137.121995,34.9652082 137.121995,40.6865202 C137.121995,46.4078322 132.483955,51.045872 126.762643,51.045872 L10.3593518,51.045872 C4.63803977,51.045872 -4.19319055e-14,46.4078322 -4.26325641e-14,40.6865202 C-4.33332228e-14,34.9652082 4.63803977,30.3271684 10.3593518,30.3271684 L126.762643,30.3271684 Z M256.878404,30.3271684 C262.599716,30.3271684 267.237756,34.9652082 267.237756,40.6865202 C267.237756,46.4078322 262.599716,51.045872 256.878404,51.045872 L256.878404,51.045872 L157.490251,51.045872 C151.768939,51.045872 147.130899,46.4078322 147.130899,40.6865202 C147.130899,34.9652082 151.768939,30.3271684 157.490251,30.3271684 L157.490251,30.3271684 Z M309.925599,0 C315.646911,3.77376536e-14 320.284951,4.63803977 320.284951,10.3593518 C320.284951,16.0806638 315.646911,20.7187036 309.925599,20.7187036 L10.3593518,20.7187036 C4.63803977,20.7187036 7.00658643e-16,16.0806638 0,10.3593518 C-7.00658643e-16,4.63803977 4.63803977,1.05098796e-15 10.3593518,0 L309.925599,0 Z" opacity=".4"/>
            <rect width="57.051" height="10.008" x="793.706" y="7.006" fill="#8792A2" opacity=".164" rx="3"/>
            <rect width="124.11" height="10.008" x="758.675" y="30.025" fill="#8792A2" opacity=".164" rx="3"/>
            <rect width="48.043" height="10.008" x="887.79" y="30.025" fill="#8792A2" opacity=".164" rx="3"/>
            <rect width="53.047" height="10.008" x="758.675" y="45.038" fill="#8792A2" opacity=".164" rx="3"/>
          </g>
          <g transform="translate(87.077 69.058)">
            <rect width="16.014" height="10.008" x="30.027" y="5.004" fill="#8792A2" opacity=".158" rx="3"/>
            <rect width="43.038" height="10.008" x="51.045" y="5.004" fill="#8792A2" opacity=".158" rx="3"/>
            <rect width="20.018" height="10.008" x="157.14" y="5.004" fill="#8792A2" opacity=".158" rx="3"/>
            <rect width="30.027" height="10.008" x="187.167" y="5.004" fill="#8792A2" opacity=".158" rx="3"/>
            <rect width="10.009" height="10.008" x="222.198" y="5.004" fill="#8792A2" opacity=".158" rx="3"/>
            <rect width="43.038" height="10.017" x="104.093" y="5" fill="#8792A2" opacity=".204" rx="3"/>
            <rect width="20.018" height="20.017" fill="#BFE5E1" rx="10"/>
          </g>
        </g>
        <g transform="translate(0 821.685)">
          <ellipse cx="35.031" cy="35.029" fill="#8792A2" opacity=".24" rx="35.031" ry="35.029"/>
          <g transform="translate(87.077 2.002)">
            <path fill="#8792A2" d="M66.7092146,30.3271684 C72.4305266,30.3271684 77.0685663,34.9652082 77.0685663,40.6865202 C77.0685663,46.4078322 72.4305266,51.045872 66.7092146,51.045872 L10.3593518,51.045872 C4.63803977,51.045872 -1.20091606e-13,46.4078322 -1.20792265e-13,40.6865202 C-1.21492924e-13,34.9652082 4.63803977,30.3271684 10.3593518,30.3271684 L66.7092146,30.3271684 Z M186.816071,30.3271684 C192.537383,30.3271684 197.175423,34.9652082 197.175423,40.6865202 C197.175423,46.4078322 192.537383,51.045872 186.816071,51.045872 L186.816071,51.045872 L97.4368228,51.045872 C91.7155108,51.045872 87.0774711,46.4078322 87.0774711,40.6865202 C87.0774711,34.9652082 91.7155108,30.3271684 97.4368228,30.3271684 L97.4368228,30.3271684 Z M345.957656,0 C351.678968,1.13835099e-14 356.317008,4.63803977 356.317008,10.3593518 C356.317008,16.0806638 351.678968,20.7187036 345.957656,20.7187036 L10.3593518,20.7187036 C4.63803977,20.7187036 7.00658643e-16,16.0806638 0,10.3593518 C-7.00658643e-16,4.63803977 4.63803977,1.05098796e-15 10.3593518,0 L345.957656,0 Z" opacity=".4"/>
            <rect width="57.051" height="10.008" x="793.706" y="7.006" fill="#8792A2" opacity=".164" rx="3"/>
            <rect width="124.11" height="10.008" x="758.675" y="30.025" fill="#8792A2" opacity=".164" rx="3"/>
            <rect width="48.043" height="10.008" x="887.79" y="30.025" fill="#8792A2" opacity=".164" rx="3"/>
            <rect width="53.047" height="10.008" x="758.675" y="45.038" fill="#8792A2" opacity=".164" rx="3"/>
          </g>
          <g transform="translate(87.077 69.058)">
            <rect width="16.014" height="10.008" x="30.027" y="5.004" fill="#8792A2" opacity=".158" rx="3"/>
            <rect width="43.038" height="10.008" x="51.045" y="5.004" fill="#8792A2" opacity=".158" rx="3"/>
            <rect width="20.018" height="10.008" x="157.14" y="5.004" fill="#8792A2" opacity=".158" rx="3"/>
            <rect width="30.027" height="10.008" x="187.167" y="5.004" fill="#8792A2" opacity=".158" rx="3"/>
            <rect width="10.009" height="10.008" x="222.198" y="5.004" fill="#8792A2" opacity=".158" rx="3"/>
            <rect width="43.038" height="10.017" x="104.093" y="5" fill="#8792A2" opacity=".204" rx="3"/>
            <rect width="20.018" height="20.017" fill="#0E423C" rx="10"/>
          </g>
        </g>
        <g transform="translate(0 940.784)">
          <ellipse cx="35.031" cy="35.029" fill="#8792A2" opacity=".24" rx="35.031" ry="35.029"/>
          <g transform="translate(87.077 2.002)">
            <path fill="#8792A2" d="M66.7092146,30.3271684 C72.4305266,30.3271684 77.0685663,34.9652082 77.0685663,40.6865202 C77.0685663,46.4078322 72.4305266,51.045872 66.7092146,51.045872 L10.3593518,51.045872 C4.63803977,51.045872 -1.20091606e-13,46.4078322 -1.20792265e-13,40.6865202 C-1.21492924e-13,34.9652082 4.63803977,30.3271684 10.3593518,30.3271684 L66.7092146,30.3271684 Z M186.816071,30.3271684 C192.537383,30.3271684 197.175423,34.9652082 197.175423,40.6865202 C197.175423,46.4078322 192.537383,51.045872 186.816071,51.045872 L186.816071,51.045872 L97.4368228,51.045872 C91.7155108,51.045872 87.0774711,46.4078322 87.0774711,40.6865202 C87.0774711,34.9652082 91.7155108,30.3271684 97.4368228,30.3271684 L97.4368228,30.3271684 Z M345.957656,0 C351.678968,1.13835099e-14 356.317008,4.63803977 356.317008,10.3593518 C356.317008,16.0806638 351.678968,20.7187036 345.957656,20.7187036 L10.3593518,20.7187036 C4.63803977,20.7187036 7.00658643e-16,16.0806638 0,10.3593518 C-7.00658643e-16,4.63803977 4.63803977,1.05098796e-15 10.3593518,0 L345.957656,0 Z" opacity=".4"/>
            <rect width="57.051" height="10.008" x="793.706" y="7.006" fill="#8792A2" opacity=".164" rx="3"/>
            <rect width="124.11" height="10.008" x="758.675" y="30.025" fill="#8792A2" opacity=".164" rx="3"/>
            <rect width="48.043" height="10.008" x="887.79" y="30.025" fill="url(#community-home-alt-b)" opacity=".164" rx="3"/>
            <rect width="53.047" height="10.008" x="758.675" y="45.038" fill="#8792A2" opacity=".164" rx="3"/>
          </g>
          <g fill="#8792A2" transform="translate(87.077 69.058)">
            <rect width="16.014" height="10.008" x="30.027" y="5.004" opacity=".158" rx="3"/>
            <rect width="43.038" height="10.008" x="51.045" y="5.004" opacity=".158" rx="3"/>
            <rect width="20.018" height="10.008" x="157.14" y="5.004" opacity=".158" rx="3"/>
            <rect width="30.027" height="10.008" x="187.167" y="5.004" opacity=".158" rx="3"/>
            <rect width="10.009" height="10.008" x="222.198" y="5.004" opacity=".158" rx="3"/>
            <rect width="43.038" height="10.017" x="104.093" y="5" opacity=".204" rx="3"/>
            <rect width="20.018" height="20.017" rx="10"/>
          </g>
        </g>
        <rect width="70.002" height="70" x="955.637" y="952.791" fill="#1851BE" opacity=".965" rx="34.97" transform="matrix(1 0 0 -1 0 1975.582)"/>
      </g>
      <g transform="translate(.316 .002)">
        <g fill-rule="nonzero" transform="translate(.682 42)">
          <path fill="#1851BE" d="M127.35494,9.23705556e-14 C142.320087,9.23705556e-14 154.451735,9.40202678 154.451735,21.0000146 C154.451735,32.5980024 142.320087,42.0000292 127.35494,42.0000292 C112.389793,42.0000292 100.258144,32.5980024 100.258144,21.0000146 C100.258144,9.40202678 112.389793,9.23705556e-14 127.35494,9.23705556e-14 Z M129.658663,5.06869506 L129.140085,5.06869506 C128.035516,5.06869506 127.140085,5.96412556 127.140085,7.06869506 L127.140085,7.06869506 L127.141089,15.4254727 C125.313566,14.156743 123.045076,13.4284089 120.514614,13.4284089 C114.055175,13.4284089 109.234,18.2433597 109.234,24.6787266 C109.234,31.1140936 114.055175,35.9290444 120.514614,35.9290444 C124.836037,35.9290444 128.393431,33.8048981 130.295302,30.4926499 L130.295302,30.4926499 L130.42988,30.6281331 C132.437922,32.5942018 135.230059,33.769961 138.422241,33.769961 C144.929377,33.769961 149.704397,28.954352 149.704397,22.5181053 C149.704397,16.0818587 144.929377,11.2662497 138.422241,11.2662497 C135.52065,11.2662497 132.949587,12.2376882 130.997473,13.8910888 C130.878595,13.9917761 130.997473,10.3398978 130.997473,6.81727359 C130.997473,5.60749283 130.103451,5.06869506 129.658663,5.06869506 L129.658663,5.06869506 Z M120.354928,18.5799345 C123.943684,18.5799345 126.467644,21.2477369 126.467644,24.7046077 C126.467644,28.086329 123.943684,30.8292808 120.354928,30.8292808 C116.766172,30.8292808 114.242212,28.086329 114.242212,24.7046077 C114.242212,21.2477369 116.766172,18.5799345 120.354928,18.5799345 Z M138.954448,16.5524564 C142.543204,16.5524564 145.067164,19.2202589 145.067164,22.6771296 C145.067164,26.058851 142.543204,28.8018028 138.954448,28.8018028 C135.365692,28.8018028 132.841732,26.058851 132.841732,22.6771296 C132.841732,19.2202589 135.365692,16.5524564 138.954448,16.5524564 Z M111.329418,7.16843678 L110.005854,7.16843678 C109.596339,7.16843678 109.264362,7.50106345 109.264362,7.91137925 L109.264362,7.91137925 L109.264362,16.6928703 C109.264362,16.7975152 109.297195,16.8995229 109.358234,16.9845213 C109.519309,17.2088194 109.831715,17.2600723 110.056013,17.0989979 L110.056013,17.0989979 L112.43452,15.3909289 C112.826907,15.1091455 113.059567,14.655629 113.059567,14.172546 L113.059567,14.172546 L113.059567,8.9019692 C113.059567,7.94456568 112.284953,7.16843678 111.329418,7.16843678 L111.329418,7.16843678 Z"/>
          <path fill="#040F20" stroke="#040E1F" stroke-width=".275" d="M83.4573712 12.1935569C89.8219332 12.1935569 94.3695912 15.866714 94.6064664 23.0738547L94.6145534 23.4253448 94.6145534 23.4253448C94.6275802 24.4068405 93.842481 25.2130604 92.8609853 25.2260872L76.200266 25.2262222C76.200266 28.1135057 77.7705548 31.4345101 83.7042115 31.4345101 86.734901 31.4345101 89.703657 30.6000482 92.6104796 28.9311244L93.0253326 28.6870533C93.6102087 28.3345466 94.3701075 28.5229192 94.7226142 29.1077953 94.9695449 29.5175005 94.9561591 30.028476 94.6989983 30.4220436L94.6145534 30.5363729 94.6145534 30.5363729C94.1660906 31.0759931 90.0158448 35.2258309 83.7042115 35.2258309 76.8420508 35.2258309 71.8065084 30.3918969 71.8065084 23.6623024 71.8065084 17.1222739 76.5952105 12.1935569 83.4573712 12.1935569zM83.4573712 15.9848777C79.5079262 15.9848777 76.7926828 18.2596702 76.2496341 21.6718589L90.1714277 21.6718589C89.628379 18.2596702 87.209344 15.9848777 83.4573712 15.9848777zM68.4255625 3.38709913C69.5269282 3.38709913 70.4197615 4.27993241 70.4197615 5.38129809L70.4196193 22.6261286C70.4408759 22.9271323 70.4516687 23.2320474 70.4516687 23.5405477 70.4516687 30.2247221 65.3850738 35.2258309 58.5968206 35.2258309 51.7593771 35.2258309 46.7419725 30.2247221 46.7419725 23.5405477 46.7419725 16.8563734 51.7593771 11.8552646 58.5968206 11.8552646 61.6624027 11.8552646 64.3768639 12.8752082 66.4321317 14.6094999L66.4313636 5.38129809C66.4313636 4.27993241 67.3241968 3.38709913 68.4255625 3.38709913zM58.5968206 15.7022714C54.1205086 15.7022714 50.9723332 19.1164899 50.9723332 23.5405477 50.9723332 27.8684304 54.1205086 31.3788241 58.5968206 31.3788241 63.0731325 31.3788241 66.2213079 27.8684304 66.2213079 23.5405477 66.2213079 19.1164899 63.0731325 15.7022714 58.5968206 15.7022714zM34.2097045 12.1935569C40.9979578 12.1935569 46.0645526 17.1222739 46.0645526 23.7096939 46.0645526 30.2971138 40.9979578 35.2258309 34.2097045 35.2258309 27.372261 35.2258309 22.3548564 30.2971138 22.3548564 23.7096939 22.3548564 17.1222739 27.372261 12.1935569 34.2097045 12.1935569zM34.2097045 15.9848777C29.7333926 15.9848777 26.5852171 19.3496749 26.5852171 23.7096939 26.5852171 27.9749298 29.7333926 31.4345101 34.2097045 31.4345101 38.6860164 31.4345101 41.8341919 27.9749298 41.8341919 23.7096939 41.8341919 19.3496749 38.6860164 15.9848777 34.2097045 15.9848777zM11.8463995 12.1935569C18.0399528 12.1935569 21.6774365 16.210814 21.6774365 21.7404502L21.6774365 32.4347381C21.6774365 33.6020875 20.7311129 34.5484111 19.5637636 34.5484111L19.4500906 34.5484111C18.3455211 34.5484111 17.4500906 33.6529806 17.4500906 32.5484111L17.4500906 22.0712831 17.4500906 22.0712831C17.4500906 18.4793827 15.5330384 15.9745047 11.4040029 15.9745047 4.2273459 15.9745047 4.2273459 19.239518 4.2273459 23.2528294L4.2273459 34.5484111 2 34.5484111C.8954305 34.5484111 1.13378019e-13 33.6529806 1.13686838e-13 32.5484111 1.13686838e-13 27.9979658 1.13686838e-13 23.4475205 1.13686838e-13 18.8970752 1.13686838e-13 14.1193933 8.30722624 12.1935569 11.8463995 12.1935569z"/>
        </g>
        <g fill="#8792A2" opacity=".499" transform="translate(212.682 49)">
          <rect width="29" height="26" y="4" opacity=".3" rx="10"/>
          <rect width="29" height="26" x="59" y="4" opacity=".3" rx="10"/>
          <rect width="29" height="26" x="295" y="4" opacity=".3" rx="10"/>
          <rect width="29" height="26" x="118" y="4" opacity=".3" rx="10"/>
          <rect width="29" height="26" x="177" y="4" opacity=".3" rx="10"/>
          <rect width="29" height="26" x="354" y="4" opacity=".3" rx="10"/>
          <rect width="29" height="26" x="742.002" y="3.998" opacity=".3" rx="10"/>
          <rect width="29" height="26" x="683.002" y="3.998" opacity=".3" rx="10"/>
          <rect width="29" height="26" x="624.002" y="3.998" opacity=".3" rx="10"/>
          <rect width="32" height="33" x="798.002" y=".998" opacity=".6" rx="16"/>
          <rect width="29" height="26" x="236" y="4" opacity=".3" rx="10"/>
        </g>
        <rect width="16" height="16" x="351.682" y="45" fill="#F84F77" rx="8"/>
        <rect width="16" height="16" x="917.684" y="44.998" fill="#F84F77" rx="8"/>
      </g>
    </g>
  </g>
</svg>
