<svg height="1202" viewBox="0 0 1124 1202" width="1124" xmlns="http://www.w3.org/2000/svg" xmlns:xlink="http://www.w3.org/1999/xlink"><linearGradient id="a" x1="50.007%" x2="50.007%" y1="-141.4%" y2="-47.015%"><stop offset="0" stop-color="#2a6cbe"/><stop offset=".38688" stop-color="#2062bc"/><stop offset=".49182" stop-color="#1f5fbc"/><stop offset=".66583" stop-color="#1c5abd"/><stop offset=".85354" stop-color="#1956bc"/><stop offset="1" stop-color="#1851be"/></linearGradient><linearGradient id="b" x1="50.007%" x2="50.007%" y1="0%" y2="100%"><stop offset="0" stop-color="#040f20"/><stop offset="1" stop-color="#000306"/></linearGradient><g fill="none" fill-rule="evenodd"><path d="m0 0h1124v1202h-1124z" fill="#fff"/><g transform="translate(39 120)"><rect fill="url(#a)" height="53.25" rx="5" width="202.18" y=".274"/><g fill="#fff" opacity=".296"><rect height="12.716" rx="6.358" width="40.036" x="34.03" y="20.664"/><rect height="12.716" rx="6.358" width="83.074" x="84.075" y="20.664"/></g><rect height="51.545" rx="5" stroke="#8792a2" stroke-opacity=".2" stroke-width="2.5" width="137.625" x="905.054" y="1.25"/><rect fill="#8792a2" height="12.906" opacity=".18" rx="6.453" width="31.028" x="929.827" y="20.166"/><rect fill="#8792a2" height="12.906" opacity=".18" rx="6.453" width="48.043" x="965.859" y="20.166"/><rect height="51.545" rx="5" stroke="#8792a2" stroke-opacity=".2" stroke-width="2.5" width="137.625" x="754.921" y="1.25"/><rect fill="#8792a2" height="12.906" opacity=".18" rx="6.453" width="58.052" x="779.694" y="20.166"/><rect fill="#8792a2" height="12.906" opacity=".18" rx="6.453" width="26.023" x="842.75" y="20.166"/><rect height="51.545" rx="5" stroke="#8792a2" stroke-opacity=".2" stroke-width="2.5" width="137.625" x="604.787" y="1.25"/><rect fill="#8792a2" height="12.906" opacity=".18" rx="6.453" width="28.025" x="629.56" y="20.166"/><rect fill="#8792a2" height="12.906" opacity=".18" rx="6.453" width="56.05" x="662.59" y="20.166"/><ellipse cx="35.031" cy="142.119" fill="#8792a2" opacity=".24" rx="35.031" ry="35.029"/><g transform="translate(87.077 108.092)"><path d="m66.7092146 32.3271684c5.721312 0 10.3593517 4.6380398 10.3593517 10.3593518s-4.6380397 10.3593518-10.3593517 10.3593518h-56.3498628c-5.72131203 0-10.3593518-4.6380398-10.3593518-10.3593518s4.63803977-10.3593518 10.3593518-10.3593518zm120.1068564 0c5.721312 0 10.359352 4.6380398 10.359352 10.3593518s-4.63804 10.3593518-10.359352 10.3593518h-89.3792482c-5.721312 0-10.3593517-4.6380398-10.3593517-10.3593518s4.6380397-10.3593518 10.3593517-10.3593518zm159.141585-30.3271684c5.721312 0 10.359352 4.63803977 10.359352 10.3593518 0 5.721312-4.63804 10.3593518-10.359352 10.3593518h-335.5983042c-5.72131203 0-10.3593518-4.6380398-10.3593518-10.3593518 0-5.72131203 4.63803977-10.3593518 10.3593518-10.3593518z" fill="#8792a2" opacity=".4"/><rect fill="#8792a2" height="46.038" opacity=".322" rx="3" width="58.052" x="501.447" y="1"/><rect fill="#8792a2" height="46.038" opacity=".322" rx="3" width="57.051" x="415.37" y="1"/><rect fill="#8792a2" height="46.038" opacity=".322" rx="3" width="57.051" x="588.524" y="1"/><rect fill="#f84f77" height="66" rx="3" width="10" x="694.887" y=".794"/><rect fill="#1851be" height="66" rx="3" width="10" x="694.887" y="119.794"/><rect fill="#bccceb" height="66" rx="3" width="10" x="694.887" y="238.794"/><rect fill="#512da8" height="66" rx="3" width="10" x="694.887" y="357.794"/><rect fill="#8369c0" height="66" rx="3" width="10" x="694.887" y="475.794"/><rect fill="#bfe5e1" height="66" rx="3" width="10" x="694.887" y="594.794"/><rect fill="#0e423c" height="66" rx="3" width="10" x="694.887" y="715.794"/><g fill="#8792a2"><rect height="66" rx="3" width="10" x="694.887" y="832.794"/><rect height="46.038" opacity=".322" rx="3" width="58.052" x="501.447" y="120.099"/><rect height="46.038" opacity=".322" rx="3" width="57.051" x="415.37" y="120.099"/><rect height="46.038" opacity=".322" rx="3" width="57.051" x="588.524" y="120.099"/><rect height="46.038" opacity=".322" rx="3" width="58.052" x="501.447" y="239.198"/><rect height="46.038" opacity=".322" rx="3" width="57.051" x="415.37" y="239.198"/><rect height="46.038" opacity=".322" rx="3" width="57.051" x="588.524" y="239.198"/><rect height="46.038" opacity=".322" rx="3" width="58.052" x="501.447" y="358.298"/><rect height="46.038" opacity=".322" rx="3" width="57.051" x="415.37" y="358.298"/><rect height="46.038" opacity=".322" rx="3" width="57.051" x="588.524" y="358.298"/><rect height="46.038" opacity=".322" rx="3" width="58.052" x="501.447" y="477.397"/><rect height="46.038" opacity=".322" rx="3" width="57.051" x="415.37" y="477.397"/><rect height="46.038" opacity=".322" rx="3" width="57.051" x="588.524" y="477.397"/><rect height="46.038" opacity=".322" rx="3" width="58.052" x="501.447" y="596.496"/><rect height="46.038" opacity=".322" rx="3" width="57.051" x="415.37" y="596.496"/><rect height="46.038" opacity=".322" rx="3" width="57.051" x="588.524" y="596.496"/><rect height="46.038" opacity=".322" rx="3" width="58.052" x="501.447" y="715.595"/><rect height="46.038" opacity=".322" rx="3" width="57.051" x="415.37" y="715.595"/><rect height="46.038" opacity=".322" rx="3" width="57.051" x="588.524" y="715.595"/><rect height="46.038" opacity=".322" rx="3" width="58.052" x="501.447" y="834.695"/><rect height="46.038" opacity=".322" rx="3" width="57.051" x="415.37" y="834.695"/><rect height="46.038" opacity=".322" rx="3" width="57.051" x="588.524" y="834.695"/></g><g fill="#eceef0"><rect height="10.008" rx="3" width="57.051" x="415.37" y="57.047"/><rect height="10.008" rx="3" width="57.051" x="502.447" y="57.047"/><rect height="10.008" rx="3" width="57.051" x="588.524" y="57.047"/><rect height="10.008" rx="3" width="57.051" x="415.37" y="176.146"/><rect height="10.008" rx="3" width="57.051" x="502.447" y="176.146"/><rect height="10.008" rx="3" width="57.051" x="588.524" y="176.146"/><rect height="10.008" rx="3" width="57.051" x="415.37" y="295.245"/><rect height="10.008" rx="3" width="57.051" x="502.447" y="295.245"/><rect height="10.008" rx="3" width="57.051" x="588.524" y="295.245"/><rect height="10.008" rx="3" width="57.051" x="415.37" y="414.345"/><rect height="10.008" rx="3" width="57.051" x="502.447" y="414.345"/><rect height="10.008" rx="3" width="57.051" x="588.524" y="414.345"/><rect height="10.008" rx="3" width="57.051" x="415.37" y="533.444"/><rect height="10.008" rx="3" width="57.051" x="502.447" y="533.444"/><rect height="10.008" rx="3" width="57.051" x="588.524" y="533.444"/><rect height="10.008" rx="3" width="57.051" x="415.37" y="652.543"/><rect height="10.008" rx="3" width="57.051" x="502.447" y="652.543"/><rect height="10.008" rx="3" width="57.051" x="588.524" y="652.543"/><rect height="10.008" rx="3" width="57.051" x="415.37" y="771.642"/><rect height="10.008" rx="3" width="57.051" x="502.447" y="771.642"/><rect height="10.008" rx="3" width="57.051" x="588.524" y="771.642"/><rect height="10.008" rx="3" width="57.051" x="415.37" y="890.742"/><rect height="10.008" rx="3" width="57.051" x="502.447" y="890.742"/><rect height="10.008" rx="3" width="57.051" x="588.524" y="890.742"/></g><g fill="#8792a2" opacity=".32"><rect height="25.021" rx="11.5" width="25.022" x="758.675" y="1"/><rect height="25.021" rx="11.5" width="25.022" x="758.675" y="120.099"/><rect height="25.021" rx="11.5" width="25.022" x="758.675" y="239.198"/><rect height="25.021" rx="11.5" width="25.022" x="758.675" y="358.298"/><rect height="25.021" rx="11.5" width="25.022" x="758.675" y="477.397"/><rect height="25.021" rx="11.5" width="25.022" x="758.675" y="596.496"/><rect height="25.021" rx="11.5" width="25.022" x="758.675" y="715.595"/><rect height="25.021" rx="11.5" width="25.022" x="758.675" y="834.695"/></g><rect fill="#8792a2" height="10.008" opacity=".164" rx="3" width="57.051" x="793.706" y="8.006"/><rect fill="#8792a2" height="10.008" opacity=".164" rx="3" width="124.11" x="758.675" y="31.025"/><rect fill="#8792a2" height="10.008" opacity=".164" rx="3" width="48.043" x="887.79" y="31.025"/><rect fill="#8792a2" height="10.008" opacity=".164" rx="3" width="53.047" x="758.675" y="46.038"/></g><rect fill="#8792a2" height="10.008" opacity=".158" rx="3" width="16.014" x="117.104" y="181.152"/><rect fill="#8792a2" height="10.008" opacity=".158" rx="3" width="43.038" x="138.122" y="181.152"/><rect fill="#8792a2" height="10.008" opacity=".158" rx="3" width="20.018" x="244.217" y="181.152"/><rect fill="#8792a2" height="10.008" opacity=".158" rx="3" width="30.027" x="274.244" y="181.152"/><rect fill="#8792a2" height="10.008" opacity=".158" rx="3" width="10.009" x="309.275" y="181.152"/><rect fill="#8792a2" height="10.017" opacity=".204" rx="3" width="43.038" x="191.17" y="181.148"/><rect fill="#f84f77" height="20.017" rx="10" width="20.018" x="87.077" y="176.148"/><g fill="#8792a2"><ellipse cx="35.031" cy="261.217" opacity=".24" rx="35.031" ry="35.029"/><g transform="translate(87.077 228.19)"><path d="m136.771548 31.3271684c5.721312 0 10.359351 4.6380398 10.359351 10.3593518s-4.638039 10.3593518-10.359351 10.3593518h-126.4121962c-5.72131203 0-10.3593518-4.6380398-10.3593518-10.3593518s4.63803977-10.3593518 10.3593518-10.3593518zm135.120213 0c5.721312 0 10.359352 4.6380398 10.359352 10.3593518s-4.63804 10.3593518-10.359352 10.3593518h-104.392605c-5.721312 0-10.359352-4.6380398-10.359352-10.3593518s4.63804-10.3593518 10.359352-10.3593518zm74.065895-30.3271684c5.721312 0 10.359352 4.63803977 10.359352 10.3593518 0 5.721312-4.63804 10.3593518-10.359352 10.3593518h-335.5983042c-5.72131203 0-10.3593518-4.6380398-10.3593518-10.3593518 0-5.72131203 4.63803977-10.3593518 10.3593518-10.3593518z" opacity=".4"/><rect height="10.008" opacity=".164" rx="3" width="57.051" x="793.706" y="7.006"/><rect height="10.008" opacity=".164" rx="3" width="124.11" x="758.675" y="30.025"/><rect height="10.008" opacity=".164" rx="3" width="48.043" x="887.79" y="30.025"/><rect height="10.008" opacity=".164" rx="3" width="53.047" x="758.675" y="45.038"/></g><rect height="10.008" opacity=".158" rx="3" width="16.014" x="117.104" y="300.25"/><rect height="10.008" opacity=".158" rx="3" width="43.038" x="138.122" y="300.25"/><rect height="10.008" opacity=".158" rx="3" width="20.018" x="244.217" y="300.25"/><rect height="10.008" opacity=".158" rx="3" width="30.027" x="274.244" y="300.25"/><rect height="10.008" opacity=".158" rx="3" width="10.009" x="309.275" y="300.25"/><rect height="10.017" opacity=".204" rx="3" width="43.038" x="191.17" y="300.246"/></g><rect fill="#1851be" height="20.017" rx="10" width="20.018" x="87.077" y="295.246"/><ellipse cx="35.031" cy="380.317" fill="#8792a2" opacity=".24" rx="35.031" ry="35.029"/><g fill="#8792a2" transform="translate(87.077 347.29)"><path d="m66.7092146 30.3271684c5.721312 0 10.3593517 4.6380398 10.3593517 10.3593518s-4.6380397 10.3593518-10.3593517 10.3593518h-56.3498628c-5.72131203 0-10.3593518-4.6380398-10.3593518-10.3593518s4.63803977-10.3593518 10.3593518-10.3593518zm120.1068564 0c5.721312 0 10.359352 4.6380398 10.359352 10.3593518s-4.63804 10.3593518-10.359352 10.3593518h-89.3792482c-5.721312 0-10.3593517-4.6380398-10.3593517-10.3593518s4.6380397-10.3593518 10.3593517-10.3593518zm159.141585-30.3271684c5.721312 0 10.359352 4.63803977 10.359352 10.3593518 0 5.721312-4.63804 10.3593518-10.359352 10.3593518h-335.5983042c-5.72131203 0-10.3593518-4.6380398-10.3593518-10.3593518 0-5.72131203 4.63803977-10.3593518 10.3593518-10.3593518z" opacity=".4"/><rect height="10.008" opacity=".164" rx="3" width="57.051" x="793.706" y="7.006"/><rect height="10.008" opacity=".164" rx="3" width="124.11" x="758.675" y="30.025"/><rect height="10.008" opacity=".164" rx="3" width="48.043" x="887.79" y="30.025"/><rect height="10.008" opacity=".164" rx="3" width="53.047" x="758.675" y="45.038"/></g><rect fill="#8792a2" height="10.008" opacity=".158" rx="3" width="16.014" x="117.104" y="419.35"/><rect fill="#8792a2" height="10.008" opacity=".158" rx="3" width="43.038" x="138.122" y="419.35"/><rect fill="#8792a2" height="10.008" opacity=".158" rx="3" width="20.018" x="244.217" y="419.35"/><rect fill="#8792a2" height="10.008" opacity=".158" rx="3" width="30.027" x="274.244" y="419.35"/><rect fill="#8792a2" height="10.008" opacity=".158" rx="3" width="10.009" x="309.275" y="419.35"/><rect fill="#8792a2" height="10.017" opacity=".204" rx="3" width="43.038" x="191.17" y="419.346"/><rect fill="#bccceb" height="20.017" rx="10" width="20.018" x="87.077" y="414.346"/><ellipse cx="35.031" cy="499.416" fill="#8792a2" opacity=".24" rx="35.031" ry="35.029"/><g fill="#8792a2" transform="translate(87.077 466.389)"><path d="m66.7092146 30.3271684c5.721312 0 10.3593517 4.6380398 10.3593517 10.3593518s-4.6380397 10.3593518-10.3593517 10.3593518h-56.3498628c-5.72131203 0-10.3593518-4.6380398-10.3593518-10.3593518s4.63803977-10.3593518 10.3593518-10.3593518zm230.2048084 0c5.721312 0 10.359352 4.6380398 10.359352 10.3593518s-4.63804 10.3593518-10.359352 10.3593518h-199.4772002c-5.721312 0-10.3593517-4.6380398-10.3593517-10.3593518s4.6380397-10.3593518 10.3593517-10.3593518zm-18.016028-30.3271684c5.721312 0 10.359351 4.63803977 10.359351 10.3593518 0 5.721312-4.638039 10.3593518-10.359351 10.3593518h-268.5386432c-5.72131203 0-10.3593518-4.6380398-10.3593518-10.3593518 0-5.72131203 4.63803977-10.3593518 10.3593518-10.3593518z" opacity=".4"/><rect height="10.008" opacity=".164" rx="3" width="57.051" x="793.706" y="7.006"/><rect height="10.008" opacity=".164" rx="3" width="74.066" x="758.675" y="30.025"/><rect height="10.008" opacity=".164" rx="3" width="98.087" x="837.745" y="30.025"/><rect height="10.008" opacity=".164" rx="3" width="110.098" x="758.675" y="45.021"/></g><rect fill="#8792a2" height="10.008" opacity=".158" rx="3" width="16.014" x="117.104" y="538.449"/><rect fill="#8792a2" height="10.008" opacity=".158" rx="3" width="43.038" x="138.122" y="538.449"/><rect fill="#8792a2" height="10.008" opacity=".158" rx="3" width="20.018" x="244.217" y="538.449"/><rect fill="#8792a2" height="10.008" opacity=".158" rx="3" width="30.027" x="274.244" y="538.449"/><rect fill="#8792a2" height="10.008" opacity=".158" rx="3" width="10.009" x="309.275" y="538.449"/><rect fill="#8792a2" height="10.017" opacity=".204" rx="3" width="43.038" x="191.17" y="538.445"/><rect fill="#512da8" height="20.017" rx="10" width="20.018" x="87.077" y="533.445"/><ellipse cx="35.031" cy="618.515" fill="#8792a2" opacity=".24" rx="35.031" ry="35.029"/><g fill="#8792a2" transform="translate(87.077 585.488)"><path d="m66.7092146 30.3271684c5.721312 0 10.3593517 4.6380398 10.3593517 10.3593518s-4.6380397 10.3593518-10.3593517 10.3593518h-56.3498628c-5.72131203 0-10.3593518-4.6380398-10.3593518-10.3593518s4.63803977-10.3593518 10.3593518-10.3593518zm120.1068564 0c5.721312 0 10.359352 4.6380398 10.359352 10.3593518s-4.63804 10.3593518-10.359352 10.3593518h-89.3792482c-5.721312 0-10.3593517-4.6380398-10.3593517-10.3593518s4.6380397-10.3593518 10.3593517-10.3593518zm159.141585-30.3271684c5.721312 0 10.359352 4.63803977 10.359352 10.3593518 0 5.721312-4.63804 10.3593518-10.359352 10.3593518h-335.5983042c-5.72131203 0-10.3593518-4.6380398-10.3593518-10.3593518 0-5.72131203 4.63803977-10.3593518 10.3593518-10.3593518z" opacity=".4"/><rect height="10.008" opacity=".164" rx="3" width="57.051" x="793.706" y="7.006"/><rect height="10.008" opacity=".164" rx="3" width="102.091" x="758.675" y="30.025"/><rect height="10.008" opacity=".164" rx="3" width="70.062" x="865.77" y="30.025"/><rect height="10.008" opacity=".164" rx="3" width="53.047" x="758.675" y="45.038"/><rect height="10.008" opacity=".164" rx="3" width="70.062" x="816.727" y="45.038"/></g><rect fill="#8792a2" height="10.008" opacity=".158" rx="3" width="16.014" x="117.104" y="657.548"/><rect fill="#8792a2" height="10.008" opacity=".158" rx="3" width="43.038" x="138.122" y="657.548"/><rect fill="#8792a2" height="10.008" opacity=".158" rx="3" width="20.018" x="244.217" y="657.548"/><rect fill="#8792a2" height="10.008" opacity=".158" rx="3" width="30.027" x="274.244" y="657.548"/><rect fill="#8792a2" height="10.008" opacity=".158" rx="3" width="10.009" x="309.275" y="657.548"/><rect fill="#8792a2" height="10.017" opacity=".204" rx="3" width="43.038" x="191.17" y="657.544"/><rect fill="#8369c0" height="20.017" rx="10" width="20.018" x="87.077" y="652.544"/><ellipse cx="35.031" cy="737.614" fill="#8792a2" opacity=".24" rx="35.031" ry="35.029"/><g fill="#8792a2" transform="translate(87.077 704.587)"><path d="m126.762643 30.3271684c5.721312 0 10.359352 4.6380398 10.359352 10.3593518s-4.63804 10.3593518-10.359352 10.3593518h-116.4032912c-5.72131203 0-10.3593518-4.6380398-10.3593518-10.3593518s4.63803977-10.3593518 10.3593518-10.3593518zm130.115761 0c5.721312 0 10.359352 4.6380398 10.359352 10.3593518s-4.63804 10.3593518-10.359352 10.3593518h-99.388153c-5.721312 0-10.359352-4.6380398-10.359352-10.3593518s4.63804-10.3593518 10.359352-10.3593518zm53.047195-30.3271684c5.721312 0 10.359352 4.63803977 10.359352 10.3593518 0 5.721312-4.63804 10.3593518-10.359352 10.3593518h-299.5662472c-5.72131203 0-10.3593518-4.6380398-10.3593518-10.3593518 0-5.72131203 4.63803977-10.3593518 10.3593518-10.3593518z" opacity=".4"/><rect height="10.008" opacity=".164" rx="3" width="57.051" x="793.706" y="7.006"/><rect height="10.008" opacity=".164" rx="3" width="124.11" x="758.675" y="30.025"/><rect height="10.008" opacity=".164" rx="3" width="48.043" x="887.79" y="30.025"/><rect height="10.008" opacity=".164" rx="3" width="53.047" x="758.675" y="45.038"/></g><rect fill="#8792a2" height="10.008" opacity=".158" rx="3" width="16.014" x="117.104" y="776.647"/><rect fill="#8792a2" height="10.008" opacity=".158" rx="3" width="43.038" x="138.122" y="776.647"/><rect fill="#8792a2" height="10.008" opacity=".158" rx="3" width="20.018" x="244.217" y="776.647"/><rect fill="#8792a2" height="10.008" opacity=".158" rx="3" width="30.027" x="274.244" y="776.647"/><rect fill="#8792a2" height="10.008" opacity=".158" rx="3" width="10.009" x="309.275" y="776.647"/><rect fill="#8792a2" height="10.017" opacity=".204" rx="3" width="43.038" x="191.17" y="776.643"/><rect fill="#bfe5e1" height="20.017" rx="10" width="20.018" x="87.077" y="771.643"/><ellipse cx="35.031" cy="856.714" fill="#8792a2" opacity=".24" rx="35.031" ry="35.029"/><g fill="#8792a2" transform="translate(87.077 823.687)"><path d="m66.7092146 30.3271684c5.721312 0 10.3593517 4.6380398 10.3593517 10.3593518s-4.6380397 10.3593518-10.3593517 10.3593518h-56.3498628c-5.72131203 0-10.3593518-4.6380398-10.3593518-10.3593518s4.63803977-10.3593518 10.3593518-10.3593518zm120.1068564 0c5.721312 0 10.359352 4.6380398 10.359352 10.3593518s-4.63804 10.3593518-10.359352 10.3593518h-89.3792482c-5.721312 0-10.3593517-4.6380398-10.3593517-10.3593518s4.6380397-10.3593518 10.3593517-10.3593518zm159.141585-30.3271684c5.721312 0 10.359352 4.63803977 10.359352 10.3593518 0 5.721312-4.63804 10.3593518-10.359352 10.3593518h-335.5983042c-5.72131203 0-10.3593518-4.6380398-10.3593518-10.3593518 0-5.72131203 4.63803977-10.3593518 10.3593518-10.3593518z" opacity=".4"/><rect height="10.008" opacity=".164" rx="3" width="57.051" x="793.706" y="7.006"/><rect height="10.008" opacity=".164" rx="3" width="124.11" x="758.675" y="30.025"/><rect height="10.008" opacity=".164" rx="3" width="48.043" x="887.79" y="30.025"/><rect height="10.008" opacity=".164" rx="3" width="53.047" x="758.675" y="45.038"/></g><rect fill="#8792a2" height="10.008" opacity=".158" rx="3" width="16.014" x="117.104" y="895.747"/><rect fill="#8792a2" height="10.008" opacity=".158" rx="3" width="43.038" x="138.122" y="895.747"/><rect fill="#8792a2" height="10.008" opacity=".158" rx="3" width="20.018" x="244.217" y="895.747"/><rect fill="#8792a2" height="10.008" opacity=".158" rx="3" width="30.027" x="274.244" y="895.747"/><rect fill="#8792a2" height="10.008" opacity=".158" rx="3" width="10.009" x="309.275" y="895.747"/><rect fill="#8792a2" height="10.017" opacity=".204" rx="3" width="43.038" x="191.17" y="895.743"/><rect fill="#0e423c" height="20.017" rx="10" width="20.018" x="87.077" y="890.743"/><ellipse cx="35.031" cy="975.813" fill="#8792a2" opacity=".24" rx="35.031" ry="35.029"/><g transform="translate(87.077 942.786)"><g fill="#8792a2"><path d="m66.7092146 30.3271684c5.721312 0 10.3593517 4.6380398 10.3593517 10.3593518s-4.6380397 10.3593518-10.3593517 10.3593518h-56.3498628c-5.72131203 0-10.3593518-4.6380398-10.3593518-10.3593518s4.63803977-10.3593518 10.3593518-10.3593518zm120.1068564 0c5.721312 0 10.359352 4.6380398 10.359352 10.3593518s-4.63804 10.3593518-10.359352 10.3593518h-89.3792482c-5.721312 0-10.3593517-4.6380398-10.3593517-10.3593518s4.6380397-10.3593518 10.3593517-10.3593518zm159.141585-30.3271684c5.721312 0 10.359352 4.63803977 10.359352 10.3593518 0 5.721312-4.63804 10.3593518-10.359352 10.3593518h-335.5983042c-5.72131203 0-10.3593518-4.6380398-10.3593518-10.3593518 0-5.72131203 4.63803977-10.3593518 10.3593518-10.3593518z" opacity=".4"/><rect height="10.008" opacity=".164" rx="3" width="57.051" x="793.706" y="7.006"/><rect height="10.008" opacity=".164" rx="3" width="124.11" x="758.675" y="30.025"/></g><rect fill="url(#b)" height="10.008" opacity=".164" rx="3" width="48.043" x="887.79" y="30.025"/><rect fill="#8792a2" height="10.008" opacity=".164" rx="3" width="53.047" x="758.675" y="45.038"/></g><g fill="#8792a2"><rect height="10.008" opacity=".158" rx="3" width="16.014" x="117.104" y="1014.846"/><rect height="10.008" opacity=".158" rx="3" width="43.038" x="138.122" y="1014.846"/><rect height="10.008" opacity=".158" rx="3" width="20.018" x="244.217" y="1014.846"/><rect height="10.008" opacity=".158" rx="3" width="30.027" x="274.244" y="1014.846"/><rect height="10.008" opacity=".158" rx="3" width="10.009" x="309.275" y="1014.846"/><rect height="10.017" opacity=".204" rx="3" width="43.038" x="191.17" y="1014.842"/><rect height="20.017" rx="10" width="20.018" x="87.077" y="1009.842"/></g><rect fill="#1851be" height="70" opacity=".965" rx="34.97" transform="matrix(1 0 0 -1 0 1975.582)" width="70.002" x="955.637" y="952.791"/></g><g fill-rule="nonzero" transform="translate(39.998 16.002)"><path d="m127.35494 0c14.965147 0 27.096795 9.40202678 27.096795 21.0000146 0 11.5979878-12.131648 21.0000146-27.096795 21.0000146s-27.096796-9.4020268-27.096796-21.0000146c0-11.59798782 12.131649-21.0000146 27.096796-21.0000146zm2.303723 5.06869506h-.518578c-1.104569 0-2 .8954305-2 2l.001004 8.35677764c-1.827523-1.2687297-4.096013-1.9970638-6.626475-1.9970638-6.459439 0-11.280614 4.8149508-11.280614 11.2503177 0 6.435367 4.821175 11.2503178 11.280614 11.2503178 4.321423 0 7.878817-2.1241463 9.780688-5.4363945l.134578.1354832c2.008042 1.9660687 4.800179 3.1418279 7.992361 3.1418279 6.507136 0 11.282156-4.815609 11.282156-11.2518557 0-6.4362466-4.77502-11.2518556-11.282156-11.2518556-2.901591 0-5.472654.9714385-7.424768 2.6248391-.118878.1006873 0-3.551191 0-7.07381521 0-1.20978076-.894022-1.74857853-1.33881-1.74857853zm-9.303735 13.51123944c3.588756 0 6.112716 2.6678024 6.112716 6.1246732 0 3.3817213-2.52396 6.1246731-6.112716 6.1246731s-6.112716-2.7429518-6.112716-6.1246731c0-3.4568708 2.52396-6.1246732 6.112716-6.1246732zm18.59952-2.0274781c3.588756 0 6.112716 2.6678025 6.112716 6.1246732 0 3.3817214-2.52396 6.1246732-6.112716 6.1246732s-6.112716-2.7429518-6.112716-6.1246732c0-3.4568707 2.52396-6.1246732 6.112716-6.1246732zm-27.62503-9.38401962h-1.323564c-.409515 0-.741492.33262667-.741492.74294247v8.78149105c0 .1046449.032833.2066526.093872.291651.161075.2242981.473481.275551.697779.1144766l2.378507-1.708069c.392387-.2817834.625047-.7352999.625047-1.2183829v-5.2705768c0-.95740352-.774614-1.73353242-1.730149-1.73353242z" fill="#1851be"/><path d="m83.4573712 12.1935569c6.364562 0 10.91222 3.6731571 11.1490952 10.8802978l.008087.3514901c.0130268.9814957-.7720724 1.7877156-1.7535681 1.8007424l-16.6607193.000135c0 2.8872835 1.5702888 6.2082879 7.5039455 6.2082879 3.0306895 0 5.9994455-.8344619 8.9062681-2.5033857l.414853-.2440711c.5848761-.3525067 1.3447749-.1641341 1.6972816.420742.2469307.4097052.2335449.9206807-.0236159 1.3142483l-.0844449.1143293c-.4484628.5396202-4.5987086 4.689458-10.9103419 4.689458-6.8621607 0-11.8977031-4.833934-11.8977031-11.5635285 0-6.5400285 4.7887021-11.4687455 11.6508628-11.4687455zm0 3.7913208c-3.949445 0-6.6646884 2.2747925-7.2077371 5.6869812h13.9217936c-.5430487-3.4121887-2.9620837-5.6869812-6.7140565-5.6869812zm-15.0318087-12.59777857c1.1013657 0 1.994199.89283328 1.994199 1.99419896l-.0001422 17.24483051c.0212566.3010037.0320494.6059188.0320494.9144191 0 6.6841744-5.0665949 11.6852832-11.8548481 11.6852832-6.8374435 0-11.8548481-5.0011088-11.8548481-11.6852832 0-6.6841743 5.0174046-11.6852831 11.8548481-11.6852831 3.0655821 0 5.7800433 1.0199436 7.8353111 2.7542353l-.0007681-9.22820181c0-1.10136568.8928332-1.99419896 1.9941989-1.99419896zm-9.8287419 12.31517227c-4.476312 0-7.6244874 3.4142185-7.6244874 7.8382763 0 4.3278827 3.1481754 7.8382764 7.6244874 7.8382764 4.4763119 0 7.6244873-3.5103937 7.6244873-7.8382764 0-4.4240578-3.1481754-7.8382763-7.6244873-7.8382763zm-24.3871161-3.5087145c6.7882533 0 11.8548481 4.928717 11.8548481 11.516137 0 6.5874199-5.0665948 11.516137-11.8548481 11.516137-6.8374435 0-11.8548481-4.9287171-11.8548481-11.516137 0-6.58742 5.0174046-11.516137 11.8548481-11.516137zm0 3.7913208c-4.4763119 0-7.6244874 3.3647972-7.6244874 7.7248162 0 4.2652359 3.1481755 7.7248162 7.6244874 7.7248162s7.6244874-3.4595803 7.6244874-7.7248162c0-4.360019-3.1481755-7.7248162-7.6244874-7.7248162zm-22.363305-3.7913208c6.1935533 0 9.831037 4.0172571 9.831037 9.5468933v10.6942879c0 1.1673494-.9463236 2.113673-2.1136729 2.113673h-.113673c-1.1045695 0-2-.8954305-2-2v-10.477128c0-3.5919004-1.9170522-6.0967784-6.0460877-6.0967784-7.176657 0-7.176657 3.2650133-7.176657 7.2783247v11.2955817h-2.2273459c-1.1045695 0-2-.8954305-2-2 0-4.5504453 0-9.1008906 0-13.6513359 0-4.7776819 8.30722624-6.7035183 11.8463995-6.7035183z" fill="#040f20" stroke="#040e1f" stroke-width=".275"/></g><g fill="#8792a2" opacity=".499"><rect height="26" opacity=".3" rx="10" width="29" x="251.998" y="27.002"/><rect height="26" opacity=".3" rx="10" width="29" x="310.998" y="27.002"/><rect height="26" opacity=".3" rx="10" width="29" x="546.998" y="27.002"/><rect height="26" opacity=".3" rx="10" width="29" x="369.998" y="27.002"/><rect height="26" opacity=".3" rx="10" width="29" x="428.998" y="27.002"/><rect height="26" opacity=".3" rx="10" width="29" x="605.998" y="27.002"/><rect height="26" opacity=".3" rx="10" width="29" x="994" y="27"/><rect height="26" opacity=".3" rx="10" width="29" x="935" y="27"/><rect height="26" opacity=".3" rx="10" width="29" x="876" y="27"/><rect height="33" opacity=".6" rx="16" width="32" x="1050" y="24"/><rect height="26" opacity=".3" rx="10" width="29" x="487.998" y="27.002"/></g><g fill="#f84f77"><rect height="16" rx="8" width="16" x="390.998" y="19.002"/><rect height="16" rx="8" width="16" x="957" y="19"/></g></g></svg>