<svg height="1202" viewBox="0 0 1124 1202" width="1124" xmlns="http://www.w3.org/2000/svg"><g fill="none" fill-rule="evenodd"><path d="m0 0h1124v1202h-1124z" fill="#fff"/><g fill="#fff" opacity=".296"><rect height="12.716" rx="3" width="40.036" x="84.066" y="116.78"/><rect height="12.716" rx="3" width="83.074" x="134.111" y="116.78"/></g><g fill-rule="nonzero" transform="translate(50.998 16.002)"><path d="m127.35494 0c14.965147 0 27.096795 9.40202678 27.096795 21.0000146 0 11.5979878-12.131648 21.0000146-27.096795 21.0000146s-27.096796-9.4020268-27.096796-21.0000146c0-11.59798782 12.131649-21.0000146 27.096796-21.0000146zm2.303723 5.06869506h-.518578c-1.104569 0-2 .8954305-2 2l.001004 8.35677764c-1.827523-1.2687297-4.096013-1.9970638-6.626475-1.9970638-6.459439 0-11.280614 4.8149508-11.280614 11.2503177 0 6.435367 4.821175 11.2503178 11.280614 11.2503178 4.321423 0 7.878817-2.1241463 9.780688-5.4363945l.134578.1354832c2.008042 1.9660687 4.800179 3.1418279 7.992361 3.1418279 6.507136 0 11.282156-4.815609 11.282156-11.2518557 0-6.4362466-4.77502-11.2518556-11.282156-11.2518556-2.901591 0-5.472654.9714385-7.424768 2.6248391-.118878.1006873 0-3.551191 0-7.07381521 0-1.20978076-.894022-1.74857853-1.33881-1.74857853zm-9.303735 13.51123944c3.588756 0 6.112716 2.6678024 6.112716 6.1246732 0 3.3817213-2.52396 6.1246731-6.112716 6.1246731s-6.112716-2.7429518-6.112716-6.1246731c0-3.4568708 2.52396-6.1246732 6.112716-6.1246732zm18.59952-2.0274781c3.588756 0 6.112716 2.6678025 6.112716 6.1246732 0 3.3817214-2.52396 6.1246732-6.112716 6.1246732s-6.112716-2.7429518-6.112716-6.1246732c0-3.4568707 2.52396-6.1246732 6.112716-6.1246732zm-27.62503-9.38401962h-1.323564c-.409515 0-.741492.33262667-.741492.74294247v8.78149105c0 .1046449.032833.2066526.093872.291651.161075.2242981.473481.275551.697779.1144766l2.378507-1.708069c.392387-.2817834.625047-.7352999.625047-1.2183829v-5.2705768c0-.95740352-.774614-1.73353242-1.730149-1.73353242z" fill="#1851be"/><path d="m83.4573712 12.1935569c6.364562 0 10.91222 3.6731571 11.1490952 10.8802978l.008087.3514901c.0130268.9814957-.7720724 1.7877156-1.7535681 1.8007424l-16.6607193.000135c0 2.8872835 1.5702888 6.2082879 7.5039455 6.2082879 3.0306895 0 5.9994455-.8344619 8.9062681-2.5033857l.414853-.2440711c.5848761-.3525067 1.3447749-.1641341 1.6972816.420742.2469307.4097052.2335449.9206807-.0236159 1.3142483l-.0844449.1143293c-.4484628.5396202-4.5987086 4.689458-10.9103419 4.689458-6.8621607 0-11.8977031-4.833934-11.8977031-11.5635285 0-6.5400285 4.7887021-11.4687455 11.6508628-11.4687455zm0 3.7913208c-3.949445 0-6.6646884 2.2747925-7.2077371 5.6869812h13.9217936c-.5430487-3.4121887-2.9620837-5.6869812-6.7140565-5.6869812zm-15.0318087-12.59777857c1.1013657 0 1.994199.89283328 1.994199 1.99419896l-.0001422 17.24483051c.0212566.3010037.0320494.6059188.0320494.9144191 0 6.6841744-5.0665949 11.6852832-11.8548481 11.6852832-6.8374435 0-11.8548481-5.0011088-11.8548481-11.6852832 0-6.6841743 5.0174046-11.6852831 11.8548481-11.6852831 3.0655821 0 5.7800433 1.0199436 7.8353111 2.7542353l-.0007681-9.22820181c0-1.10136568.8928332-1.99419896 1.9941989-1.99419896zm-9.8287419 12.31517227c-4.476312 0-7.6244874 3.4142185-7.6244874 7.8382763 0 4.3278827 3.1481754 7.8382764 7.6244874 7.8382764 4.4763119 0 7.6244873-3.5103937 7.6244873-7.8382764 0-4.4240578-3.1481754-7.8382763-7.6244873-7.8382763zm-24.3871161-3.5087145c6.7882533 0 11.8548481 4.928717 11.8548481 11.516137 0 6.5874199-5.0665948 11.516137-11.8548481 11.516137-6.8374435 0-11.8548481-4.9287171-11.8548481-11.516137 0-6.58742 5.0174046-11.516137 11.8548481-11.516137zm0 3.7913208c-4.4763119 0-7.6244874 3.3647972-7.6244874 7.7248162 0 4.2652359 3.1481755 7.7248162 7.6244874 7.7248162s7.6244874-3.4595803 7.6244874-7.7248162c0-4.360019-3.1481755-7.7248162-7.6244874-7.7248162zm-22.363305-3.7913208c6.1935533 0 9.831037 4.0172571 9.831037 9.5468933v10.6942879c0 1.1673494-.9463236 2.113673-2.1136729 2.113673h-.113673c-1.1045695 0-2-.8954305-2-2v-10.477128c0-3.5919004-1.9170522-6.0967784-6.0460877-6.0967784-7.176657 0-7.176657 3.2650133-7.176657 7.2783247v11.2955817h-2.2273459c-1.1045695 0-2-.8954305-2-2 0-4.5504453 0-9.1008906 0-13.6513359 0-4.7776819 8.30722624-6.7035183 11.8463995-6.7035183z" fill="#040f20" stroke="#040e1f" stroke-width=".275"/></g><g fill="#8792a2" opacity=".499"><rect height="26" opacity=".3" rx="10" width="29" x="262.998" y="27.002"/><rect height="26" opacity=".3" rx="10" width="29" x="321.998" y="27.002"/><rect height="26" opacity=".3" rx="10" width="29" x="557.998" y="27.002"/><rect height="26" opacity=".3" rx="10" width="29" x="380.998" y="27.002"/><rect height="26" opacity=".3" rx="10" width="29" x="439.998" y="27.002"/><rect height="26" opacity=".3" rx="10" width="29" x="616.998" y="27.002"/><rect height="26" opacity=".3" rx="10" width="29" x="1005" y="27"/><rect height="26" opacity=".3" rx="10" width="29" x="946" y="27"/><rect height="26" opacity=".3" rx="10" width="29" x="887" y="27"/><rect height="33" opacity=".6" rx="16" width="32" x="1061" y="24"/><rect height="26" opacity=".3" rx="10" width="29" x="498.998" y="27.002"/></g><rect fill="#f84f77" height="16" rx="8" width="16" x="401.998" y="19.002"/><rect fill="#f84f77" height="16" rx="8" width="16" x="968" y="19"/><g transform="translate(31 120)"><rect fill="#8792a2" height="46.038" opacity=".322" rx="3" width="58.052" x="439.077" y="220.099"/><rect fill="#8792a2" height="46.038" opacity=".322" rx="3" width="57.051" x="353" y="220.099"/><rect fill="#8792a2" height="46.038" opacity=".322" rx="3" width="58.052" x="439.077" y="339.198"/><rect fill="#8792a2" height="46.038" opacity=".322" rx="3" width="57.051" x="353" y="339.198"/><rect fill="#8792a2" height="46.038" opacity=".322" rx="3" width="58.052" x="439.077" y="458.298"/><rect fill="#8792a2" height="46.038" opacity=".322" rx="3" width="57.051" x="353" y="458.298"/><rect fill="#8792a2" height="46.038" opacity=".322" rx="3" width="58.052" x="439.077" y="597.397"/><rect fill="#8792a2" height="46.038" opacity=".322" rx="3" width="57.051" x="353" y="597.397"/><rect fill="#8792a2" height="46.038" opacity=".322" rx="3" width="58.052" x="439.077" y="727.496"/><rect fill="#8792a2" height="46.038" opacity=".322" rx="3" width="57.051" x="353" y="727.496"/><rect fill="#8792a2" height="46.038" opacity=".322" rx="3" width="58.052" x="439.077" y="846.595"/><rect fill="#8792a2" height="46.038" opacity=".322" rx="3" width="57.051" x="353" y="846.595"/><rect fill="#8792a2" height="46.038" opacity=".322" rx="3" width="58.052" x="439.077" y="965.695"/><rect fill="#8792a2" height="46.038" opacity=".322" rx="3" width="57.051" x="353" y="965.695"/><rect fill="#eceef0" height="10.008" rx="3" width="57.051" x="353" y="275.146"/><rect fill="#eceef0" height="10.008" rx="3" width="57.051" x="440.077" y="275.146"/><rect fill="#eceef0" height="10.008" rx="3" width="57.051" x="353" y="394.245"/><rect fill="#eceef0" height="10.008" rx="3" width="57.051" x="440.077" y="394.245"/><rect fill="#eceef0" height="10.008" rx="3" width="57.051" x="353" y="513.344"/><rect fill="#eceef0" height="10.008" rx="3" width="57.051" x="440.077" y="513.344"/><rect fill="#eceef0" height="10.008" rx="3" width="57.051" x="353" y="652.444"/><rect fill="#eceef0" height="10.008" rx="3" width="57.051" x="440.077" y="652.444"/><rect fill="#eceef0" height="10.008" rx="3" width="57.051" x="353" y="782.543"/><rect fill="#eceef0" height="10.008" rx="3" width="57.051" x="440.077" y="782.543"/><rect fill="#eceef0" height="10.008" rx="3" width="57.051" x="353" y="901.642"/><rect fill="#eceef0" height="10.008" rx="3" width="57.051" x="440.077" y="901.642"/><rect fill="#eceef0" height="10.008" rx="3" width="57.051" x="353" y="1020.741"/><rect fill="#eceef0" height="10.008" rx="3" width="57.051" x="440.077" y="1020.741"/><rect fill="#f84f77" height="66" rx="3" width="12" x="520.553" y="219.998"/><rect fill="#1851be" height="66" rx="3" width="12" x="520.553" y="338.998"/><rect fill="#bccceb" height="66" rx="3" width="12" x="520.553" y="456.998"/><rect fill="#512da8" height="66" rx="3" width="12" x="520.553" y="596.998"/><rect fill="#8369c0" height="66" rx="3" width="12" x="520.553" y="726.998"/><rect fill="#bfe5e1" height="66" rx="3" width="12" x="520.553" y="845.998"/><g fill="#8792a2"><rect height="25.021" opacity=".32" rx="11.5" width="25.022" x="555.305" y="220.099"/><rect height="25.021" opacity=".32" rx="11.5" width="25.022" x="555.305" y="339.198"/><rect height="25.021" opacity=".32" rx="11.5" width="25.022" x="555.305" y="458.298"/><rect height="25.021" opacity=".32" rx="11.5" width="25.022" x="555.305" y="597.397"/><rect height="25.021" opacity=".32" rx="11.5" width="25.022" x="555.305" y="727.496"/><rect height="25.021" opacity=".32" rx="11.5" width="25.022" x="555.305" y="846.595"/><rect height="25.021" opacity=".32" rx="11.5" width="25.022" x="555.305" y="965.695"/><rect height="10.008" opacity=".164" rx="3" width="57.051" x="590.372" y="228.309"/><rect height="10.008" opacity=".164" rx="3" width="124.11" x="555.341" y="251.329"/><rect height="10.008" opacity=".164" rx="3" width="48.043" x="684.456" y="251.329"/><rect height="10.008" opacity=".164" rx="3" width="53.047" x="555.341" y="266.341"/><rect height="10.008" opacity=".164" rx="3" width="57.051" x="590.372" y="347.409"/><rect height="10.008" opacity=".164" rx="3" width="124.11" x="555.341" y="370.428"/><rect height="10.008" opacity=".164" rx="3" width="48.043" x="684.456" y="370.428"/><rect height="10.008" opacity=".164" rx="3" width="53.047" x="555.341" y="385.44"/><rect height="10.008" opacity=".164" rx="3" width="57.051" x="590.372" y="466.508"/><rect height="10.008" opacity=".164" rx="3" width="74.066" x="555.341" y="489.527"/><rect height="10.008" opacity=".164" rx="3" width="98.087" x="634.411" y="489.527"/><rect height="10.008" opacity=".164" rx="3" width="110.098" x="555.341" y="504.523"/><rect height="10.008" opacity=".164" rx="3" width="57.051" x="590.372" y="605.607"/><rect height="10.008" opacity=".164" rx="3" width="102.091" x="555.341" y="628.626"/><rect height="10.008" opacity=".164" rx="3" width="53.047" x="555.341" y="643.639"/><rect height="10.008" opacity=".164" rx="3" width="70.062" x="613.393" y="643.639"/><rect height="10.008" opacity=".164" rx="3" width="57.051" x="590.372" y="735.706"/><rect height="10.008" opacity=".164" rx="3" width="124.11" x="555.341" y="758.726"/><rect height="10.008" opacity=".164" rx="3" width="48.043" x="684.456" y="758.726"/><rect height="10.008" opacity=".164" rx="3" width="53.047" x="555.341" y="773.738"/><rect height="10.008" opacity=".164" rx="3" width="57.051" x="590.372" y="854.806"/><rect height="10.008" opacity=".164" rx="3" width="124.11" x="555.341" y="877.825"/><rect height="10.008" opacity=".164" rx="3" width="53.047" x="555.341" y="892.837"/><rect height="10.008" opacity=".164" rx="3" width="57.051" x="590.372" y="973.905"/><rect height="10.008" opacity=".164" rx="3" width="124.11" x="555.341" y="996.924"/><rect height="10.008" opacity=".164" rx="3" width="53.047" x="555.341" y="1011.937"/><ellipse cx="35.62" cy="253.331" opacity=".24" rx="35.031" ry="35.029"/><path d="m177.552983 244.998332c3.865993 0 7 3.134007 7 7s-3.134007 7-7 7h-82.9999999c-3.8659933 0-7-3.134007-7-7s3.1340067-7 7-7zm90 0c3.865993 0 7 3.134007 7 7s-3.134007 7-7 7h-69c-3.865993 0-7-3.134007-7-7s3.134007-7 7-7z" opacity=".4"/><rect height="15.475" opacity=".4" rx="7.738" width="235" x="87.666" y="220.304"/><ellipse cx="35.62" cy="372.43" opacity=".24" rx="35.031" ry="35.029"/><path d="m159.552983 363.998332c3.865993 0 7 3.134007 7 7s-3.134007 7-7 7h-64.9999999c-3.8659933 0-7-3.134007-7-7s3.1340067-7 7-7zm127 0c3.865993 0 7 3.134007 7 7s-3.134007 7-7 7h-105c-3.865993 0-7-3.134007-7-7s3.134007-7 7-7z" opacity=".4"/><rect height="15.475" opacity=".4" rx="7.738" width="180" x="87.666" y="339.403"/><ellipse cx="35.62" cy="491.53" opacity=".24" rx="35.031" ry="35.029"/></g><circle cx="95.553" cy="527.998" fill="#1851be" r="9"/><rect fill="#eceef0" height="12" rx="5" width="69" x="109.553" y="521.998"/><rect fill="#eceef0" height="12" rx="5" width="52" x="109.553" y="544.998"/><circle cx="95.553" cy="550.998" fill="#f84f77" r="9"/><circle cx="207.553" cy="527.998" fill="#bccceb" r="9"/><rect fill="#eceef0" height="12" rx="5" width="69" x="221.553" y="544.998"/><rect fill="#eceef0" height="12" rx="5" width="96" x="221.553" y="520.998"/><circle cx="95.553" cy="664.998" fill="#512da8" r="9"/><rect fill="#eceef0" height="12" rx="5" width="69" x="109.553" y="658.998"/><circle cx="207.553" cy="664.998" fill="#8369c0" r="9"/><rect fill="#eceef0" height="12" rx="5" width="64" x="221.553" y="658.998"/><circle cx="95.553" cy="903.998" fill="#bfe5e1" r="9"/><rect fill="#eceef0" height="12" rx="6" width="69" x="109.553" y="897.998"/><circle cx="207.553" cy="903.998" fill="#0e423c" r="9"/><rect fill="#eceef0" height="12" rx="6" width="109" x="221.553" y="897.998"/><circle cx="207.553" cy="550.998" fill="#8792a2" r="9"/><rect fill="#8792a2" height="14" opacity=".4" rx="7" width="231" x="87.553" y="482.998"/><rect fill="#8792a2" height="15.475" opacity=".4" rx="7.738" width="163" x="87.666" y="458.502"/><ellipse cx="35.62" cy="630.629" fill="#8792a2" opacity=".24" rx="35.031" ry="35.029"/><path d="m154.552983 621.998332c3.865993 0 7 3.134007 7 7s-3.134007 7-7 7h-59.9999999c-3.8659933 0-7-3.134007-7-7s3.1340067-7 7-7zm116 0c3.865993 0 7 3.134007 7 7s-3.134007 7-7 7h-92c-3.865993 0-7-3.134007-7-7s3.134007-7 7-7z" fill="#8792a2" opacity=".4"/><rect fill="#8792a2" height="15.475" opacity=".4" rx="7.738" width="124" x="87.666" y="597.601"/><ellipse cx="35.62" cy="759.728" fill="#8792a2" opacity=".24" rx="35.031" ry="35.029"/><path d="m188.552983 751.998332c3.865993 0 7 3.134007 7 7s-3.134007 7-7 7h-93.9999999c-3.8659933 0-7-3.134007-7-7s3.1340067-7 7-7zm102 0c3.865993 0 7 3.134007 7 7s-3.134007 7-7 7h-80c-3.865993 0-7-3.134007-7-7s3.134007-7 7-7z" fill="#8792a2" opacity=".4"/><rect fill="#8792a2" height="15.475" opacity=".4" rx="7.738" width="187" x="87.666" y="726.701"/><ellipse cx="35.62" cy="878.827" fill="#8792a2" opacity=".24" rx="35.031" ry="35.029"/><path d="m157.496941 870.370309c3.997271 0 7.237698 3.240428 7.237698 7.237698s-3.240427 7.237698-7.237698 7.237698h-62.59317c-3.9972702 0-7.237698-3.240428-7.237698-7.237698s3.2404278-7.237698 7.237698-7.237698zm120.106857 0c3.99727 0 7.237698 3.240428 7.237698 7.237698s-3.240428 7.237698-7.237698 7.237698h-95.622556c-3.99727 0-7.237698-3.240428-7.237698-7.237698s3.240428-7.237698 7.237698-7.237698z" fill="#8792a2" opacity=".4"/><rect fill="#8792a2" height="15.475" opacity=".4" rx="7.738" width="223" x="87.666" y="845.8"/><rect fill="#0e423c" height="66" rx="3" width="12" x="520.553" y="965.998"/><ellipse cx="35.62" cy="997.927" fill="#8792a2" opacity=".24" rx="35.031" ry="35.029"/><path d="m130.552983 989.998332c3.865993 0 7 3.134007 7 7 0 3.865998-3.134007 6.999998-7 6.999998h-35.9999999c-3.8659933 0-7-3.134-7-6.999998 0-3.865993 3.1340067-7 7-7zm79 0c3.865993 0 7 3.134007 7 7 0 3.865998-3.134007 6.999998-7 6.999998h-58c-3.865993 0-7-3.134-7-6.999998 0-3.865993 3.134007-7 7-7z" fill="#8792a2" opacity=".4"/><rect fill="#8792a2" height="15.475" opacity=".4" rx="7.738" width="181" x="87.666" y="964.899"/><rect fill="#d7d0e9" height="120" opacity=".598" rx="3" width="235" x="798.553" y="218.998"/><rect fill="#512da8" height="10" opacity=".666" rx="5" width="60" x="811.553" y="234.998"/><rect fill="#512da8" height="10" opacity=".298" rx="5" width="145" x="876.553" y="234.998"/><rect fill="#512da8" height="10" opacity=".298" rx="5" width="210" x="811.553" y="253.998"/><rect fill="#512da8" height="10" opacity=".298" rx="5" width="145" x="811.553" y="272.998"/><rect fill="#512da8" height="10" opacity=".298" rx="5" width="98" x="811.553" y="291.998"/><rect fill="#d7d0e9" height="120" opacity=".598" rx="3" width="235" x="798.553" y="348.998"/><rect fill="#512da8" height="10" opacity=".673" rx="5" width="88" x="811.553" y="364.998"/><rect fill="#512da8" height="10" opacity=".298" rx="5" width="117" x="904.553" y="364.998"/><rect fill="#512da8" height="10" opacity=".298" rx="5" width="194" x="811.553" y="383.998"/><rect fill="#512da8" height="10" opacity=".298" rx="5" width="210" x="811.553" y="402.998"/><rect fill="#512da8" height="10" opacity=".298" rx="5" width="145" x="811.553" y="421.998"/><rect fill="#1851be" height="120" rx="5" width="237" x="2.553" y="38.998"/><rect fill="#fff" height="10" opacity=".966" rx="5" width="210" x="15.553" y="58.998"/><rect fill="#fff" height="10" opacity=".598" rx="5" width="125" x="15.553" y="77.998"/><rect fill="#fff" height="10" opacity=".298" rx="5" transform="matrix(-1 0 0 1 371.106 0)" width="80" x="145.553" y="77.998"/><rect fill="#fff" height="20" opacity=".298" rx="3" transform="matrix(-1 0 0 1 51.106 0)" width="20" x="15.553" y="128.998"/><rect fill="#fff" height="10" opacity=".598" rx="3" transform="matrix(-1 0 0 1 433.106 0)" width="20" x="206.553" y="133.998"/><rect fill="#8792a2" height="8" opacity=".241" rx="3" width="12" x="90.553" y="5.998"/><rect fill="#1851be" height="18" rx="9" width="83" x="2.553" y=".998"/><rect fill="#8792a2" height="18" opacity=".141" rx="9" width="125" x="107.553" y=".998"/><rect fill="#f84f77" height="120" opacity=".25" rx="5" width="237" x="266.553" y="38.998"/><rect fill="#f84f77" height="10" opacity=".866" rx="5" width="210" x="279.553" y="58.998"/><rect fill="#f84f77" height="10" opacity=".498" rx="5" width="128" x="279.553" y="77.998"/><rect fill="#f84f77" height="10" opacity=".198" rx="5" width="77" x="412.553" y="77.998"/><rect fill="#512da8" height="120" rx="5" width="237" x="531.553" y="38.998"/><rect fill="#bfe5e1" height="120" rx="5" width="237" x="796.553" y="38.998"/><path d="m984.552983 498.998332h45.999997c1.65686 0 3 1.343146 3 3v24c0 1.656854-1.34314 3-3 3h-45.999997zm0 50h45.999997c1.65686 0 3 1.343146 3 3v24c0 1.656854-1.34314 3-3 3h-45.999997zm0 50h45.999997c1.65686 0 3 1.343146 3 3v24c0 1.656854-1.34314 3-3 3h-45.999997zm0 50h45.999997c1.65686 0 3 1.343146 3 3v24c0 1.656854-1.34314 3-3 3h-45.999997zm0 50h45.999997c1.65686 0 3 1.343146 3 3v24c0 1.656854-1.34314 3-3 3h-45.999997zm0 50h45.999997c1.65686 0 3 1.343146 3 3v24c0 1.656854-1.34314 3-3 3h-45.999997z" fill="#1851be" opacity=".197"/><rect fill="#1851be" height="10" opacity=".383" rx="5" width="36" x="991.553" y="508.998"/><rect fill="#1851be" height="10" opacity=".383" rx="5" width="36" x="991.553" y="558.998"/><rect fill="#1851be" height="10" opacity=".383" rx="5" width="36" x="991.553" y="608.998"/><rect fill="#1851be" height="10" opacity=".383" rx="5" width="36" x="991.553" y="658.998"/><rect fill="#1851be" height="10" opacity=".383" rx="5" width="36" x="991.553" y="708.998"/><rect fill="#1851be" height="10" opacity=".383" rx="5" width="36" x="991.553" y="758.998"/><path d="m801.552983 498.998332h183v30h-183c-1.656854 0-3-1.343146-3-3v-24c0-1.656854 1.343146-3 3-3zm0 50h183v30h-183c-1.656854 0-3-1.343146-3-3v-24c0-1.656854 1.343146-3 3-3z" fill="#1851be" opacity=".117"/><path d="m801.552983 598.998332h183v30h-183c-1.656854 0-3-1.343146-3-3v-24c0-1.656854 1.343146-3 3-3z" fill="#1851be" opacity=".125"/><path d="m801.552983 648.998332h183v30h-183c-1.656854 0-3-1.343146-3-3v-24c0-1.656854 1.343146-3 3-3zm0 50h183v30h-183c-1.656854 0-3-1.343146-3-3v-24c0-1.656854 1.343146-3 3-3z" fill="#1851be" opacity=".117"/><rect fill="#fff" height="10" opacity=".966" rx="5" width="176" x="544.553" y="58.998"/><rect fill="#fff" height="10" opacity=".598" rx="5" width="128" x="544.553" y="77.998"/><rect fill="#fff" height="10" opacity=".298" rx="5" transform="matrix(-1 0 0 1 1427.106 0)" width="72" x="677.553" y="77.998"/><rect fill="#0e423c" height="10" opacity=".966" rx="5" width="164" x="809.553" y="58.998"/><rect fill="#0e423c" height="10" opacity=".598" rx="5" width="148" x="809.553" y="77.998"/><rect fill="#0e423c" height="10" opacity=".298" rx="5" transform="matrix(-1 0 0 1 1981.106 0)" width="56" x="962.553" y="77.998"/><path d="m801.552983 748.998332h183v30h-183c-1.656854 0-3-1.343146-3-3v-24c0-1.656854 1.343146-3 3-3z" fill="#1851be" opacity=".117"/><rect height="99" rx="3" stroke="#eceef0" width="234" x="799.053" y="799.498"/><rect fill="#8792a2" height="32" opacity=".425" rx="16" width="32" x="813.553" y="848.998"/><rect fill="#8792a2" height="32" opacity=".425" rx="16" width="32" x="855.553" y="848.998"/><rect fill="#8792a2" height="32" opacity=".425" rx="16" width="32" x="897.553" y="848.998"/><rect fill="#8792a2" height="32" opacity=".425" rx="16" width="32" x="939.553" y="848.998"/><path d="m801.552983 798.998332h228.999997c1.65686 0 3 1.343146 3 3v33h-234.999997v-33c0-1.656854 1.343146-3 3-3z" fill="#eceef0"/><rect fill="#8792a2" height="12" opacity=".483" rx="6" width="84" x="813.553" y="810.998"/><rect fill="#fff" height="10" opacity=".717" rx="3" width="89" x="811.553" y="508.998"/><rect fill="#fff" height="10" opacity=".717" rx="3" width="114" x="811.553" y="558.998"/><rect fill="#fff" height="10" opacity=".717" rx="3" width="78" x="811.553" y="608.998"/><rect fill="#fff" height="10" opacity=".717" rx="3" width="114" x="811.553" y="658.998"/><rect fill="#fff" height="10" opacity=".717" rx="3" width="60" x="811.553" y="708.998"/><rect fill="#fff" height="10" opacity=".717" rx="3" width="84" x="811.553" y="758.998"/><path d="m801.552983 498.998332h169v30h-169c-1.656854 0-3-1.343146-3-3v-24c0-1.656854 1.343146-3 3-3zm0 50h156v30h-156c-1.656854 0-3-1.343146-3-3v-24c0-1.656854 1.343146-3 3-3zm0 50h99v30h-99c-1.656854 0-3-1.343146-3-3v-24c0-1.656854 1.343146-3 3-3zm0 50h90v30h-90c-1.656854 0-3-1.343146-3-3v-24c0-1.656854 1.343146-3 3-3z" fill="#1851be" opacity=".2"/><path d="m801.552983 698.998332h61v30h-61c-1.656854 0-3-1.343146-3-3v-24c0-1.656854 1.343146-3 3-3z" fill="#1851be" opacity=".197"/><path d="m801.552983 748.998332h49v30h-49c-1.656854 0-3-1.343146-3-3v-24c0-1.656854 1.343146-3 3-3z" fill="#1851be" opacity=".2"/><rect fill="#8792a2" height="14" opacity=".364" rx="3" width="76" x="1.553" y="178.998"/><rect fill="#f84f77" height="20" opacity=".198" rx="3" transform="matrix(-1 0 0 1 579.106 0)" width="20" x="279.553" y="128.998"/><rect fill="#fff" height="20" opacity=".298" rx="3" transform="matrix(-1 0 0 1 1109.106 0)" width="20" x="544.553" y="128.998"/><rect fill="#0e423c" height="20" opacity=".298" rx="3" transform="matrix(-1 0 0 1 1639.106 0)" width="20" x="809.553" y="128.998"/><rect fill="#f84f77" height="10" opacity=".498" rx="3" transform="matrix(-1 0 0 1 959.106 0)" width="20" x="469.553" y="133.998"/><rect fill="#fff" height="10" opacity=".598" rx="3" transform="matrix(-1 0 0 1 1491.106 0)" width="20" x="735.553" y="133.998"/><rect fill="#0e423c" height="10" opacity=".598" rx="3" transform="matrix(-1 0 0 1 2017.106 0)" width="20" x="998.553" y="133.998"/></g></g></svg>