<svg height="1112" viewBox="0 0 611 1112" width="611" xmlns="http://www.w3.org/2000/svg" xmlns:xlink="http://www.w3.org/1999/xlink"><defs><linearGradient id="a" x1="50.007%" x2="50.007%" y1="-141.4%" y2="-47.015%"><stop offset="0" stop-color="#2a6cbe"/><stop offset=".38688" stop-color="#2062bc"/><stop offset=".49182" stop-color="#1f5fbc"/><stop offset=".66583" stop-color="#1c5abd"/><stop offset=".85354" stop-color="#1956bc"/><stop offset="1" stop-color="#1851be"/></linearGradient><linearGradient id="b" x1="50%" x2="50%" y1="0%" y2="100%"><stop offset="0" stop-color="#f1f1f1" stop-opacity=".22"/><stop offset=".41652" stop-color="#fff" stop-opacity=".548"/><stop offset=".62476" stop-color="#eceef0" stop-opacity=".28"/><stop offset="1" stop-color="#8792a2" stop-opacity=".16"/></linearGradient><circle id="c" cx="256" cy="277" r="65"/><filter id="d" height="156%" width="156%" x="-28%" y="-28%"><feMorphology in="SourceAlpha" operator="dilate" radius=".375" result="shadowSpreadOuter1"/><feOffset dy="3" in="shadowSpreadOuter1" result="shadowOffsetOuter1"/><feGaussianBlur in="shadowOffsetOuter1" result="shadowBlurOuter1" stdDeviation="7"/><feComposite in="shadowBlurOuter1" in2="SourceAlpha" operator="out" result="shadowBlurOuter1"/><feColorMatrix in="shadowBlurOuter1" result="shadowMatrixOuter1" values="0 0 0 0 0.529411765   0 0 0 0 0.57254902   0 0 0 0 0.635294118  0 0 0 0.282315341 0"/><feMorphology in="SourceAlpha" operator="dilate" radius=".375" result="shadowSpreadOuter2"/><feOffset in="shadowSpreadOuter2" result="shadowOffsetOuter2"/><feGaussianBlur in="shadowOffsetOuter2" result="shadowBlurOuter2" stdDeviation="12"/><feComposite in="shadowBlurOuter2" in2="SourceAlpha" operator="out" result="shadowBlurOuter2"/><feColorMatrix in="shadowBlurOuter2" result="shadowMatrixOuter2" values="0 0 0 0 0.529411765   0 0 0 0 0.57254902   0 0 0 0 0.635294118  0 0 0 0.08 0"/><feMerge><feMergeNode in="shadowMatrixOuter1"/><feMergeNode in="shadowMatrixOuter2"/></feMerge></filter><filter id="e" height="139%" width="139%" x="-19.5%" y="-19.5%"><feGaussianBlur in="SourceAlpha" result="shadowBlurInner1" stdDeviation=".5"/><feOffset dy="1" in="shadowBlurInner1" result="shadowOffsetInner1"/><feComposite in="shadowOffsetInner1" in2="SourceAlpha" k2="-1" k3="1" operator="arithmetic" result="shadowInnerInner1"/><feColorMatrix in="shadowInnerInner1" values="0 0 0 0 1   0 0 0 0 1   0 0 0 0 1  0 0 0 0.5 0"/></filter></defs><g fill="none" fill-rule="evenodd"><path d="m0 0h611v1112h-611z" fill="#fff"/><g transform="translate(-1 25)"><g transform="translate(21 85)"><rect fill="url(#a)" height="42" rx="5" width="161" x=".964" y=".885"/><g fill="#fff" opacity=".296"><rect height="10" rx="5" width="31.88" x="27.964" y="16.885"/><rect height="10" rx="5" width="66.15" x="67.814" y="16.885"/></g></g><path d="m0 237h612v97h-612z" fill="#eceef0"/><g fill="#000306"><rect height="5.5" rx="2.75" width="30" x="21" y="14"/><rect height="5.5" rx="2.75" width="30" x="21" y="25"/></g><rect height="51.795" rx="5" stroke="#8792a2" stroke-opacity=".24" stroke-width="2.25" width="83.216" x="506.552" y="81.01"/><rect fill="#8792a2" height="12.906" opacity=".176" rx="6.453" width="18.925" x="521.299" y="100.051"/><rect fill="#8792a2" height="12.906" opacity=".176" rx="6.453" width="29.303" x="543.276" y="100.051"/><rect height="51.795" rx="5" stroke="#8792a2" stroke-opacity=".24" stroke-width="2.25" width="83.216" x="414.552" y="81.01"/><rect fill="#8792a2" height="12.906" opacity=".176" rx="6.453" width="35.407" x="429.299" y="100.051"/><rect fill="#8792a2" height="12.906" opacity=".176" rx="6.453" width="15.872" x="467.759" y="100.051"/><circle cx="51.464" cy="277.445" fill="#8792a2" opacity=".24" r="28.5"/><g transform="translate(21.964 178.945)"><path d="m127.297888 88.4297521c3.195036 0 5.785124 2.5900882 5.785124 5.7851239 0 3.1950358-2.590088 5.785124-5.785124 5.785124h-50.512764c-3.1950358 0-5.785124-2.5900882-5.785124-5.785124 0-3.1950357 2.5900882-5.7851239 5.785124-5.7851239zm96.752745 0c3.195036 0 5.785124 2.5900882 5.785124 5.7851239 0 3.1950358-2.590088 5.785124-5.785124 5.785124h-77.119768c-3.195036 0-5.785124-2.5900882-5.785124-5.785124 0-3.1950357 2.590088-5.7851239 5.785124-5.7851239zm128.197388-16.4297521c3.195036 0 5.785124 2.5900882 5.785124 5.785124 0 3.1950357-2.590088 5.7851239-5.785124 5.7851239h-275.462897c-3.1950358 0-5.785124-2.5900882-5.785124-5.7851239 0-3.1950358 2.5900882-5.785124 5.785124-5.785124z" fill="#8792a2" opacity=".475"/><rect fill="#1851be" height="20.166" rx="10.078" width="20.157" x="549.816" y="72.055"/><rect fill="#8792a2" height="13.066" opacity=".164" rx="5" width="35.958" x="498.036" y="75.701"/><rect fill="#1851be" height="13.066" rx="6.533" width="39" x=".036" y=".055"/><rect fill="#8792a2" height="13.066" opacity=".164" rx="3" width="10" x="49.036" y=".055"/><rect fill="#8792a2" height="13.066" opacity=".164" rx="6.533" width="83" x="69.036" y=".055"/><rect fill="#8792a2" height="13.066" opacity=".164" rx="6.533" width="39" x="162.036" y=".055"/><rect fill="#8792a2" height="20.166" opacity=".578" rx="10.078" width="20.157" x="548.816" y="175.101"/><rect fill="#8792a2" height="13.066" opacity=".164" rx="5" width="35.958" x="497.036" y="178.748"/><rect fill="#1851be" height="20.166" rx="10.078" width="20.157" x="548.816" y="278.147"/><rect fill="#8792a2" height="13.066" opacity=".164" rx="5" width="35.958" x="497.036" y="281.794"/><rect fill="#1851be" height="20.166" rx="10.078" width="20.157" x="548.816" y="380.193"/><rect fill="#8792a2" height="13.066" opacity=".164" rx="5" width="35.958" x="497.036" y="383.84"/><rect fill="#1851be" height="20.166" rx="10.078" width="20.157" x="548.816" y="484.239"/><g fill="#8792a2"><rect height="13.066" opacity=".164" rx="5" width="35.958" x="497.036" y="487.886"/><rect height="20.166" opacity=".578" rx="10.078" width="20.157" x="548.816" y="587.285"/><rect height="13.066" opacity=".164" rx="5" width="35.958" x="497.036" y="590.932"/><rect height="20.166" opacity=".578" rx="10.078" width="20.157" x="548.816" y="689.331"/><rect height="13.066" opacity=".164" rx="5" width="35.958" x="497.036" y="692.978"/><rect height="20.166" opacity=".578" rx="10.078" width="20.157" x="548.816" y="792.377"/><rect height="13.066" opacity=".164" rx="5" width="35.958" x="497.036" y="796.024"/></g></g><rect fill="#8792a2" height="8.102" opacity=".158" rx="3" width="34.541" x="117.93" y="308.996"/><rect fill="#f84f77" height="16.204" rx="5" width="16.066" x="93.964" y="304.945"/><rect fill="#1851be" height="16.204" rx="5" width="16.066" x="91.965" y="407.991"/><rect fill="#8792a2" height="8.102" opacity=".158" rx="3" width="34.541" x="117.93" y="412.042"/><rect fill="#bccceb" height="16.204" rx="5" width="16.066" x="91.965" y="511.037"/><rect fill="#8792a2" height="8.102" opacity=".158" rx="3" width="34.541" x="117.93" y="515.088"/><rect fill="#512da8" height="16.204" rx="5" width="16.066" x="91.965" y="613.083"/><rect fill="#8792a2" height="8.102" opacity=".158" rx="3" width="34.541" x="117.93" y="617.134"/><rect fill="#8369c0" height="16.204" rx="5" width="16.066" x="91.965" y="716.129"/><rect fill="#8792a2" height="8.102" opacity=".158" rx="3" width="34.541" x="117.93" y="720.18"/><rect fill="#bfe5e1" height="16.204" rx="5" width="16.066" x="91.965" y="820.175"/><rect fill="#8792a2" height="8.102" opacity=".158" rx="3" width="34.541" x="117.93" y="824.226"/><rect fill="#0e423c" height="16.204" rx="5" width="16.066" x="91.965" y="922.221"/><g fill="#8792a2"><rect height="8.102" opacity=".158" rx="3" width="34.541" x="117.93" y="926.272"/><g><rect height="16.204" rx="5" width="16.066" x="91.965" y="1025.267"/><rect height="8.102" opacity=".158" rx="3" width="34.541" x="117.93" y="1029.318"/></g><g transform="translate(21 351)"><circle cx="29.464" cy="29.491" opacity=".24" r="28.5"/><path d="m112.736989 16.4297521c3.195036 0 5.785124 2.5900882 5.785124 5.7851239 0 3.1950358-2.590088 5.785124-5.785124 5.785124h-106.95186503c-3.19503575 0-5.78512397-2.5900882-5.78512397-5.785124 0-3.1950357 2.59008822-5.7851239 5.78512397-5.7851239zm108.846839 0c3.195036 0 5.785124 2.5900882 5.785124 5.7851239 0 3.1950358-2.590088 5.785124-5.785124 5.785124h-89.213862c-3.195036 0-5.785124-2.5900882-5.785124-5.785124 0-3.1950357 2.590088-5.7851239 5.785124-5.7851239zm59.664193-16.4297521c3.195036 0 5.785124 2.59008822 5.785124 5.78512397 0 3.19503574-2.590088 5.78512393-5.785124 5.78512393h-275.46289703c-3.19503575 0-5.78512397-2.59008819-5.78512397-5.78512393 0-3.19503575 2.59008822-5.78512397 5.78512397-5.78512397z" opacity=".4" transform="translate(70.964 2.991)"/></g><g transform="translate(21 455)"><circle cx="29.464" cy="28.537" opacity=".24" r="28.5"/><path d="m56.2978878 16.4297521c3.1950357 0 5.785124 2.5900882 5.785124 5.7851239 0 3.1950358-2.5900883 5.785124-5.785124 5.785124h-50.51276383c-3.19503575 0-5.78512397-2.5900882-5.78512397-5.785124 0-3.1950357 2.59008822-5.7851239 5.78512397-5.7851239zm96.7527452 0c3.195036 0 5.785124 2.5900882 5.785124 5.7851239 0 3.1950358-2.590088 5.785124-5.785124 5.785124h-77.1197685c-3.1950357 0-5.7851239-2.5900882-5.7851239-5.785124 0-3.1950357 2.5900882-5.7851239 5.7851239-5.7851239zm128.197388-16.4297521c3.195036 0 5.785124 2.59008822 5.785124 5.78512397 0 3.19503574-2.590088 5.78512393-5.785124 5.78512393h-275.46289703c-3.19503575 0-5.78512397-2.59008819-5.78512397-5.78512393 0-3.19503575 2.59008822-5.78512397 5.78512397-5.78512397z" opacity=".4" transform="translate(70.964 2.037)"/></g><g transform="translate(21 557)"><circle cx="29.464" cy="28.583" opacity=".24" r="28.5"/><path d="m56.2978878 16.4297521c3.1950357 0 5.785124 2.5900882 5.785124 5.7851239 0 3.1950358-2.5900883 5.785124-5.785124 5.785124h-50.51276383c-3.19503575 0-5.78512397-2.5900882-5.78512397-5.785124 0-3.1950357 2.59008822-5.7851239 5.78512397-5.7851239zm185.4427622 0c3.195036 0 5.785124 2.5900882 5.785124 5.7851239 0 3.1950358-2.590088 5.785124-5.785124 5.785124h-165.8097855c-3.1950357 0-5.7851239-2.5900882-5.7851239-5.785124 0-3.1950357 2.5900882-5.7851239 5.7851239-5.7851239zm-14.512912-16.4297521c3.195036 0 5.785124 2.59008822 5.785124 5.78512397 0 3.19503574-2.590088 5.78512393-5.785124 5.78512393h-221.44261403c-3.19503575 0-5.78512397-2.59008819-5.78512397-5.78512393 0-3.19503575 2.59008822-5.78512397 5.78512397-5.78512397z" opacity=".4" transform="translate(70.964 2.083)"/></g><g transform="translate(21 661)"><circle cx="29.464" cy="28.629" opacity=".24" r="28.5"/><path d="m56.2978878 16.5217819c3.1950357 0 5.785124 2.5900882 5.785124 5.7851239 0 3.1950358-2.5900883 5.785124-5.785124 5.785124h-50.51276383c-3.19503575 0-5.78512397-2.5900882-5.78512397-5.785124 0-3.1950357 2.59008822-5.7851239 5.78512397-5.7851239zm96.7527452 0c3.195036 0 5.785124 2.5900882 5.785124 5.7851239 0 3.1950358-2.590088 5.785124-5.785124 5.785124h-77.1197685c-3.1950357 0-5.7851239-2.5900882-5.7851239-5.785124 0-3.1950357 2.5900882-5.7851239 5.7851239-5.7851239zm128.197388-16.42975208c3.195036 0 5.785124 2.59008822 5.785124 5.78512396 0 3.19503575-2.590088 5.78512402-5.785124 5.78512402h-275.46289703c-3.19503575 0-5.78512397-2.59008827-5.78512397-5.78512402 0-3.19503574 2.59008822-5.78512396 5.78512397-5.78512396z" opacity=".4" transform="translate(70.964 1.129)"/></g><g transform="translate(21 764)"><circle cx="29.464" cy="28.675" opacity=".24" r="28.5"/><path d="m104.674261 16.4297521c3.195035 0 5.785124 2.5900882 5.785124 5.7851239 0 3.1950358-2.590089 5.785124-5.785124 5.785124h-98.88913703c-3.19503575 0-5.78512397-2.5900882-5.78512397-5.785124 0-3.1950357 2.59008822-5.7851239 5.78512397-5.7851239zm104.815474 0c3.195036 0 5.785124 2.5900882 5.785124 5.7851239 0 3.1950358-2.590088 5.785124-5.785124 5.785124h-85.182498c-3.195035 0-5.785124-2.5900882-5.785124-5.785124 0-3.1950357 2.590089-5.7851239 5.785124-5.7851239zm42.732463-16.4297521c3.195035 0 5.785124 2.59008822 5.785124 5.78512397 0 3.19503574-2.590089 5.78512393-5.785124 5.78512393h-246.43707403c-3.19503575 0-5.78512397-2.59008819-5.78512397-5.78512393 0-3.19503575 2.59008822-5.78512397 5.78512397-5.78512397z" opacity=".4" transform="translate(70.964 2.175)"/></g><g transform="translate(21 866)"><circle cx="29.464" cy="28.721" opacity=".24" r="28.5"/><path d="m56.2978878 16.4297521c3.1950357 0 5.785124 2.5900882 5.785124 5.7851239 0 3.1950358-2.5900883 5.785124-5.785124 5.785124h-50.51276383c-3.19503575 0-5.78512397-2.5900882-5.78512397-5.785124 0-3.1950357 2.59008822-5.7851239 5.78512397-5.7851239zm96.7527452 0c3.195036 0 5.785124 2.5900882 5.785124 5.7851239 0 3.1950358-2.590088 5.785124-5.785124 5.785124h-77.1197685c-3.1950357 0-5.7851239-2.5900882-5.7851239-5.785124 0-3.1950357 2.5900882-5.7851239 5.7851239-5.7851239zm128.197388-16.4297521c3.195036 0 5.785124 2.59008822 5.785124 5.78512397 0 3.19503574-2.590088 5.78512393-5.785124 5.78512393h-275.46289703c-3.19503575 0-5.78512397-2.59008819-5.78512397-5.78512393 0-3.19503575 2.59008822-5.78512397 5.78512397-5.78512397z" opacity=".4" transform="translate(70.964 2.221)"/></g><g transform="translate(21 969)"><circle cx="29.464" cy="28.767" opacity=".24" r="28.5"/><path d="m56.2978878 16.4297521c3.1950357 0 5.785124 2.5900882 5.785124 5.7851239 0 3.1950358-2.5900883 5.785124-5.785124 5.785124h-50.51276383c-3.19503575 0-5.78512397-2.5900882-5.78512397-5.785124 0-3.1950357 2.59008822-5.7851239 5.78512397-5.7851239zm96.7527452 0c3.195036 0 5.785124 2.5900882 5.785124 5.7851239 0 3.1950358-2.590088 5.785124-5.785124 5.785124h-77.1197685c-3.1950357 0-5.7851239-2.5900882-5.7851239-5.785124 0-3.1950357 2.5900882-5.7851239 5.7851239-5.7851239zm128.197388-16.4297521c3.195036 0 5.785124 2.59008822 5.785124 5.78512397 0 3.19503574-2.590088 5.78512393-5.785124 5.78512393h-275.46289703c-3.19503575 0-5.78512397-2.59008819-5.78512397-5.78512393 0-3.19503575 2.59008822-5.78512397 5.78512397-5.78512397z" opacity=".4" transform="translate(70.964 2.267)"/></g><rect height="26" opacity=".6" rx="10" width="29" x="559" y="10"/></g><g fill-rule="nonzero" transform="translate(73.998 .002)"><path d="m127.35494 0c14.965147 0 27.096795 9.40202678 27.096795 21.0000146 0 11.5979878-12.131648 21.0000146-27.096795 21.0000146s-27.096796-9.4020268-27.096796-21.0000146c0-11.59798782 12.131649-21.0000146 27.096796-21.0000146zm2.303723 5.06869506h-.518578c-1.104569 0-2 .8954305-2 2l.001004 8.35677764c-1.827523-1.2687297-4.096013-1.9970638-6.626475-1.9970638-6.459439 0-11.280614 4.8149508-11.280614 11.2503177 0 6.435367 4.821175 11.2503178 11.280614 11.2503178 4.321423 0 7.878817-2.1241463 9.780688-5.4363945l.134578.1354832c2.008042 1.9660687 4.800179 3.1418279 7.992361 3.1418279 6.507136 0 11.282156-4.815609 11.282156-11.2518557 0-6.4362466-4.77502-11.2518556-11.282156-11.2518556-2.901591 0-5.472654.9714385-7.424768 2.6248391-.118878.1006873 0-3.551191 0-7.07381521 0-1.20978076-.894022-1.74857853-1.33881-1.74857853zm-9.303735 13.51123944c3.588756 0 6.112716 2.6678024 6.112716 6.1246732 0 3.3817213-2.52396 6.1246731-6.112716 6.1246731s-6.112716-2.7429518-6.112716-6.1246731c0-3.4568708 2.52396-6.1246732 6.112716-6.1246732zm18.59952-2.0274781c3.588756 0 6.112716 2.6678025 6.112716 6.1246732 0 3.3817214-2.52396 6.1246732-6.112716 6.1246732s-6.112716-2.7429518-6.112716-6.1246732c0-3.4568707 2.52396-6.1246732 6.112716-6.1246732zm-27.62503-9.38401962h-1.323564c-.409515 0-.741492.33262667-.741492.74294247v8.78149105c0 .1046449.032833.2066526.093872.291651.161075.2242981.473481.275551.697779.1144766l2.378507-1.708069c.392387-.2817834.625047-.7352999.625047-1.2183829v-5.2705768c0-.95740352-.774614-1.73353242-1.730149-1.73353242z" fill="#1851be"/><path d="m83.4573712 12.1935569c6.364562 0 10.91222 3.6731571 11.1490952 10.8802978l.008087.3514901c.0130268.9814957-.7720724 1.7877156-1.7535681 1.8007424l-16.6607193.000135c0 2.8872835 1.5702888 6.2082879 7.5039455 6.2082879 3.0306895 0 5.9994455-.8344619 8.9062681-2.5033857l.414853-.2440711c.5848761-.3525067 1.3447749-.1641341 1.6972816.420742.2469307.4097052.2335449.9206807-.0236159 1.3142483l-.0844449.1143293c-.4484628.5396202-4.5987086 4.689458-10.9103419 4.689458-6.8621607 0-11.8977031-4.833934-11.8977031-11.5635285 0-6.5400285 4.7887021-11.4687455 11.6508628-11.4687455zm0 3.7913208c-3.949445 0-6.6646884 2.2747925-7.2077371 5.6869812h13.9217936c-.5430487-3.4121887-2.9620837-5.6869812-6.7140565-5.6869812zm-15.0318087-12.59777857c1.1013657 0 1.994199.89283328 1.994199 1.99419896l-.0001422 17.24483051c.0212566.3010037.0320494.6059188.0320494.9144191 0 6.6841744-5.0665949 11.6852832-11.8548481 11.6852832-6.8374435 0-11.8548481-5.0011088-11.8548481-11.6852832 0-6.6841743 5.0174046-11.6852831 11.8548481-11.6852831 3.0655821 0 5.7800433 1.0199436 7.8353111 2.7542353l-.0007681-9.22820181c0-1.10136568.8928332-1.99419896 1.9941989-1.99419896zm-9.8287419 12.31517227c-4.476312 0-7.6244874 3.4142185-7.6244874 7.8382763 0 4.3278827 3.1481754 7.8382764 7.6244874 7.8382764 4.4763119 0 7.6244873-3.5103937 7.6244873-7.8382764 0-4.4240578-3.1481754-7.8382763-7.6244873-7.8382763zm-24.3871161-3.5087145c6.7882533 0 11.8548481 4.928717 11.8548481 11.516137 0 6.5874199-5.0665948 11.516137-11.8548481 11.516137-6.8374435 0-11.8548481-4.9287171-11.8548481-11.516137 0-6.58742 5.0174046-11.516137 11.8548481-11.516137zm0 3.7913208c-4.4763119 0-7.6244874 3.3647972-7.6244874 7.7248162 0 4.2652359 3.1481755 7.7248162 7.6244874 7.7248162s7.6244874-3.4595803 7.6244874-7.7248162c0-4.360019-3.1481755-7.7248162-7.6244874-7.7248162zm-22.363305-3.7913208c6.1935533 0 9.831037 4.0172571 9.831037 9.5468933v10.6942879c0 1.1673494-.9463236 2.113673-2.1136729 2.113673h-.113673c-1.1045695 0-2-.8954305-2-2v-10.477128c0-3.5919004-1.9170522-6.0967784-6.0460877-6.0967784-7.176657 0-7.176657 3.2650133-7.176657 7.2783247v11.2955817h-2.2273459c-1.1045695 0-2-.8954305-2-2 0-4.5504453 0-9.1008906 0-13.6513359 0-4.7776819 8.30722624-6.7035183 11.8463995-6.7035183z" fill="#040f20" stroke="#040e1f" stroke-width=".275"/></g><use fill="#000" filter="url(#d)" xlink:href="#c"/><use fill="url(#b)" xlink:href="#c"/><use fill="#000" filter="url(#e)" xlink:href="#c"/><use stroke="#fff" stroke-opacity=".116" stroke-width=".75" xlink:href="#c"/></g></g></svg>