<svg height="411" viewBox="0 0 1124 411" width="1124" xmlns="http://www.w3.org/2000/svg" xmlns:xlink="http://www.w3.org/1999/xlink"><linearGradient id="a" x1="50.007%" x2="50.007%" y1="-141.4%" y2="-47.015%"><stop offset="0" stop-color="#2a6cbe"/><stop offset=".38688" stop-color="#2062bc"/><stop offset=".49182" stop-color="#1f5fbc"/><stop offset=".66583" stop-color="#1c5abd"/><stop offset=".85354" stop-color="#1956bc"/><stop offset="1" stop-color="#1851be"/></linearGradient><g fill="none" fill-rule="evenodd"><path d="m0 0h1124v411h-1124z" fill="#fff"/><g fill="#8792a2" opacity=".24"><rect height="24" rx="7" width="26" x="21" y="75"/><rect height="24" rx="7" width="26" x="85" y="75"/><rect height="24" rx="7" width="26" x="149" y="75"/><rect height="24" rx="7" width="26" x="213" y="75"/><rect height="24" rx="7" width="26" x="277" y="75"/><rect height="24" rx="7" width="26" x="341" y="75"/><rect height="24" rx="7" width="26" x="404" y="75"/><rect height="24" rx="7" width="26" x="468" y="75"/></g><g transform="translate(846.93 63)"><path d="m113.070846 0h127v42h-127c-2.761424 0-5-2.2385763-5-5v-32c0-2.76142375 2.238576-5 5-5z" fill="url(#a)"/><rect fill="#5c84d1" height="10" rx="5" width="16" x="134.071" y="16"/><rect fill="#1851be" height="10" rx="3" width="9" x="249.071" y="16"/><rect fill="#5c84d1" height="9" rx="4.5" width="58" x="160.071" y="16"/><rect height="41" rx="5" stroke="#8792a2" stroke-opacity=".24" width="97" x=".5" y=".545"/><rect fill="#8792a2" height="10" opacity=".176" rx="5" width="52" x="32.071" y="16"/><rect fill="#8792a2" height="10" opacity=".376" rx="5" width="14" x="13.071" y="16"/><path d="m240.070846 0h21c2.761424 0 5 2.23857625 5 5v32c0 2.7614237-2.238576 5-5 5h-21z" fill="url(#a)" opacity=".262"/></g><rect fill="#8792a2" height="28" opacity=".241" rx="14" width="430" x="21" y="20"/><g transform="translate(21 126)"><path d="m7.6916556.5c-2.36296752 0-3.35751908.19205677-4.38639328.74230471-.89064354.47632138-1.58663623 1.17231407-2.06295761 2.06295761-.55024794 1.0288742-.74230471 2.02342576-.74230471 4.38639328v208.6166884c0 2.362968.19205677 3.357519.74230471 4.386394.47632138.890643 1.17231407 1.586636 2.06295761 2.062957 1.0288742.550248 2.02342576.742305 4.38639328.742305h1077.6166844c2.36297 0 3.35752-.192057 4.3864-.742305.89064-.476321 1.58663-1.172314 2.06296-2.062957.55024-1.028875.7423-2.023426.7423-4.386394v-208.6166884c0-2.36296752-.19206-3.35751908-.7423-4.38639328-.47633-.89064354-1.17232-1.58663623-2.06296-2.06295761-1.02888-.55024794-2.02343-.74230471-4.3864-.74230471z" stroke="#8792a2" stroke-opacity=".24"/><g fill="#8792a2"><rect height="14" opacity=".241" rx="7" width="313.826" x="10" y="20"/><rect height="14" opacity=".42" rx="7" width="106.601" x="333.788" y="20"/><rect height="14" opacity=".42" rx="7" width="106.601" x="450.352" y="19"/><rect height="14" opacity=".42" rx="7" width="398.509" x="566.916" y="19"/><rect height="8" opacity=".178" rx="3" width="66.393" x="1014.716" y="18"/><rect height="14" opacity=".241" rx="7" width="462.27" x="10" y="48"/><rect height="14" opacity=".241" rx="7" width="151.433" x="482.233" y="48"/><rect height="14" opacity=".241" rx="7" width="57.784" x="643.629" y="48"/><rect height="14" opacity=".241" rx="7" width="254.049" x="711.376" y="48"/><rect height="14" opacity=".241" rx="7" width="55.791" x="51.843" y="76"/><rect height="14" opacity=".241" rx="7" width="152.43" x="117.597" y="76"/><rect height="14" opacity=".241" rx="7" width="111.582" x="51.843" y="132"/><rect height="14" opacity=".241" rx="7" width="185.307" x="51.843" y="104"/><rect height="8" opacity=".441" rx="4" width="11.955" x="29.925" y="79"/><rect height="8" opacity=".441" rx="4" width="11.955" x="29.925" y="135"/><rect height="8" opacity=".441" rx="4" width="11.955" x="29.925" y="107"/><rect height="14" opacity=".241" rx="7" width="284.934" x="10" y="160"/><rect height="14" opacity=".241" rx="7" width="154.422" x="304.897" y="160"/><rect height="14" opacity=".241" rx="7" width="34.87" x="469.281" y="160"/><rect height="14" opacity=".241" rx="7" width="85.679" x="514.114" y="160"/><rect height="14" opacity=".241" rx="7" width="85.679" x="609.756" y="160"/><rect height="14" opacity=".241" rx="7" width="308.844" x="10" y="188"/><rect height="14" opacity=".241" rx="7" width="471.237" x="328.807" y="188"/><rect height="14" opacity=".241" rx="7" width="268.993" x="810.007" y="188"/></g></g><rect fill="#1851be" height="26" opacity=".26" rx="5" width="107" x="21" y="367"/><rect fill="#0b3c9a" height="16" rx="4" width="16" x="105" y="372"/><rect fill="#1851be" height="26" opacity=".26" rx="5" width="106" x="133" y="367"/><rect fill="#0b3c9a" height="16" rx="4" width="16" x="216" y="372"/><rect fill="#eceef0" height="18" rx="9" width="296.308" x="249" y="371"/><g transform="translate(1050 329)"><rect fill="#1851be" height="64" rx="32" transform="matrix(1 0 0 -1 0 64)" width="64"/><path d="m31.997505 15.9992528c1.1045695 0 2 .8954305 2 2v12h13c1.1045695 0 2 .8954305 2 2s-.8954305 2-2 2h-13v13c0 1.1045695-.8954305 2-2 2s-2-.8954305-2-2v-13h-13c-1.1045695 0-2-.8954305-2-2s.8954305-2 2-2h13v-12c0-1.1045695.8954305-2 2-2z" fill="#fff" opacity=".904"/></g></g></svg>