<svg height="411" viewBox="0 0 1124 411" width="1124" xmlns="http://www.w3.org/2000/svg" xmlns:xlink="http://www.w3.org/1999/xlink"><mask id="a" fill="#fff"><path d="m7.6916556 0h521.6166884c2.674557 0 3.644415.27847683 4.622193.80139811s1.745144 1.290287 2.268065 2.26806478.801398 1.94763649.801398 4.62219271v208.6166884c0 2.674557-.278477 3.644415-.801398 4.622193s-1.290287 1.745144-2.268065 2.268065-1.947636.801398-4.622193.801398h-521.6166884c-2.67455622 0-3.64441493-.278477-4.62219271-.801398s-1.7451435-1.290287-2.26806478-2.268065-.80139811-1.947636-.80139811-4.622193v-208.6166884c0-2.67455622.27847683-3.64441493.80139811-4.62219271s1.290287-1.7451435 2.26806478-2.26806478 1.94763649-.80139811 4.62219271-.80139811z" fill="#fff" fill-rule="evenodd"/></mask><g fill="none" fill-rule="evenodd"><path d="m0 0h1124v411h-1124z" fill="#fff"/><g fill="#512da8"><rect height="26" opacity=".26" rx="5" width="107" x="21" y="367"/><rect height="16" rx="4" width="16" x="105" y="372"/><rect height="26" opacity=".26" rx="5" width="106" x="133" y="367"/><rect height="16" rx="4" width="16" x="216" y="372"/></g><rect fill="#eceef0" height="18" rx="9" width="226.308" x="249" y="371"/><g fill="#8792a2" opacity=".24"><rect height="24" rx="7" width="26" x="21" y="75"/><rect height="24" rx="7" width="26" x="85" y="75"/><rect height="24" rx="7" width="26" x="149" y="75"/><rect height="24" rx="7" width="26" x="213" y="75"/><rect height="24" rx="7" width="26" x="277" y="75"/><rect height="24" rx="7" width="26" x="341" y="75"/><rect height="24" rx="7" width="26" x="404" y="75"/><rect height="24" rx="7" width="26" x="468" y="75"/></g><g transform="translate(955 63)"><path d="m5 0h127v42h-127c-2.76142375 0-5-2.2385763-5-5v-32c0-2.76142375 2.23857625-5 5-5z" fill="#512da8"/><g fill="#d2c9e9"><rect height="10" rx="5" width="16" x="26" y="16"/><rect height="9" rx="4.5" width="58" x="52" y="16"/><path d="m132 0h21c2.761424 0 5 2.23857625 5 5v32c0 2.7614237-2.238576 5-5 5h-21z"/></g><rect fill="#512da8" height="10" rx="3" width="9" x="141" y="16"/></g><rect height="41" rx="5" stroke="#8792a2" stroke-opacity=".24" width="97" x="847.43" y="63.545"/><rect fill="#8792a2" height="10" opacity=".176" rx="3" width="52" x="879.001" y="79"/><rect fill="#8792a2" height="10" opacity=".376" rx="3" width="14" x="860.001" y="79"/><g transform="translate(21 126)"><g fill="#8792a2" transform="translate(546)"><path d="m7.6916556 0h531.6166884c2.674557 0 3.644415.27847683 4.622193.80139811s1.745144 1.290287 2.268065 2.26806478.801398 1.94763649.801398 4.62219271v208.6166884c0 2.674557-.278477 3.644415-.801398 4.622193s-1.290287 1.745144-2.268065 2.268065-1.947636.801398-4.622193.801398h-531.6166884c-2.67455622 0-3.64441493-.278477-4.62219271-.801398s-1.7451435-1.290287-2.26806478-2.268065-.80139811-1.947636-.80139811-4.622193v-208.6166884c0-2.67455622.27847683-3.64441493.80139811-4.62219271s1.290287-1.7451435 2.26806478-2.26806478 1.94763649-.80139811 4.62219271-.80139811z" opacity=".081"/><rect height="14" opacity=".341" rx="7" width="168.46" x="20.81" y="56"/><rect height="14" opacity=".341" rx="7" width="286.382" x="194.225" y="56"/><rect height="14" opacity=".341" rx="7" width="210.08" x="62.429" y="84"/><rect height="14" opacity=".341" rx="7" width="110.986" x="62.429" y="140"/><rect height="14" opacity=".341" rx="7" width="184.315" x="62.429" y="112"/><rect height="8" opacity=".441" rx="4" width="11.891" x="40.629" y="85"/><rect height="8" opacity=".441" rx="4" width="11.891" x="40.629" y="141"/><rect height="8" opacity=".441" rx="4" width="11.891" x="40.629" y="113"/><rect height="14" opacity=".341" rx="7" width="283.409" x="20.81" y="168"/><rect height="14" opacity=".341" rx="7" width="153.596" x="314.129" y="168"/><rect height="14" opacity=".341" rx="7" width="307.192" x="20.81" y="196"/><rect height="14" opacity=".641" rx="7" width="127.832" x="19.819" y="23"/><rect height="14" opacity=".441" rx="7" width="127.832" x="157.56" y="22"/><rect height="8" opacity=".178" rx="3" width="66.393" x="468.716" y="19"/></g><path d="m7.6916556.5c-2.36296752 0-3.35751908.19205677-4.38639328.74230471-.89064354.47632138-1.58663623 1.17231407-2.06295761 2.06295761-.55024794 1.0288742-.74230471 2.02342576-.74230471 4.38639328v208.6166884c0 2.362968.19205677 3.357519.74230471 4.386394.47632138.890643 1.17231407 1.586636 2.06295761 2.062957 1.0288742.550248 2.02342576.742305 4.38639328.742305h521.6166884c2.362968 0 3.357519-.192057 4.386394-.742305.890643-.476321 1.586636-1.172314 2.062957-2.062957.550248-1.028875.742305-2.023426.742305-4.386394v-208.6166884c0-2.36296752-.192057-3.35751908-.742305-4.38639328-.476321-.89064354-1.172314-1.58663623-2.062957-2.06295761-1.028875-.55024794-2.023426-.74230471-4.386394-.74230471z" stroke="#8792a2" stroke-opacity=".24"/><g fill="#8792a2"><rect height="14" mask="url(#a)" opacity=".241" rx="7" width="127.81" x="29.723" y="23"/><rect height="14" mask="url(#a)" opacity=".241" rx="7" width="127.81" x="206.081" y="23"/><rect height="4" mask="url(#a)" opacity=".241" rx="2" width="19.815" x="181.312" y="33"/><rect height="4" mask="url(#a)" opacity=".241" rx="2" width="19.815" x="338.845" y="33"/><rect height="8" mask="url(#a)" opacity=".161" rx="2.972" width="5.945" x="10.899" y="19"/><rect height="8" mask="url(#a)" opacity=".161" rx="2.972" width="5.945" x="18.825" y="19"/><rect height="8" mask="url(#a)" opacity=".161" rx="2.972" width="5.945" x="162.487" y="19"/><rect height="8" mask="url(#a)" opacity=".161" rx="2.972" width="5.945" x="170.413" y="19"/><rect height="14" mask="url(#a)" opacity=".241" rx="7" width="168.432" x="10.899" y="51"/><rect height="14" mask="url(#a)" opacity=".241" rx="7" width="286.334" x="184.284" y="51"/><rect height="14" mask="url(#a)" opacity=".241" rx="7" width="210.044" x="52.511" y="79"/><rect height="14" mask="url(#a)" opacity=".241" rx="7" width="110.967" x="52.511" y="135"/><rect height="14" mask="url(#a)" opacity=".241" rx="7" width="184.284" x="52.511" y="107"/><rect height="8" mask="url(#a)" opacity=".441" rx="4" width="11.889" x="30.714" y="80"/><rect height="8" mask="url(#a)" opacity=".441" rx="4" width="11.889" x="30.714" y="136"/><rect height="8" mask="url(#a)" opacity=".441" rx="4" width="11.889" x="30.714" y="108"/><rect height="14" mask="url(#a)" opacity=".241" rx="7" width="283.362" x="10.899" y="163"/><rect height="14" mask="url(#a)" opacity=".241" rx="7" width="153.57" x="304.168" y="163"/><rect height="14" mask="url(#a)" opacity=".241" rx="7" width="307.14" x="10.899" y="191"/><rect height="8" mask="url(#a)" opacity=".178" rx="3" width="66.382" x="460.71" y="19"/></g></g><rect fill="#8792a2" height="28" opacity=".241" rx="14" width="621" x="21" y="20"/><g transform="translate(1049 329)"><rect fill="#512da8" height="64" rx="32" transform="matrix(1 0 0 -1 0 64)" width="64"/><path d="m31.997505 15.9992528c1.1045695 0 2 .8954305 2 2v12h13c1.1045695 0 2 .8954305 2 2s-.8954305 2-2 2h-13v13c0 1.1045695-.8954305 2-2 2s-2-.8954305-2-2v-13h-13c-1.1045695 0-2-.8954305-2-2s.8954305-2 2-2h13v-12c0-1.1045695.8954305-2 2-2z" fill="#fff" opacity=".904"/></g></g></svg>