<svg xmlns="http://www.w3.org/2000/svg" xmlns:xlink="http://www.w3.org/1999/xlink" width="84" height="66" viewBox="0 0 84 66">
  <defs>
    <path id="customization-a" d="M0.5,13.84 C0.5,6.473 6.473,0.5 13.84,0.5 L62.16,0.5 C69.527,0.5 75.5,6.473 75.5,13.84 L75.5,62.16 C75.5,69.527 69.527,75.5 62.16,75.5 L13.84,75.5 C6.473,75.5 0.5,69.527 0.5,62.16 L0.5,13.84 Z"/>
    <linearGradient id="customization-c" x1="50%" x2="50%" y1="0%" y2="100%">
      <stop offset="0%" stop-color="#3F6ABC"/>
      <stop offset="100%" stop-color="#1851BE"/>
    </linearGradient>
    <radialGradient id="customization-d" cx="100%" cy="0%" r="327.796%" fx="100%" fy="0%" gradientTransform="matrix(0 .4 -1 0 1 -.4)">
      <stop offset="0%" stop-color="#FFF"/>
      <stop offset="100%" stop-color="#AEC3EB"/>
    </radialGradient>
  </defs>
  <g fill="none" fill-rule="evenodd" transform="translate(1 -5)">
    <mask id="customization-b" fill="#fff">
      <use xlink:href="#customization-a"/>
    </mask>
    <path d="M0.5,13.84 C0.5,6.473 6.473,0.5 13.84,0.5 L62.16,0.5 C69.527,0.5 75.5,6.473 75.5,13.84 L75.5,62.16 C75.5,69.527 69.527,75.5 62.16,75.5 L13.84,75.5 C6.473,75.5 0.5,69.527 0.5,62.16 L0.5,13.84 Z" mask="url(#customization-b)"/>
    <path d="M0.5,13.84 C0.5,6.473 6.473,0.5 13.84,0.5 L62.16,0.5 C69.527,0.5 75.5,6.473 75.5,13.84 L75.5,62.16 C75.5,69.527 69.527,75.5 62.16,75.5 L13.84,75.5 C6.473,75.5 0.5,69.527 0.5,62.16 L0.5,13.84 Z"/>
    <path d="M0.5,13.84 C0.5,6.473 6.473,0.5 13.84,0.5 L62.16,0.5 C69.527,0.5 75.5,6.473 75.5,13.84 L75.5,62.16 C75.5,69.527 69.527,75.5 62.16,75.5 L13.84,75.5 C6.473,75.5 0.5,69.527 0.5,62.16 L0.5,13.84 Z"/>
    <g fill-rule="nonzero" transform="translate(0 6)">
      <path fill="url(#customization-c)" stroke="#FFF" stroke-opacity=".01" stroke-width="1.68" d="M41,0 C18.3560417,0 0,18.42 0,41.1428571 C0,48.6857143 2.02864583,55.7514286 5.560625,61.8285714 C6.35927083,63.2028571 7.88111111,64 9.46701389,64 L72.5329861,64 C74.1188889,64 75.6407292,63.2028571 76.439375,61.8285714 C79.9713542,55.7514286 82,48.6857143 82,41.1428571 C82,18.42 63.6439583,0 41,0 Z M13.6666667,50.2857143 C11.1511458,50.2857143 9.11111111,48.2385714 9.11111111,45.7142857 C9.11111111,43.19 11.1511458,41.1428571 13.6666667,41.1428571 C16.1821875,41.1428571 18.2222222,43.19 18.2222222,45.7142857 C18.2222222,48.2385714 16.1821875,50.2857143 13.6666667,50.2857143 Z M20.5,27.4285714 C17.9844792,27.4285714 15.9444444,25.3814286 15.9444444,22.8571429 C15.9444444,20.3328571 17.9844792,18.2857143 20.5,18.2857143 C23.0155208,18.2857143 25.0555556,20.3328571 25.0555556,22.8571429 C25.0555556,25.3814286 23.0155208,27.4285714 20.5,27.4285714 Z M56.9444444,22.8571429 C56.9444444,20.3328571 58.9844792,18.2857143 61.5,18.2857143 C64.0155208,18.2857143 66.0555556,20.3328571 66.0555556,22.8571429 C66.0555556,25.3814286 64.0155208,27.4285714 61.5,27.4285714 C58.9844792,27.4285714 56.9444444,25.3814286 56.9444444,22.8571429 Z M68.3333333,50.2857143 C65.8178125,50.2857143 63.7777778,48.2385714 63.7777778,45.7142857 C63.7777778,43.19 65.8178125,41.1428571 68.3333333,41.1428571 C70.8488542,41.1428571 72.8888889,43.19 72.8888889,45.7142857 C72.8888889,48.2385714 70.8488542,50.2857143 68.3333333,50.2857143 Z"/>
      <path fill="url(#customization-d)" d="M48.75125,55 L33.24875,55 C32.4753125,53.6370192 32,52.075 32,50.3846154 C32,46.5120192 34.32875,43.2091346 37.625,41.8389423 L37.625,13.4615385 C37.625,11.5504808 39.1367188,10 41,10 C42.8632812,10 44.375,11.5504808 44.375,13.4615385 L44.375,41.8389423 C47.67125,43.2091346 50,46.5134615 50,50.3846154 C50,52.075 49.5246875,53.6370192 48.75125,55 Z"/>
    </g>
  </g>
</svg>
