<svg xmlns="http://www.w3.org/2000/svg" xmlns:xlink="http://www.w3.org/1999/xlink" width="168" height="133" viewBox="0 0 168 133">
  <defs>
    <path id="customization-a" d="M0.986842105,27.3157895 C0.986842105,12.7756579 12.7756579,0.986842105 27.3157895,0.986842105 L122.684211,0.986842105 C137.224342,0.986842105 149.013158,12.7756579 149.013158,27.3157895 L149.013158,122.684211 C149.013158,137.224342 137.224342,149.013158 122.684211,149.013158 L27.3157895,149.013158 C12.7756579,149.013158 0.986842105,137.224342 0.986842105,122.684211 L0.986842105,27.3157895 Z"/>
    <radialGradient id="customization-e" cx="18.205%" cy="0%" r="100%" fx="18.205%" fy="0%" gradientTransform="matrix(0 1 -.78049 0 .182 -.182)">
      <stop offset="0%" stop-color="#3F6ABC"/>
      <stop offset="100%" stop-color="#1851BE"/>
    </radialGradient>
    <path id="customization-d" d="M80.9210526,0 C36.2290296,0 0,36.3552632 0,81.2030075 C0,96.0902256 4.00390625,110.035714 10.9749178,122.030075 C12.5511924,124.742481 15.5548246,126.315789 18.6848958,126.315789 L143.157209,126.315789 C146.287281,126.315789 149.290913,124.742481 150.867188,122.030075 C157.838199,110.035714 161.842105,96.0902256 161.842105,81.2030075 C161.842105,36.3552632 125.613076,0 80.9210526,0 Z"/>
    <filter id="customization-c" width="106.5%" height="108.3%" x="-3.2%" y="-3%" filterUnits="objectBoundingBox">
      <feMorphology in="SourceAlpha" operator="dilate" radius=".75" result="shadowSpreadOuter1"/>
      <feOffset dy="1.5" in="shadowSpreadOuter1" result="shadowOffsetOuter1"/>
      <feGaussianBlur in="shadowOffsetOuter1" result="shadowBlurOuter1" stdDeviation="1.25"/>
      <feComposite in="shadowBlurOuter1" in2="SourceAlpha" operator="out" result="shadowBlurOuter1"/>
      <feColorMatrix in="shadowBlurOuter1" values="0 0 0 0 0.0941176471   0 0 0 0 0.317647059   0 0 0 0 0.745098039  0 0 0 0.3 0"/>
    </filter>
    <filter id="customization-f" width="110.8%" height="113.9%" x="-5.4%" y="-5.7%" filterUnits="objectBoundingBox">
      <feGaussianBlur in="SourceAlpha" result="shadowBlurInner1" stdDeviation="5"/>
      <feOffset dy="1" in="shadowBlurInner1" result="shadowOffsetInner1"/>
      <feComposite in="shadowOffsetInner1" in2="SourceAlpha" k2="-1" k3="1" operator="arithmetic" result="shadowInnerInner1"/>
      <feColorMatrix in="shadowInnerInner1" result="shadowMatrixInner1" values="0 0 0 0 0.0941176471   0 0 0 0 0.317647059   0 0 0 0 0.745098039  0 0 0 0.0490329983 0"/>
      <feOffset dy="1" in="SourceAlpha" result="shadowOffsetInner2"/>
      <feComposite in="shadowOffsetInner2" in2="SourceAlpha" k2="-1" k3="1" operator="arithmetic" result="shadowInnerInner2"/>
      <feColorMatrix in="shadowInnerInner2" result="shadowMatrixInner2" values="0 0 0 0 0.0941176471   0 0 0 0 0.317647059   0 0 0 0 0.745098039  0 0 0 0.0528299825 0"/>
      <feMerge>
        <feMergeNode in="shadowMatrixInner1"/>
        <feMergeNode in="shadowMatrixInner2"/>
      </feMerge>
    </filter>
    <radialGradient id="customization-i" cx="22.09%" cy="0%" r="106.679%" fx="22.09%" fy="0%" gradientTransform="matrix(0 1 -.70557 0 .22 -.22)">
      <stop offset="0%" stop-color="#FFF"/>
      <stop offset="100%" stop-color="#AEC3EB"/>
    </radialGradient>
    <path id="customization-h" d="M80.9210526,19.7368421 C84.5985814,19.7368421 87.5822368,22.7970015 87.5822368,26.5688259 L87.5822368,82.5768598 C94.0879934,85.2811867 98.6842105,91.8028846 98.6842105,99.4433198 C98.6842105,101.281021 98.1233723,103.673211 97.0016959,106.619892 C96.5587481,107.783541 95.4430603,108.552632 94.1979578,108.552632 L67.6441379,108.552632 C66.3990411,108.552621 65.2833584,107.783534 64.8404094,106.619892 C63.7187329,103.673211 63.1578947,101.281021 63.1578947,99.4433198 C63.1578947,91.800038 67.7541118,85.2811867 74.2598684,82.5768598 L74.2598684,26.5688259 C74.2598684,22.7970015 77.2435238,19.7368421 80.9210526,19.7368421 Z M26.9736842,81.2030075 C31.938528,81.2030075 35.9649123,85.2434211 35.9649123,90.2255639 C35.9649123,95.2077068 31.938528,99.2481203 26.9736842,99.2481203 C22.0088405,99.2481203 17.9824561,95.2077068 17.9824561,90.2255639 C17.9824561,85.2434211 22.0088405,81.2030075 26.9736842,81.2030075 Z M134.868421,81.2030075 C139.833265,81.2030075 143.859649,85.2434211 143.859649,90.2255639 C143.859649,95.2077068 139.833265,99.2481203 134.868421,99.2481203 C129.903577,99.2481203 125.877193,95.2077068 125.877193,90.2255639 C125.877193,85.2434211 129.903577,81.2030075 134.868421,81.2030075 Z M40.4605263,36.0902256 C45.4253701,36.0902256 49.4517544,40.1306391 49.4517544,45.112782 C49.4517544,50.0949248 45.4253701,54.1353383 40.4605263,54.1353383 C35.4956826,54.1353383 31.4692982,50.0949248 31.4692982,45.112782 C31.4692982,40.1306391 35.4956826,36.0902256 40.4605263,36.0902256 Z M121.381579,36.0902256 C126.346423,36.0902256 130.372807,40.1306391 130.372807,45.112782 C130.372807,50.0949248 126.346423,54.1353383 121.381579,54.1353383 C116.416735,54.1353383 112.390351,50.0949248 112.390351,45.112782 C112.390351,40.1306391 116.416735,36.0902256 121.381579,36.0902256 Z"/>
    <filter id="customization-g" width="116.9%" height="123.9%" x="-8.4%" y="-6.3%" filterUnits="objectBoundingBox">
      <feMorphology in="SourceAlpha" operator="dilate" radius=".625" result="shadowSpreadOuter1"/>
      <feOffset dy="2" in="shadowSpreadOuter1" result="shadowOffsetOuter1"/>
      <feGaussianBlur in="shadowOffsetOuter1" result="shadowBlurOuter1" stdDeviation="1"/>
      <feComposite in="shadowBlurOuter1" in2="SourceAlpha" operator="out" result="shadowBlurOuter1"/>
      <feColorMatrix in="shadowBlurOuter1" result="shadowMatrixOuter1" values="0 0 0 0 0.0941176471   0 0 0 0 0.317647059   0 0 0 0 0.745098039  0 0 0 0.147836538 0"/>
      <feMorphology in="SourceAlpha" operator="dilate" radius=".625" result="shadowSpreadOuter2"/>
      <feOffset dy="5" in="shadowSpreadOuter2" result="shadowOffsetOuter2"/>
      <feGaussianBlur in="shadowOffsetOuter2" result="shadowBlurOuter2" stdDeviation="2.5"/>
      <feComposite in="shadowBlurOuter2" in2="SourceAlpha" operator="out" result="shadowBlurOuter2"/>
      <feColorMatrix in="shadowBlurOuter2" result="shadowMatrixOuter2" values="0 0 0 0 0.0941176471   0 0 0 0 0.317647059   0 0 0 0 0.745098039  0 0 0 0.0864565122 0"/>
      <feMerge>
        <feMergeNode in="shadowMatrixOuter1"/>
        <feMergeNode in="shadowMatrixOuter2"/>
      </feMerge>
    </filter>
    <filter id="customization-j" width="120.5%" height="129%" x="-10.2%" y="-8.9%" filterUnits="objectBoundingBox">
      <feGaussianBlur in="SourceAlpha" result="shadowBlurInner1" stdDeviation="1.25"/>
      <feOffset dy="12" in="shadowBlurInner1" result="shadowOffsetInner1"/>
      <feComposite in="shadowOffsetInner1" in2="SourceAlpha" k2="-1" k3="1" operator="arithmetic" result="shadowInnerInner1"/>
      <feColorMatrix in="shadowInnerInner1" values="0 0 0 0 1   0 0 0 0 1   0 0 0 0 1  0 0 0 0.0782615822 0"/>
    </filter>
  </defs>
  <g fill="none" fill-rule="evenodd" transform="translate(3 -10)">
    <mask id="customization-b" fill="#fff">
      <use xlink:href="#customization-a"/>
    </mask>
    <path d="M0.986842105,27.3157895 C0.986842105,12.7756579 12.7756579,0.986842105 27.3157895,0.986842105 L122.684211,0.986842105 C137.224342,0.986842105 149.013158,12.7756579 149.013158,27.3157895 L149.013158,122.684211 C149.013158,137.224342 137.224342,149.013158 122.684211,149.013158 L27.3157895,149.013158 C12.7756579,149.013158 0.986842105,137.224342 0.986842105,122.684211 L0.986842105,27.3157895 Z" mask="url(#customization-b)"/>
    <path d="M0.986842105,27.3157895 C0.986842105,12.7756579 12.7756579,0.986842105 27.3157895,0.986842105 L122.684211,0.986842105 C137.224342,0.986842105 149.013158,12.7756579 149.013158,27.3157895 L149.013158,122.684211 C149.013158,137.224342 137.224342,149.013158 122.684211,149.013158 L27.3157895,149.013158 C12.7756579,149.013158 0.986842105,137.224342 0.986842105,122.684211 L0.986842105,27.3157895 Z"/>
    <path d="M0.986842105,27.3157895 C0.986842105,12.7756579 12.7756579,0.986842105 27.3157895,0.986842105 L122.684211,0.986842105 C137.224342,0.986842105 149.013158,12.7756579 149.013158,27.3157895 L149.013158,122.684211 C149.013158,137.224342 137.224342,149.013158 122.684211,149.013158 L27.3157895,149.013158 C12.7756579,149.013158 0.986842105,137.224342 0.986842105,122.684211 L0.986842105,27.3157895 Z"/>
    <g fill-rule="nonzero" transform="translate(0 11.842)">
      <use fill="#000" filter="url(#customization-c)" xlink:href="#customization-d"/>
      <use fill="url(#customization-e)" xlink:href="#customization-d"/>
      <use fill="#000" filter="url(#customization-f)" xlink:href="#customization-d"/>
      <use stroke="#FFF" stroke-opacity=".01" stroke-width="1.5" xlink:href="#customization-d"/>
      <use fill="#000" filter="url(#customization-g)" xlink:href="#customization-h"/>
      <use fill="url(#customization-i)" xlink:href="#customization-h"/>
      <use fill="#000" filter="url(#customization-j)" xlink:href="#customization-h"/>
      <use stroke="#FFF" stroke-opacity=".01" stroke-width="1.25" xlink:href="#customization-h"/>
    </g>
  </g>
</svg>
