<svg height="66" viewBox="0 0 84 66" width="84" xmlns="http://www.w3.org/2000/svg" xmlns:xlink="http://www.w3.org/1999/xlink"><linearGradient id="a" x1="50%" x2="50%" y1="0%" y2="100%"><stop offset="0" stop-color="#3f6abc"/><stop offset="1" stop-color="#1851be"/></linearGradient><radialGradient id="b" cx="100%" cy="0%" gradientTransform="matrix(0 .4 -1 0 1 -.4)" r="327.796%"><stop offset="0" stop-color="#fff"/><stop offset="1" stop-color="#aec3eb"/></radialGradient><mask id="c" fill="#fff"><path d="m.5 13.84c0-7.367 5.973-13.34 13.34-13.34h48.32c7.367 0 13.34 5.973 13.34 13.34v48.32c0 7.367-5.973 13.34-13.34 13.34h-48.32c-7.367 0-13.34-5.973-13.34-13.34z" fill="#fff" fill-rule="evenodd"/></mask><g fill="none" fill-rule="evenodd" transform="translate(1 -5)"><path d="m.5 13.84c0-7.367 5.973-13.34 13.34-13.34h48.32c7.367 0 13.34 5.973 13.34 13.34v48.32c0 7.367-5.973 13.34-13.34 13.34h-48.32c-7.367 0-13.34-5.973-13.34-13.34z" mask="url(#c)"/><path d="m.5 13.84c0-7.367 5.973-13.34 13.34-13.34h48.32c7.367 0 13.34 5.973 13.34 13.34v48.32c0 7.367-5.973 13.34-13.34 13.34h-48.32c-7.367 0-13.34-5.973-13.34-13.34z"/><path d="m.5 13.84c0-7.367 5.973-13.34 13.34-13.34h48.32c7.367 0 13.34 5.973 13.34 13.34v48.32c0 7.367-5.973 13.34-13.34 13.34h-48.32c-7.367 0-13.34-5.973-13.34-13.34z"/><g fill-rule="nonzero" transform="translate(0 6)"><path d="m41 0c-22.6439583 0-41 18.42-41 41.1428571 0 7.5428572 2.02864583 14.6085715 5.560625 20.6857143.79864583 1.3742857 2.32048611 2.1714286 3.90638889 2.1714286h63.06597221c1.5859028 0 3.1077431-.7971429 3.9063889-2.1714286 3.5319792-6.0771428 5.560625-13.1428571 5.560625-20.6857143 0-22.7228571-18.3560417-41.1428571-41-41.1428571zm-27.3333333 50.2857143c-2.5155209 0-4.55555559-2.0471429-4.55555559-4.5714286s2.04003469-4.5714286 4.55555559-4.5714286c2.5155208 0 4.5555555 2.0471429 4.5555555 4.5714286s-2.0400347 4.5714286-4.5555555 4.5714286zm6.8333333-22.8571429c-2.5155208 0-4.5555556-2.0471428-4.5555556-4.5714285 0-2.5242858 2.0400348-4.5714286 4.5555556-4.5714286s4.5555556 2.0471428 4.5555556 4.5714286c0 2.5242857-2.0400348 4.5714285-4.5555556 4.5714285zm36.4444444-4.5714285c0-2.5242858 2.0400348-4.5714286 4.5555556-4.5714286s4.5555556 2.0471428 4.5555556 4.5714286c0 2.5242857-2.0400348 4.5714285-4.5555556 4.5714285s-4.5555556-2.0471428-4.5555556-4.5714285zm11.3888889 27.4285714c-2.5155208 0-4.5555555-2.0471429-4.5555555-4.5714286s2.0400347-4.5714286 4.5555555-4.5714286c2.5155209 0 4.5555556 2.0471429 4.5555556 4.5714286s-2.0400347 4.5714286-4.5555556 4.5714286z" fill="url(#a)" stroke="#fff" stroke-opacity=".01" stroke-width="1.68"/><path d="m48.75125 55h-15.5025c-.7734375-1.3629808-1.24875-2.925-1.24875-4.6153846 0-3.8725962 2.32875-7.1754808 5.625-8.5456731v-28.3774038c0-1.9110577 1.5117188-3.4615385 3.375-3.4615385s3.375 1.5504808 3.375 3.4615385v28.3774038c3.29625 1.3701923 5.625 4.6745192 5.625 8.5456731 0 1.6903846-.4753125 3.2524038-1.24875 4.6153846z" fill="url(#b)"/></g></g></svg>