<svg height="2150" viewBox="0 0 3660 2150" width="3660" xmlns="http://www.w3.org/2000/svg" xmlns:xlink="http://www.w3.org/1999/xlink"><defs><path id="a" d="m319 140.001286c0-77.3205751 62.679978-140.001286 139.993009-140.001286h2543.013981c77.316 0 139.99301 62.6798624 139.99301 140.001286v1632.997424c0 77.32058-62.67998 140.00129-139.99301 140.00129h-2543.013981c-77.316004 0-139.993009-62.67986-139.993009-140.00129z"/><filter id="b" height="107.4%" width="105%" x="-2.5%" y="-3.2%"><feOffset dy="10" in="SourceAlpha" result="shadowOffsetOuter1"/><feGaussianBlur in="shadowOffsetOuter1" result="shadowBlurOuter1" stdDeviation="22"/><feColorMatrix in="shadowBlurOuter1" values="0 0 0 0 0   0 0 0 0 0   0 0 0 0 0  0 0 0 0.04 0"/></filter><filter id="c" height="105.8%" width="103.9%" x="-1.9%" y="-2.4%"><feGaussianBlur in="SourceAlpha" result="shadowBlurInner1" stdDeviation="11"/><feOffset in="shadowBlurInner1" result="shadowOffsetInner1"/><feComposite in="shadowOffsetInner1" in2="SourceAlpha" k2="-1" k3="1" operator="arithmetic" result="shadowInnerInner1"/><feColorMatrix in="shadowInnerInner1" result="shadowMatrixInner1" values="0 0 0 0 0   0 0 0 0 0   0 0 0 0 0  0 0 0 0.12 0"/><feGaussianBlur in="SourceAlpha" result="shadowBlurInner2" stdDeviation="2"/><feOffset in="shadowBlurInner2" result="shadowOffsetInner2"/><feComposite in="shadowOffsetInner2" in2="SourceAlpha" k2="-1" k3="1" operator="arithmetic" result="shadowInnerInner2"/><feColorMatrix in="shadowInnerInner2" result="shadowMatrixInner2" values="0 0 0 0 0   0 0 0 0 0   0 0 0 0 0  0 0 0 0.06 0"/><feMerge><feMergeNode in="shadowMatrixInner1"/><feMergeNode in="shadowMatrixInner2"/></feMerge></filter><path id="d" d="m1.9914952 1860c-1.09987243-.00064-1.9914952.89818-1.9914952 2.00013v30.98214s95.5777753 50.44014 434.624391 56.9384c339.958893-.78281 2470.686369 0 2470.686369 0s415.84698 4.63195 554.68924-56.9384v-28.97425c0-1.10955-.88787-2.00954-1.9915-2.01017z"/><filter id="e" height="257.8%" width="104.1%" x="-2.1%" y="-67.8%"><feOffset dy="10" in="SourceAlpha" result="shadowOffsetOuter1"/><feGaussianBlur in="shadowOffsetOuter1" result="shadowBlurOuter1" stdDeviation="22"/><feColorMatrix in="shadowBlurOuter1" values="0 0 0 0 0   0 0 0 0 0   0 0 0 0 0  0 0 0 0.04 0"/></filter><filter id="f" height="222.2%" width="103.2%" x="-1.6%" y="-50%"><feGaussianBlur in="SourceAlpha" result="shadowBlurInner1" stdDeviation="11"/><feOffset in="shadowBlurInner1" result="shadowOffsetInner1"/><feComposite in="shadowOffsetInner1" in2="SourceAlpha" k2="-1" k3="1" operator="arithmetic" result="shadowInnerInner1"/><feColorMatrix in="shadowInnerInner1" result="shadowMatrixInner1" values="0 0 0 0 0   0 0 0 0 0   0 0 0 0 0  0 0 0 0.12 0"/><feGaussianBlur in="SourceAlpha" result="shadowBlurInner2" stdDeviation="2"/><feOffset in="shadowBlurInner2" result="shadowOffsetInner2"/><feComposite in="shadowOffsetInner2" in2="SourceAlpha" k2="-1" k3="1" operator="arithmetic" result="shadowInnerInner2"/><feColorMatrix in="shadowInnerInner2" result="shadowMatrixInner2" values="0 0 0 0 0   0 0 0 0 0   0 0 0 0 0  0 0 0 0.06 0"/><feMerge><feMergeNode in="shadowMatrixInner1"/><feMergeNode in="shadowMatrixInner2"/></feMerge></filter><rect id="g" height="1600" rx="2" width="2560"/><filter id="h" height="103.4%" width="102.1%" x="-1.1%" y="-1.7%"><feMorphology in="SourceAlpha" operator="dilate" radius="1" result="shadowSpreadOuter1"/><feOffset in="shadowSpreadOuter1" result="shadowOffsetOuter1"/><feGaussianBlur in="shadowOffsetOuter1" result="shadowBlurOuter1" stdDeviation="8"/><feColorMatrix in="shadowBlurOuter1" values="0 0 0 0 0   0 0 0 0 0   0 0 0 0 0  0 0 0 0.08 0"/></filter><mask id="i" fill="#fff"><use fill="#fff" fill-rule="evenodd" xlink:href="#g"/></mask></defs><g fill="none" fill-rule="evenodd"><g transform="translate(103 100)"><use fill="#000" filter="url(#b)" xlink:href="#a"/><use fill="#fff" xlink:href="#a"/><use fill="#000" filter="url(#c)" xlink:href="#a"/><circle cx="1731" cy="96" fill="#ededed" r="12"/><use fill="#000" filter="url(#e)" xlink:href="#d"/><use fill="#fff" xlink:href="#d"/><use fill="#000" filter="url(#f)" xlink:href="#d"/><path d="m1380 1858h700v7.99165c0 8.84117-7.14125 16.55901-15.95112 17.14182 0 0-72.21745 6.86653-332.66667 6.86653s-335.41955-6.88974-335.41955-6.88974c-8.81593-.61318-15.96266-8.27854-15.96266-17.11861z" fill="#f6f6f6"/></g><g transform="translate(553 262)"><use fill="#000" filter="url(#h)" xlink:href="#g"/><g mask="url(#i)"><path d="m1 1h2558v1598h-2558z" fill="#fff" stroke="#000" stroke-opacity=".04" stroke-width="2"/><g fill="#fff" opacity=".296" transform="translate(170.372 281.631)"><rect height="29.18" rx="3" width="91.756"/><rect height="29.18" rx="3" width="190.394" x="114.695"/></g><g transform="translate(96.725 50.004)"><g fill-rule="nonzero" transform="translate(.153 .376)"><path d="m291.879727 0c34.298026 0 62.10207 21.5745441 62.10207 48.188093s-27.804044 48.188093-62.10207 48.188093-62.102069-21.5745441-62.102069-48.188093 27.804043-48.188093 62.102069-48.188093zm5.279812 11.63098h-3.772227c-1.10457 0-2 .8954305-2 2l.000147 21.7638855c-4.188056-2.9103917-9.38633-4.5811052-15.184802-4.5811052-14.804131 0-25.853591 11.0487207-25.853591 25.815761s11.04946 25.815761 25.853591 25.815761c9.903515 0 18.056188-4.8736403 22.415201-12.4733874l.309203.309548c4.602153 4.5114779 11.001339 7.2094567 18.317376 7.2094567 14.913445 0 25.857124-11.0502311 25.857124-25.8192901 0-14.7690589-10.943679-25.81929-25.857124-25.81929-6.650041 0-12.54256 2.2291303-17.016531 6.0231384-.264069.2239349-.016251-7.6412788-.00075-15.4853383l.00075-.7467298c0-2.776047-2.048974-4.0124098-3.068367-4.0124098zm-21.32286 31.003829c8.224927 0 14.009491 6.1217248 14.009491 14.0541007 0 7.759933-5.784564 14.0541008-14.009491 14.0541008s-14.009492-6.2941678-14.009492-14.0541008c0-7.9323759 5.784565-14.0541007 14.009492-14.0541007zm42.627501-4.652392c8.224927 0 14.009491 6.1217249 14.009491 14.0541008 0 7.7599329-5.784564 14.0541007-14.009491 14.0541007s-14.009492-6.2941678-14.009492-14.0541007c0-7.9323759 5.784565-14.0541008 14.009492-14.0541008zm-63.312708-21.5332237h-3.033425c-.938551 0-1.699396.7632682-1.699396 1.7048074v21.4117507c0 .1047441.032895.2068432.094041.2918867.161205.2242046.473641.2752761.697846.1140715l7.281852-5.2357016c.391974-.2818318.62434-.735099.62434-1.2178748v-13.091056c0-2.1969246-1.775306-3.9778839-3.965258-3.9778839z" fill="#1851be"/><path d="m191.272634 27.980183c14.821956 0 25.344413 8.7027675 25.570703 25.7732413.006806.5134558-.022044 1.2674083-.08655 2.2618574-.068225 1.0521111-.941485 1.8705611-1.995806 1.8705611h-40.120618c0 6.6253612 3.598882 14.2459688 17.197995 14.2459688 7.6768 0 15.180214-2.338988 22.510242-7.0169641l.563511-.3644509c.692886-.4540847 1.62269-.2604977 2.076774.4323884.126953.1937173.207323.4142019.23481.6441757.263683 2.2061227.136897 3.6207637-.380358 4.243923-1.027814 1.23825-10.539598 10.7607562-25.004979 10.7607562-15.727114 0-27.267873-11.0922811-27.267873-26.5344763 0-15.0072038 10.975036-26.3169806 26.702149-26.3169806zm0 8.6998283c-9.051576 0-15.274535 5.219897-16.519126 13.0497425h31.906806c-1.244592-7.8298455-6.788683-13.0497425-15.38768-13.0497425zm-31.88038-28.90773823c1.10457 0 2 .8954305 2 2l.00075 42.16252183c.048006.6857335.072377 1.3803049.072377 2.0829821 0 15.3379709-11.611927 26.8138629-27.169655 26.8138629-15.670466 0-27.169656-11.475892-27.169656-26.8138629 0-15.337971 11.49919-26.813863 27.169656-26.813863 7.025411 0 13.24621 2.3401172 17.956483 6.3192532l-.000806-21.1804687c0-2.52417629 2.04625-4.57042543 4.570426-4.57042543zm-25.096528 28.25925013c-10.259082 0-17.47426 7.8345032-17.47426 17.9862538 0 9.9310603 7.215178 17.9862537 17.47426 17.9862537 10.259081 0 17.474259-8.0551934 17.474259-17.9862537 0-10.1517506-7.215178-17.9862538-17.474259-17.9862538zm-55.8918631-8.0513402c15.557728 0 27.1696551 11.3097768 27.1696551 26.4257285 0 15.1159516-11.6119271 26.4257284-27.1696551 26.4257284-15.6704652 0-27.1696555-11.3097768-27.1696555-26.4257284 0-15.1159517 11.4991903-26.4257285 27.1696555-26.4257285zm0 8.6998283c-10.2590815 0-17.4742597 7.7210976-17.4742597 17.7259002 0 9.7873068 7.2151782 17.7259001 17.4742597 17.7259001s17.4742598-7.9385933 17.4742598-17.7259001c0-10.0048026-7.2151783-17.7259002-17.4742598-17.7259002zm-51.2535703-8.6998283c14.1947587 0 22.5313631 9.2182774 22.5313631 21.906965v25.8900373c0 1.9329966-1.5670034 3.5-3.5 3.5h-4.1884861c-1.1045695 0-2-.8954305-2-2v-26.630885c0-8.2422245-4.3936159-13.9900915-13.8567884-13.9900915-16.44789505 0-16.44789505 7.4921264-16.44789505 16.7013495v25.919627h-7.68848615c-1.1045695 0-2-.8954305-2-2 0-11.3048811 0-22.6097621 0-33.9146431 0-10.9632011 19.0390018-15.3823592 27.1502926-15.3823592z" fill="#040f20" stroke="#040e1f" stroke-width=".275"/></g><g fill="#8792a2" opacity=".499" transform="translate(483.736 17.85)"><rect height="59.661" opacity=".316" rx="10" width="66.464" y="7.768"/><rect height="59.661" opacity=".316" rx="10" width="66.464" x="135.22" y="7.768"/><rect height="59.661" opacity=".316" rx="10" width="66.464" x="676.099" y="7.768"/><rect height="59.661" opacity=".316" rx="10" width="66.464" x="270.44" y="7.768"/><rect height="59.661" opacity=".316" rx="10" width="66.464" x="405.66" y="7.768"/><rect height="59.661" opacity=".316" rx="10" width="66.464" x="811.319" y="7.768"/><rect height="59.661" opacity=".316" rx="10" width="66.464" x="1679.937" y="7.764"/><rect height="59.661" opacity=".316" rx="10" width="66.464" x="1544.717" y="7.764"/><rect height="59.661" opacity=".316" rx="10" width="66.464" x="1409.498" y="7.764"/><rect height="75.724" opacity=".598" rx="36.67" width="73.34" x="1808.281" y=".88"/><rect height="59.661" opacity=".316" rx="10" width="66.464" x="540.879" y="7.768"/></g><g fill="#f84f77"><rect height="36.715" rx="8" width="36.67" x="802.305" y="7.26"/><rect height="36.715" rx="8" width="36.67" x="2078.874" y="7.256"/></g></g><g transform="translate(91 294)"><g transform="translate(6.35 498.101)"><rect fill="#8792a2" height="105.554" opacity=".322" rx="10" width="133.058" x="999.045" y="1.121"/><rect fill="#8792a2" height="105.554" opacity=".322" rx="10" width="130.764" x="801.751" y="1.121"/><rect fill="#eceef0" height="22.947" rx="11.473" width="130.764" x="801.751" y="127.329"/><rect fill="#eceef0" height="22.947" rx="11.473" width="130.764" x="1001.339" y="127.329"/><rect fill="#f84f77" height="151.321" rx="13.752" width="27.505" x="1185.795" y=".889"/><g fill="#8792a2"><rect height="57.367" opacity=".32" rx="28.676" width="57.353" x="1265.45" y="1.121"/><rect height="22.947" opacity=".164" rx="11.473" width="130.764" x="1345.825" y="19.945"/><rect height="22.947" opacity=".164" rx="11.473" width="284.47" x="1265.531" y="72.722"/><rect height="22.947" opacity=".164" rx="11.473" width="110.117" x="1561.472" y="72.722"/><rect height="22.947" opacity=".164" rx="11.473" width="121.588" x="1265.531" y="107.142"/><ellipse cx="74.294" cy="76" opacity=".24" rx="73.982" ry="74"/><path d="m399.609922 58.2081988c8.863756 0 16.049249 7.1854935 16.049249 16.049249s-7.185493 16.0492491-16.049249 16.0492491h-190.232256c-8.863755 0-16.049249-7.1854936-16.049249-16.0492491s7.185494-16.049249 16.049249-16.049249zm206.286267 0c8.863756 0 16.049249 7.1854935 16.049249 16.049249s-7.185493 16.0492491-16.049249 16.0492491h-158.143281c-8.863756 0-16.049249-7.1854936-16.049249-16.0492491s7.185493-16.049249 16.049249-16.049249z" opacity=".28"/><rect height="35.481" opacity=".28" rx="17.741" width="538.636" x="193.588" y="1.589"/></g></g><rect fill="#8792a2" height="105.554" opacity=".322" rx="10" width="133.058" x="1005.394" y="772.287"/><rect fill="#8792a2" height="105.554" opacity=".322" rx="10" width="130.764" x="808.101" y="772.287"/><rect fill="#8792a2" height="105.554" opacity=".322" rx="10" width="133.058" x="1005.394" y="1045.351"/><rect fill="#8792a2" height="105.554" opacity=".322" rx="10" width="130.764" x="808.101" y="1045.351"/><rect fill="#8792a2" height="105.554" opacity=".322" rx="3" width="133.058" x="1005.394" y="1364.271"/><rect fill="#8792a2" height="105.554" opacity=".322" rx="3" width="130.764" x="808.101" y="1364.271"/><rect fill="#eceef0" height="22.947" rx="11.473" width="130.764" x="808.101" y="898.495"/><rect fill="#eceef0" height="22.947" rx="11.473" width="130.764" x="1007.688" y="898.495"/><rect fill="#eceef0" height="22.947" rx="11.473" width="130.764" x="808.101" y="1171.56"/><rect fill="#eceef0" height="22.947" rx="11.473" width="130.764" x="1007.688" y="1171.56"/><rect fill="#eceef0" height="22.947" rx="3" width="130.764" x="808.101" y="1490.48"/><rect fill="#eceef0" height="22.947" rx="3" width="130.764" x="1007.688" y="1490.48"/><rect fill="#1851be" height="151.321" rx="13.752" width="27.505" x="1192.144" y="771.828"/><rect fill="#bccceb" height="151.321" rx="13.752" width="27.505" x="1192.144" y="1042.372"/><rect fill="#512da8" height="151.321" rx="3" width="27.505" x="1192.144" y="1363.357"/><g fill="#8792a2"><rect height="57.367" opacity=".32" rx="28.676" width="57.353" x="1271.799" y="772.287"/><rect height="57.367" opacity=".32" rx="28.676" width="57.353" x="1271.799" y="1045.351"/><rect height="57.367" opacity=".32" rx="11.5" width="57.353" x="1271.799" y="1364.271"/><rect height="22.947" opacity=".164" rx="11.473" width="130.764" x="1352.174" y="791.111"/><rect height="22.947" opacity=".164" rx="11.473" width="284.47" x="1271.88" y="843.888"/><rect height="22.947" opacity=".164" rx="11.473" width="110.117" x="1567.821" y="843.888"/><rect height="22.947" opacity=".164" rx="11.473" width="121.588" x="1271.88" y="878.308"/><rect height="22.947" opacity=".164" rx="11.473" width="130.764" x="1352.174" y="1064.175"/><rect height="22.947" opacity=".164" rx="11.473" width="169.764" x="1271.88" y="1116.953"/><rect height="22.947" opacity=".164" rx="11.473" width="224.823" x="1453.115" y="1116.953"/><rect height="22.947" opacity=".164" rx="11.473" width="252.352" x="1271.88" y="1151.334"/><rect height="22.947" opacity=".164" rx="3" width="130.764" x="1352.174" y="1383.095"/><rect height="22.947" opacity=".164" rx="3" width="233.999" x="1271.88" y="1435.872"/><rect height="22.947" opacity=".164" rx="3" width="121.588" x="1271.88" y="1470.292"/><rect height="22.947" opacity=".164" rx="3" width="160.588" x="1404.939" y="1470.292"/><ellipse cx="80.643" cy="848.479" opacity=".24" rx="80.294" ry="80.313"/><path d="m364.701786 829.146518c8.863755 0 16.049249 7.185493 16.049249 16.049249 0 8.863755-7.185494 16.049249-16.049249 16.049249h-148.975003c-8.863756 0-16.049249-7.185494-16.049249-16.049249 0-8.863756 7.185493-16.049249 16.049249-16.049249zm291.092843 0c8.863756 0 16.049249 7.185493 16.049249 16.049249 0 8.863755-7.185493 16.049249-16.049249 16.049249h-240.657788c-8.863756 0-16.049249-7.185494-16.049249-16.049249 0-8.863756 7.185493-16.049249 16.049249-16.049249z" opacity=".28"/><rect height="35.481" opacity=".28" rx="17.741" width="412.573" x="199.937" y="772.755"/><ellipse cx="80.643" cy="1121.544" opacity=".24" rx="80.294" ry="80.313"/></g><ellipse cx="218.014" cy="1205.158" fill="#1851be" rx="20.629" ry="20.635"/><rect fill="#eceef0" height="27.513" rx="13.756" width="139" x="257.103" y="1191.401"/><rect fill="#eceef0" height="27.513" rx="13.756" width="105" x="257.103" y="1244.134"/><ellipse cx="218.014" cy="1257.891" fill="#f84f77" rx="20.629" ry="20.635"/><ellipse cx="474.726" cy="1205.158" fill="#bccceb" rx="20.629" ry="20.635"/><rect fill="#eceef0" height="27.513" rx="13.756" width="139" x="516" y="1244.026"/><rect fill="#eceef0" height="27.513" rx="13.756" width="193" x="516" y="1189"/><ellipse cx="218.014" cy="1519.264" fill="#512da8" rx="20.629" ry="20.635"/><rect fill="#eceef0" height="27.513" rx="5" width="158.153" x="250.103" y="1505.508"/><ellipse cx="474.726" cy="1519.264" fill="#8369c0" rx="20.629" ry="20.635"/><rect fill="#eceef0" height="27.513" rx="5" width="146.692" x="506.815" y="1505.508"/><ellipse cx="474.726" cy="1257.891" fill="#8267bf" rx="20.629" ry="20.635"/><rect fill="#8792a2" height="32.098" opacity=".28" rx="16.049" width="529.468" x="199.678" y="1101.984"/><rect fill="#8792a2" height="35.481" opacity=".28" rx="17.741" width="373.607" x="199.937" y="1045.82"/><ellipse cx="80.643" cy="1440.464" fill="#8792a2" opacity=".24" rx="80.294" ry="80.313"/><path d="m362.290687 1420.67598c3.865993 0 7 3.13401 7 7v18.0985c0 3.86599-3.134007 7-7 7h-155.613153c-3.865993 0-7-3.13401-7-7v-18.0985c0-3.86599 3.134007-7 7-7zm265.880077 0c3.865993 0 7 3.13401 7 7v18.0985c0 3.86599-3.134007 7-7 7h-228.959381c-3.865993 0-7-3.13401-7-7v-18.0985c0-3.86599 3.134007-7 7-7z" fill="#8792a2" opacity=".4"/><rect fill="#8792a2" height="35.481" opacity=".4" rx="10.238" width="284.217" x="199.937" y="1364.74"/><rect fill="#d7d0e9" height="275.13" opacity=".598" rx="12" width="538.636" x="1829.339" y="496.698"/><rect fill="#512da8" height="22.927" opacity=".666" rx="11.464" width="137.524" x="1859.136" y="533.382"/><rect fill="#512da8" height="22.927" opacity=".298" rx="11.464" width="332.35" x="2008.12" y="533.382"/><rect fill="#512da8" height="22.927" opacity=".298" rx="11.464" width="481.335" x="1859.136" y="576.944"/><rect fill="#512da8" height="22.927" opacity=".298" rx="11.464" width="332.35" x="1859.136" y="620.506"/><rect fill="#512da8" height="22.927" opacity=".298" rx="11.464" width="224.623" x="1859.136" y="664.069"/><rect fill="#d7d0e9" height="275.13" opacity=".598" rx="12" width="538.636" x="1829.339" y="794.755"/><rect fill="#512da8" height="22.927" opacity=".673" rx="11.464" width="201.702" x="1859.136" y="831.439"/><rect fill="#512da8" height="22.927" opacity=".298" rx="11.464" width="268.172" x="2072.298" y="831.439"/><rect fill="#512da8" height="22.927" opacity=".298" rx="11.464" width="444.662" x="1859.136" y="875.002"/><rect fill="#512da8" height="22.927" opacity=".298" rx="11.464" width="481.335" x="1859.136" y="918.564"/><rect fill="#512da8" height="22.927" opacity=".298" rx="11.464" width="332.35" x="1859.136" y="962.126"/><g transform="translate(4.852 84.003)"><rect fill="#1851be" height="275.13" rx="12" width="543.221"/><g fill="#fff"><rect height="22.927" opacity=".966" rx="11.464" width="481.335" x="29.797" y="45.855"/><rect height="22.927" opacity=".598" rx="11.464" width="286.509" x="29.797" y="89.417"/><rect height="22.927" opacity=".298" rx="11.464" transform="matrix(-1 0 0 1 838.897 0)" width="183.366" x="327.766" y="89.417"/><rect height="45.855" opacity=".298" rx="7" transform="matrix(-1 0 0 1 105.435 0)" width="45.841" x="29.797" y="206.347"/><rect height="22.927" opacity=".598" rx="3" transform="matrix(-1 0 0 1 981.006 0)" width="45.841" x="467.582" y="217.811"/></g></g><rect fill="#8792a2" height="18.342" opacity=".241" rx="9.171" width="27.505" x="215" y="10"/><rect fill="#1851be" height="36" rx="18" width="190.242" x="4.852" y=".878"/><rect fill="#8792a2" height="36" opacity=".201" rx="18" width="286.509" x="263" y="1"/><g fill="#1851be" transform="translate(609.958 84.003)"><rect height="275.13" opacity=".25" rx="12" width="543.221"/><rect height="22.927" opacity=".866" rx="11.464" width="481.335" x="29.797" y="45.855"/><rect height="22.927" opacity=".498" rx="11.464" width="293.385" x="29.797" y="89.417"/><rect height="22.927" opacity=".198" rx="11.464" width="176.489" x="334.642" y="89.417"/><rect height="45.855" opacity=".198" rx="7" transform="matrix(-1 0 0 1 105.435 0)" width="45.841" x="29.797" y="206.347"/><rect height="22.927" opacity=".498" rx="3" transform="matrix(-1 0 0 1 976.422 0)" width="45.841" x="465.29" y="217.811"/></g><g transform="translate(1217.356 84.003)"><rect fill="#512da8" height="275.13" rx="12" width="543.221"/><g fill="#fff"><rect height="22.927" opacity=".966" rx="11.464" width="403.404" x="29.797" y="45.855"/><rect height="22.927" opacity=".598" rx="11.464" width="293.385" x="29.797" y="89.417"/><rect height="22.927" opacity=".298" rx="11.464" transform="matrix(-1 0 0 1 834.313 0)" width="165.029" x="334.642" y="89.417"/><rect height="45.855" opacity=".298" rx="7" transform="matrix(-1 0 0 1 105.435 0)" width="45.841" x="29.797" y="206.347"/><rect height="22.927" opacity=".598" rx="3" transform="matrix(-1 0 0 1 981.006 0)" width="45.841" x="467.582" y="217.811"/></g></g><g transform="translate(1824.755 84.003)"><rect fill="#bfe5e1" height="275.13" rx="12" width="543.221"/><g fill="#0e423c"><rect height="22.927" opacity=".966" rx="11.464" width="375.899" x="29.797" y="45.855"/><rect height="22.927" opacity=".598" rx="11.464" width="339.226" x="29.797" y="89.417"/><rect height="22.927" opacity=".298" rx="11.464" transform="matrix(-1 0 0 1 889.323 0)" width="128.356" x="380.484" y="89.417"/><rect height="45.855" opacity=".298" rx="7" transform="matrix(-1 0 0 1 105.435 0)" width="45.841" x="29.797" y="206.347"/><rect height="22.927" opacity=".598" rx="3" transform="matrix(-1 0 0 1 971.838 0)" width="45.841" x="462.998" y="217.811"/></g></g><path d="m2255.66399 1138.66775h109.31142c1.65685 0 3 1.34314 3 3v62.78249c0 1.65686-1.34315 3-3 3h-109.31142zm0 114.63749h109.31142c1.65685 0 3 1.34315 3 3v62.7825c0 1.65685-1.34315 3-3 3h-109.31142zm0 114.6375h109.31142c1.65685 0 3 1.34314 3 3v62.78249c0 1.65686-1.34315 3-3 3h-109.31142zm0 114.63749h109.31142c1.65685 0 3 1.34314 3 3v62.78249c0 1.65686-1.34315 3-3 3h-109.31142z" fill="#1851be" opacity=".197"/><rect fill="#1851be" height="22.927" opacity=".383" rx="6" width="82.515" x="2271.708" y="1161.595"/><rect fill="#1851be" height="22.927" opacity=".383" rx="6" width="82.515" x="2271.708" y="1276.233"/><rect fill="#1851be" height="22.927" opacity=".383" rx="6" width="82.515" x="2271.708" y="1390.87"/><rect fill="#1851be" height="22.927" opacity=".383" rx="6" width="82.515" x="2271.708" y="1505.508"/><path d="m1832.33904 1138.66775h423.32495v68.78249h-423.32495c-1.65685 0-3-1.34314-3-3v-62.78249c0-1.65686 1.34315-3 3-3zm0 114.63749h423.32495v68.7825h-423.32495c-1.65685 0-3-1.34315-3-3v-62.7825c0-1.65685 1.34315-3 3-3z" fill="#1851be" opacity=".117"/><path d="m1832.33904 1367.94274h423.32495v68.78249h-423.32495c-1.65685 0-3-1.34314-3-3v-62.78249c0-1.65686 1.34315-3 3-3z" fill="#1851be" opacity=".125"/><path d="m1832.33904 1482.58023h423.32495v68.78249h-423.32495c-1.65685 0-3-1.34314-3-3v-62.78249c0-1.65686 1.34315-3 3-3z" fill="#1851be" opacity=".117"/><rect fill="#fff" height="22.927" opacity=".717" rx="11.464" width="203.994" x="1859.136" y="1161.595"/><rect fill="#fff" height="22.927" opacity=".717" rx="11.464" width="261.296" x="1859.136" y="1276.233"/><rect fill="#fff" height="22.927" opacity=".717" rx="11.464" width="178.781" x="1859.136" y="1390.87"/><rect fill="#fff" height="22.927" opacity=".717" rx="11.464" width="261.296" x="1859.136" y="1505.508"/><path d="m1832.33904 1138.66775h391.23598v68.78249h-391.23598c-1.65685 0-3-1.34314-3-3v-62.78249c0-1.65686 1.34315-3 3-3zm0 114.63749h361.43907v68.7825h-361.43907c-1.65685 0-3-1.34315-3-3v-62.7825c0-1.65685 1.34315-3 3-3zm0 114.6375h230.7911v68.78249h-230.7911c-1.65685 0-3-1.34314-3-3v-62.78249c0-1.65686 1.34315-3 3-3zm0 114.63749h210.16248v68.78249h-210.16248c-1.65685 0-3-1.34314-3-3v-62.78249c0-1.65686 1.34315-3 3-3z" fill="#1851be" opacity=".2"/><rect fill="#8792a2" height="32.098" opacity=".364" rx="16.049" width="174.197" x="2.56" y="404.988"/></g></g></g></g></svg>