<svg height="450" viewBox="0 0 450 450" width="450" xmlns="http://www.w3.org/2000/svg"><g fill="#000" fill-rule="nonzero"><g transform="translate(62 176)"><path d="m49.390625 149.875h-17.03125c-2.8218299 0-5.109375 2.287545-5.109375 5.109375v17.03125c0 2.82183 2.2875451 5.109375 5.109375 5.109375h17.03125c2.8218299 0 5.109375-2.287545 5.109375-5.109375v-17.03125c0-2.82183-2.2875451-5.109375-5.109375-5.109375zm0-40.875h-17.03125c-2.8218299 0-5.109375 2.287545-5.109375 5.109375v17.03125c0 2.82183 2.2875451 5.109375 5.109375 5.109375h17.03125c2.8218299 0 5.109375-2.287545 5.109375-5.109375v-17.03125c0-2.82183-2.2875451-5.109375-5.109375-5.109375zm0-40.875h-17.03125c-2.8218299 0-5.109375 2.2875451-5.109375 5.109375v17.03125c0 2.8218299 2.2875451 5.109375 5.109375 5.109375h17.03125c2.8218299 0 5.109375-2.2875451 5.109375-5.109375v-17.03125c0-2.8218299-2.2875451-5.109375-5.109375-5.109375zm54.5 81.75h-17.03125c-2.8218299 0-5.109375 2.287545-5.109375 5.109375v17.03125c0 2.82183 2.2875451 5.109375 5.109375 5.109375h17.03125c2.82183 0 5.109375-2.287545 5.109375-5.109375v-17.03125c0-2.82183-2.287545-5.109375-5.109375-5.109375zm0-40.875h-17.03125c-2.8218299 0-5.109375 2.287545-5.109375 5.109375v17.03125c0 2.82183 2.2875451 5.109375 5.109375 5.109375h17.03125c2.82183 0 5.109375-2.287545 5.109375-5.109375v-17.03125c0-2.82183-2.287545-5.109375-5.109375-5.109375zm0-40.875h-17.03125c-2.8218299 0-5.109375 2.2875451-5.109375 5.109375v17.03125c0 2.8218299 2.2875451 5.109375 5.109375 5.109375h17.03125c2.82183 0 5.109375-2.2875451 5.109375-5.109375v-17.03125c0-2.8218299-2.287545-5.109375-5.109375-5.109375zm136.25 81.75h-17.03125c-2.82183 0-5.109375 2.287545-5.109375 5.109375v17.03125c0 2.82183 2.287545 5.109375 5.109375 5.109375h17.03125c2.82183 0 5.109375-2.287545 5.109375-5.109375v-17.03125c0-2.82183-2.287545-5.109375-5.109375-5.109375zm0-40.875h-17.03125c-2.82183 0-5.109375 2.287545-5.109375 5.109375v17.03125c0 2.82183 2.287545 5.109375 5.109375 5.109375h17.03125c2.82183 0 5.109375-2.287545 5.109375-5.109375v-17.03125c0-2.82183-2.287545-5.109375-5.109375-5.109375z" opacity=".4"/><path d="m262.28125 81.75h-57.90625v-71.53125c0-5.64365979-4.57509-10.21875-10.21875-10.21875h-61.3125c-5.64366 0-10.21875 4.57509021-10.21875 10.21875v30.65625h-27.25v-34.0625c0-3.76243986-3.0500601-6.8125-6.8125-6.8125h-6.8125c-3.7624399 0-6.8125 3.05006014-6.8125 6.8125v34.0625h-27.25v-34.0625c0-3.76243986-3.0500601-6.8125-6.8125-6.8125h-6.8125c-3.7624399 0-6.8125 3.05006014-6.8125 6.8125v34.0625h-17.03125c-5.64365979 0-10.21875 4.5750902-10.21875 10.21875v153.28125c0 7.52488 6.10012028 13.625 13.625 13.625h245.25c7.52488 0 13.625-6.10012 13.625-13.625v-112.40625c0-5.6436598-4.57509-10.21875-10.21875-10.21875zm-207.78125 90.265625c0 2.82183-2.2875451 5.109375-5.109375 5.109375h-17.03125c-2.8218299 0-5.109375-2.287545-5.109375-5.109375v-17.03125c0-2.82183 2.2875451-5.109375 5.109375-5.109375h17.03125c2.8218299 0 5.109375 2.287545 5.109375 5.109375zm0-40.875c0 2.82183-2.2875451 5.109375-5.109375 5.109375h-17.03125c-2.8218299 0-5.109375-2.287545-5.109375-5.109375v-17.03125c0-2.82183 2.2875451-5.109375 5.109375-5.109375h17.03125c2.8218299 0 5.109375 2.287545 5.109375 5.109375zm0-40.875c0 2.8218299-2.2875451 5.109375-5.109375 5.109375h-17.03125c-2.8218299 0-5.109375-2.2875451-5.109375-5.109375v-17.03125c0-2.8218299 2.2875451-5.109375 5.109375-5.109375h17.03125c2.8218299 0 5.109375 2.2875451 5.109375 5.109375zm54.5 81.75c0 2.82183-2.287545 5.109375-5.109375 5.109375h-17.03125c-2.8218299 0-5.109375-2.287545-5.109375-5.109375v-17.03125c0-2.82183 2.2875451-5.109375 5.109375-5.109375h17.03125c2.82183 0 5.109375 2.287545 5.109375 5.109375zm0-40.875c0 2.82183-2.287545 5.109375-5.109375 5.109375h-17.03125c-2.8218299 0-5.109375-2.287545-5.109375-5.109375v-17.03125c0-2.82183 2.2875451-5.109375 5.109375-5.109375h17.03125c2.82183 0 5.109375 2.287545 5.109375 5.109375zm0-40.875c0 2.8218299-2.287545 5.109375-5.109375 5.109375h-17.03125c-2.8218299 0-5.109375-2.2875451-5.109375-5.109375v-17.03125c0-2.8218299 2.2875451-5.109375 5.109375-5.109375h17.03125c2.82183 0 5.109375 2.2875451 5.109375 5.109375zm68.125 40.875c0 2.82183-2.287545 5.109375-5.109375 5.109375h-17.03125c-2.82183 0-5.109375-2.287545-5.109375-5.109375v-17.03125c0-2.82183 2.287545-5.109375 5.109375-5.109375h17.03125c2.82183 0 5.109375 2.287545 5.109375 5.109375zm0-40.875c0 2.8218299-2.287545 5.109375-5.109375 5.109375h-17.03125c-2.82183 0-5.109375-2.2875451-5.109375-5.109375v-17.03125c0-2.8218299 2.287545-5.109375 5.109375-5.109375h17.03125c2.82183 0 5.109375 2.2875451 5.109375 5.109375zm0-40.875c0 2.8218299-2.287545 5.109375-5.109375 5.109375h-17.03125c-2.82183 0-5.109375-2.2875451-5.109375-5.109375v-17.03125c0-2.8218299 2.287545-5.109375 5.109375-5.109375h17.03125c2.82183 0 5.109375 2.2875451 5.109375 5.109375zm68.125 122.625c0 2.82183-2.287545 5.109375-5.109375 5.109375h-17.03125c-2.82183 0-5.109375-2.287545-5.109375-5.109375v-17.03125c0-2.82183 2.287545-5.109375 5.109375-5.109375h17.03125c2.82183 0 5.109375 2.287545 5.109375 5.109375zm0-40.875c0 2.82183-2.287545 5.109375-5.109375 5.109375h-17.03125c-2.82183 0-5.109375-2.287545-5.109375-5.109375v-17.03125c0-2.82183 2.287545-5.109375 5.109375-5.109375h17.03125c2.82183 0 5.109375 2.287545 5.109375 5.109375z"/></g><g transform="translate(282 56)"><path d="m44.8476562 97.2117187 3.9023438-16.5867187-7.5-13.125h22.5l-7.5 13.125 3.9023437 16.5867187-7.6523437 15.2882813zm7.6523438-37.2117187c16.5685425 0 30-13.4314575 30-30s-13.4314575-30-30-30-30 13.4314575-30 30 13.4314575 30 30 30z" opacity=".4"/><path d="m74.953125 67.640625-22.453125 44.859375-22.453125-44.859375c-16.7109375.796875-30.046875 14.4609375-30.046875 31.359375v9.75c0 6.213203 5.03679656 11.25 11.25 11.25h82.5c6.2132034 0 11.25-5.036797 11.25-11.25v-9.75c0-16.8984375-13.3359375-30.5625-30.046875-31.359375z"/></g></g></svg>