<svg height="78" viewBox="0 0 87 78" width="87" xmlns="http://www.w3.org/2000/svg" xmlns:xlink="http://www.w3.org/1999/xlink"><linearGradient id="a" x1="50%" x2="50%" y1="0%" y2="100%"><stop offset="0" stop-color="#3f6abc"/><stop offset="1" stop-color="#1851be"/></linearGradient><filter id="b" height="107.4%" width="107.4%" x="-3.7%" y="-3.7%"><feGaussianBlur in="SourceGraphic" stdDeviation=".65"/></filter><linearGradient id="c" x1="0%" x2="0%" y1="0%" y2="100%"><stop offset="0" stop-color="#fff"/><stop offset="1" stop-color="#aec3eb"/></linearGradient><filter id="d" height="143.3%" width="110.3%" x="-5.1%" y="-21.7%"><feGaussianBlur in="SourceGraphic" stdDeviation=".65"/></filter><filter id="e" height="108.3%" width="113.9%" x="-7%" y="-4.1%"><feGaussianBlur in="SourceGraphic" stdDeviation=".65"/></filter><mask id="f" fill="#fff"><path d="m.5 13.84c0-7.367 5.973-13.34 13.34-13.34h48.32c7.367 0 13.34 5.973 13.34 13.34v48.32c0 7.367-5.973 13.34-13.34 13.34h-48.32c-7.367 0-13.34-5.973-13.34-13.34z" fill="#fff" fill-rule="evenodd"/></mask><g fill="none" fill-rule="evenodd" transform="translate(1 1)"><path d="m.5 13.84c0-7.367 5.973-13.34 13.34-13.34h48.32c7.367 0 13.34 5.973 13.34 13.34v48.32c0 7.367-5.973 13.34-13.34 13.34h-48.32c-7.367 0-13.34-5.973-13.34-13.34z" mask="url(#f)"/><path d="m.5 13.84c0-7.367 5.973-13.34 13.34-13.34h48.32c7.367 0 13.34 5.973 13.34 13.34v48.32c0 7.367-5.973 13.34-13.34 13.34h-48.32c-7.367 0-13.34-5.973-13.34-13.34z"/><path d="m.5 13.84c0-7.367 5.973-13.34 13.34-13.34h48.32c7.367 0 13.34 5.973 13.34 13.34v48.32c0 7.367-5.973 13.34-13.34 13.34h-48.32c-7.367 0-13.34-5.973-13.34-13.34z"/><g fill-rule="nonzero"><path d="m.5 13.84c0-7.367 5.973-13.34 13.34-13.34h48.32c7.367 0 13.34 5.973 13.34 13.34v48.32c0 7.367-5.973 13.34-13.34 13.34h-48.32c-7.367 0-13.34-5.973-13.34-13.34z" fill="url(#a)" filter="url(#b)" stroke="#fff" stroke-opacity=".01" stroke-width="1.68"/><path d="m.5 13.84c0-7.367 5.973-13.34 13.34-13.34h48.32c7.367 0 13.34 5.973 13.34 13.34v48.32c0 7.367-5.973 13.34-13.34 13.34h-48.32c-7.367 0-13.34-5.973-13.34-13.34z" fill="url(#a)" stroke="#fff" stroke-opacity=".01" stroke-width="1.68"/><g fill="url(#c)" transform="translate(16 11)"><path d="m69 41.7v3.6c0 1.4911688-1.1599895 2.7-2.5909091 2.7h-32.8181818c-1.4309196 0-2.5909091-1.2088312-2.5909091-2.7v-3.6c0-1.4911688 1.1599895-2.7 2.5909091-2.7h32.8181818c1.4309196 0 2.5909091 1.2088312 2.5909091 2.7z" filter="url(#d)"/><path d="m3.13860613 46.2435455-2.39814872-2.4386918c-.98727655-1.0081784-.98727655-2.6401734 0-3.6483518l16.26937899-16.6554257-16.26937899-16.65327322c-.98727655-1.0081784-.98727655-2.64017344 0-3.64835183l2.39814872-2.44299666c.99015592-1.00860599 2.5954462-1.00860599 3.58560211 0l20.53322406 20.91829341c.9900903 1.0086729.9900903 2.6439838 0 3.6526566l-20.53322406 20.916141c-.99015591 1.008606-2.59544619 1.008606-3.58560211 0z" filter="url(#e)"/><path d="m69 41.7v3.6c0 1.4911688-1.1599895 2.7-2.5909091 2.7h-32.8181818c-1.4309196 0-2.5909091-1.2088312-2.5909091-2.7v-3.6c0-1.4911688 1.1599895-2.7 2.5909091-2.7h32.8181818c1.4309196 0 2.5909091 1.2088312 2.5909091 2.7z"/><path d="m.74045741 43.8048537c-.98727655-1.0081784-.98727655-2.6401734 0-3.6483518l16.26937899-16.6554257-16.26937899-16.65327322c-.98727655-1.0081784-.98727655-2.64017344 0-3.64835183l2.39814872-2.44299666c.99015592-1.00860599 2.5954462-1.00860599 3.58560211 0l20.53322406 20.91829341c.9900903 1.0086729.9900903 2.6439838 0 3.6526566l-20.53322406 20.916141c-.99015591 1.008606-2.59544619 1.008606-3.58560211 0z"/></g></g></g></svg>