<svg xmlns="http://www.w3.org/2000/svg" xmlns:xlink="http://www.w3.org/1999/xlink" width="82" height="82" viewBox="0 0 82 82">
  <defs>
    <path id="icon-instanthosting-a" d="M0.5,13.84 C0.5,6.473 6.473,0.5 13.84,0.5 L62.16,0.5 C69.527,0.5 75.5,6.473 75.5,13.84 L75.5,62.16 C75.5,69.527 69.527,75.5 62.16,75.5 L13.84,75.5 C6.473,75.5 0.5,69.527 0.5,62.16 L0.5,13.84 Z"/>
    <linearGradient id="icon-instanthosting-c" x1="50%" x2="50%" y1="0%" y2="100%">
      <stop offset="0%" stop-color="#3F6ABC"/>
      <stop offset="100%" stop-color="#1851BE"/>
    </linearGradient>
    <filter id="icon-instanthosting-d" width="107.4%" height="107.4%" x="-3.7%" y="-3.7%" filterUnits="objectBoundingBox">
      <feGaussianBlur in="SourceGraphic" stdDeviation=".65"/>
    </filter>
    <linearGradient id="icon-instanthosting-e" x1="0%" x2="0%" y1="0%" y2="100%">
      <stop offset="0%" stop-color="#FFF"/>
      <stop offset="100%" stop-color="#AEC3EB"/>
    </linearGradient>
    <linearGradient id="icon-instanthosting-f" x1="0%" x2="0%" y1="0%" y2="100%">
      <stop offset="0%" stop-color="#FFF"/>
      <stop offset="100%" stop-color="#AEC3EB"/>
    </linearGradient>
    <linearGradient id="icon-instanthosting-g" x1="0%" x2="0%" y1="0%" y2="100%">
      <stop offset="0%" stop-color="#FFF"/>
      <stop offset="100%" stop-color="#AEC3EB"/>
    </linearGradient>
  </defs>
  <g fill="none" fill-rule="evenodd" transform="translate(1)">
    <g transform="translate(0 5)">
      <mask id="icon-instanthosting-b" fill="#fff">
        <use xlink:href="#icon-instanthosting-a"/>
      </mask>
      <path d="M0.5,13.84 C0.5,6.473 6.473,0.5 13.84,0.5 L62.16,0.5 C69.527,0.5 75.5,6.473 75.5,13.84 L75.5,62.16 C75.5,69.527 69.527,75.5 62.16,75.5 L13.84,75.5 C6.473,75.5 0.5,69.527 0.5,62.16 L0.5,13.84 Z" mask="url(#icon-instanthosting-b)"/>
      <path d="M0.5,13.84 C0.5,6.473 6.473,0.5 13.84,0.5 L62.16,0.5 C69.527,0.5 75.5,6.473 75.5,13.84 L75.5,62.16 C75.5,69.527 69.527,75.5 62.16,75.5 L13.84,75.5 C6.473,75.5 0.5,69.527 0.5,62.16 L0.5,13.84 Z"/>
      <path d="M0.5,13.84 C0.5,6.473 6.473,0.5 13.84,0.5 L62.16,0.5 C69.527,0.5 75.5,6.473 75.5,13.84 L75.5,62.16 C75.5,69.527 69.527,75.5 62.16,75.5 L13.84,75.5 C6.473,75.5 0.5,69.527 0.5,62.16 L0.5,13.84 Z"/>
      <path fill="url(#icon-instanthosting-c)" fill-rule="nonzero" stroke="#FFF" stroke-opacity=".01" stroke-width="1.68" d="M0.5,13.84 C0.5,6.473 6.473,0.5 13.84,0.5 L62.16,0.5 C69.527,0.5 75.5,6.473 75.5,13.84 L75.5,62.16 C75.5,69.527 69.527,75.5 62.16,75.5 L13.84,75.5 C6.473,75.5 0.5,69.527 0.5,62.16 L0.5,13.84 Z" filter="url(#icon-instanthosting-d)"/>
      <path fill="url(#icon-instanthosting-c)" fill-rule="nonzero" stroke="#FFF" stroke-opacity=".01" stroke-width="1.68" d="M0.5,13.84 C0.5,6.473 6.473,0.5 13.84,0.5 L62.16,0.5 C69.527,0.5 75.5,6.473 75.5,13.84 L75.5,62.16 C75.5,69.527 69.527,75.5 62.16,75.5 L13.84,75.5 C6.473,75.5 0.5,69.527 0.5,62.16 L0.5,13.84 Z"/>
    </g>
    <g fill-rule="nonzero" transform="translate(11)">
      <path fill="url(#icon-instanthosting-e)" d="M69.5099618,5.5928998 L20.5761042,60.7262987 C19.1641716,62.3106918 16.7566623,62.4336963 15.1955363,61.0012027 C15.1478785,60.9576056 15.1014121,60.9127975 15.0561372,60.8667783 L10.1164042,55.8494767 C8.62786526,54.3361452 8.62786526,51.8828928 10.1164042,50.3695613 C10.1616792,50.3235421 10.2081455,50.278734 10.2546119,50.2351368 L64.4963592,0.498092235 C65.2487786,-0.190946483 66.3999333,-0.161694534 67.1175392,0.564698942 L69.438475,2.92257637 C70.158593,3.65109596 70.1900368,4.8256534 69.5099618,5.5928998 Z"/>
      <polygon fill="url(#icon-instanthosting-f)" points="24.805 18.398 21.605 12 18.404 18.399 12 21.597 18.404 24.796 21.605 31.194 24.805 24.796 31.209 21.597"/>
      <polygon fill="url(#icon-instanthosting-f)" points="50.596 55.204 47.395 48.806 44.195 55.204 37.791 58.403 44.195 61.602 47.395 68 50.596 61.602 57 58.403"/>
      <polygon fill="url(#icon-instanthosting-g)" points="6.158 25.128 4.237 28.967 .395 30.887 4.237 32.806 6.158 36.645 8.079 32.806 11.921 30.887 8.079 28.967"/>
      <path fill="url(#icon-instanthosting-e)" d="M69.5099618,5.5928998 L20.5761042,60.7262987 C19.1641716,62.3106918 16.7566623,62.4336963 15.1955363,61.0012027 C15.1478785,60.9576056 15.1014121,60.9127975 15.0561372,60.8667783 L10.1164042,55.8494767 C8.62786526,54.3361452 8.62786526,51.8828928 10.1164042,50.3695613 C10.1616792,50.3235421 10.2081455,50.278734 10.2546119,50.2351368 L64.4963592,0.498092235 C65.2487786,-0.190946483 66.3999333,-0.161694534 67.1175392,0.564698942 L69.438475,2.92257637 C70.158593,3.65109596 70.1900368,4.8256534 69.5099618,5.5928998 Z"/>
      <polygon fill="url(#icon-instanthosting-f)" points="24.805 18.398 21.605 12 18.404 18.399 12 21.597 18.404 24.796 21.605 31.194 24.805 24.796 31.209 21.597"/>
      <polygon fill="url(#icon-instanthosting-f)" points="50.596 55.204 47.395 48.806 44.195 55.204 37.791 58.403 44.195 61.602 47.395 68 50.596 61.602 57 58.403"/>
      <polygon fill="url(#icon-instanthosting-g)" points="6.158 25.128 4.237 28.967 .395 30.887 4.237 32.806 6.158 36.645 8.079 32.806 11.921 30.887 8.079 28.967"/>
    </g>
  </g>
</svg>
