<svg xmlns="http://www.w3.org/2000/svg" xmlns:xlink="http://www.w3.org/1999/xlink" width="87" height="78" viewBox="0 0 87 78">
  <defs>
    <path id="icon-opensource-a" d="M0.5,13.84 C0.5,6.473 6.473,0.5 13.84,0.5 L62.16,0.5 C69.527,0.5 75.5,6.473 75.5,13.84 L75.5,62.16 C75.5,69.527 69.527,75.5 62.16,75.5 L13.84,75.5 C6.473,75.5 0.5,69.527 0.5,62.16 L0.5,13.84 Z"/>
    <linearGradient id="icon-opensource-c" x1="50%" x2="50%" y1="0%" y2="100%">
      <stop offset="0%" stop-color="#3F6ABC"/>
      <stop offset="100%" stop-color="#1851BE"/>
    </linearGradient>
    <filter id="icon-opensource-d" width="107.4%" height="107.4%" x="-3.7%" y="-3.7%" filterUnits="objectBoundingBox">
      <feGaussianBlur in="SourceGraphic" stdDeviation=".65"/>
    </filter>
    <linearGradient id="icon-opensource-e" x1="0%" x2="0%" y1="0%" y2="100%">
      <stop offset="0%" stop-color="#FFF"/>
      <stop offset="100%" stop-color="#AEC3EB"/>
    </linearGradient>
    <filter id="icon-opensource-f" width="110.3%" height="143.3%" x="-5.1%" y="-21.7%" filterUnits="objectBoundingBox">
      <feGaussianBlur in="SourceGraphic" stdDeviation=".65"/>
    </filter>
    <linearGradient id="icon-opensource-g" x1="0%" x2="0%" y1="0%" y2="100%">
      <stop offset="0%" stop-color="#FFF"/>
      <stop offset="100%" stop-color="#AEC3EB"/>
    </linearGradient>
    <filter id="icon-opensource-h" width="113.9%" height="108.3%" x="-7%" y="-4.1%" filterUnits="objectBoundingBox">
      <feGaussianBlur in="SourceGraphic" stdDeviation=".65"/>
    </filter>
  </defs>
  <g fill="none" fill-rule="evenodd" transform="translate(1 1)">
    <mask id="icon-opensource-b" fill="#fff">
      <use xlink:href="#icon-opensource-a"/>
    </mask>
    <path d="M0.5,13.84 C0.5,6.473 6.473,0.5 13.84,0.5 L62.16,0.5 C69.527,0.5 75.5,6.473 75.5,13.84 L75.5,62.16 C75.5,69.527 69.527,75.5 62.16,75.5 L13.84,75.5 C6.473,75.5 0.5,69.527 0.5,62.16 L0.5,13.84 Z" mask="url(#icon-opensource-b)"/>
    <path d="M0.5,13.84 C0.5,6.473 6.473,0.5 13.84,0.5 L62.16,0.5 C69.527,0.5 75.5,6.473 75.5,13.84 L75.5,62.16 C75.5,69.527 69.527,75.5 62.16,75.5 L13.84,75.5 C6.473,75.5 0.5,69.527 0.5,62.16 L0.5,13.84 Z"/>
    <path d="M0.5,13.84 C0.5,6.473 6.473,0.5 13.84,0.5 L62.16,0.5 C69.527,0.5 75.5,6.473 75.5,13.84 L75.5,62.16 C75.5,69.527 69.527,75.5 62.16,75.5 L13.84,75.5 C6.473,75.5 0.5,69.527 0.5,62.16 L0.5,13.84 Z"/>
    <path fill="url(#icon-opensource-c)" fill-rule="nonzero" stroke="#FFF" stroke-opacity=".01" stroke-width="1.68" d="M0.5,13.84 C0.5,6.473 6.473,0.5 13.84,0.5 L62.16,0.5 C69.527,0.5 75.5,6.473 75.5,13.84 L75.5,62.16 C75.5,69.527 69.527,75.5 62.16,75.5 L13.84,75.5 C6.473,75.5 0.5,69.527 0.5,62.16 L0.5,13.84 Z" filter="url(#icon-opensource-d)"/>
    <path fill="url(#icon-opensource-c)" fill-rule="nonzero" stroke="#FFF" stroke-opacity=".01" stroke-width="1.68" d="M0.5,13.84 C0.5,6.473 6.473,0.5 13.84,0.5 L62.16,0.5 C69.527,0.5 75.5,6.473 75.5,13.84 L75.5,62.16 C75.5,69.527 69.527,75.5 62.16,75.5 L13.84,75.5 C6.473,75.5 0.5,69.527 0.5,62.16 L0.5,13.84 Z"/>
    <g fill-rule="nonzero" transform="translate(16 11)">
      <path fill="url(#icon-opensource-e)" d="M69,41.7 L69,45.3 C69,46.7911688 67.8400105,48 66.4090909,48 L33.5909091,48 C32.1599895,48 31,46.7911688 31,45.3 L31,41.7 C31,40.2088312 32.1599895,39 33.5909091,39 L66.4090909,39 C67.8400105,39 69,40.2088312 69,41.7 L69,41.7 Z" filter="url(#icon-opensource-f)"/>
      <path fill="url(#icon-opensource-g)" d="M3.13860613,46.2435455 L0.740457407,43.8048537 C-0.246819136,42.7966753 -0.246819136,41.1646803 0.740457407,40.1565019 L17.0098364,23.5010762 L0.740457407,6.84780298 C-0.246819136,5.83962458 -0.246819136,4.20762954 0.740457407,3.19945115 L3.13860613,0.756454491 C4.12876205,-0.252151497 5.73405233,-0.252151497 6.72420824,0.756454491 L27.2574323,21.6747479 C28.2475226,22.6834208 28.2475226,24.3187317 27.2574323,25.3274045 L6.72420824,46.2435455 C5.73405233,47.2521515 4.12876205,47.2521515 3.13860613,46.2435455 L3.13860613,46.2435455 Z" filter="url(#icon-opensource-h)"/>
      <path fill="url(#icon-opensource-e)" d="M69,41.7 L69,45.3 C69,46.7911688 67.8400105,48 66.4090909,48 L33.5909091,48 C32.1599895,48 31,46.7911688 31,45.3 L31,41.7 C31,40.2088312 32.1599895,39 33.5909091,39 L66.4090909,39 C67.8400105,39 69,40.2088312 69,41.7 L69,41.7 Z"/>
      <path fill="url(#icon-opensource-g)" d="M0.740457407,43.8048537 C-0.246819136,42.7966753 -0.246819136,41.1646803 0.740457407,40.1565019 L17.0098364,23.5010762 L0.740457407,6.84780298 C-0.246819136,5.83962458 -0.246819136,4.20762954 0.740457407,3.19945115 L3.13860613,0.756454491 C4.12876205,-0.252151497 5.73405233,-0.252151497 6.72420824,0.756454491 L27.2574323,21.6747479 C28.2475226,22.6834208 28.2475226,24.3187317 27.2574323,25.3274045 L6.72420824,46.2435455 C5.73405233,47.2521515 4.12876205,47.2521515 3.13860613,46.2435455 L0.740457407,43.8048537 Z"/>
    </g>
  </g>
</svg>
