<svg height="78" viewBox="0 0 83 78" width="83" xmlns="http://www.w3.org/2000/svg" xmlns:xlink="http://www.w3.org/1999/xlink"><linearGradient id="a" x1="10.062%" x2="10.062%" y1="0%" y2="98.189%"><stop offset="0" stop-color="#664ba7"/><stop offset="1" stop-color="#512da8"/></linearGradient><filter id="b" height="107.4%" width="107.4%" x="-3.7%" y="-3.7%"><feGaussianBlur in="SourceGraphic" stdDeviation=".65"/></filter><linearGradient id="c" x1="0%" x2="0%" y1="0%" y2="100%"><stop offset="0" stop-color="#fff"/><stop offset="1" stop-color="#dfd6ef"/></linearGradient><filter id="d" height="107.1%" width="105.9%" x="-3%" y="-3.5%"><feGaussianBlur in="SourceGraphic" stdDeviation=".65"/></filter><mask id="e" fill="#fff"><path d="m.5 13.84c0-7.367 5.973-13.34 13.34-13.34h48.32c7.367 0 13.34 5.973 13.34 13.34v48.32c0 7.367-5.973 13.34-13.34 13.34h-48.32c-7.367 0-13.34-5.973-13.34-13.34z" fill="#fff" fill-rule="evenodd"/></mask><g fill="none" fill-rule="evenodd" transform="translate(1 1)"><path d="m.5 13.84c0-7.367 5.973-13.34 13.34-13.34h48.32c7.367 0 13.34 5.973 13.34 13.34v48.32c0 7.367-5.973 13.34-13.34 13.34h-48.32c-7.367 0-13.34-5.973-13.34-13.34z" mask="url(#e)"/><path d="m.5 13.84c0-7.367 5.973-13.34 13.34-13.34h48.32c7.367 0 13.34 5.973 13.34 13.34v48.32c0 7.367-5.973 13.34-13.34 13.34h-48.32c-7.367 0-13.34-5.973-13.34-13.34z"/><path d="m.5 13.84c0-7.367 5.973-13.34 13.34-13.34h48.32c7.367 0 13.34 5.973 13.34 13.34v48.32c0 7.367-5.973 13.34-13.34 13.34h-48.32c-7.367 0-13.34-5.973-13.34-13.34z"/><g fill-rule="nonzero"><path d="m.5 13.84c0-7.367 5.973-13.34 13.34-13.34h48.32c7.367 0 13.34 5.973 13.34 13.34v48.32c0 7.367-5.973 13.34-13.34 13.34h-48.32c-7.367 0-13.34-5.973-13.34-13.34z" fill="url(#a)" filter="url(#b)" stroke="#fff" stroke-opacity=".01" stroke-width="1.68"/><path d="m.5 13.84c0-7.367 5.973-13.34 13.34-13.34h48.32c7.367 0 13.34 5.973 13.34 13.34v48.32c0 7.367-5.973 13.34-13.34 13.34h-48.32c-7.367 0-13.34-5.973-13.34-13.34z" fill="url(#a)" stroke="#fff" stroke-opacity=".01" stroke-width="1.68"/><g fill="url(#c)" transform="translate(15 11)"><path d="m63.4032787 20.625h-11.4688525v-18.046875c0-1.42385912-1.1625917-2.578125-2.5967213-2.578125h-15.5803279c-1.4341295 0-2.5967213 1.15426588-2.5967213 2.578125v7.734375h-6.9245901v-8.59375c0-.94923941-.7750612-1.71875-1.7311476-1.71875h-1.7311475c-.9560864 0-1.7311475.76951059-1.7311475 1.71875v8.59375h-6.9245902v-8.59375c0-.94923941-.7750612-1.71875-1.7311476-1.71875h-1.7311475c-.95608638 0-1.73114754.76951059-1.73114754 1.71875v8.59375h-4.32786885c-1.43412958 0-2.59672131 1.1542659-2.59672131 2.578125v38.671875c0 1.8984788 1.55012231 3.4375 3.46229508 3.4375h59.07540982c1.9121728 0 3.4622951-1.5390212 3.4622951-3.4375v-28.359375c0-1.4238591-1.1625917-2.578125-2.5967213-2.578125zm-50.4196721 22.377451c0 .6700513-.5449649 1.2132353-1.2172132 1.2132353h-4.05737701c-.67224824 0-1.21721311-.543184-1.21721311-1.2132353v-4.0441177c0-.6700513.54496487-1.2132353 1.21721311-1.2132353h4.05737701c.6722483 0 1.2172132.543184 1.2172132 1.2132353zm0-9.7058824c0 .6700514-.5449649 1.2132353-1.2172132 1.2132353h-4.05737701c-.67224824 0-1.21721311-.5431839-1.21721311-1.2132353v-4.0441176c0-.6700514.54496487-1.2132353 1.21721311-1.2132353h4.05737701c.6722483 0 1.2172132.5431839 1.2172132 1.2132353zm0-10.7843137c0 .6700514-.5449649 1.2132353-1.2172132 1.2132353h-4.05737701c-.67224824 0-1.21721311-.5431839-1.21721311-1.2132353v-4.0441176c0-.6700514.54496487-1.2132353 1.21721311-1.2132353h4.05737701c.6722483 0 1.2172132.5431839 1.2172132 1.2132353zm14.0655737 20.4901961c0 .6700513-.5449648 1.2132353-1.2172131 1.2132353h-4.057377c-.6722483 0-1.2172132-.543184-1.2172132-1.2132353v-4.0441177c0-.6700513.5449649-1.2132353 1.2172132-1.2132353h4.057377c.6722483 0 1.2172131.543184 1.2172131 1.2132353zm0-9.7058824c0 .6700514-.5449648 1.2132353-1.2172131 1.2132353h-4.057377c-.6722483 0-1.2172132-.5431839-1.2172132-1.2132353v-4.0441176c0-.6700514.5449649-1.2132353 1.2172132-1.2132353h4.057377c.6722483 0 1.2172131.5431839 1.2172131 1.2132353zm0-10.7843137c0 .6700514-.5449648 1.2132353-1.2172131 1.2132353h-4.057377c-.6722483 0-1.2172132-.5431839-1.2172132-1.2132353v-4.0441176c0-.6700514.5449649-1.2132353 1.2172132-1.2132353h4.057377c.6722483 0 1.2172131.5431839 1.2172131 1.2132353zm17.3114754 10.7843137c0 .6700514-.5449648 1.2132353-1.2172131 1.2132353h-4.057377c-.6722483 0-1.2172131-.5431839-1.2172131-1.2132353v-4.0441176c0-.6700514.5449648-1.2132353 1.2172131-1.2132353h4.057377c.6722483 0 1.2172131.5431839 1.2172131 1.2132353zm0-10.7843137c0 .6700514-.5449648 1.2132353-1.2172131 1.2132353h-4.057377c-.6722483 0-1.2172131-.5431839-1.2172131-1.2132353v-4.0441176c0-.6700514.5449648-1.2132353 1.2172131-1.2132353h4.057377c.6722483 0 1.2172131.5431839 1.2172131 1.2132353zm0-10.7843137c0 .6700513-.5449648 1.2132353-1.2172131 1.2132353h-4.057377c-.6722483 0-1.2172131-.543184-1.2172131-1.2132353v-4.04411767c0-.67005135.5449648-1.21323529 1.2172131-1.21323529h4.057377c.6722483 0 1.2172131.54318394 1.2172131 1.21323529z" filter="url(#d)"/><path d="m63.4032787 20.625h-11.4688525v-18.046875c0-1.42385912-1.1625917-2.578125-2.5967213-2.578125h-15.5803279c-1.4341295 0-2.5967213 1.15426588-2.5967213 2.578125v7.734375h-6.9245901v-8.59375c0-.94923941-.7750612-1.71875-1.7311476-1.71875h-1.7311475c-.9560864 0-1.7311475.76951059-1.7311475 1.71875v8.59375h-6.9245902v-8.59375c0-.94923941-.7750612-1.71875-1.7311476-1.71875h-1.7311475c-.95608638 0-1.73114754.76951059-1.73114754 1.71875v8.59375h-4.32786885c-1.43412958 0-2.59672131 1.1542659-2.59672131 2.578125v38.671875c0 1.8984788 1.55012231 3.4375 3.46229508 3.4375h59.07540982c1.9121728 0 3.4622951-1.5390212 3.4622951-3.4375v-28.359375c0-1.4238591-1.1625917-2.578125-2.5967213-2.578125zm-50.4196721 22.377451c0 .6700513-.5449649 1.2132353-1.2172132 1.2132353h-4.05737701c-.67224824 0-1.21721311-.543184-1.21721311-1.2132353v-4.0441177c0-.6700513.54496487-1.2132353 1.21721311-1.2132353h4.05737701c.6722483 0 1.2172132.543184 1.2172132 1.2132353zm0-9.7058824c0 .6700514-.5449649 1.2132353-1.2172132 1.2132353h-4.05737701c-.67224824 0-1.21721311-.5431839-1.21721311-1.2132353v-4.0441176c0-.6700514.54496487-1.2132353 1.21721311-1.2132353h4.05737701c.6722483 0 1.2172132.5431839 1.2172132 1.2132353zm0-10.7843137c0 .6700514-.5449649 1.2132353-1.2172132 1.2132353h-4.05737701c-.67224824 0-1.21721311-.5431839-1.21721311-1.2132353v-4.0441176c0-.6700514.54496487-1.2132353 1.21721311-1.2132353h4.05737701c.6722483 0 1.2172132.5431839 1.2172132 1.2132353zm14.0655737 20.4901961c0 .6700513-.5449648 1.2132353-1.2172131 1.2132353h-4.057377c-.6722483 0-1.2172132-.543184-1.2172132-1.2132353v-4.0441177c0-.6700513.5449649-1.2132353 1.2172132-1.2132353h4.057377c.6722483 0 1.2172131.543184 1.2172131 1.2132353zm0-9.7058824c0 .6700514-.5449648 1.2132353-1.2172131 1.2132353h-4.057377c-.6722483 0-1.2172132-.5431839-1.2172132-1.2132353v-4.0441176c0-.6700514.5449649-1.2132353 1.2172132-1.2132353h4.057377c.6722483 0 1.2172131.5431839 1.2172131 1.2132353zm0-10.7843137c0 .6700514-.5449648 1.2132353-1.2172131 1.2132353h-4.057377c-.6722483 0-1.2172132-.5431839-1.2172132-1.2132353v-4.0441176c0-.6700514.5449649-1.2132353 1.2172132-1.2132353h4.057377c.6722483 0 1.2172131.5431839 1.2172131 1.2132353zm17.3114754 10.7843137c0 .6700514-.5449648 1.2132353-1.2172131 1.2132353h-4.057377c-.6722483 0-1.2172131-.5431839-1.2172131-1.2132353v-4.0441176c0-.6700514.5449648-1.2132353 1.2172131-1.2132353h4.057377c.6722483 0 1.2172131.5431839 1.2172131 1.2132353zm0-10.7843137c0 .6700514-.5449648 1.2132353-1.2172131 1.2132353h-4.057377c-.6722483 0-1.2172131-.5431839-1.2172131-1.2132353v-4.0441176c0-.6700514.5449648-1.2132353 1.2172131-1.2132353h4.057377c.6722483 0 1.2172131.5431839 1.2172131 1.2132353zm0-10.7843137c0 .6700513-.5449648 1.2132353-1.2172131 1.2132353h-4.057377c-.6722483 0-1.2172131-.543184-1.2172131-1.2132353v-4.04411767c0-.67005135.5449648-1.21323529 1.2172131-1.21323529h4.057377c.6722483 0 1.2172131.54318394 1.2172131 1.21323529z"/></g></g></g></svg>