<svg height="82" viewBox="0 0 82 82" width="82" xmlns="http://www.w3.org/2000/svg" xmlns:xlink="http://www.w3.org/1999/xlink"><linearGradient id="a" x1="50%" x2="50%" y1="0%" y2="100%"><stop offset="0" stop-color="#3f6abc"/><stop offset="1" stop-color="#1851be"/></linearGradient><filter id="b" height="107.4%" width="107.4%" x="-3.7%" y="-3.7%"><feGaussianBlur in="SourceGraphic" stdDeviation=".65"/></filter><linearGradient id="c" x1="0%" x2="0%" y1="0%" y2="100%"><stop offset="0" stop-color="#fff"/><stop offset="1" stop-color="#aec3eb"/></linearGradient><mask id="d" fill="#fff"><path d="m.5 13.84c0-7.367 5.973-13.34 13.34-13.34h48.32c7.367 0 13.34 5.973 13.34 13.34v48.32c0 7.367-5.973 13.34-13.34 13.34h-48.32c-7.367 0-13.34-5.973-13.34-13.34z" fill="#fff" fill-rule="evenodd"/></mask><g fill="none" fill-rule="evenodd"><g transform="translate(1 5)"><path d="m.5 13.84c0-7.367 5.973-13.34 13.34-13.34h48.32c7.367 0 13.34 5.973 13.34 13.34v48.32c0 7.367-5.973 13.34-13.34 13.34h-48.32c-7.367 0-13.34-5.973-13.34-13.34z" mask="url(#d)"/><path d="m.5 13.84c0-7.367 5.973-13.34 13.34-13.34h48.32c7.367 0 13.34 5.973 13.34 13.34v48.32c0 7.367-5.973 13.34-13.34 13.34h-48.32c-7.367 0-13.34-5.973-13.34-13.34z"/><path d="m.5 13.84c0-7.367 5.973-13.34 13.34-13.34h48.32c7.367 0 13.34 5.973 13.34 13.34v48.32c0 7.367-5.973 13.34-13.34 13.34h-48.32c-7.367 0-13.34-5.973-13.34-13.34z"/><g fill="url(#a)" fill-rule="nonzero" stroke="#fff" stroke-opacity=".01" stroke-width="1.68"><path d="m.5 13.84c0-7.367 5.973-13.34 13.34-13.34h48.32c7.367 0 13.34 5.973 13.34 13.34v48.32c0 7.367-5.973 13.34-13.34 13.34h-48.32c-7.367 0-13.34-5.973-13.34-13.34z" filter="url(#b)"/><path d="m.5 13.84c0-7.367 5.973-13.34 13.34-13.34h48.32c7.367 0 13.34 5.973 13.34 13.34v48.32c0 7.367-5.973 13.34-13.34 13.34h-48.32c-7.367 0-13.34-5.973-13.34-13.34z"/></g></g><g fill="url(#c)" fill-rule="nonzero" transform="translate(12)"><path d="m69.5099618 5.5928998-48.9338576 55.1333989c-1.4119326 1.5843931-3.8194419 1.7073976-5.3805679.274904-.0476578-.0435971-.0941242-.0884052-.1393991-.1344244l-4.939733-5.0173016c-1.48853894-1.5133315-1.48853894-3.9665839 0-5.4799154.045275-.0460192.0917413-.0908273.1382077-.1344245l54.2417473-49.73704456c.7524194-.68903872 1.9035741-.65978677 2.62118.0666067l2.3209358 2.35787743c.720118.72851959.7515618 1.90307703.0714868 2.67032343z"/><path d="m24.805 18.398-3.2-6.398-3.201 6.399-6.404 3.198 6.404 3.199 3.201 6.398 3.2-6.398 6.404-3.199z"/><path d="m50.596 55.204-3.201-6.398-3.2 6.398-6.404 3.199 6.404 3.199 3.2 6.398 3.201-6.398 6.404-3.199z"/><path d="m6.158 25.128-1.921 3.839-3.842 1.92 3.842 1.919 1.921 3.839 1.921-3.839 3.842-1.919-3.842-1.92z"/><path d="m69.5099618 5.5928998-48.9338576 55.1333989c-1.4119326 1.5843931-3.8194419 1.7073976-5.3805679.274904-.0476578-.0435971-.0941242-.0884052-.1393991-.1344244l-4.939733-5.0173016c-1.48853894-1.5133315-1.48853894-3.9665839 0-5.4799154.045275-.0460192.0917413-.0908273.1382077-.1344245l54.2417473-49.73704456c.7524194-.68903872 1.9035741-.65978677 2.62118.0666067l2.3209358 2.35787743c.720118.72851959.7515618 1.90307703.0714868 2.67032343z"/><path d="m24.805 18.398-3.2-6.398-3.201 6.399-6.404 3.198 6.404 3.199 3.201 6.398 3.2-6.398 6.404-3.199z"/><path d="m50.596 55.204-3.201-6.398-3.2 6.398-6.404 3.199 6.404 3.199 3.2 6.398 3.201-6.398 6.404-3.199z"/><path d="m6.158 25.128-1.921 3.839-3.842 1.92 3.842 1.919 1.921 3.839 1.921-3.839 3.842-1.919-3.842-1.92z"/></g></g></svg>