<svg xmlns="http://www.w3.org/2000/svg" width="450" height="450" viewBox="0 0 450 450">
  <g fill="none" fill-rule="evenodd">
    <g fill="#000" fill-rule="nonzero" transform="translate(131 181)">
      <path d="M218,196.903226 L218,210.967742 C218,214.851551 214.94994,218 211.1875,218 L6.8125,218 C3.05006014,218 0,214.851551 0,210.967742 L0,196.903226 C0,193.019417 3.05006014,189.870968 6.8125,189.870968 L211.1875,189.870968 C214.94994,189.870968 218,193.019417 218,196.903226 Z" opacity=".4"/>
      <path d="M101.308468,176.685484 L189.870968,176.685484 L153.07921,91.0482384 C150.450227,84.9290713 150.163883,78.0602695 152.274483,71.7444998 L176.245968,0 L96.3779209,45.5262428 C86.3091162,51.2723794 78.340955,60.0733381 73.6326865,70.6487101 L26.3709677,176.685484 L87.6834677,176.685484 L80.8709677,163.094293 L53.6209677,149.503102 L80.8709677,135.911911 L94.4959677,108.729529 L108.120968,135.911911 L135.370968,149.503102 L108.120968,163.094293 L101.308468,176.685484 Z M121.745968,81.5471464 L114.933468,95.1383375 L108.120968,81.5471464 L94.4959677,74.7515509 L108.120968,67.9559553 L114.933468,54.3647643 L121.745968,67.9559553 L135.370968,74.7515509 L121.745968,81.5471464 Z"/>
    </g>
    <g fill="#000" fill-rule="nonzero" transform="translate(60 37)">
      <path d="M117.309942,51.4035088 L117.309942,44.8538012 L108.035088,55.1461988 L113.567251,55.1461988 C115.634282,55.1461988 117.309942,53.4705394 117.309942,51.4035088 Z M49.9415205,73.8596491 L49.9415205,82.4842105 L63.6491228,70.1169591 L53.6842105,70.1169591 C51.6171799,70.1169591 49.9415205,71.7926185 49.9415205,73.8596491 Z M24.9497076,12.7087719 L18.7134503,0.233918129 L12.477193,12.7111111 L1.8189894e-12,18.9473684 L12.477193,25.1859649 L18.7134503,37.6608187 L24.9497076,25.1859649 L37.4269006,18.9473684 L24.9497076,12.7087719 Z M147.288889,100.077193 L141.052632,87.6023392 L134.816374,100.077193 L122.339181,106.315789 L134.816374,112.554386 L141.052632,125.02924 L147.288889,112.554386 L159.766082,106.315789 L147.288889,100.077193 Z M72.3976608,10.2339181 L68.6549708,17.7192982 L61.1695906,21.4619883 L68.6549708,25.2046784 L72.3976608,32.6900585 L76.1403509,25.2046784 L83.625731,21.4619883 L76.1403509,17.7192982 L72.3976608,10.2339181 Z" opacity=".4"/>
      <path d="M138.8,21.0362573 L42.7274854,127.529825 C39.9554189,130.590178 35.2287228,130.827769 32.1637427,128.060819 C32.0701754,127.976608 31.9789474,127.890058 31.8900585,127.80117 L22.1918129,118.109942 C19.2693439,115.186848 19.2693439,110.44824 22.1918129,107.525146 C22.2807018,107.436257 22.3719298,107.349708 22.4631579,107.265497 L128.956725,11.1953216 C130.433961,9.86440077 132.694038,9.92090272 134.102924,11.3239766 L138.659649,15.8783626 C140.073467,17.2855432 140.135201,19.5542735 138.8,21.0362573 Z"/>
    </g>
  </g>
</svg>
