<svg height="450" viewBox="0 0 450 450" width="450" xmlns="http://www.w3.org/2000/svg"><g fill="#000" fill-rule="nonzero"><g transform="translate(131 181)"><path d="m218 196.903226v14.064516c0 3.883809-3.05006 7.032258-6.8125 7.032258h-204.375c-3.76243986 0-6.8125-3.148449-6.8125-7.032258v-14.064516c0-3.883809 3.05006014-7.032258 6.8125-7.032258h204.375c3.76244 0 6.8125 3.148449 6.8125 7.032258z" opacity=".4"/><path d="m101.308468 176.685484h88.5625l-36.791758-85.6372456c-2.628983-6.1191671-2.915327-12.9879689-.804727-19.3037386l23.971485-71.7444998-79.8680471 45.5262428c-10.0688047 5.7461366-18.0369659 14.5470953-22.7452344 25.1224673l-47.2617188 106.0367739h61.3125l-6.8125-13.591191-27.25-13.591191 27.25-13.591191 13.625-27.182382 13.6250003 27.182382 27.25 13.591191-27.25 13.591191zm20.4375-95.1383376-6.8125 13.5911911-6.8125-13.5911911-13.6250003-6.7955955 13.6250003-6.7955956 6.8125-13.591191 6.8125 13.591191 13.625 6.7955956z"/></g><g transform="translate(60 37)"><path d="m117.309942 51.4035088v-6.5497076l-9.274854 10.2923976h5.532163c2.067031 0 3.742691-1.6756594 3.742691-3.74269zm-67.3684215 22.4561403v8.6245614l13.7076023-12.3672514h-9.9649123c-2.0670306 0-3.74269 1.6756594-3.74269 3.74269zm-24.9918129-61.1508772-6.2362573-12.47485377-6.2362573 12.47719297-12.477193 6.2362573 12.477193 6.2385965 6.2362573 12.4748538 6.2362573-12.4748538 12.477193-6.2385965zm122.3391814 87.3684211-6.236257-12.4748538-6.236258 12.4748538-12.477193 6.238596 12.477193 6.238597 6.236258 12.474854 6.236257-12.474854 12.477193-6.238597zm-74.8912282-89.8432749-3.74269 7.4853801-7.4853802 3.7426901 7.4853802 3.7426901 3.74269 7.4853801 3.7426901-7.4853801 7.4853801-3.7426901-7.4853801-3.7426901z" opacity=".4"/><path d="m138.8 21.0362573-96.0725146 106.4935677c-2.7720665 3.060353-7.4987626 3.297944-10.5637427.530994-.0935673-.084211-.1847953-.170761-.2736842-.259649l-9.6982456-9.691228c-2.922469-2.923094-2.922469-7.661702 0-10.584796.0888889-.088889.1801169-.175438.271345-.259649l106.4935671-96.0701754c1.477236-1.33092083 3.737313-1.27441888 5.146199.128655l4.556725 4.554386c1.413818 1.4071806 1.475552 3.6759109.140351 5.1578947z"/></g></g></svg>