<svg height="78" viewBox="0 0 78 78" width="78" xmlns="http://www.w3.org/2000/svg" xmlns:xlink="http://www.w3.org/1999/xlink"><linearGradient id="a" x1="50%" x2="50%" y1="0%" y2="100%"><stop offset="0" stop-color="#3f6abc"/><stop offset="1" stop-color="#1851be"/></linearGradient><filter id="b" height="107.4%" width="107.4%" x="-3.7%" y="-3.7%"><feGaussianBlur in="SourceGraphic" stdDeviation=".65"/></filter><radialGradient id="c" cx="61.859%" cy="4.703%" gradientTransform="matrix(0 1 -.86667 0 .66 -.572)" r="100%"><stop offset="0" stop-color="#fff"/><stop offset="1" stop-color="#aec3eb"/></radialGradient><mask id="d" fill="#fff"><path d="m.5 13.84c0-7.367 5.973-13.34 13.34-13.34h48.32c7.367 0 13.34 5.973 13.34 13.34v48.32c0 7.367-5.973 13.34-13.34 13.34h-48.32c-7.367 0-13.34-5.973-13.34-13.34z" fill="#fff" fill-rule="evenodd"/></mask><g fill="none" fill-rule="evenodd" transform="translate(1 1)"><path d="m.5 13.84c0-7.367 5.973-13.34 13.34-13.34h48.32c7.367 0 13.34 5.973 13.34 13.34v48.32c0 7.367-5.973 13.34-13.34 13.34h-48.32c-7.367 0-13.34-5.973-13.34-13.34z" mask="url(#d)"/><path d="m.5 13.84c0-7.367 5.973-13.34 13.34-13.34h48.32c7.367 0 13.34 5.973 13.34 13.34v48.32c0 7.367-5.973 13.34-13.34 13.34h-48.32c-7.367 0-13.34-5.973-13.34-13.34z"/><path d="m.5 13.84c0-7.367 5.973-13.34 13.34-13.34h48.32c7.367 0 13.34 5.973 13.34 13.34v48.32c0 7.367-5.973 13.34-13.34 13.34h-48.32c-7.367 0-13.34-5.973-13.34-13.34z"/><g fill-rule="nonzero"><path d="m.5 13.84c0-7.367 5.973-13.34 13.34-13.34h48.32c7.367 0 13.34 5.973 13.34 13.34v48.32c0 7.367-5.973 13.34-13.34 13.34h-48.32c-7.367 0-13.34-5.973-13.34-13.34z" fill="url(#a)" filter="url(#b)" stroke="#fff" stroke-opacity=".01" stroke-width="1.68"/><path d="m.5 13.84c0-7.367 5.973-13.34 13.34-13.34h48.32c7.367 0 13.34 5.973 13.34 13.34v48.32c0 7.367-5.973 13.34-13.34 13.34h-48.32c-7.367 0-13.34-5.973-13.34-13.34z" fill="url(#a)" stroke="#fff" stroke-opacity=".01" stroke-width="1.68"/><g fill="url(#c)" transform="translate(9 11)"><path d="m58.9019531 21.2741039-5.3027344-5.2710573c-.703125-.6989247-1.6570312-1.0914875-2.6519531-1.0914875h-5.9472656v-9.32016125c0-3.08808244-2.5183594-5.59139785-5.625-5.59139785h-18.75c-3.1066406 0-5.625 2.50331541-5.625 5.59139785v9.31899645h-5.94726562c-.99492188 0-1.94765626.3925627-2.65195313 1.0914874l-5.30273438 5.2722222c-.70312499.6989248-1.09804687 1.6471327-1.09804687 2.6361112v9.638172h15v-1.8637993c0-1.0297491.8390625-1.8637993 1.875-1.8637993h3.75c1.0359375 0 1.875.8340502 1.875 1.8637993v1.8637993h15v-1.8637993c0-1.0297491.8390625-1.8637993 1.875-1.8637993h3.75c1.0359375 0 1.875.8340502 1.875 1.8637993v1.8637993h15v-9.6393369c0-.9878136-.3949219-1.9360215-1.0980469-2.6349463zm-20.8737841-6.1773297h-15.2112676v-7.5483871h15.2112676zm6.971831 23.6935484c0 1.0426209-.8390625 1.8870968-1.875 1.8870968h-3.75c-1.0359375 0-1.875-.8444759-1.875-1.8870968v-1.8870968h-15v1.8870968c0 1.0426209-.8390625 1.8870968-1.875 1.8870968h-3.75c-1.0359375 0-1.875-.8444759-1.875-1.8870968v-1.8870968h-15v11.3225807c0 2.0840625 1.67929687 3.7741935 3.75 3.7741935h52.5c2.0707031 0 3.75-1.690131 3.75-3.7741935v-11.3225807h-15z"/><path d="m58.9019531 21.2741039-5.3027344-5.2710573c-.703125-.6989247-1.6570312-1.0914875-2.6519531-1.0914875h-5.9472656v-9.32016125c0-3.08808244-2.5183594-5.59139785-5.625-5.59139785h-18.75c-3.1066406 0-5.625 2.50331541-5.625 5.59139785v9.31899645h-5.94726562c-.99492188 0-1.94765626.3925627-2.65195313 1.0914874l-5.30273438 5.2722222c-.70312499.6989248-1.09804687 1.6471327-1.09804687 2.6361112v9.638172h15v-1.8637993c0-1.0297491.8390625-1.8637993 1.875-1.8637993h3.75c1.0359375 0 1.875.8340502 1.875 1.8637993v1.8637993h15v-1.8637993c0-1.0297491.8390625-1.8637993 1.875-1.8637993h3.75c1.0359375 0 1.875.8340502 1.875 1.8637993v1.8637993h15v-9.6393369c0-.9878136-.3949219-1.9360215-1.0980469-2.6349463zm-20.8737841-6.1773297h-15.2112676v-7.5483871h15.2112676zm6.971831 23.6935484c0 1.0426209-.8390625 1.8870968-1.875 1.8870968h-3.75c-1.0359375 0-1.875-.8444759-1.875-1.8870968v-1.8870968h-15v1.8870968c0 1.0426209-.8390625 1.8870968-1.875 1.8870968h-3.75c-1.0359375 0-1.875-.8444759-1.875-1.8870968v-1.8870968h-15v11.3225807c0 2.0840625 1.67929687 3.7741935 3.75 3.7741935h52.5c2.0707031 0 3.75-1.690131 3.75-3.7741935v-11.3225807h-15z"/></g></g></g></svg>