<svg height="79" viewBox="0 0 82 79" width="82" xmlns="http://www.w3.org/2000/svg" xmlns:xlink="http://www.w3.org/1999/xlink"><linearGradient id="a" x1="50%" x2="50%" y1="0%" y2="100%"><stop offset="0" stop-color="#3f6abc"/><stop offset="1" stop-color="#1851be"/></linearGradient><filter id="b" height="107.4%" width="107.4%" x="-3.7%" y="-3.7%"><feGaussianBlur in="SourceGraphic" stdDeviation=".65"/></filter><radialGradient id="c" cx="61.859%" cy="4.703%" r="100%"><stop offset="0" stop-color="#fff"/><stop offset="1" stop-color="#aec3eb"/></radialGradient><mask id="d" fill="#fff"><path d="m.5 13.84c0-7.367 5.973-13.34 13.34-13.34h48.32c7.367 0 13.34 5.973 13.34 13.34v48.32c0 7.367-5.973 13.34-13.34 13.34h-48.32c-7.367 0-13.34-5.973-13.34-13.34z" fill="#fff" fill-rule="evenodd"/></mask><g fill="none" fill-rule="evenodd" transform="translate(1)"><g transform="translate(0 2)"><path d="m.5 13.84c0-7.367 5.973-13.34 13.34-13.34h48.32c7.367 0 13.34 5.973 13.34 13.34v48.32c0 7.367-5.973 13.34-13.34 13.34h-48.32c-7.367 0-13.34-5.973-13.34-13.34z" mask="url(#d)"/><path d="m.5 13.84c0-7.367 5.973-13.34 13.34-13.34h48.32c7.367 0 13.34 5.973 13.34 13.34v48.32c0 7.367-5.973 13.34-13.34 13.34h-48.32c-7.367 0-13.34-5.973-13.34-13.34z"/><path d="m.5 13.84c0-7.367 5.973-13.34 13.34-13.34h48.32c7.367 0 13.34 5.973 13.34 13.34v48.32c0 7.367-5.973 13.34-13.34 13.34h-48.32c-7.367 0-13.34-5.973-13.34-13.34z"/><g fill="url(#a)" fill-rule="nonzero" stroke="#fff" stroke-opacity=".01" stroke-width="1.68"><path d="m.5 13.84c0-7.367 5.973-13.34 13.34-13.34h48.32c7.367 0 13.34 5.973 13.34 13.34v48.32c0 7.367-5.973 13.34-13.34 13.34h-48.32c-7.367 0-13.34-5.973-13.34-13.34z" filter="url(#b)"/><path d="m.5 13.84c0-7.367 5.973-13.34 13.34-13.34h48.32c7.367 0 13.34 5.973 13.34 13.34v48.32c0 7.367-5.973 13.34-13.34 13.34h-48.32c-7.367 0-13.34-5.973-13.34-13.34z"/></g></g><path d="m64.90625 58c1.1563462 0 2.09375 1.0073593 2.09375 2.25v4.5c0 1.2426407-.9374038 2.25-2.09375 2.25h-62.8125c-1.15634619 0-2.09375-1.0073593-2.09375-2.25v-4.5c0-1.2426407.93740381-2.25 2.09375-2.25zm-10.15625-58-7.4773437 22.3331731c-.6583524 1.9660207-.5690341 4.1041936.2510156 6.0090144l11.4763281 26.6578125h-27.625l2.125-4.2307692 8.5-4.2307693-8.5-4.2307692-4.25-8.4615385-4.25 8.4615385-8.5 4.2307692 8.5 4.2307693 2.125 4.2307692h-19.125l14.7421875-33.0079327c1.4686342-3.2919821 3.9541157-6.0316114 7.0948438-7.8203125zm-19.125 16.9230769-2.125 4.2307693-4.25 2.1153846 4.25 2.1153846 2.125 4.2307692 2.125-4.2307692 4.25-2.1153846-4.25-2.1153846z" fill="url(#c)" fill-rule="nonzero" transform="translate(14)"/></g></svg>