<svg height="80" viewBox="0 0 80 80" width="80" xmlns="http://www.w3.org/2000/svg" xmlns:xlink="http://www.w3.org/1999/xlink"><linearGradient id="a" x1="50%" x2="50%" y1="0%" y2="100%"><stop offset="0" stop-color="#3f6abc"/><stop offset="1" stop-color="#1851be"/></linearGradient><filter id="b" height="110.6%" width="110.6%" x="-5.3%" y="-5.3%"><feGaussianBlur in="SourceGraphic" stdDeviation="1.05"/></filter><radialGradient id="c" cx="57.407%" cy="0%" gradientTransform="matrix(0 1 -.69697 0 .574 -.574)" r="133.013%"><stop offset="0" stop-color="#fff"/><stop offset="1" stop-color="#aec3eb"/></radialGradient><mask id="d" fill="#fff"><path d="m.5 13.84c0-7.367 5.973-13.34 13.34-13.34h48.32c7.367 0 13.34 5.973 13.34 13.34v48.32c0 7.367-5.973 13.34-13.34 13.34h-48.32c-7.367 0-13.34-5.973-13.34-13.34z" fill="#fff" fill-rule="evenodd"/></mask><g fill="none" fill-rule="evenodd" transform="translate(2 2)"><path d="m.5 13.84c0-7.367 5.973-13.34 13.34-13.34h48.32c7.367 0 13.34 5.973 13.34 13.34v48.32c0 7.367-5.973 13.34-13.34 13.34h-48.32c-7.367 0-13.34-5.973-13.34-13.34z" mask="url(#d)"/><path d="m.5 13.84c0-7.367 5.973-13.34 13.34-13.34h48.32c7.367 0 13.34 5.973 13.34 13.34v48.32c0 7.367-5.973 13.34-13.34 13.34h-48.32c-7.367 0-13.34-5.973-13.34-13.34z"/><path d="m.5 13.84c0-7.367 5.973-13.34 13.34-13.34h48.32c7.367 0 13.34 5.973 13.34 13.34v48.32c0 7.367-5.973 13.34-13.34 13.34h-48.32c-7.367 0-13.34-5.973-13.34-13.34z"/><g fill-rule="nonzero"><path d="m.5 13.84c0-7.367 5.973-13.34 13.34-13.34h48.32c7.367 0 13.34 5.973 13.34 13.34v48.32c0 7.367-5.973 13.34-13.34 13.34h-48.32c-7.367 0-13.34-5.973-13.34-13.34z" fill="url(#a)" filter="url(#b)" stroke="#fff" stroke-opacity=".01" stroke-width="1.68"/><path d="m.5 13.84c0-7.367 5.973-13.34 13.34-13.34h48.32c7.367 0 13.34 5.973 13.34 13.34v48.32c0 7.367-5.973 13.34-13.34 13.34h-48.32c-7.367 0-13.34-5.973-13.34-13.34z" fill="url(#a)" stroke="#fff" stroke-opacity=".01" stroke-width="1.68"/><path d="m14.9 34.7142857c3.6454687 0 6.6-2.9417411 6.6-6.5714286s-2.9545313-6.5714285-6.6-6.5714285c-3.6454688 0-6.6 2.941741-6.6 6.5714285s2.9545312 6.5714286 6.6 6.5714286zm23.1 3.2857143c5.4676875 0 9.9-4.413125 9.9-9.8571429v-1.6428571h-19.8v1.6428571c0 5.4440179 4.4323125 9.8571429 9.9 9.8571429zm26.4 0h-6.6c-1.8139688 0-3.4546875.7300446-4.6478438 1.9087946 4.1528438 2.2650893 7.1011875 6.3691518 7.7477813 11.2340625h6.8000625c1.8222187 0 3.3-1.4713839 3.3-3.2857142v-3.2857143c0-3.6296875-2.9545313-6.5714286-6.6-6.5714286zm-41.5521563 1.9087946c-1.1931562-1.17875-2.833875-1.9087946-4.6478437-1.9087946h-6.6c-3.64546875 0-6.6 2.9417411-6.6 6.5714286v3.2857143c0 1.8143303 1.47778125 3.2857142 3.3 3.2857142h6.8000625c.6465937-4.8649107 3.5939062-8.9679464 7.7477812-11.2340625zm38.2521563-5.1945089c3.6454687 0 6.6-2.9417411 6.6-6.5714286s-2.9545313-6.5714285-6.6-6.5714285c-3.6454688 0-6.6 2.941741-6.6 6.5714285s2.9545312 6.5714286 6.6 6.5714286zm-15.18 6.5714286h-.8569688c-2.149125 1.0226786-4.5261562 1.6428571-7.0630312 1.6428571s-4.912875-.6201785-7.0630313-1.6428571h-.8569687c-6.5608125 0-11.88 5.2961607-11.88 11.8285714v2.9571429c0 2.7220089 2.2161562 4.9285714 4.95 4.9285714h29.7c2.7338437 0 4.95-2.2065625 4.95-4.9285714v-2.9571429c0-6.5324107-5.3191875-11.8285714-11.88-11.8285714zm1.98-26.2857143-4.95 2.4642857-4.95-2.4642857-4.95 2.4642857-4.95-2.4642857v8.2142857h19.8z" fill="url(#c)"/></g></g></svg>