<svg fill="none" height="40" viewBox="0 0 19 40" width="19" xmlns="http://www.w3.org/2000/svg"><path d="m18.0196 16c-2.1539-9.38462-6.6154-11.84615-7.6923-13.53846-.61543-.76923-.92312-1.692309-1.38466-2.46154 0 .769231-.15384 1.38462-.76923 2-1.53846 1.23077-7.538459 6.15385-8.1538432 16.7692-.4615388 10 7.3846132 16 8.4615332 16.6154.76923.4616 1.8462 0 2.3077-.3077 3.6923-2.6154 8.9231-9.3846 7.2308-19.0769z" fill="#fff" fill-opacity=".5"/><path d="m9.25032 30c-.3077 2.4615-.46154 3.8462-.92308 5.2308 0 0 .30769 2.3077.61538 4.7692h.76924c.30764-1.6923.61534-3.3846.92304-5.0769-1.07689-.6154-1.38458-2.7693-1.38458-4.9231z" fill="#989ca7"/><path d="m10.7888 35.0769c-1.07693-.6154-1.38462-2.9231-1.38462-4.9231.30769-3.5384.30769-7.0769.30769-10.7692-.15384-1.8461 0-17.07691-.46153-19.3846.30769.769231.61538 1.53846 1.07696 2.15385 1.0769 1.84615 5.5384 4.30769 7.6923 13.69235 1.6923 9.6923-3.3846 16.6153-7.2308 19.2307z" fill="#fff"/></svg>