<svg xmlns="http://www.w3.org/2000/svg" width="1489" height="1273" viewBox="0 0 1489 1273">
  <defs>
    <linearGradient id="nbb-bg-e-dark-a" x1="100%" x2="6.438%" y1="100%" y2="0%">
      <stop offset="0%" stop-color="#96F"/>
      <stop offset="100%" stop-color="#5534A6"/>
    </linearGradient>
    <linearGradient id="nbb-bg-e-dark-b" x1="50%" x2="41.962%" y1="100%" y2="0%">
      <stop offset="0%" stop-color="#96F"/>
      <stop offset="100%" stop-color="#5534A6"/>
    </linearGradient>
    <linearGradient id="nbb-bg-e-dark-c" x1="50%" x2="50%" y1="0%" y2="100%">
      <stop offset="0%" stop-color="#FFF" stop-opacity="0"/>
      <stop offset="100%" stop-color="#FFF"/>
    </linearGradient>
    <linearGradient id="nbb-bg-e-dark-d" x1="50%" x2="50%" y1="100%" y2="0%">
      <stop offset="0%" stop-color="#5534A6"/>
      <stop offset="100%" stop-color="#96F" stop-opacity="0"/>
    </linearGradient>
    <linearGradient id="nbb-bg-e-dark-e" x1="94.625%" x2="0%" y1="0%" y2="0%">
      <stop offset="0%" stop-color="#96F" stop-opacity="0"/>
      <stop offset="100%" stop-color="#5534A6"/>
    </linearGradient>
  </defs>
  <g fill="none" fill-rule="evenodd" transform="rotate(-160 780.322 613.05)">
    <path fill="url(#nbb-bg-e-dark-a)" d="M265.624521,435.739464 C269.010175,435.739464 271.754789,438.484078 271.754789,441.869732 C271.754789,445.255385 269.010175,448 265.624521,448 C262.238867,448 259.494253,445.255385 259.494253,441.869732 C259.494253,438.484078 262.238867,435.739464 265.624521,435.739464 Z M300.873563,435.739464 C304.259217,435.739464 307.003831,438.484078 307.003831,441.869732 C307.003831,445.255385 304.259217,448 300.873563,448 C297.48791,448 294.743295,445.255385 294.743295,441.869732 C294.743295,438.484078 297.48791,435.739464 300.873563,435.739464 Z M336.122605,435.739464 C339.508259,435.739464 342.252874,438.484078 342.252874,441.869732 C342.252874,445.255385 339.508259,448 336.122605,448 C332.736952,448 329.992337,445.255385 329.992337,441.869732 C329.992337,438.484078 332.736952,435.739464 336.122605,435.739464 Z M371.371648,435.739464 C374.757301,435.739464 377.501916,438.484078 377.501916,441.869732 C377.501916,445.255385 374.757301,448 371.371648,448 C367.985994,448 365.241379,445.255385 365.241379,441.869732 C365.241379,438.484078 367.985994,435.739464 371.371648,435.739464 Z M406.62069,435.739464 C410.006343,435.739464 412.750958,438.484078 412.750958,441.869732 C412.750958,445.255385 410.006343,448 406.62069,448 C403.235036,448 400.490421,445.255385 400.490421,441.869732 C400.490421,438.484078 403.235036,435.739464 406.62069,435.739464 Z M441.869732,435.739464 C445.255385,435.739464 448,438.484078 448,441.869732 C448,445.255385 445.255385,448 441.869732,448 C438.484078,448 435.739464,445.255385 435.739464,441.869732 C435.739464,438.484078 438.484078,435.739464 441.869732,435.739464 Z M54.1302682,435.739464 C57.5159218,435.739464 60.2605364,438.484078 60.2605364,441.869732 C60.2605364,445.255385 57.5159218,448 54.1302682,448 C50.7446146,448 48,445.255385 48,441.869732 C48,438.484078 50.7446146,435.739464 54.1302682,435.739464 Z M89.3793103,435.739464 C92.764964,435.739464 95.5095785,438.484078 95.5095785,441.869732 C95.5095785,445.255385 92.764964,448 89.3793103,448 C85.9936567,448 83.2490421,445.255385 83.2490421,441.869732 C83.2490421,438.484078 85.9936567,435.739464 89.3793103,435.739464 Z M124.628352,435.739464 C128.014006,435.739464 130.758621,438.484078 130.758621,441.869732 C130.758621,445.255385 128.014006,448 124.628352,448 C121.242699,448 118.498084,445.255385 118.498084,441.869732 C118.498084,438.484078 121.242699,435.739464 124.628352,435.739464 Z M159.877395,435.739464 C163.263048,435.739464 166.007663,438.484078 166.007663,441.869732 C166.007663,445.255385 163.263048,448 159.877395,448 C156.491741,448 153.747126,445.255385 153.747126,441.869732 C153.747126,438.484078 156.491741,435.739464 159.877395,435.739464 Z M195.126437,435.739464 C198.51209,435.739464 201.256705,438.484078 201.256705,441.869732 C201.256705,445.255385 198.51209,448 195.126437,448 C191.740783,448 188.996169,445.255385 188.996169,441.869732 C188.996169,438.484078 191.740783,435.739464 195.126437,435.739464 Z M230.375479,435.739464 C233.761133,435.739464 236.505747,438.484078 236.505747,441.869732 C236.505747,445.255385 233.761133,448 230.375479,448 C226.989825,448 224.245211,445.255385 224.245211,441.869732 C224.245211,438.484078 226.989825,435.739464 230.375479,435.739464 Z M54.1302682,400.490421 C57.5159218,400.490421 60.2605364,403.235036 60.2605364,406.62069 C60.2605364,410.006343 57.5159218,412.750958 54.1302682,412.750958 C50.7446146,412.750958 48,410.006343 48,406.62069 C48,403.235036 50.7446146,400.490421 54.1302682,400.490421 Z M89.3793103,400.490421 C92.764964,400.490421 95.5095785,403.235036 95.5095785,406.62069 C95.5095785,410.006343 92.764964,412.750958 89.3793103,412.750958 C85.9936567,412.750958 83.2490421,410.006343 83.2490421,406.62069 C83.2490421,403.235036 85.9936567,400.490421 89.3793103,400.490421 Z M124.628352,400.490421 C128.014006,400.490421 130.758621,403.235036 130.758621,406.62069 C130.758621,410.006343 128.014006,412.750958 124.628352,412.750958 C121.242699,412.750958 118.498084,410.006343 118.498084,406.62069 C118.498084,403.235036 121.242699,400.490421 124.628352,400.490421 Z M371.371648,400.490421 C374.757301,400.490421 377.501916,403.235036 377.501916,406.62069 C377.501916,410.006343 374.757301,412.750958 371.371648,412.750958 C367.985994,412.750958 365.241379,410.006343 365.241379,406.62069 C365.241379,403.235036 367.985994,400.490421 371.371648,400.490421 Z M406.62069,400.490421 C410.006343,400.490421 412.750958,403.235036 412.750958,406.62069 C412.750958,410.006343 410.006343,412.750958 406.62069,412.750958 C403.235036,412.750958 400.490421,410.006343 400.490421,406.62069 C400.490421,403.235036 403.235036,400.490421 406.62069,400.490421 Z M441.869732,400.490421 C445.255385,400.490421 448,403.235036 448,406.62069 C448,410.006343 445.255385,412.750958 441.869732,412.750958 C438.484078,412.750958 435.739464,410.006343 435.739464,406.62069 C435.739464,403.235036 438.484078,400.490421 441.869732,400.490421 Z M159.877395,400.490421 C163.263048,400.490421 166.007663,403.235036 166.007663,406.62069 C166.007663,410.006343 163.263048,412.750958 159.877395,412.750958 C156.491741,412.750958 153.747126,410.006343 153.747126,406.62069 C153.747126,403.235036 156.491741,400.490421 159.877395,400.490421 Z M195.126437,400.490421 C198.51209,400.490421 201.256705,403.235036 201.256705,406.62069 C201.256705,410.006343 198.51209,412.750958 195.126437,412.750958 C191.740783,412.750958 188.996169,410.006343 188.996169,406.62069 C188.996169,403.235036 191.740783,400.490421 195.126437,400.490421 Z M230.375479,400.490421 C233.761133,400.490421 236.505747,403.235036 236.505747,406.62069 C236.505747,410.006343 233.761133,412.750958 230.375479,412.750958 C226.989825,412.750958 224.245211,410.006343 224.245211,406.62069 C224.245211,403.235036 226.989825,400.490421 230.375479,400.490421 Z M265.624521,400.490421 C269.010175,400.490421 271.754789,403.235036 271.754789,406.62069 C271.754789,410.006343 269.010175,412.750958 265.624521,412.750958 C262.238867,412.750958 259.494253,410.006343 259.494253,406.62069 C259.494253,403.235036 262.238867,400.490421 265.624521,400.490421 Z M300.873563,400.490421 C304.259217,400.490421 307.003831,403.235036 307.003831,406.62069 C307.003831,410.006343 304.259217,412.750958 300.873563,412.750958 C297.48791,412.750958 294.743295,410.006343 294.743295,406.62069 C294.743295,403.235036 297.48791,400.490421 300.873563,400.490421 Z M336.122605,400.490421 C339.508259,400.490421 342.252874,403.235036 342.252874,406.62069 C342.252874,410.006343 339.508259,412.750958 336.122605,412.750958 C332.736952,412.750958 329.992337,410.006343 329.992337,406.62069 C329.992337,403.235036 332.736952,400.490421 336.122605,400.490421 Z M371.371648,365.241379 C374.757301,365.241379 377.501916,367.985994 377.501916,371.371648 C377.501916,374.757301 374.757301,377.501916 371.371648,377.501916 C367.985994,377.501916 365.241379,374.757301 365.241379,371.371648 C365.241379,367.985994 367.985994,365.241379 371.371648,365.241379 Z M300.873563,365.241379 C304.259217,365.241379 307.003831,367.985994 307.003831,371.371648 C307.003831,374.757301 304.259217,377.501916 300.873563,377.501916 C297.48791,377.501916 294.743295,374.757301 294.743295,371.371648 C294.743295,367.985994 297.48791,365.241379 300.873563,365.241379 Z M406.62069,365.241379 C410.006343,365.241379 412.750958,367.985994 412.750958,371.371648 C412.750958,374.757301 410.006343,377.501916 406.62069,377.501916 C403.235036,377.501916 400.490421,374.757301 400.490421,371.371648 C400.490421,367.985994 403.235036,365.241379 406.62069,365.241379 Z M159.877395,365.241379 C163.263048,365.241379 166.007663,367.985994 166.007663,371.371648 C166.007663,374.757301 163.263048,377.501916 159.877395,377.501916 C156.491741,377.501916 153.747126,374.757301 153.747126,371.371648 C153.747126,367.985994 156.491741,365.241379 159.877395,365.241379 Z M54.1302682,365.241379 C57.5159218,365.241379 60.2605364,367.985994 60.2605364,371.371648 C60.2605364,374.757301 57.5159218,377.501916 54.1302682,377.501916 C50.7446146,377.501916 48,374.757301 48,371.371648 C48,367.985994 50.7446146,365.241379 54.1302682,365.241379 Z M195.126437,365.241379 C198.51209,365.241379 201.256705,367.985994 201.256705,371.371648 C201.256705,374.757301 198.51209,377.501916 195.126437,377.501916 C191.740783,377.501916 188.996169,374.757301 188.996169,371.371648 C188.996169,367.985994 191.740783,365.241379 195.126437,365.241379 Z M336.122605,365.241379 C339.508259,365.241379 342.252874,367.985994 342.252874,371.371648 C342.252874,374.757301 339.508259,377.501916 336.122605,377.501916 C332.736952,377.501916 329.992337,374.757301 329.992337,371.371648 C329.992337,367.985994 332.736952,365.241379 336.122605,365.241379 Z M89.3793103,365.241379 C92.764964,365.241379 95.5095785,367.985994 95.5095785,371.371648 C95.5095785,374.757301 92.764964,377.501916 89.3793103,377.501916 C85.9936567,377.501916 83.2490421,374.757301 83.2490421,371.371648 C83.2490421,367.985994 85.9936567,365.241379 89.3793103,365.241379 Z M230.375479,365.241379 C233.761133,365.241379 236.505747,367.985994 236.505747,371.371648 C236.505747,374.757301 233.761133,377.501916 230.375479,377.501916 C226.989825,377.501916 224.245211,374.757301 224.245211,371.371648 C224.245211,367.985994 226.989825,365.241379 230.375479,365.241379 Z M265.624521,365.241379 C269.010175,365.241379 271.754789,367.985994 271.754789,371.371648 C271.754789,374.757301 269.010175,377.501916 265.624521,377.501916 C262.238867,377.501916 259.494253,374.757301 259.494253,371.371648 C259.494253,367.985994 262.238867,365.241379 265.624521,365.241379 Z M441.869732,365.241379 C445.255385,365.241379 448,367.985994 448,371.371648 C448,374.757301 445.255385,377.501916 441.869732,377.501916 C438.484078,377.501916 435.739464,374.757301 435.739464,371.371648 C435.739464,367.985994 438.484078,365.241379 441.869732,365.241379 Z M124.628352,365.241379 C128.014006,365.241379 130.758621,367.985994 130.758621,371.371648 C130.758621,374.757301 128.014006,377.501916 124.628352,377.501916 C121.242699,377.501916 118.498084,374.757301 118.498084,371.371648 C118.498084,367.985994 121.242699,365.241379 124.628352,365.241379 Z M89.3793103,329.992337 C92.764964,329.992337 95.5095785,332.736952 95.5095785,336.122605 C95.5095785,339.508259 92.764964,342.252874 89.3793103,342.252874 C85.9936567,342.252874 83.2490421,339.508259 83.2490421,336.122605 C83.2490421,332.736952 85.9936567,329.992337 89.3793103,329.992337 Z M159.877395,329.992337 C163.263048,329.992337 166.007663,332.736952 166.007663,336.122605 C166.007663,339.508259 163.263048,342.252874 159.877395,342.252874 C156.491741,342.252874 153.747126,339.508259 153.747126,336.122605 C153.747126,332.736952 156.491741,329.992337 159.877395,329.992337 Z M230.375479,329.992337 C233.761133,329.992337 236.505747,332.736952 236.505747,336.122605 C236.505747,339.508259 233.761133,342.252874 230.375479,342.252874 C226.989825,342.252874 224.245211,339.508259 224.245211,336.122605 C224.245211,332.736952 226.989825,329.992337 230.375479,329.992337 Z M371.371648,329.992337 C374.757301,329.992337 377.501916,332.736952 377.501916,336.122605 C377.501916,339.508259 374.757301,342.252874 371.371648,342.252874 C367.985994,342.252874 365.241379,339.508259 365.241379,336.122605 C365.241379,332.736952 367.985994,329.992337 371.371648,329.992337 Z M265.624521,329.992337 C269.010175,329.992337 271.754789,332.736952 271.754789,336.122605 C271.754789,339.508259 269.010175,342.252874 265.624521,342.252874 C262.238867,342.252874 259.494253,339.508259 259.494253,336.122605 C259.494253,332.736952 262.238867,329.992337 265.624521,329.992337 Z M336.122605,329.992337 C339.508259,329.992337 342.252874,332.736952 342.252874,336.122605 C342.252874,339.508259 339.508259,342.252874 336.122605,342.252874 C332.736952,342.252874 329.992337,339.508259 329.992337,336.122605 C329.992337,332.736952 332.736952,329.992337 336.122605,329.992337 Z M54.1302682,329.992337 C57.5159218,329.992337 60.2605364,332.736952 60.2605364,336.122605 C60.2605364,339.508259 57.5159218,342.252874 54.1302682,342.252874 C50.7446146,342.252874 48,339.508259 48,336.122605 C48,332.736952 50.7446146,329.992337 54.1302682,329.992337 Z M124.628352,329.992337 C128.014006,329.992337 130.758621,332.736952 130.758621,336.122605 C130.758621,339.508259 128.014006,342.252874 124.628352,342.252874 C121.242699,342.252874 118.498084,339.508259 118.498084,336.122605 C118.498084,332.736952 121.242699,329.992337 124.628352,329.992337 Z M441.869732,329.992337 C445.255385,329.992337 448,332.736952 448,336.122605 C448,339.508259 445.255385,342.252874 441.869732,342.252874 C438.484078,342.252874 435.739464,339.508259 435.739464,336.122605 C435.739464,332.736952 438.484078,329.992337 441.869732,329.992337 Z M300.873563,329.992337 C304.259217,329.992337 307.003831,332.736952 307.003831,336.122605 C307.003831,339.508259 304.259217,342.252874 300.873563,342.252874 C297.48791,342.252874 294.743295,339.508259 294.743295,336.122605 C294.743295,332.736952 297.48791,329.992337 300.873563,329.992337 Z M195.126437,329.992337 C198.51209,329.992337 201.256705,332.736952 201.256705,336.122605 C201.256705,339.508259 198.51209,342.252874 195.126437,342.252874 C191.740783,342.252874 188.996169,339.508259 188.996169,336.122605 C188.996169,332.736952 191.740783,329.992337 195.126437,329.992337 Z M406.62069,329.992337 C410.006343,329.992337 412.750958,332.736952 412.750958,336.122605 C412.750958,339.508259 410.006343,342.252874 406.62069,342.252874 C403.235036,342.252874 400.490421,339.508259 400.490421,336.122605 C400.490421,332.736952 403.235036,329.992337 406.62069,329.992337 Z M441.869732,294.743295 C445.255385,294.743295 448,297.48791 448,300.873563 C448,304.259217 445.255385,307.003831 441.869732,307.003831 C438.484078,307.003831 435.739464,304.259217 435.739464,300.873563 C435.739464,297.48791 438.484078,294.743295 441.869732,294.743295 Z M336.122605,294.743295 C339.508259,294.743295 342.252874,297.48791 342.252874,300.873563 C342.252874,304.259217 339.508259,307.003831 336.122605,307.003831 C332.736952,307.003831 329.992337,304.259217 329.992337,300.873563 C329.992337,297.48791 332.736952,294.743295 336.122605,294.743295 Z M159.877395,294.743295 C163.263048,294.743295 166.007663,297.48791 166.007663,300.873563 C166.007663,304.259217 163.263048,307.003831 159.877395,307.003831 C156.491741,307.003831 153.747126,304.259217 153.747126,300.873563 C153.747126,297.48791 156.491741,294.743295 159.877395,294.743295 Z M406.62069,294.743295 C410.006343,294.743295 412.750958,297.48791 412.750958,300.873563 C412.750958,304.259217 410.006343,307.003831 406.62069,307.003831 C403.235036,307.003831 400.490421,304.259217 400.490421,300.873563 C400.490421,297.48791 403.235036,294.743295 406.62069,294.743295 Z M300.873563,294.743295 C304.259217,294.743295 307.003831,297.48791 307.003831,300.873563 C307.003831,304.259217 304.259217,307.003831 300.873563,307.003831 C297.48791,307.003831 294.743295,304.259217 294.743295,300.873563 C294.743295,297.48791 297.48791,294.743295 300.873563,294.743295 Z M89.3793103,294.743295 C92.764964,294.743295 95.5095785,297.48791 95.5095785,300.873563 C95.5095785,304.259217 92.764964,307.003831 89.3793103,307.003831 C85.9936567,307.003831 83.2490421,304.259217 83.2490421,300.873563 C83.2490421,297.48791 85.9936567,294.743295 89.3793103,294.743295 Z M54.1302682,294.743295 C57.5159218,294.743295 60.2605364,297.48791 60.2605364,300.873563 C60.2605364,304.259217 57.5159218,307.003831 54.1302682,307.003831 C50.7446146,307.003831 48,304.259217 48,300.873563 C48,297.48791 50.7446146,294.743295 54.1302682,294.743295 Z M371.371648,294.743295 C374.757301,294.743295 377.501916,297.48791 377.501916,300.873563 C377.501916,304.259217 374.757301,307.003831 371.371648,307.003831 C367.985994,307.003831 365.241379,304.259217 365.241379,300.873563 C365.241379,297.48791 367.985994,294.743295 371.371648,294.743295 Z M265.624521,294.743295 C269.010175,294.743295 271.754789,297.48791 271.754789,300.873563 C271.754789,304.259217 269.010175,307.003831 265.624521,307.003831 C262.238867,307.003831 259.494253,304.259217 259.494253,300.873563 C259.494253,297.48791 262.238867,294.743295 265.624521,294.743295 Z M195.126437,294.743295 C198.51209,294.743295 201.256705,297.48791 201.256705,300.873563 C201.256705,304.259217 198.51209,307.003831 195.126437,307.003831 C191.740783,307.003831 188.996169,304.259217 188.996169,300.873563 C188.996169,297.48791 191.740783,294.743295 195.126437,294.743295 Z M230.375479,294.743295 C233.761133,294.743295 236.505747,297.48791 236.505747,300.873563 C236.505747,304.259217 233.761133,307.003831 230.375479,307.003831 C226.989825,307.003831 224.245211,304.259217 224.245211,300.873563 C224.245211,297.48791 226.989825,294.743295 230.375479,294.743295 Z M124.628352,294.743295 C128.014006,294.743295 130.758621,297.48791 130.758621,300.873563 C130.758621,304.259217 128.014006,307.003831 124.628352,307.003831 C121.242699,307.003831 118.498084,304.259217 118.498084,300.873563 C118.498084,297.48791 121.242699,294.743295 124.628352,294.743295 Z M54.1302682,259.494253 C57.5159218,259.494253 60.2605364,262.238867 60.2605364,265.624521 C60.2605364,269.010175 57.5159218,271.754789 54.1302682,271.754789 C50.7446146,271.754789 48,269.010175 48,265.624521 C48,262.238867 50.7446146,259.494253 54.1302682,259.494253 Z M89.3793103,259.494253 C92.764964,259.494253 95.5095785,262.238867 95.5095785,265.624521 C95.5095785,269.010175 92.764964,271.754789 89.3793103,271.754789 C85.9936567,271.754789 83.2490421,269.010175 83.2490421,265.624521 C83.2490421,262.238867 85.9936567,259.494253 89.3793103,259.494253 Z M124.628352,259.494253 C128.014006,259.494253 130.758621,262.238867 130.758621,265.624521 C130.758621,269.010175 128.014006,271.754789 124.628352,271.754789 C121.242699,271.754789 118.498084,269.010175 118.498084,265.624521 C118.498084,262.238867 121.242699,259.494253 124.628352,259.494253 Z M406.62069,259.494253 C410.006343,259.494253 412.750958,262.238867 412.750958,265.624521 C412.750958,269.010175 410.006343,271.754789 406.62069,271.754789 C403.235036,271.754789 400.490421,269.010175 400.490421,265.624521 C400.490421,262.238867 403.235036,259.494253 406.62069,259.494253 Z M441.869732,259.494253 C445.255385,259.494253 448,262.238867 448,265.624521 C448,269.010175 445.255385,271.754789 441.869732,271.754789 C438.484078,271.754789 435.739464,269.010175 435.739464,265.624521 C435.739464,262.238867 438.484078,259.494253 441.869732,259.494253 Z M336.122605,259.494253 C339.508259,259.494253 342.252874,262.238867 342.252874,265.624521 C342.252874,269.010175 339.508259,271.754789 336.122605,271.754789 C332.736952,271.754789 329.992337,269.010175 329.992337,265.624521 C329.992337,262.238867 332.736952,259.494253 336.122605,259.494253 Z M371.371648,259.494253 C374.757301,259.494253 377.501916,262.238867 377.501916,265.624521 C377.501916,269.010175 374.757301,271.754789 371.371648,271.754789 C367.985994,271.754789 365.241379,269.010175 365.241379,265.624521 C365.241379,262.238867 367.985994,259.494253 371.371648,259.494253 Z M300.873563,259.494253 C304.259217,259.494253 307.003831,262.238867 307.003831,265.624521 C307.003831,269.010175 304.259217,271.754789 300.873563,271.754789 C297.48791,271.754789 294.743295,269.010175 294.743295,265.624521 C294.743295,262.238867 297.48791,259.494253 300.873563,259.494253 Z M195.126437,259.494253 C198.51209,259.494253 201.256705,262.238867 201.256705,265.624521 C201.256705,269.010175 198.51209,271.754789 195.126437,271.754789 C191.740783,271.754789 188.996169,269.010175 188.996169,265.624521 C188.996169,262.238867 191.740783,259.494253 195.126437,259.494253 Z M265.624521,259.494253 C269.010175,259.494253 271.754789,262.238867 271.754789,265.624521 C271.754789,269.010175 269.010175,271.754789 265.624521,271.754789 C262.238867,271.754789 259.494253,269.010175 259.494253,265.624521 C259.494253,262.238867 262.238867,259.494253 265.624521,259.494253 Z M159.877395,259.494253 C163.263048,259.494253 166.007663,262.238867 166.007663,265.624521 C166.007663,269.010175 163.263048,271.754789 159.877395,271.754789 C156.491741,271.754789 153.747126,269.010175 153.747126,265.624521 C153.747126,262.238867 156.491741,259.494253 159.877395,259.494253 Z M230.375479,259.494253 C233.761133,259.494253 236.505747,262.238867 236.505747,265.624521 C236.505747,269.010175 233.761133,271.754789 230.375479,271.754789 C226.989825,271.754789 224.245211,269.010175 224.245211,265.624521 C224.245211,262.238867 226.989825,259.494253 230.375479,259.494253 Z M265.624521,224.245211 C269.010175,224.245211 271.754789,226.989825 271.754789,230.375479 C271.754789,233.761133 269.010175,236.505747 265.624521,236.505747 C262.238867,236.505747 259.494253,233.761133 259.494253,230.375479 C259.494253,226.989825 262.238867,224.245211 265.624521,224.245211 Z M124.628352,224.245211 C128.014006,224.245211 130.758621,226.989825 130.758621,230.375479 C130.758621,233.761133 128.014006,236.505747 124.628352,236.505747 C121.242699,236.505747 118.498084,233.761133 118.498084,230.375479 C118.498084,226.989825 121.242699,224.245211 124.628352,224.245211 Z M230.375479,224.245211 C233.761133,224.245211 236.505747,226.989825 236.505747,230.375479 C236.505747,233.761133 233.761133,236.505747 230.375479,236.505747 C226.989825,236.505747 224.245211,233.761133 224.245211,230.375479 C224.245211,226.989825 226.989825,224.245211 230.375479,224.245211 Z M441.869732,224.245211 C445.255385,224.245211 448,226.989825 448,230.375479 C448,233.761133 445.255385,236.505747 441.869732,236.505747 C438.484078,236.505747 435.739464,233.761133 435.739464,230.375479 C435.739464,226.989825 438.484078,224.245211 441.869732,224.245211 Z M89.3793103,224.245211 C92.764964,224.245211 95.5095785,226.989825 95.5095785,230.375479 C95.5095785,233.761133 92.764964,236.505747 89.3793103,236.505747 C85.9936567,236.505747 83.2490421,233.761133 83.2490421,230.375479 C83.2490421,226.989825 85.9936567,224.245211 89.3793103,224.245211 Z M54.1302682,224.245211 C57.5159218,224.245211 60.2605364,226.989825 60.2605364,230.375479 C60.2605364,233.761133 57.5159218,236.505747 54.1302682,236.505747 C50.7446146,236.505747 48,233.761133 48,230.375479 C48,226.989825 50.7446146,224.245211 54.1302682,224.245211 Z M159.877395,224.245211 C163.263048,224.245211 166.007663,226.989825 166.007663,230.375479 C166.007663,233.761133 163.263048,236.505747 159.877395,236.505747 C156.491741,236.505747 153.747126,233.761133 153.747126,230.375479 C153.747126,226.989825 156.491741,224.245211 159.877395,224.245211 Z M300.873563,224.245211 C304.259217,224.245211 307.003831,226.989825 307.003831,230.375479 C307.003831,233.761133 304.259217,236.505747 300.873563,236.505747 C297.48791,236.505747 294.743295,233.761133 294.743295,230.375479 C294.743295,226.989825 297.48791,224.245211 300.873563,224.245211 Z M195.126437,224.245211 C198.51209,224.245211 201.256705,226.989825 201.256705,230.375479 C201.256705,233.761133 198.51209,236.505747 195.126437,236.505747 C191.740783,236.505747 188.996169,233.761133 188.996169,230.375479 C188.996169,226.989825 191.740783,224.245211 195.126437,224.245211 Z M371.371648,224.245211 C374.757301,224.245211 377.501916,226.989825 377.501916,230.375479 C377.501916,233.761133 374.757301,236.505747 371.371648,236.505747 C367.985994,236.505747 365.241379,233.761133 365.241379,230.375479 C365.241379,226.989825 367.985994,224.245211 371.371648,224.245211 Z M406.62069,224.245211 C410.006343,224.245211 412.750958,226.989825 412.750958,230.375479 C412.750958,233.761133 410.006343,236.505747 406.62069,236.505747 C403.235036,236.505747 400.490421,233.761133 400.490421,230.375479 C400.490421,226.989825 403.235036,224.245211 406.62069,224.245211 Z M336.122605,224.245211 C339.508259,224.245211 342.252874,226.989825 342.252874,230.375479 C342.252874,233.761133 339.508259,236.505747 336.122605,236.505747 C332.736952,236.505747 329.992337,233.761133 329.992337,230.375479 C329.992337,226.989825 332.736952,224.245211 336.122605,224.245211 Z M195.126437,188.996169 C198.51209,188.996169 201.256705,191.740783 201.256705,195.126437 C201.256705,198.51209 198.51209,201.256705 195.126437,201.256705 C191.740783,201.256705 188.996169,198.51209 188.996169,195.126437 C188.996169,191.740783 191.740783,188.996169 195.126437,188.996169 Z M371.371648,188.996169 C374.757301,188.996169 377.501916,191.740783 377.501916,195.126437 C377.501916,198.51209 374.757301,201.256705 371.371648,201.256705 C367.985994,201.256705 365.241379,198.51209 365.241379,195.126437 C365.241379,191.740783 367.985994,188.996169 371.371648,188.996169 Z M406.62069,188.996169 C410.006343,188.996169 412.750958,191.740783 412.750958,195.126437 C412.750958,198.51209 410.006343,201.256705 406.62069,201.256705 C403.235036,201.256705 400.490421,198.51209 400.490421,195.126437 C400.490421,191.740783 403.235036,188.996169 406.62069,188.996169 Z M230.375479,188.996169 C233.761133,188.996169 236.505747,191.740783 236.505747,195.126437 C236.505747,198.51209 233.761133,201.256705 230.375479,201.256705 C226.989825,201.256705 224.245211,198.51209 224.245211,195.126437 C224.245211,191.740783 226.989825,188.996169 230.375479,188.996169 Z M54.1302682,188.996169 C57.5159218,188.996169 60.2605364,191.740783 60.2605364,195.126437 C60.2605364,198.51209 57.5159218,201.256705 54.1302682,201.256705 C50.7446146,201.256705 48,198.51209 48,195.126437 C48,191.740783 50.7446146,188.996169 54.1302682,188.996169 Z M441.869732,188.996169 C445.255385,188.996169 448,191.740783 448,195.126437 C448,198.51209 445.255385,201.256705 441.869732,201.256705 C438.484078,201.256705 435.739464,198.51209 435.739464,195.126437 C435.739464,191.740783 438.484078,188.996169 441.869732,188.996169 Z M159.877395,188.996169 C163.263048,188.996169 166.007663,191.740783 166.007663,195.126437 C166.007663,198.51209 163.263048,201.256705 159.877395,201.256705 C156.491741,201.256705 153.747126,198.51209 153.747126,195.126437 C153.747126,191.740783 156.491741,188.996169 159.877395,188.996169 Z M89.3793103,188.996169 C92.764964,188.996169 95.5095785,191.740783 95.5095785,195.126437 C95.5095785,198.51209 92.764964,201.256705 89.3793103,201.256705 C85.9936567,201.256705 83.2490421,198.51209 83.2490421,195.126437 C83.2490421,191.740783 85.9936567,188.996169 89.3793103,188.996169 Z M336.122605,188.996169 C339.508259,188.996169 342.252874,191.740783 342.252874,195.126437 C342.252874,198.51209 339.508259,201.256705 336.122605,201.256705 C332.736952,201.256705 329.992337,198.51209 329.992337,195.126437 C329.992337,191.740783 332.736952,188.996169 336.122605,188.996169 Z M265.624521,188.996169 C269.010175,188.996169 271.754789,191.740783 271.754789,195.126437 C271.754789,198.51209 269.010175,201.256705 265.624521,201.256705 C262.238867,201.256705 259.494253,198.51209 259.494253,195.126437 C259.494253,191.740783 262.238867,188.996169 265.624521,188.996169 Z M124.628352,188.996169 C128.014006,188.996169 130.758621,191.740783 130.758621,195.126437 C130.758621,198.51209 128.014006,201.256705 124.628352,201.256705 C121.242699,201.256705 118.498084,198.51209 118.498084,195.126437 C118.498084,191.740783 121.242699,188.996169 124.628352,188.996169 Z M300.873563,188.996169 C304.259217,188.996169 307.003831,191.740783 307.003831,195.126437 C307.003831,198.51209 304.259217,201.256705 300.873563,201.256705 C297.48791,201.256705 294.743295,198.51209 294.743295,195.126437 C294.743295,191.740783 297.48791,188.996169 300.873563,188.996169 Z M265.624521,153.747126 C269.010175,153.747126 271.754789,156.491741 271.754789,159.877395 C271.754789,163.263048 269.010175,166.007663 265.624521,166.007663 C262.238867,166.007663 259.494253,163.263048 259.494253,159.877395 C259.494253,156.491741 262.238867,153.747126 265.624521,153.747126 Z M124.628352,153.747126 C128.014006,153.747126 130.758621,156.491741 130.758621,159.877395 C130.758621,163.263048 128.014006,166.007663 124.628352,166.007663 C121.242699,166.007663 118.498084,163.263048 118.498084,159.877395 C118.498084,156.491741 121.242699,153.747126 124.628352,153.747126 Z M195.126437,153.747126 C198.51209,153.747126 201.256705,156.491741 201.256705,159.877395 C201.256705,163.263048 198.51209,166.007663 195.126437,166.007663 C191.740783,166.007663 188.996169,163.263048 188.996169,159.877395 C188.996169,156.491741 191.740783,153.747126 195.126437,153.747126 Z M89.3793103,153.747126 C92.764964,153.747126 95.5095785,156.491741 95.5095785,159.877395 C95.5095785,163.263048 92.764964,166.007663 89.3793103,166.007663 C85.9936567,166.007663 83.2490421,163.263048 83.2490421,159.877395 C83.2490421,156.491741 85.9936567,153.747126 89.3793103,153.747126 Z M230.375479,153.747126 C233.761133,153.747126 236.505747,156.491741 236.505747,159.877395 C236.505747,163.263048 233.761133,166.007663 230.375479,166.007663 C226.989825,166.007663 224.245211,163.263048 224.245211,159.877395 C224.245211,156.491741 226.989825,153.747126 230.375479,153.747126 Z M441.869732,153.747126 C445.255385,153.747126 448,156.491741 448,159.877395 C448,163.263048 445.255385,166.007663 441.869732,166.007663 C438.484078,166.007663 435.739464,163.263048 435.739464,159.877395 C435.739464,156.491741 438.484078,153.747126 441.869732,153.747126 Z M406.62069,153.747126 C410.006343,153.747126 412.750958,156.491741 412.750958,159.877395 C412.750958,163.263048 410.006343,166.007663 406.62069,166.007663 C403.235036,166.007663 400.490421,163.263048 400.490421,159.877395 C400.490421,156.491741 403.235036,153.747126 406.62069,153.747126 Z M54.1302682,153.747126 C57.5159218,153.747126 60.2605364,156.491741 60.2605364,159.877395 C60.2605364,163.263048 57.5159218,166.007663 54.1302682,166.007663 C50.7446146,166.007663 48,163.263048 48,159.877395 C48,156.491741 50.7446146,153.747126 54.1302682,153.747126 Z M336.122605,153.747126 C339.508259,153.747126 342.252874,156.491741 342.252874,159.877395 C342.252874,163.263048 339.508259,166.007663 336.122605,166.007663 C332.736952,166.007663 329.992337,163.263048 329.992337,159.877395 C329.992337,156.491741 332.736952,153.747126 336.122605,153.747126 Z M300.873563,153.747126 C304.259217,153.747126 307.003831,156.491741 307.003831,159.877395 C307.003831,163.263048 304.259217,166.007663 300.873563,166.007663 C297.48791,166.007663 294.743295,163.263048 294.743295,159.877395 C294.743295,156.491741 297.48791,153.747126 300.873563,153.747126 Z M159.877395,153.747126 C163.263048,153.747126 166.007663,156.491741 166.007663,159.877395 C166.007663,163.263048 163.263048,166.007663 159.877395,166.007663 C156.491741,166.007663 153.747126,163.263048 153.747126,159.877395 C153.747126,156.491741 156.491741,153.747126 159.877395,153.747126 Z M371.371648,153.747126 C374.757301,153.747126 377.501916,156.491741 377.501916,159.877395 C377.501916,163.263048 374.757301,166.007663 371.371648,166.007663 C367.985994,166.007663 365.241379,163.263048 365.241379,159.877395 C365.241379,156.491741 367.985994,153.747126 371.371648,153.747126 Z M195.126437,118.498084 C198.51209,118.498084 201.256705,121.242699 201.256705,124.628352 C201.256705,128.014006 198.51209,130.758621 195.126437,130.758621 C191.740783,130.758621 188.996169,128.014006 188.996169,124.628352 C188.996169,121.242699 191.740783,118.498084 195.126437,118.498084 Z M54.1302682,118.498084 C57.5159218,118.498084 60.2605364,121.242699 60.2605364,124.628352 C60.2605364,128.014006 57.5159218,130.758621 54.1302682,130.758621 C50.7446146,130.758621 48,128.014006 48,124.628352 C48,121.242699 50.7446146,118.498084 54.1302682,118.498084 Z M441.869732,118.498084 C445.255385,118.498084 448,121.242699 448,124.628352 C448,128.014006 445.255385,130.758621 441.869732,130.758621 C438.484078,130.758621 435.739464,128.014006 435.739464,124.628352 C435.739464,121.242699 438.484078,118.498084 441.869732,118.498084 Z M89.3793103,118.498084 C92.764964,118.498084 95.5095785,121.242699 95.5095785,124.628352 C95.5095785,128.014006 92.764964,130.758621 89.3793103,130.758621 C85.9936567,130.758621 83.2490421,128.014006 83.2490421,124.628352 C83.2490421,121.242699 85.9936567,118.498084 89.3793103,118.498084 Z M124.628352,118.498084 C128.014006,118.498084 130.758621,121.242699 130.758621,124.628352 C130.758621,128.014006 128.014006,130.758621 124.628352,130.758621 C121.242699,130.758621 118.498084,128.014006 118.498084,124.628352 C118.498084,121.242699 121.242699,118.498084 124.628352,118.498084 Z M406.62069,118.498084 C410.006343,118.498084 412.750958,121.242699 412.750958,124.628352 C412.750958,128.014006 410.006343,130.758621 406.62069,130.758621 C403.235036,130.758621 400.490421,128.014006 400.490421,124.628352 C400.490421,121.242699 403.235036,118.498084 406.62069,118.498084 Z M300.873563,118.498084 C304.259217,118.498084 307.003831,121.242699 307.003831,124.628352 C307.003831,128.014006 304.259217,130.758621 300.873563,130.758621 C297.48791,130.758621 294.743295,128.014006 294.743295,124.628352 C294.743295,121.242699 297.48791,118.498084 300.873563,118.498084 Z M159.877395,118.498084 C163.263048,118.498084 166.007663,121.242699 166.007663,124.628352 C166.007663,128.014006 163.263048,130.758621 159.877395,130.758621 C156.491741,130.758621 153.747126,128.014006 153.747126,124.628352 C153.747126,121.242699 156.491741,118.498084 159.877395,118.498084 Z M230.375479,118.498084 C233.761133,118.498084 236.505747,121.242699 236.505747,124.628352 C236.505747,128.014006 233.761133,130.758621 230.375479,130.758621 C226.989825,130.758621 224.245211,128.014006 224.245211,124.628352 C224.245211,121.242699 226.989825,118.498084 230.375479,118.498084 Z M336.122605,118.498084 C339.508259,118.498084 342.252874,121.242699 342.252874,124.628352 C342.252874,128.014006 339.508259,130.758621 336.122605,130.758621 C332.736952,130.758621 329.992337,128.014006 329.992337,124.628352 C329.992337,121.242699 332.736952,118.498084 336.122605,118.498084 Z M371.371648,118.498084 C374.757301,118.498084 377.501916,121.242699 377.501916,124.628352 C377.501916,128.014006 374.757301,130.758621 371.371648,130.758621 C367.985994,130.758621 365.241379,128.014006 365.241379,124.628352 C365.241379,121.242699 367.985994,118.498084 371.371648,118.498084 Z M265.624521,118.498084 C269.010175,118.498084 271.754789,121.242699 271.754789,124.628352 C271.754789,128.014006 269.010175,130.758621 265.624521,130.758621 C262.238867,130.758621 259.494253,128.014006 259.494253,124.628352 C259.494253,121.242699 262.238867,118.498084 265.624521,118.498084 Z M89.3793103,83.2490421 C92.764964,83.2490421 95.5095785,85.9936567 95.5095785,89.3793103 C95.5095785,92.764964 92.764964,95.5095785 89.3793103,95.5095785 C85.9936567,95.5095785 83.2490421,92.764964 83.2490421,89.3793103 C83.2490421,85.9936567 85.9936567,83.2490421 89.3793103,83.2490421 Z M300.873563,83.2490421 C304.259217,83.2490421 307.003831,85.9936567 307.003831,89.3793103 C307.003831,92.764964 304.259217,95.5095785 300.873563,95.5095785 C297.48791,95.5095785 294.743295,92.764964 294.743295,89.3793103 C294.743295,85.9936567 297.48791,83.2490421 300.873563,83.2490421 Z M441.869732,83.2490421 C445.255385,83.2490421 448,85.9936567 448,89.3793103 C448,92.764964 445.255385,95.5095785 441.869732,95.5095785 C438.484078,95.5095785 435.739464,92.764964 435.739464,89.3793103 C435.739464,85.9936567 438.484078,83.2490421 441.869732,83.2490421 Z M159.877395,83.2490421 C163.263048,83.2490421 166.007663,85.9936567 166.007663,89.3793103 C166.007663,92.764964 163.263048,95.5095785 159.877395,95.5095785 C156.491741,95.5095785 153.747126,92.764964 153.747126,89.3793103 C153.747126,85.9936567 156.491741,83.2490421 159.877395,83.2490421 Z M406.62069,83.2490421 C410.006343,83.2490421 412.750958,85.9936567 412.750958,89.3793103 C412.750958,92.764964 410.006343,95.5095785 406.62069,95.5095785 C403.235036,95.5095785 400.490421,92.764964 400.490421,89.3793103 C400.490421,85.9936567 403.235036,83.2490421 406.62069,83.2490421 Z M124.628352,83.2490421 C128.014006,83.2490421 130.758621,85.9936567 130.758621,89.3793103 C130.758621,92.764964 128.014006,95.5095785 124.628352,95.5095785 C121.242699,95.5095785 118.498084,92.764964 118.498084,89.3793103 C118.498084,85.9936567 121.242699,83.2490421 124.628352,83.2490421 Z M336.122605,83.2490421 C339.508259,83.2490421 342.252874,85.9936567 342.252874,89.3793103 C342.252874,92.764964 339.508259,95.5095785 336.122605,95.5095785 C332.736952,95.5095785 329.992337,92.764964 329.992337,89.3793103 C329.992337,85.9936567 332.736952,83.2490421 336.122605,83.2490421 Z M230.375479,83.2490421 C233.761133,83.2490421 236.505747,85.9936567 236.505747,89.3793103 C236.505747,92.764964 233.761133,95.5095785 230.375479,95.5095785 C226.989825,95.5095785 224.245211,92.764964 224.245211,89.3793103 C224.245211,85.9936567 226.989825,83.2490421 230.375479,83.2490421 Z M195.126437,83.2490421 C198.51209,83.2490421 201.256705,85.9936567 201.256705,89.3793103 C201.256705,92.764964 198.51209,95.5095785 195.126437,95.5095785 C191.740783,95.5095785 188.996169,92.764964 188.996169,89.3793103 C188.996169,85.9936567 191.740783,83.2490421 195.126437,83.2490421 Z M371.371648,83.2490421 C374.757301,83.2490421 377.501916,85.9936567 377.501916,89.3793103 C377.501916,92.764964 374.757301,95.5095785 371.371648,95.5095785 C367.985994,95.5095785 365.241379,92.764964 365.241379,89.3793103 C365.241379,85.9936567 367.985994,83.2490421 371.371648,83.2490421 Z M54.1302682,83.2490421 C57.5159218,83.2490421 60.2605364,85.9936567 60.2605364,89.3793103 C60.2605364,92.764964 57.5159218,95.5095785 54.1302682,95.5095785 C50.7446146,95.5095785 48,92.764964 48,89.3793103 C48,85.9936567 50.7446146,83.2490421 54.1302682,83.2490421 Z M265.624521,83.2490421 C269.010175,83.2490421 271.754789,85.9936567 271.754789,89.3793103 C271.754789,92.764964 269.010175,95.5095785 265.624521,95.5095785 C262.238867,95.5095785 259.494253,92.764964 259.494253,89.3793103 C259.494253,85.9936567 262.238867,83.2490421 265.624521,83.2490421 Z M54.1302682,48 C57.5159218,48 60.2605364,50.7446146 60.2605364,54.1302682 C60.2605364,57.5159218 57.5159218,60.2605364 54.1302682,60.2605364 C50.7446146,60.2605364 48,57.5159218 48,54.1302682 C48,50.7446146 50.7446146,48 54.1302682,48 Z M89.3793103,48 C92.764964,48 95.5095785,50.7446146 95.5095785,54.1302682 C95.5095785,57.5159218 92.764964,60.2605364 89.3793103,60.2605364 C85.9936567,60.2605364 83.2490421,57.5159218 83.2490421,54.1302682 C83.2490421,50.7446146 85.9936567,48 89.3793103,48 Z M124.628352,48 C128.014006,48 130.758621,50.7446146 130.758621,54.1302682 C130.758621,57.5159218 128.014006,60.2605364 124.628352,60.2605364 C121.242699,60.2605364 118.498084,57.5159218 118.498084,54.1302682 C118.498084,50.7446146 121.242699,48 124.628352,48 Z M159.877395,48 C163.263048,48 166.007663,50.7446146 166.007663,54.1302682 C166.007663,57.5159218 163.263048,60.2605364 159.877395,60.2605364 C156.491741,60.2605364 153.747126,57.5159218 153.747126,54.1302682 C153.747126,50.7446146 156.491741,48 159.877395,48 Z M195.126437,48 C198.51209,48 201.256705,50.7446146 201.256705,54.1302682 C201.256705,57.5159218 198.51209,60.2605364 195.126437,60.2605364 C191.740783,60.2605364 188.996169,57.5159218 188.996169,54.1302682 C188.996169,50.7446146 191.740783,48 195.126437,48 Z M230.375479,48 C233.761133,48 236.505747,50.7446146 236.505747,54.1302682 C236.505747,57.5159218 233.761133,60.2605364 230.375479,60.2605364 C226.989825,60.2605364 224.245211,57.5159218 224.245211,54.1302682 C224.245211,50.7446146 226.989825,48 230.375479,48 Z M265.624521,48 C269.010175,48 271.754789,50.7446146 271.754789,54.1302682 C271.754789,57.5159218 269.010175,60.2605364 265.624521,60.2605364 C262.238867,60.2605364 259.494253,57.5159218 259.494253,54.1302682 C259.494253,50.7446146 262.238867,48 265.624521,48 Z M300.873563,48 C304.259217,48 307.003831,50.7446146 307.003831,54.1302682 C307.003831,57.5159218 304.259217,60.2605364 300.873563,60.2605364 C297.48791,60.2605364 294.743295,57.5159218 294.743295,54.1302682 C294.743295,50.7446146 297.48791,48 300.873563,48 Z M336.122605,48 C339.508259,48 342.252874,50.7446146 342.252874,54.1302682 C342.252874,57.5159218 339.508259,60.2605364 336.122605,60.2605364 C332.736952,60.2605364 329.992337,57.5159218 329.992337,54.1302682 C329.992337,50.7446146 332.736952,48 336.122605,48 Z M371.371648,48 C374.757301,48 377.501916,50.7446146 377.501916,54.1302682 C377.501916,57.5159218 374.757301,60.2605364 371.371648,60.2605364 C367.985994,60.2605364 365.241379,57.5159218 365.241379,54.1302682 C365.241379,50.7446146 367.985994,48 371.371648,48 Z M406.62069,48 C410.006343,48 412.750958,50.7446146 412.750958,54.1302682 C412.750958,57.5159218 410.006343,60.2605364 406.62069,60.2605364 C403.235036,60.2605364 400.490421,57.5159218 400.490421,54.1302682 C400.490421,50.7446146 403.235036,48 406.62069,48 Z M441.869732,48 C445.255385,48 448,50.7446146 448,54.1302682 C448,57.5159218 445.255385,60.2605364 441.869732,60.2605364 C438.484078,60.2605364 435.739464,57.5159218 435.739464,54.1302682 C435.739464,50.7446146 438.484078,48 441.869732,48 Z" transform="rotate(29 32.424 2516.992)"/>
    <circle cx="575" cy="221" r="215" stroke="url(#nbb-bg-e-dark-b)" stroke-width="12" opacity=".8"/>
    <circle cx="1234" cy="236" r="46" stroke="#FFF" stroke-width="8"/>
    <circle cx="542" cy="629" r="23" stroke="#512DA8" stroke-width="4" opacity=".503"/>
    <path stroke="url(#nbb-bg-e-dark-c)" stroke-linecap="round" stroke-linejoin="round" stroke-width="4" d="M1386.5,51.5 L1386.75,321.25" opacity=".4"/>
    <path stroke="#1851BE" stroke-linecap="square" d="M1501.88709,532.046109 L1507.91128,757.888326" opacity=".2" transform="rotate(-133.472 1505.012 644.921)"/>
    <path stroke="url(#nbb-bg-e-dark-d)" stroke-linecap="round" stroke-linejoin="round" stroke-width="4" d="M980.25,743.75 L979.218824,1190.24939" transform="rotate(-40.132 979.734 967)"/>
    <path stroke="url(#nbb-bg-e-dark-e)" stroke-linecap="round" stroke-linejoin="round" stroke-width="4" d="M529.5,537.5 L0.875,537.125"/>
  </g>
</svg>
