<svg xmlns="http://www.w3.org/2000/svg" width="1333" height="1263" viewBox="0 0 1333 1263">
  <defs>
    <linearGradient id="nbb-bg-e-a" x1="50.008%" x2="50.007%" y1="0%" y2="100%">
      <stop offset="0%" stop-color="#1851BE" stop-opacity=".9"/>
      <stop offset="14.646%" stop-color="#1956BC" stop-opacity=".8"/>
      <stop offset="33.417%" stop-color="#1C5ABD" stop-opacity=".7"/>
      <stop offset="61.312%" stop-color="#2062BC" stop-opacity=".496"/>
      <stop offset="100%" stop-color="#2A6CBE" stop-opacity=".381"/>
    </linearGradient>
    <linearGradient id="nbb-bg-e-b" x1="50.007%" x2="50.007%" y1="-141.4%" y2="-47.015%">
      <stop offset="0%" stop-color="#2A6CBE"/>
      <stop offset="38.688%" stop-color="#2062BC"/>
      <stop offset="49.182%" stop-color="#1F5FBC"/>
      <stop offset="66.583%" stop-color="#1C5ABD"/>
      <stop offset="85.354%" stop-color="#1956BC"/>
      <stop offset="100%" stop-color="#1851BE"/>
    </linearGradient>
    <linearGradient id="nbb-bg-e-c" x1="9.653%" x2="100%" y1="0%" y2="0%">
      <stop offset="0%" stop-color="#BCC4CF" stop-opacity="0"/>
      <stop offset="100%" stop-color="#8792A2"/>
    </linearGradient>
    <linearGradient id="nbb-bg-e-d" x1="8.29%" x2="92.118%" y1="0%" y2="0%">
      <stop offset="0%" stop-color="#BCC4CF" stop-opacity="0"/>
      <stop offset="100%" stop-color="#8792A2"/>
    </linearGradient>
    <linearGradient id="nbb-bg-e-e" x1="90.027%" x2="0%" y1="0%" y2="0%">
      <stop offset="0%" stop-color="#BCC4CF" stop-opacity="0"/>
      <stop offset="100%" stop-color="#8792A2"/>
    </linearGradient>
  </defs>
  <g fill="none" fill-rule="evenodd" transform="translate(-46)">
    <path fill="url(#nbb-bg-e-a)" d="M272.030651,484.67433 C276.262718,484.67433 279.693487,488.105098 279.693487,492.337165 C279.693487,496.569232 276.262718,500 272.030651,500 C267.798584,500 264.367816,496.569232 264.367816,492.337165 C264.367816,488.105098 267.798584,484.67433 272.030651,484.67433 Z M316.091954,484.67433 C320.324021,484.67433 323.754789,488.105098 323.754789,492.337165 C323.754789,496.569232 320.324021,500 316.091954,500 C311.859887,500 308.429119,496.569232 308.429119,492.337165 C308.429119,488.105098 311.859887,484.67433 316.091954,484.67433 Z M360.153257,484.67433 C364.385324,484.67433 367.816092,488.105098 367.816092,492.337165 C367.816092,496.569232 364.385324,500 360.153257,500 C355.92119,500 352.490421,496.569232 352.490421,492.337165 C352.490421,488.105098 355.92119,484.67433 360.153257,484.67433 Z M404.214559,484.67433 C408.446626,484.67433 411.877395,488.105098 411.877395,492.337165 C411.877395,496.569232 408.446626,500 404.214559,500 C399.982492,500 396.551724,496.569232 396.551724,492.337165 C396.551724,488.105098 399.982492,484.67433 404.214559,484.67433 Z M448.275862,484.67433 C452.507929,484.67433 455.938697,488.105098 455.938697,492.337165 C455.938697,496.569232 452.507929,500 448.275862,500 C444.043795,500 440.613027,496.569232 440.613027,492.337165 C440.613027,488.105098 444.043795,484.67433 448.275862,484.67433 Z M492.337165,484.67433 C496.569232,484.67433 500,488.105098 500,492.337165 C500,496.569232 496.569232,500 492.337165,500 C488.105098,500 484.67433,496.569232 484.67433,492.337165 C484.67433,488.105098 488.105098,484.67433 492.337165,484.67433 Z M7.66283525,484.67433 C11.8949023,484.67433 15.3256705,488.105098 15.3256705,492.337165 C15.3256705,496.569232 11.8949023,500 7.66283525,500 C3.4307682,500 -1.28785871e-13,496.569232 -1.28785871e-13,492.337165 C-1.28785871e-13,488.105098 3.4307682,484.67433 7.66283525,484.67433 Z M51.7241379,484.67433 C55.956205,484.67433 59.3869732,488.105098 59.3869732,492.337165 C59.3869732,496.569232 55.956205,500 51.7241379,500 C47.4920709,500 44.0613027,496.569232 44.0613027,492.337165 C44.0613027,488.105098 47.4920709,484.67433 51.7241379,484.67433 Z M95.7854406,484.67433 C100.017508,484.67433 103.448276,488.105098 103.448276,492.337165 C103.448276,496.569232 100.017508,500 95.7854406,500 C91.5533736,500 88.1226054,496.569232 88.1226054,492.337165 C88.1226054,488.105098 91.5533736,484.67433 95.7854406,484.67433 Z M139.846743,484.67433 C144.07881,484.67433 147.509579,488.105098 147.509579,492.337165 C147.509579,496.569232 144.07881,500 139.846743,500 C135.614676,500 132.183908,496.569232 132.183908,492.337165 C132.183908,488.105098 135.614676,484.67433 139.846743,484.67433 Z M183.908046,484.67433 C188.140113,484.67433 191.570881,488.105098 191.570881,492.337165 C191.570881,496.569232 188.140113,500 183.908046,500 C179.675979,500 176.245211,496.569232 176.245211,492.337165 C176.245211,488.105098 179.675979,484.67433 183.908046,484.67433 Z M227.969349,484.67433 C232.201416,484.67433 235.632184,488.105098 235.632184,492.337165 C235.632184,496.569232 232.201416,500 227.969349,500 C223.737282,500 220.306513,496.569232 220.306513,492.337165 C220.306513,488.105098 223.737282,484.67433 227.969349,484.67433 Z M7.66283525,440.613027 C11.8949023,440.613027 15.3256705,444.043795 15.3256705,448.275862 C15.3256705,452.507929 11.8949023,455.938697 7.66283525,455.938697 C3.4307682,455.938697 -1.28785871e-13,452.507929 -1.28785871e-13,448.275862 C-1.28785871e-13,444.043795 3.4307682,440.613027 7.66283525,440.613027 Z M51.7241379,440.613027 C55.956205,440.613027 59.3869732,444.043795 59.3869732,448.275862 C59.3869732,452.507929 55.956205,455.938697 51.7241379,455.938697 C47.4920709,455.938697 44.0613027,452.507929 44.0613027,448.275862 C44.0613027,444.043795 47.4920709,440.613027 51.7241379,440.613027 Z M95.7854406,440.613027 C100.017508,440.613027 103.448276,444.043795 103.448276,448.275862 C103.448276,452.507929 100.017508,455.938697 95.7854406,455.938697 C91.5533736,455.938697 88.1226054,452.507929 88.1226054,448.275862 C88.1226054,444.043795 91.5533736,440.613027 95.7854406,440.613027 Z M404.214559,440.613027 C408.446626,440.613027 411.877395,444.043795 411.877395,448.275862 C411.877395,452.507929 408.446626,455.938697 404.214559,455.938697 C399.982492,455.938697 396.551724,452.507929 396.551724,448.275862 C396.551724,444.043795 399.982492,440.613027 404.214559,440.613027 Z M448.275862,440.613027 C452.507929,440.613027 455.938697,444.043795 455.938697,448.275862 C455.938697,452.507929 452.507929,455.938697 448.275862,455.938697 C444.043795,455.938697 440.613027,452.507929 440.613027,448.275862 C440.613027,444.043795 444.043795,440.613027 448.275862,440.613027 Z M492.337165,440.613027 C496.569232,440.613027 500,444.043795 500,448.275862 C500,452.507929 496.569232,455.938697 492.337165,455.938697 C488.105098,455.938697 484.67433,452.507929 484.67433,448.275862 C484.67433,444.043795 488.105098,440.613027 492.337165,440.613027 Z M139.846743,440.613027 C144.07881,440.613027 147.509579,444.043795 147.509579,448.275862 C147.509579,452.507929 144.07881,455.938697 139.846743,455.938697 C135.614676,455.938697 132.183908,452.507929 132.183908,448.275862 C132.183908,444.043795 135.614676,440.613027 139.846743,440.613027 Z M183.908046,440.613027 C188.140113,440.613027 191.570881,444.043795 191.570881,448.275862 C191.570881,452.507929 188.140113,455.938697 183.908046,455.938697 C179.675979,455.938697 176.245211,452.507929 176.245211,448.275862 C176.245211,444.043795 179.675979,440.613027 183.908046,440.613027 Z M227.969349,440.613027 C232.201416,440.613027 235.632184,444.043795 235.632184,448.275862 C235.632184,452.507929 232.201416,455.938697 227.969349,455.938697 C223.737282,455.938697 220.306513,452.507929 220.306513,448.275862 C220.306513,444.043795 223.737282,440.613027 227.969349,440.613027 Z M272.030651,440.613027 C276.262718,440.613027 279.693487,444.043795 279.693487,448.275862 C279.693487,452.507929 276.262718,455.938697 272.030651,455.938697 C267.798584,455.938697 264.367816,452.507929 264.367816,448.275862 C264.367816,444.043795 267.798584,440.613027 272.030651,440.613027 Z M316.091954,440.613027 C320.324021,440.613027 323.754789,444.043795 323.754789,448.275862 C323.754789,452.507929 320.324021,455.938697 316.091954,455.938697 C311.859887,455.938697 308.429119,452.507929 308.429119,448.275862 C308.429119,444.043795 311.859887,440.613027 316.091954,440.613027 Z M360.153257,440.613027 C364.385324,440.613027 367.816092,444.043795 367.816092,448.275862 C367.816092,452.507929 364.385324,455.938697 360.153257,455.938697 C355.92119,455.938697 352.490421,452.507929 352.490421,448.275862 C352.490421,444.043795 355.92119,440.613027 360.153257,440.613027 Z M404.214559,396.551724 C408.446626,396.551724 411.877395,399.982492 411.877395,404.214559 C411.877395,408.446626 408.446626,411.877395 404.214559,411.877395 C399.982492,411.877395 396.551724,408.446626 396.551724,404.214559 C396.551724,399.982492 399.982492,396.551724 404.214559,396.551724 Z M316.091954,396.551724 C320.324021,396.551724 323.754789,399.982492 323.754789,404.214559 C323.754789,408.446626 320.324021,411.877395 316.091954,411.877395 C311.859887,411.877395 308.429119,408.446626 308.429119,404.214559 C308.429119,399.982492 311.859887,396.551724 316.091954,396.551724 Z M448.275862,396.551724 C452.507929,396.551724 455.938697,399.982492 455.938697,404.214559 C455.938697,408.446626 452.507929,411.877395 448.275862,411.877395 C444.043795,411.877395 440.613027,408.446626 440.613027,404.214559 C440.613027,399.982492 444.043795,396.551724 448.275862,396.551724 Z M139.846743,396.551724 C144.07881,396.551724 147.509579,399.982492 147.509579,404.214559 C147.509579,408.446626 144.07881,411.877395 139.846743,411.877395 C135.614676,411.877395 132.183908,408.446626 132.183908,404.214559 C132.183908,399.982492 135.614676,396.551724 139.846743,396.551724 Z M7.66283525,396.551724 C11.8949023,396.551724 15.3256705,399.982492 15.3256705,404.214559 C15.3256705,408.446626 11.8949023,411.877395 7.66283525,411.877395 C3.4307682,411.877395 -1.28785871e-13,408.446626 -1.28785871e-13,404.214559 C-1.28785871e-13,399.982492 3.4307682,396.551724 7.66283525,396.551724 Z M183.908046,396.551724 C188.140113,396.551724 191.570881,399.982492 191.570881,404.214559 C191.570881,408.446626 188.140113,411.877395 183.908046,411.877395 C179.675979,411.877395 176.245211,408.446626 176.245211,404.214559 C176.245211,399.982492 179.675979,396.551724 183.908046,396.551724 Z M360.153257,396.551724 C364.385324,396.551724 367.816092,399.982492 367.816092,404.214559 C367.816092,408.446626 364.385324,411.877395 360.153257,411.877395 C355.92119,411.877395 352.490421,408.446626 352.490421,404.214559 C352.490421,399.982492 355.92119,396.551724 360.153257,396.551724 Z M51.7241379,396.551724 C55.956205,396.551724 59.3869732,399.982492 59.3869732,404.214559 C59.3869732,408.446626 55.956205,411.877395 51.7241379,411.877395 C47.4920709,411.877395 44.0613027,408.446626 44.0613027,404.214559 C44.0613027,399.982492 47.4920709,396.551724 51.7241379,396.551724 Z M227.969349,396.551724 C232.201416,396.551724 235.632184,399.982492 235.632184,404.214559 C235.632184,408.446626 232.201416,411.877395 227.969349,411.877395 C223.737282,411.877395 220.306513,408.446626 220.306513,404.214559 C220.306513,399.982492 223.737282,396.551724 227.969349,396.551724 Z M272.030651,396.551724 C276.262718,396.551724 279.693487,399.982492 279.693487,404.214559 C279.693487,408.446626 276.262718,411.877395 272.030651,411.877395 C267.798584,411.877395 264.367816,408.446626 264.367816,404.214559 C264.367816,399.982492 267.798584,396.551724 272.030651,396.551724 Z M492.337165,396.551724 C496.569232,396.551724 500,399.982492 500,404.214559 C500,408.446626 496.569232,411.877395 492.337165,411.877395 C488.105098,411.877395 484.67433,408.446626 484.67433,404.214559 C484.67433,399.982492 488.105098,396.551724 492.337165,396.551724 Z M95.7854406,396.551724 C100.017508,396.551724 103.448276,399.982492 103.448276,404.214559 C103.448276,408.446626 100.017508,411.877395 95.7854406,411.877395 C91.5533736,411.877395 88.1226054,408.446626 88.1226054,404.214559 C88.1226054,399.982492 91.5533736,396.551724 95.7854406,396.551724 Z M51.7241379,352.490421 C55.956205,352.490421 59.3869732,355.92119 59.3869732,360.153257 C59.3869732,364.385324 55.956205,367.816092 51.7241379,367.816092 C47.4920709,367.816092 44.0613027,364.385324 44.0613027,360.153257 C44.0613027,355.92119 47.4920709,352.490421 51.7241379,352.490421 Z M139.846743,352.490421 C144.07881,352.490421 147.509579,355.92119 147.509579,360.153257 C147.509579,364.385324 144.07881,367.816092 139.846743,367.816092 C135.614676,367.816092 132.183908,364.385324 132.183908,360.153257 C132.183908,355.92119 135.614676,352.490421 139.846743,352.490421 Z M227.969349,352.490421 C232.201416,352.490421 235.632184,355.92119 235.632184,360.153257 C235.632184,364.385324 232.201416,367.816092 227.969349,367.816092 C223.737282,367.816092 220.306513,364.385324 220.306513,360.153257 C220.306513,355.92119 223.737282,352.490421 227.969349,352.490421 Z M404.214559,352.490421 C408.446626,352.490421 411.877395,355.92119 411.877395,360.153257 C411.877395,364.385324 408.446626,367.816092 404.214559,367.816092 C399.982492,367.816092 396.551724,364.385324 396.551724,360.153257 C396.551724,355.92119 399.982492,352.490421 404.214559,352.490421 Z M272.030651,352.490421 C276.262718,352.490421 279.693487,355.92119 279.693487,360.153257 C279.693487,364.385324 276.262718,367.816092 272.030651,367.816092 C267.798584,367.816092 264.367816,364.385324 264.367816,360.153257 C264.367816,355.92119 267.798584,352.490421 272.030651,352.490421 Z M360.153257,352.490421 C364.385324,352.490421 367.816092,355.92119 367.816092,360.153257 C367.816092,364.385324 364.385324,367.816092 360.153257,367.816092 C355.92119,367.816092 352.490421,364.385324 352.490421,360.153257 C352.490421,355.92119 355.92119,352.490421 360.153257,352.490421 Z M7.66283525,352.490421 C11.8949023,352.490421 15.3256705,355.92119 15.3256705,360.153257 C15.3256705,364.385324 11.8949023,367.816092 7.66283525,367.816092 C3.4307682,367.816092 -1.28785871e-13,364.385324 -1.28785871e-13,360.153257 C-1.28785871e-13,355.92119 3.4307682,352.490421 7.66283525,352.490421 Z M95.7854406,352.490421 C100.017508,352.490421 103.448276,355.92119 103.448276,360.153257 C103.448276,364.385324 100.017508,367.816092 95.7854406,367.816092 C91.5533736,367.816092 88.1226054,364.385324 88.1226054,360.153257 C88.1226054,355.92119 91.5533736,352.490421 95.7854406,352.490421 Z M492.337165,352.490421 C496.569232,352.490421 500,355.92119 500,360.153257 C500,364.385324 496.569232,367.816092 492.337165,367.816092 C488.105098,367.816092 484.67433,364.385324 484.67433,360.153257 C484.67433,355.92119 488.105098,352.490421 492.337165,352.490421 Z M316.091954,352.490421 C320.324021,352.490421 323.754789,355.92119 323.754789,360.153257 C323.754789,364.385324 320.324021,367.816092 316.091954,367.816092 C311.859887,367.816092 308.429119,364.385324 308.429119,360.153257 C308.429119,355.92119 311.859887,352.490421 316.091954,352.490421 Z M183.908046,352.490421 C188.140113,352.490421 191.570881,355.92119 191.570881,360.153257 C191.570881,364.385324 188.140113,367.816092 183.908046,367.816092 C179.675979,367.816092 176.245211,364.385324 176.245211,360.153257 C176.245211,355.92119 179.675979,352.490421 183.908046,352.490421 Z M448.275862,352.490421 C452.507929,352.490421 455.938697,355.92119 455.938697,360.153257 C455.938697,364.385324 452.507929,367.816092 448.275862,367.816092 C444.043795,367.816092 440.613027,364.385324 440.613027,360.153257 C440.613027,355.92119 444.043795,352.490421 448.275862,352.490421 Z M492.337165,308.429119 C496.569232,308.429119 500,311.859887 500,316.091954 C500,320.324021 496.569232,323.754789 492.337165,323.754789 C488.105098,323.754789 484.67433,320.324021 484.67433,316.091954 C484.67433,311.859887 488.105098,308.429119 492.337165,308.429119 Z M360.153257,308.429119 C364.385324,308.429119 367.816092,311.859887 367.816092,316.091954 C367.816092,320.324021 364.385324,323.754789 360.153257,323.754789 C355.92119,323.754789 352.490421,320.324021 352.490421,316.091954 C352.490421,311.859887 355.92119,308.429119 360.153257,308.429119 Z M139.846743,308.429119 C144.07881,308.429119 147.509579,311.859887 147.509579,316.091954 C147.509579,320.324021 144.07881,323.754789 139.846743,323.754789 C135.614676,323.754789 132.183908,320.324021 132.183908,316.091954 C132.183908,311.859887 135.614676,308.429119 139.846743,308.429119 Z M448.275862,308.429119 C452.507929,308.429119 455.938697,311.859887 455.938697,316.091954 C455.938697,320.324021 452.507929,323.754789 448.275862,323.754789 C444.043795,323.754789 440.613027,320.324021 440.613027,316.091954 C440.613027,311.859887 444.043795,308.429119 448.275862,308.429119 Z M316.091954,308.429119 C320.324021,308.429119 323.754789,311.859887 323.754789,316.091954 C323.754789,320.324021 320.324021,323.754789 316.091954,323.754789 C311.859887,323.754789 308.429119,320.324021 308.429119,316.091954 C308.429119,311.859887 311.859887,308.429119 316.091954,308.429119 Z M51.7241379,308.429119 C55.956205,308.429119 59.3869732,311.859887 59.3869732,316.091954 C59.3869732,320.324021 55.956205,323.754789 51.7241379,323.754789 C47.4920709,323.754789 44.0613027,320.324021 44.0613027,316.091954 C44.0613027,311.859887 47.4920709,308.429119 51.7241379,308.429119 Z M7.66283525,308.429119 C11.8949023,308.429119 15.3256705,311.859887 15.3256705,316.091954 C15.3256705,320.324021 11.8949023,323.754789 7.66283525,323.754789 C3.4307682,323.754789 -1.28785871e-13,320.324021 -1.28785871e-13,316.091954 C-1.28785871e-13,311.859887 3.4307682,308.429119 7.66283525,308.429119 Z M404.214559,308.429119 C408.446626,308.429119 411.877395,311.859887 411.877395,316.091954 C411.877395,320.324021 408.446626,323.754789 404.214559,323.754789 C399.982492,323.754789 396.551724,320.324021 396.551724,316.091954 C396.551724,311.859887 399.982492,308.429119 404.214559,308.429119 Z M272.030651,308.429119 C276.262718,308.429119 279.693487,311.859887 279.693487,316.091954 C279.693487,320.324021 276.262718,323.754789 272.030651,323.754789 C267.798584,323.754789 264.367816,320.324021 264.367816,316.091954 C264.367816,311.859887 267.798584,308.429119 272.030651,308.429119 Z M183.908046,308.429119 C188.140113,308.429119 191.570881,311.859887 191.570881,316.091954 C191.570881,320.324021 188.140113,323.754789 183.908046,323.754789 C179.675979,323.754789 176.245211,320.324021 176.245211,316.091954 C176.245211,311.859887 179.675979,308.429119 183.908046,308.429119 Z M227.969349,308.429119 C232.201416,308.429119 235.632184,311.859887 235.632184,316.091954 C235.632184,320.324021 232.201416,323.754789 227.969349,323.754789 C223.737282,323.754789 220.306513,320.324021 220.306513,316.091954 C220.306513,311.859887 223.737282,308.429119 227.969349,308.429119 Z M95.7854406,308.429119 C100.017508,308.429119 103.448276,311.859887 103.448276,316.091954 C103.448276,320.324021 100.017508,323.754789 95.7854406,323.754789 C91.5533736,323.754789 88.1226054,320.324021 88.1226054,316.091954 C88.1226054,311.859887 91.5533736,308.429119 95.7854406,308.429119 Z M7.66283525,264.367816 C11.8949023,264.367816 15.3256705,267.798584 15.3256705,272.030651 C15.3256705,276.262718 11.8949023,279.693487 7.66283525,279.693487 C3.4307682,279.693487 -1.28785871e-13,276.262718 -1.28785871e-13,272.030651 C-1.28785871e-13,267.798584 3.4307682,264.367816 7.66283525,264.367816 Z M51.7241379,264.367816 C55.956205,264.367816 59.3869732,267.798584 59.3869732,272.030651 C59.3869732,276.262718 55.956205,279.693487 51.7241379,279.693487 C47.4920709,279.693487 44.0613027,276.262718 44.0613027,272.030651 C44.0613027,267.798584 47.4920709,264.367816 51.7241379,264.367816 Z M95.7854406,264.367816 C100.017508,264.367816 103.448276,267.798584 103.448276,272.030651 C103.448276,276.262718 100.017508,279.693487 95.7854406,279.693487 C91.5533736,279.693487 88.1226054,276.262718 88.1226054,272.030651 C88.1226054,267.798584 91.5533736,264.367816 95.7854406,264.367816 Z M448.275862,264.367816 C452.507929,264.367816 455.938697,267.798584 455.938697,272.030651 C455.938697,276.262718 452.507929,279.693487 448.275862,279.693487 C444.043795,279.693487 440.613027,276.262718 440.613027,272.030651 C440.613027,267.798584 444.043795,264.367816 448.275862,264.367816 Z M492.337165,264.367816 C496.569232,264.367816 500,267.798584 500,272.030651 C500,276.262718 496.569232,279.693487 492.337165,279.693487 C488.105098,279.693487 484.67433,276.262718 484.67433,272.030651 C484.67433,267.798584 488.105098,264.367816 492.337165,264.367816 Z M360.153257,264.367816 C364.385324,264.367816 367.816092,267.798584 367.816092,272.030651 C367.816092,276.262718 364.385324,279.693487 360.153257,279.693487 C355.92119,279.693487 352.490421,276.262718 352.490421,272.030651 C352.490421,267.798584 355.92119,264.367816 360.153257,264.367816 Z M404.214559,264.367816 C408.446626,264.367816 411.877395,267.798584 411.877395,272.030651 C411.877395,276.262718 408.446626,279.693487 404.214559,279.693487 C399.982492,279.693487 396.551724,276.262718 396.551724,272.030651 C396.551724,267.798584 399.982492,264.367816 404.214559,264.367816 Z M316.091954,264.367816 C320.324021,264.367816 323.754789,267.798584 323.754789,272.030651 C323.754789,276.262718 320.324021,279.693487 316.091954,279.693487 C311.859887,279.693487 308.429119,276.262718 308.429119,272.030651 C308.429119,267.798584 311.859887,264.367816 316.091954,264.367816 Z M183.908046,264.367816 C188.140113,264.367816 191.570881,267.798584 191.570881,272.030651 C191.570881,276.262718 188.140113,279.693487 183.908046,279.693487 C179.675979,279.693487 176.245211,276.262718 176.245211,272.030651 C176.245211,267.798584 179.675979,264.367816 183.908046,264.367816 Z M272.030651,264.367816 C276.262718,264.367816 279.693487,267.798584 279.693487,272.030651 C279.693487,276.262718 276.262718,279.693487 272.030651,279.693487 C267.798584,279.693487 264.367816,276.262718 264.367816,272.030651 C264.367816,267.798584 267.798584,264.367816 272.030651,264.367816 Z M139.846743,264.367816 C144.07881,264.367816 147.509579,267.798584 147.509579,272.030651 C147.509579,276.262718 144.07881,279.693487 139.846743,279.693487 C135.614676,279.693487 132.183908,276.262718 132.183908,272.030651 C132.183908,267.798584 135.614676,264.367816 139.846743,264.367816 Z M227.969349,264.367816 C232.201416,264.367816 235.632184,267.798584 235.632184,272.030651 C235.632184,276.262718 232.201416,279.693487 227.969349,279.693487 C223.737282,279.693487 220.306513,276.262718 220.306513,272.030651 C220.306513,267.798584 223.737282,264.367816 227.969349,264.367816 Z M272.030651,220.306513 C276.262718,220.306513 279.693487,223.737282 279.693487,227.969349 C279.693487,232.201416 276.262718,235.632184 272.030651,235.632184 C267.798584,235.632184 264.367816,232.201416 264.367816,227.969349 C264.367816,223.737282 267.798584,220.306513 272.030651,220.306513 Z M95.7854406,220.306513 C100.017508,220.306513 103.448276,223.737282 103.448276,227.969349 C103.448276,232.201416 100.017508,235.632184 95.7854406,235.632184 C91.5533736,235.632184 88.1226054,232.201416 88.1226054,227.969349 C88.1226054,223.737282 91.5533736,220.306513 95.7854406,220.306513 Z M227.969349,220.306513 C232.201416,220.306513 235.632184,223.737282 235.632184,227.969349 C235.632184,232.201416 232.201416,235.632184 227.969349,235.632184 C223.737282,235.632184 220.306513,232.201416 220.306513,227.969349 C220.306513,223.737282 223.737282,220.306513 227.969349,220.306513 Z M492.337165,220.306513 C496.569232,220.306513 500,223.737282 500,227.969349 C500,232.201416 496.569232,235.632184 492.337165,235.632184 C488.105098,235.632184 484.67433,232.201416 484.67433,227.969349 C484.67433,223.737282 488.105098,220.306513 492.337165,220.306513 Z M51.7241379,220.306513 C55.956205,220.306513 59.3869732,223.737282 59.3869732,227.969349 C59.3869732,232.201416 55.956205,235.632184 51.7241379,235.632184 C47.4920709,235.632184 44.0613027,232.201416 44.0613027,227.969349 C44.0613027,223.737282 47.4920709,220.306513 51.7241379,220.306513 Z M7.66283525,220.306513 C11.8949023,220.306513 15.3256705,223.737282 15.3256705,227.969349 C15.3256705,232.201416 11.8949023,235.632184 7.66283525,235.632184 C3.4307682,235.632184 -1.28785871e-13,232.201416 -1.28785871e-13,227.969349 C-1.28785871e-13,223.737282 3.4307682,220.306513 7.66283525,220.306513 Z M139.846743,220.306513 C144.07881,220.306513 147.509579,223.737282 147.509579,227.969349 C147.509579,232.201416 144.07881,235.632184 139.846743,235.632184 C135.614676,235.632184 132.183908,232.201416 132.183908,227.969349 C132.183908,223.737282 135.614676,220.306513 139.846743,220.306513 Z M316.091954,220.306513 C320.324021,220.306513 323.754789,223.737282 323.754789,227.969349 C323.754789,232.201416 320.324021,235.632184 316.091954,235.632184 C311.859887,235.632184 308.429119,232.201416 308.429119,227.969349 C308.429119,223.737282 311.859887,220.306513 316.091954,220.306513 Z M183.908046,220.306513 C188.140113,220.306513 191.570881,223.737282 191.570881,227.969349 C191.570881,232.201416 188.140113,235.632184 183.908046,235.632184 C179.675979,235.632184 176.245211,232.201416 176.245211,227.969349 C176.245211,223.737282 179.675979,220.306513 183.908046,220.306513 Z M404.214559,220.306513 C408.446626,220.306513 411.877395,223.737282 411.877395,227.969349 C411.877395,232.201416 408.446626,235.632184 404.214559,235.632184 C399.982492,235.632184 396.551724,232.201416 396.551724,227.969349 C396.551724,223.737282 399.982492,220.306513 404.214559,220.306513 Z M448.275862,220.306513 C452.507929,220.306513 455.938697,223.737282 455.938697,227.969349 C455.938697,232.201416 452.507929,235.632184 448.275862,235.632184 C444.043795,235.632184 440.613027,232.201416 440.613027,227.969349 C440.613027,223.737282 444.043795,220.306513 448.275862,220.306513 Z M360.153257,220.306513 C364.385324,220.306513 367.816092,223.737282 367.816092,227.969349 C367.816092,232.201416 364.385324,235.632184 360.153257,235.632184 C355.92119,235.632184 352.490421,232.201416 352.490421,227.969349 C352.490421,223.737282 355.92119,220.306513 360.153257,220.306513 Z M183.908046,176.245211 C188.140113,176.245211 191.570881,179.675979 191.570881,183.908046 C191.570881,188.140113 188.140113,191.570881 183.908046,191.570881 C179.675979,191.570881 176.245211,188.140113 176.245211,183.908046 C176.245211,179.675979 179.675979,176.245211 183.908046,176.245211 Z M404.214559,176.245211 C408.446626,176.245211 411.877395,179.675979 411.877395,183.908046 C411.877395,188.140113 408.446626,191.570881 404.214559,191.570881 C399.982492,191.570881 396.551724,188.140113 396.551724,183.908046 C396.551724,179.675979 399.982492,176.245211 404.214559,176.245211 Z M448.275862,176.245211 C452.507929,176.245211 455.938697,179.675979 455.938697,183.908046 C455.938697,188.140113 452.507929,191.570881 448.275862,191.570881 C444.043795,191.570881 440.613027,188.140113 440.613027,183.908046 C440.613027,179.675979 444.043795,176.245211 448.275862,176.245211 Z M227.969349,176.245211 C232.201416,176.245211 235.632184,179.675979 235.632184,183.908046 C235.632184,188.140113 232.201416,191.570881 227.969349,191.570881 C223.737282,191.570881 220.306513,188.140113 220.306513,183.908046 C220.306513,179.675979 223.737282,176.245211 227.969349,176.245211 Z M7.66283525,176.245211 C11.8949023,176.245211 15.3256705,179.675979 15.3256705,183.908046 C15.3256705,188.140113 11.8949023,191.570881 7.66283525,191.570881 C3.4307682,191.570881 -1.28785871e-13,188.140113 -1.28785871e-13,183.908046 C-1.28785871e-13,179.675979 3.4307682,176.245211 7.66283525,176.245211 Z M492.337165,176.245211 C496.569232,176.245211 500,179.675979 500,183.908046 C500,188.140113 496.569232,191.570881 492.337165,191.570881 C488.105098,191.570881 484.67433,188.140113 484.67433,183.908046 C484.67433,179.675979 488.105098,176.245211 492.337165,176.245211 Z M139.846743,176.245211 C144.07881,176.245211 147.509579,179.675979 147.509579,183.908046 C147.509579,188.140113 144.07881,191.570881 139.846743,191.570881 C135.614676,191.570881 132.183908,188.140113 132.183908,183.908046 C132.183908,179.675979 135.614676,176.245211 139.846743,176.245211 Z M51.7241379,176.245211 C55.956205,176.245211 59.3869732,179.675979 59.3869732,183.908046 C59.3869732,188.140113 55.956205,191.570881 51.7241379,191.570881 C47.4920709,191.570881 44.0613027,188.140113 44.0613027,183.908046 C44.0613027,179.675979 47.4920709,176.245211 51.7241379,176.245211 Z M360.153257,176.245211 C364.385324,176.245211 367.816092,179.675979 367.816092,183.908046 C367.816092,188.140113 364.385324,191.570881 360.153257,191.570881 C355.92119,191.570881 352.490421,188.140113 352.490421,183.908046 C352.490421,179.675979 355.92119,176.245211 360.153257,176.245211 Z M272.030651,176.245211 C276.262718,176.245211 279.693487,179.675979 279.693487,183.908046 C279.693487,188.140113 276.262718,191.570881 272.030651,191.570881 C267.798584,191.570881 264.367816,188.140113 264.367816,183.908046 C264.367816,179.675979 267.798584,176.245211 272.030651,176.245211 Z M95.7854406,176.245211 C100.017508,176.245211 103.448276,179.675979 103.448276,183.908046 C103.448276,188.140113 100.017508,191.570881 95.7854406,191.570881 C91.5533736,191.570881 88.1226054,188.140113 88.1226054,183.908046 C88.1226054,179.675979 91.5533736,176.245211 95.7854406,176.245211 Z M316.091954,176.245211 C320.324021,176.245211 323.754789,179.675979 323.754789,183.908046 C323.754789,188.140113 320.324021,191.570881 316.091954,191.570881 C311.859887,191.570881 308.429119,188.140113 308.429119,183.908046 C308.429119,179.675979 311.859887,176.245211 316.091954,176.245211 Z M272.030651,132.183908 C276.262718,132.183908 279.693487,135.614676 279.693487,139.846743 C279.693487,144.07881 276.262718,147.509579 272.030651,147.509579 C267.798584,147.509579 264.367816,144.07881 264.367816,139.846743 C264.367816,135.614676 267.798584,132.183908 272.030651,132.183908 Z M95.7854406,132.183908 C100.017508,132.183908 103.448276,135.614676 103.448276,139.846743 C103.448276,144.07881 100.017508,147.509579 95.7854406,147.509579 C91.5533736,147.509579 88.1226054,144.07881 88.1226054,139.846743 C88.1226054,135.614676 91.5533736,132.183908 95.7854406,132.183908 Z M183.908046,132.183908 C188.140113,132.183908 191.570881,135.614676 191.570881,139.846743 C191.570881,144.07881 188.140113,147.509579 183.908046,147.509579 C179.675979,147.509579 176.245211,144.07881 176.245211,139.846743 C176.245211,135.614676 179.675979,132.183908 183.908046,132.183908 Z M51.7241379,132.183908 C55.956205,132.183908 59.3869732,135.614676 59.3869732,139.846743 C59.3869732,144.07881 55.956205,147.509579 51.7241379,147.509579 C47.4920709,147.509579 44.0613027,144.07881 44.0613027,139.846743 C44.0613027,135.614676 47.4920709,132.183908 51.7241379,132.183908 Z M227.969349,132.183908 C232.201416,132.183908 235.632184,135.614676 235.632184,139.846743 C235.632184,144.07881 232.201416,147.509579 227.969349,147.509579 C223.737282,147.509579 220.306513,144.07881 220.306513,139.846743 C220.306513,135.614676 223.737282,132.183908 227.969349,132.183908 Z M492.337165,132.183908 C496.569232,132.183908 500,135.614676 500,139.846743 C500,144.07881 496.569232,147.509579 492.337165,147.509579 C488.105098,147.509579 484.67433,144.07881 484.67433,139.846743 C484.67433,135.614676 488.105098,132.183908 492.337165,132.183908 Z M448.275862,132.183908 C452.507929,132.183908 455.938697,135.614676 455.938697,139.846743 C455.938697,144.07881 452.507929,147.509579 448.275862,147.509579 C444.043795,147.509579 440.613027,144.07881 440.613027,139.846743 C440.613027,135.614676 444.043795,132.183908 448.275862,132.183908 Z M7.66283525,132.183908 C11.8949023,132.183908 15.3256705,135.614676 15.3256705,139.846743 C15.3256705,144.07881 11.8949023,147.509579 7.66283525,147.509579 C3.4307682,147.509579 -1.28785871e-13,144.07881 -1.28785871e-13,139.846743 C-1.28785871e-13,135.614676 3.4307682,132.183908 7.66283525,132.183908 Z M360.153257,132.183908 C364.385324,132.183908 367.816092,135.614676 367.816092,139.846743 C367.816092,144.07881 364.385324,147.509579 360.153257,147.509579 C355.92119,147.509579 352.490421,144.07881 352.490421,139.846743 C352.490421,135.614676 355.92119,132.183908 360.153257,132.183908 Z M316.091954,132.183908 C320.324021,132.183908 323.754789,135.614676 323.754789,139.846743 C323.754789,144.07881 320.324021,147.509579 316.091954,147.509579 C311.859887,147.509579 308.429119,144.07881 308.429119,139.846743 C308.429119,135.614676 311.859887,132.183908 316.091954,132.183908 Z M139.846743,132.183908 C144.07881,132.183908 147.509579,135.614676 147.509579,139.846743 C147.509579,144.07881 144.07881,147.509579 139.846743,147.509579 C135.614676,147.509579 132.183908,144.07881 132.183908,139.846743 C132.183908,135.614676 135.614676,132.183908 139.846743,132.183908 Z M404.214559,132.183908 C408.446626,132.183908 411.877395,135.614676 411.877395,139.846743 C411.877395,144.07881 408.446626,147.509579 404.214559,147.509579 C399.982492,147.509579 396.551724,144.07881 396.551724,139.846743 C396.551724,135.614676 399.982492,132.183908 404.214559,132.183908 Z M183.908046,88.1226054 C188.140113,88.1226054 191.570881,91.5533736 191.570881,95.7854406 C191.570881,100.017508 188.140113,103.448276 183.908046,103.448276 C179.675979,103.448276 176.245211,100.017508 176.245211,95.7854406 C176.245211,91.5533736 179.675979,88.1226054 183.908046,88.1226054 Z M7.66283525,88.1226054 C11.8949023,88.1226054 15.3256705,91.5533736 15.3256705,95.7854406 C15.3256705,100.017508 11.8949023,103.448276 7.66283525,103.448276 C3.4307682,103.448276 -1.28785871e-13,100.017508 -1.28785871e-13,95.7854406 C-1.28785871e-13,91.5533736 3.4307682,88.1226054 7.66283525,88.1226054 Z M492.337165,88.1226054 C496.569232,88.1226054 500,91.5533736 500,95.7854406 C500,100.017508 496.569232,103.448276 492.337165,103.448276 C488.105098,103.448276 484.67433,100.017508 484.67433,95.7854406 C484.67433,91.5533736 488.105098,88.1226054 492.337165,88.1226054 Z M51.7241379,88.1226054 C55.956205,88.1226054 59.3869732,91.5533736 59.3869732,95.7854406 C59.3869732,100.017508 55.956205,103.448276 51.7241379,103.448276 C47.4920709,103.448276 44.0613027,100.017508 44.0613027,95.7854406 C44.0613027,91.5533736 47.4920709,88.1226054 51.7241379,88.1226054 Z M95.7854406,88.1226054 C100.017508,88.1226054 103.448276,91.5533736 103.448276,95.7854406 C103.448276,100.017508 100.017508,103.448276 95.7854406,103.448276 C91.5533736,103.448276 88.1226054,100.017508 88.1226054,95.7854406 C88.1226054,91.5533736 91.5533736,88.1226054 95.7854406,88.1226054 Z M448.275862,88.1226054 C452.507929,88.1226054 455.938697,91.5533736 455.938697,95.7854406 C455.938697,100.017508 452.507929,103.448276 448.275862,103.448276 C444.043795,103.448276 440.613027,100.017508 440.613027,95.7854406 C440.613027,91.5533736 444.043795,88.1226054 448.275862,88.1226054 Z M316.091954,88.1226054 C320.324021,88.1226054 323.754789,91.5533736 323.754789,95.7854406 C323.754789,100.017508 320.324021,103.448276 316.091954,103.448276 C311.859887,103.448276 308.429119,100.017508 308.429119,95.7854406 C308.429119,91.5533736 311.859887,88.1226054 316.091954,88.1226054 Z M139.846743,88.1226054 C144.07881,88.1226054 147.509579,91.5533736 147.509579,95.7854406 C147.509579,100.017508 144.07881,103.448276 139.846743,103.448276 C135.614676,103.448276 132.183908,100.017508 132.183908,95.7854406 C132.183908,91.5533736 135.614676,88.1226054 139.846743,88.1226054 Z M227.969349,88.1226054 C232.201416,88.1226054 235.632184,91.5533736 235.632184,95.7854406 C235.632184,100.017508 232.201416,103.448276 227.969349,103.448276 C223.737282,103.448276 220.306513,100.017508 220.306513,95.7854406 C220.306513,91.5533736 223.737282,88.1226054 227.969349,88.1226054 Z M360.153257,88.1226054 C364.385324,88.1226054 367.816092,91.5533736 367.816092,95.7854406 C367.816092,100.017508 364.385324,103.448276 360.153257,103.448276 C355.92119,103.448276 352.490421,100.017508 352.490421,95.7854406 C352.490421,91.5533736 355.92119,88.1226054 360.153257,88.1226054 Z M404.214559,88.1226054 C408.446626,88.1226054 411.877395,91.5533736 411.877395,95.7854406 C411.877395,100.017508 408.446626,103.448276 404.214559,103.448276 C399.982492,103.448276 396.551724,100.017508 396.551724,95.7854406 C396.551724,91.5533736 399.982492,88.1226054 404.214559,88.1226054 Z M272.030651,88.1226054 C276.262718,88.1226054 279.693487,91.5533736 279.693487,95.7854406 C279.693487,100.017508 276.262718,103.448276 272.030651,103.448276 C267.798584,103.448276 264.367816,100.017508 264.367816,95.7854406 C264.367816,91.5533736 267.798584,88.1226054 272.030651,88.1226054 Z M51.7241379,44.0613027 C55.956205,44.0613027 59.3869732,47.4920709 59.3869732,51.7241379 C59.3869732,55.956205 55.956205,59.3869732 51.7241379,59.3869732 C47.4920709,59.3869732 44.0613027,55.956205 44.0613027,51.7241379 C44.0613027,47.4920709 47.4920709,44.0613027 51.7241379,44.0613027 Z M316.091954,44.0613027 C320.324021,44.0613027 323.754789,47.4920709 323.754789,51.7241379 C323.754789,55.956205 320.324021,59.3869732 316.091954,59.3869732 C311.859887,59.3869732 308.429119,55.956205 308.429119,51.7241379 C308.429119,47.4920709 311.859887,44.0613027 316.091954,44.0613027 Z M492.337165,44.0613027 C496.569232,44.0613027 500,47.4920709 500,51.7241379 C500,55.956205 496.569232,59.3869732 492.337165,59.3869732 C488.105098,59.3869732 484.67433,55.956205 484.67433,51.7241379 C484.67433,47.4920709 488.105098,44.0613027 492.337165,44.0613027 Z M139.846743,44.0613027 C144.07881,44.0613027 147.509579,47.4920709 147.509579,51.7241379 C147.509579,55.956205 144.07881,59.3869732 139.846743,59.3869732 C135.614676,59.3869732 132.183908,55.956205 132.183908,51.7241379 C132.183908,47.4920709 135.614676,44.0613027 139.846743,44.0613027 Z M448.275862,44.0613027 C452.507929,44.0613027 455.938697,47.4920709 455.938697,51.7241379 C455.938697,55.956205 452.507929,59.3869732 448.275862,59.3869732 C444.043795,59.3869732 440.613027,55.956205 440.613027,51.7241379 C440.613027,47.4920709 444.043795,44.0613027 448.275862,44.0613027 Z M95.7854406,44.0613027 C100.017508,44.0613027 103.448276,47.4920709 103.448276,51.7241379 C103.448276,55.956205 100.017508,59.3869732 95.7854406,59.3869732 C91.5533736,59.3869732 88.1226054,55.956205 88.1226054,51.7241379 C88.1226054,47.4920709 91.5533736,44.0613027 95.7854406,44.0613027 Z M360.153257,44.0613027 C364.385324,44.0613027 367.816092,47.4920709 367.816092,51.7241379 C367.816092,55.956205 364.385324,59.3869732 360.153257,59.3869732 C355.92119,59.3869732 352.490421,55.956205 352.490421,51.7241379 C352.490421,47.4920709 355.92119,44.0613027 360.153257,44.0613027 Z M227.969349,44.0613027 C232.201416,44.0613027 235.632184,47.4920709 235.632184,51.7241379 C235.632184,55.956205 232.201416,59.3869732 227.969349,59.3869732 C223.737282,59.3869732 220.306513,55.956205 220.306513,51.7241379 C220.306513,47.4920709 223.737282,44.0613027 227.969349,44.0613027 Z M183.908046,44.0613027 C188.140113,44.0613027 191.570881,47.4920709 191.570881,51.7241379 C191.570881,55.956205 188.140113,59.3869732 183.908046,59.3869732 C179.675979,59.3869732 176.245211,55.956205 176.245211,51.7241379 C176.245211,47.4920709 179.675979,44.0613027 183.908046,44.0613027 Z M404.214559,44.0613027 C408.446626,44.0613027 411.877395,47.4920709 411.877395,51.7241379 C411.877395,55.956205 408.446626,59.3869732 404.214559,59.3869732 C399.982492,59.3869732 396.551724,55.956205 396.551724,51.7241379 C396.551724,47.4920709 399.982492,44.0613027 404.214559,44.0613027 Z M7.66283525,44.0613027 C11.8949023,44.0613027 15.3256705,47.4920709 15.3256705,51.7241379 C15.3256705,55.956205 11.8949023,59.3869732 7.66283525,59.3869732 C3.4307682,59.3869732 -1.28785871e-13,55.956205 -1.28785871e-13,51.7241379 C-1.28785871e-13,47.4920709 3.4307682,44.0613027 7.66283525,44.0613027 Z M272.030651,44.0613027 C276.262718,44.0613027 279.693487,47.4920709 279.693487,51.7241379 C279.693487,55.956205 276.262718,59.3869732 272.030651,59.3869732 C267.798584,59.3869732 264.367816,55.956205 264.367816,51.7241379 C264.367816,47.4920709 267.798584,44.0613027 272.030651,44.0613027 Z M7.66283525,3.2596148e-13 C11.8949023,3.2596148e-13 15.3256705,3.4307682 15.3256705,7.66283525 C15.3256705,11.8949023 11.8949023,15.3256705 7.66283525,15.3256705 C3.4307682,15.3256705 -1.28785871e-13,11.8949023 -1.28785871e-13,7.66283525 C-1.28785871e-13,3.4307682 3.4307682,3.2596148e-13 7.66283525,3.2596148e-13 Z M51.7241379,3.2596148e-13 C55.956205,3.2596148e-13 59.3869732,3.4307682 59.3869732,7.66283525 C59.3869732,11.8949023 55.956205,15.3256705 51.7241379,15.3256705 C47.4920709,15.3256705 44.0613027,11.8949023 44.0613027,7.66283525 C44.0613027,3.4307682 47.4920709,3.2596148e-13 51.7241379,3.2596148e-13 Z M95.7854406,3.2596148e-13 C100.017508,3.2596148e-13 103.448276,3.4307682 103.448276,7.66283525 C103.448276,11.8949023 100.017508,15.3256705 95.7854406,15.3256705 C91.5533736,15.3256705 88.1226054,11.8949023 88.1226054,7.66283525 C88.1226054,3.4307682 91.5533736,3.2596148e-13 95.7854406,3.2596148e-13 Z M139.846743,3.2596148e-13 C144.07881,3.2596148e-13 147.509579,3.4307682 147.509579,7.66283525 C147.509579,11.8949023 144.07881,15.3256705 139.846743,15.3256705 C135.614676,15.3256705 132.183908,11.8949023 132.183908,7.66283525 C132.183908,3.4307682 135.614676,3.2596148e-13 139.846743,3.2596148e-13 Z M183.908046,3.2596148e-13 C188.140113,3.2596148e-13 191.570881,3.4307682 191.570881,7.66283525 C191.570881,11.8949023 188.140113,15.3256705 183.908046,15.3256705 C179.675979,15.3256705 176.245211,11.8949023 176.245211,7.66283525 C176.245211,3.4307682 179.675979,3.2596148e-13 183.908046,3.2596148e-13 Z M227.969349,3.2596148e-13 C232.201416,3.2596148e-13 235.632184,3.4307682 235.632184,7.66283525 C235.632184,11.8949023 232.201416,15.3256705 227.969349,15.3256705 C223.737282,15.3256705 220.306513,11.8949023 220.306513,7.66283525 C220.306513,3.4307682 223.737282,3.2596148e-13 227.969349,3.2596148e-13 Z M272.030651,3.2596148e-13 C276.262718,3.2596148e-13 279.693487,3.4307682 279.693487,7.66283525 C279.693487,11.8949023 276.262718,15.3256705 272.030651,15.3256705 C267.798584,15.3256705 264.367816,11.8949023 264.367816,7.66283525 C264.367816,3.4307682 267.798584,3.2596148e-13 272.030651,3.2596148e-13 Z M316.091954,3.2596148e-13 C320.324021,3.2596148e-13 323.754789,3.4307682 323.754789,7.66283525 C323.754789,11.8949023 320.324021,15.3256705 316.091954,15.3256705 C311.859887,15.3256705 308.429119,11.8949023 308.429119,7.66283525 C308.429119,3.4307682 311.859887,3.2596148e-13 316.091954,3.2596148e-13 Z M360.153257,3.2596148e-13 C364.385324,3.2596148e-13 367.816092,3.4307682 367.816092,7.66283525 C367.816092,11.8949023 364.385324,15.3256705 360.153257,15.3256705 C355.92119,15.3256705 352.490421,11.8949023 352.490421,7.66283525 C352.490421,3.4307682 355.92119,3.2596148e-13 360.153257,3.2596148e-13 Z M404.214559,3.2596148e-13 C408.446626,3.2596148e-13 411.877395,3.4307682 411.877395,7.66283525 C411.877395,11.8949023 408.446626,15.3256705 404.214559,15.3256705 C399.982492,15.3256705 396.551724,11.8949023 396.551724,7.66283525 C396.551724,3.4307682 399.982492,3.2596148e-13 404.214559,3.2596148e-13 Z M448.275862,3.2596148e-13 C452.507929,3.2596148e-13 455.938697,3.4307682 455.938697,7.66283525 C455.938697,11.8949023 452.507929,15.3256705 448.275862,15.3256705 C444.043795,15.3256705 440.613027,11.8949023 440.613027,7.66283525 C440.613027,3.4307682 444.043795,3.2596148e-13 448.275862,3.2596148e-13 Z M492.337165,3.2596148e-13 C496.569232,3.2596148e-13 500,3.4307682 500,7.66283525 C500,11.8949023 496.569232,15.3256705 492.337165,15.3256705 C488.105098,15.3256705 484.67433,11.8949023 484.67433,7.66283525 C484.67433,3.4307682 488.105098,3.2596148e-13 492.337165,3.2596148e-13 Z" transform="translate(528 430)"/>
    <circle cx="944" cy="125" r="124" stroke="url(#nbb-bg-e-b)" stroke-width="2" opacity=".305"/>
    <circle cx="478" cy="125" r="46" stroke="url(#nbb-bg-e-b)" stroke-width="8"/>
    <circle cx="869" cy="1052" r="46" stroke="url(#nbb-bg-e-b)" stroke-width="8" opacity=".4"/>
    <circle cx="478" cy="1213" r="48" stroke="url(#nbb-bg-e-b)" stroke-width="4" opacity=".2"/>
    <path stroke="url(#nbb-bg-e-c)" stroke-linecap="round" stroke-linejoin="round" stroke-width="4" d="M478,328 L0,328"/>
    <path stroke="url(#nbb-bg-e-d)" stroke-linecap="round" stroke-linejoin="round" stroke-width="4" d="M1231.5,1205.5 L774.750107,1205.03723"/>
    <path stroke="url(#nbb-bg-e-e)" stroke-linecap="round" stroke-linejoin="round" stroke-width="4" d="M1434.74676,369.39956 L1033.77534,374.171484" opacity=".4" transform="rotate(135.942 1233.997 372.15)"/>
  </g>
</svg>
