<svg xmlns="http://www.w3.org/2000/svg" width="1207" height="1532" viewBox="0 0 1207 1532">
  <defs>
    <linearGradient id="nbb-bg-a-dark-a" x1="50%" x2="50%" y1="0%" y2="100%">
      <stop offset="0%" stop-color="#3F6ABC" stop-opacity=".089"/>
      <stop offset="100%" stop-color="#1851BE"/>
    </linearGradient>
    <linearGradient id="nbb-bg-a-dark-b" x1="50%" x2="50%" y1="0%" y2="100%">
      <stop offset="0%" stop-color="#3F6ABC"/>
      <stop offset="100%" stop-color="#1851BE"/>
    </linearGradient>
    <linearGradient id="nbb-bg-a-dark-c" x1="50.007%" x2="50.007%" y1="-141.4%" y2="-47.015%">
      <stop offset="0%" stop-color="#2A6CBE"/>
      <stop offset="38.688%" stop-color="#2062BC"/>
      <stop offset="49.182%" stop-color="#1F5FBC"/>
      <stop offset="66.583%" stop-color="#1C5ABD"/>
      <stop offset="85.354%" stop-color="#1956BC"/>
      <stop offset="100%" stop-color="#1851BE"/>
    </linearGradient>
    <linearGradient id="nbb-bg-a-dark-d" x1="50%" x2="41.962%" y1="100%" y2="0%">
      <stop offset="0%" stop-color="#6142B0"/>
      <stop offset="100%" stop-color="#5534A6"/>
    </linearGradient>
    <linearGradient id="nbb-bg-a-dark-e" x1="0%" x2="100%" y1="0%" y2="0%">
      <stop offset="0%" stop-color="#3589E0" stop-opacity="0"/>
      <stop offset="43.462%" stop-color="#2E7CD9" stop-opacity=".69"/>
      <stop offset="100%" stop-color="#1851BE"/>
    </linearGradient>
    <linearGradient id="nbb-bg-a-dark-f" x1="94.544%" x2="0%" y1="0%" y2="0%">
      <stop offset="0%" stop-color="#96F" stop-opacity=".202"/>
      <stop offset="100%" stop-color="#5534A6"/>
    </linearGradient>
    <linearGradient id="nbb-bg-a-dark-g" x1="0%" x2="100%" y1="0%" y2="0%">
      <stop offset="0%" stop-color="#3589E0" stop-opacity="0"/>
      <stop offset="41.224%" stop-color="#2E7CD9" stop-opacity=".69"/>
      <stop offset="100%" stop-color="#1851BE"/>
    </linearGradient>
  </defs>
  <g fill="none" fill-rule="evenodd">
    <path fill="url(#nbb-bg-a-dark-a)" d="M320.452107,570.94636 C325.437482,570.94636 329.478927,574.987805 329.478927,579.97318 C329.478927,584.958555 325.437482,589 320.452107,589 C315.466732,589 311.425287,584.958555 311.425287,579.97318 C311.425287,574.987805 315.466732,570.94636 320.452107,570.94636 Z M372.356322,570.94636 C377.341697,570.94636 381.383142,574.987805 381.383142,579.97318 C381.383142,584.958555 377.341697,589 372.356322,589 C367.370947,589 363.329502,584.958555 363.329502,579.97318 C363.329502,574.987805 367.370947,570.94636 372.356322,570.94636 Z M424.260536,570.94636 C429.245911,570.94636 433.287356,574.987805 433.287356,579.97318 C433.287356,584.958555 429.245911,589 424.260536,589 C419.275161,589 415.233716,584.958555 415.233716,579.97318 C415.233716,574.987805 419.275161,570.94636 424.260536,570.94636 Z M476.164751,570.94636 C481.150126,570.94636 485.191571,574.987805 485.191571,579.97318 C485.191571,584.958555 481.150126,589 476.164751,589 C471.179376,589 467.137931,584.958555 467.137931,579.97318 C467.137931,574.987805 471.179376,570.94636 476.164751,570.94636 Z M528.068966,570.94636 C533.054341,570.94636 537.095785,574.987805 537.095785,579.97318 C537.095785,584.958555 533.054341,589 528.068966,589 C523.083591,589 519.042146,584.958555 519.042146,579.97318 C519.042146,574.987805 523.083591,570.94636 528.068966,570.94636 Z M579.97318,570.94636 C584.958555,570.94636 589,574.987805 589,579.97318 C589,584.958555 584.958555,589 579.97318,589 C574.987805,589 570.94636,584.958555 570.94636,579.97318 C570.94636,574.987805 574.987805,570.94636 579.97318,570.94636 Z M9.02681992,570.94636 C14.0121949,570.94636 18.0536398,574.987805 18.0536398,579.97318 C18.0536398,584.958555 14.0121949,589 9.02681992,589 C4.04144494,589 -1.29674049e-13,584.958555 -1.29674049e-13,579.97318 C-1.29674049e-13,574.987805 4.04144494,570.94636 9.02681992,570.94636 Z M60.9310345,570.94636 C65.9164095,570.94636 69.9578544,574.987805 69.9578544,579.97318 C69.9578544,584.958555 65.9164095,589 60.9310345,589 C55.9456595,589 51.9042146,584.958555 51.9042146,579.97318 C51.9042146,574.987805 55.9456595,570.94636 60.9310345,570.94636 Z M112.835249,570.94636 C117.820624,570.94636 121.862069,574.987805 121.862069,579.97318 C121.862069,584.958555 117.820624,589 112.835249,589 C107.849874,589 103.808429,584.958555 103.808429,579.97318 C103.808429,574.987805 107.849874,570.94636 112.835249,570.94636 Z M164.739464,570.94636 C169.724839,570.94636 173.766284,574.987805 173.766284,579.97318 C173.766284,584.958555 169.724839,589 164.739464,589 C159.754089,589 155.712644,584.958555 155.712644,579.97318 C155.712644,574.987805 159.754089,570.94636 164.739464,570.94636 Z M216.643678,570.94636 C221.629053,570.94636 225.670498,574.987805 225.670498,579.97318 C225.670498,584.958555 221.629053,589 216.643678,589 C211.658303,589 207.616858,584.958555 207.616858,579.97318 C207.616858,574.987805 211.658303,570.94636 216.643678,570.94636 Z M268.547893,570.94636 C273.533268,570.94636 277.574713,574.987805 277.574713,579.97318 C277.574713,584.958555 273.533268,589 268.547893,589 C263.562518,589 259.521073,584.958555 259.521073,579.97318 C259.521073,574.987805 263.562518,570.94636 268.547893,570.94636 Z M9.02681992,519.042146 C14.0121949,519.042146 18.0536398,523.083591 18.0536398,528.068966 C18.0536398,533.054341 14.0121949,537.095785 9.02681992,537.095785 C4.04144494,537.095785 -1.29674049e-13,533.054341 -1.29674049e-13,528.068966 C-1.29674049e-13,523.083591 4.04144494,519.042146 9.02681992,519.042146 Z M60.9310345,519.042146 C65.9164095,519.042146 69.9578544,523.083591 69.9578544,528.068966 C69.9578544,533.054341 65.9164095,537.095785 60.9310345,537.095785 C55.9456595,537.095785 51.9042146,533.054341 51.9042146,528.068966 C51.9042146,523.083591 55.9456595,519.042146 60.9310345,519.042146 Z M112.835249,519.042146 C117.820624,519.042146 121.862069,523.083591 121.862069,528.068966 C121.862069,533.054341 117.820624,537.095785 112.835249,537.095785 C107.849874,537.095785 103.808429,533.054341 103.808429,528.068966 C103.808429,523.083591 107.849874,519.042146 112.835249,519.042146 Z M476.164751,519.042146 C481.150126,519.042146 485.191571,523.083591 485.191571,528.068966 C485.191571,533.054341 481.150126,537.095785 476.164751,537.095785 C471.179376,537.095785 467.137931,533.054341 467.137931,528.068966 C467.137931,523.083591 471.179376,519.042146 476.164751,519.042146 Z M528.068966,519.042146 C533.054341,519.042146 537.095785,523.083591 537.095785,528.068966 C537.095785,533.054341 533.054341,537.095785 528.068966,537.095785 C523.083591,537.095785 519.042146,533.054341 519.042146,528.068966 C519.042146,523.083591 523.083591,519.042146 528.068966,519.042146 Z M579.97318,519.042146 C584.958555,519.042146 589,523.083591 589,528.068966 C589,533.054341 584.958555,537.095785 579.97318,537.095785 C574.987805,537.095785 570.94636,533.054341 570.94636,528.068966 C570.94636,523.083591 574.987805,519.042146 579.97318,519.042146 Z M164.739464,519.042146 C169.724839,519.042146 173.766284,523.083591 173.766284,528.068966 C173.766284,533.054341 169.724839,537.095785 164.739464,537.095785 C159.754089,537.095785 155.712644,533.054341 155.712644,528.068966 C155.712644,523.083591 159.754089,519.042146 164.739464,519.042146 Z M216.643678,519.042146 C221.629053,519.042146 225.670498,523.083591 225.670498,528.068966 C225.670498,533.054341 221.629053,537.095785 216.643678,537.095785 C211.658303,537.095785 207.616858,533.054341 207.616858,528.068966 C207.616858,523.083591 211.658303,519.042146 216.643678,519.042146 Z M268.547893,519.042146 C273.533268,519.042146 277.574713,523.083591 277.574713,528.068966 C277.574713,533.054341 273.533268,537.095785 268.547893,537.095785 C263.562518,537.095785 259.521073,533.054341 259.521073,528.068966 C259.521073,523.083591 263.562518,519.042146 268.547893,519.042146 Z M320.452107,519.042146 C325.437482,519.042146 329.478927,523.083591 329.478927,528.068966 C329.478927,533.054341 325.437482,537.095785 320.452107,537.095785 C315.466732,537.095785 311.425287,533.054341 311.425287,528.068966 C311.425287,523.083591 315.466732,519.042146 320.452107,519.042146 Z M372.356322,519.042146 C377.341697,519.042146 381.383142,523.083591 381.383142,528.068966 C381.383142,533.054341 377.341697,537.095785 372.356322,537.095785 C367.370947,537.095785 363.329502,533.054341 363.329502,528.068966 C363.329502,523.083591 367.370947,519.042146 372.356322,519.042146 Z M424.260536,519.042146 C429.245911,519.042146 433.287356,523.083591 433.287356,528.068966 C433.287356,533.054341 429.245911,537.095785 424.260536,537.095785 C419.275161,537.095785 415.233716,533.054341 415.233716,528.068966 C415.233716,523.083591 419.275161,519.042146 424.260536,519.042146 Z M476.164751,467.137931 C481.150126,467.137931 485.191571,471.179376 485.191571,476.164751 C485.191571,481.150126 481.150126,485.191571 476.164751,485.191571 C471.179376,485.191571 467.137931,481.150126 467.137931,476.164751 C467.137931,471.179376 471.179376,467.137931 476.164751,467.137931 Z M372.356322,467.137931 C377.341697,467.137931 381.383142,471.179376 381.383142,476.164751 C381.383142,481.150126 377.341697,485.191571 372.356322,485.191571 C367.370947,485.191571 363.329502,481.150126 363.329502,476.164751 C363.329502,471.179376 367.370947,467.137931 372.356322,467.137931 Z M528.068966,467.137931 C533.054341,467.137931 537.095785,471.179376 537.095785,476.164751 C537.095785,481.150126 533.054341,485.191571 528.068966,485.191571 C523.083591,485.191571 519.042146,481.150126 519.042146,476.164751 C519.042146,471.179376 523.083591,467.137931 528.068966,467.137931 Z M164.739464,467.137931 C169.724839,467.137931 173.766284,471.179376 173.766284,476.164751 C173.766284,481.150126 169.724839,485.191571 164.739464,485.191571 C159.754089,485.191571 155.712644,481.150126 155.712644,476.164751 C155.712644,471.179376 159.754089,467.137931 164.739464,467.137931 Z M9.02681992,467.137931 C14.0121949,467.137931 18.0536398,471.179376 18.0536398,476.164751 C18.0536398,481.150126 14.0121949,485.191571 9.02681992,485.191571 C4.04144494,485.191571 -1.29674049e-13,481.150126 -1.29674049e-13,476.164751 C-1.29674049e-13,471.179376 4.04144494,467.137931 9.02681992,467.137931 Z M216.643678,467.137931 C221.629053,467.137931 225.670498,471.179376 225.670498,476.164751 C225.670498,481.150126 221.629053,485.191571 216.643678,485.191571 C211.658303,485.191571 207.616858,481.150126 207.616858,476.164751 C207.616858,471.179376 211.658303,467.137931 216.643678,467.137931 Z M424.260536,467.137931 C429.245911,467.137931 433.287356,471.179376 433.287356,476.164751 C433.287356,481.150126 429.245911,485.191571 424.260536,485.191571 C419.275161,485.191571 415.233716,481.150126 415.233716,476.164751 C415.233716,471.179376 419.275161,467.137931 424.260536,467.137931 Z M60.9310345,467.137931 C65.9164095,467.137931 69.9578544,471.179376 69.9578544,476.164751 C69.9578544,481.150126 65.9164095,485.191571 60.9310345,485.191571 C55.9456595,485.191571 51.9042146,481.150126 51.9042146,476.164751 C51.9042146,471.179376 55.9456595,467.137931 60.9310345,467.137931 Z M268.547893,467.137931 C273.533268,467.137931 277.574713,471.179376 277.574713,476.164751 C277.574713,481.150126 273.533268,485.191571 268.547893,485.191571 C263.562518,485.191571 259.521073,481.150126 259.521073,476.164751 C259.521073,471.179376 263.562518,467.137931 268.547893,467.137931 Z M320.452107,467.137931 C325.437482,467.137931 329.478927,471.179376 329.478927,476.164751 C329.478927,481.150126 325.437482,485.191571 320.452107,485.191571 C315.466732,485.191571 311.425287,481.150126 311.425287,476.164751 C311.425287,471.179376 315.466732,467.137931 320.452107,467.137931 Z M579.97318,467.137931 C584.958555,467.137931 589,471.179376 589,476.164751 C589,481.150126 584.958555,485.191571 579.97318,485.191571 C574.987805,485.191571 570.94636,481.150126 570.94636,476.164751 C570.94636,471.179376 574.987805,467.137931 579.97318,467.137931 Z M112.835249,467.137931 C117.820624,467.137931 121.862069,471.179376 121.862069,476.164751 C121.862069,481.150126 117.820624,485.191571 112.835249,485.191571 C107.849874,485.191571 103.808429,481.150126 103.808429,476.164751 C103.808429,471.179376 107.849874,467.137931 112.835249,467.137931 Z M60.9310345,415.233716 C65.9164095,415.233716 69.9578544,419.275161 69.9578544,424.260536 C69.9578544,429.245911 65.9164095,433.287356 60.9310345,433.287356 C55.9456595,433.287356 51.9042146,429.245911 51.9042146,424.260536 C51.9042146,419.275161 55.9456595,415.233716 60.9310345,415.233716 Z M164.739464,415.233716 C169.724839,415.233716 173.766284,419.275161 173.766284,424.260536 C173.766284,429.245911 169.724839,433.287356 164.739464,433.287356 C159.754089,433.287356 155.712644,429.245911 155.712644,424.260536 C155.712644,419.275161 159.754089,415.233716 164.739464,415.233716 Z M268.547893,415.233716 C273.533268,415.233716 277.574713,419.275161 277.574713,424.260536 C277.574713,429.245911 273.533268,433.287356 268.547893,433.287356 C263.562518,433.287356 259.521073,429.245911 259.521073,424.260536 C259.521073,419.275161 263.562518,415.233716 268.547893,415.233716 Z M476.164751,415.233716 C481.150126,415.233716 485.191571,419.275161 485.191571,424.260536 C485.191571,429.245911 481.150126,433.287356 476.164751,433.287356 C471.179376,433.287356 467.137931,429.245911 467.137931,424.260536 C467.137931,419.275161 471.179376,415.233716 476.164751,415.233716 Z M320.452107,415.233716 C325.437482,415.233716 329.478927,419.275161 329.478927,424.260536 C329.478927,429.245911 325.437482,433.287356 320.452107,433.287356 C315.466732,433.287356 311.425287,429.245911 311.425287,424.260536 C311.425287,419.275161 315.466732,415.233716 320.452107,415.233716 Z M424.260536,415.233716 C429.245911,415.233716 433.287356,419.275161 433.287356,424.260536 C433.287356,429.245911 429.245911,433.287356 424.260536,433.287356 C419.275161,433.287356 415.233716,429.245911 415.233716,424.260536 C415.233716,419.275161 419.275161,415.233716 424.260536,415.233716 Z M9.02681992,415.233716 C14.0121949,415.233716 18.0536398,419.275161 18.0536398,424.260536 C18.0536398,429.245911 14.0121949,433.287356 9.02681992,433.287356 C4.04144494,433.287356 -1.29674049e-13,429.245911 -1.29674049e-13,424.260536 C-1.29674049e-13,419.275161 4.04144494,415.233716 9.02681992,415.233716 Z M112.835249,415.233716 C117.820624,415.233716 121.862069,419.275161 121.862069,424.260536 C121.862069,429.245911 117.820624,433.287356 112.835249,433.287356 C107.849874,433.287356 103.808429,429.245911 103.808429,424.260536 C103.808429,419.275161 107.849874,415.233716 112.835249,415.233716 Z M579.97318,415.233716 C584.958555,415.233716 589,419.275161 589,424.260536 C589,429.245911 584.958555,433.287356 579.97318,433.287356 C574.987805,433.287356 570.94636,429.245911 570.94636,424.260536 C570.94636,419.275161 574.987805,415.233716 579.97318,415.233716 Z M372.356322,415.233716 C377.341697,415.233716 381.383142,419.275161 381.383142,424.260536 C381.383142,429.245911 377.341697,433.287356 372.356322,433.287356 C367.370947,433.287356 363.329502,429.245911 363.329502,424.260536 C363.329502,419.275161 367.370947,415.233716 372.356322,415.233716 Z M216.643678,415.233716 C221.629053,415.233716 225.670498,419.275161 225.670498,424.260536 C225.670498,429.245911 221.629053,433.287356 216.643678,433.287356 C211.658303,433.287356 207.616858,429.245911 207.616858,424.260536 C207.616858,419.275161 211.658303,415.233716 216.643678,415.233716 Z M528.068966,415.233716 C533.054341,415.233716 537.095785,419.275161 537.095785,424.260536 C537.095785,429.245911 533.054341,433.287356 528.068966,433.287356 C523.083591,433.287356 519.042146,429.245911 519.042146,424.260536 C519.042146,419.275161 523.083591,415.233716 528.068966,415.233716 Z M579.97318,363.329502 C584.958555,363.329502 589,367.370947 589,372.356322 C589,377.341697 584.958555,381.383142 579.97318,381.383142 C574.987805,381.383142 570.94636,377.341697 570.94636,372.356322 C570.94636,367.370947 574.987805,363.329502 579.97318,363.329502 Z M424.260536,363.329502 C429.245911,363.329502 433.287356,367.370947 433.287356,372.356322 C433.287356,377.341697 429.245911,381.383142 424.260536,381.383142 C419.275161,381.383142 415.233716,377.341697 415.233716,372.356322 C415.233716,367.370947 419.275161,363.329502 424.260536,363.329502 Z M164.739464,363.329502 C169.724839,363.329502 173.766284,367.370947 173.766284,372.356322 C173.766284,377.341697 169.724839,381.383142 164.739464,381.383142 C159.754089,381.383142 155.712644,377.341697 155.712644,372.356322 C155.712644,367.370947 159.754089,363.329502 164.739464,363.329502 Z M528.068966,363.329502 C533.054341,363.329502 537.095785,367.370947 537.095785,372.356322 C537.095785,377.341697 533.054341,381.383142 528.068966,381.383142 C523.083591,381.383142 519.042146,377.341697 519.042146,372.356322 C519.042146,367.370947 523.083591,363.329502 528.068966,363.329502 Z M372.356322,363.329502 C377.341697,363.329502 381.383142,367.370947 381.383142,372.356322 C381.383142,377.341697 377.341697,381.383142 372.356322,381.383142 C367.370947,381.383142 363.329502,377.341697 363.329502,372.356322 C363.329502,367.370947 367.370947,363.329502 372.356322,363.329502 Z M60.9310345,363.329502 C65.9164095,363.329502 69.9578544,367.370947 69.9578544,372.356322 C69.9578544,377.341697 65.9164095,381.383142 60.9310345,381.383142 C55.9456595,381.383142 51.9042146,377.341697 51.9042146,372.356322 C51.9042146,367.370947 55.9456595,363.329502 60.9310345,363.329502 Z M9.02681992,363.329502 C14.0121949,363.329502 18.0536398,367.370947 18.0536398,372.356322 C18.0536398,377.341697 14.0121949,381.383142 9.02681992,381.383142 C4.04144494,381.383142 -1.29674049e-13,377.341697 -1.29674049e-13,372.356322 C-1.29674049e-13,367.370947 4.04144494,363.329502 9.02681992,363.329502 Z M476.164751,363.329502 C481.150126,363.329502 485.191571,367.370947 485.191571,372.356322 C485.191571,377.341697 481.150126,381.383142 476.164751,381.383142 C471.179376,381.383142 467.137931,377.341697 467.137931,372.356322 C467.137931,367.370947 471.179376,363.329502 476.164751,363.329502 Z M320.452107,363.329502 C325.437482,363.329502 329.478927,367.370947 329.478927,372.356322 C329.478927,377.341697 325.437482,381.383142 320.452107,381.383142 C315.466732,381.383142 311.425287,377.341697 311.425287,372.356322 C311.425287,367.370947 315.466732,363.329502 320.452107,363.329502 Z M216.643678,363.329502 C221.629053,363.329502 225.670498,367.370947 225.670498,372.356322 C225.670498,377.341697 221.629053,381.383142 216.643678,381.383142 C211.658303,381.383142 207.616858,377.341697 207.616858,372.356322 C207.616858,367.370947 211.658303,363.329502 216.643678,363.329502 Z M268.547893,363.329502 C273.533268,363.329502 277.574713,367.370947 277.574713,372.356322 C277.574713,377.341697 273.533268,381.383142 268.547893,381.383142 C263.562518,381.383142 259.521073,377.341697 259.521073,372.356322 C259.521073,367.370947 263.562518,363.329502 268.547893,363.329502 Z M112.835249,363.329502 C117.820624,363.329502 121.862069,367.370947 121.862069,372.356322 C121.862069,377.341697 117.820624,381.383142 112.835249,381.383142 C107.849874,381.383142 103.808429,377.341697 103.808429,372.356322 C103.808429,367.370947 107.849874,363.329502 112.835249,363.329502 Z M9.02681992,311.425287 C14.0121949,311.425287 18.0536398,315.466732 18.0536398,320.452107 C18.0536398,325.437482 14.0121949,329.478927 9.02681992,329.478927 C4.04144494,329.478927 -1.29674049e-13,325.437482 -1.29674049e-13,320.452107 C-1.29674049e-13,315.466732 4.04144494,311.425287 9.02681992,311.425287 Z M60.9310345,311.425287 C65.9164095,311.425287 69.9578544,315.466732 69.9578544,320.452107 C69.9578544,325.437482 65.9164095,329.478927 60.9310345,329.478927 C55.9456595,329.478927 51.9042146,325.437482 51.9042146,320.452107 C51.9042146,315.466732 55.9456595,311.425287 60.9310345,311.425287 Z M112.835249,311.425287 C117.820624,311.425287 121.862069,315.466732 121.862069,320.452107 C121.862069,325.437482 117.820624,329.478927 112.835249,329.478927 C107.849874,329.478927 103.808429,325.437482 103.808429,320.452107 C103.808429,315.466732 107.849874,311.425287 112.835249,311.425287 Z M528.068966,311.425287 C533.054341,311.425287 537.095785,315.466732 537.095785,320.452107 C537.095785,325.437482 533.054341,329.478927 528.068966,329.478927 C523.083591,329.478927 519.042146,325.437482 519.042146,320.452107 C519.042146,315.466732 523.083591,311.425287 528.068966,311.425287 Z M579.97318,311.425287 C584.958555,311.425287 589,315.466732 589,320.452107 C589,325.437482 584.958555,329.478927 579.97318,329.478927 C574.987805,329.478927 570.94636,325.437482 570.94636,320.452107 C570.94636,315.466732 574.987805,311.425287 579.97318,311.425287 Z M424.260536,311.425287 C429.245911,311.425287 433.287356,315.466732 433.287356,320.452107 C433.287356,325.437482 429.245911,329.478927 424.260536,329.478927 C419.275161,329.478927 415.233716,325.437482 415.233716,320.452107 C415.233716,315.466732 419.275161,311.425287 424.260536,311.425287 Z M476.164751,311.425287 C481.150126,311.425287 485.191571,315.466732 485.191571,320.452107 C485.191571,325.437482 481.150126,329.478927 476.164751,329.478927 C471.179376,329.478927 467.137931,325.437482 467.137931,320.452107 C467.137931,315.466732 471.179376,311.425287 476.164751,311.425287 Z M372.356322,311.425287 C377.341697,311.425287 381.383142,315.466732 381.383142,320.452107 C381.383142,325.437482 377.341697,329.478927 372.356322,329.478927 C367.370947,329.478927 363.329502,325.437482 363.329502,320.452107 C363.329502,315.466732 367.370947,311.425287 372.356322,311.425287 Z M216.643678,311.425287 C221.629053,311.425287 225.670498,315.466732 225.670498,320.452107 C225.670498,325.437482 221.629053,329.478927 216.643678,329.478927 C211.658303,329.478927 207.616858,325.437482 207.616858,320.452107 C207.616858,315.466732 211.658303,311.425287 216.643678,311.425287 Z M320.452107,311.425287 C325.437482,311.425287 329.478927,315.466732 329.478927,320.452107 C329.478927,325.437482 325.437482,329.478927 320.452107,329.478927 C315.466732,329.478927 311.425287,325.437482 311.425287,320.452107 C311.425287,315.466732 315.466732,311.425287 320.452107,311.425287 Z M164.739464,311.425287 C169.724839,311.425287 173.766284,315.466732 173.766284,320.452107 C173.766284,325.437482 169.724839,329.478927 164.739464,329.478927 C159.754089,329.478927 155.712644,325.437482 155.712644,320.452107 C155.712644,315.466732 159.754089,311.425287 164.739464,311.425287 Z M268.547893,311.425287 C273.533268,311.425287 277.574713,315.466732 277.574713,320.452107 C277.574713,325.437482 273.533268,329.478927 268.547893,329.478927 C263.562518,329.478927 259.521073,325.437482 259.521073,320.452107 C259.521073,315.466732 263.562518,311.425287 268.547893,311.425287 Z M320.452107,259.521073 C325.437482,259.521073 329.478927,263.562518 329.478927,268.547893 C329.478927,273.533268 325.437482,277.574713 320.452107,277.574713 C315.466732,277.574713 311.425287,273.533268 311.425287,268.547893 C311.425287,263.562518 315.466732,259.521073 320.452107,259.521073 Z M112.835249,259.521073 C117.820624,259.521073 121.862069,263.562518 121.862069,268.547893 C121.862069,273.533268 117.820624,277.574713 112.835249,277.574713 C107.849874,277.574713 103.808429,273.533268 103.808429,268.547893 C103.808429,263.562518 107.849874,259.521073 112.835249,259.521073 Z M268.547893,259.521073 C273.533268,259.521073 277.574713,263.562518 277.574713,268.547893 C277.574713,273.533268 273.533268,277.574713 268.547893,277.574713 C263.562518,277.574713 259.521073,273.533268 259.521073,268.547893 C259.521073,263.562518 263.562518,259.521073 268.547893,259.521073 Z M579.97318,259.521073 C584.958555,259.521073 589,263.562518 589,268.547893 C589,273.533268 584.958555,277.574713 579.97318,277.574713 C574.987805,277.574713 570.94636,273.533268 570.94636,268.547893 C570.94636,263.562518 574.987805,259.521073 579.97318,259.521073 Z M60.9310345,259.521073 C65.9164095,259.521073 69.9578544,263.562518 69.9578544,268.547893 C69.9578544,273.533268 65.9164095,277.574713 60.9310345,277.574713 C55.9456595,277.574713 51.9042146,273.533268 51.9042146,268.547893 C51.9042146,263.562518 55.9456595,259.521073 60.9310345,259.521073 Z M9.02681992,259.521073 C14.0121949,259.521073 18.0536398,263.562518 18.0536398,268.547893 C18.0536398,273.533268 14.0121949,277.574713 9.02681992,277.574713 C4.04144494,277.574713 -1.29674049e-13,273.533268 -1.29674049e-13,268.547893 C-1.29674049e-13,263.562518 4.04144494,259.521073 9.02681992,259.521073 Z M164.739464,259.521073 C169.724839,259.521073 173.766284,263.562518 173.766284,268.547893 C173.766284,273.533268 169.724839,277.574713 164.739464,277.574713 C159.754089,277.574713 155.712644,273.533268 155.712644,268.547893 C155.712644,263.562518 159.754089,259.521073 164.739464,259.521073 Z M372.356322,259.521073 C377.341697,259.521073 381.383142,263.562518 381.383142,268.547893 C381.383142,273.533268 377.341697,277.574713 372.356322,277.574713 C367.370947,277.574713 363.329502,273.533268 363.329502,268.547893 C363.329502,263.562518 367.370947,259.521073 372.356322,259.521073 Z M216.643678,259.521073 C221.629053,259.521073 225.670498,263.562518 225.670498,268.547893 C225.670498,273.533268 221.629053,277.574713 216.643678,277.574713 C211.658303,277.574713 207.616858,273.533268 207.616858,268.547893 C207.616858,263.562518 211.658303,259.521073 216.643678,259.521073 Z M476.164751,259.521073 C481.150126,259.521073 485.191571,263.562518 485.191571,268.547893 C485.191571,273.533268 481.150126,277.574713 476.164751,277.574713 C471.179376,277.574713 467.137931,273.533268 467.137931,268.547893 C467.137931,263.562518 471.179376,259.521073 476.164751,259.521073 Z M528.068966,259.521073 C533.054341,259.521073 537.095785,263.562518 537.095785,268.547893 C537.095785,273.533268 533.054341,277.574713 528.068966,277.574713 C523.083591,277.574713 519.042146,273.533268 519.042146,268.547893 C519.042146,263.562518 523.083591,259.521073 528.068966,259.521073 Z M424.260536,259.521073 C429.245911,259.521073 433.287356,263.562518 433.287356,268.547893 C433.287356,273.533268 429.245911,277.574713 424.260536,277.574713 C419.275161,277.574713 415.233716,273.533268 415.233716,268.547893 C415.233716,263.562518 419.275161,259.521073 424.260536,259.521073 Z M216.643678,207.616858 C221.629053,207.616858 225.670498,211.658303 225.670498,216.643678 C225.670498,221.629053 221.629053,225.670498 216.643678,225.670498 C211.658303,225.670498 207.616858,221.629053 207.616858,216.643678 C207.616858,211.658303 211.658303,207.616858 216.643678,207.616858 Z M476.164751,207.616858 C481.150126,207.616858 485.191571,211.658303 485.191571,216.643678 C485.191571,221.629053 481.150126,225.670498 476.164751,225.670498 C471.179376,225.670498 467.137931,221.629053 467.137931,216.643678 C467.137931,211.658303 471.179376,207.616858 476.164751,207.616858 Z M528.068966,207.616858 C533.054341,207.616858 537.095785,211.658303 537.095785,216.643678 C537.095785,221.629053 533.054341,225.670498 528.068966,225.670498 C523.083591,225.670498 519.042146,221.629053 519.042146,216.643678 C519.042146,211.658303 523.083591,207.616858 528.068966,207.616858 Z M268.547893,207.616858 C273.533268,207.616858 277.574713,211.658303 277.574713,216.643678 C277.574713,221.629053 273.533268,225.670498 268.547893,225.670498 C263.562518,225.670498 259.521073,221.629053 259.521073,216.643678 C259.521073,211.658303 263.562518,207.616858 268.547893,207.616858 Z M9.02681992,207.616858 C14.0121949,207.616858 18.0536398,211.658303 18.0536398,216.643678 C18.0536398,221.629053 14.0121949,225.670498 9.02681992,225.670498 C4.04144494,225.670498 -1.29674049e-13,221.629053 -1.29674049e-13,216.643678 C-1.29674049e-13,211.658303 4.04144494,207.616858 9.02681992,207.616858 Z M579.97318,207.616858 C584.958555,207.616858 589,211.658303 589,216.643678 C589,221.629053 584.958555,225.670498 579.97318,225.670498 C574.987805,225.670498 570.94636,221.629053 570.94636,216.643678 C570.94636,211.658303 574.987805,207.616858 579.97318,207.616858 Z M164.739464,207.616858 C169.724839,207.616858 173.766284,211.658303 173.766284,216.643678 C173.766284,221.629053 169.724839,225.670498 164.739464,225.670498 C159.754089,225.670498 155.712644,221.629053 155.712644,216.643678 C155.712644,211.658303 159.754089,207.616858 164.739464,207.616858 Z M60.9310345,207.616858 C65.9164095,207.616858 69.9578544,211.658303 69.9578544,216.643678 C69.9578544,221.629053 65.9164095,225.670498 60.9310345,225.670498 C55.9456595,225.670498 51.9042146,221.629053 51.9042146,216.643678 C51.9042146,211.658303 55.9456595,207.616858 60.9310345,207.616858 Z M424.260536,207.616858 C429.245911,207.616858 433.287356,211.658303 433.287356,216.643678 C433.287356,221.629053 429.245911,225.670498 424.260536,225.670498 C419.275161,225.670498 415.233716,221.629053 415.233716,216.643678 C415.233716,211.658303 419.275161,207.616858 424.260536,207.616858 Z M320.452107,207.616858 C325.437482,207.616858 329.478927,211.658303 329.478927,216.643678 C329.478927,221.629053 325.437482,225.670498 320.452107,225.670498 C315.466732,225.670498 311.425287,221.629053 311.425287,216.643678 C311.425287,211.658303 315.466732,207.616858 320.452107,207.616858 Z M112.835249,207.616858 C117.820624,207.616858 121.862069,211.658303 121.862069,216.643678 C121.862069,221.629053 117.820624,225.670498 112.835249,225.670498 C107.849874,225.670498 103.808429,221.629053 103.808429,216.643678 C103.808429,211.658303 107.849874,207.616858 112.835249,207.616858 Z M372.356322,207.616858 C377.341697,207.616858 381.383142,211.658303 381.383142,216.643678 C381.383142,221.629053 377.341697,225.670498 372.356322,225.670498 C367.370947,225.670498 363.329502,221.629053 363.329502,216.643678 C363.329502,211.658303 367.370947,207.616858 372.356322,207.616858 Z M320.452107,155.712644 C325.437482,155.712644 329.478927,159.754089 329.478927,164.739464 C329.478927,169.724839 325.437482,173.766284 320.452107,173.766284 C315.466732,173.766284 311.425287,169.724839 311.425287,164.739464 C311.425287,159.754089 315.466732,155.712644 320.452107,155.712644 Z M112.835249,155.712644 C117.820624,155.712644 121.862069,159.754089 121.862069,164.739464 C121.862069,169.724839 117.820624,173.766284 112.835249,173.766284 C107.849874,173.766284 103.808429,169.724839 103.808429,164.739464 C103.808429,159.754089 107.849874,155.712644 112.835249,155.712644 Z M216.643678,155.712644 C221.629053,155.712644 225.670498,159.754089 225.670498,164.739464 C225.670498,169.724839 221.629053,173.766284 216.643678,173.766284 C211.658303,173.766284 207.616858,169.724839 207.616858,164.739464 C207.616858,159.754089 211.658303,155.712644 216.643678,155.712644 Z M60.9310345,155.712644 C65.9164095,155.712644 69.9578544,159.754089 69.9578544,164.739464 C69.9578544,169.724839 65.9164095,173.766284 60.9310345,173.766284 C55.9456595,173.766284 51.9042146,169.724839 51.9042146,164.739464 C51.9042146,159.754089 55.9456595,155.712644 60.9310345,155.712644 Z M268.547893,155.712644 C273.533268,155.712644 277.574713,159.754089 277.574713,164.739464 C277.574713,169.724839 273.533268,173.766284 268.547893,173.766284 C263.562518,173.766284 259.521073,169.724839 259.521073,164.739464 C259.521073,159.754089 263.562518,155.712644 268.547893,155.712644 Z M579.97318,155.712644 C584.958555,155.712644 589,159.754089 589,164.739464 C589,169.724839 584.958555,173.766284 579.97318,173.766284 C574.987805,173.766284 570.94636,169.724839 570.94636,164.739464 C570.94636,159.754089 574.987805,155.712644 579.97318,155.712644 Z M528.068966,155.712644 C533.054341,155.712644 537.095785,159.754089 537.095785,164.739464 C537.095785,169.724839 533.054341,173.766284 528.068966,173.766284 C523.083591,173.766284 519.042146,169.724839 519.042146,164.739464 C519.042146,159.754089 523.083591,155.712644 528.068966,155.712644 Z M9.02681992,155.712644 C14.0121949,155.712644 18.0536398,159.754089 18.0536398,164.739464 C18.0536398,169.724839 14.0121949,173.766284 9.02681992,173.766284 C4.04144494,173.766284 -1.29674049e-13,169.724839 -1.29674049e-13,164.739464 C-1.29674049e-13,159.754089 4.04144494,155.712644 9.02681992,155.712644 Z M424.260536,155.712644 C429.245911,155.712644 433.287356,159.754089 433.287356,164.739464 C433.287356,169.724839 429.245911,173.766284 424.260536,173.766284 C419.275161,173.766284 415.233716,169.724839 415.233716,164.739464 C415.233716,159.754089 419.275161,155.712644 424.260536,155.712644 Z M372.356322,155.712644 C377.341697,155.712644 381.383142,159.754089 381.383142,164.739464 C381.383142,169.724839 377.341697,173.766284 372.356322,173.766284 C367.370947,173.766284 363.329502,169.724839 363.329502,164.739464 C363.329502,159.754089 367.370947,155.712644 372.356322,155.712644 Z M164.739464,155.712644 C169.724839,155.712644 173.766284,159.754089 173.766284,164.739464 C173.766284,169.724839 169.724839,173.766284 164.739464,173.766284 C159.754089,173.766284 155.712644,169.724839 155.712644,164.739464 C155.712644,159.754089 159.754089,155.712644 164.739464,155.712644 Z M476.164751,155.712644 C481.150126,155.712644 485.191571,159.754089 485.191571,164.739464 C485.191571,169.724839 481.150126,173.766284 476.164751,173.766284 C471.179376,173.766284 467.137931,169.724839 467.137931,164.739464 C467.137931,159.754089 471.179376,155.712644 476.164751,155.712644 Z M216.643678,103.808429 C221.629053,103.808429 225.670498,107.849874 225.670498,112.835249 C225.670498,117.820624 221.629053,121.862069 216.643678,121.862069 C211.658303,121.862069 207.616858,117.820624 207.616858,112.835249 C207.616858,107.849874 211.658303,103.808429 216.643678,103.808429 Z M9.02681992,103.808429 C14.0121949,103.808429 18.0536398,107.849874 18.0536398,112.835249 C18.0536398,117.820624 14.0121949,121.862069 9.02681992,121.862069 C4.04144494,121.862069 -1.29674049e-13,117.820624 -1.29674049e-13,112.835249 C-1.29674049e-13,107.849874 4.04144494,103.808429 9.02681992,103.808429 Z M579.97318,103.808429 C584.958555,103.808429 589,107.849874 589,112.835249 C589,117.820624 584.958555,121.862069 579.97318,121.862069 C574.987805,121.862069 570.94636,117.820624 570.94636,112.835249 C570.94636,107.849874 574.987805,103.808429 579.97318,103.808429 Z M60.9310345,103.808429 C65.9164095,103.808429 69.9578544,107.849874 69.9578544,112.835249 C69.9578544,117.820624 65.9164095,121.862069 60.9310345,121.862069 C55.9456595,121.862069 51.9042146,117.820624 51.9042146,112.835249 C51.9042146,107.849874 55.9456595,103.808429 60.9310345,103.808429 Z M112.835249,103.808429 C117.820624,103.808429 121.862069,107.849874 121.862069,112.835249 C121.862069,117.820624 117.820624,121.862069 112.835249,121.862069 C107.849874,121.862069 103.808429,117.820624 103.808429,112.835249 C103.808429,107.849874 107.849874,103.808429 112.835249,103.808429 Z M528.068966,103.808429 C533.054341,103.808429 537.095785,107.849874 537.095785,112.835249 C537.095785,117.820624 533.054341,121.862069 528.068966,121.862069 C523.083591,121.862069 519.042146,117.820624 519.042146,112.835249 C519.042146,107.849874 523.083591,103.808429 528.068966,103.808429 Z M372.356322,103.808429 C377.341697,103.808429 381.383142,107.849874 381.383142,112.835249 C381.383142,117.820624 377.341697,121.862069 372.356322,121.862069 C367.370947,121.862069 363.329502,117.820624 363.329502,112.835249 C363.329502,107.849874 367.370947,103.808429 372.356322,103.808429 Z M164.739464,103.808429 C169.724839,103.808429 173.766284,107.849874 173.766284,112.835249 C173.766284,117.820624 169.724839,121.862069 164.739464,121.862069 C159.754089,121.862069 155.712644,117.820624 155.712644,112.835249 C155.712644,107.849874 159.754089,103.808429 164.739464,103.808429 Z M268.547893,103.808429 C273.533268,103.808429 277.574713,107.849874 277.574713,112.835249 C277.574713,117.820624 273.533268,121.862069 268.547893,121.862069 C263.562518,121.862069 259.521073,117.820624 259.521073,112.835249 C259.521073,107.849874 263.562518,103.808429 268.547893,103.808429 Z M424.260536,103.808429 C429.245911,103.808429 433.287356,107.849874 433.287356,112.835249 C433.287356,117.820624 429.245911,121.862069 424.260536,121.862069 C419.275161,121.862069 415.233716,117.820624 415.233716,112.835249 C415.233716,107.849874 419.275161,103.808429 424.260536,103.808429 Z M476.164751,103.808429 C481.150126,103.808429 485.191571,107.849874 485.191571,112.835249 C485.191571,117.820624 481.150126,121.862069 476.164751,121.862069 C471.179376,121.862069 467.137931,117.820624 467.137931,112.835249 C467.137931,107.849874 471.179376,103.808429 476.164751,103.808429 Z M320.452107,103.808429 C325.437482,103.808429 329.478927,107.849874 329.478927,112.835249 C329.478927,117.820624 325.437482,121.862069 320.452107,121.862069 C315.466732,121.862069 311.425287,117.820624 311.425287,112.835249 C311.425287,107.849874 315.466732,103.808429 320.452107,103.808429 Z M60.9310345,51.9042146 C65.9164095,51.9042146 69.9578544,55.9456595 69.9578544,60.9310345 C69.9578544,65.9164095 65.9164095,69.9578544 60.9310345,69.9578544 C55.9456595,69.9578544 51.9042146,65.9164095 51.9042146,60.9310345 C51.9042146,55.9456595 55.9456595,51.9042146 60.9310345,51.9042146 Z M372.356322,51.9042146 C377.341697,51.9042146 381.383142,55.9456595 381.383142,60.9310345 C381.383142,65.9164095 377.341697,69.9578544 372.356322,69.9578544 C367.370947,69.9578544 363.329502,65.9164095 363.329502,60.9310345 C363.329502,55.9456595 367.370947,51.9042146 372.356322,51.9042146 Z M579.97318,51.9042146 C584.958555,51.9042146 589,55.9456595 589,60.9310345 C589,65.9164095 584.958555,69.9578544 579.97318,69.9578544 C574.987805,69.9578544 570.94636,65.9164095 570.94636,60.9310345 C570.94636,55.9456595 574.987805,51.9042146 579.97318,51.9042146 Z M164.739464,51.9042146 C169.724839,51.9042146 173.766284,55.9456595 173.766284,60.9310345 C173.766284,65.9164095 169.724839,69.9578544 164.739464,69.9578544 C159.754089,69.9578544 155.712644,65.9164095 155.712644,60.9310345 C155.712644,55.9456595 159.754089,51.9042146 164.739464,51.9042146 Z M528.068966,51.9042146 C533.054341,51.9042146 537.095785,55.9456595 537.095785,60.9310345 C537.095785,65.9164095 533.054341,69.9578544 528.068966,69.9578544 C523.083591,69.9578544 519.042146,65.9164095 519.042146,60.9310345 C519.042146,55.9456595 523.083591,51.9042146 528.068966,51.9042146 Z M112.835249,51.9042146 C117.820624,51.9042146 121.862069,55.9456595 121.862069,60.9310345 C121.862069,65.9164095 117.820624,69.9578544 112.835249,69.9578544 C107.849874,69.9578544 103.808429,65.9164095 103.808429,60.9310345 C103.808429,55.9456595 107.849874,51.9042146 112.835249,51.9042146 Z M424.260536,51.9042146 C429.245911,51.9042146 433.287356,55.9456595 433.287356,60.9310345 C433.287356,65.9164095 429.245911,69.9578544 424.260536,69.9578544 C419.275161,69.9578544 415.233716,65.9164095 415.233716,60.9310345 C415.233716,55.9456595 419.275161,51.9042146 424.260536,51.9042146 Z M268.547893,51.9042146 C273.533268,51.9042146 277.574713,55.9456595 277.574713,60.9310345 C277.574713,65.9164095 273.533268,69.9578544 268.547893,69.9578544 C263.562518,69.9578544 259.521073,65.9164095 259.521073,60.9310345 C259.521073,55.9456595 263.562518,51.9042146 268.547893,51.9042146 Z M216.643678,51.9042146 C221.629053,51.9042146 225.670498,55.9456595 225.670498,60.9310345 C225.670498,65.9164095 221.629053,69.9578544 216.643678,69.9578544 C211.658303,69.9578544 207.616858,65.9164095 207.616858,60.9310345 C207.616858,55.9456595 211.658303,51.9042146 216.643678,51.9042146 Z M476.164751,51.9042146 C481.150126,51.9042146 485.191571,55.9456595 485.191571,60.9310345 C485.191571,65.9164095 481.150126,69.9578544 476.164751,69.9578544 C471.179376,69.9578544 467.137931,65.9164095 467.137931,60.9310345 C467.137931,55.9456595 471.179376,51.9042146 476.164751,51.9042146 Z M9.02681992,51.9042146 C14.0121949,51.9042146 18.0536398,55.9456595 18.0536398,60.9310345 C18.0536398,65.9164095 14.0121949,69.9578544 9.02681992,69.9578544 C4.04144494,69.9578544 -1.29674049e-13,65.9164095 -1.29674049e-13,60.9310345 C-1.29674049e-13,55.9456595 4.04144494,51.9042146 9.02681992,51.9042146 Z M320.452107,51.9042146 C325.437482,51.9042146 329.478927,55.9456595 329.478927,60.9310345 C329.478927,65.9164095 325.437482,69.9578544 320.452107,69.9578544 C315.466732,69.9578544 311.425287,65.9164095 311.425287,60.9310345 C311.425287,55.9456595 315.466732,51.9042146 320.452107,51.9042146 Z M9.02681992,3.26849658e-13 C14.0121949,3.26849658e-13 18.0536398,4.04144494 18.0536398,9.02681992 C18.0536398,14.0121949 14.0121949,18.0536398 9.02681992,18.0536398 C4.04144494,18.0536398 -1.29674049e-13,14.0121949 -1.29674049e-13,9.02681992 C-1.29674049e-13,4.04144494 4.04144494,3.26849658e-13 9.02681992,3.26849658e-13 Z M60.9310345,3.26849658e-13 C65.9164095,3.26849658e-13 69.9578544,4.04144494 69.9578544,9.02681992 C69.9578544,14.0121949 65.9164095,18.0536398 60.9310345,18.0536398 C55.9456595,18.0536398 51.9042146,14.0121949 51.9042146,9.02681992 C51.9042146,4.04144494 55.9456595,3.26849658e-13 60.9310345,3.26849658e-13 Z M112.835249,3.26849658e-13 C117.820624,3.26849658e-13 121.862069,4.04144494 121.862069,9.02681992 C121.862069,14.0121949 117.820624,18.0536398 112.835249,18.0536398 C107.849874,18.0536398 103.808429,14.0121949 103.808429,9.02681992 C103.808429,4.04144494 107.849874,3.26849658e-13 112.835249,3.26849658e-13 Z M164.739464,3.26849658e-13 C169.724839,3.26849658e-13 173.766284,4.04144494 173.766284,9.02681992 C173.766284,14.0121949 169.724839,18.0536398 164.739464,18.0536398 C159.754089,18.0536398 155.712644,14.0121949 155.712644,9.02681992 C155.712644,4.04144494 159.754089,3.26849658e-13 164.739464,3.26849658e-13 Z M216.643678,3.26849658e-13 C221.629053,3.26849658e-13 225.670498,4.04144494 225.670498,9.02681992 C225.670498,14.0121949 221.629053,18.0536398 216.643678,18.0536398 C211.658303,18.0536398 207.616858,14.0121949 207.616858,9.02681992 C207.616858,4.04144494 211.658303,3.26849658e-13 216.643678,3.26849658e-13 Z M268.547893,3.26849658e-13 C273.533268,3.26849658e-13 277.574713,4.04144494 277.574713,9.02681992 C277.574713,14.0121949 273.533268,18.0536398 268.547893,18.0536398 C263.562518,18.0536398 259.521073,14.0121949 259.521073,9.02681992 C259.521073,4.04144494 263.562518,3.26849658e-13 268.547893,3.26849658e-13 Z M320.452107,3.26849658e-13 C325.437482,3.26849658e-13 329.478927,4.04144494 329.478927,9.02681992 C329.478927,14.0121949 325.437482,18.0536398 320.452107,18.0536398 C315.466732,18.0536398 311.425287,14.0121949 311.425287,9.02681992 C311.425287,4.04144494 315.466732,3.26849658e-13 320.452107,3.26849658e-13 Z M372.356322,3.26849658e-13 C377.341697,3.26849658e-13 381.383142,4.04144494 381.383142,9.02681992 C381.383142,14.0121949 377.341697,18.0536398 372.356322,18.0536398 C367.370947,18.0536398 363.329502,14.0121949 363.329502,9.02681992 C363.329502,4.04144494 367.370947,3.26849658e-13 372.356322,3.26849658e-13 Z M424.260536,3.26849658e-13 C429.245911,3.26849658e-13 433.287356,4.04144494 433.287356,9.02681992 C433.287356,14.0121949 429.245911,18.0536398 424.260536,18.0536398 C419.275161,18.0536398 415.233716,14.0121949 415.233716,9.02681992 C415.233716,4.04144494 419.275161,3.26849658e-13 424.260536,3.26849658e-13 Z M476.164751,3.26849658e-13 C481.150126,3.26849658e-13 485.191571,4.04144494 485.191571,9.02681992 C485.191571,14.0121949 481.150126,18.0536398 476.164751,18.0536398 C471.179376,18.0536398 467.137931,14.0121949 467.137931,9.02681992 C467.137931,4.04144494 471.179376,3.26849658e-13 476.164751,3.26849658e-13 Z M528.068966,3.26849658e-13 C533.054341,3.26849658e-13 537.095785,4.04144494 537.095785,9.02681992 C537.095785,14.0121949 533.054341,18.0536398 528.068966,18.0536398 C523.083591,18.0536398 519.042146,14.0121949 519.042146,9.02681992 C519.042146,4.04144494 523.083591,3.26849658e-13 528.068966,3.26849658e-13 Z M579.97318,3.26849658e-13 C584.958555,3.26849658e-13 589,4.04144494 589,9.02681992 C589,14.0121949 584.958555,18.0536398 579.97318,18.0536398 C574.987805,18.0536398 570.94636,14.0121949 570.94636,9.02681992 C570.94636,4.04144494 574.987805,3.26849658e-13 579.97318,3.26849658e-13 Z" transform="translate(224 477)"/>
    <circle cx="508.5" cy="265.5" r="144.5" stroke="url(#nbb-bg-a-dark-b)" stroke-width="6" opacity=".305"/>
    <circle cx="283" cy="59" r="55" stroke="url(#nbb-bg-a-dark-c)" stroke-width="8"/>
    <circle cx="567" cy="1190" r="53" stroke="url(#nbb-bg-a-dark-d)" stroke-width="12"/>
    <circle cx="214" cy="1473" r="58" stroke="url(#nbb-bg-a-dark-c)" stroke-width="2" opacity=".2"/>
    <path stroke="url(#nbb-bg-a-dark-e)" stroke-linecap="round" stroke-linejoin="round" stroke-width="4" d="M310,288 L0,288" opacity=".301"/>
    <path stroke="url(#nbb-bg-a-dark-f)" stroke-linecap="round" stroke-linejoin="round" stroke-width="4" d="M994,1367.73138 L456,1367.26862" opacity=".8"/>
    <path stroke="url(#nbb-bg-a-dark-g)" stroke-linecap="round" stroke-linejoin="round" stroke-width="4" d="M1270.4658,423.299957 L826.43356,422.803096" opacity=".701" transform="rotate(134.942 1048.45 423.052)"/>
  </g>
</svg>
