<svg height="1109" viewBox="0 0 1233 1109" width="1233" xmlns="http://www.w3.org/2000/svg" xmlns:xlink="http://www.w3.org/1999/xlink"><linearGradient id="a"><stop offset="0" stop-color="#2a6cbe" stop-opacity="0"/><stop offset="1" stop-color="#1851be" stop-opacity=".9"/></linearGradient><linearGradient id="b" x1="50.008%" x2="50.007%" xlink:href="#a" y1="0%" y2="100%"/><linearGradient id="c" x1="50%" x2="50%" y1="0%" y2="100%"><stop offset="0" stop-color="#3f6abc"/><stop offset="1" stop-color="#1851be"/></linearGradient><linearGradient id="d" x1="50.008%" x2="50.007%" y1="0%" y2="100%"><stop offset="0" stop-color="#1851be" stop-opacity=".9"/><stop offset=".14646" stop-color="#1956bc" stop-opacity=".8"/><stop offset=".33417" stop-color="#1c5abd" stop-opacity=".7"/><stop offset=".61312" stop-color="#2062bc" stop-opacity=".496"/><stop offset="1" stop-color="#2a6cbe" stop-opacity=".381"/></linearGradient><linearGradient id="e" x1="50%" x2="50%" xlink:href="#a" y1="0%" y2="100%"/><linearGradient id="f" x1="6.583%" x2="92.498%" xlink:href="#a" y1="0%" y2="0%"/><linearGradient id="g" x1="11.48%" x2="96.624%" xlink:href="#a" y1="0%" y2="0%"/><g fill="none" fill-rule="evenodd"><path d="m157.233716 280.141762c2.446135 0 4.429119 1.982984 4.429119 4.429119s-1.982984 4.429119-4.429119 4.429119c-2.446134 0-4.429118-1.982984-4.429118-4.429119s1.982984-4.429119 4.429118-4.429119zm25.467433 0c2.446135 0 4.429119 1.982984 4.429119 4.429119s-1.982984 4.429119-4.429119 4.429119c-2.446134 0-4.429118-1.982984-4.429118-4.429119s1.982984-4.429119 4.429118-4.429119zm25.467433 0c2.446135 0 4.429119 1.982984 4.429119 4.429119s-1.982984 4.429119-4.429119 4.429119c-2.446134 0-4.429118-1.982984-4.429118-4.429119s1.982984-4.429119 4.429118-4.429119zm25.467433 0c2.446135 0 4.429119 1.982984 4.429119 4.429119s-1.982984 4.429119-4.429119 4.429119c-2.446134 0-4.429118-1.982984-4.429118-4.429119s1.982984-4.429119 4.429118-4.429119zm25.467433 0c2.446135 0 4.429119 1.982984 4.429119 4.429119s-1.982984 4.429119-4.429119 4.429119c-2.446134 0-4.429118-1.982984-4.429118-4.429119s1.982984-4.429119 4.429118-4.429119zm25.467433 0c2.446135 0 4.429119 1.982984 4.429119 4.429119s-1.982984 4.429119-4.429119 4.429119-4.429119-1.982984-4.429119-4.429119 1.982984-4.429119 4.429119-4.429119zm-280.14176223 0c2.44613476 0 4.42911878 1.982984 4.42911878 4.429119s-1.98298402 4.429119-4.42911878 4.429119c-2.44613475 0-4.42911877-1.982984-4.42911877-4.429119s1.98298402-4.429119 4.42911877-4.429119zm25.46743293 0c2.4461348 0 4.4291188 1.982984 4.4291188 4.429119s-1.982984 4.429119-4.4291188 4.429119c-2.4461347 0-4.4291187-1.982984-4.4291187-4.429119s1.982984-4.429119 4.4291187-4.429119zm25.467433 0c2.4461347 0 4.4291187 1.982984 4.4291187 4.429119s-1.982984 4.429119-4.4291187 4.429119c-2.4461348 0-4.4291188-1.982984-4.4291188-4.429119s1.982984-4.429119 4.4291188-4.429119zm25.4674329 0c2.4461348 0 4.4291188 1.982984 4.4291188 4.429119s-1.982984 4.429119-4.4291188 4.429119c-2.4461347 0-4.4291187-1.982984-4.4291187-4.429119s1.982984-4.429119 4.4291187-4.429119zm25.4674334 0c2.446134 0 4.429118 1.982984 4.429118 4.429119s-1.982984 4.429119-4.429118 4.429119c-2.446135 0-4.429119-1.982984-4.429119-4.429119s1.982984-4.429119 4.429119-4.429119zm25.467433 0c2.446134 0 4.429118 1.982984 4.429118 4.429119s-1.982984 4.429119-4.429118 4.429119c-2.446135 0-4.429119-1.982984-4.429119-4.429119s1.982984-4.429119 4.429119-4.429119zm-127.33716523-25.467432c2.44613476 0 4.42911878 1.982984 4.42911878 4.429118 0 2.446135-1.98298402 4.429119-4.42911878 4.429119-2.44613475 0-4.42911877-1.982984-4.42911877-4.429119 0-2.446134 1.98298402-4.429118 4.42911877-4.429118zm25.46743293 0c2.4461348 0 4.4291188 1.982984 4.4291188 4.429118 0 2.446135-1.982984 4.429119-4.4291188 4.429119-2.4461347 0-4.4291187-1.982984-4.4291187-4.429119 0-2.446134 1.982984-4.429118 4.4291187-4.429118zm25.467433 0c2.4461347 0 4.4291187 1.982984 4.4291187 4.429118 0 2.446135-1.982984 4.429119-4.4291187 4.429119-2.4461348 0-4.4291188-1.982984-4.4291188-4.429119 0-2.446134 1.982984-4.429118 4.4291188-4.429118zm178.2720303 0c2.446135 0 4.429119 1.982984 4.429119 4.429118 0 2.446135-1.982984 4.429119-4.429119 4.429119-2.446134 0-4.429118-1.982984-4.429118-4.429119 0-2.446134 1.982984-4.429118 4.429118-4.429118zm25.467433 0c2.446135 0 4.429119 1.982984 4.429119 4.429118 0 2.446135-1.982984 4.429119-4.429119 4.429119-2.446134 0-4.429118-1.982984-4.429118-4.429119 0-2.446134 1.982984-4.429118 4.429118-4.429118zm25.467433 0c2.446135 0 4.429119 1.982984 4.429119 4.429118 0 2.446135-1.982984 4.429119-4.429119 4.429119s-4.429119-1.982984-4.429119-4.429119c0-2.446134 1.982984-4.429118 4.429119-4.429118zm-203.7394634 0c2.4461348 0 4.4291188 1.982984 4.4291188 4.429118 0 2.446135-1.982984 4.429119-4.4291188 4.429119-2.4461347 0-4.4291187-1.982984-4.4291187-4.429119 0-2.446134 1.982984-4.429118 4.4291187-4.429118zm25.4674334 0c2.446134 0 4.429118 1.982984 4.429118 4.429118 0 2.446135-1.982984 4.429119-4.429118 4.429119-2.446135 0-4.429119-1.982984-4.429119-4.429119 0-2.446134 1.982984-4.429118 4.429119-4.429118zm25.467433 0c2.446134 0 4.429118 1.982984 4.429118 4.429118 0 2.446135-1.982984 4.429119-4.429118 4.429119-2.446135 0-4.429119-1.982984-4.429119-4.429119 0-2.446134 1.982984-4.429118 4.429119-4.429118zm25.467432 0c2.446135 0 4.429119 1.982984 4.429119 4.429118 0 2.446135-1.982984 4.429119-4.429119 4.429119-2.446134 0-4.429118-1.982984-4.429118-4.429119 0-2.446134 1.982984-4.429118 4.429118-4.429118zm25.467433 0c2.446135 0 4.429119 1.982984 4.429119 4.429118 0 2.446135-1.982984 4.429119-4.429119 4.429119-2.446134 0-4.429118-1.982984-4.429118-4.429119 0-2.446134 1.982984-4.429118 4.429118-4.429118zm25.467433 0c2.446135 0 4.429119 1.982984 4.429119 4.429118 0 2.446135-1.982984 4.429119-4.429119 4.429119-2.446134 0-4.429118-1.982984-4.429118-4.429119 0-2.446134 1.982984-4.429118 4.429118-4.429118zm25.467433-25.467433c2.446135 0 4.429119 1.982984 4.429119 4.429118 0 2.446135-1.982984 4.429119-4.429119 4.429119-2.446134 0-4.429118-1.982984-4.429118-4.429119 0-2.446134 1.982984-4.429118 4.429118-4.429118zm-50.934866 0c2.446135 0 4.429119 1.982984 4.429119 4.429118 0 2.446135-1.982984 4.429119-4.429119 4.429119-2.446134 0-4.429118-1.982984-4.429118-4.429119 0-2.446134 1.982984-4.429118 4.429118-4.429118zm76.402299 0c2.446135 0 4.429119 1.982984 4.429119 4.429118 0 2.446135-1.982984 4.429119-4.429119 4.429119-2.446134 0-4.429118-1.982984-4.429118-4.429119 0-2.446134 1.982984-4.429118 4.429118-4.429118zm-178.2720304 0c2.4461348 0 4.4291188 1.982984 4.4291188 4.429118 0 2.446135-1.982984 4.429119-4.4291188 4.429119-2.4461347 0-4.4291187-1.982984-4.4291187-4.429119 0-2.446134 1.982984-4.429118 4.4291187-4.429118zm-76.40229883 0c2.44613476 0 4.42911878 1.982984 4.42911878 4.429118 0 2.446135-1.98298402 4.429119-4.42911878 4.429119-2.44613475 0-4.42911877-1.982984-4.42911877-4.429119 0-2.446134 1.98298402-4.429118 4.42911877-4.429118zm101.86973223 0c2.446134 0 4.429118 1.982984 4.429118 4.429118 0 2.446135-1.982984 4.429119-4.429118 4.429119-2.446135 0-4.429119-1.982984-4.429119-4.429119 0-2.446134 1.982984-4.429118 4.429119-4.429118zm101.869731 0c2.446135 0 4.429119 1.982984 4.429119 4.429118 0 2.446135-1.982984 4.429119-4.429119 4.429119-2.446134 0-4.429118-1.982984-4.429118-4.429119 0-2.446134 1.982984-4.429118 4.429118-4.429118zm-178.2720303 0c2.4461348 0 4.4291188 1.982984 4.4291188 4.429118 0 2.446135-1.982984 4.429119-4.4291188 4.429119-2.4461347 0-4.4291187-1.982984-4.4291187-4.429119 0-2.446134 1.982984-4.429118 4.4291187-4.429118zm101.8697323 0c2.446134 0 4.429118 1.982984 4.429118 4.429118 0 2.446135-1.982984 4.429119-4.429118 4.429119-2.446135 0-4.429119-1.982984-4.429119-4.429119 0-2.446134 1.982984-4.429118 4.429119-4.429118zm25.467432 0c2.446135 0 4.429119 1.982984 4.429119 4.429118 0 2.446135-1.982984 4.429119-4.429119 4.429119-2.446134 0-4.429118-1.982984-4.429118-4.429119 0-2.446134 1.982984-4.429118 4.429118-4.429118zm127.337165 0c2.446135 0 4.429119 1.982984 4.429119 4.429118 0 2.446135-1.982984 4.429119-4.429119 4.429119s-4.429119-1.982984-4.429119-4.429119c0-2.446134 1.982984-4.429118 4.429119-4.429118zm-229.2068963 0c2.4461347 0 4.4291187 1.982984 4.4291187 4.429118 0 2.446135-1.982984 4.429119-4.4291187 4.429119-2.4461348 0-4.4291188-1.982984-4.4291188-4.429119 0-2.446134 1.982984-4.429118 4.4291188-4.429118zm-25.467433-25.467433c2.4461348 0 4.4291188 1.982984 4.4291188 4.429118 0 2.446135-1.982984 4.429119-4.4291188 4.429119-2.4461347 0-4.4291187-1.982984-4.4291187-4.429119 0-2.446134 1.982984-4.429118 4.4291187-4.429118zm50.9348659 0c2.4461348 0 4.4291188 1.982984 4.4291188 4.429118 0 2.446135-1.982984 4.429119-4.4291188 4.429119-2.4461347 0-4.4291187-1.982984-4.4291187-4.429119 0-2.446134 1.982984-4.429118 4.4291187-4.429118zm50.9348664 0c2.446134 0 4.429118 1.982984 4.429118 4.429118 0 2.446135-1.982984 4.429119-4.429118 4.429119-2.446135 0-4.429119-1.982984-4.429119-4.429119 0-2.446134 1.982984-4.429118 4.429119-4.429118zm101.869731 0c2.446135 0 4.429119 1.982984 4.429119 4.429118 0 2.446135-1.982984 4.429119-4.429119 4.429119-2.446134 0-4.429118-1.982984-4.429118-4.429119 0-2.446134 1.982984-4.429118 4.429118-4.429118zm-76.402299 0c2.446135 0 4.429119 1.982984 4.429119 4.429118 0 2.446135-1.982984 4.429119-4.429119 4.429119-2.446134 0-4.429118-1.982984-4.429118-4.429119 0-2.446134 1.982984-4.429118 4.429118-4.429118zm50.934866 0c2.446135 0 4.429119 1.982984 4.429119 4.429118 0 2.446135-1.982984 4.429119-4.429119 4.429119-2.446134 0-4.429118-1.982984-4.429118-4.429119 0-2.446134 1.982984-4.429118 4.429118-4.429118zm-203.73946323 0c2.44613476 0 4.42911878 1.982984 4.42911878 4.429118 0 2.446135-1.98298402 4.429119-4.42911878 4.429119-2.44613475 0-4.42911877-1.982984-4.42911877-4.429119 0-2.446134 1.98298402-4.429118 4.42911877-4.429118zm50.93486593 0c2.4461347 0 4.4291187 1.982984 4.4291187 4.429118 0 2.446135-1.982984 4.429119-4.4291187 4.429119-2.4461348 0-4.4291188-1.982984-4.4291188-4.429119 0-2.446134 1.982984-4.429118 4.4291188-4.429118zm229.2068963 0c2.446135 0 4.429119 1.982984 4.429119 4.429118 0 2.446135-1.982984 4.429119-4.429119 4.429119s-4.429119-1.982984-4.429119-4.429119c0-2.446134 1.982984-4.429118 4.429119-4.429118zm-101.869732 0c2.446135 0 4.429119 1.982984 4.429119 4.429118 0 2.446135-1.982984 4.429119-4.429119 4.429119-2.446134 0-4.429118-1.982984-4.429118-4.429119 0-2.446134 1.982984-4.429118 4.429118-4.429118zm-76.402298 0c2.446134 0 4.429118 1.982984 4.429118 4.429118 0 2.446135-1.982984 4.429119-4.429118 4.429119-2.446135 0-4.429119-1.982984-4.429119-4.429119 0-2.446134 1.982984-4.429118 4.429119-4.429118zm152.804597 0c2.446135 0 4.429119 1.982984 4.429119 4.429118 0 2.446135-1.982984 4.429119-4.429119 4.429119-2.446134 0-4.429118-1.982984-4.429118-4.429119 0-2.446134 1.982984-4.429118 4.429118-4.429118zm25.467433-25.467433c2.446135 0 4.429119 1.982984 4.429119 4.429118 0 2.446135-1.982984 4.429119-4.429119 4.429119s-4.429119-1.982984-4.429119-4.429119c0-2.446134 1.982984-4.429118 4.429119-4.429118zm-76.402299 0c2.446135 0 4.429119 1.982984 4.429119 4.429118 0 2.446135-1.982984 4.429119-4.429119 4.429119-2.446134 0-4.429118-1.982984-4.429118-4.429119 0-2.446134 1.982984-4.429118 4.429118-4.429118zm-127.3371644 0c2.4461348 0 4.4291188 1.982984 4.4291188 4.429118 0 2.446135-1.982984 4.429119-4.4291188 4.429119-2.4461347 0-4.4291187-1.982984-4.4291187-4.429119 0-2.446134 1.982984-4.429118 4.4291187-4.429118zm178.2720304 0c2.446135 0 4.429119 1.982984 4.429119 4.429118 0 2.446135-1.982984 4.429119-4.429119 4.429119-2.446134 0-4.429118-1.982984-4.429118-4.429119 0-2.446134 1.982984-4.429118 4.429118-4.429118zm-76.402299 0c2.446135 0 4.429119 1.982984 4.429119 4.429118 0 2.446135-1.982984 4.429119-4.429119 4.429119-2.446134 0-4.429118-1.982984-4.429118-4.429119 0-2.446134 1.982984-4.429118 4.429118-4.429118zm-152.8045973 0c2.4461348 0 4.4291188 1.982984 4.4291188 4.429118 0 2.446135-1.982984 4.429119-4.4291188 4.429119-2.4461347 0-4.4291187-1.982984-4.4291187-4.429119 0-2.446134 1.982984-4.429118 4.4291187-4.429118zm-25.46743293 0c2.44613476 0 4.42911878 1.982984 4.42911878 4.429118 0 2.446135-1.98298402 4.429119-4.42911878 4.429119-2.44613475 0-4.42911877-1.982984-4.42911877-4.429119 0-2.446134 1.98298402-4.429118 4.42911877-4.429118zm229.20689623 0c2.446135 0 4.429119 1.982984 4.429119 4.429118 0 2.446135-1.982984 4.429119-4.429119 4.429119-2.446134 0-4.429118-1.982984-4.429118-4.429119 0-2.446134 1.982984-4.429118 4.429118-4.429118zm-76.402299 0c2.446135 0 4.429119 1.982984 4.429119 4.429118 0 2.446135-1.982984 4.429119-4.429119 4.429119-2.446134 0-4.429118-1.982984-4.429118-4.429119 0-2.446134 1.982984-4.429118 4.429118-4.429118zm-50.934865 0c2.446134 0 4.429118 1.982984 4.429118 4.429118 0 2.446135-1.982984 4.429119-4.429118 4.429119-2.446135 0-4.429119-1.982984-4.429119-4.429119 0-2.446134 1.982984-4.429118 4.429119-4.429118zm25.467433 0c2.446134 0 4.429118 1.982984 4.429118 4.429118 0 2.446135-1.982984 4.429119-4.429118 4.429119-2.446135 0-4.429119-1.982984-4.429119-4.429119 0-2.446134 1.982984-4.429118 4.429119-4.429118zm-76.4022993 0c2.4461347 0 4.4291187 1.982984 4.4291187 4.429118 0 2.446135-1.982984 4.429119-4.4291187 4.429119-2.4461348 0-4.4291188-1.982984-4.4291188-4.429119 0-2.446134 1.982984-4.429118 4.4291188-4.429118zm-50.93486593-25.467433c2.44613476 0 4.42911878 1.982984 4.42911878 4.429118 0 2.446135-1.98298402 4.429119-4.42911878 4.429119-2.44613475 0-4.42911877-1.982984-4.42911877-4.429119 0-2.446134 1.98298402-4.429118 4.42911877-4.429118zm25.46743293 0c2.4461348 0 4.4291188 1.982984 4.4291188 4.429118 0 2.446135-1.982984 4.429119-4.4291188 4.429119-2.4461347 0-4.4291187-1.982984-4.4291187-4.429119 0-2.446134 1.982984-4.429118 4.4291187-4.429118zm25.467433 0c2.4461347 0 4.4291187 1.982984 4.4291187 4.429118 0 2.446135-1.982984 4.429119-4.4291187 4.429119-2.4461348 0-4.4291188-1.982984-4.4291188-4.429119 0-2.446134 1.982984-4.429118 4.4291188-4.429118zm203.7394633 0c2.446135 0 4.429119 1.982984 4.429119 4.429118 0 2.446135-1.982984 4.429119-4.429119 4.429119-2.446134 0-4.429118-1.982984-4.429118-4.429119 0-2.446134 1.982984-4.429118 4.429118-4.429118zm25.467433 0c2.446135 0 4.429119 1.982984 4.429119 4.429118 0 2.446135-1.982984 4.429119-4.429119 4.429119s-4.429119-1.982984-4.429119-4.429119c0-2.446134 1.982984-4.429118 4.429119-4.429118zm-76.402299 0c2.446135 0 4.429119 1.982984 4.429119 4.429118 0 2.446135-1.982984 4.429119-4.429119 4.429119-2.446134 0-4.429118-1.982984-4.429118-4.429119 0-2.446134 1.982984-4.429118 4.429118-4.429118zm25.467433 0c2.446135 0 4.429119 1.982984 4.429119 4.429118 0 2.446135-1.982984 4.429119-4.429119 4.429119-2.446134 0-4.429118-1.982984-4.429118-4.429119 0-2.446134 1.982984-4.429118 4.429118-4.429118zm-50.934866 0c2.446135 0 4.429119 1.982984 4.429119 4.429118 0 2.446135-1.982984 4.429119-4.429119 4.429119-2.446134 0-4.429118-1.982984-4.429118-4.429119 0-2.446134 1.982984-4.429118 4.429118-4.429118zm-76.402298 0c2.446134 0 4.429118 1.982984 4.429118 4.429118 0 2.446135-1.982984 4.429119-4.429118 4.429119-2.446135 0-4.429119-1.982984-4.429119-4.429119 0-2.446134 1.982984-4.429118 4.429119-4.429118zm50.934865 0c2.446135 0 4.429119 1.982984 4.429119 4.429118 0 2.446135-1.982984 4.429119-4.429119 4.429119-2.446134 0-4.429118-1.982984-4.429118-4.429119 0-2.446134 1.982984-4.429118 4.429118-4.429118zm-76.4022984 0c2.4461348 0 4.4291188 1.982984 4.4291188 4.429118 0 2.446135-1.982984 4.429119-4.4291188 4.429119-2.4461347 0-4.4291187-1.982984-4.4291187-4.429119 0-2.446134 1.982984-4.429118 4.4291187-4.429118zm50.9348664 0c2.446134 0 4.429118 1.982984 4.429118 4.429118 0 2.446135-1.982984 4.429119-4.429118 4.429119-2.446135 0-4.429119-1.982984-4.429119-4.429119 0-2.446134 1.982984-4.429118 4.429119-4.429118zm25.467432-25.467433c2.446135 0 4.429119 1.982984 4.429119 4.429119 0 2.446134-1.982984 4.429118-4.429119 4.429118-2.446134 0-4.429118-1.982984-4.429118-4.429118 0-2.446135 1.982984-4.429119 4.429118-4.429119zm-101.8697313 0c2.4461347 0 4.4291187 1.982984 4.4291187 4.429119 0 2.446134-1.982984 4.429118-4.4291187 4.429118-2.4461348 0-4.4291188-1.982984-4.4291188-4.429118 0-2.446135 1.982984-4.429119 4.4291188-4.429119zm76.4022993 0c2.446134 0 4.429118 1.982984 4.429118 4.429119 0 2.446134-1.982984 4.429118-4.429118 4.429118-2.446135 0-4.429119-1.982984-4.429119-4.429118 0-2.446135 1.982984-4.429119 4.429119-4.429119zm152.804597 0c2.446135 0 4.429119 1.982984 4.429119 4.429119 0 2.446134-1.982984 4.429118-4.429119 4.429118s-4.429119-1.982984-4.429119-4.429118c0-2.446135 1.982984-4.429119 4.429119-4.429119zm-254.6743293 0c2.4461348 0 4.4291188 1.982984 4.4291188 4.429119 0 2.446134-1.982984 4.429118-4.4291188 4.429118-2.4461347 0-4.4291187-1.982984-4.4291187-4.429118 0-2.446135 1.982984-4.429119 4.4291187-4.429119zm-25.46743293 0c2.44613476 0 4.42911878 1.982984 4.42911878 4.429119 0 2.446134-1.98298402 4.429118-4.42911878 4.429118-2.44613475 0-4.42911877-1.982984-4.42911877-4.429118 0-2.446135 1.98298402-4.429119 4.42911877-4.429119zm76.40229883 0c2.4461348 0 4.4291188 1.982984 4.4291188 4.429119 0 2.446134-1.982984 4.429118-4.4291188 4.429118-2.4461347 0-4.4291187-1.982984-4.4291187-4.429118 0-2.446135 1.982984-4.429119 4.4291187-4.429119zm101.8697314 0c2.446135 0 4.429119 1.982984 4.429119 4.429119 0 2.446134-1.982984 4.429118-4.429119 4.429118-2.446134 0-4.429118-1.982984-4.429118-4.429118 0-2.446135 1.982984-4.429119 4.429118-4.429119zm-76.402298 0c2.446134 0 4.429118 1.982984 4.429118 4.429119 0 2.446134-1.982984 4.429118-4.429118 4.429118-2.446135 0-4.429119-1.982984-4.429119-4.429118 0-2.446135 1.982984-4.429119 4.429119-4.429119zm127.337164 0c2.446135 0 4.429119 1.982984 4.429119 4.429119 0 2.446134-1.982984 4.429118-4.429119 4.429118-2.446134 0-4.429118-1.982984-4.429118-4.429118 0-2.446135 1.982984-4.429119 4.429118-4.429119zm25.467433 0c2.446135 0 4.429119 1.982984 4.429119 4.429119 0 2.446134-1.982984 4.429118-4.429119 4.429118-2.446134 0-4.429118-1.982984-4.429118-4.429118 0-2.446135 1.982984-4.429119 4.429118-4.429119zm-50.934866 0c2.446135 0 4.429119 1.982984 4.429119 4.429119 0 2.446134-1.982984 4.429118-4.429119 4.429118-2.446134 0-4.429118-1.982984-4.429118-4.429118 0-2.446135 1.982984-4.429119 4.429118-4.429119zm-101.869731-25.467433c2.446134 0 4.429118 1.982984 4.429118 4.429119 0 2.446134-1.982984 4.429118-4.429118 4.429118-2.446135 0-4.429119-1.982984-4.429119-4.429118 0-2.446135 1.982984-4.429119 4.429119-4.429119zm127.337164 0c2.446135 0 4.429119 1.982984 4.429119 4.429119 0 2.446134-1.982984 4.429118-4.429119 4.429118-2.446134 0-4.429118-1.982984-4.429118-4.429118 0-2.446135 1.982984-4.429119 4.429118-4.429119zm25.467433 0c2.446135 0 4.429119 1.982984 4.429119 4.429119 0 2.446134-1.982984 4.429118-4.429119 4.429118-2.446134 0-4.429118-1.982984-4.429118-4.429118 0-2.446135 1.982984-4.429119 4.429118-4.429119zm-127.337164 0c2.446134 0 4.429118 1.982984 4.429118 4.429119 0 2.446134-1.982984 4.429118-4.429118 4.429118-2.446135 0-4.429119-1.982984-4.429119-4.429118 0-2.446135 1.982984-4.429119 4.429119-4.429119zm-127.33716523 0c2.44613476 0 4.42911878 1.982984 4.42911878 4.429119 0 2.446134-1.98298402 4.429118-4.42911878 4.429118-2.44613475 0-4.42911877-1.982984-4.42911877-4.429118 0-2.446135 1.98298402-4.429119 4.42911877-4.429119zm280.14176223 0c2.446135 0 4.429119 1.982984 4.429119 4.429119 0 2.446134-1.982984 4.429118-4.429119 4.429118s-4.429119-1.982984-4.429119-4.429118c0-2.446135 1.982984-4.429119 4.429119-4.429119zm-203.7394634 0c2.4461348 0 4.4291188 1.982984 4.4291188 4.429119 0 2.446134-1.982984 4.429118-4.4291188 4.429118-2.4461347 0-4.4291187-1.982984-4.4291187-4.429118 0-2.446135 1.982984-4.429119 4.4291187-4.429119zm-50.9348659 0c2.4461348 0 4.4291188 1.982984 4.4291188 4.429119 0 2.446134-1.982984 4.429118-4.4291188 4.429118-2.4461347 0-4.4291187-1.982984-4.4291187-4.429118 0-2.446135 1.982984-4.429119 4.4291187-4.429119zm178.2720303 0c2.446135 0 4.429119 1.982984 4.429119 4.429119 0 2.446134-1.982984 4.429118-4.429119 4.429118-2.446134 0-4.429118-1.982984-4.429118-4.429118 0-2.446135 1.982984-4.429119 4.429118-4.429119zm-50.934866 0c2.446135 0 4.429119 1.982984 4.429119 4.429119 0 2.446134-1.982984 4.429118-4.429119 4.429118-2.446134 0-4.429118-1.982984-4.429118-4.429118 0-2.446135 1.982984-4.429119 4.429118-4.429119zm-101.8697313 0c2.4461347 0 4.4291187 1.982984 4.4291187 4.429119 0 2.446134-1.982984 4.429118-4.4291187 4.429118-2.4461348 0-4.4291188-1.982984-4.4291188-4.429118 0-2.446135 1.982984-4.429119 4.4291188-4.429119zm127.3371643 0c2.446135 0 4.429119 1.982984 4.429119 4.429119 0 2.446134-1.982984 4.429118-4.429119 4.429118-2.446134 0-4.429118-1.982984-4.429118-4.429118 0-2.446135 1.982984-4.429119 4.429118-4.429119zm-25.467433-25.4674331c2.446135 0 4.429119 1.982984 4.429119 4.4291187 0 2.4461348-1.982984 4.4291188-4.429119 4.4291188-2.446134 0-4.429118-1.982984-4.429118-4.4291188 0-2.4461347 1.982984-4.4291187 4.429118-4.4291187zm-101.8697313 0c2.4461347 0 4.4291187 1.982984 4.4291187 4.4291187 0 2.4461348-1.982984 4.4291188-4.4291187 4.4291188-2.4461348 0-4.4291188-1.982984-4.4291188-4.4291188 0-2.4461347 1.982984-4.4291187 4.4291188-4.4291187zm50.9348663 0c2.446134 0 4.429118 1.982984 4.429118 4.4291187 0 2.4461348-1.982984 4.4291188-4.429118 4.4291188-2.446135 0-4.429119-1.982984-4.429119-4.4291188 0-2.4461347 1.982984-4.4291187 4.429119-4.4291187zm-76.4022993 0c2.4461348 0 4.4291188 1.982984 4.4291188 4.4291187 0 2.4461348-1.982984 4.4291188-4.4291188 4.4291188-2.4461347 0-4.4291187-1.982984-4.4291187-4.4291188 0-2.4461347 1.982984-4.4291187 4.4291187-4.4291187zm101.8697323 0c2.446134 0 4.429118 1.982984 4.429118 4.4291187 0 2.4461348-1.982984 4.4291188-4.429118 4.4291188-2.446135 0-4.429119-1.982984-4.429119-4.4291188 0-2.4461347 1.982984-4.4291187 4.429119-4.4291187zm152.804597 0c2.446135 0 4.429119 1.982984 4.429119 4.4291187 0 2.4461348-1.982984 4.4291188-4.429119 4.4291188s-4.429119-1.982984-4.429119-4.4291188c0-2.4461347 1.982984-4.4291187 4.429119-4.4291187zm-25.467433 0c2.446135 0 4.429119 1.982984 4.429119 4.4291187 0 2.4461348-1.982984 4.4291188-4.429119 4.4291188-2.446134 0-4.429118-1.982984-4.429118-4.4291188 0-2.4461347 1.982984-4.4291187 4.429118-4.4291187zm-254.67432923 0c2.44613476 0 4.42911878 1.982984 4.42911878 4.4291187 0 2.4461348-1.98298402 4.4291188-4.42911878 4.4291188-2.44613475 0-4.42911877-1.982984-4.42911877-4.4291188 0-2.4461347 1.98298402-4.4291187 4.42911877-4.4291187zm203.73946323 0c2.446135 0 4.429119 1.982984 4.429119 4.4291187 0 2.4461348-1.982984 4.4291188-4.429119 4.4291188-2.446134 0-4.429118-1.982984-4.429118-4.4291188 0-2.4461347 1.982984-4.4291187 4.429118-4.4291187zm-25.467433 0c2.446135 0 4.429119 1.982984 4.429119 4.4291187 0 2.4461348-1.982984 4.4291188-4.429119 4.4291188-2.446134 0-4.429118-1.982984-4.429118-4.4291188 0-2.4461347 1.982984-4.4291187 4.429118-4.4291187zm-101.8697314 0c2.4461348 0 4.4291188 1.982984 4.4291188 4.4291187 0 2.4461348-1.982984 4.4291188-4.4291188 4.4291188-2.4461347 0-4.4291187-1.982984-4.4291187-4.4291188 0-2.4461347 1.982984-4.4291187 4.4291187-4.4291187zm152.8045974 0c2.446135 0 4.429119 1.982984 4.429119 4.4291187 0 2.4461348-1.982984 4.4291188-4.429119 4.4291188-2.446134 0-4.429118-1.982984-4.429118-4.4291188 0-2.4461347 1.982984-4.4291187 4.429118-4.4291187zm-127.337164-25.467433c2.446134 0 4.429118 1.982984 4.429118 4.4291188 0 2.4461347-1.982984 4.4291187-4.429118 4.4291187-2.446135 0-4.429119-1.982984-4.429119-4.4291187 0-2.4461348 1.982984-4.4291188 4.429119-4.4291188zm-101.86973223 0c2.44613476 0 4.42911878 1.982984 4.42911878 4.4291188 0 2.4461347-1.98298402 4.4291187-4.42911878 4.4291187-2.44613475 0-4.42911877-1.982984-4.42911877-4.4291187 0-2.4461348 1.98298402-4.4291188 4.42911877-4.4291188zm280.14176223 0c2.446135 0 4.429119 1.982984 4.429119 4.4291188 0 2.4461347-1.982984 4.4291187-4.429119 4.4291187s-4.429119-1.982984-4.429119-4.4291187c0-2.4461348 1.982984-4.4291188 4.429119-4.4291188zm-254.6743293 0c2.4461348 0 4.4291188 1.982984 4.4291188 4.4291188 0 2.4461347-1.982984 4.4291187-4.4291188 4.4291187-2.4461347 0-4.4291187-1.982984-4.4291187-4.4291187 0-2.4461348 1.982984-4.4291188 4.4291187-4.4291188zm25.467433 0c2.4461347 0 4.4291187 1.982984 4.4291187 4.4291188 0 2.4461347-1.982984 4.4291187-4.4291187 4.4291187-2.4461348 0-4.4291188-1.982984-4.4291188-4.4291187 0-2.4461348 1.982984-4.4291188 4.4291188-4.4291188zm203.7394633 0c2.446135 0 4.429119 1.982984 4.429119 4.4291188 0 2.4461347-1.982984 4.4291187-4.429119 4.4291187-2.446134 0-4.429118-1.982984-4.429118-4.4291187 0-2.4461348 1.982984-4.4291188 4.429118-4.4291188zm-76.402299 0c2.446135 0 4.429119 1.982984 4.429119 4.4291188 0 2.4461347-1.982984 4.4291187-4.429119 4.4291187-2.446134 0-4.429118-1.982984-4.429118-4.4291187 0-2.4461348 1.982984-4.4291188 4.429118-4.4291188zm-101.8697314 0c2.4461348 0 4.4291188 1.982984 4.4291188 4.4291188 0 2.4461347-1.982984 4.4291187-4.4291188 4.4291187-2.4461347 0-4.4291187-1.982984-4.4291187-4.4291187 0-2.4461348 1.982984-4.4291188 4.4291187-4.4291188zm50.9348664 0c2.446134 0 4.429118 1.982984 4.429118 4.4291188 0 2.4461347-1.982984 4.4291187-4.429118 4.4291187-2.446135 0-4.429119-1.982984-4.429119-4.4291187 0-2.4461348 1.982984-4.4291188 4.429119-4.4291188zm76.402298 0c2.446135 0 4.429119 1.982984 4.429119 4.4291188 0 2.4461347-1.982984 4.4291187-4.429119 4.4291187-2.446134 0-4.429118-1.982984-4.429118-4.4291187 0-2.4461348 1.982984-4.4291188 4.429118-4.4291188zm25.467433 0c2.446135 0 4.429119 1.982984 4.429119 4.4291188 0 2.4461347-1.982984 4.4291187-4.429119 4.4291187-2.446134 0-4.429118-1.982984-4.429118-4.4291187 0-2.4461348 1.982984-4.4291188 4.429118-4.4291188zm-76.402299 0c2.446135 0 4.429119 1.982984 4.429119 4.4291188 0 2.4461347-1.982984 4.4291187-4.429119 4.4291187-2.446134 0-4.429118-1.982984-4.429118-4.4291187 0-2.4461348 1.982984-4.4291188 4.429118-4.4291188zm-127.3371643-25.4674329c2.4461348 0 4.4291188 1.982984 4.4291188 4.4291187 0 2.4461348-1.982984 4.4291188-4.4291188 4.4291188-2.4461347 0-4.4291187-1.982984-4.4291187-4.4291188 0-2.4461347 1.982984-4.4291187 4.4291187-4.4291187zm152.8045973 0c2.446135 0 4.429119 1.982984 4.429119 4.4291187 0 2.4461348-1.982984 4.4291188-4.429119 4.4291188-2.446134 0-4.429118-1.982984-4.429118-4.4291188 0-2.4461347 1.982984-4.4291187 4.429118-4.4291187zm101.869732 0c2.446135 0 4.429119 1.982984 4.429119 4.4291187 0 2.4461348-1.982984 4.4291188-4.429119 4.4291188s-4.429119-1.982984-4.429119-4.4291188c0-2.4461347 1.982984-4.4291187 4.429119-4.4291187zm-203.7394634 0c2.4461348 0 4.4291188 1.982984 4.4291188 4.4291187 0 2.4461348-1.982984 4.4291188-4.4291188 4.4291188-2.4461347 0-4.4291187-1.982984-4.4291187-4.4291188 0-2.4461347 1.982984-4.4291187 4.4291187-4.4291187zm178.2720304 0c2.446135 0 4.429119 1.982984 4.429119 4.4291187 0 2.4461348-1.982984 4.4291188-4.429119 4.4291188-2.446134 0-4.429118-1.982984-4.429118-4.4291188 0-2.4461347 1.982984-4.4291187 4.429118-4.4291187zm-203.7394633 0c2.4461347 0 4.4291187 1.982984 4.4291187 4.4291187 0 2.4461348-1.982984 4.4291188-4.4291187 4.4291188-2.4461348 0-4.4291188-1.982984-4.4291188-4.4291188 0-2.4461347 1.982984-4.4291187 4.4291188-4.4291187zm152.8045973 0c2.446135 0 4.429119 1.982984 4.429119 4.4291187 0 2.4461348-1.982984 4.4291188-4.429119 4.4291188-2.446134 0-4.429118-1.982984-4.429118-4.4291188 0-2.4461347 1.982984-4.4291187 4.429118-4.4291187zm-76.402298 0c2.446134 0 4.429118 1.982984 4.429118 4.4291187 0 2.4461348-1.982984 4.4291188-4.429118 4.4291188-2.446135 0-4.429119-1.982984-4.429119-4.4291188 0-2.4461347 1.982984-4.4291187 4.429119-4.4291187zm-25.467433 0c2.446134 0 4.429118 1.982984 4.429118 4.4291187 0 2.4461348-1.982984 4.4291188-4.429118 4.4291188-2.446135 0-4.429119-1.982984-4.429119-4.4291188 0-2.4461347 1.982984-4.4291187 4.429119-4.4291187zm127.337164 0c2.446135 0 4.429119 1.982984 4.429119 4.4291187 0 2.4461348-1.982984 4.4291188-4.429119 4.4291188-2.446134 0-4.429118-1.982984-4.429118-4.4291188 0-2.4461347 1.982984-4.4291187 4.429118-4.4291187zm-229.20689623 0c2.44613476 0 4.42911878 1.982984 4.42911878 4.4291187 0 2.4461348-1.98298402 4.4291188-4.42911878 4.4291188-2.44613475 0-4.42911877-1.982984-4.42911877-4.4291188 0-2.4461347 1.98298402-4.4291187 4.42911877-4.4291187zm152.80459723 0c2.446135 0 4.429119 1.982984 4.429119 4.4291187 0 2.4461348-1.982984 4.4291188-4.429119 4.4291188-2.446134 0-4.429118-1.982984-4.429118-4.4291188 0-2.4461347 1.982984-4.4291187 4.429118-4.4291187zm-152.80459723-25.467433c2.44613476 0 4.42911878 1.98298402 4.42911878 4.42911877 0 2.44613476-1.98298402 4.42911878-4.42911878 4.42911878-2.44613475 0-4.42911877-1.98298402-4.42911877-4.42911878 0-2.44613475 1.98298402-4.42911877 4.42911877-4.42911877zm25.46743293 0c2.4461348 0 4.4291188 1.98298402 4.4291188 4.42911877 0 2.44613476-1.982984 4.42911878-4.4291188 4.42911878-2.4461347 0-4.4291187-1.98298402-4.4291187-4.42911878 0-2.44613475 1.982984-4.42911877 4.4291187-4.42911877zm25.467433 0c2.4461347 0 4.4291187 1.98298402 4.4291187 4.42911877 0 2.44613476-1.982984 4.42911878-4.4291187 4.42911878-2.4461348 0-4.4291188-1.98298402-4.4291188-4.42911878 0-2.44613475 1.982984-4.42911877 4.4291188-4.42911877zm25.4674329 0c2.4461348 0 4.4291188 1.98298402 4.4291188 4.42911877 0 2.44613476-1.982984 4.42911878-4.4291188 4.42911878-2.4461347 0-4.4291187-1.98298402-4.4291187-4.42911878 0-2.44613475 1.982984-4.42911877 4.4291187-4.42911877zm25.4674334 0c2.446134 0 4.429118 1.98298402 4.429118 4.42911877 0 2.44613476-1.982984 4.42911878-4.429118 4.42911878-2.446135 0-4.429119-1.98298402-4.429119-4.42911878 0-2.44613475 1.982984-4.42911877 4.429119-4.42911877zm25.467433 0c2.446134 0 4.429118 1.98298402 4.429118 4.42911877 0 2.44613476-1.982984 4.42911878-4.429118 4.42911878-2.446135 0-4.429119-1.98298402-4.429119-4.42911878 0-2.44613475 1.982984-4.42911877 4.429119-4.42911877zm25.467432 0c2.446135 0 4.429119 1.98298402 4.429119 4.42911877 0 2.44613476-1.982984 4.42911878-4.429119 4.42911878-2.446134 0-4.429118-1.98298402-4.429118-4.42911878 0-2.44613475 1.982984-4.42911877 4.429118-4.42911877zm25.467433 0c2.446135 0 4.429119 1.98298402 4.429119 4.42911877 0 2.44613476-1.982984 4.42911878-4.429119 4.42911878-2.446134 0-4.429118-1.98298402-4.429118-4.42911878 0-2.44613475 1.982984-4.42911877 4.429118-4.42911877zm25.467433 0c2.446135 0 4.429119 1.98298402 4.429119 4.42911877 0 2.44613476-1.982984 4.42911878-4.429119 4.42911878-2.446134 0-4.429118-1.98298402-4.429118-4.42911878 0-2.44613475 1.982984-4.42911877 4.429118-4.42911877zm25.467433 0c2.446135 0 4.429119 1.98298402 4.429119 4.42911877 0 2.44613476-1.982984 4.42911878-4.429119 4.42911878-2.446134 0-4.429118-1.98298402-4.429118-4.42911878 0-2.44613475 1.982984-4.42911877 4.429118-4.42911877zm25.467433 0c2.446135 0 4.429119 1.98298402 4.429119 4.42911877 0 2.44613476-1.982984 4.42911878-4.429119 4.42911878-2.446134 0-4.429118-1.98298402-4.429118-4.42911878 0-2.44613475 1.982984-4.42911877 4.429118-4.42911877zm25.467433 0c2.446135 0 4.429119 1.98298402 4.429119 4.42911877 0 2.44613476-1.982984 4.42911878-4.429119 4.42911878s-4.429119-1.98298402-4.429119-4.42911878c0-2.44613475 1.982984-4.42911877 4.429119-4.42911877z" fill="url(#b)" transform="matrix(.93969262 .34202014 -.34202014 .93969262 150.136349 393.292455)"/><circle cx="760" cy="360" r="102" stroke="url(#c)" stroke-width="8"/><circle cx="460" cy="50.25" r="46" stroke="url(#d)" stroke-width="8"/><g stroke-width="4"><circle cx="25" cy="406" opacity=".233" r="23" stroke="#1851be"/><path d="m597.25 76.75-.5 216.5" opacity=".4" stroke="url(#e)" stroke-linecap="round" stroke-linejoin="round"/><path d="m161.6875 862.76676 519.375-.125" opacity=".4" stroke="url(#f)" stroke-linecap="round" stroke-linejoin="round" transform="matrix(-.34202014 .93969262 -.93969262 -.34202014 1376.927723 761.990829)"/><path d="m1231 208-473-.168261" opacity=".3" stroke="url(#g)" stroke-linecap="round" stroke-linejoin="round"/></g></g></svg>