<svg xmlns="http://www.w3.org/2000/svg" width="1225" height="893" viewBox="0 0 1225 893">
  <defs>
    <linearGradient id="nbb-bg-b-a" x1="50.008%" x2="50.007%" y1="0%" y2="100%">
      <stop offset="0%" stop-color="#2A6CBE" stop-opacity=".381"/>
      <stop offset="38.688%" stop-color="#2062BC" stop-opacity=".496"/>
      <stop offset="66.583%" stop-color="#1C5ABD" stop-opacity=".7"/>
      <stop offset="85.354%" stop-color="#1956BC" stop-opacity=".8"/>
      <stop offset="100%" stop-color="#1851BE" stop-opacity=".9"/>
    </linearGradient>
  </defs>
  <g fill="none" fill-rule="evenodd">
    <path fill="#1851BE" d="M157.233716,280.141762 C159.679851,280.141762 161.662835,282.124746 161.662835,284.570881 C161.662835,287.017016 159.679851,289 157.233716,289 C154.787582,289 152.804598,287.017016 152.804598,284.570881 C152.804598,282.124746 154.787582,280.141762 157.233716,280.141762 Z M182.701149,280.141762 C185.147284,280.141762 187.130268,282.124746 187.130268,284.570881 C187.130268,287.017016 185.147284,289 182.701149,289 C180.255015,289 178.272031,287.017016 178.272031,284.570881 C178.272031,282.124746 180.255015,280.141762 182.701149,280.141762 Z M208.168582,280.141762 C210.614717,280.141762 212.597701,282.124746 212.597701,284.570881 C212.597701,287.017016 210.614717,289 208.168582,289 C205.722448,289 203.739464,287.017016 203.739464,284.570881 C203.739464,282.124746 205.722448,280.141762 208.168582,280.141762 Z M233.636015,280.141762 C236.08215,280.141762 238.065134,282.124746 238.065134,284.570881 C238.065134,287.017016 236.08215,289 233.636015,289 C231.189881,289 229.206897,287.017016 229.206897,284.570881 C229.206897,282.124746 231.189881,280.141762 233.636015,280.141762 Z M259.103448,280.141762 C261.549583,280.141762 263.532567,282.124746 263.532567,284.570881 C263.532567,287.017016 261.549583,289 259.103448,289 C256.657314,289 254.67433,287.017016 254.67433,284.570881 C254.67433,282.124746 256.657314,280.141762 259.103448,280.141762 Z M284.570881,280.141762 C287.017016,280.141762 289,282.124746 289,284.570881 C289,287.017016 287.017016,289 284.570881,289 C282.124746,289 280.141762,287.017016 280.141762,284.570881 C280.141762,282.124746 282.124746,280.141762 284.570881,280.141762 Z M4.42911877,280.141762 C6.87525353,280.141762 8.85823755,282.124746 8.85823755,284.570881 C8.85823755,287.017016 6.87525353,289 4.42911877,289 C1.98298402,289 -1.28785871e-13,287.017016 -1.28785871e-13,284.570881 C-1.28785871e-13,282.124746 1.98298402,280.141762 4.42911877,280.141762 Z M29.8965517,280.141762 C32.3426865,280.141762 34.3256705,282.124746 34.3256705,284.570881 C34.3256705,287.017016 32.3426865,289 29.8965517,289 C27.450417,289 25.467433,287.017016 25.467433,284.570881 C25.467433,282.124746 27.450417,280.141762 29.8965517,280.141762 Z M55.3639847,280.141762 C57.8101194,280.141762 59.7931034,282.124746 59.7931034,284.570881 C59.7931034,287.017016 57.8101194,289 55.3639847,289 C52.9178499,289 50.9348659,287.017016 50.9348659,284.570881 C50.9348659,282.124746 52.9178499,280.141762 55.3639847,280.141762 Z M80.8314176,280.141762 C83.2775524,280.141762 85.2605364,282.124746 85.2605364,284.570881 C85.2605364,287.017016 83.2775524,289 80.8314176,289 C78.3852829,289 76.4022989,287.017016 76.4022989,284.570881 C76.4022989,282.124746 78.3852829,280.141762 80.8314176,280.141762 Z M106.298851,280.141762 C108.744985,280.141762 110.727969,282.124746 110.727969,284.570881 C110.727969,287.017016 108.744985,289 106.298851,289 C103.852716,289 101.869732,287.017016 101.869732,284.570881 C101.869732,282.124746 103.852716,280.141762 106.298851,280.141762 Z M131.766284,280.141762 C134.212418,280.141762 136.195402,282.124746 136.195402,284.570881 C136.195402,287.017016 134.212418,289 131.766284,289 C129.320149,289 127.337165,287.017016 127.337165,284.570881 C127.337165,282.124746 129.320149,280.141762 131.766284,280.141762 Z M4.42911877,254.67433 C6.87525353,254.67433 8.85823755,256.657314 8.85823755,259.103448 C8.85823755,261.549583 6.87525353,263.532567 4.42911877,263.532567 C1.98298402,263.532567 -1.28785871e-13,261.549583 -1.28785871e-13,259.103448 C-1.28785871e-13,256.657314 1.98298402,254.67433 4.42911877,254.67433 Z M29.8965517,254.67433 C32.3426865,254.67433 34.3256705,256.657314 34.3256705,259.103448 C34.3256705,261.549583 32.3426865,263.532567 29.8965517,263.532567 C27.450417,263.532567 25.467433,261.549583 25.467433,259.103448 C25.467433,256.657314 27.450417,254.67433 29.8965517,254.67433 Z M55.3639847,254.67433 C57.8101194,254.67433 59.7931034,256.657314 59.7931034,259.103448 C59.7931034,261.549583 57.8101194,263.532567 55.3639847,263.532567 C52.9178499,263.532567 50.9348659,261.549583 50.9348659,259.103448 C50.9348659,256.657314 52.9178499,254.67433 55.3639847,254.67433 Z M233.636015,254.67433 C236.08215,254.67433 238.065134,256.657314 238.065134,259.103448 C238.065134,261.549583 236.08215,263.532567 233.636015,263.532567 C231.189881,263.532567 229.206897,261.549583 229.206897,259.103448 C229.206897,256.657314 231.189881,254.67433 233.636015,254.67433 Z M259.103448,254.67433 C261.549583,254.67433 263.532567,256.657314 263.532567,259.103448 C263.532567,261.549583 261.549583,263.532567 259.103448,263.532567 C256.657314,263.532567 254.67433,261.549583 254.67433,259.103448 C254.67433,256.657314 256.657314,254.67433 259.103448,254.67433 Z M284.570881,254.67433 C287.017016,254.67433 289,256.657314 289,259.103448 C289,261.549583 287.017016,263.532567 284.570881,263.532567 C282.124746,263.532567 280.141762,261.549583 280.141762,259.103448 C280.141762,256.657314 282.124746,254.67433 284.570881,254.67433 Z M80.8314176,254.67433 C83.2775524,254.67433 85.2605364,256.657314 85.2605364,259.103448 C85.2605364,261.549583 83.2775524,263.532567 80.8314176,263.532567 C78.3852829,263.532567 76.4022989,261.549583 76.4022989,259.103448 C76.4022989,256.657314 78.3852829,254.67433 80.8314176,254.67433 Z M106.298851,254.67433 C108.744985,254.67433 110.727969,256.657314 110.727969,259.103448 C110.727969,261.549583 108.744985,263.532567 106.298851,263.532567 C103.852716,263.532567 101.869732,261.549583 101.869732,259.103448 C101.869732,256.657314 103.852716,254.67433 106.298851,254.67433 Z M131.766284,254.67433 C134.212418,254.67433 136.195402,256.657314 136.195402,259.103448 C136.195402,261.549583 134.212418,263.532567 131.766284,263.532567 C129.320149,263.532567 127.337165,261.549583 127.337165,259.103448 C127.337165,256.657314 129.320149,254.67433 131.766284,254.67433 Z M157.233716,254.67433 C159.679851,254.67433 161.662835,256.657314 161.662835,259.103448 C161.662835,261.549583 159.679851,263.532567 157.233716,263.532567 C154.787582,263.532567 152.804598,261.549583 152.804598,259.103448 C152.804598,256.657314 154.787582,254.67433 157.233716,254.67433 Z M182.701149,254.67433 C185.147284,254.67433 187.130268,256.657314 187.130268,259.103448 C187.130268,261.549583 185.147284,263.532567 182.701149,263.532567 C180.255015,263.532567 178.272031,261.549583 178.272031,259.103448 C178.272031,256.657314 180.255015,254.67433 182.701149,254.67433 Z M208.168582,254.67433 C210.614717,254.67433 212.597701,256.657314 212.597701,259.103448 C212.597701,261.549583 210.614717,263.532567 208.168582,263.532567 C205.722448,263.532567 203.739464,261.549583 203.739464,259.103448 C203.739464,256.657314 205.722448,254.67433 208.168582,254.67433 Z M233.636015,229.206897 C236.08215,229.206897 238.065134,231.189881 238.065134,233.636015 C238.065134,236.08215 236.08215,238.065134 233.636015,238.065134 C231.189881,238.065134 229.206897,236.08215 229.206897,233.636015 C229.206897,231.189881 231.189881,229.206897 233.636015,229.206897 Z M182.701149,229.206897 C185.147284,229.206897 187.130268,231.189881 187.130268,233.636015 C187.130268,236.08215 185.147284,238.065134 182.701149,238.065134 C180.255015,238.065134 178.272031,236.08215 178.272031,233.636015 C178.272031,231.189881 180.255015,229.206897 182.701149,229.206897 Z M259.103448,229.206897 C261.549583,229.206897 263.532567,231.189881 263.532567,233.636015 C263.532567,236.08215 261.549583,238.065134 259.103448,238.065134 C256.657314,238.065134 254.67433,236.08215 254.67433,233.636015 C254.67433,231.189881 256.657314,229.206897 259.103448,229.206897 Z M80.8314176,229.206897 C83.2775524,229.206897 85.2605364,231.189881 85.2605364,233.636015 C85.2605364,236.08215 83.2775524,238.065134 80.8314176,238.065134 C78.3852829,238.065134 76.4022989,236.08215 76.4022989,233.636015 C76.4022989,231.189881 78.3852829,229.206897 80.8314176,229.206897 Z M4.42911877,229.206897 C6.87525353,229.206897 8.85823755,231.189881 8.85823755,233.636015 C8.85823755,236.08215 6.87525353,238.065134 4.42911877,238.065134 C1.98298402,238.065134 -1.28785871e-13,236.08215 -1.28785871e-13,233.636015 C-1.28785871e-13,231.189881 1.98298402,229.206897 4.42911877,229.206897 Z M106.298851,229.206897 C108.744985,229.206897 110.727969,231.189881 110.727969,233.636015 C110.727969,236.08215 108.744985,238.065134 106.298851,238.065134 C103.852716,238.065134 101.869732,236.08215 101.869732,233.636015 C101.869732,231.189881 103.852716,229.206897 106.298851,229.206897 Z M208.168582,229.206897 C210.614717,229.206897 212.597701,231.189881 212.597701,233.636015 C212.597701,236.08215 210.614717,238.065134 208.168582,238.065134 C205.722448,238.065134 203.739464,236.08215 203.739464,233.636015 C203.739464,231.189881 205.722448,229.206897 208.168582,229.206897 Z M29.8965517,229.206897 C32.3426865,229.206897 34.3256705,231.189881 34.3256705,233.636015 C34.3256705,236.08215 32.3426865,238.065134 29.8965517,238.065134 C27.450417,238.065134 25.467433,236.08215 25.467433,233.636015 C25.467433,231.189881 27.450417,229.206897 29.8965517,229.206897 Z M131.766284,229.206897 C134.212418,229.206897 136.195402,231.189881 136.195402,233.636015 C136.195402,236.08215 134.212418,238.065134 131.766284,238.065134 C129.320149,238.065134 127.337165,236.08215 127.337165,233.636015 C127.337165,231.189881 129.320149,229.206897 131.766284,229.206897 Z M157.233716,229.206897 C159.679851,229.206897 161.662835,231.189881 161.662835,233.636015 C161.662835,236.08215 159.679851,238.065134 157.233716,238.065134 C154.787582,238.065134 152.804598,236.08215 152.804598,233.636015 C152.804598,231.189881 154.787582,229.206897 157.233716,229.206897 Z M284.570881,229.206897 C287.017016,229.206897 289,231.189881 289,233.636015 C289,236.08215 287.017016,238.065134 284.570881,238.065134 C282.124746,238.065134 280.141762,236.08215 280.141762,233.636015 C280.141762,231.189881 282.124746,229.206897 284.570881,229.206897 Z M55.3639847,229.206897 C57.8101194,229.206897 59.7931034,231.189881 59.7931034,233.636015 C59.7931034,236.08215 57.8101194,238.065134 55.3639847,238.065134 C52.9178499,238.065134 50.9348659,236.08215 50.9348659,233.636015 C50.9348659,231.189881 52.9178499,229.206897 55.3639847,229.206897 Z M29.8965517,203.739464 C32.3426865,203.739464 34.3256705,205.722448 34.3256705,208.168582 C34.3256705,210.614717 32.3426865,212.597701 29.8965517,212.597701 C27.450417,212.597701 25.467433,210.614717 25.467433,208.168582 C25.467433,205.722448 27.450417,203.739464 29.8965517,203.739464 Z M80.8314176,203.739464 C83.2775524,203.739464 85.2605364,205.722448 85.2605364,208.168582 C85.2605364,210.614717 83.2775524,212.597701 80.8314176,212.597701 C78.3852829,212.597701 76.4022989,210.614717 76.4022989,208.168582 C76.4022989,205.722448 78.3852829,203.739464 80.8314176,203.739464 Z M131.766284,203.739464 C134.212418,203.739464 136.195402,205.722448 136.195402,208.168582 C136.195402,210.614717 134.212418,212.597701 131.766284,212.597701 C129.320149,212.597701 127.337165,210.614717 127.337165,208.168582 C127.337165,205.722448 129.320149,203.739464 131.766284,203.739464 Z M233.636015,203.739464 C236.08215,203.739464 238.065134,205.722448 238.065134,208.168582 C238.065134,210.614717 236.08215,212.597701 233.636015,212.597701 C231.189881,212.597701 229.206897,210.614717 229.206897,208.168582 C229.206897,205.722448 231.189881,203.739464 233.636015,203.739464 Z M157.233716,203.739464 C159.679851,203.739464 161.662835,205.722448 161.662835,208.168582 C161.662835,210.614717 159.679851,212.597701 157.233716,212.597701 C154.787582,212.597701 152.804598,210.614717 152.804598,208.168582 C152.804598,205.722448 154.787582,203.739464 157.233716,203.739464 Z M208.168582,203.739464 C210.614717,203.739464 212.597701,205.722448 212.597701,208.168582 C212.597701,210.614717 210.614717,212.597701 208.168582,212.597701 C205.722448,212.597701 203.739464,210.614717 203.739464,208.168582 C203.739464,205.722448 205.722448,203.739464 208.168582,203.739464 Z M4.42911877,203.739464 C6.87525353,203.739464 8.85823755,205.722448 8.85823755,208.168582 C8.85823755,210.614717 6.87525353,212.597701 4.42911877,212.597701 C1.98298402,212.597701 -1.28785871e-13,210.614717 -1.28785871e-13,208.168582 C-1.28785871e-13,205.722448 1.98298402,203.739464 4.42911877,203.739464 Z M55.3639847,203.739464 C57.8101194,203.739464 59.7931034,205.722448 59.7931034,208.168582 C59.7931034,210.614717 57.8101194,212.597701 55.3639847,212.597701 C52.9178499,212.597701 50.9348659,210.614717 50.9348659,208.168582 C50.9348659,205.722448 52.9178499,203.739464 55.3639847,203.739464 Z M284.570881,203.739464 C287.017016,203.739464 289,205.722448 289,208.168582 C289,210.614717 287.017016,212.597701 284.570881,212.597701 C282.124746,212.597701 280.141762,210.614717 280.141762,208.168582 C280.141762,205.722448 282.124746,203.739464 284.570881,203.739464 Z M182.701149,203.739464 C185.147284,203.739464 187.130268,205.722448 187.130268,208.168582 C187.130268,210.614717 185.147284,212.597701 182.701149,212.597701 C180.255015,212.597701 178.272031,210.614717 178.272031,208.168582 C178.272031,205.722448 180.255015,203.739464 182.701149,203.739464 Z M106.298851,203.739464 C108.744985,203.739464 110.727969,205.722448 110.727969,208.168582 C110.727969,210.614717 108.744985,212.597701 106.298851,212.597701 C103.852716,212.597701 101.869732,210.614717 101.869732,208.168582 C101.869732,205.722448 103.852716,203.739464 106.298851,203.739464 Z M259.103448,203.739464 C261.549583,203.739464 263.532567,205.722448 263.532567,208.168582 C263.532567,210.614717 261.549583,212.597701 259.103448,212.597701 C256.657314,212.597701 254.67433,210.614717 254.67433,208.168582 C254.67433,205.722448 256.657314,203.739464 259.103448,203.739464 Z M284.570881,178.272031 C287.017016,178.272031 289,180.255015 289,182.701149 C289,185.147284 287.017016,187.130268 284.570881,187.130268 C282.124746,187.130268 280.141762,185.147284 280.141762,182.701149 C280.141762,180.255015 282.124746,178.272031 284.570881,178.272031 Z M208.168582,178.272031 C210.614717,178.272031 212.597701,180.255015 212.597701,182.701149 C212.597701,185.147284 210.614717,187.130268 208.168582,187.130268 C205.722448,187.130268 203.739464,185.147284 203.739464,182.701149 C203.739464,180.255015 205.722448,178.272031 208.168582,178.272031 Z M80.8314176,178.272031 C83.2775524,178.272031 85.2605364,180.255015 85.2605364,182.701149 C85.2605364,185.147284 83.2775524,187.130268 80.8314176,187.130268 C78.3852829,187.130268 76.4022989,185.147284 76.4022989,182.701149 C76.4022989,180.255015 78.3852829,178.272031 80.8314176,178.272031 Z M259.103448,178.272031 C261.549583,178.272031 263.532567,180.255015 263.532567,182.701149 C263.532567,185.147284 261.549583,187.130268 259.103448,187.130268 C256.657314,187.130268 254.67433,185.147284 254.67433,182.701149 C254.67433,180.255015 256.657314,178.272031 259.103448,178.272031 Z M182.701149,178.272031 C185.147284,178.272031 187.130268,180.255015 187.130268,182.701149 C187.130268,185.147284 185.147284,187.130268 182.701149,187.130268 C180.255015,187.130268 178.272031,185.147284 178.272031,182.701149 C178.272031,180.255015 180.255015,178.272031 182.701149,178.272031 Z M29.8965517,178.272031 C32.3426865,178.272031 34.3256705,180.255015 34.3256705,182.701149 C34.3256705,185.147284 32.3426865,187.130268 29.8965517,187.130268 C27.450417,187.130268 25.467433,185.147284 25.467433,182.701149 C25.467433,180.255015 27.450417,178.272031 29.8965517,178.272031 Z M4.42911877,178.272031 C6.87525353,178.272031 8.85823755,180.255015 8.85823755,182.701149 C8.85823755,185.147284 6.87525353,187.130268 4.42911877,187.130268 C1.98298402,187.130268 -1.28785871e-13,185.147284 -1.28785871e-13,182.701149 C-1.28785871e-13,180.255015 1.98298402,178.272031 4.42911877,178.272031 Z M233.636015,178.272031 C236.08215,178.272031 238.065134,180.255015 238.065134,182.701149 C238.065134,185.147284 236.08215,187.130268 233.636015,187.130268 C231.189881,187.130268 229.206897,185.147284 229.206897,182.701149 C229.206897,180.255015 231.189881,178.272031 233.636015,178.272031 Z M157.233716,178.272031 C159.679851,178.272031 161.662835,180.255015 161.662835,182.701149 C161.662835,185.147284 159.679851,187.130268 157.233716,187.130268 C154.787582,187.130268 152.804598,185.147284 152.804598,182.701149 C152.804598,180.255015 154.787582,178.272031 157.233716,178.272031 Z M106.298851,178.272031 C108.744985,178.272031 110.727969,180.255015 110.727969,182.701149 C110.727969,185.147284 108.744985,187.130268 106.298851,187.130268 C103.852716,187.130268 101.869732,185.147284 101.869732,182.701149 C101.869732,180.255015 103.852716,178.272031 106.298851,178.272031 Z M131.766284,178.272031 C134.212418,178.272031 136.195402,180.255015 136.195402,182.701149 C136.195402,185.147284 134.212418,187.130268 131.766284,187.130268 C129.320149,187.130268 127.337165,185.147284 127.337165,182.701149 C127.337165,180.255015 129.320149,178.272031 131.766284,178.272031 Z M55.3639847,178.272031 C57.8101194,178.272031 59.7931034,180.255015 59.7931034,182.701149 C59.7931034,185.147284 57.8101194,187.130268 55.3639847,187.130268 C52.9178499,187.130268 50.9348659,185.147284 50.9348659,182.701149 C50.9348659,180.255015 52.9178499,178.272031 55.3639847,178.272031 Z M4.42911877,152.804598 C6.87525353,152.804598 8.85823755,154.787582 8.85823755,157.233716 C8.85823755,159.679851 6.87525353,161.662835 4.42911877,161.662835 C1.98298402,161.662835 -1.28785871e-13,159.679851 -1.28785871e-13,157.233716 C-1.28785871e-13,154.787582 1.98298402,152.804598 4.42911877,152.804598 Z M29.8965517,152.804598 C32.3426865,152.804598 34.3256705,154.787582 34.3256705,157.233716 C34.3256705,159.679851 32.3426865,161.662835 29.8965517,161.662835 C27.450417,161.662835 25.467433,159.679851 25.467433,157.233716 C25.467433,154.787582 27.450417,152.804598 29.8965517,152.804598 Z M55.3639847,152.804598 C57.8101194,152.804598 59.7931034,154.787582 59.7931034,157.233716 C59.7931034,159.679851 57.8101194,161.662835 55.3639847,161.662835 C52.9178499,161.662835 50.9348659,159.679851 50.9348659,157.233716 C50.9348659,154.787582 52.9178499,152.804598 55.3639847,152.804598 Z M259.103448,152.804598 C261.549583,152.804598 263.532567,154.787582 263.532567,157.233716 C263.532567,159.679851 261.549583,161.662835 259.103448,161.662835 C256.657314,161.662835 254.67433,159.679851 254.67433,157.233716 C254.67433,154.787582 256.657314,152.804598 259.103448,152.804598 Z M284.570881,152.804598 C287.017016,152.804598 289,154.787582 289,157.233716 C289,159.679851 287.017016,161.662835 284.570881,161.662835 C282.124746,161.662835 280.141762,159.679851 280.141762,157.233716 C280.141762,154.787582 282.124746,152.804598 284.570881,152.804598 Z M208.168582,152.804598 C210.614717,152.804598 212.597701,154.787582 212.597701,157.233716 C212.597701,159.679851 210.614717,161.662835 208.168582,161.662835 C205.722448,161.662835 203.739464,159.679851 203.739464,157.233716 C203.739464,154.787582 205.722448,152.804598 208.168582,152.804598 Z M233.636015,152.804598 C236.08215,152.804598 238.065134,154.787582 238.065134,157.233716 C238.065134,159.679851 236.08215,161.662835 233.636015,161.662835 C231.189881,161.662835 229.206897,159.679851 229.206897,157.233716 C229.206897,154.787582 231.189881,152.804598 233.636015,152.804598 Z M182.701149,152.804598 C185.147284,152.804598 187.130268,154.787582 187.130268,157.233716 C187.130268,159.679851 185.147284,161.662835 182.701149,161.662835 C180.255015,161.662835 178.272031,159.679851 178.272031,157.233716 C178.272031,154.787582 180.255015,152.804598 182.701149,152.804598 Z M106.298851,152.804598 C108.744985,152.804598 110.727969,154.787582 110.727969,157.233716 C110.727969,159.679851 108.744985,161.662835 106.298851,161.662835 C103.852716,161.662835 101.869732,159.679851 101.869732,157.233716 C101.869732,154.787582 103.852716,152.804598 106.298851,152.804598 Z M157.233716,152.804598 C159.679851,152.804598 161.662835,154.787582 161.662835,157.233716 C161.662835,159.679851 159.679851,161.662835 157.233716,161.662835 C154.787582,161.662835 152.804598,159.679851 152.804598,157.233716 C152.804598,154.787582 154.787582,152.804598 157.233716,152.804598 Z M80.8314176,152.804598 C83.2775524,152.804598 85.2605364,154.787582 85.2605364,157.233716 C85.2605364,159.679851 83.2775524,161.662835 80.8314176,161.662835 C78.3852829,161.662835 76.4022989,159.679851 76.4022989,157.233716 C76.4022989,154.787582 78.3852829,152.804598 80.8314176,152.804598 Z M131.766284,152.804598 C134.212418,152.804598 136.195402,154.787582 136.195402,157.233716 C136.195402,159.679851 134.212418,161.662835 131.766284,161.662835 C129.320149,161.662835 127.337165,159.679851 127.337165,157.233716 C127.337165,154.787582 129.320149,152.804598 131.766284,152.804598 Z M157.233716,127.337165 C159.679851,127.337165 161.662835,129.320149 161.662835,131.766284 C161.662835,134.212418 159.679851,136.195402 157.233716,136.195402 C154.787582,136.195402 152.804598,134.212418 152.804598,131.766284 C152.804598,129.320149 154.787582,127.337165 157.233716,127.337165 Z M55.3639847,127.337165 C57.8101194,127.337165 59.7931034,129.320149 59.7931034,131.766284 C59.7931034,134.212418 57.8101194,136.195402 55.3639847,136.195402 C52.9178499,136.195402 50.9348659,134.212418 50.9348659,131.766284 C50.9348659,129.320149 52.9178499,127.337165 55.3639847,127.337165 Z M131.766284,127.337165 C134.212418,127.337165 136.195402,129.320149 136.195402,131.766284 C136.195402,134.212418 134.212418,136.195402 131.766284,136.195402 C129.320149,136.195402 127.337165,134.212418 127.337165,131.766284 C127.337165,129.320149 129.320149,127.337165 131.766284,127.337165 Z M284.570881,127.337165 C287.017016,127.337165 289,129.320149 289,131.766284 C289,134.212418 287.017016,136.195402 284.570881,136.195402 C282.124746,136.195402 280.141762,134.212418 280.141762,131.766284 C280.141762,129.320149 282.124746,127.337165 284.570881,127.337165 Z M29.8965517,127.337165 C32.3426865,127.337165 34.3256705,129.320149 34.3256705,131.766284 C34.3256705,134.212418 32.3426865,136.195402 29.8965517,136.195402 C27.450417,136.195402 25.467433,134.212418 25.467433,131.766284 C25.467433,129.320149 27.450417,127.337165 29.8965517,127.337165 Z M4.42911877,127.337165 C6.87525353,127.337165 8.85823755,129.320149 8.85823755,131.766284 C8.85823755,134.212418 6.87525353,136.195402 4.42911877,136.195402 C1.98298402,136.195402 -1.28785871e-13,134.212418 -1.28785871e-13,131.766284 C-1.28785871e-13,129.320149 1.98298402,127.337165 4.42911877,127.337165 Z M80.8314176,127.337165 C83.2775524,127.337165 85.2605364,129.320149 85.2605364,131.766284 C85.2605364,134.212418 83.2775524,136.195402 80.8314176,136.195402 C78.3852829,136.195402 76.4022989,134.212418 76.4022989,131.766284 C76.4022989,129.320149 78.3852829,127.337165 80.8314176,127.337165 Z M182.701149,127.337165 C185.147284,127.337165 187.130268,129.320149 187.130268,131.766284 C187.130268,134.212418 185.147284,136.195402 182.701149,136.195402 C180.255015,136.195402 178.272031,134.212418 178.272031,131.766284 C178.272031,129.320149 180.255015,127.337165 182.701149,127.337165 Z M106.298851,127.337165 C108.744985,127.337165 110.727969,129.320149 110.727969,131.766284 C110.727969,134.212418 108.744985,136.195402 106.298851,136.195402 C103.852716,136.195402 101.869732,134.212418 101.869732,131.766284 C101.869732,129.320149 103.852716,127.337165 106.298851,127.337165 Z M233.636015,127.337165 C236.08215,127.337165 238.065134,129.320149 238.065134,131.766284 C238.065134,134.212418 236.08215,136.195402 233.636015,136.195402 C231.189881,136.195402 229.206897,134.212418 229.206897,131.766284 C229.206897,129.320149 231.189881,127.337165 233.636015,127.337165 Z M259.103448,127.337165 C261.549583,127.337165 263.532567,129.320149 263.532567,131.766284 C263.532567,134.212418 261.549583,136.195402 259.103448,136.195402 C256.657314,136.195402 254.67433,134.212418 254.67433,131.766284 C254.67433,129.320149 256.657314,127.337165 259.103448,127.337165 Z M208.168582,127.337165 C210.614717,127.337165 212.597701,129.320149 212.597701,131.766284 C212.597701,134.212418 210.614717,136.195402 208.168582,136.195402 C205.722448,136.195402 203.739464,134.212418 203.739464,131.766284 C203.739464,129.320149 205.722448,127.337165 208.168582,127.337165 Z M106.298851,101.869732 C108.744985,101.869732 110.727969,103.852716 110.727969,106.298851 C110.727969,108.744985 108.744985,110.727969 106.298851,110.727969 C103.852716,110.727969 101.869732,108.744985 101.869732,106.298851 C101.869732,103.852716 103.852716,101.869732 106.298851,101.869732 Z M233.636015,101.869732 C236.08215,101.869732 238.065134,103.852716 238.065134,106.298851 C238.065134,108.744985 236.08215,110.727969 233.636015,110.727969 C231.189881,110.727969 229.206897,108.744985 229.206897,106.298851 C229.206897,103.852716 231.189881,101.869732 233.636015,101.869732 Z M259.103448,101.869732 C261.549583,101.869732 263.532567,103.852716 263.532567,106.298851 C263.532567,108.744985 261.549583,110.727969 259.103448,110.727969 C256.657314,110.727969 254.67433,108.744985 254.67433,106.298851 C254.67433,103.852716 256.657314,101.869732 259.103448,101.869732 Z M131.766284,101.869732 C134.212418,101.869732 136.195402,103.852716 136.195402,106.298851 C136.195402,108.744985 134.212418,110.727969 131.766284,110.727969 C129.320149,110.727969 127.337165,108.744985 127.337165,106.298851 C127.337165,103.852716 129.320149,101.869732 131.766284,101.869732 Z M4.42911877,101.869732 C6.87525353,101.869732 8.85823755,103.852716 8.85823755,106.298851 C8.85823755,108.744985 6.87525353,110.727969 4.42911877,110.727969 C1.98298402,110.727969 -1.28785871e-13,108.744985 -1.28785871e-13,106.298851 C-1.28785871e-13,103.852716 1.98298402,101.869732 4.42911877,101.869732 Z M284.570881,101.869732 C287.017016,101.869732 289,103.852716 289,106.298851 C289,108.744985 287.017016,110.727969 284.570881,110.727969 C282.124746,110.727969 280.141762,108.744985 280.141762,106.298851 C280.141762,103.852716 282.124746,101.869732 284.570881,101.869732 Z M80.8314176,101.869732 C83.2775524,101.869732 85.2605364,103.852716 85.2605364,106.298851 C85.2605364,108.744985 83.2775524,110.727969 80.8314176,110.727969 C78.3852829,110.727969 76.4022989,108.744985 76.4022989,106.298851 C76.4022989,103.852716 78.3852829,101.869732 80.8314176,101.869732 Z M29.8965517,101.869732 C32.3426865,101.869732 34.3256705,103.852716 34.3256705,106.298851 C34.3256705,108.744985 32.3426865,110.727969 29.8965517,110.727969 C27.450417,110.727969 25.467433,108.744985 25.467433,106.298851 C25.467433,103.852716 27.450417,101.869732 29.8965517,101.869732 Z M208.168582,101.869732 C210.614717,101.869732 212.597701,103.852716 212.597701,106.298851 C212.597701,108.744985 210.614717,110.727969 208.168582,110.727969 C205.722448,110.727969 203.739464,108.744985 203.739464,106.298851 C203.739464,103.852716 205.722448,101.869732 208.168582,101.869732 Z M157.233716,101.869732 C159.679851,101.869732 161.662835,103.852716 161.662835,106.298851 C161.662835,108.744985 159.679851,110.727969 157.233716,110.727969 C154.787582,110.727969 152.804598,108.744985 152.804598,106.298851 C152.804598,103.852716 154.787582,101.869732 157.233716,101.869732 Z M55.3639847,101.869732 C57.8101194,101.869732 59.7931034,103.852716 59.7931034,106.298851 C59.7931034,108.744985 57.8101194,110.727969 55.3639847,110.727969 C52.9178499,110.727969 50.9348659,108.744985 50.9348659,106.298851 C50.9348659,103.852716 52.9178499,101.869732 55.3639847,101.869732 Z M182.701149,101.869732 C185.147284,101.869732 187.130268,103.852716 187.130268,106.298851 C187.130268,108.744985 185.147284,110.727969 182.701149,110.727969 C180.255015,110.727969 178.272031,108.744985 178.272031,106.298851 C178.272031,103.852716 180.255015,101.869732 182.701149,101.869732 Z M157.233716,76.4022989 C159.679851,76.4022989 161.662835,78.3852829 161.662835,80.8314176 C161.662835,83.2775524 159.679851,85.2605364 157.233716,85.2605364 C154.787582,85.2605364 152.804598,83.2775524 152.804598,80.8314176 C152.804598,78.3852829 154.787582,76.4022989 157.233716,76.4022989 Z M55.3639847,76.4022989 C57.8101194,76.4022989 59.7931034,78.3852829 59.7931034,80.8314176 C59.7931034,83.2775524 57.8101194,85.2605364 55.3639847,85.2605364 C52.9178499,85.2605364 50.9348659,83.2775524 50.9348659,80.8314176 C50.9348659,78.3852829 52.9178499,76.4022989 55.3639847,76.4022989 Z M106.298851,76.4022989 C108.744985,76.4022989 110.727969,78.3852829 110.727969,80.8314176 C110.727969,83.2775524 108.744985,85.2605364 106.298851,85.2605364 C103.852716,85.2605364 101.869732,83.2775524 101.869732,80.8314176 C101.869732,78.3852829 103.852716,76.4022989 106.298851,76.4022989 Z M29.8965517,76.4022989 C32.3426865,76.4022989 34.3256705,78.3852829 34.3256705,80.8314176 C34.3256705,83.2775524 32.3426865,85.2605364 29.8965517,85.2605364 C27.450417,85.2605364 25.467433,83.2775524 25.467433,80.8314176 C25.467433,78.3852829 27.450417,76.4022989 29.8965517,76.4022989 Z M131.766284,76.4022989 C134.212418,76.4022989 136.195402,78.3852829 136.195402,80.8314176 C136.195402,83.2775524 134.212418,85.2605364 131.766284,85.2605364 C129.320149,85.2605364 127.337165,83.2775524 127.337165,80.8314176 C127.337165,78.3852829 129.320149,76.4022989 131.766284,76.4022989 Z M284.570881,76.4022989 C287.017016,76.4022989 289,78.3852829 289,80.8314176 C289,83.2775524 287.017016,85.2605364 284.570881,85.2605364 C282.124746,85.2605364 280.141762,83.2775524 280.141762,80.8314176 C280.141762,78.3852829 282.124746,76.4022989 284.570881,76.4022989 Z M259.103448,76.4022989 C261.549583,76.4022989 263.532567,78.3852829 263.532567,80.8314176 C263.532567,83.2775524 261.549583,85.2605364 259.103448,85.2605364 C256.657314,85.2605364 254.67433,83.2775524 254.67433,80.8314176 C254.67433,78.3852829 256.657314,76.4022989 259.103448,76.4022989 Z M4.42911877,76.4022989 C6.87525353,76.4022989 8.85823755,78.3852829 8.85823755,80.8314176 C8.85823755,83.2775524 6.87525353,85.2605364 4.42911877,85.2605364 C1.98298402,85.2605364 -1.28785871e-13,83.2775524 -1.28785871e-13,80.8314176 C-1.28785871e-13,78.3852829 1.98298402,76.4022989 4.42911877,76.4022989 Z M208.168582,76.4022989 C210.614717,76.4022989 212.597701,78.3852829 212.597701,80.8314176 C212.597701,83.2775524 210.614717,85.2605364 208.168582,85.2605364 C205.722448,85.2605364 203.739464,83.2775524 203.739464,80.8314176 C203.739464,78.3852829 205.722448,76.4022989 208.168582,76.4022989 Z M182.701149,76.4022989 C185.147284,76.4022989 187.130268,78.3852829 187.130268,80.8314176 C187.130268,83.2775524 185.147284,85.2605364 182.701149,85.2605364 C180.255015,85.2605364 178.272031,83.2775524 178.272031,80.8314176 C178.272031,78.3852829 180.255015,76.4022989 182.701149,76.4022989 Z M80.8314176,76.4022989 C83.2775524,76.4022989 85.2605364,78.3852829 85.2605364,80.8314176 C85.2605364,83.2775524 83.2775524,85.2605364 80.8314176,85.2605364 C78.3852829,85.2605364 76.4022989,83.2775524 76.4022989,80.8314176 C76.4022989,78.3852829 78.3852829,76.4022989 80.8314176,76.4022989 Z M233.636015,76.4022989 C236.08215,76.4022989 238.065134,78.3852829 238.065134,80.8314176 C238.065134,83.2775524 236.08215,85.2605364 233.636015,85.2605364 C231.189881,85.2605364 229.206897,83.2775524 229.206897,80.8314176 C229.206897,78.3852829 231.189881,76.4022989 233.636015,76.4022989 Z M106.298851,50.9348659 C108.744985,50.9348659 110.727969,52.9178499 110.727969,55.3639847 C110.727969,57.8101194 108.744985,59.7931034 106.298851,59.7931034 C103.852716,59.7931034 101.869732,57.8101194 101.869732,55.3639847 C101.869732,52.9178499 103.852716,50.9348659 106.298851,50.9348659 Z M4.42911877,50.9348659 C6.87525353,50.9348659 8.85823755,52.9178499 8.85823755,55.3639847 C8.85823755,57.8101194 6.87525353,59.7931034 4.42911877,59.7931034 C1.98298402,59.7931034 -1.28785871e-13,57.8101194 -1.28785871e-13,55.3639847 C-1.28785871e-13,52.9178499 1.98298402,50.9348659 4.42911877,50.9348659 Z M284.570881,50.9348659 C287.017016,50.9348659 289,52.9178499 289,55.3639847 C289,57.8101194 287.017016,59.7931034 284.570881,59.7931034 C282.124746,59.7931034 280.141762,57.8101194 280.141762,55.3639847 C280.141762,52.9178499 282.124746,50.9348659 284.570881,50.9348659 Z M29.8965517,50.9348659 C32.3426865,50.9348659 34.3256705,52.9178499 34.3256705,55.3639847 C34.3256705,57.8101194 32.3426865,59.7931034 29.8965517,59.7931034 C27.450417,59.7931034 25.467433,57.8101194 25.467433,55.3639847 C25.467433,52.9178499 27.450417,50.9348659 29.8965517,50.9348659 Z M55.3639847,50.9348659 C57.8101194,50.9348659 59.7931034,52.9178499 59.7931034,55.3639847 C59.7931034,57.8101194 57.8101194,59.7931034 55.3639847,59.7931034 C52.9178499,59.7931034 50.9348659,57.8101194 50.9348659,55.3639847 C50.9348659,52.9178499 52.9178499,50.9348659 55.3639847,50.9348659 Z M259.103448,50.9348659 C261.549583,50.9348659 263.532567,52.9178499 263.532567,55.3639847 C263.532567,57.8101194 261.549583,59.7931034 259.103448,59.7931034 C256.657314,59.7931034 254.67433,57.8101194 254.67433,55.3639847 C254.67433,52.9178499 256.657314,50.9348659 259.103448,50.9348659 Z M182.701149,50.9348659 C185.147284,50.9348659 187.130268,52.9178499 187.130268,55.3639847 C187.130268,57.8101194 185.147284,59.7931034 182.701149,59.7931034 C180.255015,59.7931034 178.272031,57.8101194 178.272031,55.3639847 C178.272031,52.9178499 180.255015,50.9348659 182.701149,50.9348659 Z M80.8314176,50.9348659 C83.2775524,50.9348659 85.2605364,52.9178499 85.2605364,55.3639847 C85.2605364,57.8101194 83.2775524,59.7931034 80.8314176,59.7931034 C78.3852829,59.7931034 76.4022989,57.8101194 76.4022989,55.3639847 C76.4022989,52.9178499 78.3852829,50.9348659 80.8314176,50.9348659 Z M131.766284,50.9348659 C134.212418,50.9348659 136.195402,52.9178499 136.195402,55.3639847 C136.195402,57.8101194 134.212418,59.7931034 131.766284,59.7931034 C129.320149,59.7931034 127.337165,57.8101194 127.337165,55.3639847 C127.337165,52.9178499 129.320149,50.9348659 131.766284,50.9348659 Z M208.168582,50.9348659 C210.614717,50.9348659 212.597701,52.9178499 212.597701,55.3639847 C212.597701,57.8101194 210.614717,59.7931034 208.168582,59.7931034 C205.722448,59.7931034 203.739464,57.8101194 203.739464,55.3639847 C203.739464,52.9178499 205.722448,50.9348659 208.168582,50.9348659 Z M233.636015,50.9348659 C236.08215,50.9348659 238.065134,52.9178499 238.065134,55.3639847 C238.065134,57.8101194 236.08215,59.7931034 233.636015,59.7931034 C231.189881,59.7931034 229.206897,57.8101194 229.206897,55.3639847 C229.206897,52.9178499 231.189881,50.9348659 233.636015,50.9348659 Z M157.233716,50.9348659 C159.679851,50.9348659 161.662835,52.9178499 161.662835,55.3639847 C161.662835,57.8101194 159.679851,59.7931034 157.233716,59.7931034 C154.787582,59.7931034 152.804598,57.8101194 152.804598,55.3639847 C152.804598,52.9178499 154.787582,50.9348659 157.233716,50.9348659 Z M29.8965517,25.467433 C32.3426865,25.467433 34.3256705,27.450417 34.3256705,29.8965517 C34.3256705,32.3426865 32.3426865,34.3256705 29.8965517,34.3256705 C27.450417,34.3256705 25.467433,32.3426865 25.467433,29.8965517 C25.467433,27.450417 27.450417,25.467433 29.8965517,25.467433 Z M182.701149,25.467433 C185.147284,25.467433 187.130268,27.450417 187.130268,29.8965517 C187.130268,32.3426865 185.147284,34.3256705 182.701149,34.3256705 C180.255015,34.3256705 178.272031,32.3426865 178.272031,29.8965517 C178.272031,27.450417 180.255015,25.467433 182.701149,25.467433 Z M284.570881,25.467433 C287.017016,25.467433 289,27.450417 289,29.8965517 C289,32.3426865 287.017016,34.3256705 284.570881,34.3256705 C282.124746,34.3256705 280.141762,32.3426865 280.141762,29.8965517 C280.141762,27.450417 282.124746,25.467433 284.570881,25.467433 Z M80.8314176,25.467433 C83.2775524,25.467433 85.2605364,27.450417 85.2605364,29.8965517 C85.2605364,32.3426865 83.2775524,34.3256705 80.8314176,34.3256705 C78.3852829,34.3256705 76.4022989,32.3426865 76.4022989,29.8965517 C76.4022989,27.450417 78.3852829,25.467433 80.8314176,25.467433 Z M259.103448,25.467433 C261.549583,25.467433 263.532567,27.450417 263.532567,29.8965517 C263.532567,32.3426865 261.549583,34.3256705 259.103448,34.3256705 C256.657314,34.3256705 254.67433,32.3426865 254.67433,29.8965517 C254.67433,27.450417 256.657314,25.467433 259.103448,25.467433 Z M55.3639847,25.467433 C57.8101194,25.467433 59.7931034,27.450417 59.7931034,29.8965517 C59.7931034,32.3426865 57.8101194,34.3256705 55.3639847,34.3256705 C52.9178499,34.3256705 50.9348659,32.3426865 50.9348659,29.8965517 C50.9348659,27.450417 52.9178499,25.467433 55.3639847,25.467433 Z M208.168582,25.467433 C210.614717,25.467433 212.597701,27.450417 212.597701,29.8965517 C212.597701,32.3426865 210.614717,34.3256705 208.168582,34.3256705 C205.722448,34.3256705 203.739464,32.3426865 203.739464,29.8965517 C203.739464,27.450417 205.722448,25.467433 208.168582,25.467433 Z M131.766284,25.467433 C134.212418,25.467433 136.195402,27.450417 136.195402,29.8965517 C136.195402,32.3426865 134.212418,34.3256705 131.766284,34.3256705 C129.320149,34.3256705 127.337165,32.3426865 127.337165,29.8965517 C127.337165,27.450417 129.320149,25.467433 131.766284,25.467433 Z M106.298851,25.467433 C108.744985,25.467433 110.727969,27.450417 110.727969,29.8965517 C110.727969,32.3426865 108.744985,34.3256705 106.298851,34.3256705 C103.852716,34.3256705 101.869732,32.3426865 101.869732,29.8965517 C101.869732,27.450417 103.852716,25.467433 106.298851,25.467433 Z M233.636015,25.467433 C236.08215,25.467433 238.065134,27.450417 238.065134,29.8965517 C238.065134,32.3426865 236.08215,34.3256705 233.636015,34.3256705 C231.189881,34.3256705 229.206897,32.3426865 229.206897,29.8965517 C229.206897,27.450417 231.189881,25.467433 233.636015,25.467433 Z M4.42911877,25.467433 C6.87525353,25.467433 8.85823755,27.450417 8.85823755,29.8965517 C8.85823755,32.3426865 6.87525353,34.3256705 4.42911877,34.3256705 C1.98298402,34.3256705 -1.28785871e-13,32.3426865 -1.28785871e-13,29.8965517 C-1.28785871e-13,27.450417 1.98298402,25.467433 4.42911877,25.467433 Z M157.233716,25.467433 C159.679851,25.467433 161.662835,27.450417 161.662835,29.8965517 C161.662835,32.3426865 159.679851,34.3256705 157.233716,34.3256705 C154.787582,34.3256705 152.804598,32.3426865 152.804598,29.8965517 C152.804598,27.450417 154.787582,25.467433 157.233716,25.467433 Z M4.42911877,3.2596148e-13 C6.87525353,3.2596148e-13 8.85823755,1.98298402 8.85823755,4.42911877 C8.85823755,6.87525353 6.87525353,8.85823755 4.42911877,8.85823755 C1.98298402,8.85823755 -1.28785871e-13,6.87525353 -1.28785871e-13,4.42911877 C-1.28785871e-13,1.98298402 1.98298402,3.2596148e-13 4.42911877,3.2596148e-13 Z M29.8965517,3.2596148e-13 C32.3426865,3.2596148e-13 34.3256705,1.98298402 34.3256705,4.42911877 C34.3256705,6.87525353 32.3426865,8.85823755 29.8965517,8.85823755 C27.450417,8.85823755 25.467433,6.87525353 25.467433,4.42911877 C25.467433,1.98298402 27.450417,3.2596148e-13 29.8965517,3.2596148e-13 Z M55.3639847,3.2596148e-13 C57.8101194,3.2596148e-13 59.7931034,1.98298402 59.7931034,4.42911877 C59.7931034,6.87525353 57.8101194,8.85823755 55.3639847,8.85823755 C52.9178499,8.85823755 50.9348659,6.87525353 50.9348659,4.42911877 C50.9348659,1.98298402 52.9178499,3.2596148e-13 55.3639847,3.2596148e-13 Z M80.8314176,3.2596148e-13 C83.2775524,3.2596148e-13 85.2605364,1.98298402 85.2605364,4.42911877 C85.2605364,6.87525353 83.2775524,8.85823755 80.8314176,8.85823755 C78.3852829,8.85823755 76.4022989,6.87525353 76.4022989,4.42911877 C76.4022989,1.98298402 78.3852829,3.2596148e-13 80.8314176,3.2596148e-13 Z M106.298851,3.2596148e-13 C108.744985,3.2596148e-13 110.727969,1.98298402 110.727969,4.42911877 C110.727969,6.87525353 108.744985,8.85823755 106.298851,8.85823755 C103.852716,8.85823755 101.869732,6.87525353 101.869732,4.42911877 C101.869732,1.98298402 103.852716,3.2596148e-13 106.298851,3.2596148e-13 Z M131.766284,3.2596148e-13 C134.212418,3.2596148e-13 136.195402,1.98298402 136.195402,4.42911877 C136.195402,6.87525353 134.212418,8.85823755 131.766284,8.85823755 C129.320149,8.85823755 127.337165,6.87525353 127.337165,4.42911877 C127.337165,1.98298402 129.320149,3.2596148e-13 131.766284,3.2596148e-13 Z M157.233716,3.2596148e-13 C159.679851,3.2596148e-13 161.662835,1.98298402 161.662835,4.42911877 C161.662835,6.87525353 159.679851,8.85823755 157.233716,8.85823755 C154.787582,8.85823755 152.804598,6.87525353 152.804598,4.42911877 C152.804598,1.98298402 154.787582,3.2596148e-13 157.233716,3.2596148e-13 Z M182.701149,3.2596148e-13 C185.147284,3.2596148e-13 187.130268,1.98298402 187.130268,4.42911877 C187.130268,6.87525353 185.147284,8.85823755 182.701149,8.85823755 C180.255015,8.85823755 178.272031,6.87525353 178.272031,4.42911877 C178.272031,1.98298402 180.255015,3.2596148e-13 182.701149,3.2596148e-13 Z M208.168582,3.2596148e-13 C210.614717,3.2596148e-13 212.597701,1.98298402 212.597701,4.42911877 C212.597701,6.87525353 210.614717,8.85823755 208.168582,8.85823755 C205.722448,8.85823755 203.739464,6.87525353 203.739464,4.42911877 C203.739464,1.98298402 205.722448,3.2596148e-13 208.168582,3.2596148e-13 Z M233.636015,3.2596148e-13 C236.08215,3.2596148e-13 238.065134,1.98298402 238.065134,4.42911877 C238.065134,6.87525353 236.08215,8.85823755 233.636015,8.85823755 C231.189881,8.85823755 229.206897,6.87525353 229.206897,4.42911877 C229.206897,1.98298402 231.189881,3.2596148e-13 233.636015,3.2596148e-13 Z M259.103448,3.2596148e-13 C261.549583,3.2596148e-13 263.532567,1.98298402 263.532567,4.42911877 C263.532567,6.87525353 261.549583,8.85823755 259.103448,8.85823755 C256.657314,8.85823755 254.67433,6.87525353 254.67433,4.42911877 C254.67433,1.98298402 256.657314,3.2596148e-13 259.103448,3.2596148e-13 Z M284.570881,3.2596148e-13 C287.017016,3.2596148e-13 289,1.98298402 289,4.42911877 C289,6.87525353 287.017016,8.85823755 284.570881,8.85823755 C282.124746,8.85823755 280.141762,6.87525353 280.141762,4.42911877 C280.141762,1.98298402 282.124746,3.2596148e-13 284.570881,3.2596148e-13 Z" opacity=".34" transform="rotate(20 -1040.168 622.379)"/>
    <circle cx="760" cy="360" r="102" stroke="url(#nbb-bg-b-a)" stroke-width="8" opacity=".7"/>
    <circle cx="460" cy="50.25" r="46" stroke="#2A2F45" stroke-width="8"/>
    <circle cx="25" cy="406" r="23" stroke="#1851BE" stroke-width="4" opacity=".233"/>
    <path stroke="#8792A2" stroke-linecap="square" d="M597.25,76.75 L596.75,293.25" opacity=".4"/>
    <path stroke="#F84F77" stroke-linecap="square" d="M87.625,892.125 L396.874895,891.71648" opacity=".4"/>
    <path stroke="#8792A2" stroke-linecap="square" d="M1224.49684,206 L838,207.831739" opacity=".3"/>
  </g>
</svg>
