<svg xmlns="http://www.w3.org/2000/svg" width="1575" height="1190" viewBox="0 0 1575 1190">
  <defs>
    <linearGradient id="nbb-bg-d-dark-a" x1="50%" x2="41.962%" y1="100%" y2="0%">
      <stop offset="0%" stop-color="#96F"/>
      <stop offset="100%" stop-color="#5534A6"/>
    </linearGradient>
    <linearGradient id="nbb-bg-d-dark-b" x1="50.008%" x2="50.007%" y1="0%" y2="100%">
      <stop offset="0%" stop-color="#2A6CBE" stop-opacity=".381"/>
      <stop offset="100%" stop-color="#1851BE" stop-opacity=".9"/>
    </linearGradient>
    <linearGradient id="nbb-bg-d-dark-c" x1="50%" x2="41.962%" y1="100%" y2="0%">
      <stop offset="0%" stop-color="#6142B0"/>
      <stop offset="100%" stop-color="#5534A6"/>
    </linearGradient>
    <linearGradient id="nbb-bg-d-dark-d" x1="50%" x2="50%" y1="100%" y2="0%">
      <stop offset="0%" stop-color="#96F" stop-opacity="0"/>
      <stop offset="100%" stop-color="#5534A6"/>
    </linearGradient>
    <linearGradient id="nbb-bg-d-dark-e" x1="50%" x2="50%" y1="100%" y2="0%">
      <stop offset="0%" stop-color="#96F" stop-opacity="0"/>
      <stop offset="100%" stop-color="#5534A6"/>
    </linearGradient>
    <linearGradient id="nbb-bg-d-dark-f" x1="4.846%" x2="103.193%" y1="0%" y2="0%">
      <stop offset="0%" stop-color="#3589E0" stop-opacity="0"/>
      <stop offset="100%" stop-color="#1851BE"/>
    </linearGradient>
  </defs>
  <g fill="none" fill-rule="evenodd" transform="translate(-27)">
    <path fill="url(#nbb-bg-d-dark-a)" d="M217.624521,387.739464 C221.010175,387.739464 223.754789,390.484078 223.754789,393.869732 C223.754789,397.255385 221.010175,400 217.624521,400 C214.238867,400 211.494253,397.255385 211.494253,393.869732 C211.494253,390.484078 214.238867,387.739464 217.624521,387.739464 Z M252.873563,387.739464 C256.259217,387.739464 259.003831,390.484078 259.003831,393.869732 C259.003831,397.255385 256.259217,400 252.873563,400 C249.48791,400 246.743295,397.255385 246.743295,393.869732 C246.743295,390.484078 249.48791,387.739464 252.873563,387.739464 Z M288.122605,387.739464 C291.508259,387.739464 294.252874,390.484078 294.252874,393.869732 C294.252874,397.255385 291.508259,400 288.122605,400 C284.736952,400 281.992337,397.255385 281.992337,393.869732 C281.992337,390.484078 284.736952,387.739464 288.122605,387.739464 Z M323.371648,387.739464 C326.757301,387.739464 329.501916,390.484078 329.501916,393.869732 C329.501916,397.255385 326.757301,400 323.371648,400 C319.985994,400 317.241379,397.255385 317.241379,393.869732 C317.241379,390.484078 319.985994,387.739464 323.371648,387.739464 Z M358.62069,387.739464 C362.006343,387.739464 364.750958,390.484078 364.750958,393.869732 C364.750958,397.255385 362.006343,400 358.62069,400 C355.235036,400 352.490421,397.255385 352.490421,393.869732 C352.490421,390.484078 355.235036,387.739464 358.62069,387.739464 Z M393.869732,387.739464 C397.255385,387.739464 400,390.484078 400,393.869732 C400,397.255385 397.255385,400 393.869732,400 C390.484078,400 387.739464,397.255385 387.739464,393.869732 C387.739464,390.484078 390.484078,387.739464 393.869732,387.739464 Z M6.1302682,387.739464 C9.51592184,387.739464 12.2605364,390.484078 12.2605364,393.869732 C12.2605364,397.255385 9.51592184,400 6.1302682,400 C2.74461456,400 -1.28785871e-13,397.255385 -1.28785871e-13,393.869732 C-1.28785871e-13,390.484078 2.74461456,387.739464 6.1302682,387.739464 Z M41.3793103,387.739464 C44.764964,387.739464 47.5095785,390.484078 47.5095785,393.869732 C47.5095785,397.255385 44.764964,400 41.3793103,400 C37.9936567,400 35.2490421,397.255385 35.2490421,393.869732 C35.2490421,390.484078 37.9936567,387.739464 41.3793103,387.739464 Z M76.6283525,387.739464 C80.0140061,387.739464 82.7586207,390.484078 82.7586207,393.869732 C82.7586207,397.255385 80.0140061,400 76.6283525,400 C73.2426989,400 70.4980843,397.255385 70.4980843,393.869732 C70.4980843,390.484078 73.2426989,387.739464 76.6283525,387.739464 Z M111.877395,387.739464 C115.263048,387.739464 118.007663,390.484078 118.007663,393.869732 C118.007663,397.255385 115.263048,400 111.877395,400 C108.491741,400 105.747126,397.255385 105.747126,393.869732 C105.747126,390.484078 108.491741,387.739464 111.877395,387.739464 Z M147.126437,387.739464 C150.51209,387.739464 153.256705,390.484078 153.256705,393.869732 C153.256705,397.255385 150.51209,400 147.126437,400 C143.740783,400 140.996169,397.255385 140.996169,393.869732 C140.996169,390.484078 143.740783,387.739464 147.126437,387.739464 Z M182.375479,387.739464 C185.761133,387.739464 188.505747,390.484078 188.505747,393.869732 C188.505747,397.255385 185.761133,400 182.375479,400 C178.989825,400 176.245211,397.255385 176.245211,393.869732 C176.245211,390.484078 178.989825,387.739464 182.375479,387.739464 Z M6.1302682,352.490421 C9.51592184,352.490421 12.2605364,355.235036 12.2605364,358.62069 C12.2605364,362.006343 9.51592184,364.750958 6.1302682,364.750958 C2.74461456,364.750958 -1.28785871e-13,362.006343 -1.28785871e-13,358.62069 C-1.28785871e-13,355.235036 2.74461456,352.490421 6.1302682,352.490421 Z M41.3793103,352.490421 C44.764964,352.490421 47.5095785,355.235036 47.5095785,358.62069 C47.5095785,362.006343 44.764964,364.750958 41.3793103,364.750958 C37.9936567,364.750958 35.2490421,362.006343 35.2490421,358.62069 C35.2490421,355.235036 37.9936567,352.490421 41.3793103,352.490421 Z M76.6283525,352.490421 C80.0140061,352.490421 82.7586207,355.235036 82.7586207,358.62069 C82.7586207,362.006343 80.0140061,364.750958 76.6283525,364.750958 C73.2426989,364.750958 70.4980843,362.006343 70.4980843,358.62069 C70.4980843,355.235036 73.2426989,352.490421 76.6283525,352.490421 Z M323.371648,352.490421 C326.757301,352.490421 329.501916,355.235036 329.501916,358.62069 C329.501916,362.006343 326.757301,364.750958 323.371648,364.750958 C319.985994,364.750958 317.241379,362.006343 317.241379,358.62069 C317.241379,355.235036 319.985994,352.490421 323.371648,352.490421 Z M358.62069,352.490421 C362.006343,352.490421 364.750958,355.235036 364.750958,358.62069 C364.750958,362.006343 362.006343,364.750958 358.62069,364.750958 C355.235036,364.750958 352.490421,362.006343 352.490421,358.62069 C352.490421,355.235036 355.235036,352.490421 358.62069,352.490421 Z M393.869732,352.490421 C397.255385,352.490421 400,355.235036 400,358.62069 C400,362.006343 397.255385,364.750958 393.869732,364.750958 C390.484078,364.750958 387.739464,362.006343 387.739464,358.62069 C387.739464,355.235036 390.484078,352.490421 393.869732,352.490421 Z M111.877395,352.490421 C115.263048,352.490421 118.007663,355.235036 118.007663,358.62069 C118.007663,362.006343 115.263048,364.750958 111.877395,364.750958 C108.491741,364.750958 105.747126,362.006343 105.747126,358.62069 C105.747126,355.235036 108.491741,352.490421 111.877395,352.490421 Z M147.126437,352.490421 C150.51209,352.490421 153.256705,355.235036 153.256705,358.62069 C153.256705,362.006343 150.51209,364.750958 147.126437,364.750958 C143.740783,364.750958 140.996169,362.006343 140.996169,358.62069 C140.996169,355.235036 143.740783,352.490421 147.126437,352.490421 Z M182.375479,352.490421 C185.761133,352.490421 188.505747,355.235036 188.505747,358.62069 C188.505747,362.006343 185.761133,364.750958 182.375479,364.750958 C178.989825,364.750958 176.245211,362.006343 176.245211,358.62069 C176.245211,355.235036 178.989825,352.490421 182.375479,352.490421 Z M217.624521,352.490421 C221.010175,352.490421 223.754789,355.235036 223.754789,358.62069 C223.754789,362.006343 221.010175,364.750958 217.624521,364.750958 C214.238867,364.750958 211.494253,362.006343 211.494253,358.62069 C211.494253,355.235036 214.238867,352.490421 217.624521,352.490421 Z M252.873563,352.490421 C256.259217,352.490421 259.003831,355.235036 259.003831,358.62069 C259.003831,362.006343 256.259217,364.750958 252.873563,364.750958 C249.48791,364.750958 246.743295,362.006343 246.743295,358.62069 C246.743295,355.235036 249.48791,352.490421 252.873563,352.490421 Z M288.122605,352.490421 C291.508259,352.490421 294.252874,355.235036 294.252874,358.62069 C294.252874,362.006343 291.508259,364.750958 288.122605,364.750958 C284.736952,364.750958 281.992337,362.006343 281.992337,358.62069 C281.992337,355.235036 284.736952,352.490421 288.122605,352.490421 Z M323.371648,317.241379 C326.757301,317.241379 329.501916,319.985994 329.501916,323.371648 C329.501916,326.757301 326.757301,329.501916 323.371648,329.501916 C319.985994,329.501916 317.241379,326.757301 317.241379,323.371648 C317.241379,319.985994 319.985994,317.241379 323.371648,317.241379 Z M252.873563,317.241379 C256.259217,317.241379 259.003831,319.985994 259.003831,323.371648 C259.003831,326.757301 256.259217,329.501916 252.873563,329.501916 C249.48791,329.501916 246.743295,326.757301 246.743295,323.371648 C246.743295,319.985994 249.48791,317.241379 252.873563,317.241379 Z M358.62069,317.241379 C362.006343,317.241379 364.750958,319.985994 364.750958,323.371648 C364.750958,326.757301 362.006343,329.501916 358.62069,329.501916 C355.235036,329.501916 352.490421,326.757301 352.490421,323.371648 C352.490421,319.985994 355.235036,317.241379 358.62069,317.241379 Z M111.877395,317.241379 C115.263048,317.241379 118.007663,319.985994 118.007663,323.371648 C118.007663,326.757301 115.263048,329.501916 111.877395,329.501916 C108.491741,329.501916 105.747126,326.757301 105.747126,323.371648 C105.747126,319.985994 108.491741,317.241379 111.877395,317.241379 Z M6.1302682,317.241379 C9.51592184,317.241379 12.2605364,319.985994 12.2605364,323.371648 C12.2605364,326.757301 9.51592184,329.501916 6.1302682,329.501916 C2.74461456,329.501916 -1.28785871e-13,326.757301 -1.28785871e-13,323.371648 C-1.28785871e-13,319.985994 2.74461456,317.241379 6.1302682,317.241379 Z M147.126437,317.241379 C150.51209,317.241379 153.256705,319.985994 153.256705,323.371648 C153.256705,326.757301 150.51209,329.501916 147.126437,329.501916 C143.740783,329.501916 140.996169,326.757301 140.996169,323.371648 C140.996169,319.985994 143.740783,317.241379 147.126437,317.241379 Z M288.122605,317.241379 C291.508259,317.241379 294.252874,319.985994 294.252874,323.371648 C294.252874,326.757301 291.508259,329.501916 288.122605,329.501916 C284.736952,329.501916 281.992337,326.757301 281.992337,323.371648 C281.992337,319.985994 284.736952,317.241379 288.122605,317.241379 Z M41.3793103,317.241379 C44.764964,317.241379 47.5095785,319.985994 47.5095785,323.371648 C47.5095785,326.757301 44.764964,329.501916 41.3793103,329.501916 C37.9936567,329.501916 35.2490421,326.757301 35.2490421,323.371648 C35.2490421,319.985994 37.9936567,317.241379 41.3793103,317.241379 Z M182.375479,317.241379 C185.761133,317.241379 188.505747,319.985994 188.505747,323.371648 C188.505747,326.757301 185.761133,329.501916 182.375479,329.501916 C178.989825,329.501916 176.245211,326.757301 176.245211,323.371648 C176.245211,319.985994 178.989825,317.241379 182.375479,317.241379 Z M217.624521,317.241379 C221.010175,317.241379 223.754789,319.985994 223.754789,323.371648 C223.754789,326.757301 221.010175,329.501916 217.624521,329.501916 C214.238867,329.501916 211.494253,326.757301 211.494253,323.371648 C211.494253,319.985994 214.238867,317.241379 217.624521,317.241379 Z M393.869732,317.241379 C397.255385,317.241379 400,319.985994 400,323.371648 C400,326.757301 397.255385,329.501916 393.869732,329.501916 C390.484078,329.501916 387.739464,326.757301 387.739464,323.371648 C387.739464,319.985994 390.484078,317.241379 393.869732,317.241379 Z M76.6283525,317.241379 C80.0140061,317.241379 82.7586207,319.985994 82.7586207,323.371648 C82.7586207,326.757301 80.0140061,329.501916 76.6283525,329.501916 C73.2426989,329.501916 70.4980843,326.757301 70.4980843,323.371648 C70.4980843,319.985994 73.2426989,317.241379 76.6283525,317.241379 Z M41.3793103,281.992337 C44.764964,281.992337 47.5095785,284.736952 47.5095785,288.122605 C47.5095785,291.508259 44.764964,294.252874 41.3793103,294.252874 C37.9936567,294.252874 35.2490421,291.508259 35.2490421,288.122605 C35.2490421,284.736952 37.9936567,281.992337 41.3793103,281.992337 Z M111.877395,281.992337 C115.263048,281.992337 118.007663,284.736952 118.007663,288.122605 C118.007663,291.508259 115.263048,294.252874 111.877395,294.252874 C108.491741,294.252874 105.747126,291.508259 105.747126,288.122605 C105.747126,284.736952 108.491741,281.992337 111.877395,281.992337 Z M182.375479,281.992337 C185.761133,281.992337 188.505747,284.736952 188.505747,288.122605 C188.505747,291.508259 185.761133,294.252874 182.375479,294.252874 C178.989825,294.252874 176.245211,291.508259 176.245211,288.122605 C176.245211,284.736952 178.989825,281.992337 182.375479,281.992337 Z M323.371648,281.992337 C326.757301,281.992337 329.501916,284.736952 329.501916,288.122605 C329.501916,291.508259 326.757301,294.252874 323.371648,294.252874 C319.985994,294.252874 317.241379,291.508259 317.241379,288.122605 C317.241379,284.736952 319.985994,281.992337 323.371648,281.992337 Z M217.624521,281.992337 C221.010175,281.992337 223.754789,284.736952 223.754789,288.122605 C223.754789,291.508259 221.010175,294.252874 217.624521,294.252874 C214.238867,294.252874 211.494253,291.508259 211.494253,288.122605 C211.494253,284.736952 214.238867,281.992337 217.624521,281.992337 Z M288.122605,281.992337 C291.508259,281.992337 294.252874,284.736952 294.252874,288.122605 C294.252874,291.508259 291.508259,294.252874 288.122605,294.252874 C284.736952,294.252874 281.992337,291.508259 281.992337,288.122605 C281.992337,284.736952 284.736952,281.992337 288.122605,281.992337 Z M6.1302682,281.992337 C9.51592184,281.992337 12.2605364,284.736952 12.2605364,288.122605 C12.2605364,291.508259 9.51592184,294.252874 6.1302682,294.252874 C2.74461456,294.252874 -1.28785871e-13,291.508259 -1.28785871e-13,288.122605 C-1.28785871e-13,284.736952 2.74461456,281.992337 6.1302682,281.992337 Z M76.6283525,281.992337 C80.0140061,281.992337 82.7586207,284.736952 82.7586207,288.122605 C82.7586207,291.508259 80.0140061,294.252874 76.6283525,294.252874 C73.2426989,294.252874 70.4980843,291.508259 70.4980843,288.122605 C70.4980843,284.736952 73.2426989,281.992337 76.6283525,281.992337 Z M393.869732,281.992337 C397.255385,281.992337 400,284.736952 400,288.122605 C400,291.508259 397.255385,294.252874 393.869732,294.252874 C390.484078,294.252874 387.739464,291.508259 387.739464,288.122605 C387.739464,284.736952 390.484078,281.992337 393.869732,281.992337 Z M252.873563,281.992337 C256.259217,281.992337 259.003831,284.736952 259.003831,288.122605 C259.003831,291.508259 256.259217,294.252874 252.873563,294.252874 C249.48791,294.252874 246.743295,291.508259 246.743295,288.122605 C246.743295,284.736952 249.48791,281.992337 252.873563,281.992337 Z M147.126437,281.992337 C150.51209,281.992337 153.256705,284.736952 153.256705,288.122605 C153.256705,291.508259 150.51209,294.252874 147.126437,294.252874 C143.740783,294.252874 140.996169,291.508259 140.996169,288.122605 C140.996169,284.736952 143.740783,281.992337 147.126437,281.992337 Z M358.62069,281.992337 C362.006343,281.992337 364.750958,284.736952 364.750958,288.122605 C364.750958,291.508259 362.006343,294.252874 358.62069,294.252874 C355.235036,294.252874 352.490421,291.508259 352.490421,288.122605 C352.490421,284.736952 355.235036,281.992337 358.62069,281.992337 Z M393.869732,246.743295 C397.255385,246.743295 400,249.48791 400,252.873563 C400,256.259217 397.255385,259.003831 393.869732,259.003831 C390.484078,259.003831 387.739464,256.259217 387.739464,252.873563 C387.739464,249.48791 390.484078,246.743295 393.869732,246.743295 Z M288.122605,246.743295 C291.508259,246.743295 294.252874,249.48791 294.252874,252.873563 C294.252874,256.259217 291.508259,259.003831 288.122605,259.003831 C284.736952,259.003831 281.992337,256.259217 281.992337,252.873563 C281.992337,249.48791 284.736952,246.743295 288.122605,246.743295 Z M111.877395,246.743295 C115.263048,246.743295 118.007663,249.48791 118.007663,252.873563 C118.007663,256.259217 115.263048,259.003831 111.877395,259.003831 C108.491741,259.003831 105.747126,256.259217 105.747126,252.873563 C105.747126,249.48791 108.491741,246.743295 111.877395,246.743295 Z M358.62069,246.743295 C362.006343,246.743295 364.750958,249.48791 364.750958,252.873563 C364.750958,256.259217 362.006343,259.003831 358.62069,259.003831 C355.235036,259.003831 352.490421,256.259217 352.490421,252.873563 C352.490421,249.48791 355.235036,246.743295 358.62069,246.743295 Z M252.873563,246.743295 C256.259217,246.743295 259.003831,249.48791 259.003831,252.873563 C259.003831,256.259217 256.259217,259.003831 252.873563,259.003831 C249.48791,259.003831 246.743295,256.259217 246.743295,252.873563 C246.743295,249.48791 249.48791,246.743295 252.873563,246.743295 Z M41.3793103,246.743295 C44.764964,246.743295 47.5095785,249.48791 47.5095785,252.873563 C47.5095785,256.259217 44.764964,259.003831 41.3793103,259.003831 C37.9936567,259.003831 35.2490421,256.259217 35.2490421,252.873563 C35.2490421,249.48791 37.9936567,246.743295 41.3793103,246.743295 Z M6.1302682,246.743295 C9.51592184,246.743295 12.2605364,249.48791 12.2605364,252.873563 C12.2605364,256.259217 9.51592184,259.003831 6.1302682,259.003831 C2.74461456,259.003831 -1.28785871e-13,256.259217 -1.28785871e-13,252.873563 C-1.28785871e-13,249.48791 2.74461456,246.743295 6.1302682,246.743295 Z M323.371648,246.743295 C326.757301,246.743295 329.501916,249.48791 329.501916,252.873563 C329.501916,256.259217 326.757301,259.003831 323.371648,259.003831 C319.985994,259.003831 317.241379,256.259217 317.241379,252.873563 C317.241379,249.48791 319.985994,246.743295 323.371648,246.743295 Z M217.624521,246.743295 C221.010175,246.743295 223.754789,249.48791 223.754789,252.873563 C223.754789,256.259217 221.010175,259.003831 217.624521,259.003831 C214.238867,259.003831 211.494253,256.259217 211.494253,252.873563 C211.494253,249.48791 214.238867,246.743295 217.624521,246.743295 Z M147.126437,246.743295 C150.51209,246.743295 153.256705,249.48791 153.256705,252.873563 C153.256705,256.259217 150.51209,259.003831 147.126437,259.003831 C143.740783,259.003831 140.996169,256.259217 140.996169,252.873563 C140.996169,249.48791 143.740783,246.743295 147.126437,246.743295 Z M182.375479,246.743295 C185.761133,246.743295 188.505747,249.48791 188.505747,252.873563 C188.505747,256.259217 185.761133,259.003831 182.375479,259.003831 C178.989825,259.003831 176.245211,256.259217 176.245211,252.873563 C176.245211,249.48791 178.989825,246.743295 182.375479,246.743295 Z M76.6283525,246.743295 C80.0140061,246.743295 82.7586207,249.48791 82.7586207,252.873563 C82.7586207,256.259217 80.0140061,259.003831 76.6283525,259.003831 C73.2426989,259.003831 70.4980843,256.259217 70.4980843,252.873563 C70.4980843,249.48791 73.2426989,246.743295 76.6283525,246.743295 Z M6.1302682,211.494253 C9.51592184,211.494253 12.2605364,214.238867 12.2605364,217.624521 C12.2605364,221.010175 9.51592184,223.754789 6.1302682,223.754789 C2.74461456,223.754789 -1.28785871e-13,221.010175 -1.28785871e-13,217.624521 C-1.28785871e-13,214.238867 2.74461456,211.494253 6.1302682,211.494253 Z M41.3793103,211.494253 C44.764964,211.494253 47.5095785,214.238867 47.5095785,217.624521 C47.5095785,221.010175 44.764964,223.754789 41.3793103,223.754789 C37.9936567,223.754789 35.2490421,221.010175 35.2490421,217.624521 C35.2490421,214.238867 37.9936567,211.494253 41.3793103,211.494253 Z M76.6283525,211.494253 C80.0140061,211.494253 82.7586207,214.238867 82.7586207,217.624521 C82.7586207,221.010175 80.0140061,223.754789 76.6283525,223.754789 C73.2426989,223.754789 70.4980843,221.010175 70.4980843,217.624521 C70.4980843,214.238867 73.2426989,211.494253 76.6283525,211.494253 Z M358.62069,211.494253 C362.006343,211.494253 364.750958,214.238867 364.750958,217.624521 C364.750958,221.010175 362.006343,223.754789 358.62069,223.754789 C355.235036,223.754789 352.490421,221.010175 352.490421,217.624521 C352.490421,214.238867 355.235036,211.494253 358.62069,211.494253 Z M393.869732,211.494253 C397.255385,211.494253 400,214.238867 400,217.624521 C400,221.010175 397.255385,223.754789 393.869732,223.754789 C390.484078,223.754789 387.739464,221.010175 387.739464,217.624521 C387.739464,214.238867 390.484078,211.494253 393.869732,211.494253 Z M288.122605,211.494253 C291.508259,211.494253 294.252874,214.238867 294.252874,217.624521 C294.252874,221.010175 291.508259,223.754789 288.122605,223.754789 C284.736952,223.754789 281.992337,221.010175 281.992337,217.624521 C281.992337,214.238867 284.736952,211.494253 288.122605,211.494253 Z M323.371648,211.494253 C326.757301,211.494253 329.501916,214.238867 329.501916,217.624521 C329.501916,221.010175 326.757301,223.754789 323.371648,223.754789 C319.985994,223.754789 317.241379,221.010175 317.241379,217.624521 C317.241379,214.238867 319.985994,211.494253 323.371648,211.494253 Z M252.873563,211.494253 C256.259217,211.494253 259.003831,214.238867 259.003831,217.624521 C259.003831,221.010175 256.259217,223.754789 252.873563,223.754789 C249.48791,223.754789 246.743295,221.010175 246.743295,217.624521 C246.743295,214.238867 249.48791,211.494253 252.873563,211.494253 Z M147.126437,211.494253 C150.51209,211.494253 153.256705,214.238867 153.256705,217.624521 C153.256705,221.010175 150.51209,223.754789 147.126437,223.754789 C143.740783,223.754789 140.996169,221.010175 140.996169,217.624521 C140.996169,214.238867 143.740783,211.494253 147.126437,211.494253 Z M217.624521,211.494253 C221.010175,211.494253 223.754789,214.238867 223.754789,217.624521 C223.754789,221.010175 221.010175,223.754789 217.624521,223.754789 C214.238867,223.754789 211.494253,221.010175 211.494253,217.624521 C211.494253,214.238867 214.238867,211.494253 217.624521,211.494253 Z M111.877395,211.494253 C115.263048,211.494253 118.007663,214.238867 118.007663,217.624521 C118.007663,221.010175 115.263048,223.754789 111.877395,223.754789 C108.491741,223.754789 105.747126,221.010175 105.747126,217.624521 C105.747126,214.238867 108.491741,211.494253 111.877395,211.494253 Z M182.375479,211.494253 C185.761133,211.494253 188.505747,214.238867 188.505747,217.624521 C188.505747,221.010175 185.761133,223.754789 182.375479,223.754789 C178.989825,223.754789 176.245211,221.010175 176.245211,217.624521 C176.245211,214.238867 178.989825,211.494253 182.375479,211.494253 Z M217.624521,176.245211 C221.010175,176.245211 223.754789,178.989825 223.754789,182.375479 C223.754789,185.761133 221.010175,188.505747 217.624521,188.505747 C214.238867,188.505747 211.494253,185.761133 211.494253,182.375479 C211.494253,178.989825 214.238867,176.245211 217.624521,176.245211 Z M76.6283525,176.245211 C80.0140061,176.245211 82.7586207,178.989825 82.7586207,182.375479 C82.7586207,185.761133 80.0140061,188.505747 76.6283525,188.505747 C73.2426989,188.505747 70.4980843,185.761133 70.4980843,182.375479 C70.4980843,178.989825 73.2426989,176.245211 76.6283525,176.245211 Z M182.375479,176.245211 C185.761133,176.245211 188.505747,178.989825 188.505747,182.375479 C188.505747,185.761133 185.761133,188.505747 182.375479,188.505747 C178.989825,188.505747 176.245211,185.761133 176.245211,182.375479 C176.245211,178.989825 178.989825,176.245211 182.375479,176.245211 Z M393.869732,176.245211 C397.255385,176.245211 400,178.989825 400,182.375479 C400,185.761133 397.255385,188.505747 393.869732,188.505747 C390.484078,188.505747 387.739464,185.761133 387.739464,182.375479 C387.739464,178.989825 390.484078,176.245211 393.869732,176.245211 Z M41.3793103,176.245211 C44.764964,176.245211 47.5095785,178.989825 47.5095785,182.375479 C47.5095785,185.761133 44.764964,188.505747 41.3793103,188.505747 C37.9936567,188.505747 35.2490421,185.761133 35.2490421,182.375479 C35.2490421,178.989825 37.9936567,176.245211 41.3793103,176.245211 Z M6.1302682,176.245211 C9.51592184,176.245211 12.2605364,178.989825 12.2605364,182.375479 C12.2605364,185.761133 9.51592184,188.505747 6.1302682,188.505747 C2.74461456,188.505747 -1.28785871e-13,185.761133 -1.28785871e-13,182.375479 C-1.28785871e-13,178.989825 2.74461456,176.245211 6.1302682,176.245211 Z M111.877395,176.245211 C115.263048,176.245211 118.007663,178.989825 118.007663,182.375479 C118.007663,185.761133 115.263048,188.505747 111.877395,188.505747 C108.491741,188.505747 105.747126,185.761133 105.747126,182.375479 C105.747126,178.989825 108.491741,176.245211 111.877395,176.245211 Z M252.873563,176.245211 C256.259217,176.245211 259.003831,178.989825 259.003831,182.375479 C259.003831,185.761133 256.259217,188.505747 252.873563,188.505747 C249.48791,188.505747 246.743295,185.761133 246.743295,182.375479 C246.743295,178.989825 249.48791,176.245211 252.873563,176.245211 Z M147.126437,176.245211 C150.51209,176.245211 153.256705,178.989825 153.256705,182.375479 C153.256705,185.761133 150.51209,188.505747 147.126437,188.505747 C143.740783,188.505747 140.996169,185.761133 140.996169,182.375479 C140.996169,178.989825 143.740783,176.245211 147.126437,176.245211 Z M323.371648,176.245211 C326.757301,176.245211 329.501916,178.989825 329.501916,182.375479 C329.501916,185.761133 326.757301,188.505747 323.371648,188.505747 C319.985994,188.505747 317.241379,185.761133 317.241379,182.375479 C317.241379,178.989825 319.985994,176.245211 323.371648,176.245211 Z M358.62069,176.245211 C362.006343,176.245211 364.750958,178.989825 364.750958,182.375479 C364.750958,185.761133 362.006343,188.505747 358.62069,188.505747 C355.235036,188.505747 352.490421,185.761133 352.490421,182.375479 C352.490421,178.989825 355.235036,176.245211 358.62069,176.245211 Z M288.122605,176.245211 C291.508259,176.245211 294.252874,178.989825 294.252874,182.375479 C294.252874,185.761133 291.508259,188.505747 288.122605,188.505747 C284.736952,188.505747 281.992337,185.761133 281.992337,182.375479 C281.992337,178.989825 284.736952,176.245211 288.122605,176.245211 Z M147.126437,140.996169 C150.51209,140.996169 153.256705,143.740783 153.256705,147.126437 C153.256705,150.51209 150.51209,153.256705 147.126437,153.256705 C143.740783,153.256705 140.996169,150.51209 140.996169,147.126437 C140.996169,143.740783 143.740783,140.996169 147.126437,140.996169 Z M323.371648,140.996169 C326.757301,140.996169 329.501916,143.740783 329.501916,147.126437 C329.501916,150.51209 326.757301,153.256705 323.371648,153.256705 C319.985994,153.256705 317.241379,150.51209 317.241379,147.126437 C317.241379,143.740783 319.985994,140.996169 323.371648,140.996169 Z M358.62069,140.996169 C362.006343,140.996169 364.750958,143.740783 364.750958,147.126437 C364.750958,150.51209 362.006343,153.256705 358.62069,153.256705 C355.235036,153.256705 352.490421,150.51209 352.490421,147.126437 C352.490421,143.740783 355.235036,140.996169 358.62069,140.996169 Z M182.375479,140.996169 C185.761133,140.996169 188.505747,143.740783 188.505747,147.126437 C188.505747,150.51209 185.761133,153.256705 182.375479,153.256705 C178.989825,153.256705 176.245211,150.51209 176.245211,147.126437 C176.245211,143.740783 178.989825,140.996169 182.375479,140.996169 Z M6.1302682,140.996169 C9.51592184,140.996169 12.2605364,143.740783 12.2605364,147.126437 C12.2605364,150.51209 9.51592184,153.256705 6.1302682,153.256705 C2.74461456,153.256705 -1.28785871e-13,150.51209 -1.28785871e-13,147.126437 C-1.28785871e-13,143.740783 2.74461456,140.996169 6.1302682,140.996169 Z M393.869732,140.996169 C397.255385,140.996169 400,143.740783 400,147.126437 C400,150.51209 397.255385,153.256705 393.869732,153.256705 C390.484078,153.256705 387.739464,150.51209 387.739464,147.126437 C387.739464,143.740783 390.484078,140.996169 393.869732,140.996169 Z M111.877395,140.996169 C115.263048,140.996169 118.007663,143.740783 118.007663,147.126437 C118.007663,150.51209 115.263048,153.256705 111.877395,153.256705 C108.491741,153.256705 105.747126,150.51209 105.747126,147.126437 C105.747126,143.740783 108.491741,140.996169 111.877395,140.996169 Z M41.3793103,140.996169 C44.764964,140.996169 47.5095785,143.740783 47.5095785,147.126437 C47.5095785,150.51209 44.764964,153.256705 41.3793103,153.256705 C37.9936567,153.256705 35.2490421,150.51209 35.2490421,147.126437 C35.2490421,143.740783 37.9936567,140.996169 41.3793103,140.996169 Z M288.122605,140.996169 C291.508259,140.996169 294.252874,143.740783 294.252874,147.126437 C294.252874,150.51209 291.508259,153.256705 288.122605,153.256705 C284.736952,153.256705 281.992337,150.51209 281.992337,147.126437 C281.992337,143.740783 284.736952,140.996169 288.122605,140.996169 Z M217.624521,140.996169 C221.010175,140.996169 223.754789,143.740783 223.754789,147.126437 C223.754789,150.51209 221.010175,153.256705 217.624521,153.256705 C214.238867,153.256705 211.494253,150.51209 211.494253,147.126437 C211.494253,143.740783 214.238867,140.996169 217.624521,140.996169 Z M76.6283525,140.996169 C80.0140061,140.996169 82.7586207,143.740783 82.7586207,147.126437 C82.7586207,150.51209 80.0140061,153.256705 76.6283525,153.256705 C73.2426989,153.256705 70.4980843,150.51209 70.4980843,147.126437 C70.4980843,143.740783 73.2426989,140.996169 76.6283525,140.996169 Z M252.873563,140.996169 C256.259217,140.996169 259.003831,143.740783 259.003831,147.126437 C259.003831,150.51209 256.259217,153.256705 252.873563,153.256705 C249.48791,153.256705 246.743295,150.51209 246.743295,147.126437 C246.743295,143.740783 249.48791,140.996169 252.873563,140.996169 Z M217.624521,105.747126 C221.010175,105.747126 223.754789,108.491741 223.754789,111.877395 C223.754789,115.263048 221.010175,118.007663 217.624521,118.007663 C214.238867,118.007663 211.494253,115.263048 211.494253,111.877395 C211.494253,108.491741 214.238867,105.747126 217.624521,105.747126 Z M76.6283525,105.747126 C80.0140061,105.747126 82.7586207,108.491741 82.7586207,111.877395 C82.7586207,115.263048 80.0140061,118.007663 76.6283525,118.007663 C73.2426989,118.007663 70.4980843,115.263048 70.4980843,111.877395 C70.4980843,108.491741 73.2426989,105.747126 76.6283525,105.747126 Z M147.126437,105.747126 C150.51209,105.747126 153.256705,108.491741 153.256705,111.877395 C153.256705,115.263048 150.51209,118.007663 147.126437,118.007663 C143.740783,118.007663 140.996169,115.263048 140.996169,111.877395 C140.996169,108.491741 143.740783,105.747126 147.126437,105.747126 Z M41.3793103,105.747126 C44.764964,105.747126 47.5095785,108.491741 47.5095785,111.877395 C47.5095785,115.263048 44.764964,118.007663 41.3793103,118.007663 C37.9936567,118.007663 35.2490421,115.263048 35.2490421,111.877395 C35.2490421,108.491741 37.9936567,105.747126 41.3793103,105.747126 Z M182.375479,105.747126 C185.761133,105.747126 188.505747,108.491741 188.505747,111.877395 C188.505747,115.263048 185.761133,118.007663 182.375479,118.007663 C178.989825,118.007663 176.245211,115.263048 176.245211,111.877395 C176.245211,108.491741 178.989825,105.747126 182.375479,105.747126 Z M393.869732,105.747126 C397.255385,105.747126 400,108.491741 400,111.877395 C400,115.263048 397.255385,118.007663 393.869732,118.007663 C390.484078,118.007663 387.739464,115.263048 387.739464,111.877395 C387.739464,108.491741 390.484078,105.747126 393.869732,105.747126 Z M358.62069,105.747126 C362.006343,105.747126 364.750958,108.491741 364.750958,111.877395 C364.750958,115.263048 362.006343,118.007663 358.62069,118.007663 C355.235036,118.007663 352.490421,115.263048 352.490421,111.877395 C352.490421,108.491741 355.235036,105.747126 358.62069,105.747126 Z M6.1302682,105.747126 C9.51592184,105.747126 12.2605364,108.491741 12.2605364,111.877395 C12.2605364,115.263048 9.51592184,118.007663 6.1302682,118.007663 C2.74461456,118.007663 -1.28785871e-13,115.263048 -1.28785871e-13,111.877395 C-1.28785871e-13,108.491741 2.74461456,105.747126 6.1302682,105.747126 Z M288.122605,105.747126 C291.508259,105.747126 294.252874,108.491741 294.252874,111.877395 C294.252874,115.263048 291.508259,118.007663 288.122605,118.007663 C284.736952,118.007663 281.992337,115.263048 281.992337,111.877395 C281.992337,108.491741 284.736952,105.747126 288.122605,105.747126 Z M252.873563,105.747126 C256.259217,105.747126 259.003831,108.491741 259.003831,111.877395 C259.003831,115.263048 256.259217,118.007663 252.873563,118.007663 C249.48791,118.007663 246.743295,115.263048 246.743295,111.877395 C246.743295,108.491741 249.48791,105.747126 252.873563,105.747126 Z M111.877395,105.747126 C115.263048,105.747126 118.007663,108.491741 118.007663,111.877395 C118.007663,115.263048 115.263048,118.007663 111.877395,118.007663 C108.491741,118.007663 105.747126,115.263048 105.747126,111.877395 C105.747126,108.491741 108.491741,105.747126 111.877395,105.747126 Z M323.371648,105.747126 C326.757301,105.747126 329.501916,108.491741 329.501916,111.877395 C329.501916,115.263048 326.757301,118.007663 323.371648,118.007663 C319.985994,118.007663 317.241379,115.263048 317.241379,111.877395 C317.241379,108.491741 319.985994,105.747126 323.371648,105.747126 Z M147.126437,70.4980843 C150.51209,70.4980843 153.256705,73.2426989 153.256705,76.6283525 C153.256705,80.0140061 150.51209,82.7586207 147.126437,82.7586207 C143.740783,82.7586207 140.996169,80.0140061 140.996169,76.6283525 C140.996169,73.2426989 143.740783,70.4980843 147.126437,70.4980843 Z M6.1302682,70.4980843 C9.51592184,70.4980843 12.2605364,73.2426989 12.2605364,76.6283525 C12.2605364,80.0140061 9.51592184,82.7586207 6.1302682,82.7586207 C2.74461456,82.7586207 -1.28785871e-13,80.0140061 -1.28785871e-13,76.6283525 C-1.28785871e-13,73.2426989 2.74461456,70.4980843 6.1302682,70.4980843 Z M393.869732,70.4980843 C397.255385,70.4980843 400,73.2426989 400,76.6283525 C400,80.0140061 397.255385,82.7586207 393.869732,82.7586207 C390.484078,82.7586207 387.739464,80.0140061 387.739464,76.6283525 C387.739464,73.2426989 390.484078,70.4980843 393.869732,70.4980843 Z M41.3793103,70.4980843 C44.764964,70.4980843 47.5095785,73.2426989 47.5095785,76.6283525 C47.5095785,80.0140061 44.764964,82.7586207 41.3793103,82.7586207 C37.9936567,82.7586207 35.2490421,80.0140061 35.2490421,76.6283525 C35.2490421,73.2426989 37.9936567,70.4980843 41.3793103,70.4980843 Z M76.6283525,70.4980843 C80.0140061,70.4980843 82.7586207,73.2426989 82.7586207,76.6283525 C82.7586207,80.0140061 80.0140061,82.7586207 76.6283525,82.7586207 C73.2426989,82.7586207 70.4980843,80.0140061 70.4980843,76.6283525 C70.4980843,73.2426989 73.2426989,70.4980843 76.6283525,70.4980843 Z M358.62069,70.4980843 C362.006343,70.4980843 364.750958,73.2426989 364.750958,76.6283525 C364.750958,80.0140061 362.006343,82.7586207 358.62069,82.7586207 C355.235036,82.7586207 352.490421,80.0140061 352.490421,76.6283525 C352.490421,73.2426989 355.235036,70.4980843 358.62069,70.4980843 Z M252.873563,70.4980843 C256.259217,70.4980843 259.003831,73.2426989 259.003831,76.6283525 C259.003831,80.0140061 256.259217,82.7586207 252.873563,82.7586207 C249.48791,82.7586207 246.743295,80.0140061 246.743295,76.6283525 C246.743295,73.2426989 249.48791,70.4980843 252.873563,70.4980843 Z M111.877395,70.4980843 C115.263048,70.4980843 118.007663,73.2426989 118.007663,76.6283525 C118.007663,80.0140061 115.263048,82.7586207 111.877395,82.7586207 C108.491741,82.7586207 105.747126,80.0140061 105.747126,76.6283525 C105.747126,73.2426989 108.491741,70.4980843 111.877395,70.4980843 Z M182.375479,70.4980843 C185.761133,70.4980843 188.505747,73.2426989 188.505747,76.6283525 C188.505747,80.0140061 185.761133,82.7586207 182.375479,82.7586207 C178.989825,82.7586207 176.245211,80.0140061 176.245211,76.6283525 C176.245211,73.2426989 178.989825,70.4980843 182.375479,70.4980843 Z M288.122605,70.4980843 C291.508259,70.4980843 294.252874,73.2426989 294.252874,76.6283525 C294.252874,80.0140061 291.508259,82.7586207 288.122605,82.7586207 C284.736952,82.7586207 281.992337,80.0140061 281.992337,76.6283525 C281.992337,73.2426989 284.736952,70.4980843 288.122605,70.4980843 Z M323.371648,70.4980843 C326.757301,70.4980843 329.501916,73.2426989 329.501916,76.6283525 C329.501916,80.0140061 326.757301,82.7586207 323.371648,82.7586207 C319.985994,82.7586207 317.241379,80.0140061 317.241379,76.6283525 C317.241379,73.2426989 319.985994,70.4980843 323.371648,70.4980843 Z M217.624521,70.4980843 C221.010175,70.4980843 223.754789,73.2426989 223.754789,76.6283525 C223.754789,80.0140061 221.010175,82.7586207 217.624521,82.7586207 C214.238867,82.7586207 211.494253,80.0140061 211.494253,76.6283525 C211.494253,73.2426989 214.238867,70.4980843 217.624521,70.4980843 Z M41.3793103,35.2490421 C44.764964,35.2490421 47.5095785,37.9936567 47.5095785,41.3793103 C47.5095785,44.764964 44.764964,47.5095785 41.3793103,47.5095785 C37.9936567,47.5095785 35.2490421,44.764964 35.2490421,41.3793103 C35.2490421,37.9936567 37.9936567,35.2490421 41.3793103,35.2490421 Z M252.873563,35.2490421 C256.259217,35.2490421 259.003831,37.9936567 259.003831,41.3793103 C259.003831,44.764964 256.259217,47.5095785 252.873563,47.5095785 C249.48791,47.5095785 246.743295,44.764964 246.743295,41.3793103 C246.743295,37.9936567 249.48791,35.2490421 252.873563,35.2490421 Z M393.869732,35.2490421 C397.255385,35.2490421 400,37.9936567 400,41.3793103 C400,44.764964 397.255385,47.5095785 393.869732,47.5095785 C390.484078,47.5095785 387.739464,44.764964 387.739464,41.3793103 C387.739464,37.9936567 390.484078,35.2490421 393.869732,35.2490421 Z M111.877395,35.2490421 C115.263048,35.2490421 118.007663,37.9936567 118.007663,41.3793103 C118.007663,44.764964 115.263048,47.5095785 111.877395,47.5095785 C108.491741,47.5095785 105.747126,44.764964 105.747126,41.3793103 C105.747126,37.9936567 108.491741,35.2490421 111.877395,35.2490421 Z M358.62069,35.2490421 C362.006343,35.2490421 364.750958,37.9936567 364.750958,41.3793103 C364.750958,44.764964 362.006343,47.5095785 358.62069,47.5095785 C355.235036,47.5095785 352.490421,44.764964 352.490421,41.3793103 C352.490421,37.9936567 355.235036,35.2490421 358.62069,35.2490421 Z M76.6283525,35.2490421 C80.0140061,35.2490421 82.7586207,37.9936567 82.7586207,41.3793103 C82.7586207,44.764964 80.0140061,47.5095785 76.6283525,47.5095785 C73.2426989,47.5095785 70.4980843,44.764964 70.4980843,41.3793103 C70.4980843,37.9936567 73.2426989,35.2490421 76.6283525,35.2490421 Z M288.122605,35.2490421 C291.508259,35.2490421 294.252874,37.9936567 294.252874,41.3793103 C294.252874,44.764964 291.508259,47.5095785 288.122605,47.5095785 C284.736952,47.5095785 281.992337,44.764964 281.992337,41.3793103 C281.992337,37.9936567 284.736952,35.2490421 288.122605,35.2490421 Z M182.375479,35.2490421 C185.761133,35.2490421 188.505747,37.9936567 188.505747,41.3793103 C188.505747,44.764964 185.761133,47.5095785 182.375479,47.5095785 C178.989825,47.5095785 176.245211,44.764964 176.245211,41.3793103 C176.245211,37.9936567 178.989825,35.2490421 182.375479,35.2490421 Z M147.126437,35.2490421 C150.51209,35.2490421 153.256705,37.9936567 153.256705,41.3793103 C153.256705,44.764964 150.51209,47.5095785 147.126437,47.5095785 C143.740783,47.5095785 140.996169,44.764964 140.996169,41.3793103 C140.996169,37.9936567 143.740783,35.2490421 147.126437,35.2490421 Z M323.371648,35.2490421 C326.757301,35.2490421 329.501916,37.9936567 329.501916,41.3793103 C329.501916,44.764964 326.757301,47.5095785 323.371648,47.5095785 C319.985994,47.5095785 317.241379,44.764964 317.241379,41.3793103 C317.241379,37.9936567 319.985994,35.2490421 323.371648,35.2490421 Z M6.1302682,35.2490421 C9.51592184,35.2490421 12.2605364,37.9936567 12.2605364,41.3793103 C12.2605364,44.764964 9.51592184,47.5095785 6.1302682,47.5095785 C2.74461456,47.5095785 -1.28785871e-13,44.764964 -1.28785871e-13,41.3793103 C-1.28785871e-13,37.9936567 2.74461456,35.2490421 6.1302682,35.2490421 Z M217.624521,35.2490421 C221.010175,35.2490421 223.754789,37.9936567 223.754789,41.3793103 C223.754789,44.764964 221.010175,47.5095785 217.624521,47.5095785 C214.238867,47.5095785 211.494253,44.764964 211.494253,41.3793103 C211.494253,37.9936567 214.238867,35.2490421 217.624521,35.2490421 Z M6.1302682,3.2596148e-13 C9.51592184,3.2596148e-13 12.2605364,2.74461456 12.2605364,6.1302682 C12.2605364,9.51592184 9.51592184,12.2605364 6.1302682,12.2605364 C2.74461456,12.2605364 -1.28785871e-13,9.51592184 -1.28785871e-13,6.1302682 C-1.28785871e-13,2.74461456 2.74461456,3.2596148e-13 6.1302682,3.2596148e-13 Z M41.3793103,3.2596148e-13 C44.764964,3.2596148e-13 47.5095785,2.74461456 47.5095785,6.1302682 C47.5095785,9.51592184 44.764964,12.2605364 41.3793103,12.2605364 C37.9936567,12.2605364 35.2490421,9.51592184 35.2490421,6.1302682 C35.2490421,2.74461456 37.9936567,3.2596148e-13 41.3793103,3.2596148e-13 Z M76.6283525,3.2596148e-13 C80.0140061,3.2596148e-13 82.7586207,2.74461456 82.7586207,6.1302682 C82.7586207,9.51592184 80.0140061,12.2605364 76.6283525,12.2605364 C73.2426989,12.2605364 70.4980843,9.51592184 70.4980843,6.1302682 C70.4980843,2.74461456 73.2426989,3.2596148e-13 76.6283525,3.2596148e-13 Z M111.877395,3.2596148e-13 C115.263048,3.2596148e-13 118.007663,2.74461456 118.007663,6.1302682 C118.007663,9.51592184 115.263048,12.2605364 111.877395,12.2605364 C108.491741,12.2605364 105.747126,9.51592184 105.747126,6.1302682 C105.747126,2.74461456 108.491741,3.2596148e-13 111.877395,3.2596148e-13 Z M147.126437,3.2596148e-13 C150.51209,3.2596148e-13 153.256705,2.74461456 153.256705,6.1302682 C153.256705,9.51592184 150.51209,12.2605364 147.126437,12.2605364 C143.740783,12.2605364 140.996169,9.51592184 140.996169,6.1302682 C140.996169,2.74461456 143.740783,3.2596148e-13 147.126437,3.2596148e-13 Z M182.375479,3.2596148e-13 C185.761133,3.2596148e-13 188.505747,2.74461456 188.505747,6.1302682 C188.505747,9.51592184 185.761133,12.2605364 182.375479,12.2605364 C178.989825,12.2605364 176.245211,9.51592184 176.245211,6.1302682 C176.245211,2.74461456 178.989825,3.2596148e-13 182.375479,3.2596148e-13 Z M217.624521,3.2596148e-13 C221.010175,3.2596148e-13 223.754789,2.74461456 223.754789,6.1302682 C223.754789,9.51592184 221.010175,12.2605364 217.624521,12.2605364 C214.238867,12.2605364 211.494253,9.51592184 211.494253,6.1302682 C211.494253,2.74461456 214.238867,3.2596148e-13 217.624521,3.2596148e-13 Z M252.873563,3.2596148e-13 C256.259217,3.2596148e-13 259.003831,2.74461456 259.003831,6.1302682 C259.003831,9.51592184 256.259217,12.2605364 252.873563,12.2605364 C249.48791,12.2605364 246.743295,9.51592184 246.743295,6.1302682 C246.743295,2.74461456 249.48791,3.2596148e-13 252.873563,3.2596148e-13 Z M288.122605,3.2596148e-13 C291.508259,3.2596148e-13 294.252874,2.74461456 294.252874,6.1302682 C294.252874,9.51592184 291.508259,12.2605364 288.122605,12.2605364 C284.736952,12.2605364 281.992337,9.51592184 281.992337,6.1302682 C281.992337,2.74461456 284.736952,3.2596148e-13 288.122605,3.2596148e-13 Z M323.371648,3.2596148e-13 C326.757301,3.2596148e-13 329.501916,2.74461456 329.501916,6.1302682 C329.501916,9.51592184 326.757301,12.2605364 323.371648,12.2605364 C319.985994,12.2605364 317.241379,9.51592184 317.241379,6.1302682 C317.241379,2.74461456 319.985994,3.2596148e-13 323.371648,3.2596148e-13 Z M358.62069,3.2596148e-13 C362.006343,3.2596148e-13 364.750958,2.74461456 364.750958,6.1302682 C364.750958,9.51592184 362.006343,12.2605364 358.62069,12.2605364 C355.235036,12.2605364 352.490421,9.51592184 352.490421,6.1302682 C352.490421,2.74461456 355.235036,3.2596148e-13 358.62069,3.2596148e-13 Z M393.869732,3.2596148e-13 C397.255385,3.2596148e-13 400,2.74461456 400,6.1302682 C400,9.51592184 397.255385,12.2605364 393.869732,12.2605364 C390.484078,12.2605364 387.739464,9.51592184 387.739464,6.1302682 C387.739464,2.74461456 390.484078,3.2596148e-13 393.869732,3.2596148e-13 Z" transform="rotate(45 232.994 1771.667)"/>
    <circle cx="575" cy="221" r="215" stroke="url(#nbb-bg-d-dark-b)" stroke-width="12"/>
    <circle cx="1234" cy="236" r="46" stroke="url(#nbb-bg-d-dark-c)" stroke-width="8"/>
    <circle cx="542" cy="629" r="23" stroke="#1851BE" stroke-width="4" opacity=".503"/>
    <path stroke="url(#nbb-bg-d-dark-d)" stroke-linecap="round" stroke-linejoin="round" stroke-width="4" d="M1386.5,51.5 L1386.75,321.25" opacity=".4" transform="rotate(-45 1386.25 186.25)"/>
    <path stroke="#1851BE" stroke-linecap="square" d="M1501.88709,532.046109 L1507.91128,757.888326" opacity=".2" transform="rotate(-133.472 1505.012 644.921)"/>
    <path stroke="url(#nbb-bg-d-dark-e)" stroke-linecap="round" stroke-linejoin="round" stroke-width="4" d="M980.25,743.75 L979.218824,1190.24939"/>
    <path stroke="url(#nbb-bg-d-dark-f)" stroke-linecap="round" stroke-linejoin="round" stroke-width="4" d="M529.5,537.5 L0.875,537.125"/>
  </g>
</svg>
