<svg height="1532" viewBox="0 0 1207 1532" width="1207" xmlns="http://www.w3.org/2000/svg" xmlns:xlink="http://www.w3.org/1999/xlink"><linearGradient id="a" x1="50%" x2="50%" y1="0%" y2="100%"><stop offset="0" stop-color="#3f6abc" stop-opacity=".089"/><stop offset="1" stop-color="#1851be"/></linearGradient><linearGradient id="b" x1="50%" x2="50%" y1="0%" y2="100%"><stop offset="0" stop-color="#3f6abc"/><stop offset="1" stop-color="#1851be"/></linearGradient><linearGradient id="c" x1="50.007%" x2="50.007%" y1="-141.4%" y2="-47.015%"><stop offset="0" stop-color="#2a6cbe"/><stop offset=".38688" stop-color="#2062bc"/><stop offset=".49182" stop-color="#1f5fbc"/><stop offset=".66583" stop-color="#1c5abd"/><stop offset=".85354" stop-color="#1956bc"/><stop offset="1" stop-color="#1851be"/></linearGradient><linearGradient id="d" x1="50%" x2="41.962%" y1="100%" y2="0%"><stop offset="0" stop-color="#6142b0"/><stop offset="1" stop-color="#5534a6"/></linearGradient><linearGradient id="e" x1="0%" x2="100%" y1="0%" y2="0%"><stop offset="0" stop-color="#3589e0" stop-opacity="0"/><stop offset=".43462" stop-color="#2e7cd9" stop-opacity=".69"/><stop offset="1" stop-color="#1851be"/></linearGradient><linearGradient id="f" x1="94.544%" x2="0%" y1="0%" y2="0%"><stop offset="0" stop-color="#96f" stop-opacity=".202"/><stop offset="1" stop-color="#5534a6"/></linearGradient><linearGradient id="g" x1="0%" x2="100%" y1="0%" y2="0%"><stop offset="0" stop-color="#3589e0" stop-opacity="0"/><stop offset=".41224" stop-color="#2e7cd9" stop-opacity=".69"/><stop offset="1" stop-color="#1851be"/></linearGradient><g fill="none" fill-rule="evenodd"><path d="m320.452107 570.94636c4.985375 0 9.02682 4.041445 9.02682 9.02682s-4.041445 9.02682-9.02682 9.02682-9.02682-4.041445-9.02682-9.02682 4.041445-9.02682 9.02682-9.02682zm51.904215 0c4.985375 0 9.02682 4.041445 9.02682 9.02682s-4.041445 9.02682-9.02682 9.02682-9.02682-4.041445-9.02682-9.02682 4.041445-9.02682 9.02682-9.02682zm51.904214 0c4.985375 0 9.02682 4.041445 9.02682 9.02682s-4.041445 9.02682-9.02682 9.02682-9.02682-4.041445-9.02682-9.02682 4.041445-9.02682 9.02682-9.02682zm51.904215 0c4.985375 0 9.02682 4.041445 9.02682 9.02682s-4.041445 9.02682-9.02682 9.02682-9.02682-4.041445-9.02682-9.02682 4.041445-9.02682 9.02682-9.02682zm51.904215 0c4.985375 0 9.026819 4.041445 9.026819 9.02682s-4.041444 9.02682-9.026819 9.02682-9.02682-4.041445-9.02682-9.02682 4.041445-9.02682 9.02682-9.02682zm51.904214 0c4.985375 0 9.02682 4.041445 9.02682 9.02682s-4.041445 9.02682-9.02682 9.02682-9.02682-4.041445-9.02682-9.02682 4.041445-9.02682 9.02682-9.02682zm-570.94636008 0c4.98537498 0 9.02681988 4.041445 9.02681988 9.02682s-4.0414449 9.02682-9.02681988 9.02682-9.02681992-4.041445-9.02681992-9.02682 4.04144494-9.02682 9.02681992-9.02682zm51.90421458 0c4.985375 0 9.0268199 4.041445 9.0268199 9.02682s-4.0414449 9.02682-9.0268199 9.02682-9.0268199-4.041445-9.0268199-9.02682 4.0414449-9.02682 9.0268199-9.02682zm51.9042145 0c4.985375 0 9.02682 4.041445 9.02682 9.02682s-4.041445 9.02682-9.02682 9.02682-9.02682-4.041445-9.02682-9.02682 4.041445-9.02682 9.02682-9.02682zm51.904215 0c4.985375 0 9.02682 4.041445 9.02682 9.02682s-4.041445 9.02682-9.02682 9.02682-9.02682-4.041445-9.02682-9.02682 4.041445-9.02682 9.02682-9.02682zm51.904214 0c4.985375 0 9.02682 4.041445 9.02682 9.02682s-4.041445 9.02682-9.02682 9.02682-9.02682-4.041445-9.02682-9.02682 4.041445-9.02682 9.02682-9.02682zm51.904215 0c4.985375 0 9.02682 4.041445 9.02682 9.02682s-4.041445 9.02682-9.02682 9.02682-9.02682-4.041445-9.02682-9.02682 4.041445-9.02682 9.02682-9.02682zm-259.52107308-51.904214c4.98537498 0 9.02681988 4.041445 9.02681988 9.02682s-4.0414449 9.026819-9.02681988 9.026819-9.02681992-4.041444-9.02681992-9.026819 4.04144494-9.02682 9.02681992-9.02682zm51.90421458 0c4.985375 0 9.0268199 4.041445 9.0268199 9.02682s-4.0414449 9.026819-9.0268199 9.026819-9.0268199-4.041444-9.0268199-9.026819 4.0414449-9.02682 9.0268199-9.02682zm51.9042145 0c4.985375 0 9.02682 4.041445 9.02682 9.02682s-4.041445 9.026819-9.02682 9.026819-9.02682-4.041444-9.02682-9.026819 4.041445-9.02682 9.02682-9.02682zm363.329502 0c4.985375 0 9.02682 4.041445 9.02682 9.02682s-4.041445 9.026819-9.02682 9.026819-9.02682-4.041444-9.02682-9.026819 4.041445-9.02682 9.02682-9.02682zm51.904215 0c4.985375 0 9.026819 4.041445 9.026819 9.02682s-4.041444 9.026819-9.026819 9.026819-9.02682-4.041444-9.02682-9.026819 4.041445-9.02682 9.02682-9.02682zm51.904214 0c4.985375 0 9.02682 4.041445 9.02682 9.02682s-4.041445 9.026819-9.02682 9.026819-9.02682-4.041444-9.02682-9.026819 4.041445-9.02682 9.02682-9.02682zm-415.233716 0c4.985375 0 9.02682 4.041445 9.02682 9.02682s-4.041445 9.026819-9.02682 9.026819-9.02682-4.041444-9.02682-9.026819 4.041445-9.02682 9.02682-9.02682zm51.904214 0c4.985375 0 9.02682 4.041445 9.02682 9.02682s-4.041445 9.026819-9.02682 9.026819-9.02682-4.041444-9.02682-9.026819 4.041445-9.02682 9.02682-9.02682zm51.904215 0c4.985375 0 9.02682 4.041445 9.02682 9.02682s-4.041445 9.026819-9.02682 9.026819-9.02682-4.041444-9.02682-9.026819 4.041445-9.02682 9.02682-9.02682zm51.904214 0c4.985375 0 9.02682 4.041445 9.02682 9.02682s-4.041445 9.026819-9.02682 9.026819-9.02682-4.041444-9.02682-9.026819 4.041445-9.02682 9.02682-9.02682zm51.904215 0c4.985375 0 9.02682 4.041445 9.02682 9.02682s-4.041445 9.026819-9.02682 9.026819-9.02682-4.041444-9.02682-9.026819 4.041445-9.02682 9.02682-9.02682zm51.904214 0c4.985375 0 9.02682 4.041445 9.02682 9.02682s-4.041445 9.026819-9.02682 9.026819-9.02682-4.041444-9.02682-9.026819 4.041445-9.02682 9.02682-9.02682zm51.904215-51.904215c4.985375 0 9.02682 4.041445 9.02682 9.02682s-4.041445 9.02682-9.02682 9.02682-9.02682-4.041445-9.02682-9.02682 4.041445-9.02682 9.02682-9.02682zm-103.808429 0c4.985375 0 9.02682 4.041445 9.02682 9.02682s-4.041445 9.02682-9.02682 9.02682-9.02682-4.041445-9.02682-9.02682 4.041445-9.02682 9.02682-9.02682zm155.712644 0c4.985375 0 9.026819 4.041445 9.026819 9.02682s-4.041444 9.02682-9.026819 9.02682-9.02682-4.041445-9.02682-9.02682 4.041445-9.02682 9.02682-9.02682zm-363.329502 0c4.985375 0 9.02682 4.041445 9.02682 9.02682s-4.041445 9.02682-9.02682 9.02682-9.02682-4.041445-9.02682-9.02682 4.041445-9.02682 9.02682-9.02682zm-155.71264408 0c4.98537498 0 9.02681988 4.041445 9.02681988 9.02682s-4.0414449 9.02682-9.02681988 9.02682-9.02681992-4.041445-9.02681992-9.02682 4.04144494-9.02682 9.02681992-9.02682zm207.61685808 0c4.985375 0 9.02682 4.041445 9.02682 9.02682s-4.041445 9.02682-9.02682 9.02682-9.02682-4.041445-9.02682-9.02682 4.041445-9.02682 9.02682-9.02682zm207.616858 0c4.985375 0 9.02682 4.041445 9.02682 9.02682s-4.041445 9.02682-9.02682 9.02682-9.02682-4.041445-9.02682-9.02682 4.041445-9.02682 9.02682-9.02682zm-363.3295015 0c4.985375 0 9.0268199 4.041445 9.0268199 9.02682s-4.0414449 9.02682-9.0268199 9.02682-9.0268199-4.041445-9.0268199-9.02682 4.0414449-9.02682 9.0268199-9.02682zm207.6168585 0c4.985375 0 9.02682 4.041445 9.02682 9.02682s-4.041445 9.02682-9.02682 9.02682-9.02682-4.041445-9.02682-9.02682 4.041445-9.02682 9.02682-9.02682zm51.904214 0c4.985375 0 9.02682 4.041445 9.02682 9.02682s-4.041445 9.02682-9.02682 9.02682-9.02682-4.041445-9.02682-9.02682 4.041445-9.02682 9.02682-9.02682zm259.521073 0c4.985375 0 9.02682 4.041445 9.02682 9.02682s-4.041445 9.02682-9.02682 9.02682-9.02682-4.041445-9.02682-9.02682 4.041445-9.02682 9.02682-9.02682zm-467.137931 0c4.985375 0 9.02682 4.041445 9.02682 9.02682s-4.041445 9.02682-9.02682 9.02682-9.02682-4.041445-9.02682-9.02682 4.041445-9.02682 9.02682-9.02682zm-51.9042145-51.904215c4.985375 0 9.0268199 4.041445 9.0268199 9.02682s-4.0414449 9.02682-9.0268199 9.02682-9.0268199-4.041445-9.0268199-9.02682 4.0414449-9.02682 9.0268199-9.02682zm103.8084295 0c4.985375 0 9.02682 4.041445 9.02682 9.02682s-4.041445 9.02682-9.02682 9.02682-9.02682-4.041445-9.02682-9.02682 4.041445-9.02682 9.02682-9.02682zm103.808429 0c4.985375 0 9.02682 4.041445 9.02682 9.02682s-4.041445 9.02682-9.02682 9.02682-9.02682-4.041445-9.02682-9.02682 4.041445-9.02682 9.02682-9.02682zm207.616858 0c4.985375 0 9.02682 4.041445 9.02682 9.02682s-4.041445 9.02682-9.02682 9.02682-9.02682-4.041445-9.02682-9.02682 4.041445-9.02682 9.02682-9.02682zm-155.712644 0c4.985375 0 9.02682 4.041445 9.02682 9.02682s-4.041445 9.02682-9.02682 9.02682-9.02682-4.041445-9.02682-9.02682 4.041445-9.02682 9.02682-9.02682zm103.808429 0c4.985375 0 9.02682 4.041445 9.02682 9.02682s-4.041445 9.02682-9.02682 9.02682-9.02682-4.041445-9.02682-9.02682 4.041445-9.02682 9.02682-9.02682zm-415.23371608 0c4.98537498 0 9.02681988 4.041445 9.02681988 9.02682s-4.0414449 9.02682-9.02681988 9.02682-9.02681992-4.041445-9.02681992-9.02682 4.04144494-9.02682 9.02681992-9.02682zm103.80842908 0c4.985375 0 9.02682 4.041445 9.02682 9.02682s-4.041445 9.02682-9.02682 9.02682-9.02682-4.041445-9.02682-9.02682 4.041445-9.02682 9.02682-9.02682zm467.137931 0c4.985375 0 9.02682 4.041445 9.02682 9.02682s-4.041445 9.02682-9.02682 9.02682-9.02682-4.041445-9.02682-9.02682 4.041445-9.02682 9.02682-9.02682zm-207.616858 0c4.985375 0 9.02682 4.041445 9.02682 9.02682s-4.041445 9.02682-9.02682 9.02682-9.02682-4.041445-9.02682-9.02682 4.041445-9.02682 9.02682-9.02682zm-155.712644 0c4.985375 0 9.02682 4.041445 9.02682 9.02682s-4.041445 9.02682-9.02682 9.02682-9.02682-4.041445-9.02682-9.02682 4.041445-9.02682 9.02682-9.02682zm311.425288 0c4.985375 0 9.026819 4.041445 9.026819 9.02682s-4.041444 9.02682-9.026819 9.02682-9.02682-4.041445-9.02682-9.02682 4.041445-9.02682 9.02682-9.02682zm51.904214-51.904214c4.985375 0 9.02682 4.041445 9.02682 9.02682s-4.041445 9.02682-9.02682 9.02682-9.02682-4.041445-9.02682-9.02682 4.041445-9.02682 9.02682-9.02682zm-155.712644 0c4.985375 0 9.02682 4.041445 9.02682 9.02682s-4.041445 9.02682-9.02682 9.02682-9.02682-4.041445-9.02682-9.02682 4.041445-9.02682 9.02682-9.02682zm-259.521072 0c4.985375 0 9.02682 4.041445 9.02682 9.02682s-4.041445 9.02682-9.02682 9.02682-9.02682-4.041445-9.02682-9.02682 4.041445-9.02682 9.02682-9.02682zm363.329502 0c4.985375 0 9.026819 4.041445 9.026819 9.02682s-4.041444 9.02682-9.026819 9.02682-9.02682-4.041445-9.02682-9.02682 4.041445-9.02682 9.02682-9.02682zm-155.712644 0c4.985375 0 9.02682 4.041445 9.02682 9.02682s-4.041445 9.02682-9.02682 9.02682-9.02682-4.041445-9.02682-9.02682 4.041445-9.02682 9.02682-9.02682zm-311.4252875 0c4.985375 0 9.0268199 4.041445 9.0268199 9.02682s-4.0414449 9.02682-9.0268199 9.02682-9.0268199-4.041445-9.0268199-9.02682 4.0414449-9.02682 9.0268199-9.02682zm-51.90421458 0c4.98537498 0 9.02681988 4.041445 9.02681988 9.02682s-4.0414449 9.02682-9.02681988 9.02682-9.02681992-4.041445-9.02681992-9.02682 4.04144494-9.02682 9.02681992-9.02682zm467.13793108 0c4.985375 0 9.02682 4.041445 9.02682 9.02682s-4.041445 9.02682-9.02682 9.02682-9.02682-4.041445-9.02682-9.02682 4.041445-9.02682 9.02682-9.02682zm-155.712644 0c4.985375 0 9.02682 4.041445 9.02682 9.02682s-4.041445 9.02682-9.02682 9.02682-9.02682-4.041445-9.02682-9.02682 4.041445-9.02682 9.02682-9.02682zm-103.808429 0c4.985375 0 9.02682 4.041445 9.02682 9.02682s-4.041445 9.02682-9.02682 9.02682-9.02682-4.041445-9.02682-9.02682 4.041445-9.02682 9.02682-9.02682zm51.904215 0c4.985375 0 9.02682 4.041445 9.02682 9.02682s-4.041445 9.02682-9.02682 9.02682-9.02682-4.041445-9.02682-9.02682 4.041445-9.02682 9.02682-9.02682zm-155.712644 0c4.985375 0 9.02682 4.041445 9.02682 9.02682s-4.041445 9.02682-9.02682 9.02682-9.02682-4.041445-9.02682-9.02682 4.041445-9.02682 9.02682-9.02682zm-103.80842908-51.904215c4.98537498 0 9.02681988 4.041445 9.02681988 9.02682s-4.0414449 9.02682-9.02681988 9.02682-9.02681992-4.041445-9.02681992-9.02682 4.04144494-9.02682 9.02681992-9.02682zm51.90421458 0c4.985375 0 9.0268199 4.041445 9.0268199 9.02682s-4.0414449 9.02682-9.0268199 9.02682-9.0268199-4.041445-9.0268199-9.02682 4.0414449-9.02682 9.0268199-9.02682zm51.9042145 0c4.985375 0 9.02682 4.041445 9.02682 9.02682s-4.041445 9.02682-9.02682 9.02682-9.02682-4.041445-9.02682-9.02682 4.041445-9.02682 9.02682-9.02682zm415.233717 0c4.985375 0 9.026819 4.041445 9.026819 9.02682s-4.041444 9.02682-9.026819 9.02682-9.02682-4.041445-9.02682-9.02682 4.041445-9.02682 9.02682-9.02682zm51.904214 0c4.985375 0 9.02682 4.041445 9.02682 9.02682s-4.041445 9.02682-9.02682 9.02682-9.02682-4.041445-9.02682-9.02682 4.041445-9.02682 9.02682-9.02682zm-155.712644 0c4.985375 0 9.02682 4.041445 9.02682 9.02682s-4.041445 9.02682-9.02682 9.02682-9.02682-4.041445-9.02682-9.02682 4.041445-9.02682 9.02682-9.02682zm51.904215 0c4.985375 0 9.02682 4.041445 9.02682 9.02682s-4.041445 9.02682-9.02682 9.02682-9.02682-4.041445-9.02682-9.02682 4.041445-9.02682 9.02682-9.02682zm-103.808429 0c4.985375 0 9.02682 4.041445 9.02682 9.02682s-4.041445 9.02682-9.02682 9.02682-9.02682-4.041445-9.02682-9.02682 4.041445-9.02682 9.02682-9.02682zm-155.712644 0c4.985375 0 9.02682 4.041445 9.02682 9.02682s-4.041445 9.02682-9.02682 9.02682-9.02682-4.041445-9.02682-9.02682 4.041445-9.02682 9.02682-9.02682zm103.808429 0c4.985375 0 9.02682 4.041445 9.02682 9.02682s-4.041445 9.02682-9.02682 9.02682-9.02682-4.041445-9.02682-9.02682 4.041445-9.02682 9.02682-9.02682zm-155.712643 0c4.985375 0 9.02682 4.041445 9.02682 9.02682s-4.041445 9.02682-9.02682 9.02682-9.02682-4.041445-9.02682-9.02682 4.041445-9.02682 9.02682-9.02682zm103.808429 0c4.985375 0 9.02682 4.041445 9.02682 9.02682s-4.041445 9.02682-9.02682 9.02682-9.02682-4.041445-9.02682-9.02682 4.041445-9.02682 9.02682-9.02682zm51.904214-51.904214c4.985375 0 9.02682 4.041445 9.02682 9.02682s-4.041445 9.02682-9.02682 9.02682-9.02682-4.041445-9.02682-9.02682 4.041445-9.02682 9.02682-9.02682zm-207.616858 0c4.985375 0 9.02682 4.041445 9.02682 9.02682s-4.041445 9.02682-9.02682 9.02682-9.02682-4.041445-9.02682-9.02682 4.041445-9.02682 9.02682-9.02682zm155.712644 0c4.985375 0 9.02682 4.041445 9.02682 9.02682s-4.041445 9.02682-9.02682 9.02682-9.02682-4.041445-9.02682-9.02682 4.041445-9.02682 9.02682-9.02682zm311.425287 0c4.985375 0 9.02682 4.041445 9.02682 9.02682s-4.041445 9.02682-9.02682 9.02682-9.02682-4.041445-9.02682-9.02682 4.041445-9.02682 9.02682-9.02682zm-519.0421455 0c4.985375 0 9.0268199 4.041445 9.0268199 9.02682s-4.0414449 9.02682-9.0268199 9.02682-9.0268199-4.041445-9.0268199-9.02682 4.0414449-9.02682 9.0268199-9.02682zm-51.90421458 0c4.98537498 0 9.02681988 4.041445 9.02681988 9.02682s-4.0414449 9.02682-9.02681988 9.02682-9.02681992-4.041445-9.02681992-9.02682 4.04144494-9.02682 9.02681992-9.02682zm155.71264408 0c4.985375 0 9.02682 4.041445 9.02682 9.02682s-4.041445 9.02682-9.02682 9.02682-9.02682-4.041445-9.02682-9.02682 4.041445-9.02682 9.02682-9.02682zm207.616858 0c4.985375 0 9.02682 4.041445 9.02682 9.02682s-4.041445 9.02682-9.02682 9.02682-9.02682-4.041445-9.02682-9.02682 4.041445-9.02682 9.02682-9.02682zm-155.712644 0c4.985375 0 9.02682 4.041445 9.02682 9.02682s-4.041445 9.02682-9.02682 9.02682-9.02682-4.041445-9.02682-9.02682 4.041445-9.02682 9.02682-9.02682zm259.521073 0c4.985375 0 9.02682 4.041445 9.02682 9.02682s-4.041445 9.02682-9.02682 9.02682-9.02682-4.041445-9.02682-9.02682 4.041445-9.02682 9.02682-9.02682zm51.904215 0c4.985375 0 9.026819 4.041445 9.026819 9.02682s-4.041444 9.02682-9.026819 9.02682-9.02682-4.041445-9.02682-9.02682 4.041445-9.02682 9.02682-9.02682zm-103.80843 0c4.985375 0 9.02682 4.041445 9.02682 9.02682s-4.041445 9.02682-9.02682 9.02682-9.02682-4.041445-9.02682-9.02682 4.041445-9.02682 9.02682-9.02682zm-207.616858-51.904215c4.985375 0 9.02682 4.041445 9.02682 9.02682s-4.041445 9.02682-9.02682 9.02682-9.02682-4.041445-9.02682-9.02682 4.041445-9.02682 9.02682-9.02682zm259.521073 0c4.985375 0 9.02682 4.041445 9.02682 9.02682s-4.041445 9.02682-9.02682 9.02682-9.02682-4.041445-9.02682-9.02682 4.041445-9.02682 9.02682-9.02682zm51.904215 0c4.985375 0 9.026819 4.041445 9.026819 9.02682s-4.041444 9.02682-9.026819 9.02682-9.02682-4.041445-9.02682-9.02682 4.041445-9.02682 9.02682-9.02682zm-259.521073 0c4.985375 0 9.02682 4.041445 9.02682 9.02682s-4.041445 9.02682-9.02682 9.02682-9.02682-4.041445-9.02682-9.02682 4.041445-9.02682 9.02682-9.02682zm-259.52107308 0c4.98537498 0 9.02681988 4.041445 9.02681988 9.02682s-4.0414449 9.02682-9.02681988 9.02682-9.02681992-4.041445-9.02681992-9.02682 4.04144494-9.02682 9.02681992-9.02682zm570.94636008 0c4.985375 0 9.02682 4.041445 9.02682 9.02682s-4.041445 9.02682-9.02682 9.02682-9.02682-4.041445-9.02682-9.02682 4.041445-9.02682 9.02682-9.02682zm-415.233716 0c4.985375 0 9.02682 4.041445 9.02682 9.02682s-4.041445 9.02682-9.02682 9.02682-9.02682-4.041445-9.02682-9.02682 4.041445-9.02682 9.02682-9.02682zm-103.8084295 0c4.985375 0 9.0268199 4.041445 9.0268199 9.02682s-4.0414449 9.02682-9.0268199 9.02682-9.0268199-4.041445-9.0268199-9.02682 4.0414449-9.02682 9.0268199-9.02682zm363.3295015 0c4.985375 0 9.02682 4.041445 9.02682 9.02682s-4.041445 9.02682-9.02682 9.02682-9.02682-4.041445-9.02682-9.02682 4.041445-9.02682 9.02682-9.02682zm-103.808429 0c4.985375 0 9.02682 4.041445 9.02682 9.02682s-4.041445 9.02682-9.02682 9.02682-9.02682-4.041445-9.02682-9.02682 4.041445-9.02682 9.02682-9.02682zm-207.616858 0c4.985375 0 9.02682 4.041445 9.02682 9.02682s-4.041445 9.02682-9.02682 9.02682-9.02682-4.041445-9.02682-9.02682 4.041445-9.02682 9.02682-9.02682zm259.521073 0c4.985375 0 9.02682 4.041445 9.02682 9.02682s-4.041445 9.02682-9.02682 9.02682-9.02682-4.041445-9.02682-9.02682 4.041445-9.02682 9.02682-9.02682zm-51.904215-51.904214c4.985375 0 9.02682 4.041445 9.02682 9.02682s-4.041445 9.02682-9.02682 9.02682-9.02682-4.041445-9.02682-9.02682 4.041445-9.02682 9.02682-9.02682zm-207.616858 0c4.985375 0 9.02682 4.041445 9.02682 9.02682s-4.041445 9.02682-9.02682 9.02682-9.02682-4.041445-9.02682-9.02682 4.041445-9.02682 9.02682-9.02682zm103.808429 0c4.985375 0 9.02682 4.041445 9.02682 9.02682s-4.041445 9.02682-9.02682 9.02682-9.02682-4.041445-9.02682-9.02682 4.041445-9.02682 9.02682-9.02682zm-155.7126435 0c4.985375 0 9.0268199 4.041445 9.0268199 9.02682s-4.0414449 9.02682-9.0268199 9.02682-9.0268199-4.041445-9.0268199-9.02682 4.0414449-9.02682 9.0268199-9.02682zm207.6168585 0c4.985375 0 9.02682 4.041445 9.02682 9.02682s-4.041445 9.02682-9.02682 9.02682-9.02682-4.041445-9.02682-9.02682 4.041445-9.02682 9.02682-9.02682zm311.425287 0c4.985375 0 9.02682 4.041445 9.02682 9.02682s-4.041445 9.02682-9.02682 9.02682-9.02682-4.041445-9.02682-9.02682 4.041445-9.02682 9.02682-9.02682zm-51.904214 0c4.985375 0 9.026819 4.041445 9.026819 9.02682s-4.041444 9.02682-9.026819 9.02682-9.02682-4.041445-9.02682-9.02682 4.041445-9.02682 9.02682-9.02682zm-519.04214608 0c4.98537498 0 9.02681988 4.041445 9.02681988 9.02682s-4.0414449 9.02682-9.02681988 9.02682-9.02681992-4.041445-9.02681992-9.02682 4.04144494-9.02682 9.02681992-9.02682zm415.23371608 0c4.985375 0 9.02682 4.041445 9.02682 9.02682s-4.041445 9.02682-9.02682 9.02682-9.02682-4.041445-9.02682-9.02682 4.041445-9.02682 9.02682-9.02682zm-51.904214 0c4.985375 0 9.02682 4.041445 9.02682 9.02682s-4.041445 9.02682-9.02682 9.02682-9.02682-4.041445-9.02682-9.02682 4.041445-9.02682 9.02682-9.02682zm-207.616858 0c4.985375 0 9.02682 4.041445 9.02682 9.02682s-4.041445 9.02682-9.02682 9.02682-9.02682-4.041445-9.02682-9.02682 4.041445-9.02682 9.02682-9.02682zm311.425287 0c4.985375 0 9.02682 4.041445 9.02682 9.02682s-4.041445 9.02682-9.02682 9.02682-9.02682-4.041445-9.02682-9.02682 4.041445-9.02682 9.02682-9.02682zm-259.521073-51.904215c4.985375 0 9.02682 4.041445 9.02682 9.02682s-4.041445 9.02682-9.02682 9.02682-9.02682-4.041445-9.02682-9.02682 4.041445-9.02682 9.02682-9.02682zm-207.61685808 0c4.98537498 0 9.02681988 4.041445 9.02681988 9.02682s-4.0414449 9.02682-9.02681988 9.02682-9.02681992-4.041445-9.02681992-9.02682 4.04144494-9.02682 9.02681992-9.02682zm570.94636008 0c4.985375 0 9.02682 4.041445 9.02682 9.02682s-4.041445 9.02682-9.02682 9.02682-9.02682-4.041445-9.02682-9.02682 4.041445-9.02682 9.02682-9.02682zm-519.0421455 0c4.985375 0 9.0268199 4.041445 9.0268199 9.02682s-4.0414449 9.02682-9.0268199 9.02682-9.0268199-4.041445-9.0268199-9.02682 4.0414449-9.02682 9.0268199-9.02682zm51.9042145 0c4.985375 0 9.02682 4.041445 9.02682 9.02682s-4.041445 9.02682-9.02682 9.02682-9.02682-4.041445-9.02682-9.02682 4.041445-9.02682 9.02682-9.02682zm415.233717 0c4.985375 0 9.026819 4.041445 9.026819 9.02682s-4.041444 9.02682-9.026819 9.02682-9.02682-4.041445-9.02682-9.02682 4.041445-9.02682 9.02682-9.02682zm-155.712644 0c4.985375 0 9.02682 4.041445 9.02682 9.02682s-4.041445 9.02682-9.02682 9.02682-9.02682-4.041445-9.02682-9.02682 4.041445-9.02682 9.02682-9.02682zm-207.616858 0c4.985375 0 9.02682 4.041445 9.02682 9.02682s-4.041445 9.02682-9.02682 9.02682-9.02682-4.041445-9.02682-9.02682 4.041445-9.02682 9.02682-9.02682zm103.808429 0c4.985375 0 9.02682 4.041445 9.02682 9.02682s-4.041445 9.02682-9.02682 9.02682-9.02682-4.041445-9.02682-9.02682 4.041445-9.02682 9.02682-9.02682zm155.712643 0c4.985375 0 9.02682 4.041445 9.02682 9.02682s-4.041445 9.02682-9.02682 9.02682-9.02682-4.041445-9.02682-9.02682 4.041445-9.02682 9.02682-9.02682zm51.904215 0c4.985375 0 9.02682 4.041445 9.02682 9.02682s-4.041445 9.02682-9.02682 9.02682-9.02682-4.041445-9.02682-9.02682 4.041445-9.02682 9.02682-9.02682zm-155.712644 0c4.985375 0 9.02682 4.041445 9.02682 9.02682s-4.041445 9.02682-9.02682 9.02682-9.02682-4.041445-9.02682-9.02682 4.041445-9.02682 9.02682-9.02682zm-259.5210725-51.9042144c4.985375 0 9.0268199 4.0414449 9.0268199 9.0268199s-4.0414449 9.0268199-9.0268199 9.0268199-9.0268199-4.0414449-9.0268199-9.0268199 4.0414449-9.0268199 9.0268199-9.0268199zm311.4252875 0c4.985375 0 9.02682 4.0414449 9.02682 9.0268199s-4.041445 9.0268199-9.02682 9.0268199-9.02682-4.0414449-9.02682-9.0268199 4.041445-9.0268199 9.02682-9.0268199zm207.616858 0c4.985375 0 9.02682 4.0414449 9.02682 9.0268199s-4.041445 9.0268199-9.02682 9.0268199-9.02682-4.0414449-9.02682-9.0268199 4.041445-9.0268199 9.02682-9.0268199zm-415.233716 0c4.985375 0 9.02682 4.0414449 9.02682 9.0268199s-4.041445 9.0268199-9.02682 9.0268199-9.02682-4.0414449-9.02682-9.0268199 4.041445-9.0268199 9.02682-9.0268199zm363.329502 0c4.985375 0 9.026819 4.0414449 9.026819 9.0268199s-4.041444 9.0268199-9.026819 9.0268199-9.02682-4.0414449-9.02682-9.0268199 4.041445-9.0268199 9.02682-9.0268199zm-415.233717 0c4.985375 0 9.02682 4.0414449 9.02682 9.0268199s-4.041445 9.0268199-9.02682 9.0268199-9.02682-4.0414449-9.02682-9.0268199 4.041445-9.0268199 9.02682-9.0268199zm311.425287 0c4.985375 0 9.02682 4.0414449 9.02682 9.0268199s-4.041445 9.0268199-9.02682 9.0268199-9.02682-4.0414449-9.02682-9.0268199 4.041445-9.0268199 9.02682-9.0268199zm-155.712643 0c4.985375 0 9.02682 4.0414449 9.02682 9.0268199s-4.041445 9.0268199-9.02682 9.0268199-9.02682-4.0414449-9.02682-9.0268199 4.041445-9.0268199 9.02682-9.0268199zm-51.904215 0c4.985375 0 9.02682 4.0414449 9.02682 9.0268199s-4.041445 9.0268199-9.02682 9.0268199-9.02682-4.0414449-9.02682-9.0268199 4.041445-9.0268199 9.02682-9.0268199zm259.521073 0c4.985375 0 9.02682 4.0414449 9.02682 9.0268199s-4.041445 9.0268199-9.02682 9.0268199-9.02682-4.0414449-9.02682-9.0268199 4.041445-9.0268199 9.02682-9.0268199zm-467.13793108 0c4.98537498 0 9.02681988 4.0414449 9.02681988 9.0268199s-4.0414449 9.0268199-9.02681988 9.0268199-9.02681992-4.0414449-9.02681992-9.0268199 4.04144494-9.0268199 9.02681992-9.0268199zm311.42528708 0c4.985375 0 9.02682 4.0414449 9.02682 9.0268199s-4.041445 9.0268199-9.02682 9.0268199-9.02682-4.0414449-9.02682-9.0268199 4.041445-9.0268199 9.02682-9.0268199zm-311.42528708-51.9042146c4.98537498 0 9.02681988 4.04144494 9.02681988 9.02681992s-4.0414449 9.02681988-9.02681988 9.02681988-9.02681992-4.0414449-9.02681992-9.02681988 4.04144494-9.02681992 9.02681992-9.02681992zm51.90421458 0c4.985375 0 9.0268199 4.04144494 9.0268199 9.02681992s-4.0414449 9.02681988-9.0268199 9.02681988-9.0268199-4.0414449-9.0268199-9.02681988 4.0414449-9.02681992 9.0268199-9.02681992zm51.9042145 0c4.985375 0 9.02682 4.04144494 9.02682 9.02681992s-4.041445 9.02681988-9.02682 9.02681988-9.02682-4.0414449-9.02682-9.02681988 4.041445-9.02681992 9.02682-9.02681992zm51.904215 0c4.985375 0 9.02682 4.04144494 9.02682 9.02681992s-4.041445 9.02681988-9.02682 9.02681988-9.02682-4.0414449-9.02682-9.02681988 4.041445-9.02681992 9.02682-9.02681992zm51.904214 0c4.985375 0 9.02682 4.04144494 9.02682 9.02681992s-4.041445 9.02681988-9.02682 9.02681988-9.02682-4.0414449-9.02682-9.02681988 4.041445-9.02681992 9.02682-9.02681992zm51.904215 0c4.985375 0 9.02682 4.04144494 9.02682 9.02681992s-4.041445 9.02681988-9.02682 9.02681988-9.02682-4.0414449-9.02682-9.02681988 4.041445-9.02681992 9.02682-9.02681992zm51.904214 0c4.985375 0 9.02682 4.04144494 9.02682 9.02681992s-4.041445 9.02681988-9.02682 9.02681988-9.02682-4.0414449-9.02682-9.02681988 4.041445-9.02681992 9.02682-9.02681992zm51.904215 0c4.985375 0 9.02682 4.04144494 9.02682 9.02681992s-4.041445 9.02681988-9.02682 9.02681988-9.02682-4.0414449-9.02682-9.02681988 4.041445-9.02681992 9.02682-9.02681992zm51.904214 0c4.985375 0 9.02682 4.04144494 9.02682 9.02681992s-4.041445 9.02681988-9.02682 9.02681988-9.02682-4.0414449-9.02682-9.02681988 4.041445-9.02681992 9.02682-9.02681992zm51.904215 0c4.985375 0 9.02682 4.04144494 9.02682 9.02681992s-4.041445 9.02681988-9.02682 9.02681988-9.02682-4.0414449-9.02682-9.02681988 4.041445-9.02681992 9.02682-9.02681992zm51.904215 0c4.985375 0 9.026819 4.04144494 9.026819 9.02681992s-4.041444 9.02681988-9.026819 9.02681988-9.02682-4.0414449-9.02682-9.02681988 4.041445-9.02681992 9.02682-9.02681992zm51.904214 0c4.985375 0 9.02682 4.04144494 9.02682 9.02681992s-4.041445 9.02681988-9.02682 9.02681988-9.02682-4.0414449-9.02682-9.02681988 4.041445-9.02681992 9.02682-9.02681992z" fill="url(#a)" transform="translate(224 477)"/><circle cx="508.5" cy="265.5" opacity=".305" r="144.5" stroke="url(#b)" stroke-width="6"/><circle cx="283" cy="59" r="55" stroke="url(#c)" stroke-width="8"/><circle cx="567" cy="1190" r="53" stroke="url(#d)" stroke-width="12"/><circle cx="214" cy="1473" opacity=".2" r="58" stroke="url(#c)" stroke-width="2"/><g stroke-linecap="round" stroke-linejoin="round" stroke-width="4"><path d="m310 288h-310" opacity=".301" stroke="url(#e)"/><path d="m994 1367.73138-538-.46276" opacity=".8" stroke="url(#f)"/><path d="m1270.4658 423.299957-444.03224-.496861" opacity=".701" stroke="url(#g)" transform="matrix(-.70639062 .70782222 -.70782222 -.70639062 2088.510851 -20.224238)"/></g></g></svg>