<svg height="1310" viewBox="0 0 1575 1310" width="1575" xmlns="http://www.w3.org/2000/svg" xmlns:xlink="http://www.w3.org/1999/xlink"><linearGradient id="a" x1="50%" x2="41.962%" y1="100%" y2="0%"><stop offset="0" stop-color="#96f"/><stop offset="1" stop-color="#5534a6"/></linearGradient><linearGradient id="b" x1="50.008%" x2="50.007%" y1="0%" y2="100%"><stop offset="0" stop-color="#2a6cbe" stop-opacity=".381"/><stop offset="1" stop-color="#1851be" stop-opacity=".9"/></linearGradient><linearGradient id="c" x1="50%" x2="41.962%" y1="100%" y2="0%"><stop offset="0" stop-color="#6142b0"/><stop offset="1" stop-color="#5534a6"/></linearGradient><linearGradient id="d"><stop offset="0" stop-color="#96f" stop-opacity="0"/><stop offset="1" stop-color="#5534a6"/></linearGradient><linearGradient id="e" x1="50%" x2="49.995%" xlink:href="#d" y1="100%" y2="0%"/><linearGradient id="f" x1="50%" x2="50%" xlink:href="#d" y1="100%" y2="0%"/><linearGradient id="g" x1="4.846%" x2="103.193%" y1="0%" y2="0%"><stop offset="0" stop-color="#3589e0" stop-opacity="0"/><stop offset="1" stop-color="#1851be"/></linearGradient><g fill="none" fill-rule="evenodd" transform="translate(-27 -9)"><path d="m217.624521 387.739464c3.385654 0 6.130268 2.744614 6.130268 6.130268 0 3.385653-2.744614 6.130268-6.130268 6.130268s-6.130268-2.744615-6.130268-6.130268c0-3.385654 2.744614-6.130268 6.130268-6.130268zm35.249042 0c3.385654 0 6.130268 2.744614 6.130268 6.130268 0 3.385653-2.744614 6.130268-6.130268 6.130268-3.385653 0-6.130268-2.744615-6.130268-6.130268 0-3.385654 2.744615-6.130268 6.130268-6.130268zm35.249042 0c3.385654 0 6.130269 2.744614 6.130269 6.130268 0 3.385653-2.744615 6.130268-6.130269 6.130268-3.385653 0-6.130268-2.744615-6.130268-6.130268 0-3.385654 2.744615-6.130268 6.130268-6.130268zm35.249043 0c3.385653 0 6.130268 2.744614 6.130268 6.130268 0 3.385653-2.744615 6.130268-6.130268 6.130268-3.385654 0-6.130269-2.744615-6.130269-6.130268 0-3.385654 2.744615-6.130268 6.130269-6.130268zm35.249042 0c3.385653 0 6.130268 2.744614 6.130268 6.130268 0 3.385653-2.744615 6.130268-6.130268 6.130268-3.385654 0-6.130269-2.744615-6.130269-6.130268 0-3.385654 2.744615-6.130268 6.130269-6.130268zm35.249042 0c3.385653 0 6.130268 2.744614 6.130268 6.130268 0 3.385653-2.744615 6.130268-6.130268 6.130268-3.385654 0-6.130268-2.744615-6.130268-6.130268 0-3.385654 2.744614-6.130268 6.130268-6.130268zm-387.7394638 0c3.38565364 0 6.1302682 2.744614 6.1302682 6.130268 0 3.385653-2.74461456 6.130268-6.1302682 6.130268s-6.1302682-2.744615-6.1302682-6.130268c0-3.385654 2.74461456-6.130268 6.1302682-6.130268zm35.2490421 0c3.3856537 0 6.1302682 2.744614 6.1302682 6.130268 0 3.385653-2.7446145 6.130268-6.1302682 6.130268-3.3856536 0-6.1302682-2.744615-6.1302682-6.130268 0-3.385654 2.7446146-6.130268 6.1302682-6.130268zm35.2490422 0c3.3856536 0 6.1302682 2.744614 6.1302682 6.130268 0 3.385653-2.7446146 6.130268-6.1302682 6.130268s-6.1302682-2.744615-6.1302682-6.130268c0-3.385654 2.7446146-6.130268 6.1302682-6.130268zm35.2490425 0c3.385653 0 6.130268 2.744614 6.130268 6.130268 0 3.385653-2.744615 6.130268-6.130268 6.130268-3.385654 0-6.130269-2.744615-6.130269-6.130268 0-3.385654 2.744615-6.130268 6.130269-6.130268zm35.249042 0c3.385653 0 6.130268 2.744614 6.130268 6.130268 0 3.385653-2.744615 6.130268-6.130268 6.130268-3.385654 0-6.130268-2.744615-6.130268-6.130268 0-3.385654 2.744614-6.130268 6.130268-6.130268zm35.249042 0c3.385654 0 6.130268 2.744614 6.130268 6.130268 0 3.385653-2.744614 6.130268-6.130268 6.130268s-6.130268-2.744615-6.130268-6.130268c0-3.385654 2.744614-6.130268 6.130268-6.130268zm-176.2452108-35.249043c3.38565364 0 6.1302682 2.744615 6.1302682 6.130269 0 3.385653-2.74461456 6.130268-6.1302682 6.130268s-6.1302682-2.744615-6.1302682-6.130268c0-3.385654 2.74461456-6.130269 6.1302682-6.130269zm35.2490421 0c3.3856537 0 6.1302682 2.744615 6.1302682 6.130269 0 3.385653-2.7446145 6.130268-6.1302682 6.130268-3.3856536 0-6.1302682-2.744615-6.1302682-6.130268 0-3.385654 2.7446146-6.130269 6.1302682-6.130269zm35.2490422 0c3.3856536 0 6.1302682 2.744615 6.1302682 6.130269 0 3.385653-2.7446146 6.130268-6.1302682 6.130268s-6.1302682-2.744615-6.1302682-6.130268c0-3.385654 2.7446146-6.130269 6.1302682-6.130269zm246.7432955 0c3.385653 0 6.130268 2.744615 6.130268 6.130269 0 3.385653-2.744615 6.130268-6.130268 6.130268-3.385654 0-6.130269-2.744615-6.130269-6.130268 0-3.385654 2.744615-6.130269 6.130269-6.130269zm35.249042 0c3.385653 0 6.130268 2.744615 6.130268 6.130269 0 3.385653-2.744615 6.130268-6.130268 6.130268-3.385654 0-6.130269-2.744615-6.130269-6.130268 0-3.385654 2.744615-6.130269 6.130269-6.130269zm35.249042 0c3.385653 0 6.130268 2.744615 6.130268 6.130269 0 3.385653-2.744615 6.130268-6.130268 6.130268-3.385654 0-6.130268-2.744615-6.130268-6.130268 0-3.385654 2.744614-6.130269 6.130268-6.130269zm-281.992337 0c3.385653 0 6.130268 2.744615 6.130268 6.130269 0 3.385653-2.744615 6.130268-6.130268 6.130268-3.385654 0-6.130269-2.744615-6.130269-6.130268 0-3.385654 2.744615-6.130269 6.130269-6.130269zm35.249042 0c3.385653 0 6.130268 2.744615 6.130268 6.130269 0 3.385653-2.744615 6.130268-6.130268 6.130268-3.385654 0-6.130268-2.744615-6.130268-6.130268 0-3.385654 2.744614-6.130269 6.130268-6.130269zm35.249042 0c3.385654 0 6.130268 2.744615 6.130268 6.130269 0 3.385653-2.744614 6.130268-6.130268 6.130268s-6.130268-2.744615-6.130268-6.130268c0-3.385654 2.744614-6.130269 6.130268-6.130269zm35.249042 0c3.385654 0 6.130268 2.744615 6.130268 6.130269 0 3.385653-2.744614 6.130268-6.130268 6.130268s-6.130268-2.744615-6.130268-6.130268c0-3.385654 2.744614-6.130269 6.130268-6.130269zm35.249042 0c3.385654 0 6.130268 2.744615 6.130268 6.130269 0 3.385653-2.744614 6.130268-6.130268 6.130268-3.385653 0-6.130268-2.744615-6.130268-6.130268 0-3.385654 2.744615-6.130269 6.130268-6.130269zm35.249042 0c3.385654 0 6.130269 2.744615 6.130269 6.130269 0 3.385653-2.744615 6.130268-6.130269 6.130268-3.385653 0-6.130268-2.744615-6.130268-6.130268 0-3.385654 2.744615-6.130269 6.130268-6.130269zm35.249043-35.249042c3.385653 0 6.130268 2.744615 6.130268 6.130269 0 3.385653-2.744615 6.130268-6.130268 6.130268-3.385654 0-6.130269-2.744615-6.130269-6.130268 0-3.385654 2.744615-6.130269 6.130269-6.130269zm-70.498085 0c3.385654 0 6.130268 2.744615 6.130268 6.130269 0 3.385653-2.744614 6.130268-6.130268 6.130268-3.385653 0-6.130268-2.744615-6.130268-6.130268 0-3.385654 2.744615-6.130269 6.130268-6.130269zm105.747127 0c3.385653 0 6.130268 2.744615 6.130268 6.130269 0 3.385653-2.744615 6.130268-6.130268 6.130268-3.385654 0-6.130269-2.744615-6.130269-6.130268 0-3.385654 2.744615-6.130269 6.130269-6.130269zm-246.743295 0c3.385653 0 6.130268 2.744615 6.130268 6.130269 0 3.385653-2.744615 6.130268-6.130268 6.130268-3.385654 0-6.130269-2.744615-6.130269-6.130268 0-3.385654 2.744615-6.130269 6.130269-6.130269zm-105.7471268 0c3.38565364 0 6.1302682 2.744615 6.1302682 6.130269 0 3.385653-2.74461456 6.130268-6.1302682 6.130268s-6.1302682-2.744615-6.1302682-6.130268c0-3.385654 2.74461456-6.130269 6.1302682-6.130269zm140.9961688 0c3.385653 0 6.130268 2.744615 6.130268 6.130269 0 3.385653-2.744615 6.130268-6.130268 6.130268-3.385654 0-6.130268-2.744615-6.130268-6.130268 0-3.385654 2.744614-6.130269 6.130268-6.130269zm140.996168 0c3.385654 0 6.130269 2.744615 6.130269 6.130269 0 3.385653-2.744615 6.130268-6.130269 6.130268-3.385653 0-6.130268-2.744615-6.130268-6.130268 0-3.385654 2.744615-6.130269 6.130268-6.130269zm-246.7432947 0c3.3856537 0 6.1302682 2.744615 6.1302682 6.130269 0 3.385653-2.7446145 6.130268-6.1302682 6.130268-3.3856536 0-6.1302682-2.744615-6.1302682-6.130268 0-3.385654 2.7446146-6.130269 6.1302682-6.130269zm140.9961687 0c3.385654 0 6.130268 2.744615 6.130268 6.130269 0 3.385653-2.744614 6.130268-6.130268 6.130268s-6.130268-2.744615-6.130268-6.130268c0-3.385654 2.744614-6.130269 6.130268-6.130269zm35.249042 0c3.385654 0 6.130268 2.744615 6.130268 6.130269 0 3.385653-2.744614 6.130268-6.130268 6.130268s-6.130268-2.744615-6.130268-6.130268c0-3.385654 2.744614-6.130269 6.130268-6.130269zm176.245211 0c3.385653 0 6.130268 2.744615 6.130268 6.130269 0 3.385653-2.744615 6.130268-6.130268 6.130268-3.385654 0-6.130268-2.744615-6.130268-6.130268 0-3.385654 2.744614-6.130269 6.130268-6.130269zm-317.2413795 0c3.3856536 0 6.1302682 2.744615 6.1302682 6.130269 0 3.385653-2.7446146 6.130268-6.1302682 6.130268s-6.1302682-2.744615-6.1302682-6.130268c0-3.385654 2.7446146-6.130269 6.1302682-6.130269zm-35.2490422-35.249042c3.3856537 0 6.1302682 2.744615 6.1302682 6.130268 0 3.385654-2.7446145 6.130269-6.1302682 6.130269-3.3856536 0-6.1302682-2.744615-6.1302682-6.130269 0-3.385653 2.7446146-6.130268 6.1302682-6.130268zm70.4980847 0c3.385653 0 6.130268 2.744615 6.130268 6.130268 0 3.385654-2.744615 6.130269-6.130268 6.130269-3.385654 0-6.130269-2.744615-6.130269-6.130269 0-3.385653 2.744615-6.130268 6.130269-6.130268zm70.498084 0c3.385654 0 6.130268 2.744615 6.130268 6.130268 0 3.385654-2.744614 6.130269-6.130268 6.130269s-6.130268-2.744615-6.130268-6.130269c0-3.385653 2.744614-6.130268 6.130268-6.130268zm140.996169 0c3.385653 0 6.130268 2.744615 6.130268 6.130268 0 3.385654-2.744615 6.130269-6.130268 6.130269-3.385654 0-6.130269-2.744615-6.130269-6.130269 0-3.385653 2.744615-6.130268 6.130269-6.130268zm-105.747127 0c3.385654 0 6.130268 2.744615 6.130268 6.130268 0 3.385654-2.744614 6.130269-6.130268 6.130269s-6.130268-2.744615-6.130268-6.130269c0-3.385653 2.744614-6.130268 6.130268-6.130268zm70.498084 0c3.385654 0 6.130269 2.744615 6.130269 6.130268 0 3.385654-2.744615 6.130269-6.130269 6.130269-3.385653 0-6.130268-2.744615-6.130268-6.130269 0-3.385653 2.744615-6.130268 6.130268-6.130268zm-281.9923368 0c3.38565364 0 6.1302682 2.744615 6.1302682 6.130268 0 3.385654-2.74461456 6.130269-6.1302682 6.130269s-6.1302682-2.744615-6.1302682-6.130269c0-3.385653 2.74461456-6.130268 6.1302682-6.130268zm70.4980843 0c3.3856536 0 6.1302682 2.744615 6.1302682 6.130268 0 3.385654-2.7446146 6.130269-6.1302682 6.130269s-6.1302682-2.744615-6.1302682-6.130269c0-3.385653 2.7446146-6.130268 6.1302682-6.130268zm317.2413795 0c3.385653 0 6.130268 2.744615 6.130268 6.130268 0 3.385654-2.744615 6.130269-6.130268 6.130269-3.385654 0-6.130268-2.744615-6.130268-6.130269 0-3.385653 2.744614-6.130268 6.130268-6.130268zm-140.996169 0c3.385654 0 6.130268 2.744615 6.130268 6.130268 0 3.385654-2.744614 6.130269-6.130268 6.130269-3.385653 0-6.130268-2.744615-6.130268-6.130269 0-3.385653 2.744615-6.130268 6.130268-6.130268zm-105.747126 0c3.385653 0 6.130268 2.744615 6.130268 6.130268 0 3.385654-2.744615 6.130269-6.130268 6.130269-3.385654 0-6.130268-2.744615-6.130268-6.130269 0-3.385653 2.744614-6.130268 6.130268-6.130268zm211.494253 0c3.385653 0 6.130268 2.744615 6.130268 6.130268 0 3.385654-2.744615 6.130269-6.130268 6.130269-3.385654 0-6.130269-2.744615-6.130269-6.130269 0-3.385653 2.744615-6.130268 6.130269-6.130268zm35.249042-35.249042c3.385653 0 6.130268 2.744615 6.130268 6.130268 0 3.385654-2.744615 6.130268-6.130268 6.130268-3.385654 0-6.130268-2.744614-6.130268-6.130268 0-3.385653 2.744614-6.130268 6.130268-6.130268zm-105.747127 0c3.385654 0 6.130269 2.744615 6.130269 6.130268 0 3.385654-2.744615 6.130268-6.130269 6.130268-3.385653 0-6.130268-2.744614-6.130268-6.130268 0-3.385653 2.744615-6.130268 6.130268-6.130268zm-176.24521 0c3.385653 0 6.130268 2.744615 6.130268 6.130268 0 3.385654-2.744615 6.130268-6.130268 6.130268-3.385654 0-6.130269-2.744614-6.130269-6.130268 0-3.385653 2.744615-6.130268 6.130269-6.130268zm246.743295 0c3.385653 0 6.130268 2.744615 6.130268 6.130268 0 3.385654-2.744615 6.130268-6.130268 6.130268-3.385654 0-6.130269-2.744614-6.130269-6.130268 0-3.385653 2.744615-6.130268 6.130269-6.130268zm-105.747127 0c3.385654 0 6.130268 2.744615 6.130268 6.130268 0 3.385654-2.744614 6.130268-6.130268 6.130268-3.385653 0-6.130268-2.744614-6.130268-6.130268 0-3.385653 2.744615-6.130268 6.130268-6.130268zm-211.4942527 0c3.3856537 0 6.1302682 2.744615 6.1302682 6.130268 0 3.385654-2.7446145 6.130268-6.1302682 6.130268-3.3856536 0-6.1302682-2.744614-6.1302682-6.130268 0-3.385653 2.7446146-6.130268 6.1302682-6.130268zm-35.2490421 0c3.38565364 0 6.1302682 2.744615 6.1302682 6.130268 0 3.385654-2.74461456 6.130268-6.1302682 6.130268s-6.1302682-2.744614-6.1302682-6.130268c0-3.385653 2.74461456-6.130268 6.1302682-6.130268zm317.2413798 0c3.385653 0 6.130268 2.744615 6.130268 6.130268 0 3.385654-2.744615 6.130268-6.130268 6.130268-3.385654 0-6.130269-2.744614-6.130269-6.130268 0-3.385653 2.744615-6.130268 6.130269-6.130268zm-105.747127 0c3.385654 0 6.130268 2.744615 6.130268 6.130268 0 3.385654-2.744614 6.130268-6.130268 6.130268s-6.130268-2.744614-6.130268-6.130268c0-3.385653 2.744614-6.130268 6.130268-6.130268zm-70.498084 0c3.385653 0 6.130268 2.744615 6.130268 6.130268 0 3.385654-2.744615 6.130268-6.130268 6.130268-3.385654 0-6.130268-2.744614-6.130268-6.130268 0-3.385653 2.744614-6.130268 6.130268-6.130268zm35.249042 0c3.385654 0 6.130268 2.744615 6.130268 6.130268 0 3.385654-2.744614 6.130268-6.130268 6.130268s-6.130268-2.744614-6.130268-6.130268c0-3.385653 2.744614-6.130268 6.130268-6.130268zm-105.7471265 0c3.3856536 0 6.1302682 2.744615 6.1302682 6.130268 0 3.385654-2.7446146 6.130268-6.1302682 6.130268s-6.1302682-2.744614-6.1302682-6.130268c0-3.385653 2.7446146-6.130268 6.1302682-6.130268zm-70.4980843-35.249042c3.38565364 0 6.1302682 2.744614 6.1302682 6.130268s-2.74461456 6.130268-6.1302682 6.130268-6.1302682-2.744614-6.1302682-6.130268 2.74461456-6.130268 6.1302682-6.130268zm35.2490421 0c3.3856537 0 6.1302682 2.744614 6.1302682 6.130268s-2.7446145 6.130268-6.1302682 6.130268c-3.3856536 0-6.1302682-2.744614-6.1302682-6.130268s2.7446146-6.130268 6.1302682-6.130268zm35.2490422 0c3.3856536 0 6.1302682 2.744614 6.1302682 6.130268s-2.7446146 6.130268-6.1302682 6.130268-6.1302682-2.744614-6.1302682-6.130268 2.7446146-6.130268 6.1302682-6.130268zm281.9923375 0c3.385653 0 6.130268 2.744614 6.130268 6.130268s-2.744615 6.130268-6.130268 6.130268c-3.385654 0-6.130269-2.744614-6.130269-6.130268s2.744615-6.130268 6.130269-6.130268zm35.249042 0c3.385653 0 6.130268 2.744614 6.130268 6.130268s-2.744615 6.130268-6.130268 6.130268c-3.385654 0-6.130268-2.744614-6.130268-6.130268s2.744614-6.130268 6.130268-6.130268zm-105.747127 0c3.385654 0 6.130269 2.744614 6.130269 6.130268s-2.744615 6.130268-6.130269 6.130268c-3.385653 0-6.130268-2.744614-6.130268-6.130268s2.744615-6.130268 6.130268-6.130268zm35.249043 0c3.385653 0 6.130268 2.744614 6.130268 6.130268s-2.744615 6.130268-6.130268 6.130268c-3.385654 0-6.130269-2.744614-6.130269-6.130268s2.744615-6.130268 6.130269-6.130268zm-70.498085 0c3.385654 0 6.130268 2.744614 6.130268 6.130268s-2.744614 6.130268-6.130268 6.130268c-3.385653 0-6.130268-2.744614-6.130268-6.130268s2.744615-6.130268 6.130268-6.130268zm-105.747126 0c3.385653 0 6.130268 2.744614 6.130268 6.130268s-2.744615 6.130268-6.130268 6.130268c-3.385654 0-6.130268-2.744614-6.130268-6.130268s2.744614-6.130268 6.130268-6.130268zm70.498084 0c3.385654 0 6.130268 2.744614 6.130268 6.130268s-2.744614 6.130268-6.130268 6.130268-6.130268-2.744614-6.130268-6.130268 2.744614-6.130268 6.130268-6.130268zm-105.747126 0c3.385653 0 6.130268 2.744614 6.130268 6.130268s-2.744615 6.130268-6.130268 6.130268c-3.385654 0-6.130269-2.744614-6.130269-6.130268s2.744615-6.130268 6.130269-6.130268zm70.498084 0c3.385654 0 6.130268 2.744614 6.130268 6.130268s-2.744614 6.130268-6.130268 6.130268-6.130268-2.744614-6.130268-6.130268 2.744614-6.130268 6.130268-6.130268zm35.249042-35.249042c3.385654 0 6.130268 2.744614 6.130268 6.130268s-2.744614 6.130268-6.130268 6.130268-6.130268-2.744614-6.130268-6.130268 2.744614-6.130268 6.130268-6.130268zm-140.9961685 0c3.3856536 0 6.1302682 2.744614 6.1302682 6.130268s-2.7446146 6.130268-6.1302682 6.130268-6.1302682-2.744614-6.1302682-6.130268 2.7446146-6.130268 6.1302682-6.130268zm105.7471265 0c3.385654 0 6.130268 2.744614 6.130268 6.130268s-2.744614 6.130268-6.130268 6.130268-6.130268-2.744614-6.130268-6.130268 2.744614-6.130268 6.130268-6.130268zm211.494253 0c3.385653 0 6.130268 2.744614 6.130268 6.130268s-2.744615 6.130268-6.130268 6.130268c-3.385654 0-6.130268-2.744614-6.130268-6.130268s2.744614-6.130268 6.130268-6.130268zm-352.4904217 0c3.3856537 0 6.1302682 2.744614 6.1302682 6.130268s-2.7446145 6.130268-6.1302682 6.130268c-3.3856536 0-6.1302682-2.744614-6.1302682-6.130268s2.7446146-6.130268 6.1302682-6.130268zm-35.2490421 0c3.38565364 0 6.1302682 2.744614 6.1302682 6.130268s-2.74461456 6.130268-6.1302682 6.130268-6.1302682-2.744614-6.1302682-6.130268 2.74461456-6.130268 6.1302682-6.130268zm105.7471268 0c3.385653 0 6.130268 2.744614 6.130268 6.130268s-2.744615 6.130268-6.130268 6.130268c-3.385654 0-6.130269-2.744614-6.130269-6.130268s2.744615-6.130268 6.130269-6.130268zm140.996168 0c3.385654 0 6.130268 2.744614 6.130268 6.130268s-2.744614 6.130268-6.130268 6.130268c-3.385653 0-6.130268-2.744614-6.130268-6.130268s2.744615-6.130268 6.130268-6.130268zm-105.747126 0c3.385653 0 6.130268 2.744614 6.130268 6.130268s-2.744615 6.130268-6.130268 6.130268c-3.385654 0-6.130268-2.744614-6.130268-6.130268s2.744614-6.130268 6.130268-6.130268zm176.245211 0c3.385653 0 6.130268 2.744614 6.130268 6.130268s-2.744615 6.130268-6.130268 6.130268c-3.385654 0-6.130269-2.744614-6.130269-6.130268s2.744615-6.130268 6.130269-6.130268zm35.249042 0c3.385653 0 6.130268 2.744614 6.130268 6.130268s-2.744615 6.130268-6.130268 6.130268c-3.385654 0-6.130269-2.744614-6.130269-6.130268s2.744615-6.130268 6.130269-6.130268zm-70.498085 0c3.385654 0 6.130269 2.744614 6.130269 6.130268s-2.744615 6.130268-6.130269 6.130268c-3.385653 0-6.130268-2.744614-6.130268-6.130268s2.744615-6.130268 6.130268-6.130268zm-140.996168-35.249042c3.385653 0 6.130268 2.744614 6.130268 6.130268 0 3.385653-2.744615 6.130268-6.130268 6.130268-3.385654 0-6.130268-2.744615-6.130268-6.130268 0-3.385654 2.744614-6.130268 6.130268-6.130268zm176.245211 0c3.385653 0 6.130268 2.744614 6.130268 6.130268 0 3.385653-2.744615 6.130268-6.130268 6.130268-3.385654 0-6.130269-2.744615-6.130269-6.130268 0-3.385654 2.744615-6.130268 6.130269-6.130268zm35.249042 0c3.385653 0 6.130268 2.744614 6.130268 6.130268 0 3.385653-2.744615 6.130268-6.130268 6.130268-3.385654 0-6.130269-2.744615-6.130269-6.130268 0-3.385654 2.744615-6.130268 6.130269-6.130268zm-176.245211 0c3.385654 0 6.130268 2.744614 6.130268 6.130268 0 3.385653-2.744614 6.130268-6.130268 6.130268s-6.130268-2.744615-6.130268-6.130268c0-3.385654 2.744614-6.130268 6.130268-6.130268zm-176.2452108 0c3.38565364 0 6.1302682 2.744614 6.1302682 6.130268 0 3.385653-2.74461456 6.130268-6.1302682 6.130268s-6.1302682-2.744615-6.1302682-6.130268c0-3.385654 2.74461456-6.130268 6.1302682-6.130268zm387.7394638 0c3.385653 0 6.130268 2.744614 6.130268 6.130268 0 3.385653-2.744615 6.130268-6.130268 6.130268-3.385654 0-6.130268-2.744615-6.130268-6.130268 0-3.385654 2.744614-6.130268 6.130268-6.130268zm-281.992337 0c3.385653 0 6.130268 2.744614 6.130268 6.130268 0 3.385653-2.744615 6.130268-6.130268 6.130268-3.385654 0-6.130269-2.744615-6.130269-6.130268 0-3.385654 2.744615-6.130268 6.130269-6.130268zm-70.4980847 0c3.3856537 0 6.1302682 2.744614 6.1302682 6.130268 0 3.385653-2.7446145 6.130268-6.1302682 6.130268-3.3856536 0-6.1302682-2.744615-6.1302682-6.130268 0-3.385654 2.7446146-6.130268 6.1302682-6.130268zm246.7432947 0c3.385654 0 6.130269 2.744614 6.130269 6.130268 0 3.385653-2.744615 6.130268-6.130269 6.130268-3.385653 0-6.130268-2.744615-6.130268-6.130268 0-3.385654 2.744615-6.130268 6.130268-6.130268zm-70.498084 0c3.385654 0 6.130268 2.744614 6.130268 6.130268 0 3.385653-2.744614 6.130268-6.130268 6.130268s-6.130268-2.744615-6.130268-6.130268c0-3.385654 2.744614-6.130268 6.130268-6.130268zm-140.9961685 0c3.3856536 0 6.1302682 2.744614 6.1302682 6.130268 0 3.385653-2.7446146 6.130268-6.1302682 6.130268s-6.1302682-2.744615-6.1302682-6.130268c0-3.385654 2.7446146-6.130268 6.1302682-6.130268zm176.2452105 0c3.385654 0 6.130268 2.744614 6.130268 6.130268 0 3.385653-2.744614 6.130268-6.130268 6.130268-3.385653 0-6.130268-2.744615-6.130268-6.130268 0-3.385654 2.744615-6.130268 6.130268-6.130268zm-35.249042-35.249043c3.385654 0 6.130268 2.744615 6.130268 6.130269 0 3.385653-2.744614 6.130268-6.130268 6.130268s-6.130268-2.744615-6.130268-6.130268c0-3.385654 2.744614-6.130269 6.130268-6.130269zm-140.9961685 0c3.3856536 0 6.1302682 2.744615 6.1302682 6.130269 0 3.385653-2.7446146 6.130268-6.1302682 6.130268s-6.1302682-2.744615-6.1302682-6.130268c0-3.385654 2.7446146-6.130269 6.1302682-6.130269zm70.4980845 0c3.385653 0 6.130268 2.744615 6.130268 6.130269 0 3.385653-2.744615 6.130268-6.130268 6.130268-3.385654 0-6.130268-2.744615-6.130268-6.130268 0-3.385654 2.744614-6.130269 6.130268-6.130269zm-105.7471267 0c3.3856537 0 6.1302682 2.744615 6.1302682 6.130269 0 3.385653-2.7446145 6.130268-6.1302682 6.130268-3.3856536 0-6.1302682-2.744615-6.1302682-6.130268 0-3.385654 2.7446146-6.130269 6.1302682-6.130269zm140.9961687 0c3.385654 0 6.130268 2.744615 6.130268 6.130269 0 3.385653-2.744614 6.130268-6.130268 6.130268s-6.130268-2.744615-6.130268-6.130268c0-3.385654 2.744614-6.130269 6.130268-6.130269zm211.494253 0c3.385653 0 6.130268 2.744615 6.130268 6.130269 0 3.385653-2.744615 6.130268-6.130268 6.130268-3.385654 0-6.130268-2.744615-6.130268-6.130268 0-3.385654 2.744614-6.130269 6.130268-6.130269zm-35.249042 0c3.385653 0 6.130268 2.744615 6.130268 6.130269 0 3.385653-2.744615 6.130268-6.130268 6.130268-3.385654 0-6.130269-2.744615-6.130269-6.130268 0-3.385654 2.744615-6.130269 6.130269-6.130269zm-352.4904218 0c3.38565364 0 6.1302682 2.744615 6.1302682 6.130269 0 3.385653-2.74461456 6.130268-6.1302682 6.130268s-6.1302682-2.744615-6.1302682-6.130268c0-3.385654 2.74461456-6.130269 6.1302682-6.130269zm281.9923368 0c3.385654 0 6.130269 2.744615 6.130269 6.130269 0 3.385653-2.744615 6.130268-6.130269 6.130268-3.385653 0-6.130268-2.744615-6.130268-6.130268 0-3.385654 2.744615-6.130269 6.130268-6.130269zm-35.249042 0c3.385654 0 6.130268 2.744615 6.130268 6.130269 0 3.385653-2.744614 6.130268-6.130268 6.130268-3.385653 0-6.130268-2.744615-6.130268-6.130268 0-3.385654 2.744615-6.130269 6.130268-6.130269zm-140.996168 0c3.385653 0 6.130268 2.744615 6.130268 6.130269 0 3.385653-2.744615 6.130268-6.130268 6.130268-3.385654 0-6.130269-2.744615-6.130269-6.130268 0-3.385654 2.744615-6.130269 6.130269-6.130269zm211.494253 0c3.385653 0 6.130268 2.744615 6.130268 6.130269 0 3.385653-2.744615 6.130268-6.130268 6.130268-3.385654 0-6.130269-2.744615-6.130269-6.130268 0-3.385654 2.744615-6.130269 6.130269-6.130269zm-176.245211-35.2490417c3.385653 0 6.130268 2.7446146 6.130268 6.1302682s-2.744615 6.1302682-6.130268 6.1302682c-3.385654 0-6.130268-2.7446146-6.130268-6.1302682s2.744614-6.1302682 6.130268-6.1302682zm-140.9961688 0c3.38565364 0 6.1302682 2.7446146 6.1302682 6.1302682s-2.74461456 6.1302682-6.1302682 6.1302682-6.1302682-2.7446146-6.1302682-6.1302682 2.74461456-6.1302682 6.1302682-6.1302682zm387.7394638 0c3.385653 0 6.130268 2.7446146 6.130268 6.1302682s-2.744615 6.1302682-6.130268 6.1302682c-3.385654 0-6.130268-2.7446146-6.130268-6.1302682s2.744614-6.1302682 6.130268-6.1302682zm-352.4904217 0c3.3856537 0 6.1302682 2.7446146 6.1302682 6.1302682s-2.7446145 6.1302682-6.1302682 6.1302682c-3.3856536 0-6.1302682-2.7446146-6.1302682-6.1302682s2.7446146-6.1302682 6.1302682-6.1302682zm35.2490422 0c3.3856536 0 6.1302682 2.7446146 6.1302682 6.1302682s-2.7446146 6.1302682-6.1302682 6.1302682-6.1302682-2.7446146-6.1302682-6.1302682 2.7446146-6.1302682 6.1302682-6.1302682zm281.9923375 0c3.385653 0 6.130268 2.7446146 6.130268 6.1302682s-2.744615 6.1302682-6.130268 6.1302682c-3.385654 0-6.130269-2.7446146-6.130269-6.1302682s2.744615-6.1302682 6.130269-6.1302682zm-105.747127 0c3.385654 0 6.130268 2.7446146 6.130268 6.1302682s-2.744614 6.1302682-6.130268 6.1302682c-3.385653 0-6.130268-2.7446146-6.130268-6.1302682s2.744615-6.1302682 6.130268-6.1302682zm-140.996168 0c3.385653 0 6.130268 2.7446146 6.130268 6.1302682s-2.744615 6.1302682-6.130268 6.1302682c-3.385654 0-6.130269-2.7446146-6.130269-6.1302682s2.744615-6.1302682 6.130269-6.1302682zm70.498084 0c3.385654 0 6.130268 2.7446146 6.130268 6.1302682s-2.744614 6.1302682-6.130268 6.1302682-6.130268-2.7446146-6.130268-6.1302682 2.744614-6.1302682 6.130268-6.1302682zm105.747126 0c3.385654 0 6.130269 2.7446146 6.130269 6.1302682s-2.744615 6.1302682-6.130269 6.1302682c-3.385653 0-6.130268-2.7446146-6.130268-6.1302682s2.744615-6.1302682 6.130268-6.1302682zm35.249043 0c3.385653 0 6.130268 2.7446146 6.130268 6.1302682s-2.744615 6.1302682-6.130268 6.1302682c-3.385654 0-6.130269-2.7446146-6.130269-6.1302682s2.744615-6.1302682 6.130269-6.1302682zm-105.747127 0c3.385654 0 6.130268 2.7446146 6.130268 6.1302682s-2.744614 6.1302682-6.130268 6.1302682-6.130268-2.7446146-6.130268-6.1302682 2.744614-6.1302682 6.130268-6.1302682zm-176.2452107-35.2490422c3.3856537 0 6.1302682 2.7446146 6.1302682 6.1302682 0 3.3856537-2.7446145 6.1302682-6.1302682 6.1302682-3.3856536 0-6.1302682-2.7446145-6.1302682-6.1302682 0-3.3856536 2.7446146-6.1302682 6.1302682-6.1302682zm211.4942527 0c3.385654 0 6.130268 2.7446146 6.130268 6.1302682 0 3.3856537-2.744614 6.1302682-6.130268 6.1302682-3.385653 0-6.130268-2.7446145-6.130268-6.1302682 0-3.3856536 2.744615-6.1302682 6.130268-6.1302682zm140.996169 0c3.385653 0 6.130268 2.7446146 6.130268 6.1302682 0 3.3856537-2.744615 6.1302682-6.130268 6.1302682-3.385654 0-6.130268-2.7446145-6.130268-6.1302682 0-3.3856536 2.744614-6.1302682 6.130268-6.1302682zm-281.992337 0c3.385653 0 6.130268 2.7446146 6.130268 6.1302682 0 3.3856537-2.744615 6.1302682-6.130268 6.1302682-3.385654 0-6.130269-2.7446145-6.130269-6.1302682 0-3.3856536 2.744615-6.1302682 6.130269-6.1302682zm246.743295 0c3.385653 0 6.130268 2.7446146 6.130268 6.1302682 0 3.3856537-2.744615 6.1302682-6.130268 6.1302682-3.385654 0-6.130269-2.7446145-6.130269-6.1302682 0-3.3856536 2.744615-6.1302682 6.130269-6.1302682zm-281.9923375 0c3.3856536 0 6.1302682 2.7446146 6.1302682 6.1302682 0 3.3856537-2.7446146 6.1302682-6.1302682 6.1302682s-6.1302682-2.7446145-6.1302682-6.1302682c0-3.3856536 2.7446146-6.1302682 6.1302682-6.1302682zm211.4942525 0c3.385654 0 6.130269 2.7446146 6.130269 6.1302682 0 3.3856537-2.744615 6.1302682-6.130269 6.1302682-3.385653 0-6.130268-2.7446145-6.130268-6.1302682 0-3.3856536 2.744615-6.1302682 6.130268-6.1302682zm-105.747126 0c3.385654 0 6.130268 2.7446146 6.130268 6.1302682 0 3.3856537-2.744614 6.1302682-6.130268 6.1302682s-6.130268-2.7446145-6.130268-6.1302682c0-3.3856536 2.744614-6.1302682 6.130268-6.1302682zm-35.249042 0c3.385653 0 6.130268 2.7446146 6.130268 6.1302682 0 3.3856537-2.744615 6.1302682-6.130268 6.1302682-3.385654 0-6.130268-2.7446145-6.130268-6.1302682 0-3.3856536 2.744614-6.1302682 6.130268-6.1302682zm176.245211 0c3.385653 0 6.130268 2.7446146 6.130268 6.1302682 0 3.3856537-2.744615 6.1302682-6.130268 6.1302682-3.385654 0-6.130269-2.7446145-6.130269-6.1302682 0-3.3856536 2.744615-6.1302682 6.130269-6.1302682zm-317.2413798 0c3.38565364 0 6.1302682 2.7446146 6.1302682 6.1302682 0 3.3856537-2.74461456 6.1302682-6.1302682 6.1302682s-6.1302682-2.7446145-6.1302682-6.1302682c0-3.3856536 2.74461456-6.1302682 6.1302682-6.1302682zm211.4942528 0c3.385654 0 6.130268 2.7446146 6.130268 6.1302682 0 3.3856537-2.744614 6.1302682-6.130268 6.1302682s-6.130268-2.7446145-6.130268-6.1302682c0-3.3856536 2.744614-6.1302682 6.130268-6.1302682zm-211.4942528-35.2490421c3.38565364 0 6.1302682 2.74461456 6.1302682 6.1302682s-2.74461456 6.1302682-6.1302682 6.1302682-6.1302682-2.74461456-6.1302682-6.1302682 2.74461456-6.1302682 6.1302682-6.1302682zm35.2490421 0c3.3856537 0 6.1302682 2.74461456 6.1302682 6.1302682s-2.7446145 6.1302682-6.1302682 6.1302682c-3.3856536 0-6.1302682-2.74461456-6.1302682-6.1302682s2.7446146-6.1302682 6.1302682-6.1302682zm35.2490422 0c3.3856536 0 6.1302682 2.74461456 6.1302682 6.1302682s-2.7446146 6.1302682-6.1302682 6.1302682-6.1302682-2.74461456-6.1302682-6.1302682 2.7446146-6.1302682 6.1302682-6.1302682zm35.2490425 0c3.385653 0 6.130268 2.74461456 6.130268 6.1302682s-2.744615 6.1302682-6.130268 6.1302682c-3.385654 0-6.130269-2.74461456-6.130269-6.1302682s2.744615-6.1302682 6.130269-6.1302682zm35.249042 0c3.385653 0 6.130268 2.74461456 6.130268 6.1302682s-2.744615 6.1302682-6.130268 6.1302682c-3.385654 0-6.130268-2.74461456-6.130268-6.1302682s2.744614-6.1302682 6.130268-6.1302682zm35.249042 0c3.385654 0 6.130268 2.74461456 6.130268 6.1302682s-2.744614 6.1302682-6.130268 6.1302682-6.130268-2.74461456-6.130268-6.1302682 2.744614-6.1302682 6.130268-6.1302682zm35.249042 0c3.385654 0 6.130268 2.74461456 6.130268 6.1302682s-2.744614 6.1302682-6.130268 6.1302682-6.130268-2.74461456-6.130268-6.1302682 2.744614-6.1302682 6.130268-6.1302682zm35.249042 0c3.385654 0 6.130268 2.74461456 6.130268 6.1302682s-2.744614 6.1302682-6.130268 6.1302682c-3.385653 0-6.130268-2.74461456-6.130268-6.1302682s2.744615-6.1302682 6.130268-6.1302682zm35.249042 0c3.385654 0 6.130269 2.74461456 6.130269 6.1302682s-2.744615 6.1302682-6.130269 6.1302682c-3.385653 0-6.130268-2.74461456-6.130268-6.1302682s2.744615-6.1302682 6.130268-6.1302682zm35.249043 0c3.385653 0 6.130268 2.74461456 6.130268 6.1302682s-2.744615 6.1302682-6.130268 6.1302682c-3.385654 0-6.130269-2.74461456-6.130269-6.1302682s2.744615-6.1302682 6.130269-6.1302682zm35.249042 0c3.385653 0 6.130268 2.74461456 6.130268 6.1302682s-2.744615 6.1302682-6.130268 6.1302682c-3.385654 0-6.130269-2.74461456-6.130269-6.1302682s2.744615-6.1302682 6.130269-6.1302682zm35.249042 0c3.385653 0 6.130268 2.74461456 6.130268 6.1302682s-2.744615 6.1302682-6.130268 6.1302682c-3.385654 0-6.130268-2.74461456-6.130268-6.1302682s2.744614-6.1302682 6.130268-6.1302682z" fill="url(#a)" transform="matrix(.70710678 .70710678 -.70710678 .70710678 1321.000339 483.157065)"/><circle cx="575" cy="350" r="215" stroke="url(#b)" stroke-width="12"/><circle cx="1234" cy="365" r="46" stroke="url(#c)" stroke-width="8"/><circle cx="542" cy="758" opacity=".503" r="23" stroke="#1851be" stroke-width="4"/><path d="m1265.47078-78.6113085 13.93503 578.7095055" opacity=".4" stroke="url(#e)" stroke-linecap="round" stroke-linejoin="round" stroke-width="4" transform="matrix(.70710678 -.70710678 .70710678 .70710678 223.763815 961.409637)"/><path d="m1501.88709 661.046109 6.02419 225.842217" opacity=".2" stroke="#1851be" stroke-linecap="square" transform="matrix(-.68800001 -.72571068 .72571068 -.68800001 1978.817536 2398.581933)"/><g stroke-linecap="round" stroke-linejoin="round" stroke-width="4"><path d="m980.25 872.75-1.031176 446.49939" stroke="url(#f)"/><path d="m529.5 666.5-528.625-.375" stroke="url(#g)"/></g></g></svg>