<svg height="1273" viewBox="0 0 1489 1273" width="1489" xmlns="http://www.w3.org/2000/svg" xmlns:xlink="http://www.w3.org/1999/xlink"><linearGradient id="a"><stop offset="0" stop-color="#96f"/><stop offset="1" stop-color="#5534a6"/></linearGradient><linearGradient id="b" x1="100%" x2="6.438%" xlink:href="#a" y1="100%" y2="0%"/><linearGradient id="c" x1="50%" x2="41.962%" xlink:href="#a" y1="100%" y2="0%"/><linearGradient id="d" x1="50%" x2="50%" y1="0%" y2="100%"><stop offset="0" stop-color="#fff" stop-opacity="0"/><stop offset="1" stop-color="#fff"/></linearGradient><linearGradient id="e" x1="50%" x2="50%" y1="100%" y2="0%"><stop offset="0" stop-color="#5534a6"/><stop offset="1" stop-color="#96f" stop-opacity="0"/></linearGradient><linearGradient id="f" x1="94.625%" x2="0%" y1="0%" y2="0%"><stop offset="0" stop-color="#96f" stop-opacity="0"/><stop offset="1" stop-color="#5534a6"/></linearGradient><g fill="none" fill-rule="evenodd" transform="matrix(-.93969262 -.34202014 .34202014 -.93969262 1303.909376 1456.014403)"><path d="m265.624521 435.739464c3.385654 0 6.130268 2.744614 6.130268 6.130268 0 3.385653-2.744614 6.130268-6.130268 6.130268s-6.130268-2.744615-6.130268-6.130268c0-3.385654 2.744614-6.130268 6.130268-6.130268zm35.249042 0c3.385654 0 6.130268 2.744614 6.130268 6.130268 0 3.385653-2.744614 6.130268-6.130268 6.130268-3.385653 0-6.130268-2.744615-6.130268-6.130268 0-3.385654 2.744615-6.130268 6.130268-6.130268zm35.249042 0c3.385654 0 6.130269 2.744614 6.130269 6.130268 0 3.385653-2.744615 6.130268-6.130269 6.130268-3.385653 0-6.130268-2.744615-6.130268-6.130268 0-3.385654 2.744615-6.130268 6.130268-6.130268zm35.249043 0c3.385653 0 6.130268 2.744614 6.130268 6.130268 0 3.385653-2.744615 6.130268-6.130268 6.130268-3.385654 0-6.130269-2.744615-6.130269-6.130268 0-3.385654 2.744615-6.130268 6.130269-6.130268zm35.249042 0c3.385653 0 6.130268 2.744614 6.130268 6.130268 0 3.385653-2.744615 6.130268-6.130268 6.130268-3.385654 0-6.130269-2.744615-6.130269-6.130268 0-3.385654 2.744615-6.130268 6.130269-6.130268zm35.249042 0c3.385653 0 6.130268 2.744614 6.130268 6.130268 0 3.385653-2.744615 6.130268-6.130268 6.130268-3.385654 0-6.130268-2.744615-6.130268-6.130268 0-3.385654 2.744614-6.130268 6.130268-6.130268zm-387.7394638 0c3.3856536 0 6.1302682 2.744614 6.1302682 6.130268 0 3.385653-2.7446146 6.130268-6.1302682 6.130268s-6.1302682-2.744615-6.1302682-6.130268c0-3.385654 2.7446146-6.130268 6.1302682-6.130268zm35.2490421 0c3.3856537 0 6.1302682 2.744614 6.1302682 6.130268 0 3.385653-2.7446145 6.130268-6.1302682 6.130268-3.3856536 0-6.1302682-2.744615-6.1302682-6.130268 0-3.385654 2.7446146-6.130268 6.1302682-6.130268zm35.2490417 0c3.385654 0 6.130269 2.744614 6.130269 6.130268 0 3.385653-2.744615 6.130268-6.130269 6.130268-3.385653 0-6.130268-2.744615-6.130268-6.130268 0-3.385654 2.744615-6.130268 6.130268-6.130268zm35.249043 0c3.385653 0 6.130268 2.744614 6.130268 6.130268 0 3.385653-2.744615 6.130268-6.130268 6.130268-3.385654 0-6.130269-2.744615-6.130269-6.130268 0-3.385654 2.744615-6.130268 6.130269-6.130268zm35.249042 0c3.385653 0 6.130268 2.744614 6.130268 6.130268 0 3.385653-2.744615 6.130268-6.130268 6.130268-3.385654 0-6.130268-2.744615-6.130268-6.130268 0-3.385654 2.744614-6.130268 6.130268-6.130268zm35.249042 0c3.385654 0 6.130268 2.744614 6.130268 6.130268 0 3.385653-2.744614 6.130268-6.130268 6.130268s-6.130268-2.744615-6.130268-6.130268c0-3.385654 2.744614-6.130268 6.130268-6.130268zm-176.2452108-35.249043c3.3856536 0 6.1302682 2.744615 6.1302682 6.130269 0 3.385653-2.7446146 6.130268-6.1302682 6.130268s-6.1302682-2.744615-6.1302682-6.130268c0-3.385654 2.7446146-6.130269 6.1302682-6.130269zm35.2490421 0c3.3856537 0 6.1302682 2.744615 6.1302682 6.130269 0 3.385653-2.7446145 6.130268-6.1302682 6.130268-3.3856536 0-6.1302682-2.744615-6.1302682-6.130268 0-3.385654 2.7446146-6.130269 6.1302682-6.130269zm35.2490417 0c3.385654 0 6.130269 2.744615 6.130269 6.130269 0 3.385653-2.744615 6.130268-6.130269 6.130268-3.385653 0-6.130268-2.744615-6.130268-6.130268 0-3.385654 2.744615-6.130269 6.130268-6.130269zm246.743296 0c3.385653 0 6.130268 2.744615 6.130268 6.130269 0 3.385653-2.744615 6.130268-6.130268 6.130268-3.385654 0-6.130269-2.744615-6.130269-6.130268 0-3.385654 2.744615-6.130269 6.130269-6.130269zm35.249042 0c3.385653 0 6.130268 2.744615 6.130268 6.130269 0 3.385653-2.744615 6.130268-6.130268 6.130268-3.385654 0-6.130269-2.744615-6.130269-6.130268 0-3.385654 2.744615-6.130269 6.130269-6.130269zm35.249042 0c3.385653 0 6.130268 2.744615 6.130268 6.130269 0 3.385653-2.744615 6.130268-6.130268 6.130268-3.385654 0-6.130268-2.744615-6.130268-6.130268 0-3.385654 2.744614-6.130269 6.130268-6.130269zm-281.992337 0c3.385653 0 6.130268 2.744615 6.130268 6.130269 0 3.385653-2.744615 6.130268-6.130268 6.130268-3.385654 0-6.130269-2.744615-6.130269-6.130268 0-3.385654 2.744615-6.130269 6.130269-6.130269zm35.249042 0c3.385653 0 6.130268 2.744615 6.130268 6.130269 0 3.385653-2.744615 6.130268-6.130268 6.130268-3.385654 0-6.130268-2.744615-6.130268-6.130268 0-3.385654 2.744614-6.130269 6.130268-6.130269zm35.249042 0c3.385654 0 6.130268 2.744615 6.130268 6.130269 0 3.385653-2.744614 6.130268-6.130268 6.130268s-6.130268-2.744615-6.130268-6.130268c0-3.385654 2.744614-6.130269 6.130268-6.130269zm35.249042 0c3.385654 0 6.130268 2.744615 6.130268 6.130269 0 3.385653-2.744614 6.130268-6.130268 6.130268s-6.130268-2.744615-6.130268-6.130268c0-3.385654 2.744614-6.130269 6.130268-6.130269zm35.249042 0c3.385654 0 6.130268 2.744615 6.130268 6.130269 0 3.385653-2.744614 6.130268-6.130268 6.130268-3.385653 0-6.130268-2.744615-6.130268-6.130268 0-3.385654 2.744615-6.130269 6.130268-6.130269zm35.249042 0c3.385654 0 6.130269 2.744615 6.130269 6.130269 0 3.385653-2.744615 6.130268-6.130269 6.130268-3.385653 0-6.130268-2.744615-6.130268-6.130268 0-3.385654 2.744615-6.130269 6.130268-6.130269zm35.249043-35.249042c3.385653 0 6.130268 2.744615 6.130268 6.130269 0 3.385653-2.744615 6.130268-6.130268 6.130268-3.385654 0-6.130269-2.744615-6.130269-6.130268 0-3.385654 2.744615-6.130269 6.130269-6.130269zm-70.498085 0c3.385654 0 6.130268 2.744615 6.130268 6.130269 0 3.385653-2.744614 6.130268-6.130268 6.130268-3.385653 0-6.130268-2.744615-6.130268-6.130268 0-3.385654 2.744615-6.130269 6.130268-6.130269zm105.747127 0c3.385653 0 6.130268 2.744615 6.130268 6.130269 0 3.385653-2.744615 6.130268-6.130268 6.130268-3.385654 0-6.130269-2.744615-6.130269-6.130268 0-3.385654 2.744615-6.130269 6.130269-6.130269zm-246.743295 0c3.385653 0 6.130268 2.744615 6.130268 6.130269 0 3.385653-2.744615 6.130268-6.130268 6.130268-3.385654 0-6.130269-2.744615-6.130269-6.130268 0-3.385654 2.744615-6.130269 6.130269-6.130269zm-105.7471268 0c3.3856536 0 6.1302682 2.744615 6.1302682 6.130269 0 3.385653-2.7446146 6.130268-6.1302682 6.130268s-6.1302682-2.744615-6.1302682-6.130268c0-3.385654 2.7446146-6.130269 6.1302682-6.130269zm140.9961688 0c3.385653 0 6.130268 2.744615 6.130268 6.130269 0 3.385653-2.744615 6.130268-6.130268 6.130268-3.385654 0-6.130268-2.744615-6.130268-6.130268 0-3.385654 2.744614-6.130269 6.130268-6.130269zm140.996168 0c3.385654 0 6.130269 2.744615 6.130269 6.130269 0 3.385653-2.744615 6.130268-6.130269 6.130268-3.385653 0-6.130268-2.744615-6.130268-6.130268 0-3.385654 2.744615-6.130269 6.130268-6.130269zm-246.7432947 0c3.3856537 0 6.1302682 2.744615 6.1302682 6.130269 0 3.385653-2.7446145 6.130268-6.1302682 6.130268-3.3856536 0-6.1302682-2.744615-6.1302682-6.130268 0-3.385654 2.7446146-6.130269 6.1302682-6.130269zm140.9961687 0c3.385654 0 6.130268 2.744615 6.130268 6.130269 0 3.385653-2.744614 6.130268-6.130268 6.130268s-6.130268-2.744615-6.130268-6.130268c0-3.385654 2.744614-6.130269 6.130268-6.130269zm35.249042 0c3.385654 0 6.130268 2.744615 6.130268 6.130269 0 3.385653-2.744614 6.130268-6.130268 6.130268s-6.130268-2.744615-6.130268-6.130268c0-3.385654 2.744614-6.130269 6.130268-6.130269zm176.245211 0c3.385653 0 6.130268 2.744615 6.130268 6.130269 0 3.385653-2.744615 6.130268-6.130268 6.130268-3.385654 0-6.130268-2.744615-6.130268-6.130268 0-3.385654 2.744614-6.130269 6.130268-6.130269zm-317.24138 0c3.385654 0 6.130269 2.744615 6.130269 6.130269 0 3.385653-2.744615 6.130268-6.130269 6.130268-3.385653 0-6.130268-2.744615-6.130268-6.130268 0-3.385654 2.744615-6.130269 6.130268-6.130269zm-35.2490417-35.249042c3.3856537 0 6.1302682 2.744615 6.1302682 6.130268 0 3.385654-2.7446145 6.130269-6.1302682 6.130269-3.3856536 0-6.1302682-2.744615-6.1302682-6.130269 0-3.385653 2.7446146-6.130268 6.1302682-6.130268zm70.4980847 0c3.385653 0 6.130268 2.744615 6.130268 6.130268 0 3.385654-2.744615 6.130269-6.130268 6.130269-3.385654 0-6.130269-2.744615-6.130269-6.130269 0-3.385653 2.744615-6.130268 6.130269-6.130268zm70.498084 0c3.385654 0 6.130268 2.744615 6.130268 6.130268 0 3.385654-2.744614 6.130269-6.130268 6.130269s-6.130268-2.744615-6.130268-6.130269c0-3.385653 2.744614-6.130268 6.130268-6.130268zm140.996169 0c3.385653 0 6.130268 2.744615 6.130268 6.130268 0 3.385654-2.744615 6.130269-6.130268 6.130269-3.385654 0-6.130269-2.744615-6.130269-6.130269 0-3.385653 2.744615-6.130268 6.130269-6.130268zm-105.747127 0c3.385654 0 6.130268 2.744615 6.130268 6.130268 0 3.385654-2.744614 6.130269-6.130268 6.130269s-6.130268-2.744615-6.130268-6.130269c0-3.385653 2.744614-6.130268 6.130268-6.130268zm70.498084 0c3.385654 0 6.130269 2.744615 6.130269 6.130268 0 3.385654-2.744615 6.130269-6.130269 6.130269-3.385653 0-6.130268-2.744615-6.130268-6.130269 0-3.385653 2.744615-6.130268 6.130268-6.130268zm-281.9923368 0c3.3856536 0 6.1302682 2.744615 6.1302682 6.130268 0 3.385654-2.7446146 6.130269-6.1302682 6.130269s-6.1302682-2.744615-6.1302682-6.130269c0-3.385653 2.7446146-6.130268 6.1302682-6.130268zm70.4980838 0c3.385654 0 6.130269 2.744615 6.130269 6.130268 0 3.385654-2.744615 6.130269-6.130269 6.130269-3.385653 0-6.130268-2.744615-6.130268-6.130269 0-3.385653 2.744615-6.130268 6.130268-6.130268zm317.24138 0c3.385653 0 6.130268 2.744615 6.130268 6.130268 0 3.385654-2.744615 6.130269-6.130268 6.130269-3.385654 0-6.130268-2.744615-6.130268-6.130269 0-3.385653 2.744614-6.130268 6.130268-6.130268zm-140.996169 0c3.385654 0 6.130268 2.744615 6.130268 6.130268 0 3.385654-2.744614 6.130269-6.130268 6.130269-3.385653 0-6.130268-2.744615-6.130268-6.130269 0-3.385653 2.744615-6.130268 6.130268-6.130268zm-105.747126 0c3.385653 0 6.130268 2.744615 6.130268 6.130268 0 3.385654-2.744615 6.130269-6.130268 6.130269-3.385654 0-6.130268-2.744615-6.130268-6.130269 0-3.385653 2.744614-6.130268 6.130268-6.130268zm211.494253 0c3.385653 0 6.130268 2.744615 6.130268 6.130268 0 3.385654-2.744615 6.130269-6.130268 6.130269-3.385654 0-6.130269-2.744615-6.130269-6.130269 0-3.385653 2.744615-6.130268 6.130269-6.130268zm35.249042-35.249042c3.385653 0 6.130268 2.744615 6.130268 6.130268 0 3.385654-2.744615 6.130268-6.130268 6.130268-3.385654 0-6.130268-2.744614-6.130268-6.130268 0-3.385653 2.744614-6.130268 6.130268-6.130268zm-105.747127 0c3.385654 0 6.130269 2.744615 6.130269 6.130268 0 3.385654-2.744615 6.130268-6.130269 6.130268-3.385653 0-6.130268-2.744614-6.130268-6.130268 0-3.385653 2.744615-6.130268 6.130268-6.130268zm-176.24521 0c3.385653 0 6.130268 2.744615 6.130268 6.130268 0 3.385654-2.744615 6.130268-6.130268 6.130268-3.385654 0-6.130269-2.744614-6.130269-6.130268 0-3.385653 2.744615-6.130268 6.130269-6.130268zm246.743295 0c3.385653 0 6.130268 2.744615 6.130268 6.130268 0 3.385654-2.744615 6.130268-6.130268 6.130268-3.385654 0-6.130269-2.744614-6.130269-6.130268 0-3.385653 2.744615-6.130268 6.130269-6.130268zm-105.747127 0c3.385654 0 6.130268 2.744615 6.130268 6.130268 0 3.385654-2.744614 6.130268-6.130268 6.130268-3.385653 0-6.130268-2.744614-6.130268-6.130268 0-3.385653 2.744615-6.130268 6.130268-6.130268zm-211.4942527 0c3.3856537 0 6.1302682 2.744615 6.1302682 6.130268 0 3.385654-2.7446145 6.130268-6.1302682 6.130268-3.3856536 0-6.1302682-2.744614-6.1302682-6.130268 0-3.385653 2.7446146-6.130268 6.1302682-6.130268zm-35.2490421 0c3.3856536 0 6.1302682 2.744615 6.1302682 6.130268 0 3.385654-2.7446146 6.130268-6.1302682 6.130268s-6.1302682-2.744614-6.1302682-6.130268c0-3.385653 2.7446146-6.130268 6.1302682-6.130268zm317.2413798 0c3.385653 0 6.130268 2.744615 6.130268 6.130268 0 3.385654-2.744615 6.130268-6.130268 6.130268-3.385654 0-6.130269-2.744614-6.130269-6.130268 0-3.385653 2.744615-6.130268 6.130269-6.130268zm-105.747127 0c3.385654 0 6.130268 2.744615 6.130268 6.130268 0 3.385654-2.744614 6.130268-6.130268 6.130268s-6.130268-2.744614-6.130268-6.130268c0-3.385653 2.744614-6.130268 6.130268-6.130268zm-70.498084 0c3.385653 0 6.130268 2.744615 6.130268 6.130268 0 3.385654-2.744615 6.130268-6.130268 6.130268-3.385654 0-6.130268-2.744614-6.130268-6.130268 0-3.385653 2.744614-6.130268 6.130268-6.130268zm35.249042 0c3.385654 0 6.130268 2.744615 6.130268 6.130268 0 3.385654-2.744614 6.130268-6.130268 6.130268s-6.130268-2.744614-6.130268-6.130268c0-3.385653 2.744614-6.130268 6.130268-6.130268zm-105.747127 0c3.385654 0 6.130269 2.744615 6.130269 6.130268 0 3.385654-2.744615 6.130268-6.130269 6.130268-3.385653 0-6.130268-2.744614-6.130268-6.130268 0-3.385653 2.744615-6.130268 6.130268-6.130268zm-70.4980838-35.249042c3.3856536 0 6.1302682 2.744614 6.1302682 6.130268s-2.7446146 6.130268-6.1302682 6.130268-6.1302682-2.744614-6.1302682-6.130268 2.7446146-6.130268 6.1302682-6.130268zm35.2490421 0c3.3856537 0 6.1302682 2.744614 6.1302682 6.130268s-2.7446145 6.130268-6.1302682 6.130268c-3.3856536 0-6.1302682-2.744614-6.1302682-6.130268s2.7446146-6.130268 6.1302682-6.130268zm35.2490417 0c3.385654 0 6.130269 2.744614 6.130269 6.130268s-2.744615 6.130268-6.130269 6.130268c-3.385653 0-6.130268-2.744614-6.130268-6.130268s2.744615-6.130268 6.130268-6.130268zm281.992338 0c3.385653 0 6.130268 2.744614 6.130268 6.130268s-2.744615 6.130268-6.130268 6.130268c-3.385654 0-6.130269-2.744614-6.130269-6.130268s2.744615-6.130268 6.130269-6.130268zm35.249042 0c3.385653 0 6.130268 2.744614 6.130268 6.130268s-2.744615 6.130268-6.130268 6.130268c-3.385654 0-6.130268-2.744614-6.130268-6.130268s2.744614-6.130268 6.130268-6.130268zm-105.747127 0c3.385654 0 6.130269 2.744614 6.130269 6.130268s-2.744615 6.130268-6.130269 6.130268c-3.385653 0-6.130268-2.744614-6.130268-6.130268s2.744615-6.130268 6.130268-6.130268zm35.249043 0c3.385653 0 6.130268 2.744614 6.130268 6.130268s-2.744615 6.130268-6.130268 6.130268c-3.385654 0-6.130269-2.744614-6.130269-6.130268s2.744615-6.130268 6.130269-6.130268zm-70.498085 0c3.385654 0 6.130268 2.744614 6.130268 6.130268s-2.744614 6.130268-6.130268 6.130268c-3.385653 0-6.130268-2.744614-6.130268-6.130268s2.744615-6.130268 6.130268-6.130268zm-105.747126 0c3.385653 0 6.130268 2.744614 6.130268 6.130268s-2.744615 6.130268-6.130268 6.130268c-3.385654 0-6.130268-2.744614-6.130268-6.130268s2.744614-6.130268 6.130268-6.130268zm70.498084 0c3.385654 0 6.130268 2.744614 6.130268 6.130268s-2.744614 6.130268-6.130268 6.130268-6.130268-2.744614-6.130268-6.130268 2.744614-6.130268 6.130268-6.130268zm-105.747126 0c3.385653 0 6.130268 2.744614 6.130268 6.130268s-2.744615 6.130268-6.130268 6.130268c-3.385654 0-6.130269-2.744614-6.130269-6.130268s2.744615-6.130268 6.130269-6.130268zm70.498084 0c3.385654 0 6.130268 2.744614 6.130268 6.130268s-2.744614 6.130268-6.130268 6.130268-6.130268-2.744614-6.130268-6.130268 2.744614-6.130268 6.130268-6.130268zm35.249042-35.249042c3.385654 0 6.130268 2.744614 6.130268 6.130268s-2.744614 6.130268-6.130268 6.130268-6.130268-2.744614-6.130268-6.130268 2.744614-6.130268 6.130268-6.130268zm-140.996169 0c3.385654 0 6.130269 2.744614 6.130269 6.130268s-2.744615 6.130268-6.130269 6.130268c-3.385653 0-6.130268-2.744614-6.130268-6.130268s2.744615-6.130268 6.130268-6.130268zm105.747127 0c3.385654 0 6.130268 2.744614 6.130268 6.130268s-2.744614 6.130268-6.130268 6.130268-6.130268-2.744614-6.130268-6.130268 2.744614-6.130268 6.130268-6.130268zm211.494253 0c3.385653 0 6.130268 2.744614 6.130268 6.130268s-2.744615 6.130268-6.130268 6.130268c-3.385654 0-6.130268-2.744614-6.130268-6.130268s2.744614-6.130268 6.130268-6.130268zm-352.4904217 0c3.3856537 0 6.1302682 2.744614 6.1302682 6.130268s-2.7446145 6.130268-6.1302682 6.130268c-3.3856536 0-6.1302682-2.744614-6.1302682-6.130268s2.7446146-6.130268 6.1302682-6.130268zm-35.2490421 0c3.3856536 0 6.1302682 2.744614 6.1302682 6.130268s-2.7446146 6.130268-6.1302682 6.130268-6.1302682-2.744614-6.1302682-6.130268 2.7446146-6.130268 6.1302682-6.130268zm105.7471268 0c3.385653 0 6.130268 2.744614 6.130268 6.130268s-2.744615 6.130268-6.130268 6.130268c-3.385654 0-6.130269-2.744614-6.130269-6.130268s2.744615-6.130268 6.130269-6.130268zm140.996168 0c3.385654 0 6.130268 2.744614 6.130268 6.130268s-2.744614 6.130268-6.130268 6.130268c-3.385653 0-6.130268-2.744614-6.130268-6.130268s2.744615-6.130268 6.130268-6.130268zm-105.747126 0c3.385653 0 6.130268 2.744614 6.130268 6.130268s-2.744615 6.130268-6.130268 6.130268c-3.385654 0-6.130268-2.744614-6.130268-6.130268s2.744614-6.130268 6.130268-6.130268zm176.245211 0c3.385653 0 6.130268 2.744614 6.130268 6.130268s-2.744615 6.130268-6.130268 6.130268c-3.385654 0-6.130269-2.744614-6.130269-6.130268s2.744615-6.130268 6.130269-6.130268zm35.249042 0c3.385653 0 6.130268 2.744614 6.130268 6.130268s-2.744615 6.130268-6.130268 6.130268c-3.385654 0-6.130269-2.744614-6.130269-6.130268s2.744615-6.130268 6.130269-6.130268zm-70.498085 0c3.385654 0 6.130269 2.744614 6.130269 6.130268s-2.744615 6.130268-6.130269 6.130268c-3.385653 0-6.130268-2.744614-6.130268-6.130268s2.744615-6.130268 6.130268-6.130268zm-140.996168-35.249042c3.385653 0 6.130268 2.744614 6.130268 6.130268 0 3.385653-2.744615 6.130268-6.130268 6.130268-3.385654 0-6.130268-2.744615-6.130268-6.130268 0-3.385654 2.744614-6.130268 6.130268-6.130268zm176.245211 0c3.385653 0 6.130268 2.744614 6.130268 6.130268 0 3.385653-2.744615 6.130268-6.130268 6.130268-3.385654 0-6.130269-2.744615-6.130269-6.130268 0-3.385654 2.744615-6.130268 6.130269-6.130268zm35.249042 0c3.385653 0 6.130268 2.744614 6.130268 6.130268 0 3.385653-2.744615 6.130268-6.130268 6.130268-3.385654 0-6.130269-2.744615-6.130269-6.130268 0-3.385654 2.744615-6.130268 6.130269-6.130268zm-176.245211 0c3.385654 0 6.130268 2.744614 6.130268 6.130268 0 3.385653-2.744614 6.130268-6.130268 6.130268s-6.130268-2.744615-6.130268-6.130268c0-3.385654 2.744614-6.130268 6.130268-6.130268zm-176.2452108 0c3.3856536 0 6.1302682 2.744614 6.1302682 6.130268 0 3.385653-2.7446146 6.130268-6.1302682 6.130268s-6.1302682-2.744615-6.1302682-6.130268c0-3.385654 2.7446146-6.130268 6.1302682-6.130268zm387.7394638 0c3.385653 0 6.130268 2.744614 6.130268 6.130268 0 3.385653-2.744615 6.130268-6.130268 6.130268-3.385654 0-6.130268-2.744615-6.130268-6.130268 0-3.385654 2.744614-6.130268 6.130268-6.130268zm-281.992337 0c3.385653 0 6.130268 2.744614 6.130268 6.130268 0 3.385653-2.744615 6.130268-6.130268 6.130268-3.385654 0-6.130269-2.744615-6.130269-6.130268 0-3.385654 2.744615-6.130268 6.130269-6.130268zm-70.4980847 0c3.3856537 0 6.1302682 2.744614 6.1302682 6.130268 0 3.385653-2.7446145 6.130268-6.1302682 6.130268-3.3856536 0-6.1302682-2.744615-6.1302682-6.130268 0-3.385654 2.7446146-6.130268 6.1302682-6.130268zm246.7432947 0c3.385654 0 6.130269 2.744614 6.130269 6.130268 0 3.385653-2.744615 6.130268-6.130269 6.130268-3.385653 0-6.130268-2.744615-6.130268-6.130268 0-3.385654 2.744615-6.130268 6.130268-6.130268zm-70.498084 0c3.385654 0 6.130268 2.744614 6.130268 6.130268 0 3.385653-2.744614 6.130268-6.130268 6.130268s-6.130268-2.744615-6.130268-6.130268c0-3.385654 2.744614-6.130268 6.130268-6.130268zm-140.996169 0c3.385654 0 6.130269 2.744614 6.130269 6.130268 0 3.385653-2.744615 6.130268-6.130269 6.130268-3.385653 0-6.130268-2.744615-6.130268-6.130268 0-3.385654 2.744615-6.130268 6.130268-6.130268zm176.245211 0c3.385654 0 6.130268 2.744614 6.130268 6.130268 0 3.385653-2.744614 6.130268-6.130268 6.130268-3.385653 0-6.130268-2.744615-6.130268-6.130268 0-3.385654 2.744615-6.130268 6.130268-6.130268zm-35.249042-35.249043c3.385654 0 6.130268 2.744615 6.130268 6.130269 0 3.385653-2.744614 6.130268-6.130268 6.130268s-6.130268-2.744615-6.130268-6.130268c0-3.385654 2.744614-6.130269 6.130268-6.130269zm-140.996169 0c3.385654 0 6.130269 2.744615 6.130269 6.130269 0 3.385653-2.744615 6.130268-6.130269 6.130268-3.385653 0-6.130268-2.744615-6.130268-6.130268 0-3.385654 2.744615-6.130269 6.130268-6.130269zm70.498085 0c3.385653 0 6.130268 2.744615 6.130268 6.130269 0 3.385653-2.744615 6.130268-6.130268 6.130268-3.385654 0-6.130268-2.744615-6.130268-6.130268 0-3.385654 2.744614-6.130269 6.130268-6.130269zm-105.7471267 0c3.3856537 0 6.1302682 2.744615 6.1302682 6.130269 0 3.385653-2.7446145 6.130268-6.1302682 6.130268-3.3856536 0-6.1302682-2.744615-6.1302682-6.130268 0-3.385654 2.7446146-6.130269 6.1302682-6.130269zm140.9961687 0c3.385654 0 6.130268 2.744615 6.130268 6.130269 0 3.385653-2.744614 6.130268-6.130268 6.130268s-6.130268-2.744615-6.130268-6.130268c0-3.385654 2.744614-6.130269 6.130268-6.130269zm211.494253 0c3.385653 0 6.130268 2.744615 6.130268 6.130269 0 3.385653-2.744615 6.130268-6.130268 6.130268-3.385654 0-6.130268-2.744615-6.130268-6.130268 0-3.385654 2.744614-6.130269 6.130268-6.130269zm-35.249042 0c3.385653 0 6.130268 2.744615 6.130268 6.130269 0 3.385653-2.744615 6.130268-6.130268 6.130268-3.385654 0-6.130269-2.744615-6.130269-6.130268 0-3.385654 2.744615-6.130269 6.130269-6.130269zm-352.4904218 0c3.3856536 0 6.1302682 2.744615 6.1302682 6.130269 0 3.385653-2.7446146 6.130268-6.1302682 6.130268s-6.1302682-2.744615-6.1302682-6.130268c0-3.385654 2.7446146-6.130269 6.1302682-6.130269zm281.9923368 0c3.385654 0 6.130269 2.744615 6.130269 6.130269 0 3.385653-2.744615 6.130268-6.130269 6.130268-3.385653 0-6.130268-2.744615-6.130268-6.130268 0-3.385654 2.744615-6.130269 6.130268-6.130269zm-35.249042 0c3.385654 0 6.130268 2.744615 6.130268 6.130269 0 3.385653-2.744614 6.130268-6.130268 6.130268-3.385653 0-6.130268-2.744615-6.130268-6.130268 0-3.385654 2.744615-6.130269 6.130268-6.130269zm-140.996168 0c3.385653 0 6.130268 2.744615 6.130268 6.130269 0 3.385653-2.744615 6.130268-6.130268 6.130268-3.385654 0-6.130269-2.744615-6.130269-6.130268 0-3.385654 2.744615-6.130269 6.130269-6.130269zm211.494253 0c3.385653 0 6.130268 2.744615 6.130268 6.130269 0 3.385653-2.744615 6.130268-6.130268 6.130268-3.385654 0-6.130269-2.744615-6.130269-6.130268 0-3.385654 2.744615-6.130269 6.130269-6.130269zm-176.245211-35.249042c3.385653 0 6.130268 2.744615 6.130268 6.130268 0 3.385654-2.744615 6.130269-6.130268 6.130269-3.385654 0-6.130268-2.744615-6.130268-6.130269 0-3.385653 2.744614-6.130268 6.130268-6.130268zm-140.9961688 0c3.3856536 0 6.1302682 2.744615 6.1302682 6.130268 0 3.385654-2.7446146 6.130269-6.1302682 6.130269s-6.1302682-2.744615-6.1302682-6.130269c0-3.385653 2.7446146-6.130268 6.1302682-6.130268zm387.7394638 0c3.385653 0 6.130268 2.744615 6.130268 6.130268 0 3.385654-2.744615 6.130269-6.130268 6.130269-3.385654 0-6.130268-2.744615-6.130268-6.130269 0-3.385653 2.744614-6.130268 6.130268-6.130268zm-352.4904217 0c3.3856537 0 6.1302682 2.744615 6.1302682 6.130268 0 3.385654-2.7446145 6.130269-6.1302682 6.130269-3.3856536 0-6.1302682-2.744615-6.1302682-6.130269 0-3.385653 2.7446146-6.130268 6.1302682-6.130268zm35.2490417 0c3.385654 0 6.130269 2.744615 6.130269 6.130268 0 3.385654-2.744615 6.130269-6.130269 6.130269-3.385653 0-6.130268-2.744615-6.130268-6.130269 0-3.385653 2.744615-6.130268 6.130268-6.130268zm281.992338 0c3.385653 0 6.130268 2.744615 6.130268 6.130268 0 3.385654-2.744615 6.130269-6.130268 6.130269-3.385654 0-6.130269-2.744615-6.130269-6.130269 0-3.385653 2.744615-6.130268 6.130269-6.130268zm-105.747127 0c3.385654 0 6.130268 2.744615 6.130268 6.130268 0 3.385654-2.744614 6.130269-6.130268 6.130269-3.385653 0-6.130268-2.744615-6.130268-6.130269 0-3.385653 2.744615-6.130268 6.130268-6.130268zm-140.996168 0c3.385653 0 6.130268 2.744615 6.130268 6.130268 0 3.385654-2.744615 6.130269-6.130268 6.130269-3.385654 0-6.130269-2.744615-6.130269-6.130269 0-3.385653 2.744615-6.130268 6.130269-6.130268zm70.498084 0c3.385654 0 6.130268 2.744615 6.130268 6.130268 0 3.385654-2.744614 6.130269-6.130268 6.130269s-6.130268-2.744615-6.130268-6.130269c0-3.385653 2.744614-6.130268 6.130268-6.130268zm105.747126 0c3.385654 0 6.130269 2.744615 6.130269 6.130268 0 3.385654-2.744615 6.130269-6.130269 6.130269-3.385653 0-6.130268-2.744615-6.130268-6.130269 0-3.385653 2.744615-6.130268 6.130268-6.130268zm35.249043 0c3.385653 0 6.130268 2.744615 6.130268 6.130268 0 3.385654-2.744615 6.130269-6.130268 6.130269-3.385654 0-6.130269-2.744615-6.130269-6.130269 0-3.385653 2.744615-6.130268 6.130269-6.130268zm-105.747127 0c3.385654 0 6.130268 2.744615 6.130268 6.130268 0 3.385654-2.744614 6.130269-6.130268 6.130269s-6.130268-2.744615-6.130268-6.130269c0-3.385653 2.744614-6.130268 6.130268-6.130268zm-176.2452107-35.2490419c3.3856537 0 6.1302682 2.7446146 6.1302682 6.1302682 0 3.3856537-2.7446145 6.1302682-6.1302682 6.1302682-3.3856536 0-6.1302682-2.7446145-6.1302682-6.1302682 0-3.3856536 2.7446146-6.1302682 6.1302682-6.1302682zm211.4942527 0c3.385654 0 6.130268 2.7446146 6.130268 6.1302682 0 3.3856537-2.744614 6.1302682-6.130268 6.1302682-3.385653 0-6.130268-2.7446145-6.130268-6.1302682 0-3.3856536 2.744615-6.1302682 6.130268-6.1302682zm140.996169 0c3.385653 0 6.130268 2.7446146 6.130268 6.1302682 0 3.3856537-2.744615 6.1302682-6.130268 6.1302682-3.385654 0-6.130268-2.7446145-6.130268-6.1302682 0-3.3856536 2.744614-6.1302682 6.130268-6.1302682zm-281.992337 0c3.385653 0 6.130268 2.7446146 6.130268 6.1302682 0 3.3856537-2.744615 6.1302682-6.130268 6.1302682-3.385654 0-6.130269-2.7446145-6.130269-6.1302682 0-3.3856536 2.744615-6.1302682 6.130269-6.1302682zm246.743295 0c3.385653 0 6.130268 2.7446146 6.130268 6.1302682 0 3.3856537-2.744615 6.1302682-6.130268 6.1302682-3.385654 0-6.130269-2.7446145-6.130269-6.1302682 0-3.3856536 2.744615-6.1302682 6.130269-6.1302682zm-281.992338 0c3.385654 0 6.130269 2.7446146 6.130269 6.1302682 0 3.3856537-2.744615 6.1302682-6.130269 6.1302682-3.385653 0-6.130268-2.7446145-6.130268-6.1302682 0-3.3856536 2.744615-6.1302682 6.130268-6.1302682zm211.494253 0c3.385654 0 6.130269 2.7446146 6.130269 6.1302682 0 3.3856537-2.744615 6.1302682-6.130269 6.1302682-3.385653 0-6.130268-2.7446145-6.130268-6.1302682 0-3.3856536 2.744615-6.1302682 6.130268-6.1302682zm-105.747126 0c3.385654 0 6.130268 2.7446146 6.130268 6.1302682 0 3.3856537-2.744614 6.1302682-6.130268 6.1302682s-6.130268-2.7446145-6.130268-6.1302682c0-3.3856536 2.744614-6.1302682 6.130268-6.1302682zm-35.249042 0c3.385653 0 6.130268 2.7446146 6.130268 6.1302682 0 3.3856537-2.744615 6.1302682-6.130268 6.1302682-3.385654 0-6.130268-2.7446145-6.130268-6.1302682 0-3.3856536 2.744614-6.1302682 6.130268-6.1302682zm176.245211 0c3.385653 0 6.130268 2.7446146 6.130268 6.1302682 0 3.3856537-2.744615 6.1302682-6.130268 6.1302682-3.385654 0-6.130269-2.7446145-6.130269-6.1302682 0-3.3856536 2.744615-6.1302682 6.130269-6.1302682zm-317.2413798 0c3.3856536 0 6.1302682 2.7446146 6.1302682 6.1302682 0 3.3856537-2.7446146 6.1302682-6.1302682 6.1302682s-6.1302682-2.7446145-6.1302682-6.1302682c0-3.3856536 2.7446146-6.1302682 6.1302682-6.1302682zm211.4942528 0c3.385654 0 6.130268 2.7446146 6.130268 6.1302682 0 3.3856537-2.744614 6.1302682-6.130268 6.1302682s-6.130268-2.7446145-6.130268-6.1302682c0-3.3856536 2.744614-6.1302682 6.130268-6.1302682zm-211.4942528-35.2490421c3.3856536 0 6.1302682 2.7446146 6.1302682 6.1302682s-2.7446146 6.1302682-6.1302682 6.1302682-6.1302682-2.7446146-6.1302682-6.1302682 2.7446146-6.1302682 6.1302682-6.1302682zm35.2490421 0c3.3856537 0 6.1302682 2.7446146 6.1302682 6.1302682s-2.7446145 6.1302682-6.1302682 6.1302682c-3.3856536 0-6.1302682-2.7446146-6.1302682-6.1302682s2.7446146-6.1302682 6.1302682-6.1302682zm35.2490417 0c3.385654 0 6.130269 2.7446146 6.130269 6.1302682s-2.744615 6.1302682-6.130269 6.1302682c-3.385653 0-6.130268-2.7446146-6.130268-6.1302682s2.744615-6.1302682 6.130268-6.1302682zm35.249043 0c3.385653 0 6.130268 2.7446146 6.130268 6.1302682s-2.744615 6.1302682-6.130268 6.1302682c-3.385654 0-6.130269-2.7446146-6.130269-6.1302682s2.744615-6.1302682 6.130269-6.1302682zm35.249042 0c3.385653 0 6.130268 2.7446146 6.130268 6.1302682s-2.744615 6.1302682-6.130268 6.1302682c-3.385654 0-6.130268-2.7446146-6.130268-6.1302682s2.744614-6.1302682 6.130268-6.1302682zm35.249042 0c3.385654 0 6.130268 2.7446146 6.130268 6.1302682s-2.744614 6.1302682-6.130268 6.1302682-6.130268-2.7446146-6.130268-6.1302682 2.744614-6.1302682 6.130268-6.1302682zm35.249042 0c3.385654 0 6.130268 2.7446146 6.130268 6.1302682s-2.744614 6.1302682-6.130268 6.1302682-6.130268-2.7446146-6.130268-6.1302682 2.744614-6.1302682 6.130268-6.1302682zm35.249042 0c3.385654 0 6.130268 2.7446146 6.130268 6.1302682s-2.744614 6.1302682-6.130268 6.1302682c-3.385653 0-6.130268-2.7446146-6.130268-6.1302682s2.744615-6.1302682 6.130268-6.1302682zm35.249042 0c3.385654 0 6.130269 2.7446146 6.130269 6.1302682s-2.744615 6.1302682-6.130269 6.1302682c-3.385653 0-6.130268-2.7446146-6.130268-6.1302682s2.744615-6.1302682 6.130268-6.1302682zm35.249043 0c3.385653 0 6.130268 2.7446146 6.130268 6.1302682s-2.744615 6.1302682-6.130268 6.1302682c-3.385654 0-6.130269-2.7446146-6.130269-6.1302682s2.744615-6.1302682 6.130269-6.1302682zm35.249042 0c3.385653 0 6.130268 2.7446146 6.130268 6.1302682s-2.744615 6.1302682-6.130268 6.1302682c-3.385654 0-6.130269-2.7446146-6.130269-6.1302682s2.744615-6.1302682 6.130269-6.1302682zm35.249042 0c3.385653 0 6.130268 2.7446146 6.130268 6.1302682s-2.744615 6.1302682-6.130268 6.1302682c-3.385654 0-6.130268-2.7446146-6.130268-6.1302682s2.744614-6.1302682 6.130268-6.1302682z" fill="url(#b)" transform="matrix(.87461971 .48480962 -.48480962 .87461971 1224.327266 299.861727)"/><circle cx="575" cy="221" opacity=".8" r="215" stroke="url(#c)" stroke-width="12"/><circle cx="1234" cy="236" r="46" stroke="#fff" stroke-width="8"/><circle cx="542" cy="629" opacity=".503" r="23" stroke="#512da8" stroke-width="4"/><path d="m1386.5 51.5.25 269.75" opacity=".4" stroke="url(#d)" stroke-linecap="round" stroke-linejoin="round" stroke-width="4"/><path d="m1501.88709 532.046109 6.02419 225.842217" opacity=".2" stroke="#1851be" stroke-linecap="square" transform="matrix(-.68800001 -.72571068 .72571068 -.68800001 2072.434213 2180.829932)"/><g stroke-linecap="round" stroke-linejoin="round" stroke-width="4"><path d="m980.25 743.75-1.031176 446.49939" stroke="url(#e)" transform="matrix(.76456154 -.64455074 .64455074 .76456154 -392.613499 859.157272)"/><path d="m529.5 537.5-528.625-.375" stroke="url(#f)"/></g></g></svg>