<svg height="1042" viewBox="0 0 1339 1042" width="1339" xmlns="http://www.w3.org/2000/svg" xmlns:xlink="http://www.w3.org/1999/xlink"><linearGradient id="a" x1="50.007%" x2="50.007%" y1="-141.4%" y2="-47.015%"><stop offset="0" stop-color="#2a6cbe"/><stop offset=".38688" stop-color="#2062bc"/><stop offset=".49182" stop-color="#1f5fbc"/><stop offset=".66583" stop-color="#1c5abd"/><stop offset=".85354" stop-color="#1956bc"/><stop offset="1" stop-color="#1851be"/></linearGradient><linearGradient id="b"><stop offset="0" stop-color="#bcc4cf" stop-opacity="0"/><stop offset="1" stop-color="#8792a2"/></linearGradient><linearGradient id="c" x1="88.457%" x2="88.457%" xlink:href="#b" y1="0%" y2="88.828%"/><linearGradient id="d" x1="88.457%" x2="5.717%" xlink:href="#b" y1="0%" y2="0%"/><g fill="none" fill-rule="evenodd" transform="matrix(-.76604444 .64278761 -.64278761 -.76604444 1488.531223 690.438942)"><path d="m272.030651 484.67433c4.232067 0 7.662836 3.430768 7.662836 7.662835s-3.430769 7.662835-7.662836 7.662835-7.662835-3.430768-7.662835-7.662835 3.430768-7.662835 7.662835-7.662835zm44.061303 0c4.232067 0 7.662835 3.430768 7.662835 7.662835s-3.430768 7.662835-7.662835 7.662835-7.662835-3.430768-7.662835-7.662835 3.430768-7.662835 7.662835-7.662835zm44.061303 0c4.232067 0 7.662835 3.430768 7.662835 7.662835s-3.430768 7.662835-7.662835 7.662835-7.662836-3.430768-7.662836-7.662835 3.430769-7.662835 7.662836-7.662835zm44.061302 0c4.232067 0 7.662836 3.430768 7.662836 7.662835s-3.430769 7.662835-7.662836 7.662835-7.662835-3.430768-7.662835-7.662835 3.430768-7.662835 7.662835-7.662835zm44.061303 0c4.232067 0 7.662835 3.430768 7.662835 7.662835s-3.430768 7.662835-7.662835 7.662835-7.662835-3.430768-7.662835-7.662835 3.430768-7.662835 7.662835-7.662835zm44.061303 0c4.232067 0 7.662835 3.430768 7.662835 7.662835s-3.430768 7.662835-7.662835 7.662835-7.662835-3.430768-7.662835-7.662835 3.430768-7.662835 7.662835-7.662835zm-484.67432975 0c4.23206705 0 7.66283525 3.430768 7.66283525 7.662835s-3.4307682 7.662835-7.66283525 7.662835-7.66283525-3.430768-7.66283525-7.662835 3.4307682-7.662835 7.66283525-7.662835zm44.06130265 0c4.2320671 0 7.6628353 3.430768 7.6628353 7.662835s-3.4307682 7.662835-7.6628353 7.662835c-4.232067 0-7.6628352-3.430768-7.6628352-7.662835s3.4307682-7.662835 7.6628352-7.662835zm44.0613027 0c4.2320674 0 7.6628354 3.430768 7.6628354 7.662835s-3.430768 7.662835-7.6628354 7.662835c-4.232067 0-7.6628352-3.430768-7.6628352-7.662835s3.4307682-7.662835 7.6628352-7.662835zm44.0613024 0c4.232067 0 7.662836 3.430768 7.662836 7.662835s-3.430769 7.662835-7.662836 7.662835-7.662835-3.430768-7.662835-7.662835 3.430768-7.662835 7.662835-7.662835zm44.061303 0c4.232067 0 7.662835 3.430768 7.662835 7.662835s-3.430768 7.662835-7.662835 7.662835-7.662835-3.430768-7.662835-7.662835 3.430768-7.662835 7.662835-7.662835zm44.061303 0c4.232067 0 7.662835 3.430768 7.662835 7.662835s-3.430768 7.662835-7.662835 7.662835-7.662836-3.430768-7.662836-7.662835 3.430769-7.662835 7.662836-7.662835zm-220.30651375-44.061303c4.23206705 0 7.66283525 3.430768 7.66283525 7.662835s-3.4307682 7.662835-7.66283525 7.662835-7.66283525-3.430768-7.66283525-7.662835 3.4307682-7.662835 7.66283525-7.662835zm44.06130265 0c4.2320671 0 7.6628353 3.430768 7.6628353 7.662835s-3.4307682 7.662835-7.6628353 7.662835c-4.232067 0-7.6628352-3.430768-7.6628352-7.662835s3.4307682-7.662835 7.6628352-7.662835zm44.0613027 0c4.2320674 0 7.6628354 3.430768 7.6628354 7.662835s-3.430768 7.662835-7.6628354 7.662835c-4.232067 0-7.6628352-3.430768-7.6628352-7.662835s3.4307682-7.662835 7.6628352-7.662835zm308.4291184 0c4.232067 0 7.662836 3.430768 7.662836 7.662835s-3.430769 7.662835-7.662836 7.662835-7.662835-3.430768-7.662835-7.662835 3.430768-7.662835 7.662835-7.662835zm44.061303 0c4.232067 0 7.662835 3.430768 7.662835 7.662835s-3.430768 7.662835-7.662835 7.662835-7.662835-3.430768-7.662835-7.662835 3.430768-7.662835 7.662835-7.662835zm44.061303 0c4.232067 0 7.662835 3.430768 7.662835 7.662835s-3.430768 7.662835-7.662835 7.662835-7.662835-3.430768-7.662835-7.662835 3.430768-7.662835 7.662835-7.662835zm-352.490422 0c4.232067 0 7.662836 3.430768 7.662836 7.662835s-3.430769 7.662835-7.662836 7.662835-7.662835-3.430768-7.662835-7.662835 3.430768-7.662835 7.662835-7.662835zm44.061303 0c4.232067 0 7.662835 3.430768 7.662835 7.662835s-3.430768 7.662835-7.662835 7.662835-7.662835-3.430768-7.662835-7.662835 3.430768-7.662835 7.662835-7.662835zm44.061303 0c4.232067 0 7.662835 3.430768 7.662835 7.662835s-3.430768 7.662835-7.662835 7.662835-7.662836-3.430768-7.662836-7.662835 3.430769-7.662835 7.662836-7.662835zm44.061302 0c4.232067 0 7.662836 3.430768 7.662836 7.662835s-3.430769 7.662835-7.662836 7.662835-7.662835-3.430768-7.662835-7.662835 3.430768-7.662835 7.662835-7.662835zm44.061303 0c4.232067 0 7.662835 3.430768 7.662835 7.662835s-3.430768 7.662835-7.662835 7.662835-7.662835-3.430768-7.662835-7.662835 3.430768-7.662835 7.662835-7.662835zm44.061303 0c4.232067 0 7.662835 3.430768 7.662835 7.662835s-3.430768 7.662835-7.662835 7.662835-7.662836-3.430768-7.662836-7.662835 3.430769-7.662835 7.662836-7.662835zm44.061302-44.061303c4.232067 0 7.662836 3.430768 7.662836 7.662835s-3.430769 7.662836-7.662836 7.662836-7.662835-3.430769-7.662835-7.662836 3.430768-7.662835 7.662835-7.662835zm-88.122605 0c4.232067 0 7.662835 3.430768 7.662835 7.662835s-3.430768 7.662836-7.662835 7.662836-7.662835-3.430769-7.662835-7.662836 3.430768-7.662835 7.662835-7.662835zm132.183908 0c4.232067 0 7.662835 3.430768 7.662835 7.662835s-3.430768 7.662836-7.662835 7.662836-7.662835-3.430769-7.662835-7.662836 3.430768-7.662835 7.662835-7.662835zm-308.429119 0c4.232067 0 7.662836 3.430768 7.662836 7.662835s-3.430769 7.662836-7.662836 7.662836-7.662835-3.430769-7.662835-7.662836 3.430768-7.662835 7.662835-7.662835zm-132.18390775 0c4.23206705 0 7.66283525 3.430768 7.66283525 7.662835s-3.4307682 7.662836-7.66283525 7.662836-7.66283525-3.430769-7.66283525-7.662836 3.4307682-7.662835 7.66283525-7.662835zm176.24521075 0c4.232067 0 7.662835 3.430768 7.662835 7.662835s-3.430768 7.662836-7.662835 7.662836-7.662835-3.430769-7.662835-7.662836 3.430768-7.662835 7.662835-7.662835zm176.245211 0c4.232067 0 7.662835 3.430768 7.662835 7.662835s-3.430768 7.662836-7.662835 7.662836-7.662836-3.430769-7.662836-7.662836 3.430769-7.662835 7.662836-7.662835zm-308.4291191 0c4.2320671 0 7.6628353 3.430768 7.6628353 7.662835s-3.4307682 7.662836-7.6628353 7.662836c-4.232067 0-7.6628352-3.430769-7.6628352-7.662836s3.4307682-7.662835 7.6628352-7.662835zm176.2452111 0c4.232067 0 7.662835 3.430768 7.662835 7.662835s-3.430768 7.662836-7.662835 7.662836-7.662836-3.430769-7.662836-7.662836 3.430769-7.662835 7.662836-7.662835zm44.061302 0c4.232067 0 7.662836 3.430768 7.662836 7.662835s-3.430769 7.662836-7.662836 7.662836-7.662835-3.430769-7.662835-7.662836 3.430768-7.662835 7.662835-7.662835zm220.306514 0c4.232067 0 7.662835 3.430768 7.662835 7.662835s-3.430768 7.662836-7.662835 7.662836-7.662835-3.430769-7.662835-7.662836 3.430768-7.662835 7.662835-7.662835zm-396.5517244 0c4.2320674 0 7.6628354 3.430768 7.6628354 7.662835s-3.430768 7.662836-7.6628354 7.662836c-4.232067 0-7.6628352-3.430769-7.6628352-7.662836s3.4307682-7.662835 7.6628352-7.662835zm-44.0613027-44.061303c4.2320671 0 7.6628353 3.430769 7.6628353 7.662836s-3.4307682 7.662835-7.6628353 7.662835c-4.232067 0-7.6628352-3.430768-7.6628352-7.662835s3.4307682-7.662836 7.6628352-7.662836zm88.1226051 0c4.232067 0 7.662836 3.430769 7.662836 7.662836s-3.430769 7.662835-7.662836 7.662835-7.662835-3.430768-7.662835-7.662835 3.430768-7.662836 7.662835-7.662836zm88.122606 0c4.232067 0 7.662835 3.430769 7.662835 7.662836s-3.430768 7.662835-7.662835 7.662835-7.662836-3.430768-7.662836-7.662835 3.430769-7.662836 7.662836-7.662836zm176.24521 0c4.232067 0 7.662836 3.430769 7.662836 7.662836s-3.430769 7.662835-7.662836 7.662835-7.662835-3.430768-7.662835-7.662835 3.430768-7.662836 7.662835-7.662836zm-132.183908 0c4.232067 0 7.662836 3.430769 7.662836 7.662836s-3.430769 7.662835-7.662836 7.662835-7.662835-3.430768-7.662835-7.662835 3.430768-7.662836 7.662835-7.662836zm88.122606 0c4.232067 0 7.662835 3.430769 7.662835 7.662836s-3.430768 7.662835-7.662835 7.662835-7.662836-3.430768-7.662836-7.662835 3.430769-7.662836 7.662836-7.662836zm-352.49042175 0c4.23206705 0 7.66283525 3.430769 7.66283525 7.662836s-3.4307682 7.662835-7.66283525 7.662835-7.66283525-3.430768-7.66283525-7.662835 3.4307682-7.662836 7.66283525-7.662836zm88.12260535 0c4.2320674 0 7.6628354 3.430769 7.6628354 7.662836s-3.430768 7.662835-7.6628354 7.662835c-4.232067 0-7.6628352-3.430768-7.6628352-7.662835s3.4307682-7.662836 7.6628352-7.662836zm396.5517244 0c4.232067 0 7.662835 3.430769 7.662835 7.662836s-3.430768 7.662835-7.662835 7.662835-7.662835-3.430768-7.662835-7.662835 3.430768-7.662836 7.662835-7.662836zm-176.245211 0c4.232067 0 7.662835 3.430769 7.662835 7.662836s-3.430768 7.662835-7.662835 7.662835-7.662835-3.430768-7.662835-7.662835 3.430768-7.662836 7.662835-7.662836zm-132.183908 0c4.232067 0 7.662835 3.430769 7.662835 7.662836s-3.430768 7.662835-7.662835 7.662835-7.662835-3.430768-7.662835-7.662835 3.430768-7.662836 7.662835-7.662836zm264.367816 0c4.232067 0 7.662835 3.430769 7.662835 7.662836s-3.430768 7.662835-7.662835 7.662835-7.662835-3.430768-7.662835-7.662835 3.430768-7.662836 7.662835-7.662836zm44.061303-44.061302c4.232067 0 7.662835 3.430768 7.662835 7.662835s-3.430768 7.662835-7.662835 7.662835-7.662835-3.430768-7.662835-7.662835 3.430768-7.662835 7.662835-7.662835zm-132.183908 0c4.232067 0 7.662835 3.430768 7.662835 7.662835s-3.430768 7.662835-7.662835 7.662835-7.662836-3.430768-7.662836-7.662835 3.430769-7.662835 7.662836-7.662835zm-220.306514 0c4.232067 0 7.662836 3.430768 7.662836 7.662835s-3.430769 7.662835-7.662836 7.662835-7.662835-3.430768-7.662835-7.662835 3.430768-7.662835 7.662835-7.662835zm308.429119 0c4.232067 0 7.662835 3.430768 7.662835 7.662835s-3.430768 7.662835-7.662835 7.662835-7.662835-3.430768-7.662835-7.662835 3.430768-7.662835 7.662835-7.662835zm-132.183908 0c4.232067 0 7.662835 3.430768 7.662835 7.662835s-3.430768 7.662835-7.662835 7.662835-7.662835-3.430768-7.662835-7.662835 3.430768-7.662835 7.662835-7.662835zm-264.3678161 0c4.2320671 0 7.6628353 3.430768 7.6628353 7.662835s-3.4307682 7.662835-7.6628353 7.662835c-4.232067 0-7.6628352-3.430768-7.6628352-7.662835s3.4307682-7.662835 7.6628352-7.662835zm-44.06130265 0c4.23206705 0 7.66283525 3.430768 7.66283525 7.662835s-3.4307682 7.662835-7.66283525 7.662835-7.66283525-3.430768-7.66283525-7.662835 3.4307682-7.662835 7.66283525-7.662835zm396.55172375 0c4.232067 0 7.662836 3.430768 7.662836 7.662835s-3.430769 7.662835-7.662836 7.662835-7.662835-3.430768-7.662835-7.662835 3.430768-7.662835 7.662835-7.662835zm-132.183908 0c4.232067 0 7.662836 3.430768 7.662836 7.662835s-3.430769 7.662835-7.662836 7.662835-7.662835-3.430768-7.662835-7.662835 3.430768-7.662835 7.662835-7.662835zm-88.122605 0c4.232067 0 7.662835 3.430768 7.662835 7.662835s-3.430768 7.662835-7.662835 7.662835-7.662835-3.430768-7.662835-7.662835 3.430768-7.662835 7.662835-7.662835zm44.061303 0c4.232067 0 7.662835 3.430768 7.662835 7.662835s-3.430768 7.662835-7.662835 7.662835-7.662836-3.430768-7.662836-7.662835 3.430769-7.662835 7.662836-7.662835zm-132.1839084 0c4.2320674 0 7.6628354 3.430768 7.6628354 7.662835s-3.430768 7.662835-7.6628354 7.662835c-4.232067 0-7.6628352-3.430768-7.6628352-7.662835s3.4307682-7.662835 7.6628352-7.662835zm-88.12260535-44.061303c4.23206705 0 7.66283525 3.430768 7.66283525 7.662835s-3.4307682 7.662836-7.66283525 7.662836-7.66283525-3.430769-7.66283525-7.662836 3.4307682-7.662835 7.66283525-7.662835zm44.06130265 0c4.2320671 0 7.6628353 3.430768 7.6628353 7.662835s-3.4307682 7.662836-7.6628353 7.662836c-4.232067 0-7.6628352-3.430769-7.6628352-7.662836s3.4307682-7.662835 7.6628352-7.662835zm44.0613027 0c4.2320674 0 7.6628354 3.430768 7.6628354 7.662835s-3.430768 7.662836-7.6628354 7.662836c-4.232067 0-7.6628352-3.430769-7.6628352-7.662836s3.4307682-7.662835 7.6628352-7.662835zm352.4904214 0c4.232067 0 7.662835 3.430768 7.662835 7.662835s-3.430768 7.662836-7.662835 7.662836-7.662835-3.430769-7.662835-7.662836 3.430768-7.662835 7.662835-7.662835zm44.061303 0c4.232067 0 7.662835 3.430768 7.662835 7.662835s-3.430768 7.662836-7.662835 7.662836-7.662835-3.430769-7.662835-7.662836 3.430768-7.662835 7.662835-7.662835zm-132.183908 0c4.232067 0 7.662835 3.430768 7.662835 7.662835s-3.430768 7.662836-7.662835 7.662836-7.662836-3.430769-7.662836-7.662836 3.430769-7.662835 7.662836-7.662835zm44.061302 0c4.232067 0 7.662836 3.430768 7.662836 7.662835s-3.430769 7.662836-7.662836 7.662836-7.662835-3.430769-7.662835-7.662836 3.430768-7.662835 7.662835-7.662835zm-88.122605 0c4.232067 0 7.662835 3.430768 7.662835 7.662835s-3.430768 7.662836-7.662835 7.662836-7.662835-3.430769-7.662835-7.662836 3.430768-7.662835 7.662835-7.662835zm-132.183908 0c4.232067 0 7.662835 3.430768 7.662835 7.662835s-3.430768 7.662836-7.662835 7.662836-7.662835-3.430769-7.662835-7.662836 3.430768-7.662835 7.662835-7.662835zm88.122605 0c4.232067 0 7.662836 3.430768 7.662836 7.662835s-3.430769 7.662836-7.662836 7.662836-7.662835-3.430769-7.662835-7.662836 3.430768-7.662835 7.662835-7.662835zm-132.183908 0c4.232067 0 7.662836 3.430768 7.662836 7.662835s-3.430769 7.662836-7.662836 7.662836-7.662835-3.430769-7.662835-7.662836 3.430768-7.662835 7.662835-7.662835zm88.122606 0c4.232067 0 7.662835 3.430768 7.662835 7.662835s-3.430768 7.662836-7.662835 7.662836-7.662836-3.430769-7.662836-7.662836 3.430769-7.662835 7.662836-7.662835zm44.061302-44.061303c4.232067 0 7.662836 3.430769 7.662836 7.662836s-3.430769 7.662835-7.662836 7.662835-7.662835-3.430768-7.662835-7.662835 3.430768-7.662836 7.662835-7.662836zm-176.2452104 0c4.2320674 0 7.6628354 3.430769 7.6628354 7.662836s-3.430768 7.662835-7.6628354 7.662835c-4.232067 0-7.6628352-3.430768-7.6628352-7.662835s3.4307682-7.662836 7.6628352-7.662836zm132.1839084 0c4.232067 0 7.662835 3.430769 7.662835 7.662836s-3.430768 7.662835-7.662835 7.662835-7.662836-3.430768-7.662836-7.662835 3.430769-7.662836 7.662836-7.662836zm264.367816 0c4.232067 0 7.662835 3.430769 7.662835 7.662836s-3.430768 7.662835-7.662835 7.662835-7.662835-3.430768-7.662835-7.662835 3.430768-7.662836 7.662835-7.662836zm-440.6130271 0c4.2320671 0 7.6628353 3.430769 7.6628353 7.662836s-3.4307682 7.662835-7.6628353 7.662835c-4.232067 0-7.6628352-3.430768-7.6628352-7.662835s3.4307682-7.662836 7.6628352-7.662836zm-44.06130265 0c4.23206705 0 7.66283525 3.430769 7.66283525 7.662836s-3.4307682 7.662835-7.66283525 7.662835-7.66283525-3.430768-7.66283525-7.662835 3.4307682-7.662836 7.66283525-7.662836zm132.18390775 0c4.232067 0 7.662836 3.430769 7.662836 7.662836s-3.430769 7.662835-7.662836 7.662835-7.662835-3.430768-7.662835-7.662835 3.430768-7.662836 7.662835-7.662836zm176.245211 0c4.232067 0 7.662835 3.430769 7.662835 7.662836s-3.430768 7.662835-7.662835 7.662835-7.662835-3.430768-7.662835-7.662835 3.430768-7.662836 7.662835-7.662836zm-132.183908 0c4.232067 0 7.662835 3.430769 7.662835 7.662836s-3.430768 7.662835-7.662835 7.662835-7.662835-3.430768-7.662835-7.662835 3.430768-7.662836 7.662835-7.662836zm220.306513 0c4.232067 0 7.662836 3.430769 7.662836 7.662836s-3.430769 7.662835-7.662836 7.662835-7.662835-3.430768-7.662835-7.662835 3.430768-7.662836 7.662835-7.662836zm44.061303 0c4.232067 0 7.662835 3.430769 7.662835 7.662836s-3.430768 7.662835-7.662835 7.662835-7.662835-3.430768-7.662835-7.662835 3.430768-7.662836 7.662835-7.662836zm-88.122605 0c4.232067 0 7.662835 3.430769 7.662835 7.662836s-3.430768 7.662835-7.662835 7.662835-7.662836-3.430768-7.662836-7.662835 3.430769-7.662836 7.662836-7.662836zm-176.245211-44.061302c4.232067 0 7.662835 3.430768 7.662835 7.662835s-3.430768 7.662835-7.662835 7.662835-7.662835-3.430768-7.662835-7.662835 3.430768-7.662835 7.662835-7.662835zm220.306513 0c4.232067 0 7.662836 3.430768 7.662836 7.662835s-3.430769 7.662835-7.662836 7.662835-7.662835-3.430768-7.662835-7.662835 3.430768-7.662835 7.662835-7.662835zm44.061303 0c4.232067 0 7.662835 3.430768 7.662835 7.662835s-3.430768 7.662835-7.662835 7.662835-7.662835-3.430768-7.662835-7.662835 3.430768-7.662835 7.662835-7.662835zm-220.306513 0c4.232067 0 7.662835 3.430768 7.662835 7.662835s-3.430768 7.662835-7.662835 7.662835-7.662836-3.430768-7.662836-7.662835 3.430769-7.662835 7.662836-7.662835zm-220.30651375 0c4.23206705 0 7.66283525 3.430768 7.66283525 7.662835s-3.4307682 7.662835-7.66283525 7.662835-7.66283525-3.430768-7.66283525-7.662835 3.4307682-7.662835 7.66283525-7.662835zm484.67432975 0c4.232067 0 7.662835 3.430768 7.662835 7.662835s-3.430768 7.662835-7.662835 7.662835-7.662835-3.430768-7.662835-7.662835 3.430768-7.662835 7.662835-7.662835zm-352.490422 0c4.232067 0 7.662836 3.430768 7.662836 7.662835s-3.430769 7.662835-7.662836 7.662835-7.662835-3.430768-7.662835-7.662835 3.430768-7.662835 7.662835-7.662835zm-88.1226051 0c4.2320671 0 7.6628353 3.430768 7.6628353 7.662835s-3.4307682 7.662835-7.6628353 7.662835c-4.232067 0-7.6628352-3.430768-7.6628352-7.662835s3.4307682-7.662835 7.6628352-7.662835zm308.4291191 0c4.232067 0 7.662835 3.430768 7.662835 7.662835s-3.430768 7.662835-7.662835 7.662835-7.662836-3.430768-7.662836-7.662835 3.430769-7.662835 7.662836-7.662835zm-88.122606 0c4.232067 0 7.662836 3.430768 7.662836 7.662835s-3.430769 7.662835-7.662836 7.662835-7.662835-3.430768-7.662835-7.662835 3.430768-7.662835 7.662835-7.662835zm-176.2452104 0c4.2320674 0 7.6628354 3.430768 7.6628354 7.662835s-3.430768 7.662835-7.6628354 7.662835c-4.232067 0-7.6628352-3.430768-7.6628352-7.662835s3.4307682-7.662835 7.6628352-7.662835zm220.3065134 0c4.232067 0 7.662835 3.430768 7.662835 7.662835s-3.430768 7.662835-7.662835 7.662835-7.662835-3.430768-7.662835-7.662835 3.430768-7.662835 7.662835-7.662835zm-44.061303-44.061303c4.232067 0 7.662836 3.430768 7.662836 7.662835s-3.430769 7.662836-7.662836 7.662836-7.662835-3.430769-7.662835-7.662836 3.430768-7.662835 7.662835-7.662835zm-176.2452104 0c4.2320674 0 7.6628354 3.430768 7.6628354 7.662835s-3.430768 7.662836-7.6628354 7.662836c-4.232067 0-7.6628352-3.430769-7.6628352-7.662836s3.4307682-7.662835 7.6628352-7.662835zm88.1226054 0c4.232067 0 7.662835 3.430768 7.662835 7.662835s-3.430768 7.662836-7.662835 7.662836-7.662835-3.430769-7.662835-7.662836 3.430768-7.662835 7.662835-7.662835zm-132.1839081 0c4.2320671 0 7.6628353 3.430768 7.6628353 7.662835s-3.4307682 7.662836-7.6628353 7.662836c-4.232067 0-7.6628352-3.430769-7.6628352-7.662836s3.4307682-7.662835 7.6628352-7.662835zm176.2452111 0c4.232067 0 7.662835 3.430768 7.662835 7.662835s-3.430768 7.662836-7.662835 7.662836-7.662836-3.430769-7.662836-7.662836 3.430769-7.662835 7.662836-7.662835zm264.367816 0c4.232067 0 7.662835 3.430768 7.662835 7.662835s-3.430768 7.662836-7.662835 7.662836-7.662835-3.430769-7.662835-7.662836 3.430768-7.662835 7.662835-7.662835zm-44.061303 0c4.232067 0 7.662835 3.430768 7.662835 7.662835s-3.430768 7.662836-7.662835 7.662836-7.662835-3.430769-7.662835-7.662836 3.430768-7.662835 7.662835-7.662835zm-440.61302675 0c4.23206705 0 7.66283525 3.430768 7.66283525 7.662835s-3.4307682 7.662836-7.66283525 7.662836-7.66283525-3.430769-7.66283525-7.662836 3.4307682-7.662835 7.66283525-7.662835zm352.49042175 0c4.232067 0 7.662835 3.430768 7.662835 7.662835s-3.430768 7.662836-7.662835 7.662836-7.662836-3.430769-7.662836-7.662836 3.430769-7.662835 7.662836-7.662835zm-44.061303 0c4.232067 0 7.662835 3.430768 7.662835 7.662835s-3.430768 7.662836-7.662835 7.662836-7.662835-3.430769-7.662835-7.662836 3.430768-7.662835 7.662835-7.662835zm-176.245211 0c4.232067 0 7.662836 3.430768 7.662836 7.662835s-3.430769 7.662836-7.662836 7.662836-7.662835-3.430769-7.662835-7.662836 3.430768-7.662835 7.662835-7.662835zm264.367816 0c4.232067 0 7.662836 3.430768 7.662836 7.662835s-3.430769 7.662836-7.662836 7.662836-7.662835-3.430769-7.662835-7.662836 3.430768-7.662835 7.662835-7.662835zm-220.306513-44.0613026c4.232067 0 7.662835 3.4307682 7.662835 7.6628352 0 4.2320674-3.430768 7.6628354-7.662835 7.6628354s-7.662835-3.430768-7.662835-7.6628354c0-4.232067 3.430768-7.6628352 7.662835-7.6628352zm-176.24521075 0c4.23206705 0 7.66283525 3.4307682 7.66283525 7.6628352 0 4.2320674-3.4307682 7.6628354-7.66283525 7.6628354s-7.66283525-3.430768-7.66283525-7.6628354c0-4.232067 3.4307682-7.6628352 7.66283525-7.6628352zm484.67432975 0c4.232067 0 7.662835 3.4307682 7.662835 7.6628352 0 4.2320674-3.430768 7.6628354-7.662835 7.6628354s-7.662835-3.430768-7.662835-7.6628354c0-4.232067 3.430768-7.6628352 7.662835-7.6628352zm-440.6130271 0c4.2320671 0 7.6628353 3.4307682 7.6628353 7.6628352 0 4.2320674-3.4307682 7.6628354-7.6628353 7.6628354-4.232067 0-7.6628352-3.430768-7.6628352-7.6628354 0-4.232067 3.4307682-7.6628352 7.6628352-7.6628352zm44.0613027 0c4.2320674 0 7.6628354 3.4307682 7.6628354 7.6628352 0 4.2320674-3.430768 7.6628354-7.6628354 7.6628354-4.232067 0-7.6628352-3.430768-7.6628352-7.6628354 0-4.232067 3.4307682-7.6628352 7.6628352-7.6628352zm352.4904214 0c4.232067 0 7.662835 3.4307682 7.662835 7.6628352 0 4.2320674-3.430768 7.6628354-7.662835 7.6628354s-7.662835-3.430768-7.662835-7.6628354c0-4.232067 3.430768-7.6628352 7.662835-7.6628352zm-132.183908 0c4.232067 0 7.662835 3.4307682 7.662835 7.6628352 0 4.2320674-3.430768 7.6628354-7.662835 7.6628354s-7.662835-3.430768-7.662835-7.6628354c0-4.232067 3.430768-7.6628352 7.662835-7.6628352zm-176.245211 0c4.232067 0 7.662836 3.4307682 7.662836 7.6628352 0 4.2320674-3.430769 7.6628354-7.662836 7.6628354s-7.662835-3.430768-7.662835-7.6628354c0-4.232067 3.430768-7.6628352 7.662835-7.6628352zm88.122606 0c4.232067 0 7.662835 3.4307682 7.662835 7.6628352 0 4.2320674-3.430768 7.6628354-7.662835 7.6628354s-7.662836-3.430768-7.662836-7.6628354c0-4.232067 3.430769-7.6628352 7.662836-7.6628352zm132.183908 0c4.232067 0 7.662835 3.4307682 7.662835 7.6628352 0 4.2320674-3.430768 7.6628354-7.662835 7.6628354s-7.662836-3.430768-7.662836-7.6628354c0-4.232067 3.430769-7.6628352 7.662836-7.6628352zm44.061302 0c4.232067 0 7.662836 3.4307682 7.662836 7.6628352 0 4.2320674-3.430769 7.6628354-7.662836 7.6628354s-7.662835-3.430768-7.662835-7.6628354c0-4.232067 3.430768-7.6628352 7.662835-7.6628352zm-132.183908 0c4.232067 0 7.662836 3.4307682 7.662836 7.6628352 0 4.2320674-3.430769 7.6628354-7.662836 7.6628354s-7.662835-3.430768-7.662835-7.6628354c0-4.232067 3.430768-7.6628352 7.662835-7.6628352zm-220.3065131-44.0613027c4.2320671 0 7.6628353 3.4307682 7.6628353 7.6628352 0 4.2320671-3.4307682 7.6628353-7.6628353 7.6628353-4.232067 0-7.6628352-3.4307682-7.6628352-7.6628353 0-4.232067 3.4307682-7.6628352 7.6628352-7.6628352zm264.3678161 0c4.232067 0 7.662835 3.4307682 7.662835 7.6628352 0 4.2320671-3.430768 7.6628353-7.662835 7.6628353s-7.662835-3.4307682-7.662835-7.6628353c0-4.232067 3.430768-7.6628352 7.662835-7.6628352zm176.245211 0c4.232067 0 7.662835 3.4307682 7.662835 7.6628352 0 4.2320671-3.430768 7.6628353-7.662835 7.6628353s-7.662835-3.4307682-7.662835-7.6628353c0-4.232067 3.430768-7.6628352 7.662835-7.6628352zm-352.490422 0c4.232067 0 7.662836 3.4307682 7.662836 7.6628352 0 4.2320671-3.430769 7.6628353-7.662836 7.6628353s-7.662835-3.4307682-7.662835-7.6628353c0-4.232067 3.430768-7.6628352 7.662835-7.6628352zm308.429119 0c4.232067 0 7.662835 3.4307682 7.662835 7.6628352 0 4.2320671-3.430768 7.6628353-7.662835 7.6628353s-7.662835-3.4307682-7.662835-7.6628353c0-4.232067 3.430768-7.6628352 7.662835-7.6628352zm-352.4904214 0c4.2320674 0 7.6628354 3.4307682 7.6628354 7.6628352 0 4.2320671-3.430768 7.6628353-7.6628354 7.6628353-4.232067 0-7.6628352-3.4307682-7.6628352-7.6628353 0-4.232067 3.4307682-7.6628352 7.6628352-7.6628352zm264.3678164 0c4.232067 0 7.662835 3.4307682 7.662835 7.6628352 0 4.2320671-3.430768 7.6628353-7.662835 7.6628353s-7.662836-3.4307682-7.662836-7.6628353c0-4.232067 3.430769-7.6628352 7.662836-7.6628352zm-132.183908 0c4.232067 0 7.662835 3.4307682 7.662835 7.6628352 0 4.2320671-3.430768 7.6628353-7.662835 7.6628353s-7.662836-3.4307682-7.662836-7.6628353c0-4.232067 3.430769-7.6628352 7.662836-7.6628352zm-44.061303 0c4.232067 0 7.662835 3.4307682 7.662835 7.6628352 0 4.2320671-3.430768 7.6628353-7.662835 7.6628353s-7.662835-3.4307682-7.662835-7.6628353c0-4.232067 3.430768-7.6628352 7.662835-7.6628352zm220.306513 0c4.232067 0 7.662836 3.4307682 7.662836 7.6628352 0 4.2320671-3.430769 7.6628353-7.662836 7.6628353s-7.662835-3.4307682-7.662835-7.6628353c0-4.232067 3.430768-7.6628352 7.662835-7.6628352zm-396.55172375 0c4.23206705 0 7.66283525 3.4307682 7.66283525 7.6628352 0 4.2320671-3.4307682 7.6628353-7.66283525 7.6628353s-7.66283525-3.4307682-7.66283525-7.6628353c0-4.232067 3.4307682-7.6628352 7.66283525-7.6628352zm264.36781575 0c4.232067 0 7.662836 3.4307682 7.662836 7.6628352 0 4.2320671-3.430769 7.6628353-7.662836 7.6628353s-7.662835-3.4307682-7.662835-7.6628353c0-4.232067 3.430768-7.6628352 7.662835-7.6628352zm-264.36781575-44.0613027c4.23206705 0 7.66283525 3.4307682 7.66283525 7.66283525s-3.4307682 7.66283525-7.66283525 7.66283525-7.66283525-3.4307682-7.66283525-7.66283525 3.4307682-7.66283525 7.66283525-7.66283525zm44.06130265 0c4.2320671 0 7.6628353 3.4307682 7.6628353 7.66283525s-3.4307682 7.66283525-7.6628353 7.66283525c-4.232067 0-7.6628352-3.4307682-7.6628352-7.66283525s3.4307682-7.66283525 7.6628352-7.66283525zm44.0613027 0c4.2320674 0 7.6628354 3.4307682 7.6628354 7.66283525s-3.430768 7.66283525-7.6628354 7.66283525c-4.232067 0-7.6628352-3.4307682-7.6628352-7.66283525s3.4307682-7.66283525 7.6628352-7.66283525zm44.0613024 0c4.232067 0 7.662836 3.4307682 7.662836 7.66283525s-3.430769 7.66283525-7.662836 7.66283525-7.662835-3.4307682-7.662835-7.66283525 3.430768-7.66283525 7.662835-7.66283525zm44.061303 0c4.232067 0 7.662835 3.4307682 7.662835 7.66283525s-3.430768 7.66283525-7.662835 7.66283525-7.662835-3.4307682-7.662835-7.66283525 3.430768-7.66283525 7.662835-7.66283525zm44.061303 0c4.232067 0 7.662835 3.4307682 7.662835 7.66283525s-3.430768 7.66283525-7.662835 7.66283525-7.662836-3.4307682-7.662836-7.66283525 3.430769-7.66283525 7.662836-7.66283525zm44.061302 0c4.232067 0 7.662836 3.4307682 7.662836 7.66283525s-3.430769 7.66283525-7.662836 7.66283525-7.662835-3.4307682-7.662835-7.66283525 3.430768-7.66283525 7.662835-7.66283525zm44.061303 0c4.232067 0 7.662835 3.4307682 7.662835 7.66283525s-3.430768 7.66283525-7.662835 7.66283525-7.662835-3.4307682-7.662835-7.66283525 3.430768-7.66283525 7.662835-7.66283525zm44.061303 0c4.232067 0 7.662835 3.4307682 7.662835 7.66283525s-3.430768 7.66283525-7.662835 7.66283525-7.662836-3.4307682-7.662836-7.66283525 3.430769-7.66283525 7.662836-7.66283525zm44.061302 0c4.232067 0 7.662836 3.4307682 7.662836 7.66283525s-3.430769 7.66283525-7.662836 7.66283525-7.662835-3.4307682-7.662835-7.66283525 3.430768-7.66283525 7.662835-7.66283525zm44.061303 0c4.232067 0 7.662835 3.4307682 7.662835 7.66283525s-3.430768 7.66283525-7.662835 7.66283525-7.662835-3.4307682-7.662835-7.66283525 3.430768-7.66283525 7.662835-7.66283525zm44.061303 0c4.232067 0 7.662835 3.4307682 7.662835 7.66283525s-3.430768 7.66283525-7.662835 7.66283525-7.662835-3.4307682-7.662835-7.66283525 3.430768-7.66283525 7.662835-7.66283525z" fill="#8792a2" opacity=".2" transform="matrix(.70710678 .70710678 -.70710678 .70710678 631.000162 252.69685)"/><g stroke-width="8"><circle cx="125.815" cy="277.154" opacity=".305" r="121" stroke="#8792a2"/><circle cx="770.312" cy="252.709" r="46" stroke="#2a2f45"/><circle cx="331" cy="813.25" r="21" stroke="#2a2f45"/></g><circle cx="984.709" cy="1064.427" r="47" stroke="url(#a)" stroke-width="6"/><path d="m478.25 0-.5 216.5" opacity=".4" stroke="url(#c)" stroke-linecap="round" stroke-linejoin="round" stroke-width="4"/><path d="m934.552929 1205.09794-576.727592-13.19055" opacity=".4" stroke="url(#d)" stroke-linecap="round" stroke-linejoin="round" stroke-width="4" transform="matrix(.99973863 -.02286182 .02286182 .99973863 -27.227557 15.087545)"/></g></svg>