<svg xmlns="http://www.w3.org/2000/svg" width="104" height="105" viewBox="0 0 104 105">
  <g fill="none">
    <path fill="#1475CF" d="M20.8701518,27.0719178 L20.8701518,16.0684932 L42.7925801,16.0684932 L65.767285,51 L65.767285,16.0684932 L86.2866779,16.0684932 L86.2866779,44.0136986 L104,44.0136986 L104,10.6541096 C104,4.71575342 99.2647555,0 93.301855,0 L10.698145,0 C4.73524452,0 0,4.71575342 0,10.6541096 L0,27.0719178 L20.8701518,27.0719178 Z"/>
    <path fill="#1C1275" d="M86.1112985,61.2259136 L86.1112985,88.3156146 L64.8903879,88.3156146 L41.3895447,51 L41.3895447,88.3156146 L20.8701518,88.3156146 L20.8701518,78.627907 L0,78.627907 L0,94.0564784 C0,100.156146 4.73524452,105 10.698145,105 L93.301855,105 C99.2647555,105 104,100.156146 104,94.0564784 L104,61.2259136 L86.1112985,61.2259136 Z"/>
    <polygon fill="#2B40B5" points="20.956 62 28 52.907 20.956 44 0 44 0 62"/>
  </g>
</svg>
