<svg height="105" viewBox="0 0 104 105" width="104" xmlns="http://www.w3.org/2000/svg"><g fill="none"><path d="m20.8701518 27.0719178v-11.0034246h21.9224283l22.9747049 34.9315068v-34.9315068h20.5193929v27.9452054h17.7133221v-33.359589c0-5.93835618-4.7352445-10.6541096-10.698145-10.6541096h-82.60371c-5.96290048 0-10.698145 4.71575342-10.698145 10.6541096v16.4178082z" fill="#1475cf"/><path d="m86.1112985 61.2259136v27.089701h-21.2209106l-23.5008432-37.3156146v37.3156146h-20.5193929v-9.6877076h-20.8701518v15.4285714c0 6.0996676 4.73524452 10.9435216 10.698145 10.9435216h82.60371c5.9629005 0 10.698145-4.843854 10.698145-10.9435216v-32.8305648z" fill="#1c1275"/><path d="m20.956 62 7.044-9.093-7.044-8.907h-20.956v18z" fill="#2b40b5"/></g></svg>