<svg height="1200" width="1124" xmlns="http://www.w3.org/2000/svg" xmlns:xlink="http://www.w3.org/1999/xlink"><defs><path id="a" d="m74 30c2 0 3 1 3 3v19c0 2-1 3-3 3h-71c-2 0-3-1-3-3v-19c0-2 1-3 3-3zm120 0c2 0 3 1 3 3v19c0 2-1 3-3 3h-104c-2 0-3-1-3-3v-19c0-2 1-3 3-3zm159-30c2 0 3 1 3 3v19c0 2-1 3-3 3h-350c-2 0-3-1-3-3v-19c0-2 1-3 3-3z" opacity=".3"/><linearGradient id="b" x1="50%" x2="50%" y1="-141.4%" y2="-47%"><stop offset="0" stop-color="#2a6cbe"/><stop offset=".387" stop-color="#2062bc"/><stop offset=".492" stop-color="#1f5fbc"/><stop offset=".666" stop-color="#1c5abd"/><stop offset=".854" stop-color="#1956bc"/><stop offset="1" stop-color="#1851be"/></linearGradient><linearGradient id="c" x1="50%" x2="50%" y1="0%" y2="100%"><stop offset="0" stop-color="#040f20"/><stop offset="1" stop-color="#000306"/></linearGradient><filter id="d" height="105.1%" width="105.4%" x="-2.7%" y="-2.5%"><feOffset dy="1" in="SourceAlpha" result="shadowOffsetOuter1"/><feGaussianBlur in="shadowOffsetOuter1" result="shadowBlurOuter1" stdDeviation="10"/><feColorMatrix in="shadowBlurOuter1" values="0 0 0 0 0 0 0 0 0 0 0 0 0 0 0 0 0 0 0.18091674 0"/></filter><mask id="e" fill="#fff"><use fill="#fff" fill-rule="evenodd" xlink:href="#f"/></mask><rect id="f" height="1199.4" rx="6" width="1123.8"/></defs><g fill="none" fill-rule="evenodd"><g opacity=".9"><use fill="#000" filter="url(#d)" xlink:href="#f"/><use fill="#fff" xlink:href="#f"/></g><path d="m-6 744h1132v238h-1132z" fill="#f7f7f8" mask="url(#e)"/><path d="m-5 0h1131v745h-1131z" fill="#fff" mask="url(#e)" transform="matrix(-1 0 0 1 1120 0)"/><path d="m0 340h1124v859h-1124z" fill="#fff" mask="url(#e)" transform="matrix(-1 0 0 1 1123 0)"/><path d="m-5 0h1131v116h-1131z" fill="#fff" mask="url(#e)" transform="matrix(-1 0 0 -1 1120 116)"/><path d="m-5 0h1131v42h-1131z" fill="#000306" mask="url(#e)" transform="matrix(-1 0 0 -1 1120 42)"/><g transform="translate(40 138)"><rect fill="url(#b)" height="53.3" rx="5" width="202.2" y=".3"/><g fill="#fff" opacity=".3"><rect height="12.7" rx="3" width="40" x="34" y="21"/><rect height="12.7" rx="3" width="83.1" x="84" y="21"/></g></g><rect height="52" rx="5" stroke="#8792a2" stroke-opacity=".1" stroke-width="2" width="138.1" x="945" y="139"/><g fill="#8792a2"><rect height="12.9" opacity=".2" rx="3" width="31" x="970" y="158.2"/><rect height="12.9" opacity=".2" rx="3" width="48" x="1006.1" y="158.2"/><circle cx="75" cy="280" opacity=".2" r="35"/><g transform="translate(127 247)"><use opacity=".3" xlink:href="#a"/><rect height="46" opacity=".1" rx="3" width="58.1" x="501.1"/><rect height="46" opacity=".1" rx="3" width="57.1" x="415"/><rect height="46" opacity=".1" rx="3" width="57.1" x="588.2"/><rect height="10" opacity=".2" rx="3" width="57.1" x="415" y="56"/><rect height="10" opacity=".2" rx="3" width="57.1" x="502.1" y="56"/><rect height="10" opacity=".2" rx="3" width="57.1" x="588.2" y="56"/><rect height="25" opacity=".3" rx="11.5" width="25" x="758.7"/><rect height="10" opacity=".2" rx="3" width="57.1" x="793.7" y="7"/><rect height="10" opacity=".2" rx="3" width="124.1" x="758.7" y="30"/><rect height="10" opacity=".2" rx="3" width="48" x="887.8" y="30"/><rect height="10" opacity=".2" rx="3" width="53" x="758.7" y="45"/></g><rect height="10" opacity=".2" rx="3" width="16" x="157" y="319"/><rect height="10" opacity=".2" rx="3" width="43" x="178" y="319"/><rect height="10" opacity=".2" rx="3" width="20" x="284.1" y="319"/><rect height="10" opacity=".2" rx="3" width="30" x="314.2" y="319"/><rect height="10" opacity=".2" rx="3" width="10" x="349.2" y="319"/><rect height="20" opacity=".2" rx="10" width="43" x="231.1" y="314"/></g><rect fill="#1851be" height="20" rx="10" width="20" x="127" y="314"/><circle cx="75" cy="399" fill="#8792a2" opacity=".2" r="35"/><g fill="#8792a2" transform="translate(127 366)"><path d="m144 30c2 0 3 1 3 3v19c0 2-1 3-3 3h-141c-2 0-3-1-3-3v-19c0-2 1-3 3-3zm135 0c2 0 3 1 3 3v19c0 2-1 3-3 3h-119c-2 0-3-1-3-3v-19c0-2 1-3 3-3zm74-30c2 0 3 1 3 3v19c0 2-1 3-3 3h-350c-2 0-3-1-3-3v-19c0-2 1-3 3-3z" opacity=".3"/><rect height="46" opacity=".1" rx="3" width="58.1" x="501.1"/><rect height="46" opacity=".1" rx="3" width="57.1" x="415"/><rect height="46" opacity=".1" rx="3" width="57.1" x="588.2"/><rect height="10" opacity=".2" rx="3" width="57.1" x="415" y="56"/><rect height="10" opacity=".2" rx="3" width="57.1" x="502.1" y="56"/><rect height="10" opacity=".2" rx="3" width="57.1" x="588.2" y="56"/><rect height="25" opacity=".3" rx="11.5" width="25" x="758.7"/><rect height="10" opacity=".2" rx="3" width="57.1" x="793.7" y="7"/><rect height="10" opacity=".2" rx="3" width="124.1" x="758.7" y="30"/><rect height="10" opacity=".2" rx="3" width="48" x="887.8" y="30"/><rect height="10" opacity=".2" rx="3" width="53" x="758.7" y="45"/></g><rect fill="#8792a2" height="10" opacity=".2" rx="3" width="16" x="157" y="438"/><rect fill="#8792a2" height="10" opacity=".2" rx="3" width="43" x="178" y="438"/><rect fill="#8792a2" height="10" opacity=".2" rx="3" width="20" x="284.1" y="438"/><rect fill="#8792a2" height="10" opacity=".2" rx="3" width="30" x="314.2" y="438"/><rect fill="#8792a2" height="10" opacity=".2" rx="3" width="10" x="349.2" y="438"/><rect fill="#8792a2" height="20" opacity=".2" rx="10" width="43" x="231.1" y="433"/><rect fill="#1851be" height="20" rx="10" width="20" x="127" y="433"/><circle cx="75" cy="518" fill="#8792a2" opacity=".2" r="35"/><g fill="#8792a2" transform="translate(127 485)"><use opacity=".3" xlink:href="#a"/><rect height="46" opacity=".1" rx="3" width="58.1" x="501.1"/><rect height="46" opacity=".1" rx="3" width="57.1" x="415"/><rect height="46" opacity=".1" rx="3" width="57.1" x="588.2"/><rect height="10" opacity=".2" rx="3" width="57.1" x="415" y="56"/><rect height="10" opacity=".2" rx="3" width="57.1" x="502.1" y="56"/><rect height="10" opacity=".2" rx="3" width="57.1" x="588.2" y="56"/><rect height="25" opacity=".3" rx="11.5" width="25" x="758.7"/><rect height="10" opacity=".2" rx="3" width="57.1" x="793.7" y="7"/><rect height="10" opacity=".2" rx="3" width="124.1" x="758.7" y="30"/><rect height="10" opacity=".2" rx="3" width="48" x="887.8" y="30"/><rect height="10" opacity=".2" rx="3" width="53" x="758.7" y="45"/></g><rect fill="#8792a2" height="10" opacity=".2" rx="3" width="16" x="157" y="557"/><rect fill="#8792a2" height="10" opacity=".2" rx="3" width="43" x="178" y="557"/><rect fill="#8792a2" height="10" opacity=".2" rx="3" width="20" x="284.1" y="557"/><rect fill="#8792a2" height="10" opacity=".2" rx="3" width="30" x="314.2" y="557"/><rect fill="#8792a2" height="10" opacity=".2" rx="3" width="10" x="349.2" y="557"/><rect fill="#8792a2" height="20" opacity=".2" rx="10" width="43" x="231.1" y="552"/><rect fill="#1851be" height="20" rx="10" width="20" x="127" y="552"/><circle cx="75" cy="638" fill="#8792a2" opacity=".2" r="35"/><g fill="#8792a2" transform="translate(127 605)"><path d="m74 30c2 0 3 1 3 3v19c0 2-1 3-3 3h-71c-2 0-3-1-3-3v-19c0-2 1-3 3-3zm230 0c2 0 3 1 3 3v19c0 2-1 3-3 3h-214c-2 0-3-1-3-3v-19c0-2 1-3 3-3zm-18-30c2 0 3 1 3 3v19c0 2-1 3-3 3h-283c-2 0-3-1-3-3v-19c0-2 1-3 3-3z" opacity=".3"/><rect height="46" opacity=".1" rx="3" width="58.1" x="501.1"/><rect height="46" opacity=".1" rx="3" width="57.1" x="415"/><rect height="46" opacity=".1" rx="3" width="57.1" x="588.2"/><rect height="10" opacity=".2" rx="3" width="57.1" x="415" y="56"/><rect height="10" opacity=".2" rx="3" width="57.1" x="502.1" y="56"/><rect height="10" opacity=".2" rx="3" width="57.1" x="588.2" y="56"/><rect height="25" opacity=".3" rx="11.5" width="25" x="758.7"/><rect height="10" opacity=".2" rx="3" width="57.1" x="793.7" y="7"/><rect height="10" opacity=".2" rx="3" width="74.1" x="758.7" y="30"/><rect height="10" opacity=".2" rx="3" width="98.1" x="837.7" y="30"/><rect height="10" opacity=".2" rx="3" width="110.1" x="758.7" y="45"/></g><rect fill="#8792a2" height="10" opacity=".2" rx="3" width="16" x="157" y="677"/><rect fill="#8792a2" height="10" opacity=".2" rx="3" width="43" x="178" y="677"/><rect fill="#8792a2" height="10" opacity=".2" rx="3" width="20" x="284.1" y="677"/><rect fill="#8792a2" height="10" opacity=".2" rx="3" width="30" x="314.2" y="677"/><rect fill="#8792a2" height="10" opacity=".2" rx="3" width="10" x="349.2" y="677"/><rect fill="#8792a2" height="20" opacity=".2" rx="10" width="43" x="231.1" y="672"/><rect fill="#1851be" height="20" rx="10" width="20" x="127" y="672"/><circle cx="75" cy="757" fill="#8792a2" opacity=".2" r="35"/><g fill="#8792a2" transform="translate(127 724)"><use opacity=".3" xlink:href="#a"/><rect height="46" opacity=".1" rx="3" width="58.1" x="501.1"/><rect height="46" opacity=".1" rx="3" width="57.1" x="415"/><rect height="46" opacity=".1" rx="3" width="57.1" x="588.2"/><rect height="10" opacity=".2" rx="3" width="57.1" x="415" y="56"/><rect height="10" opacity=".2" rx="3" width="57.1" x="502.1" y="56"/><rect height="10" opacity=".2" rx="3" width="57.1" x="588.2" y="56"/><rect height="25" opacity=".3" rx="11.5" width="25" x="758.7"/><rect height="10" opacity=".2" rx="3" width="57.1" x="793.7" y="7"/><rect height="10" opacity=".2" rx="3" width="102.1" x="758.7" y="30"/><rect height="10" opacity=".2" rx="3" width="70.1" x="865.8" y="30"/><rect height="10" opacity=".2" rx="3" width="53" x="758.7" y="45"/><rect height="10" opacity=".2" rx="3" width="70.1" x="816.7" y="45"/></g><rect fill="#8792a2" height="10" opacity=".2" rx="3" width="16" x="157" y="796"/><rect fill="#8792a2" height="10" opacity=".2" rx="3" width="43" x="178" y="796"/><rect fill="#8792a2" height="10" opacity=".2" rx="3" width="20" x="284.1" y="796"/><rect fill="#8792a2" height="10" opacity=".2" rx="3" width="30" x="314.2" y="796"/><rect fill="#8792a2" height="10" opacity=".2" rx="3" width="10" x="349.2" y="796"/><rect fill="#8792a2" height="20" opacity=".2" rx="10" width="43" x="231.1" y="791"/><rect fill="#1851be" height="20" rx="10" width="20" x="127" y="791"/><circle cx="75" cy="876" fill="#8792a2" opacity=".2" r="35"/><g fill="#8792a2" transform="translate(127 843)"><path d="m134 30c2 0 3 1 3 3v19c0 2-1 3-3 3h-131c-2 0-3-1-3-3v-19c0-2 1-3 3-3zm130 0c2 0 3 1 3 3v19c0 2-1 3-3 3h-114c-2 0-3-1-3-3v-19c0-2 1-3 3-3zm53-30c2 0 3 1 3 3v19c0 2-1 3-3 3h-314c-2 0-3-1-3-3v-19c0-2 1-3 3-3z" opacity=".3"/><rect height="46" opacity=".1" rx="3" width="58.1" x="501.1"/><rect height="46" opacity=".1" rx="3" width="57.1" x="415"/><rect height="46" opacity=".1" rx="3" width="57.1" x="588.2"/><rect height="10" opacity=".2" rx="3" width="57.1" x="415" y="56"/><rect height="10" opacity=".2" rx="3" width="57.1" x="502.1" y="56"/><rect height="10" opacity=".2" rx="3" width="57.1" x="588.2" y="56"/><rect height="25" opacity=".3" rx="11.5" width="25" x="758.7"/><rect height="10" opacity=".2" rx="3" width="57.1" x="793.7" y="7"/><rect height="10" opacity=".2" rx="3" width="124.1" x="758.7" y="30"/><rect height="10" opacity=".2" rx="3" width="48" x="887.8" y="30"/><rect height="10" opacity=".2" rx="3" width="53" x="758.7" y="45"/></g><rect fill="#8792a2" height="10" opacity=".2" rx="3" width="16" x="157" y="915"/><rect fill="#8792a2" height="10" opacity=".2" rx="3" width="43" x="178" y="915"/><rect fill="#8792a2" height="10" opacity=".2" rx="3" width="20" x="284.1" y="915"/><rect fill="#8792a2" height="10" opacity=".2" rx="3" width="30" x="314.2" y="915"/><rect fill="#8792a2" height="10" opacity=".2" rx="3" width="10" x="349.2" y="915"/><rect fill="#8792a2" height="20" opacity=".2" rx="10" width="43" x="231.1" y="910"/><rect fill="#1851be" height="20" rx="10" width="20" x="127" y="910"/><circle cx="75" cy="995" fill="#8792a2" opacity=".2" r="35"/><g fill="#8792a2" transform="translate(127 962)"><use opacity=".3" xlink:href="#a"/><rect height="46" opacity=".1" rx="3" width="58.1" x="501.1"/><rect height="46" opacity=".1" rx="3" width="57.1" x="415"/><rect height="46" opacity=".1" rx="3" width="57.1" x="588.2"/><rect height="10" opacity=".2" rx="3" width="57.1" x="415" y="56"/><rect height="10" opacity=".2" rx="3" width="57.1" x="502.1" y="56"/><rect height="10" opacity=".2" rx="3" width="57.1" x="588.2" y="56"/><rect height="25" opacity=".3" rx="11.5" width="25" x="758.7"/><rect height="10" opacity=".2" rx="3" width="57.1" x="793.7" y="7"/><rect height="10" opacity=".2" rx="3" width="124.1" x="758.7" y="30"/><rect height="10" opacity=".2" rx="3" width="48" x="887.8" y="30"/><rect height="10" opacity=".2" rx="3" width="53" x="758.7" y="45"/></g><rect fill="#8792a2" height="10" opacity=".2" rx="3" width="16" x="157" y="1034"/><rect fill="#8792a2" height="10" opacity=".2" rx="3" width="43" x="178" y="1034"/><rect fill="#8792a2" height="10" opacity=".2" rx="3" width="20" x="284.1" y="1034"/><rect fill="#8792a2" height="10" opacity=".2" rx="3" width="30" x="314.2" y="1034"/><rect fill="#8792a2" height="10" opacity=".2" rx="3" width="10" x="349.2" y="1034"/><rect fill="#8792a2" height="20" opacity=".2" rx="10" width="43" x="231.1" y="1029"/><rect fill="#1851be" height="20" rx="10" width="20" x="127" y="1029"/><circle cx="75" cy="1114" fill="#8792a2" opacity=".2" r="35"/><g transform="translate(127 1081)"><g fill="#8792a2"><path d="m74 30c2 0 3 1 3 3v19c0 2-1 3-3 3h-71c-2 0-3-1-3-3v-19c0-2 1-3 3-3zm120 0c2 0 3 1 3 3v19c0 2-1 3-3 3h-104c-2 0-3-1-3-3v-19c0-2 1-3 3-3zm159-30c2 0 3 1 3 3v19c0 2-1 3-3 3h-350c-2 0-3-1-3-3v-19c0-2 1-3 3-3z" opacity=".3"/><g><rect height="46" opacity=".1" rx="3" width="58.1" x="501.1"/><rect height="46" opacity=".1" rx="3" width="57.1" x="415"/><rect height="46" opacity=".1" rx="3" width="57.1" x="588.2"/><rect height="10" opacity=".2" rx="3" width="57.1" x="415" y="56"/><rect height="10" opacity=".2" rx="3" width="57.1" x="502.1" y="56"/><rect height="10" opacity=".2" rx="3" width="57.1" x="588.2" y="56"/></g><rect height="25" opacity=".3" rx="11.5" width="25" x="758.7"/><rect height="10" opacity=".2" rx="3" width="57.1" x="793.7" y="7"/><rect height="10" opacity=".2" rx="3" width="124.1" x="758.7" y="30"/></g><rect fill="url(#c)" height="10" opacity=".2" rx="3" width="48" x="887.8" y="30"/><rect fill="#8792a2" height="10" opacity=".2" rx="3" width="53" x="758.7" y="45"/></g><rect fill="#8792a2" height="10" opacity=".2" rx="3" width="16" x="157" y="1153"/><rect fill="#8792a2" height="10" opacity=".2" rx="3" width="43" x="178" y="1153"/><rect fill="#8792a2" height="10" opacity=".2" rx="3" width="20" x="284.1" y="1153"/><rect fill="#8792a2" height="10" opacity=".2" rx="3" width="30" x="314.2" y="1153"/><rect fill="#8792a2" height="10" opacity=".2" rx="3" width="10" x="349.2" y="1153"/><rect fill="#8792a2" height="20" opacity=".2" rx="10" width="43" x="231.1" y="1148"/><rect fill="#1851be" height="20" rx="10" width="20" x="127" y="1148"/><rect height="52" rx="5" stroke="#8792a2" stroke-opacity=".1" stroke-width="2" width="138.1" x="795" y="139"/><rect fill="#8792a2" height="12.9" opacity=".2" rx="3" width="58.1" x="820" y="158.2"/><rect fill="#8792a2" height="12.9" opacity=".2" rx="3" width="26" x="883.1" y="158.2"/><rect height="52" rx="5" stroke="#8792a2" stroke-opacity=".1" stroke-width="2" width="138.1" x="645" y="139"/><rect fill="#8792a2" height="12.9" opacity=".2" rx="3" width="28" x="670" y="158.2"/><rect fill="#8792a2" height="12.9" opacity=".2" rx="3" width="56" x="703.1" y="158.2"/><rect fill="#1851be" height="70" rx="35" transform="matrix(1 0 0 -1 0 2252)" width="70" x="995.7" y="1090.9"/><g fill-rule="nonzero" transform="translate(40 18)"><path d="m128 42c15 0 27 9 27 21s-12 21-27 21-27-9-27-21 12-21 27-21zm2 5-2 2v8l-7-2c-6 0-11 5-11 12 0 6 5 11 11 11 5 0 8-2 10-6v1c2 2 5 3 8 3 7 0 11-5 11-11 0-7-4-12-11-12-3 0-5 1-7 3v-7zm-9 14c4 0 6 2 6 6 0 3-2 6-6 6s-6-3-6-6c0-4 2-6 6-6zm19-2c3 0 6 2 6 6 0 3-3 6-6 6-4 0-6-3-6-6 0-4 2-6 6-6zm-28-10h-1l-1 1v9a1 1 0 0 0 1 0l2-2 1-1v-5z" fill="#1851be"/><path d="m84 54c7 0 11 4 11 11l-1 2h-17c0 3 1 6 7 6 3 0 6 0 9-2h1a1 1 0 0 1 1 1v1s-4 4-11 4c-6 0-12-5-12-11 0-7 5-12 12-12zm0 4c-4 0-7 2-7 6h14c-1-4-3-6-7-6zm-15-13 2 2v19c0 6-5 11-12 11s-12-5-12-11c0-7 5-12 12-12 3 0 6 1 8 3v-10zm-10 13c-4 0-7 3-7 8 0 4 3 7 7 7 5 0 8-3 8-7 0-5-3-8-8-8zm-24-4c7 0 12 5 12 12 0 6-5 11-12 11s-12-5-12-11c0-7 5-12 12-12zm0 4c-5 0-8 3-8 8 0 4 3 7 8 7 4 0 8-3 8-7 0-5-4-8-8-8zm-22-4c6 0 9 4 9 10v10c0 2-1 3-2 3l-2-2v-11c0-4-2-6-6-6-7 0-7 3-7 7v12h-2l-2-2v-14c0-5 8-7 12-7z" fill="#040f20" stroke="#040e1f" stroke-width=".3"/></g><g fill="#8792a2" opacity=".5"><rect height="26" opacity=".4" rx="10" width="29" x="253" y="71"/><rect height="26" opacity=".5" rx="10" width="29" x="312" y="71"/><rect height="26" opacity=".3" rx="10" width="29" x="548" y="71"/><rect height="26" opacity=".6" rx="10" width="29" x="371" y="71"/><rect height="26" opacity=".5" rx="10" width="29" x="430" y="71"/><rect height="26" opacity=".2" rx="10" width="29" x="607" y="71"/><rect height="26" opacity=".2" rx="10" width="29" x="995" y="71"/><rect height="26" opacity=".1" rx="10" width="29" x="936" y="71"/><rect height="26" opacity=".2" rx="10" width="29" x="877" y="71"/><rect height="33" opacity=".3" rx="16" width="32" x="1051" y="68"/><rect height="26" opacity=".4" rx="10" width="29" x="489" y="71"/></g><rect fill="#e02020" height="16" rx="3.5" width="16" x="391.7" y="63"/><rect fill="#e02020" height="16" rx="3.5" width="16" x="957.7" y="63"/><rect fill="#fff" height="10" rx="3.5" width="94" x="527" y="18"/><rect fill="#fff" height="10" rx="3.5" width="94" x="641" y="18"/><rect fill="#fff" height="10" rx="3.5" width="94" x="755" y="18"/><rect fill="#fff" height="10" rx="3.5" width="94" x="869" y="18"/><rect fill="#1851be" height="10" rx="5" width="94" x="989" y="18"/></g></svg>