<svg fill="none" height="42" viewBox="0 0 37 42" width="37" xmlns="http://www.w3.org/2000/svg"><path clip-rule="evenodd" d="m18.7397 1c-.5394 0-1.0638.11155-1.5277.37414l-14.68431 8.48013c-.95028.54713-1.52769 1.58133-1.52769 2.68123v16.9291c0 1.0993.57741 2.1323 1.52769 2.6811l3.83475 2.2137c1.86314.9182 2.55029.904 3.3983.904 2.75856 0 4.33356-1.6738 4.33356-4.5829v-16.7109c0-.2362-.2045-.4053-.4364-.4053h-1.8395c-.2357 0-.4365.1691-.4365.4053v16.7109c0 1.2894-1.3431 2.5862-3.52296 1.4965l-3.99064-2.3383c-.14092-.0768-.24943-.2124-.24943-.3741v-16.9291c0-.1607.10726-.324.24943-.4053l14.6532-8.44897c.1371-.07881.3005-.07881.4364 0l14.6532 8.44897c.1397.0838.2494.2397.2494.4053v16.9291c0 .1617-.0811.3274-.2182.4053l-14.6844 8.449c-.1259.0748-.2993.0748-.4364 0l-3.7725-2.2448c-.1122-.0658-.2656-.0608-.3741 0-1.0413.5904-1.2371.659-2.2135.9977-.2407.0838-.6061.2142.1247.6235l4.9259 2.8994c.4689.2714.9914.4053 1.5277.4053.5437 0 1.0588-.1339 1.5277-.4053l14.6843-8.449c.9503-.5527 1.5277-1.5818 1.5277-2.6811v-16.9291c0-1.0999-.5774-2.1318-1.5277-2.68123l-14.6843-8.48013c-.4602-.26259-.9883-.37414-1.5277-.37414zm3.9283 12.0969c-4.1815 0-6.6719 1.7795-6.6719 4.7389 0 3.2103 2.4717 4.0924 6.4848 4.4895 4.8013.47 5.1754 1.1749 5.1754 2.12 0 1.6392-1.3069 2.3382-4.3959 2.3382-3.881 0-4.7339-.9688-5.0195-2.8994-.0337-.207-.1933-.3741-.4053-.3741h-1.9018c-.2345 0-.4365.2016-.4365.4364 0 2.4712 1.3443 5.3937 7.7631 5.3937 4.6466 0 7.3265-1.8239 7.3265-5.0195 0-3.168-2.1649-4.0183-6.6718-4.6142-4.5544-.6026-4.9883-.8975-4.9883-1.9641 0-.8804.3678-2.0578 3.7412-2.0578 3.0129 0 4.1266.6498 4.583 2.6813.0399.191.2083.3429.4053.3429h1.9018c.1172 0 .2307-.0718.3118-.1559.0798-.0898.1359-.191.1247-.3117-.2943-3.4987-2.6276-5.1442-7.3266-5.1442z" fill="#fff" fill-rule="evenodd" stroke="#fff" stroke-width=".5"/></svg>