<svg xmlns="http://www.w3.org/2000/svg" xmlns:xlink="http://www.w3.org/1999/xlink" width="1124" height="1200">
  <defs>
    <path id="reuse-0" d="M74 30c2 0 3 1 3 3v19c0 2-1 3-3 3H3c-2 0-3-1-3-3V33c0-2 1-3 3-3h71zm120 0c2 0 3 1 3 3v19c0 2-1 3-3 3H90c-2 0-3-1-3-3V33c0-2 1-3 3-3zM353 0c2 0 3 1 3 3v19c0 2-1 3-3 3H3c-2 0-3-1-3-3V3c0-2 1-3 3-3h350z" opacity=".3"/>
  </defs>
  <defs>
    <linearGradient id="d" x1="50%" x2="50%" y1="-141.4%" y2="-47%">
      <stop offset="0%" stop-color="#2A6CBE"/>
      <stop offset="38.7%" stop-color="#2062BC"/>
      <stop offset="49.2%" stop-color="#1F5FBC"/>
      <stop offset="66.6%" stop-color="#1C5ABD"/>
      <stop offset="85.4%" stop-color="#1956BC"/>
      <stop offset="100%" stop-color="#1851BE"/>
    </linearGradient>
    <linearGradient id="e" x1="50%" x2="50%" y1="0%" y2="100%">
      <stop offset="0%" stop-color="#040F20"/>
      <stop offset="100%" stop-color="#000306"/>
    </linearGradient>
    <filter id="b" width="105.4%" height="105.1%" x="-2.7%" y="-2.5%" filterUnits="objectBoundingBox">
      <feOffset dy="1" in="SourceAlpha" result="shadowOffsetOuter1"/>
      <feGaussianBlur in="shadowOffsetOuter1" result="shadowBlurOuter1" stdDeviation="10"/>
      <feColorMatrix in="shadowBlurOuter1" values="0 0 0 0 0 0 0 0 0 0 0 0 0 0 0 0 0 0 0.18091674 0"/>
    </filter>
    <rect id="a" width="1123.8" height="1199.4" x="0" y="0" rx="6"/>
  </defs>
  <g fill="none" fill-rule="evenodd">
    <mask id="c" fill="#fff">
      <use xlink:href="#a"/>
    </mask>
    <g opacity=".9">
      <use fill="#000" filter="url(#b)" xlink:href="#a"/>
      <use fill="#FFF" xlink:href="#a"/>
    </g>
    <path fill="#F7F7F8" d="M-6 744h1132v238H-6z" mask="url(#c)"/>
    <path fill="#FFF" d="M-5 0h1131v745H-5z" mask="url(#c)" transform="matrix(-1 0 0 1 1120 0)"/>
    <path fill="#FFF" d="M0 340h1124v859H0z" mask="url(#c)" transform="matrix(-1 0 0 1 1123 0)"/>
    <path fill="#FFF" d="M-5 0h1131v116H-5z" mask="url(#c)" transform="rotate(180 560 58)"/>
    <path fill="#000306" d="M-5 0h1131v42H-5z" mask="url(#c)" transform="rotate(180 560 21)"/>
    <g transform="translate(40 138)">
      <rect width="202.2" height="53.3" y=".3" fill="url(#d)" rx="5"/>
      <g fill="#FFF" opacity=".3" transform="translate(34 21)">
        <rect width="40" height="12.7" rx="3"/>
        <rect width="83.1" height="12.7" x="50" rx="3"/>
      </g>
    </g>
    <g transform="translate(944 138)">
      <rect width="138.1" height="52" x="1" y="1" stroke="#8792A2" stroke-opacity=".1" stroke-width="2" rx="5"/>
      <rect width="31" height="12.9" x="26" y="20.2" fill="#8792A2" opacity=".2" rx="3"/>
      <rect width="48" height="12.9" x="62.1" y="20.2" fill="#8792A2" opacity=".2" rx="3"/>
    </g>
    <g transform="translate(40 245)">
      <circle cx="35" cy="35" r="35" fill="#8792A2" opacity=".2"/>
      <g fill="#8792A2" transform="translate(87 2)">
        <use opacity=".3" xlink:href="#reuse-0"/>
        <g transform="translate(415)">
          <rect width="58.1" height="46" x="86.1" opacity=".1" rx="3"/>
          <rect width="57.1" height="46" opacity=".1" rx="3"/>
          <rect width="57.1" height="46" x="173.2" opacity=".1" rx="3"/>
          <rect width="57.1" height="10" y="56" opacity=".2" rx="3"/>
          <rect width="57.1" height="10" x="87.1" y="56" opacity=".2" rx="3"/>
          <rect width="57.1" height="10" x="173.2" y="56" opacity=".2" rx="3"/>
        </g>
        <rect width="25" height="25" x="758.7" opacity=".3" rx="11.5"/>
        <rect width="57.1" height="10" x="793.7" y="7" opacity=".2" rx="3"/>
        <rect width="124.1" height="10" x="758.7" y="30" opacity=".2" rx="3"/>
        <rect width="48" height="10" x="887.8" y="30" opacity=".2" rx="3"/>
        <rect width="53" height="10" x="758.7" y="45" opacity=".2" rx="3"/>
      </g>
      <g transform="translate(87 69)">
        <rect width="16" height="10" x="30" y="5" fill="#8792A2" opacity=".2" rx="3"/>
        <rect width="43" height="10" x="51" y="5" fill="#8792A2" opacity=".2" rx="3"/>
        <rect width="20" height="10" x="157.1" y="5" fill="#8792A2" opacity=".2" rx="3"/>
        <rect width="30" height="10" x="187.2" y="5" fill="#8792A2" opacity=".2" rx="3"/>
        <rect width="10" height="10" x="222.2" y="5" fill="#8792A2" opacity=".2" rx="3"/>
        <rect width="43" height="20" x="104.1" fill="#8792A2" opacity=".2" rx="10"/>
        <rect width="20" height="20" fill="#1851BE" rx="10"/>
      </g>
    </g>
    <g transform="translate(40 364)">
      <circle cx="35" cy="35" r="35" fill="#8792A2" opacity=".2"/>
      <g fill="#8792A2" transform="translate(87 2)">
        <path d="M144 30c2 0 3 1 3 3v19c0 2-1 3-3 3H3c-2 0-3-1-3-3V33c0-2 1-3 3-3h141zm135 0c2 0 3 1 3 3v19c0 2-1 3-3 3H160c-2 0-3-1-3-3V33c0-2 1-3 3-3zm74-30c2 0 3 1 3 3v19c0 2-1 3-3 3H3c-2 0-3-1-3-3V3c0-2 1-3 3-3h350z" opacity=".3"/>
        <g transform="translate(415)">
          <rect width="58.1" height="46" x="86.1" opacity=".1" rx="3"/>
          <rect width="57.1" height="46" opacity=".1" rx="3"/>
          <rect width="57.1" height="46" x="173.2" opacity=".1" rx="3"/>
          <rect width="57.1" height="10" y="56" opacity=".2" rx="3"/>
          <rect width="57.1" height="10" x="87.1" y="56" opacity=".2" rx="3"/>
          <rect width="57.1" height="10" x="173.2" y="56" opacity=".2" rx="3"/>
        </g>
        <rect width="25" height="25" x="758.7" opacity=".3" rx="11.5"/>
        <rect width="57.1" height="10" x="793.7" y="7" opacity=".2" rx="3"/>
        <rect width="124.1" height="10" x="758.7" y="30" opacity=".2" rx="3"/>
        <rect width="48" height="10" x="887.8" y="30" opacity=".2" rx="3"/>
        <rect width="53" height="10" x="758.7" y="45" opacity=".2" rx="3"/>
      </g>
      <g transform="translate(87 69)">
        <rect width="16" height="10" x="30" y="5" fill="#8792A2" opacity=".2" rx="3"/>
        <rect width="43" height="10" x="51" y="5" fill="#8792A2" opacity=".2" rx="3"/>
        <rect width="20" height="10" x="157.1" y="5" fill="#8792A2" opacity=".2" rx="3"/>
        <rect width="30" height="10" x="187.2" y="5" fill="#8792A2" opacity=".2" rx="3"/>
        <rect width="10" height="10" x="222.2" y="5" fill="#8792A2" opacity=".2" rx="3"/>
        <rect width="43" height="20" x="104.1" fill="#8792A2" opacity=".2" rx="10"/>
        <rect width="20" height="20" fill="#1851BE" rx="10"/>
      </g>
    </g>
    <g transform="translate(40 483)">
      <circle cx="35" cy="35" r="35" fill="#8792A2" opacity=".2"/>
      <g fill="#8792A2" transform="translate(87 2)">
        <use opacity=".3" xlink:href="#reuse-0"/>
        <g transform="translate(415)">
          <rect width="58.1" height="46" x="86.1" opacity=".1" rx="3"/>
          <rect width="57.1" height="46" opacity=".1" rx="3"/>
          <rect width="57.1" height="46" x="173.2" opacity=".1" rx="3"/>
          <rect width="57.1" height="10" y="56" opacity=".2" rx="3"/>
          <rect width="57.1" height="10" x="87.1" y="56" opacity=".2" rx="3"/>
          <rect width="57.1" height="10" x="173.2" y="56" opacity=".2" rx="3"/>
        </g>
        <rect width="25" height="25" x="758.7" opacity=".3" rx="11.5"/>
        <rect width="57.1" height="10" x="793.7" y="7" opacity=".2" rx="3"/>
        <rect width="124.1" height="10" x="758.7" y="30" opacity=".2" rx="3"/>
        <rect width="48" height="10" x="887.8" y="30" opacity=".2" rx="3"/>
        <rect width="53" height="10" x="758.7" y="45" opacity=".2" rx="3"/>
      </g>
      <g transform="translate(87 69)">
        <rect width="16" height="10" x="30" y="5" fill="#8792A2" opacity=".2" rx="3"/>
        <rect width="43" height="10" x="51" y="5" fill="#8792A2" opacity=".2" rx="3"/>
        <rect width="20" height="10" x="157.1" y="5" fill="#8792A2" opacity=".2" rx="3"/>
        <rect width="30" height="10" x="187.2" y="5" fill="#8792A2" opacity=".2" rx="3"/>
        <rect width="10" height="10" x="222.2" y="5" fill="#8792A2" opacity=".2" rx="3"/>
        <rect width="43" height="20" x="104.1" fill="#8792A2" opacity=".2" rx="10"/>
        <rect width="20" height="20" fill="#1851BE" rx="10"/>
      </g>
    </g>
    <g transform="translate(40 603)">
      <circle cx="35" cy="35" r="35" fill="#8792A2" opacity=".2"/>
      <g fill="#8792A2" transform="translate(87 2)">
        <path d="M74 30c2 0 3 1 3 3v19c0 2-1 3-3 3H3c-2 0-3-1-3-3V33c0-2 1-3 3-3h71zm230 0c2 0 3 1 3 3v19c0 2-1 3-3 3H90c-2 0-3-1-3-3V33c0-2 1-3 3-3zM286 0c2 0 3 1 3 3v19c0 2-1 3-3 3H3c-2 0-3-1-3-3V3c0-2 1-3 3-3h283z" opacity=".3"/>
        <g transform="translate(415)">
          <rect width="58.1" height="46" x="86.1" opacity=".1" rx="3"/>
          <rect width="57.1" height="46" opacity=".1" rx="3"/>
          <rect width="57.1" height="46" x="173.2" opacity=".1" rx="3"/>
          <rect width="57.1" height="10" y="56" opacity=".2" rx="3"/>
          <rect width="57.1" height="10" x="87.1" y="56" opacity=".2" rx="3"/>
          <rect width="57.1" height="10" x="173.2" y="56" opacity=".2" rx="3"/>
        </g>
        <rect width="25" height="25" x="758.7" opacity=".3" rx="11.5"/>
        <rect width="57.1" height="10" x="793.7" y="7" opacity=".2" rx="3"/>
        <rect width="74.1" height="10" x="758.7" y="30" opacity=".2" rx="3"/>
        <rect width="98.1" height="10" x="837.7" y="30" opacity=".2" rx="3"/>
        <rect width="110.1" height="10" x="758.7" y="45" opacity=".2" rx="3"/>
      </g>
      <g transform="translate(87 69)">
        <rect width="16" height="10" x="30" y="5" fill="#8792A2" opacity=".2" rx="3"/>
        <rect width="43" height="10" x="51" y="5" fill="#8792A2" opacity=".2" rx="3"/>
        <rect width="20" height="10" x="157.1" y="5" fill="#8792A2" opacity=".2" rx="3"/>
        <rect width="30" height="10" x="187.2" y="5" fill="#8792A2" opacity=".2" rx="3"/>
        <rect width="10" height="10" x="222.2" y="5" fill="#8792A2" opacity=".2" rx="3"/>
        <rect width="43" height="20" x="104.1" fill="#8792A2" opacity=".2" rx="10"/>
        <rect width="20" height="20" fill="#1851BE" rx="10"/>
      </g>
    </g>
    <g transform="translate(40 722)">
      <circle cx="35" cy="35" r="35" fill="#8792A2" opacity=".2"/>
      <g fill="#8792A2" transform="translate(87 2)">
        <use opacity=".3" xlink:href="#reuse-0"/>
        <g transform="translate(415)">
          <rect width="58.1" height="46" x="86.1" opacity=".1" rx="3"/>
          <rect width="57.1" height="46" opacity=".1" rx="3"/>
          <rect width="57.1" height="46" x="173.2" opacity=".1" rx="3"/>
          <rect width="57.1" height="10" y="56" opacity=".2" rx="3"/>
          <rect width="57.1" height="10" x="87.1" y="56" opacity=".2" rx="3"/>
          <rect width="57.1" height="10" x="173.2" y="56" opacity=".2" rx="3"/>
        </g>
        <rect width="25" height="25" x="758.7" opacity=".3" rx="11.5"/>
        <rect width="57.1" height="10" x="793.7" y="7" opacity=".2" rx="3"/>
        <rect width="102.1" height="10" x="758.7" y="30" opacity=".2" rx="3"/>
        <rect width="70.1" height="10" x="865.8" y="30" opacity=".2" rx="3"/>
        <rect width="53" height="10" x="758.7" y="45" opacity=".2" rx="3"/>
        <rect width="70.1" height="10" x="816.7" y="45" opacity=".2" rx="3"/>
      </g>
      <g transform="translate(87 69)">
        <rect width="16" height="10" x="30" y="5" fill="#8792A2" opacity=".2" rx="3"/>
        <rect width="43" height="10" x="51" y="5" fill="#8792A2" opacity=".2" rx="3"/>
        <rect width="20" height="10" x="157.1" y="5" fill="#8792A2" opacity=".2" rx="3"/>
        <rect width="30" height="10" x="187.2" y="5" fill="#8792A2" opacity=".2" rx="3"/>
        <rect width="10" height="10" x="222.2" y="5" fill="#8792A2" opacity=".2" rx="3"/>
        <rect width="43" height="20" x="104.1" fill="#8792A2" opacity=".2" rx="10"/>
        <rect width="20" height="20" fill="#1851BE" rx="10"/>
      </g>
    </g>
    <g transform="translate(40 841)">
      <circle cx="35" cy="35" r="35" fill="#8792A2" opacity=".2"/>
      <g fill="#8792A2" transform="translate(87 2)">
        <path d="M134 30c2 0 3 1 3 3v19c0 2-1 3-3 3H3c-2 0-3-1-3-3V33c0-2 1-3 3-3h131zm130 0c2 0 3 1 3 3v19c0 2-1 3-3 3H150c-2 0-3-1-3-3V33c0-2 1-3 3-3zm53-30c2 0 3 1 3 3v19c0 2-1 3-3 3H3c-2 0-3-1-3-3V3c0-2 1-3 3-3h314z" opacity=".3"/>
        <g transform="translate(415)">
          <rect width="58.1" height="46" x="86.1" opacity=".1" rx="3"/>
          <rect width="57.1" height="46" opacity=".1" rx="3"/>
          <rect width="57.1" height="46" x="173.2" opacity=".1" rx="3"/>
          <rect width="57.1" height="10" y="56" opacity=".2" rx="3"/>
          <rect width="57.1" height="10" x="87.1" y="56" opacity=".2" rx="3"/>
          <rect width="57.1" height="10" x="173.2" y="56" opacity=".2" rx="3"/>
        </g>
        <rect width="25" height="25" x="758.7" opacity=".3" rx="11.5"/>
        <rect width="57.1" height="10" x="793.7" y="7" opacity=".2" rx="3"/>
        <rect width="124.1" height="10" x="758.7" y="30" opacity=".2" rx="3"/>
        <rect width="48" height="10" x="887.8" y="30" opacity=".2" rx="3"/>
        <rect width="53" height="10" x="758.7" y="45" opacity=".2" rx="3"/>
      </g>
      <g transform="translate(87 69)">
        <rect width="16" height="10" x="30" y="5" fill="#8792A2" opacity=".2" rx="3"/>
        <rect width="43" height="10" x="51" y="5" fill="#8792A2" opacity=".2" rx="3"/>
        <rect width="20" height="10" x="157.1" y="5" fill="#8792A2" opacity=".2" rx="3"/>
        <rect width="30" height="10" x="187.2" y="5" fill="#8792A2" opacity=".2" rx="3"/>
        <rect width="10" height="10" x="222.2" y="5" fill="#8792A2" opacity=".2" rx="3"/>
        <rect width="43" height="20" x="104.1" fill="#8792A2" opacity=".2" rx="10"/>
        <rect width="20" height="20" fill="#1851BE" rx="10"/>
      </g>
    </g>
    <g transform="translate(40 960)">
      <circle cx="35" cy="35" r="35" fill="#8792A2" opacity=".2"/>
      <g fill="#8792A2" transform="translate(87 2)">
        <use opacity=".3" xlink:href="#reuse-0"/>
        <g transform="translate(415)">
          <rect width="58.1" height="46" x="86.1" opacity=".1" rx="3"/>
          <rect width="57.1" height="46" opacity=".1" rx="3"/>
          <rect width="57.1" height="46" x="173.2" opacity=".1" rx="3"/>
          <rect width="57.1" height="10" y="56" opacity=".2" rx="3"/>
          <rect width="57.1" height="10" x="87.1" y="56" opacity=".2" rx="3"/>
          <rect width="57.1" height="10" x="173.2" y="56" opacity=".2" rx="3"/>
        </g>
        <rect width="25" height="25" x="758.7" opacity=".3" rx="11.5"/>
        <rect width="57.1" height="10" x="793.7" y="7" opacity=".2" rx="3"/>
        <rect width="124.1" height="10" x="758.7" y="30" opacity=".2" rx="3"/>
        <rect width="48" height="10" x="887.8" y="30" opacity=".2" rx="3"/>
        <rect width="53" height="10" x="758.7" y="45" opacity=".2" rx="3"/>
      </g>
      <g transform="translate(87 69)">
        <rect width="16" height="10" x="30" y="5" fill="#8792A2" opacity=".2" rx="3"/>
        <rect width="43" height="10" x="51" y="5" fill="#8792A2" opacity=".2" rx="3"/>
        <rect width="20" height="10" x="157.1" y="5" fill="#8792A2" opacity=".2" rx="3"/>
        <rect width="30" height="10" x="187.2" y="5" fill="#8792A2" opacity=".2" rx="3"/>
        <rect width="10" height="10" x="222.2" y="5" fill="#8792A2" opacity=".2" rx="3"/>
        <rect width="43" height="20" x="104.1" fill="#8792A2" opacity=".2" rx="10"/>
        <rect width="20" height="20" fill="#1851BE" rx="10"/>
      </g>
    </g>
    <g transform="translate(40 1079)">
      <circle cx="35" cy="35" r="35" fill="#8792A2" opacity=".2"/>
      <g transform="translate(87 2)">
        <path fill="#8792A2" d="M74 30c2 0 3 1 3 3v19c0 2-1 3-3 3H3c-2 0-3-1-3-3V33c0-2 1-3 3-3h71zm120 0c2 0 3 1 3 3v19c0 2-1 3-3 3H90c-2 0-3-1-3-3V33c0-2 1-3 3-3zM353 0c2 0 3 1 3 3v19c0 2-1 3-3 3H3c-2 0-3-1-3-3V3c0-2 1-3 3-3h350z" opacity=".3"/>
        <g fill="#8792A2" transform="translate(415)">
          <rect width="58.1" height="46" x="86.1" opacity=".1" rx="3"/>
          <rect width="57.1" height="46" opacity=".1" rx="3"/>
          <rect width="57.1" height="46" x="173.2" opacity=".1" rx="3"/>
          <rect width="57.1" height="10" y="56" opacity=".2" rx="3"/>
          <rect width="57.1" height="10" x="87.1" y="56" opacity=".2" rx="3"/>
          <rect width="57.1" height="10" x="173.2" y="56" opacity=".2" rx="3"/>
        </g>
        <rect width="25" height="25" x="758.7" fill="#8792A2" opacity=".3" rx="11.5"/>
        <rect width="57.1" height="10" x="793.7" y="7" fill="#8792A2" opacity=".2" rx="3"/>
        <rect width="124.1" height="10" x="758.7" y="30" fill="#8792A2" opacity=".2" rx="3"/>
        <rect width="48" height="10" x="887.8" y="30" fill="url(#e)" opacity=".2" rx="3"/>
        <rect width="53" height="10" x="758.7" y="45" fill="#8792A2" opacity=".2" rx="3"/>
      </g>
      <g transform="translate(87 69)">
        <rect width="16" height="10" x="30" y="5" fill="#8792A2" opacity=".2" rx="3"/>
        <rect width="43" height="10" x="51" y="5" fill="#8792A2" opacity=".2" rx="3"/>
        <rect width="20" height="10" x="157.1" y="5" fill="#8792A2" opacity=".2" rx="3"/>
        <rect width="30" height="10" x="187.2" y="5" fill="#8792A2" opacity=".2" rx="3"/>
        <rect width="10" height="10" x="222.2" y="5" fill="#8792A2" opacity=".2" rx="3"/>
        <rect width="43" height="20" x="104.1" fill="#8792A2" opacity=".2" rx="10"/>
        <rect width="20" height="20" fill="#1851BE" rx="10"/>
      </g>
    </g>
    <g transform="translate(794 138)">
      <rect width="138.1" height="52" x="1" y="1" stroke="#8792A2" stroke-opacity=".1" stroke-width="2" rx="5"/>
      <rect width="58.1" height="12.9" x="26" y="20.2" fill="#8792A2" opacity=".2" rx="3"/>
      <rect width="26" height="12.9" x="89.1" y="20.2" fill="#8792A2" opacity=".2" rx="3"/>
    </g>
    <g transform="translate(644 138)">
      <rect width="138.1" height="52" x="1" y="1" stroke="#8792A2" stroke-opacity=".1" stroke-width="2" rx="5"/>
      <rect width="28" height="12.9" x="26" y="20.2" fill="#8792A2" opacity=".2" rx="3"/>
      <rect width="56" height="12.9" x="59.1" y="20.2" fill="#8792A2" opacity=".2" rx="3"/>
    </g>
    <rect width="70" height="70" x="995.7" y="1090.9" fill="#1851BE" rx="35" transform="matrix(1 0 0 -1 0 2252)"/>
    <g transform="translate(40 18)">
      <g fill-rule="nonzero">
        <path fill="#1851BE" d="M128 42c15 0 27 9 27 21s-12 21-27 21-27-9-27-21 12-21 27-21zm2 5l-2 2v8l-7-2c-6 0-11 5-11 12 0 6 5 11 11 11 5 0 8-2 10-6v1c2 2 5 3 8 3 7 0 11-5 11-11 0-7-4-12-11-12-3 0-5 1-7 3v-7l-2-2zm-9 14c4 0 6 2 6 6 0 3-2 6-6 6s-6-3-6-6c0-4 2-6 6-6zm19-2c3 0 6 2 6 6 0 3-3 6-6 6-4 0-6-3-6-6 0-4 2-6 6-6zm-28-10h-1l-1 1v9a1 1 0 001 0l2-2 1-1v-5l-2-2z"/>
        <path fill="#040F20" stroke="#040E1F" stroke-width=".3" d="M84 54c7 0 11 4 11 11h0l-1 2H77c0 3 1 6 7 6 3 0 6 0 9-2h1a1 1 0 011 1v1h0s-4 4-11 4c-6 0-12-5-12-11 0-7 5-12 12-12zm0 4c-4 0-7 2-7 6h14c-1-4-3-6-7-6zM69 45l2 2v19c0 6-5 11-12 11s-12-5-12-11c0-7 5-12 12-12 3 0 6 1 8 3V47l2-2zM59 58c-4 0-7 3-7 8 0 4 3 7 7 7 5 0 8-3 8-7 0-5-3-8-8-8zM35 54c7 0 12 5 12 12 0 6-5 11-12 11s-12-5-12-11c0-7 5-12 12-12zm0 4c-5 0-8 3-8 8 0 4 3 7 8 7 4 0 8-3 8-7 0-5-4-8-8-8zM13 54c6 0 9 4 9 10v10c0 2-1 3-2 3h0l-2-2V64h0c0-4-2-6-6-6-7 0-7 3-7 7v12H3l-2-2V61c0-5 8-7 12-7z"/>
      </g>
      <g fill="#8792A2" opacity=".5" transform="translate(213 49)">
        <rect width="29" height="26" y="4" opacity=".4" rx="10"/>
        <rect width="29" height="26" x="59" y="4" opacity=".5" rx="10"/>
        <rect width="29" height="26" x="295" y="4" opacity=".3" rx="10"/>
        <rect width="29" height="26" x="118" y="4" opacity=".6" rx="10"/>
        <rect width="29" height="26" x="177" y="4" opacity=".5" rx="10"/>
        <rect width="29" height="26" x="354" y="4" opacity=".2" rx="10"/>
        <rect width="29" height="26" x="742" y="4" opacity=".2" rx="10"/>
        <rect width="29" height="26" x="683" y="4" opacity=".1" rx="10"/>
        <rect width="29" height="26" x="624" y="4" opacity=".2" rx="10"/>
        <rect width="32" height="33" x="798" y="1" opacity=".3" rx="16"/>
        <rect width="29" height="26" x="236" y="4" opacity=".4" rx="10"/>
      </g>
      <rect width="16" height="16" x="351.7" y="45" fill="#E02020" rx="3.5"/>
      <rect width="16" height="16" x="917.7" y="45" fill="#E02020" rx="3.5"/>
      <g transform="translate(487)">
        <rect width="94" height="10" fill="#FFF" rx="3.5"/>
        <rect width="94" height="10" x="114" fill="#FFF" rx="3.5"/>
        <rect width="94" height="10" x="228" fill="#FFF" rx="3.5"/>
        <rect width="94" height="10" x="342" fill="#FFF" rx="3.5"/>
        <rect width="94" height="10" x="462" fill="#1851BE" rx="5"/>
      </g>
    </g>
  </g>
</svg>