<svg height="782" viewBox="0 0 586 782" width="586" xmlns="http://www.w3.org/2000/svg" xmlns:xlink="http://www.w3.org/1999/xlink"><defs><rect id="a" height="677" rx="5" width="586" y=".212"/><mask id="b" fill="#fff"><use fill="#fff" fill-rule="evenodd" xlink:href="#a"/></mask></defs><g fill="none" fill-rule="evenodd"><path d="m0 0h586v782h-586z" fill="#fff"/><g transform="translate(0 -50)"><use fill="#fff" xlink:href="#a"/><path d="m0 49.212h589v218h-589z" fill="#f1eff8" mask="url(#b)"/><rect fill="#24124d" height="16" mask="url(#b)" opacity=".8" rx="8" width="279" x="112" y="88.212"/><rect fill="#24124d" height="16" mask="url(#b)" opacity=".8" rx="8" width="155" x="112" y="112.212"/><rect fill="#24124d" height="16" mask="url(#b)" opacity=".661" rx="8" width="65" x="113" y="210.212"/><rect fill="#24124d" height="16" mask="url(#b)" opacity=".803" rx="8" width="224" x="192" y="211.212"/><rect fill="#24124d" height="16" mask="url(#b)" opacity=".48" rx="5" width="25" x="514" y="210.212"/><rect fill="#24124d" height="16" mask="url(#b)" opacity=".818" rx="5" width="25" x="514" y="99.212"/><rect fill="#24124d" height="45" mask="url(#b)" opacity=".4" rx="22.5" width="45" x="40" y="86.212"/><rect fill="#24124d" height="45" mask="url(#b)" opacity=".4" rx="22.5" width="45" x="40" y="196.212"/><rect fill="#8792a2" height="16" mask="url(#b)" opacity=".24" rx="5" width="25" x="514" y="320.212"/><rect fill="#8792a2" height="16" mask="url(#b)" opacity=".24" rx="5" width="25" x="514" y="430.212"/><rect fill="#8792a2" height="16" mask="url(#b)" opacity=".24" rx="5" width="25" x="514" y="540.212"/><rect fill="#24124d" height="16" mask="url(#b)" opacity=".144" rx="8" width="36" x="464" y="210.212"/><rect fill="#24124d" height="16" mask="url(#b)" opacity=".441" rx="8" width="36" x="464" y="99.212"/><g fill="#8792a2"><rect height="16" mask="url(#b)" opacity=".144" rx="8" width="36" x="464" y="320.212"/><rect height="16" mask="url(#b)" opacity=".144" rx="8" width="36" x="464" y="430.212"/><rect height="16" mask="url(#b)" opacity=".144" rx="8" width="36" x="464" y="540.212"/><rect fill-opacity=".24" height="16" mask="url(#b)" rx="8" width="279" x="112" y="309.212"/><rect fill-opacity=".24" height="16" mask="url(#b)" rx="8" width="155" x="113" y="334.212"/><rect fill-opacity=".24" height="16" mask="url(#b)" rx="8" width="279" x="112" y="416.212"/><rect fill-opacity=".24" height="16" mask="url(#b)" rx="8" width="84" x="113" y="440.212"/><rect fill-opacity=".24" height="16" mask="url(#b)" rx="8" width="126" x="113" y="540.212"/><rect height="45" mask="url(#b)" opacity=".28" rx="22.5" width="45" x="43" y="307.212"/><rect height="45" mask="url(#b)" opacity=".28" rx="22.5" width="45" x="43" y="416.212"/></g><rect fill="#000306" height="35" mask="url(#b)" rx="17.5" stroke="#fff" stroke-width="4" width="35" x="63" y="436.212"/><rect fill="#000306" height="35" mask="url(#b)" rx="17.5" stroke="#f1eff8" stroke-width="4" width="35" x="61" y="216.212"/><rect fill="#8792a2" height="45" mask="url(#b)" opacity=".28" rx="22.5" width="45" x="43" y="527.212"/><path d="m.25 787.25v44.5h585.5v-44.5z" stroke="#8792a2" stroke-opacity=".332" stroke-width=".5"/><path d="m4.25 743.25h585.5v44.5h-585.5z" stroke="#8792a2" stroke-opacity=".332" stroke-width=".5"/><rect fill="#8792a2" height="12" opacity=".361" rx="5" width="203" x="192" y="760"/><rect fill="#8792a2" height="12" opacity=".361" rx="5" width="203" x="192" y="804"/></g></g></svg>