<svg height="450" viewBox="0 0 450 450" width="450" xmlns="http://www.w3.org/2000/svg"><g fill="#000" fill-rule="nonzero"><g transform="translate(64 72)"><path d="m101.058559 61.0671171v5.0450451c0 2.089726-1.6940581 3.7837837-3.7837842 3.7837837h-47.927928c-2.089726 0-3.7837837-1.6940577-3.7837837-3.7837837v-5.0450451c0-2.0897261 1.6940577-3.7837838 3.7837837-3.7837838h47.927928c2.0897261 0 3.7837842 1.6940577 3.7837842 3.7837838z" opacity=".4"/><path d="m4.84009009 67.8968468-3.57882883-3.5725225c-1.47334221-1.4769148-1.47334221-3.8676798 0-5.3445946l24.27927924-24.3990991-24.27927924-24.3959459c-1.47334221-1.47691481-1.47334221-3.86767981 0-5.34459461l3.57882883-3.57882883c1.47763918-1.47754119 3.87326172-1.47754119 5.35090091 0l30.6423423 30.64391894c1.4775412 1.4776392 1.4775412 3.8732617 0 5.3509009l-30.6423423 30.6407657c-1.47763919 1.4775412-3.87326173 1.4775412-5.35090091 0z"/></g><g transform="translate(110 181)"><path d="m224.464628 0h-177.1250003c-11.273731.03269225-20.4047613 9.15077083-20.4375 20.4085106v142.8595744h218.0000003v-142.8595744c-.032739-11.25773977-9.163769-20.37581835-20.4375-20.4085106zm-6.8125 136.056738h-163.5000003v-108.8453905h163.5000003z" opacity=".4"/><path d="m265.913617 177.050456h-103.322781c-.315347 8.450109-6.268573 13.649848-13.951942 13.649848h-25.909532c-7.964625 0-14.06274-7.451964-13.964727-13.649848h-101.94633713c-3.76564193 0-6.81829787 3.055622-6.81829787 6.824924v6.824924c.04446449 15.058732 12.22908 27.255188 27.2731915 27.299696h218.1855315c15.044112-.044508 27.228727-12.240964 27.273192-27.299696v-6.824924c0-3.769302-3.052656-6.824924-6.818298-6.824924zm-47.728085-150.1483283h-163.639149v109.1987843h163.639149zm-95.030027 79.4847713-4.819684 4.824368c-1.278724 1.280259-3.01322 1.999525-4.821815 1.999525s-3.543091-.719266-4.821815-1.999525l-24.8654801-24.8853791c-1.2790156-1.2799663-1.9975836-3.0161486-1.9975836-4.8265009 0-1.8103524.718568-3.5465347 1.9975836-4.826501l24.8399111-24.8853792c1.278724-1.2802585 3.013221-1.9995249 4.821815-1.9995249 1.808595 0 3.543092.7192664 4.821815 1.9995249l4.845253 4.8243682c1.279016 1.2799663 1.997584 3.0161486 1.997584 4.8265009 0 1.8103524-.718568 3.5465347-1.997584 4.826501l-15.234634 15.2366429 15.234634 15.2323772c1.279016 1.2799663 1.997584 3.0161486 1.997584 4.826501 0 1.810352-.718568 3.546535-1.997584 4.826501zm65.775268-20.0482143-24.86548 24.8768483c-1.278724 1.280258-3.013221 1.999525-4.821815 1.999525-1.808595 0-3.543092-.719267-4.821816-1.999525l-4.845252-4.824368c-1.279016-1.279967-1.997584-3.016149-1.997584-4.826501 0-1.8103528.718568-3.5465351 1.997584-4.8265014l15.234634-15.2366428-15.234634-15.2323773c-1.279016-1.2799663-1.997584-3.0161486-1.997584-4.826501s.718568-3.5465346 1.997584-4.8265009l4.819684-4.8243682c1.278723-1.2802586 3.01322-1.9995249 4.821815-1.9995249s3.543091.7192663 4.821815 1.9995249l24.861219 24.8853792c1.281278 1.277702 2.002914 3.0126134 2.006121 4.8229666.003186 1.8103533-.712318 3.5478074-1.989076 4.8300353z"/></g><g transform="translate(272 52)"><path d="m85.5000001 75.15c0 1.9606109-1.5949859 3.55-3.5625003 3.55h-7.125c-1.9675144 0-3.5624999-1.5893891-3.5624999-3.55v-3.55h-28.4999999v3.55c0 1.9606109-1.5949856 3.55-3.5625 3.55h-7.125c-1.9675144 0-3.5624999-1.5893891-3.5624999-3.55v-3.55h-28.50000001v21.3c0 3.9212217 3.18997115 7.1 7.12499998 7.1h99.74999993c3.935029 0 7.125-3.1787783 7.125-7.1v-21.3h-28.4999999zm26.4137109-34.0289687-10.075196-10.0398437c-1.336067-1.3322522-3.1486067-2.0811876-5.0387105-2.0811876h-79.5996092c-1.8897842 0-3.7022791.7475303-5.0387109 2.0789688l-10.07519525 10.0420625c-1.33612672 1.3317426-2.08628915 3.1378779-2.08628915 5.0210313v18.3579374h28.5v-3.55c0-1.9606108 1.5949856-3.55 3.5625-3.55h7.125c1.9675144 0 3.5625 1.5893892 3.5625 3.55v3.55h28.4999999v-3.55c0-1.9606108 1.5949855-3.55 3.5624999-3.55h7.125c1.9675144 0 3.5625002 1.5893892 3.5625002 3.55v3.55h28.5v-18.3601562c0-1.8823846-.750708-3.6876136-2.086289-5.0188125z" opacity=".4"/><path d="m74.3125 0h-35.625c-5.9025433 0-10.6875 4.82311429-10.6875 10.7727273v17.9545454h14.25v-14.3636363h28.5v14.3636363h14.25v-17.9545454c0-5.94961301-4.7849567-10.7727273-10.6875-10.7727273zm-35.625 57.4545455h-7.125c-1.9675144 0-3.5625 1.6077047-3.5625 3.590909v14.3636364c0 1.9832043 1.5949856 3.5909091 3.5625 3.5909091h7.125c1.9675144 0 3.5625-1.6077048 3.5625-3.5909091v-14.3636364c0-1.9832043-1.5949856-3.590909-3.5625-3.590909zm42.75 0h-7.125c-1.9675144 0-3.5625 1.6077047-3.5625 3.590909v14.3636364c0 1.9832043 1.5949856 3.5909091 3.5625 3.5909091h7.125c1.9675144 0 3.5625-1.6077048 3.5625-3.5909091v-14.3636364c0-1.9832043-1.5949856-3.590909-3.5625-3.590909z"/></g></g></svg>