<svg fill="none" height="41" viewBox="0 0 39 41" width="39" xmlns="http://www.w3.org/2000/svg"><path d="m33.307 40.5h-16.7145c-1.0845 0-2.1059-.4423-2.8731-1.2493l-12.735308-13.362c-.9627549-1.0076-1.247452-2.5146-.728043-3.8323.521583-1.32 1.736431-2.1749 3.099071-2.1749h15.60618v-16.37132c0-1.42488.8128-2.699286 2.069-3.246438 1.2365-.540314 2.71-.2325405 3.6554.759178l12.7418 13.36648c.7672.8093 1.1888 1.8786 1.1888 3.0139v17.5294c-.0022 3.0709-2.3819 5.5673-5.3093 5.5673zm-16.0148-6.0232h15.5823v-16.3462l-8.1714-8.5721v16.3462h-15.58232z" fill="#fff"/></svg>