<svg xmlns="http://www.w3.org/2000/svg" xmlns:xlink="http://www.w3.org/1999/xlink" width="86" height="80" viewBox="0 0 86 80">
  <defs>
    <path id="roles-permissions-a" d="M0.5,13.84 C0.5,6.473 6.473,0.5 13.84,0.5 L62.16,0.5 C69.527,0.5 75.5,6.473 75.5,13.84 L75.5,62.16 C75.5,69.527 69.527,75.5 62.16,75.5 L13.84,75.5 C6.473,75.5 0.5,69.527 0.5,62.16 L0.5,13.84 Z"/>
    <linearGradient id="roles-permissions-c" x1="50%" x2="50%" y1="0%" y2="100%">
      <stop offset="0%" stop-color="#3F6ABC"/>
      <stop offset="100%" stop-color="#1851BE"/>
    </linearGradient>
    <filter id="roles-permissions-d" width="110.6%" height="110.6%" x="-5.3%" y="-5.3%" filterUnits="objectBoundingBox">
      <feGaussianBlur in="SourceGraphic" stdDeviation="1.05"/>
    </filter>
    <radialGradient id="roles-permissions-e" cx="57.581%" cy="0%" r="111.779%" fx="57.581%" fy="0%" gradientTransform="matrix(0 1 -.80263 0 .576 -.576)">
      <stop offset="0%" stop-color="#FFF"/>
      <stop offset="100%" stop-color="#BDCEEE"/>
    </radialGradient>
    <filter id="roles-permissions-f" width="105.4%" height="106.7%" x="-2.7%" y="-3.4%" filterUnits="objectBoundingBox">
      <feGaussianBlur in="SourceGraphic" stdDeviation=".65"/>
    </filter>
  </defs>
  <g fill="none" fill-rule="evenodd" transform="translate(2 2)">
    <mask id="roles-permissions-b" fill="#fff">
      <use xlink:href="#roles-permissions-a"/>
    </mask>
    <path d="M0.5,13.84 C0.5,6.473 6.473,0.5 13.84,0.5 L62.16,0.5 C69.527,0.5 75.5,6.473 75.5,13.84 L75.5,62.16 C75.5,69.527 69.527,75.5 62.16,75.5 L13.84,75.5 C6.473,75.5 0.5,69.527 0.5,62.16 L0.5,13.84 Z" mask="url(#roles-permissions-b)"/>
    <path d="M0.5,13.84 C0.5,6.473 6.473,0.5 13.84,0.5 L62.16,0.5 C69.527,0.5 75.5,6.473 75.5,13.84 L75.5,62.16 C75.5,69.527 69.527,75.5 62.16,75.5 L13.84,75.5 C6.473,75.5 0.5,69.527 0.5,62.16 L0.5,13.84 Z"/>
    <path d="M0.5,13.84 C0.5,6.473 6.473,0.5 13.84,0.5 L62.16,0.5 C69.527,0.5 75.5,6.473 75.5,13.84 L75.5,62.16 C75.5,69.527 69.527,75.5 62.16,75.5 L13.84,75.5 C6.473,75.5 0.5,69.527 0.5,62.16 L0.5,13.84 Z"/>
    <path fill="url(#roles-permissions-c)" fill-rule="nonzero" stroke="#FFF" stroke-opacity=".01" stroke-width="1.68" d="M0.5,13.84 C0.5,6.473 6.473,0.5 13.84,0.5 L62.16,0.5 C69.527,0.5 75.5,6.473 75.5,13.84 L75.5,62.16 C75.5,69.527 69.527,75.5 62.16,75.5 L13.84,75.5 C6.473,75.5 0.5,69.527 0.5,62.16 L0.5,13.84 Z" filter="url(#roles-permissions-d)"/>
    <path fill="url(#roles-permissions-c)" fill-rule="nonzero" stroke="#FFF" stroke-opacity=".01" stroke-width="1.68" d="M0.5,13.84 C0.5,6.473 6.473,0.5 13.84,0.5 L62.16,0.5 C69.527,0.5 75.5,6.473 75.5,13.84 L75.5,62.16 C75.5,69.527 69.527,75.5 62.16,75.5 L13.84,75.5 C6.473,75.5 0.5,69.527 0.5,62.16 L0.5,13.84 Z"/>
    <g fill="url(#roles-permissions-e)" fill-rule="nonzero" transform="translate(10 7)">
      <path d="M25.2918033,29 C33.273676,29 39.7442623,22.5081289 39.7442623,14.5 C39.7442623,6.49187113 33.273676,0 25.2918033,0 C17.3099306,0 10.8393443,6.49187113 10.8393443,14.5 C10.8393443,22.5081289 17.3099306,29 25.2918033,29 Z M36.1311475,36.25 C36.1393064,35.0391665 36.4540107,33.8502707 37.0457172,32.7949219 C36.50375,32.7382812 35.9730738,32.625 35.4085246,32.625 L33.5229303,32.625 C28.2998306,35.041595 22.283776,35.041595 17.0606762,32.625 L15.175082,32.625 C6.7948903,32.6268761 0.00186995247,39.4422419 0,47.85 L0,52.5625 C0,55.5655483 2.42646986,58 5.41967213,58 L37.1360451,58 C36.4866524,56.9024303 36.139837,55.6513515 36.1311475,54.375 L36.1311475,36.25 Z M68.6491803,32.625 L65.0360656,32.625 L65.0360656,23.5625 C65.0360656,18.5574195 60.9919491,14.5 56.0032787,14.5 C51.0146082,14.5 46.9704918,18.5574195 46.9704918,23.5625 L46.9704918,32.625 L43.357377,32.625 C41.3619089,32.625 39.7442623,34.2479678 39.7442623,36.25 L39.7442623,54.375 C39.7442623,56.3770322 41.3619089,58 43.357377,58 L68.6491803,58 C70.6446485,58 72.2622951,56.3770322 72.2622951,54.375 L72.2622951,36.25 C72.2622951,34.2479678 70.6446485,32.625 68.6491803,32.625 Z M56.0032787,48.9375 C54.0078105,48.9375 52.3901639,47.3145322 52.3901639,45.3125 C52.3901639,43.3104678 54.0078105,41.6875 56.0032787,41.6875 C57.9987469,41.6875 59.6163934,43.3104678 59.6163934,45.3125 C59.6163934,47.3145322 57.9987469,48.9375 56.0032787,48.9375 Z M59.6163934,32.625 L52.3901639,32.625 L52.3901639,23.5625 C52.3901639,21.5604678 54.0078105,19.9375 56.0032787,19.9375 C57.9987469,19.9375 59.6163934,21.5604678 59.6163934,23.5625 L59.6163934,32.625 Z" filter="url(#roles-permissions-f)"/>
      <path d="M25.2918033,29 C33.273676,29 39.7442623,22.5081289 39.7442623,14.5 C39.7442623,6.49187113 33.273676,0 25.2918033,0 C17.3099306,0 10.8393443,6.49187113 10.8393443,14.5 C10.8393443,22.5081289 17.3099306,29 25.2918033,29 Z M36.1311475,36.25 C36.1393064,35.0391665 36.4540107,33.8502707 37.0457172,32.7949219 C36.50375,32.7382812 35.9730738,32.625 35.4085246,32.625 L33.5229303,32.625 C28.2998306,35.041595 22.283776,35.041595 17.0606762,32.625 L15.175082,32.625 C6.7948903,32.6268761 0.00186995247,39.4422419 0,47.85 L0,52.5625 C0,55.5655483 2.42646986,58 5.41967213,58 L37.1360451,58 C36.4866524,56.9024303 36.139837,55.6513515 36.1311475,54.375 L36.1311475,36.25 Z M68.6491803,32.625 L65.0360656,32.625 L65.0360656,23.5625 C65.0360656,18.5574195 60.9919491,14.5 56.0032787,14.5 C51.0146082,14.5 46.9704918,18.5574195 46.9704918,23.5625 L46.9704918,32.625 L43.357377,32.625 C41.3619089,32.625 39.7442623,34.2479678 39.7442623,36.25 L39.7442623,54.375 C39.7442623,56.3770322 41.3619089,58 43.357377,58 L68.6491803,58 C70.6446485,58 72.2622951,56.3770322 72.2622951,54.375 L72.2622951,36.25 C72.2622951,34.2479678 70.6446485,32.625 68.6491803,32.625 Z M56.0032787,48.9375 C54.0078105,48.9375 52.3901639,47.3145322 52.3901639,45.3125 C52.3901639,43.3104678 54.0078105,41.6875 56.0032787,41.6875 C57.9987469,41.6875 59.6163934,43.3104678 59.6163934,45.3125 C59.6163934,47.3145322 57.9987469,48.9375 56.0032787,48.9375 Z M59.6163934,32.625 L52.3901639,32.625 L52.3901639,23.5625 C52.3901639,21.5604678 54.0078105,19.9375 56.0032787,19.9375 C57.9987469,19.9375 59.6163934,21.5604678 59.6163934,23.5625 L59.6163934,32.625 Z"/>
    </g>
  </g>
</svg>
