<svg height="80" viewBox="0 0 86 80" width="86" xmlns="http://www.w3.org/2000/svg" xmlns:xlink="http://www.w3.org/1999/xlink"><linearGradient id="a" x1="50%" x2="50%" y1="0%" y2="100%"><stop offset="0" stop-color="#3f6abc"/><stop offset="1" stop-color="#1851be"/></linearGradient><filter id="b" height="110.6%" width="110.6%" x="-5.3%" y="-5.3%"><feGaussianBlur in="SourceGraphic" stdDeviation="1.05"/></filter><radialGradient id="c" cx="57.581%" cy="0%" gradientTransform="matrix(0 1 -.80263 0 .576 -.576)" r="111.779%"><stop offset="0" stop-color="#fff"/><stop offset="1" stop-color="#bdceee"/></radialGradient><filter id="d" height="106.7%" width="105.4%" x="-2.7%" y="-3.4%"><feGaussianBlur in="SourceGraphic" stdDeviation=".65"/></filter><mask id="e" fill="#fff"><path d="m.5 13.84c0-7.367 5.973-13.34 13.34-13.34h48.32c7.367 0 13.34 5.973 13.34 13.34v48.32c0 7.367-5.973 13.34-13.34 13.34h-48.32c-7.367 0-13.34-5.973-13.34-13.34z" fill="#fff" fill-rule="evenodd"/></mask><g fill="none" fill-rule="evenodd" transform="translate(2 2)"><path d="m.5 13.84c0-7.367 5.973-13.34 13.34-13.34h48.32c7.367 0 13.34 5.973 13.34 13.34v48.32c0 7.367-5.973 13.34-13.34 13.34h-48.32c-7.367 0-13.34-5.973-13.34-13.34z" mask="url(#e)"/><path d="m.5 13.84c0-7.367 5.973-13.34 13.34-13.34h48.32c7.367 0 13.34 5.973 13.34 13.34v48.32c0 7.367-5.973 13.34-13.34 13.34h-48.32c-7.367 0-13.34-5.973-13.34-13.34z"/><path d="m.5 13.84c0-7.367 5.973-13.34 13.34-13.34h48.32c7.367 0 13.34 5.973 13.34 13.34v48.32c0 7.367-5.973 13.34-13.34 13.34h-48.32c-7.367 0-13.34-5.973-13.34-13.34z"/><g fill-rule="nonzero"><path d="m.5 13.84c0-7.367 5.973-13.34 13.34-13.34h48.32c7.367 0 13.34 5.973 13.34 13.34v48.32c0 7.367-5.973 13.34-13.34 13.34h-48.32c-7.367 0-13.34-5.973-13.34-13.34z" fill="url(#a)" filter="url(#b)" stroke="#fff" stroke-opacity=".01" stroke-width="1.68"/><path d="m.5 13.84c0-7.367 5.973-13.34 13.34-13.34h48.32c7.367 0 13.34 5.973 13.34 13.34v48.32c0 7.367-5.973 13.34-13.34 13.34h-48.32c-7.367 0-13.34-5.973-13.34-13.34z" fill="url(#a)" stroke="#fff" stroke-opacity=".01" stroke-width="1.68"/><g fill="url(#c)" transform="translate(10 7)"><path d="m25.2918033 29c7.9818727 0 14.452459-6.4918711 14.452459-14.5 0-8.00812887-6.4705863-14.5-14.452459-14.5s-14.452459 6.49187113-14.452459 14.5c0 8.0081289 6.4705863 14.5 14.452459 14.5zm10.8393442 7.25c.0081589-1.2108335.3228632-2.3997293.9145697-3.4550781-.5419672-.0566407-1.0726434-.1699219-1.6371926-.1699219h-1.8855943c-5.2230997 2.416595-11.2391543 2.416595-16.4622541 0h-1.8855942c-8.3801917.0018761-15.17321205 6.8172419-15.175082 15.225v4.7125c0 3.0030483 2.42646986 5.4375 5.41967213 5.4375h31.71637297c-.6493927-1.0975697-.9962081-2.3486485-1.0048976-3.625zm32.5180328-3.625h-3.6131147v-9.0625c0-5.0050805-4.0441165-9.0625-9.0327869-9.0625-4.9886705 0-9.0327869 4.0574195-9.0327869 9.0625v9.0625h-3.6131148c-1.9954681 0-3.6131147 1.6229678-3.6131147 3.625v18.125c0 2.0020322 1.6176466 3.625 3.6131147 3.625h25.2918033c1.9954682 0 3.6131148-1.6229678 3.6131148-3.625v-18.125c0-2.0020322-1.6176466-3.625-3.6131148-3.625zm-12.6459016 16.3125c-1.9954682 0-3.6131148-1.6229678-3.6131148-3.625s1.6176466-3.625 3.6131148-3.625 3.6131147 1.6229678 3.6131147 3.625-1.6176465 3.625-3.6131147 3.625zm3.6131147-16.3125h-7.2262295v-9.0625c0-2.0020322 1.6176466-3.625 3.6131148-3.625s3.6131147 1.6229678 3.6131147 3.625z" filter="url(#d)"/><path d="m25.2918033 29c7.9818727 0 14.452459-6.4918711 14.452459-14.5 0-8.00812887-6.4705863-14.5-14.452459-14.5s-14.452459 6.49187113-14.452459 14.5c0 8.0081289 6.4705863 14.5 14.452459 14.5zm10.8393442 7.25c.0081589-1.2108335.3228632-2.3997293.9145697-3.4550781-.5419672-.0566407-1.0726434-.1699219-1.6371926-.1699219h-1.8855943c-5.2230997 2.416595-11.2391543 2.416595-16.4622541 0h-1.8855942c-8.3801917.0018761-15.17321205 6.8172419-15.175082 15.225v4.7125c0 3.0030483 2.42646986 5.4375 5.41967213 5.4375h31.71637297c-.6493927-1.0975697-.9962081-2.3486485-1.0048976-3.625zm32.5180328-3.625h-3.6131147v-9.0625c0-5.0050805-4.0441165-9.0625-9.0327869-9.0625-4.9886705 0-9.0327869 4.0574195-9.0327869 9.0625v9.0625h-3.6131148c-1.9954681 0-3.6131147 1.6229678-3.6131147 3.625v18.125c0 2.0020322 1.6176466 3.625 3.6131147 3.625h25.2918033c1.9954682 0 3.6131148-1.6229678 3.6131148-3.625v-18.125c0-2.0020322-1.6176466-3.625-3.6131148-3.625zm-12.6459016 16.3125c-1.9954682 0-3.6131148-1.6229678-3.6131148-3.625s1.6176466-3.625 3.6131148-3.625 3.6131147 1.6229678 3.6131147 3.625-1.6176465 3.625-3.6131147 3.625zm3.6131147-16.3125h-7.2262295v-9.0625c0-2.0020322 1.6176466-3.625 3.6131148-3.625s3.6131147 1.6229678 3.6131147 3.625z"/></g></g></g></svg>