<svg xmlns="http://www.w3.org/2000/svg" xmlns:xlink="http://www.w3.org/1999/xlink" width="77" height="72" viewBox="0 0 77 72">
  <defs>
    <path id="ssl-encryption-a" d="M0.5,13.84 C0.5,6.473 6.473,0.5 13.84,0.5 L62.16,0.5 C69.527,0.5 75.5,6.473 75.5,13.84 L75.5,62.16 C75.5,69.527 69.527,75.5 62.16,75.5 L13.84,75.5 C6.473,75.5 0.5,69.527 0.5,62.16 L0.5,13.84 Z"/>
    <linearGradient id="ssl-encryption-c" x1="0%" x2="0%" y1="0%" y2="105.733%">
      <stop offset="0%" stop-color="#3C3F4A"/>
      <stop offset="100%" stop-color="#2A2F45"/>
    </linearGradient>
    <filter id="ssl-encryption-d" width="108%" height="108%" x="-4%" y="-4%" filterUnits="objectBoundingBox">
      <feGaussianBlur in="SourceGraphic" stdDeviation=".65"/>
    </filter>
    <linearGradient id="ssl-encryption-e" x1="0%" x2="0%" y1="0%" y2="104.976%">
      <stop offset="0%" stop-color="#2A2F45"/>
      <stop offset="100%" stop-color="#1A1F36"/>
    </linearGradient>
    <radialGradient id="ssl-encryption-f" cx="57.589%" cy="6.679%" r="115.094%" fx="57.589%" fy="6.679%" gradientTransform="matrix(0 .86885 -1 0 .643 -.434)">
      <stop offset="0%" stop-color="#FFF"/>
      <stop offset="100%" stop-color="#AEC3EB"/>
    </radialGradient>
    <filter id="ssl-encryption-g" width="111.2%" height="109.8%" x="-5.6%" y="-4.9%" filterUnits="objectBoundingBox">
      <feGaussianBlur in="SourceGraphic" stdDeviation=".65"/>
    </filter>
    <radialGradient id="ssl-encryption-h" cx="57.589%" cy="6.679%" r="195.416%" fx="57.589%" fy="6.679%" gradientTransform="matrix(0 .86885 -1 0 .643 -.434)">
      <stop offset="0%" stop-color="#FFF"/>
      <stop offset="100%" stop-color="#AEC3EB"/>
    </radialGradient>
  </defs>
  <g fill="none" fill-rule="evenodd" transform="translate(1 -1)">
    <mask id="ssl-encryption-b" fill="#fff">
      <use xlink:href="#ssl-encryption-a"/>
    </mask>
    <path d="M0.5,13.84 C0.5,6.473 6.473,0.5 13.84,0.5 L62.16,0.5 C69.527,0.5 75.5,6.473 75.5,13.84 L75.5,62.16 C75.5,69.527 69.527,75.5 62.16,75.5 L13.84,75.5 C6.473,75.5 0.5,69.527 0.5,62.16 L0.5,13.84 Z" mask="url(#ssl-encryption-b)"/>
    <path d="M0.5,13.84 C0.5,6.473 6.473,0.5 13.84,0.5 L62.16,0.5 C69.527,0.5 75.5,6.473 75.5,13.84 L75.5,62.16 C75.5,69.527 69.527,75.5 62.16,75.5 L13.84,75.5 C6.473,75.5 0.5,69.527 0.5,62.16 L0.5,13.84 Z"/>
    <path d="M0.5,13.84 C0.5,6.473 6.473,0.5 13.84,0.5 L62.16,0.5 C69.527,0.5 75.5,6.473 75.5,13.84 L75.5,62.16 C75.5,69.527 69.527,75.5 62.16,75.5 L13.84,75.5 C6.473,75.5 0.5,69.527 0.5,62.16 L0.5,13.84 Z"/>
    <g fill-rule="nonzero" transform="translate(0 2)">
      <g stroke="#FFF" stroke-opacity=".01" stroke-width="1.68" transform="translate(5)">
        <path fill="url(#ssl-encryption-c)" d="M47.4994959,21.4516129 C45.4527122,8.84879032 40.625126,0 35.0070579,0 C29.3889897,0 24.5614035,8.84879032 22.5146199,21.4516129 L47.4994959,21.4516129 Z M21.4559387,35 C21.4559387,38.1330645 21.6253277,41.1391129 21.9217584,44.0322581 L48.0782416,44.0322581 C48.3746723,41.1391129 48.5440613,38.1330645 48.5440613,35 C48.5440613,31.8669355 48.3746723,28.8608871 48.0782416,25.9677419 L21.9217584,25.9677419 C21.6253277,28.8608871 21.4559387,31.8669355 21.4559387,35 Z M67.2897762,21.4516129 C63.2526719,11.8689516 55.0796532,4.45967742 44.9868925,1.46774194 C48.4311353,6.23790323 50.8025812,13.421371 52.0447671,21.4516129 L67.2897762,21.4516129 Z M25.0131075,1.46774194 C14.9344626,4.45967742 6.74732809,11.8689516 2.72433958,21.4516129 L17.9693487,21.4516129 C19.1974188,13.421371 21.5688647,6.23790323 25.0131075,1.46774194 Z M68.8001613,25.9677419 L52.6093971,25.9677419 C52.9058278,28.9314516 53.0752168,31.9657258 53.0752168,35 C53.0752168,38.0342742 52.9058278,41.0685484 52.6093971,44.0322581 L68.7860456,44.0322581 C69.5624118,41.1391129 70,38.1330645 70,35 C70,31.8669355 69.5624118,28.8608871 68.8001613,25.9677419 Z M16.938899,35 C16.938899,31.9657258 17.108288,28.9314516 17.4047187,25.9677419 L1.21395443,25.9677419 C0.451703973,28.8608871 0,31.8669355 0,35 C0,38.1330645 0.451703973,41.1391129 1.21395443,44.0322581 L17.3906029,44.0322581 C17.108288,41.0685484 16.938899,38.0342742 16.938899,35 Z M22.5146199,48.5483871 C24.5614035,61.1512097 29.3889897,70 35.0070579,70 C40.625126,70 45.4527122,61.1512097 47.4994959,48.5483871 L22.5146199,48.5483871 Z M45.0010083,68.5322581 C55.0796532,65.5403226 63.2667877,58.1310484 67.3038919,48.5483871 L52.0588828,48.5483871 C50.8166969,56.578629 48.4452511,63.7620968 45.0010083,68.5322581 Z M2.72433958,48.5483871 C6.76144384,58.1310484 14.9344626,65.5403226 25.0272232,68.5322581 C21.5829804,63.7620968 19.2115346,56.578629 17.9693487,48.5483871 L2.72433958,48.5483871 Z" filter="url(#ssl-encryption-d)"/>
        <path fill="url(#ssl-encryption-e)" d="M47.4994959,21.4516129 C45.4527122,8.84879032 40.625126,0 35.0070579,0 C29.3889897,0 24.5614035,8.84879032 22.5146199,21.4516129 L47.4994959,21.4516129 Z M21.4559387,35 C21.4559387,38.1330645 21.6253277,41.1391129 21.9217584,44.0322581 L48.0782416,44.0322581 C48.3746723,41.1391129 48.5440613,38.1330645 48.5440613,35 C48.5440613,31.8669355 48.3746723,28.8608871 48.0782416,25.9677419 L21.9217584,25.9677419 C21.6253277,28.8608871 21.4559387,31.8669355 21.4559387,35 Z M67.2897762,21.4516129 C63.2526719,11.8689516 55.0796532,4.45967742 44.9868925,1.46774194 C48.4311353,6.23790323 50.8025812,13.421371 52.0447671,21.4516129 L67.2897762,21.4516129 Z M25.0131075,1.46774194 C14.9344626,4.45967742 6.74732809,11.8689516 2.72433958,21.4516129 L17.9693487,21.4516129 C19.1974188,13.421371 21.5688647,6.23790323 25.0131075,1.46774194 Z M68.8001613,25.9677419 L52.6093971,25.9677419 C52.9058278,28.9314516 53.0752168,31.9657258 53.0752168,35 C53.0752168,38.0342742 52.9058278,41.0685484 52.6093971,44.0322581 L68.7860456,44.0322581 C69.5624118,41.1391129 70,38.1330645 70,35 C70,31.8669355 69.5624118,28.8608871 68.8001613,25.9677419 Z M16.938899,35 C16.938899,31.9657258 17.108288,28.9314516 17.4047187,25.9677419 L1.21395443,25.9677419 C0.451703973,28.8608871 0,31.8669355 0,35 C0,38.1330645 0.451703973,41.1391129 1.21395443,44.0322581 L17.3906029,44.0322581 C17.108288,41.0685484 16.938899,38.0342742 16.938899,35 Z M22.5146199,48.5483871 C24.5614035,61.1512097 29.3889897,70 35.0070579,70 C40.625126,70 45.4527122,61.1512097 47.4994959,48.5483871 L22.5146199,48.5483871 Z M45.0010083,68.5322581 C55.0796532,65.5403226 63.2667877,58.1310484 67.3038919,48.5483871 L52.0588828,48.5483871 C50.8166969,56.578629 48.4452511,63.7620968 45.0010083,68.5322581 Z M2.72433958,48.5483871 C6.76144384,58.1310484 14.9344626,65.5403226 25.0272232,68.5322581 C21.5829804,63.7620968 19.2115346,56.578629 17.9693487,48.5483871 L2.72433958,48.5483871 Z"/>
      </g>
      <path fill="url(#ssl-encryption-f)" d="M31.030445,22.5 L29.1686183,22.5 L29.1686183,16.875 C29.1686183,10.328125 23.8779274,5 17.3770492,5 C10.876171,5 5.58548009,10.328125 5.58548009,16.875 L5.58548009,22.5 L3.7236534,22.5 C1.66788642,22.5 9.23705556e-14,24.1796875 9.23705556e-14,26.25 L9.23705556e-14,41.25 C9.23705556e-14,43.3203125 1.66788642,45 3.7236534,45 L31.030445,45 C33.0862119,45 34.7540984,43.3203125 34.7540984,41.25 L34.7540984,26.25 C34.7540984,24.1796875 33.0862119,22.5 31.030445,22.5 Z M20.9836066,35.8196721 C20.9836066,37.6311475 19.5163934,39.0983607 17.704918,39.0983607 C15.8934426,39.0983607 14.4262295,37.6311475 14.4262295,35.8196721 L14.4262295,31.8852459 C14.4262295,30.0737705 15.8934426,28.6065574 17.704918,28.6065574 C19.5163934,28.6065574 20.9836066,30.0737705 20.9836066,31.8852459 L20.9836066,35.8196721 Z M22.9285913,22.704918 L11.7810503,22.704918 L11.7810503,17.1311475 C11.7810503,14.0578324 14.2815057,11.557377 17.3548208,11.557377 C20.4281359,11.557377 22.9285913,14.0578324 22.9285913,17.1311475 L22.9285913,22.704918 Z" filter="url(#ssl-encryption-g)"/>
      <path fill="url(#ssl-encryption-h)" d="M31.030445,22.5 L29.1686183,22.5 L29.1686183,16.875 C29.1686183,10.328125 23.8779274,5 17.3770492,5 C10.876171,5 5.58548009,10.328125 5.58548009,16.875 L5.58548009,22.5 L3.7236534,22.5 C1.66788642,22.5 0,24.1796875 0,26.25 L0,41.25 C0,43.3203125 1.66788642,45 3.7236534,45 L31.030445,45 C33.0862119,45 34.7540984,43.3203125 34.7540984,41.25 L34.7540984,26.25 C34.7540984,24.1796875 33.0862119,22.5 31.030445,22.5 Z M20.9836066,35.8196721 C20.9836066,37.6311475 19.5163934,39.0983607 17.704918,39.0983607 C15.8934426,39.0983607 14.4262295,37.6311475 14.4262295,35.8196721 L14.4262295,31.8852459 C14.4262295,30.0737705 15.8934426,28.6065574 17.704918,28.6065574 C19.5163934,28.6065574 20.9836066,30.0737705 20.9836066,31.8852459 L20.9836066,35.8196721 Z M22.9285913,22.704918 L11.7810503,22.704918 L11.7810503,17.1311475 C11.7810503,14.0578324 14.2815057,11.557377 17.3548208,11.557377 C20.4281359,11.557377 22.9285913,14.0578324 22.9285913,17.1311475 L22.9285913,22.704918 Z"/>
    </g>
  </g>
</svg>
