<svg height="72" viewBox="0 0 77 72" width="77" xmlns="http://www.w3.org/2000/svg" xmlns:xlink="http://www.w3.org/1999/xlink"><linearGradient id="a" x1="0%" x2="0%" y1="0%" y2="105.733%"><stop offset="0" stop-color="#3c3f4a"/><stop offset="1" stop-color="#2a2f45"/></linearGradient><filter id="b" height="108%" width="108%" x="-4%" y="-4%"><feGaussianBlur in="SourceGraphic" stdDeviation=".65"/></filter><linearGradient id="c" x1="0%" x2="0%" y1="0%" y2="104.976%"><stop offset="0" stop-color="#2a2f45"/><stop offset="1" stop-color="#1a1f36"/></linearGradient><linearGradient id="d"><stop offset="0" stop-color="#fff"/><stop offset="1" stop-color="#aec3eb"/></linearGradient><radialGradient id="e" cx="57.589%" cy="6.679%" gradientTransform="matrix(0 .86885 -1 0 .643 -.434)" r="115.094%" xlink:href="#d"/><filter id="f" height="109.8%" width="111.2%" x="-5.6%" y="-4.9%"><feGaussianBlur in="SourceGraphic" stdDeviation=".65"/></filter><radialGradient id="g" cx="57.589%" cy="6.679%" gradientTransform="matrix(0 .86885 -1 0 .643 -.434)" r="195.416%" xlink:href="#d"/><mask id="h" fill="#fff"><path d="m.5 13.84c0-7.367 5.973-13.34 13.34-13.34h48.32c7.367 0 13.34 5.973 13.34 13.34v48.32c0 7.367-5.973 13.34-13.34 13.34h-48.32c-7.367 0-13.34-5.973-13.34-13.34z" fill="#fff" fill-rule="evenodd"/></mask><g fill="none" fill-rule="evenodd" transform="translate(1 -1)"><path d="m.5 13.84c0-7.367 5.973-13.34 13.34-13.34h48.32c7.367 0 13.34 5.973 13.34 13.34v48.32c0 7.367-5.973 13.34-13.34 13.34h-48.32c-7.367 0-13.34-5.973-13.34-13.34z" mask="url(#h)"/><path d="m.5 13.84c0-7.367 5.973-13.34 13.34-13.34h48.32c7.367 0 13.34 5.973 13.34 13.34v48.32c0 7.367-5.973 13.34-13.34 13.34h-48.32c-7.367 0-13.34-5.973-13.34-13.34z"/><path d="m.5 13.84c0-7.367 5.973-13.34 13.34-13.34h48.32c7.367 0 13.34 5.973 13.34 13.34v48.32c0 7.367-5.973 13.34-13.34 13.34h-48.32c-7.367 0-13.34-5.973-13.34-13.34z"/><g fill-rule="nonzero" transform="translate(0 2)"><g stroke="#fff" stroke-opacity=".01" stroke-width="1.68" transform="translate(5)"><path d="m47.4994959 21.4516129c-2.0467837-12.60282258-6.8743699-21.4516129-12.492438-21.4516129-5.6180682 0-10.4456544 8.84879032-12.492438 21.4516129zm-26.0435572 13.5483871c0 3.1330645.169389 6.1391129.4658197 9.0322581h26.1564832c.2964307-2.8931452.4658197-5.8991936.4658197-9.0322581s-.169389-6.1391129-.4658197-9.0322581h-26.1564832c-.2964307 2.8931452-.4658197 5.8991936-.4658197 9.0322581zm45.8338375-13.5483871c-4.0371043-9.5826613-12.210123-16.99193548-22.3028837-19.98387096 3.4442428 4.77016129 5.8156887 11.95362906 7.0578746 19.98387096zm-42.2766687-19.98387096c-10.0786449 2.99193548-18.26577941 10.40120966-22.28876792 19.98387096h15.24500912c1.2280701-8.0302419 3.599516-15.21370967 7.0437588-19.98387096zm43.7870538 24.49999996h-16.1907642c.2964307 2.9637097.4658197 5.9979839.4658197 9.0322581s-.169389 6.0685484-.4658197 9.0322581h16.1766485c.7763662-2.8931452 1.2139544-5.8991936 1.2139544-9.0322581s-.4375882-6.1391129-1.1998387-9.0322581zm-51.8612623 9.0322581c0-3.0342742.169389-6.0685484.4658197-9.0322581h-16.19076427c-.76225046 2.8931452-1.21395443 5.8991936-1.21395443 9.0322581s.45170397 6.1391129 1.21395443 9.0322581h16.17664847c-.2823149-2.9637097-.4517039-5.9979839-.4517039-9.0322581zm5.5757209 13.5483871c2.0467836 12.6028226 6.8743698 21.4516129 12.492438 21.4516129 5.6180681 0 10.4456543-8.8487903 12.492438-21.4516129zm22.4863884 19.983871c10.0786449-2.9919355 18.2657794-10.4012097 22.3028836-19.983871h-15.2450091c-1.2421859 8.0302419-3.6136317 15.2137097-7.0578745 19.983871zm-42.27666872-19.983871c4.03710426 9.5826613 12.21012302 16.9919355 22.30288362 19.983871-3.4442428-4.7701613-5.8156886-11.9536291-7.0578745-19.983871z" fill="url(#a)" filter="url(#b)"/><path d="m47.4994959 21.4516129c-2.0467837-12.60282258-6.8743699-21.4516129-12.492438-21.4516129-5.6180682 0-10.4456544 8.84879032-12.492438 21.4516129zm-26.0435572 13.5483871c0 3.1330645.169389 6.1391129.4658197 9.0322581h26.1564832c.2964307-2.8931452.4658197-5.8991936.4658197-9.0322581s-.169389-6.1391129-.4658197-9.0322581h-26.1564832c-.2964307 2.8931452-.4658197 5.8991936-.4658197 9.0322581zm45.8338375-13.5483871c-4.0371043-9.5826613-12.210123-16.99193548-22.3028837-19.98387096 3.4442428 4.77016129 5.8156887 11.95362906 7.0578746 19.98387096zm-42.2766687-19.98387096c-10.0786449 2.99193548-18.26577941 10.40120966-22.28876792 19.98387096h15.24500912c1.2280701-8.0302419 3.599516-15.21370967 7.0437588-19.98387096zm43.7870538 24.49999996h-16.1907642c.2964307 2.9637097.4658197 5.9979839.4658197 9.0322581s-.169389 6.0685484-.4658197 9.0322581h16.1766485c.7763662-2.8931452 1.2139544-5.8991936 1.2139544-9.0322581s-.4375882-6.1391129-1.1998387-9.0322581zm-51.8612623 9.0322581c0-3.0342742.169389-6.0685484.4658197-9.0322581h-16.19076427c-.76225046 2.8931452-1.21395443 5.8991936-1.21395443 9.0322581s.45170397 6.1391129 1.21395443 9.0322581h16.17664847c-.2823149-2.9637097-.4517039-5.9979839-.4517039-9.0322581zm5.5757209 13.5483871c2.0467836 12.6028226 6.8743698 21.4516129 12.492438 21.4516129 5.6180681 0 10.4456543-8.8487903 12.492438-21.4516129zm22.4863884 19.983871c10.0786449-2.9919355 18.2657794-10.4012097 22.3028836-19.983871h-15.2450091c-1.2421859 8.0302419-3.6136317 15.2137097-7.0578745 19.983871zm-42.27666872-19.983871c4.03710426 9.5826613 12.21012302 16.9919355 22.30288362 19.983871-3.4442428-4.7701613-5.8156886-11.9536291-7.0578745-19.983871z" fill="url(#c)"/></g><path d="m31.030445 22.5h-1.8618267v-5.625c0-6.546875-5.2906909-11.875-11.7915691-11.875s-11.79156911 5.328125-11.79156911 11.875v5.625h-1.86182669c-2.05576698 0-3.7236534 1.6796875-3.7236534 3.75v15c0 2.0703125 1.66788642 3.75 3.7236534 3.75h27.3067916c2.0557669 0 3.7236534-1.6796875 3.7236534-3.75v-15c0-2.0703125-1.6678865-3.75-3.7236534-3.75zm-10.0468384 13.3196721c0 1.8114754-1.4672132 3.2786886-3.2786886 3.2786886s-3.2786885-1.4672132-3.2786885-3.2786886v-3.9344262c0-1.8114754 1.4672131-3.2786885 3.2786885-3.2786885s3.2786886 1.4672131 3.2786886 3.2786885zm1.9449847-13.1147541h-11.147541v-5.5737705c0-3.0733151 2.5004554-5.5737705 5.5737705-5.5737705s5.5737705 2.5004554 5.5737705 5.5737705z" fill="url(#e)" filter="url(#f)"/><path d="m31.030445 22.5h-1.8618267v-5.625c0-6.546875-5.2906909-11.875-11.7915691-11.875s-11.79156911 5.328125-11.79156911 11.875v5.625h-1.86182669c-2.05576698 0-3.7236534 1.6796875-3.7236534 3.75v15c0 2.0703125 1.66788642 3.75 3.7236534 3.75h27.3067916c2.0557669 0 3.7236534-1.6796875 3.7236534-3.75v-15c0-2.0703125-1.6678865-3.75-3.7236534-3.75zm-10.0468384 13.3196721c0 1.8114754-1.4672132 3.2786886-3.2786886 3.2786886s-3.2786885-1.4672132-3.2786885-3.2786886v-3.9344262c0-1.8114754 1.4672131-3.2786885 3.2786885-3.2786885s3.2786886 1.4672131 3.2786886 3.2786885zm1.9449847-13.1147541h-11.147541v-5.5737705c0-3.0733151 2.5004554-5.5737705 5.5737705-5.5737705s5.5737705 2.5004554 5.5737705 5.5737705z" fill="url(#g)"/></g></g></svg>