<svg height="80" viewBox="0 0 80 80" width="80" xmlns="http://www.w3.org/2000/svg" xmlns:xlink="http://www.w3.org/1999/xlink"><linearGradient id="a" x1="50%" x2="50%" y1="0%" y2="100%"><stop offset="0" stop-color="#3f6abc"/><stop offset="1" stop-color="#1851be"/></linearGradient><filter id="b" height="110.6%" width="110.6%" x="-5.3%" y="-5.3%"><feGaussianBlur in="SourceGraphic" stdDeviation="1.05"/></filter><radialGradient id="c" cx="50%" cy="17.854%" gradientTransform="matrix(0 .8772 -1 0 .679 -.26)" r="114%"><stop offset="0" stop-color="#fff"/><stop offset="1" stop-color="#aec3eb"/></radialGradient><filter id="d" height="106.8%" width="107.8%" x="-3.9%" y="-3.4%"><feGaussianBlur in="SourceGraphic" stdDeviation=".65"/></filter><mask id="e" fill="#fff"><path d="m.5 13.84c0-7.367 5.973-13.34 13.34-13.34h48.32c7.367 0 13.34 5.973 13.34 13.34v48.32c0 7.367-5.973 13.34-13.34 13.34h-48.32c-7.367 0-13.34-5.973-13.34-13.34z" fill="#fff" fill-rule="evenodd"/></mask><g fill="none" fill-rule="evenodd" transform="translate(2 2)"><path d="m.5 13.84c0-7.367 5.973-13.34 13.34-13.34h48.32c7.367 0 13.34 5.973 13.34 13.34v48.32c0 7.367-5.973 13.34-13.34 13.34h-48.32c-7.367 0-13.34-5.973-13.34-13.34z" mask="url(#e)"/><path d="m.5 13.84c0-7.367 5.973-13.34 13.34-13.34h48.32c7.367 0 13.34 5.973 13.34 13.34v48.32c0 7.367-5.973 13.34-13.34 13.34h-48.32c-7.367 0-13.34-5.973-13.34-13.34z"/><path d="m.5 13.84c0-7.367 5.973-13.34 13.34-13.34h48.32c7.367 0 13.34 5.973 13.34 13.34v48.32c0 7.367-5.973 13.34-13.34 13.34h-48.32c-7.367 0-13.34-5.973-13.34-13.34z"/><g fill-rule="nonzero"><path d="m.5 13.84c0-7.367 5.973-13.34 13.34-13.34h48.32c7.367 0 13.34 5.973 13.34 13.34v48.32c0 7.367-5.973 13.34-13.34 13.34h-48.32c-7.367 0-13.34-5.973-13.34-13.34z" fill="url(#a)" filter="url(#b)" stroke="#fff" stroke-opacity=".01" stroke-width="1.68"/><path d="m.5 13.84c0-7.367 5.973-13.34 13.34-13.34h48.32c7.367 0 13.34 5.973 13.34 13.34v48.32c0 7.367-5.973 13.34-13.34 13.34h-48.32c-7.367 0-13.34-5.973-13.34-13.34z" fill="url(#a)" stroke="#fff" stroke-opacity=".01" stroke-width="1.68"/><g fill="url(#c)" transform="translate(13 9)"><path d="m35.7142857 39.1875h-2.578125c-5.1628384 2.3749296-11.109483 2.3749296-16.2723214 0h-2.578125c-7.88978215 0-14.2857143 6.3799423-14.2857143 14.25 0 1.9675144 1.59898304 3.5625 3.57142857 3.5625h42.85714283c1.9724456 0 3.5714286-1.5949856 3.5714286-3.5625 0-7.8700577-6.3959321-14.25-14.2857143-14.25zm-30.35714284-14.25c.98622276 0 1.78571428-.7974928 1.78571428-1.78125v-1.78125c0-9.8213672 8.01116076-17.8125 17.85714286-17.8125s17.8571429 7.9911328 17.8571429 17.8125v1.78125c-.0055356 4.9164971-3.9997524 8.9007283-8.9285715 8.90625h-3.5714285c0-1.9675144-1.5989831-3.5625-3.5714286-3.5625h-3.5714286c-1.9724455 0-3.5714286 1.5949856-3.5714286 3.5625s1.5989831 3.5625 3.5714286 3.5625h10.7142857c6.8999904-.0085873 12.4913912-5.5860097 12.5-12.46875v-1.78125c0-11.78630859-9.6127232-21.375-21.4285714-21.375s-21.42857143 9.58869141-21.42857143 21.375v1.78125c0 .9837572.79949152 1.78125 1.78571429 1.78125zm17.85714284 0h3.5714286c2.551274.0006214 4.9085148 1.3585555 6.1841518 3.5625h.9587053c2.9573934-.0030681 5.3540671-2.3937502 5.3571429-5.34375v-1.78125c0-7.8700577-6.3959322-14.25-14.2857143-14.25s-14.2857143 6.3799423-14.2857143 14.25c0 4.4998828 2.1316964 8.4609375 5.3962054 11.0738086-.0066965-.1302539-.0390625-.2538281-.0390625-.3863086.0043057-3.9332484 3.1997509-7.1207051 7.1428571-7.125z" filter="url(#d)"/><path d="m35.7142857 39.1875h-2.578125c-5.1628384 2.3749296-11.109483 2.3749296-16.2723214 0h-2.578125c-7.88978215 0-14.2857143 6.3799423-14.2857143 14.25 0 1.9675144 1.59898304 3.5625 3.57142857 3.5625h42.85714283c1.9724456 0 3.5714286-1.5949856 3.5714286-3.5625 0-7.8700577-6.3959321-14.25-14.2857143-14.25zm-30.35714284-14.25c.98622276 0 1.78571428-.7974928 1.78571428-1.78125v-1.78125c0-9.8213672 8.01116076-17.8125 17.85714286-17.8125s17.8571429 7.9911328 17.8571429 17.8125v1.78125c-.0055356 4.9164971-3.9997524 8.9007283-8.9285715 8.90625h-3.5714285c0-1.9675144-1.5989831-3.5625-3.5714286-3.5625h-3.5714286c-1.9724455 0-3.5714286 1.5949856-3.5714286 3.5625s1.5989831 3.5625 3.5714286 3.5625h10.7142857c6.8999904-.0085873 12.4913912-5.5860097 12.5-12.46875v-1.78125c0-11.78630859-9.6127232-21.375-21.4285714-21.375s-21.42857143 9.58869141-21.42857143 21.375v1.78125c0 .9837572.79949152 1.78125 1.78571429 1.78125zm17.85714284 0h3.5714286c2.551274.0006214 4.9085148 1.3585555 6.1841518 3.5625h.9587053c2.9573934-.0030681 5.3540671-2.3937502 5.3571429-5.34375v-1.78125c0-7.8700577-6.3959322-14.25-14.2857143-14.25s-14.2857143 6.3799423-14.2857143 14.25c0 4.4998828 2.1316964 8.4609375 5.3962054 11.0738086-.0066965-.1302539-.0390625-.2538281-.0390625-.3863086.0043057-3.9332484 3.1997509-7.1207051 7.1428571-7.125z"/></g></g></g></svg>