<svg xmlns="http://www.w3.org/2000/svg" xmlns:xlink="http://www.w3.org/1999/xlink" width="1338" height="1779" viewBox="0 0 1338 1779">
  <defs>
    <rect id="tablet-view-b" width="1138" height="1579" x="0" y="0" rx="124"/>
    <filter id="tablet-view-a" width="112.5%" height="109%" x="-6.2%" y="-3.9%" filterUnits="objectBoundingBox">
      <feOffset dy="10" in="SourceAlpha" result="shadowOffsetOuter1"/>
      <feGaussianBlur in="shadowOffsetOuter1" result="shadowBlurOuter1" stdDeviation="22"/>
      <feColorMatrix in="shadowBlurOuter1" values="0 0 0 0 0   0 0 0 0 0   0 0 0 0 0  0 0 0 0.04 0"/>
    </filter>
    <filter id="tablet-view-c" width="109.7%" height="107%" x="-4.8%" y="-2.8%" filterUnits="objectBoundingBox">
      <feGaussianBlur in="SourceAlpha" result="shadowBlurInner1" stdDeviation="11"/>
      <feOffset in="shadowBlurInner1" result="shadowOffsetInner1"/>
      <feComposite in="shadowOffsetInner1" in2="SourceAlpha" k2="-1" k3="1" operator="arithmetic" result="shadowInnerInner1"/>
      <feColorMatrix in="shadowInnerInner1" result="shadowMatrixInner1" values="0 0 0 0 0   0 0 0 0 0   0 0 0 0 0  0 0 0 0.12 0"/>
      <feGaussianBlur in="SourceAlpha" result="shadowBlurInner2" stdDeviation="2"/>
      <feOffset in="shadowBlurInner2" result="shadowOffsetInner2"/>
      <feComposite in="shadowOffsetInner2" in2="SourceAlpha" k2="-1" k3="1" operator="arithmetic" result="shadowInnerInner2"/>
      <feColorMatrix in="shadowInnerInner2" result="shadowMatrixInner2" values="0 0 0 0 0   0 0 0 0 0   0 0 0 0 0  0 0 0 0.06 0"/>
      <feMerge>
        <feMergeNode in="shadowMatrixInner1"/>
        <feMergeNode in="shadowMatrixInner2"/>
      </feMerge>
    </filter>
    <polygon id="tablet-view-d" points="0 1366 0 0 1024 0 1024 1366"/>
    <filter id="tablet-view-e" width="105.3%" height="104%" x="-2.6%" y="-2%" filterUnits="objectBoundingBox">
      <feMorphology in="SourceAlpha" operator="dilate" radius="1" result="shadowSpreadOuter1"/>
      <feOffset in="shadowSpreadOuter1" result="shadowOffsetOuter1"/>
      <feGaussianBlur in="shadowOffsetOuter1" result="shadowBlurOuter1" stdDeviation="8"/>
      <feColorMatrix in="shadowBlurOuter1" values="0 0 0 0 0   0 0 0 0 0   0 0 0 0 0  0 0 0 0.08 0"/>
    </filter>
    <linearGradient id="tablet-view-g" x1="50.007%" x2="50.007%" y1="-141.4%" y2="-47.015%">
      <stop offset="0%" stop-color="#2A6CBE"/>
      <stop offset="38.688%" stop-color="#2062BC"/>
      <stop offset="49.182%" stop-color="#1F5FBC"/>
      <stop offset="66.583%" stop-color="#1C5ABD"/>
      <stop offset="85.354%" stop-color="#1956BC"/>
      <stop offset="100%" stop-color="#1851BE"/>
    </linearGradient>
    <linearGradient id="tablet-view-h" x1="50.007%" x2="50.007%" y1="-141.4%" y2="-47.015%">
      <stop offset="0%" stop-color="#2A6CBE"/>
      <stop offset="38.688%" stop-color="#2062BC"/>
      <stop offset="49.182%" stop-color="#1F5FBC"/>
      <stop offset="66.583%" stop-color="#1C5ABD"/>
      <stop offset="85.354%" stop-color="#1956BC"/>
      <stop offset="100%" stop-color="#1851BE"/>
    </linearGradient>
  </defs>
  <g fill="none" fill-rule="evenodd">
    <g transform="translate(100 100)">
      <use fill="#000" filter="url(#tablet-view-a)" xlink:href="#tablet-view-b"/>
      <use fill="#FFF" xlink:href="#tablet-view-b"/>
      <use fill="#000" filter="url(#tablet-view-c)" xlink:href="#tablet-view-b"/>
      <circle cx="33.5" cy="33.5" r="33.5" fill="#EDEDED" transform="translate(535 1489)"/>
      <circle cx="10" cy="10" r="10" fill="#EDEDED" transform="translate(559 52)"/>
    </g>
    <g transform="translate(157 207)">
      <mask id="tablet-view-f" fill="#fff">
        <use xlink:href="#tablet-view-d"/>
      </mask>
      <use fill="#000" filter="url(#tablet-view-e)" xlink:href="#tablet-view-d"/>
      <g mask="url(#tablet-view-f)">
        <g transform="translate(-1)">
          <path fill="#FFF" stroke="#000" stroke-opacity=".04" stroke-width="2" d="M2,1365 L1024,1365 L1024,1 L2,1 L2,1365 Z"/>
          <g transform="translate(0 3)">
            <rect width="1024" height="113" x=".672" y=".002" fill="#FFF" transform="rotate(180 513.172 56.502)"/>
            <path fill="#8792A2" d="M104.88691,47.793995 C113.723466,47.793995 120.88691,54.957439 120.88691,63.793995 C120.88691,72.630551 113.723466,79.793995 104.88691,79.793995 L16.8869101,79.793995 C8.05035407,79.793995 0.886910062,72.630551 0.886910062,63.793995 C0.886910062,54.957439 8.05035407,47.793995 16.8869101,47.793995 L104.88691,47.793995 Z M864.88691,0.793994996 C873.723466,0.793994996 880.88691,7.957439 880.88691,16.793995 C880.88691,25.630551 873.723466,32.793995 864.88691,32.793995 L16.8869101,32.793995 C8.05035407,32.793995 0.886910062,25.630551 0.886910062,16.793995 C0.886910062,7.957439 8.05035407,0.793994996 16.8869101,0.793994996 L864.88691,0.793994996 Z" opacity=".238" transform="translate(57.113 239.206)"/>
            <ellipse cx="35.031" cy="35.029" fill="#8792A2" opacity=".24" rx="35.031" ry="35.029" transform="translate(57.036 371.304)"/>
            <ellipse cx="10.361" cy="10.361" fill="#1EB8C1" stroke="#FFF" stroke-width="4" rx="8.361" ry="8.361" transform="translate(107 370)"/>
            <path fill="#8792A2" d="M65.4493971 35.4840882C72.356314 35.4840882 77.9554764 41.0832506 77.9554764 47.9901675 77.9554764 54.8970844 72.356314 60.4962469 65.4493971 60.4962469L13.3929894 60.4962469C6.4860725 60.4962469.886910062 54.8970844.886910062 47.9901675.886910062 41.0832506 6.4860725 35.4840882 13.3929894 35.4840882L65.4493971 35.4840882zM385.576735 35.4840882C392.483651 35.4840882 398.082814 41.0832506 398.082814 47.9901675 398.082814 54.8970844 392.483651 60.4962469 385.576735 60.4962469L385.576735 60.4962469 100.392989 60.4962469C93.4860725 60.4962469 87.8869101 54.8970844 87.8869101 47.9901675 87.8869101 41.0832506 93.4860725 35.4840882 100.392989 35.4840882L100.392989 35.4840882zM525.380831.496246872C532.287748.496246872 537.88691 6.09540931 537.88691 13.0023262 537.88691 19.9092431 532.287748 25.5084056 525.380831 25.5084056L13.3929894 25.5084056C6.4860725 25.5084056.886910062 19.9092431.886910062 13.0023262.886910062 6.09540931 6.4860725.496246872 13.3929894.496246872L525.380831.496246872zM829.380831.496246872C836.287748.496246872 841.88691 6.09540931 841.88691 13.0023262 841.88691 19.9092431 836.287748 25.5084056 829.380831 25.5084056L560.392989 25.5084056C553.486073 25.5084056 547.88691 19.9092431 547.88691 13.0023262 547.88691 6.09540931 553.486073.496246872 560.392989.496246872L829.380831.496246872zM124.38691 105.496247C131.290469 105.496247 136.88691 111.092687 136.88691 117.996247 136.88691 124.899806 131.290469 130.496247 124.38691 130.496247L13.3869101 130.496247C6.48335069 130.496247.886910062 124.899806.886910062 117.996247.886910062 111.092687 6.48335069 105.496247 13.3869101 105.496247L124.38691 105.496247zM300.38691 105.496247C307.290469 105.496247 312.88691 111.092687 312.88691 117.996247 312.88691 124.899806 307.290469 130.496247 300.38691 130.496247L300.38691 130.496247 159.38691 130.496247C152.483351 130.496247 146.88691 124.899806 146.88691 117.996247 146.88691 111.092687 152.483351 105.496247 159.38691 105.496247L159.38691 105.496247z" opacity=".238" transform="translate(143.113 412.504)"/>
            <g transform="translate(58 681)">
              <ellipse cx="35.031" cy="36.333" fill="#8792A2" opacity=".24" rx="35.031" ry="35.029"/>
              <ellipse cx="60.326" cy="10.361" fill="#8792A2" stroke="#FFF" stroke-width="4" rx="8.361" ry="8.361"/>
              <path fill="#8792A2" d="M360.458302,67.9878413 C367.365219,67.9878413 372.964381,73.5870038 372.964381,80.4939207 C372.964381,87.4008376 367.365219,93 360.458302,93 L99.4704605,93 C92.5635436,93 86.9643811,87.4008376 86.9643811,80.4939207 C86.9643811,73.5870038 92.5635436,67.9878413 99.4704605,67.9878413 L360.458302,67.9878413 Z M421.458302,33 C428.365219,33 433.964381,38.5991624 433.964381,45.5060793 C433.964381,52.4129962 428.365219,58.0121587 421.458302,58.0121587 L99.4704605,58.0121587 C92.5635436,58.0121587 86.9643811,52.4129962 86.9643811,45.5060793 C86.9643811,38.5991624 92.5635436,33 99.4704605,33 L421.458302,33 Z M915.458302,33 C922.365219,33 927.964381,38.5991624 927.964381,45.5060793 C927.964381,52.4129962 922.365219,58.0121587 915.458302,58.0121587 L456.47046,58.0121587 C449.563544,58.0121587 443.964381,52.4129962 443.964381,45.5060793 C443.964381,38.5991624 449.563544,33 456.47046,33 L915.458302,33 Z" opacity=".238"/>
              <rect width="60" height="18" x="86.964" fill="#1851BE" rx="9"/>
              <rect width="42" height="18" x="156.964" fill="#EFE3F7" rx="3"/>
              <rect width="44" height="18" x="204" fill="#E6F7E3" rx="3"/>
              <rect width="32" height="6" x="161.964" y="6" fill="#CBA3E5" rx="3"/>
              <rect width="34" height="6" x="209" y="6" fill="#ADE5A4" rx="3"/>
              <rect width="110" height="18" x="258" fill="#8792A2" opacity=".12" rx="9"/>
            </g>
            <g transform="translate(383 607)">
              <g transform="translate(94)">
                <path fill="url(#tablet-view-g)" d="M5,0 L132,0 L132,0 L132,42 L5,42 C2.23857625,42 3.38176876e-16,39.7614237 0,37 L0,5 C-3.38176876e-16,2.23857625 2.23857625,5.07265313e-16 5,0 Z"/>
                <rect width="16" height="10" x="26" y="16" fill="#5C84D1" rx="3"/>
                <rect width="58" height="9" x="52" y="16" fill="#5C84D1" rx="3"/>
                <path fill="url(#tablet-view-h)" d="M132,0 L153,0 C155.761424,-5.07265313e-16 158,2.23857625 158,5 L158,37 C158,39.7614237 155.761424,42 153,42 L132,42 L132,42 L132,0 Z" opacity=".262"/>
                <rect width="9" height="10" x="141" y="16" fill="#1851BE" rx="3"/>
              </g>
              <rect width="34" height="18" x="50" y="4" fill="#8792A2" opacity=".322" rx="3"/>
              <rect width="33" height="18" y="4" fill="#8792A2" opacity=".322" rx="3"/>
              <rect width="33" height="10.008" y="28.047" fill="#ECEEF0" rx="3"/>
              <rect width="33" height="10.008" x="51" y="28.047" fill="#ECEEF0" rx="3"/>
              <g transform="translate(261.872)">
                <rect width="97" height="41" x=".628" y=".5" stroke="#8792A2" stroke-opacity=".24" rx="5"/>
                <rect width="52" height="10" x="32.199" y="15.955" fill="#8792A2" opacity=".176" rx="3"/>
                <rect width="14" height="10" x="13.199" y="15.955" fill="#8792A2" opacity=".376" rx="3"/>
                <rect width="120" height="41" x="108.628" y=".5" stroke="#8792A2" stroke-opacity=".24" rx="5"/>
                <rect width="18" height="10" x="138.128" y="16" fill="#8792A2" opacity=".176" rx="3"/>
                <rect width="38" height="10" x="160.128" y="16" fill="#8792A2" opacity=".176" rx="3" transform="matrix(-1 0 0 1 358.256 0)"/>
                <rect width="14" height="10" x="119.128" y="16" fill="#8792A2" opacity=".376" rx="3"/>
                <rect width="14" height="10" x="203.128" y="16" fill="#8792A2" opacity=".725" rx="3"/>
                <rect width="14" height="10" x="314.057" y="16.045" fill="#8792A2" opacity=".725" rx="3"/>
                <rect width="97" height="41" x="239.628" y=".5" stroke="#8792A2" stroke-opacity=".24" rx="5"/>
                <rect width="42" height="10" x="267.128" y="16" fill="#8792A2" opacity=".176" rx="3"/>
                <rect width="14" height="10" x="248.128" y="16" fill="#8792A2" opacity=".376" rx="3"/>
              </g>
            </g>
            <g transform="translate(382 940)">
              <g transform="translate(94)">
                <path fill="url(#tablet-view-g)" d="M5,0 L132,0 L132,0 L132,42 L5,42 C2.23857625,42 3.38176876e-16,39.7614237 0,37 L0,5 C-3.38176876e-16,2.23857625 2.23857625,5.07265313e-16 5,0 Z"/>
                <rect width="16" height="10" x="26" y="16" fill="#5C84D1" rx="3"/>
                <rect width="58" height="9" x="52" y="16" fill="#5C84D1" rx="3"/>
                <path fill="url(#tablet-view-h)" d="M132,0 L153,0 C155.761424,-5.07265313e-16 158,2.23857625 158,5 L158,37 C158,39.7614237 155.761424,42 153,42 L132,42 L132,42 L132,0 Z" opacity=".262"/>
                <rect width="9" height="10" x="141" y="16" fill="#1851BE" rx="3"/>
              </g>
              <rect width="34" height="18" x="50" y="4" fill="#8792A2" opacity=".322" rx="3"/>
              <rect width="33" height="18" y="4" fill="#8792A2" opacity=".322" rx="3"/>
              <rect width="33" height="10.008" y="28.047" fill="#ECEEF0" rx="3"/>
              <rect width="33" height="10.008" x="51" y="28.047" fill="#ECEEF0" rx="3"/>
              <g transform="translate(261.872)">
                <rect width="97" height="41" x=".628" y=".5" stroke="#8792A2" stroke-opacity=".24" rx="5"/>
                <rect width="52" height="10" x="32.199" y="15.955" fill="#8792A2" opacity=".176" rx="3"/>
                <rect width="14" height="10" x="13.199" y="15.955" fill="#8792A2" opacity=".376" rx="3"/>
                <rect width="120" height="41" x="108.628" y=".5" stroke="#8792A2" stroke-opacity=".24" rx="5"/>
                <rect width="18" height="10" x="138.128" y="16" fill="#8792A2" opacity=".176" rx="3"/>
                <rect width="38" height="10" x="160.128" y="16" fill="#8792A2" opacity=".176" rx="3" transform="matrix(-1 0 0 1 358.256 0)"/>
                <rect width="14" height="10" x="119.128" y="16" fill="#8792A2" opacity=".376" rx="3"/>
                <rect width="14" height="10" x="203.128" y="16" fill="#8792A2" opacity=".725" rx="3"/>
                <rect width="14" height="10" x="314.057" y="16.045" fill="#8792A2" opacity=".725" rx="3"/>
                <rect width="97" height="41" x="239.628" y=".5" stroke="#8792A2" stroke-opacity=".24" rx="5"/>
                <rect width="42" height="10" x="267.128" y="16" fill="#8792A2" opacity=".176" rx="3"/>
                <rect width="14" height="10" x="248.128" y="16" fill="#8792A2" opacity=".376" rx="3"/>
              </g>
            </g>
            <g transform="translate(837 577)">
              <rect width="40" height="10.008" fill="#1851BE" rx="3"/>
              <rect width="40" height="10.008" x="45" fill="#1851BE" rx="3"/>
              <rect width="6" height="10.008" x="114.949" fill="#8792A2" opacity=".164" rx="3"/>
              <rect width="6" height="10.008" x="90.949" fill="#8792A2" opacity=".164" rx="3"/>
              <rect width="12" height="10.008" x="99.753" y=".039" fill="#8792A2" opacity=".241" rx="3"/>
              <rect width="12" height="10.008" x="130.949" fill="#8792A2" opacity=".44" rx="3"/>
            </g>
            <g transform="translate(0 817)">
              <ellipse cx="95.031" cy="36.333" fill="#8792A2" opacity=".24" rx="35.031" ry="35.029"/>
              <ellipse cx="120.326" cy="10.361" fill="#1EB8C1" stroke="#FFF" stroke-width="4" rx="8.361" ry="8.361"/>
              <rect width="443" height="25" x="146.964" y="33" fill="#8792A2" opacity=".238" rx="12.5"/>
              <rect width="1026" height="362" y="216" fill="#E3EAF7"/>
              <rect width="60" height="18" x="146.964" fill="#1851BE" rx="9"/>
              <rect width="110" height="18" x="216.964" fill="#8792A2" opacity=".12" rx="9"/>
            </g>
            <g transform="translate(837 909)">
              <rect width="40" height="10.008" fill="#1851BE" rx="3"/>
              <rect width="40" height="10.008" x="45" fill="#1851BE" rx="3"/>
              <rect width="6" height="10.008" x="114.949" fill="#8792A2" opacity=".164" rx="3"/>
              <rect width="6" height="10.008" x="90.949" fill="#8792A2" opacity=".164" rx="3"/>
              <rect width="12" height="10.008" x="99.753" y=".039" fill="#8792A2" opacity=".241" rx="3"/>
              <rect width="12" height="10.008" x="130.949" fill="#8792A2" opacity=".44" rx="3"/>
            </g>
            <g transform="translate(57.316 25.002)">
              <g fill-rule="nonzero" transform="translate(.682 10)">
                <path fill="#1851BE" d="M127.35494,9.23705556e-14 C142.320087,9.23705556e-14 154.451735,9.40202678 154.451735,21.0000146 C154.451735,32.5980024 142.320087,42.0000292 127.35494,42.0000292 C112.389793,42.0000292 100.258144,32.5980024 100.258144,21.0000146 C100.258144,9.40202678 112.389793,9.23705556e-14 127.35494,9.23705556e-14 Z M129.658663,5.06869506 L129.140085,5.06869506 C128.035516,5.06869506 127.140085,5.96412556 127.140085,7.06869506 L127.140085,7.06869506 L127.141089,15.4254727 C125.313566,14.156743 123.045076,13.4284089 120.514614,13.4284089 C114.055175,13.4284089 109.234,18.2433597 109.234,24.6787266 C109.234,31.1140936 114.055175,35.9290444 120.514614,35.9290444 C124.836037,35.9290444 128.393431,33.8048981 130.295302,30.4926499 L130.295302,30.4926499 L130.42988,30.6281331 C132.437922,32.5942018 135.230059,33.769961 138.422241,33.769961 C144.929377,33.769961 149.704397,28.954352 149.704397,22.5181053 C149.704397,16.0818587 144.929377,11.2662497 138.422241,11.2662497 C135.52065,11.2662497 132.949587,12.2376882 130.997473,13.8910888 C130.878595,13.9917761 130.997473,10.3398978 130.997473,6.81727359 C130.997473,5.60749283 130.103451,5.06869506 129.658663,5.06869506 L129.658663,5.06869506 Z M120.354928,18.5799345 C123.943684,18.5799345 126.467644,21.2477369 126.467644,24.7046077 C126.467644,28.086329 123.943684,30.8292808 120.354928,30.8292808 C116.766172,30.8292808 114.242212,28.086329 114.242212,24.7046077 C114.242212,21.2477369 116.766172,18.5799345 120.354928,18.5799345 Z M138.954448,16.5524564 C142.543204,16.5524564 145.067164,19.2202589 145.067164,22.6771296 C145.067164,26.058851 142.543204,28.8018028 138.954448,28.8018028 C135.365692,28.8018028 132.841732,26.058851 132.841732,22.6771296 C132.841732,19.2202589 135.365692,16.5524564 138.954448,16.5524564 Z M111.329418,7.16843678 L110.005854,7.16843678 C109.596339,7.16843678 109.264362,7.50106345 109.264362,7.91137925 L109.264362,7.91137925 L109.264362,16.6928703 C109.264362,16.7975152 109.297195,16.8995229 109.358234,16.9845213 C109.519309,17.2088194 109.831715,17.2600723 110.056013,17.0989979 L110.056013,17.0989979 L112.43452,15.3909289 C112.826907,15.1091455 113.059567,14.655629 113.059567,14.172546 L113.059567,14.172546 L113.059567,8.9019692 C113.059567,7.94456568 112.284953,7.16843678 111.329418,7.16843678 L111.329418,7.16843678 Z"/>
                <path fill="#040F20" stroke="#040E1F" stroke-width=".275" d="M83.4573712 12.1935569C89.8219332 12.1935569 94.3695912 15.866714 94.6064664 23.0738547L94.6145534 23.4253448 94.6145534 23.4253448C94.6275802 24.4068405 93.842481 25.2130604 92.8609853 25.2260872L76.200266 25.2262222C76.200266 28.1135057 77.7705548 31.4345101 83.7042115 31.4345101 86.734901 31.4345101 89.703657 30.6000482 92.6104796 28.9311244L93.0253326 28.6870533C93.6102087 28.3345466 94.3701075 28.5229192 94.7226142 29.1077953 94.9695449 29.5175005 94.9561591 30.028476 94.6989983 30.4220436L94.6145534 30.5363729 94.6145534 30.5363729C94.1660906 31.0759931 90.0158448 35.2258309 83.7042115 35.2258309 76.8420508 35.2258309 71.8065084 30.3918969 71.8065084 23.6623024 71.8065084 17.1222739 76.5952105 12.1935569 83.4573712 12.1935569zM83.4573712 15.9848777C79.5079262 15.9848777 76.7926828 18.2596702 76.2496341 21.6718589L90.1714277 21.6718589C89.628379 18.2596702 87.209344 15.9848777 83.4573712 15.9848777zM68.4255625 3.38709913C69.5269282 3.38709913 70.4197615 4.27993241 70.4197615 5.38129809L70.4196193 22.6261286C70.4408759 22.9271323 70.4516687 23.2320474 70.4516687 23.5405477 70.4516687 30.2247221 65.3850738 35.2258309 58.5968206 35.2258309 51.7593771 35.2258309 46.7419725 30.2247221 46.7419725 23.5405477 46.7419725 16.8563734 51.7593771 11.8552646 58.5968206 11.8552646 61.6624027 11.8552646 64.3768639 12.8752082 66.4321317 14.6094999L66.4313636 5.38129809C66.4313636 4.27993241 67.3241968 3.38709913 68.4255625 3.38709913zM58.5968206 15.7022714C54.1205086 15.7022714 50.9723332 19.1164899 50.9723332 23.5405477 50.9723332 27.8684304 54.1205086 31.3788241 58.5968206 31.3788241 63.0731325 31.3788241 66.2213079 27.8684304 66.2213079 23.5405477 66.2213079 19.1164899 63.0731325 15.7022714 58.5968206 15.7022714zM34.2097045 12.1935569C40.9979578 12.1935569 46.0645526 17.1222739 46.0645526 23.7096939 46.0645526 30.2971138 40.9979578 35.2258309 34.2097045 35.2258309 27.372261 35.2258309 22.3548564 30.2971138 22.3548564 23.7096939 22.3548564 17.1222739 27.372261 12.1935569 34.2097045 12.1935569zM34.2097045 15.9848777C29.7333926 15.9848777 26.5852171 19.3496749 26.5852171 23.7096939 26.5852171 27.9749298 29.7333926 31.4345101 34.2097045 31.4345101 38.6860164 31.4345101 41.8341919 27.9749298 41.8341919 23.7096939 41.8341919 19.3496749 38.6860164 15.9848777 34.2097045 15.9848777zM11.8463995 12.1935569C18.0399528 12.1935569 21.6774365 16.210814 21.6774365 21.7404502L21.6774365 32.4347381C21.6774365 33.6020875 20.7311129 34.5484111 19.5637636 34.5484111L19.4500906 34.5484111C18.3455211 34.5484111 17.4500906 33.6529806 17.4500906 32.5484111L17.4500906 22.0712831 17.4500906 22.0712831C17.4500906 18.4793827 15.5330384 15.9745047 11.4040029 15.9745047 4.2273459 15.9745047 4.2273459 19.239518 4.2273459 23.2528294L4.2273459 34.5484111 2 34.5484111C.8954305 34.5484111 1.13378019e-13 33.6529806 1.13686838e-13 32.5484111 1.13686838e-13 27.9979658 1.13686838e-13 23.4475205 1.13686838e-13 18.8970752 1.13686838e-13 14.1193933 8.30722624 12.1935569 11.8463995 12.1935569z"/>
              </g>
              <g transform="translate(212.682 13)">
                <g fill="#8792A2" opacity=".499" transform="translate(0 4)">
                  <rect width="29" height="26" y="4" opacity=".436" rx="10"/>
                  <rect width="29" height="26" x="59" y="4" opacity=".536" rx="10"/>
                  <rect width="29" height="26" x="295" y="4" opacity=".336" rx="10"/>
                  <rect width="29" height="26" x="118" y="4" opacity=".636" rx="10"/>
                  <rect width="29" height="26" x="177" y="4" opacity=".536" rx="10"/>
                  <rect width="29" height="26" x="354" y="4" opacity=".236" rx="10"/>
                  <rect width="29" height="26" x="625.002" y="3.998" opacity=".215" rx="10"/>
                  <rect width="29" height="26" x="566.002" y="3.998" opacity=".136" rx="10"/>
                  <rect width="29" height="26" x="507.002" y="3.998" opacity=".236" rx="10"/>
                  <rect width="32" height="33" x="681.002" y=".998" opacity=".277" rx="16"/>
                  <rect width="29" height="26" x="236" y="4" opacity=".436" rx="10"/>
                </g>
                <rect width="16" height="16" x="139" fill="#E02020" rx="3.5"/>
              </g>
              <g fill="#FFF" transform="translate(486.682)">
                <rect width="94" height="10" rx="3.5"/>
                <rect width="94" height="10" x="114" rx="3.5"/>
                <rect width="94" height="10" x="228" rx="3.5"/>
                <rect width="94" height="10" x="342" rx="3.5"/>
              </g>
            </g>
            <rect width="60" height="18" x="57" y="164" fill="#1851BE" rx="9"/>
            <rect width="12" height="8" x="122" y="169" fill="#8792A2" opacity=".241" rx="3"/>
            <rect width="83" height="18" x="139" y="164" fill="#1851BE" rx="9"/>
            <rect width="218" height="18" x="244" y="164" fill="#8792A2" opacity=".141" rx="9"/>
            <rect width="26" height="18" x="472" y="164" fill="#8792A2" opacity=".261" rx="9"/>
            <rect width="60" height="18" x="144" y="370" fill="#1851BE" rx="9"/>
            <rect width="110" height="18" x="214" y="370" fill="#8792A2" opacity=".12" rx="9"/>
            <rect width="12" height="8" x="227" y="169" fill="#8792A2" opacity=".241" rx="3"/>
            <g transform="translate(817 768)">
              <rect width="40" height="10.008" fill="#1851BE" rx="3"/>
              <rect width="40" height="10.008" x="45" fill="#1851BE" rx="3"/>
              <rect width="6" height="10.008" x="114.949" fill="#8792A2" opacity=".164" rx="3"/>
              <rect width="6" height="10.008" x="90.949" fill="#1851BE" opacity=".73" rx="3"/>
              <rect width="12" height="10.008" x="99.753" y=".039" fill="#8792A2" opacity=".241" rx="3"/>
              <rect width="12" height="10.008" x="130.949" fill="#8792A2" opacity=".44" rx="3"/>
            </g>
          </g>
        </g>
      </g>
    </g>
  </g>
</svg>
