<svg xmlns="http://www.w3.org/2000/svg" xmlns:xlink="http://www.w3.org/1999/xlink" width="84" height="80" viewBox="0 0 84 80">
  <defs>
    <path id="tagging-a" d="M0.5,13.84 C0.5,6.473 6.473,0.5 13.84,0.5 L62.16,0.5 C69.527,0.5 75.5,6.473 75.5,13.84 L75.5,62.16 C75.5,69.527 69.527,75.5 62.16,75.5 L13.84,75.5 C6.473,75.5 0.5,69.527 0.5,62.16 L0.5,13.84 Z"/>
    <linearGradient id="tagging-c" x1="50%" x2="50%" y1="0%" y2="100%">
      <stop offset="0%" stop-color="#3F6ABC"/>
      <stop offset="100%" stop-color="#1851BE"/>
    </linearGradient>
    <filter id="tagging-d" width="110.6%" height="110.6%" x="-5.3%" y="-5.3%" filterUnits="objectBoundingBox">
      <feGaussianBlur in="SourceGraphic" stdDeviation="1.05"/>
    </filter>
    <radialGradient id="tagging-e" cx="57.407%" cy="0%" r="133.013%" fx="57.407%" fy="0%" gradientTransform="matrix(0 1 -.79688 0 .574 -.574)">
      <stop offset="0%" stop-color="#FFF"/>
      <stop offset="100%" stop-color="#AEC3EB"/>
    </radialGradient>
  </defs>
  <g fill="none" fill-rule="evenodd" transform="translate(2 2)">
    <mask id="tagging-b" fill="#fff">
      <use xlink:href="#tagging-a"/>
    </mask>
    <path d="M0.5,13.84 C0.5,6.473 6.473,0.5 13.84,0.5 L62.16,0.5 C69.527,0.5 75.5,6.473 75.5,13.84 L75.5,62.16 C75.5,69.527 69.527,75.5 62.16,75.5 L13.84,75.5 C6.473,75.5 0.5,69.527 0.5,62.16 L0.5,13.84 Z" mask="url(#tagging-b)"/>
    <path d="M0.5,13.84 C0.5,6.473 6.473,0.5 13.84,0.5 L62.16,0.5 C69.527,0.5 75.5,6.473 75.5,13.84 L75.5,62.16 C75.5,69.527 69.527,75.5 62.16,75.5 L13.84,75.5 C6.473,75.5 0.5,69.527 0.5,62.16 L0.5,13.84 Z"/>
    <path d="M0.5,13.84 C0.5,6.473 6.473,0.5 13.84,0.5 L62.16,0.5 C69.527,0.5 75.5,6.473 75.5,13.84 L75.5,62.16 C75.5,69.527 69.527,75.5 62.16,75.5 L13.84,75.5 C6.473,75.5 0.5,69.527 0.5,62.16 L0.5,13.84 Z"/>
    <path fill="url(#tagging-c)" fill-rule="nonzero" stroke="#FFF" stroke-opacity=".01" stroke-width="1.68" d="M0.5,13.84 C0.5,6.473 6.473,0.5 13.84,0.5 L62.16,0.5 C69.527,0.5 75.5,6.473 75.5,13.84 L75.5,62.16 C75.5,69.527 69.527,75.5 62.16,75.5 L13.84,75.5 C6.473,75.5 0.5,69.527 0.5,62.16 L0.5,13.84 Z" filter="url(#tagging-d)"/>
    <path fill="url(#tagging-c)" fill-rule="nonzero" stroke="#FFF" stroke-opacity=".01" stroke-width="1.68" d="M0.5,13.84 C0.5,6.473 6.473,0.5 13.84,0.5 L62.16,0.5 C69.527,0.5 75.5,6.473 75.5,13.84 L75.5,62.16 C75.5,69.527 69.527,75.5 62.16,75.5 L13.84,75.5 C6.473,75.5 0.5,69.527 0.5,62.16 L0.5,13.84 Z"/>
    <path fill="url(#tagging-e)" fill-rule="nonzero" d="M49.599616,22.5058363 L28.4941721,1.40040786 C27.5975185,0.50374825 26.3813931,0 25.1133287,0 L4.78125233,0 C2.14060651,0 0,2.14060495 0,4.78124883 L0,25.1133103 C0,26.3813738 0.503748619,27.5974983 1.40040889,28.4941512 L22.5058528,49.5995797 C24.3729318,51.466757 27.4002614,51.4668566 29.2675397,49.5995797 L49.599616,29.2675182 C51.4667947,27.400341 51.4667947,24.3730136 49.599616,22.5058363 Z M11,16 C8.23854167,16 6,13.7614583 6,11 C6,8.23854167 8.23854167,6 11,6 C13.7614583,6 16,8.23854167 16,11 C16,13.7614583 13.7614583,16 11,16 Z M62.6333158,29.2675397 L42.7905244,49.599616 C40.9682788,51.4667947 38.0138009,51.4667947 36.1915553,49.599616 L36.1565589,49.5637566 L53.0772441,32.22584 C54.7297569,30.5325794 55.6397618,28.2813068 55.6397618,25.8866962 C55.6397618,23.4920857 54.7296597,21.2408131 53.0772441,19.5475525 L34,0 L38.7362831,0 C39.973832,0 41.1606917,0.503748619 42.0357677,1.40040889 L62.6333158,22.5058528 C64.4555614,24.3730314 64.4555614,27.400361 62.6333158,29.2675397 L62.6333158,29.2675397 Z" transform="translate(18 16)"/>
  </g>
</svg>
