<svg height="533" viewBox="0 0 947 533" width="947" xmlns="http://www.w3.org/2000/svg"><g fill="none" fill-rule="evenodd"><path d="m12 0h923c6.627417 0 12 5.372583 12 12v42.3541364h-947v-42.3541364c0-6.627417 5.372583-12 12-12z" fill="#2a2f45"/><path d="m0 51.2481858 947 .7269985v469.2730017c0 6.627417-5.372583 12-12 12h-923c-6.627417 0-12-5.372583-12-12zm62.694175-39.2481858c2.5831167 0 4.9997111.6945167 7.0737852 1.9075519 2.0740741 1.2130351 3.8056278 2.9445888 5.0186629 5.0186629 1.2130352 2.0740741 1.9075519 4.4906685 1.9075519 7.0737852s-.6945167 4.9997111-1.9075519 7.0737852c-1.2130351 2.0740741-2.9445888 3.8056278-5.0186629 5.0186629-2.0740741 1.2130352-4.4906685 1.9075519-7.0737852 1.9075519s-4.9997111-.6945167-7.0737852-1.9075519c-2.0740741-1.2130351-3.8056278-2.9445888-5.0186629-5.0186629-1.2130352-2.0740741-1.9075519-4.4906685-1.9075519-7.0737852s.6945167-4.9997111 1.9075519-7.0737852c1.2130351-2.0740741 2.9445888-3.8056278 5.0186629-5.0186629 2.0740741-1.2130352 4.4906685-1.9075519 7.0737852-1.9075519zm50.788835 0c2.583117 0 4.999711.6945167 7.073785 1.9075519 2.074074 1.2130351 3.805628 2.9445888 5.018663 5.0186629s1.907552 4.4906685 1.907552 7.0737852-.694517 4.9997111-1.907552 7.0737852-2.944589 3.8056278-5.018663 5.0186629c-2.074074 1.2130352-4.490668 1.9075519-7.073785 1.9075519s-4.999711-.6945167-7.073785-1.9075519c-2.074074-1.2130351-3.805628-2.9445888-5.018663-5.0186629s-1.907552-4.4906685-1.907552-7.0737852.694517-4.9997111 1.907552-7.0737852 2.944589-3.8056278 5.018663-5.0186629c2.074074-1.2130352 4.490668-1.9075519 7.073785-1.9075519zm52.820388 0c2.583117 0 4.999711.6945167 7.073785 1.9075519 2.074074 1.2130351 3.805628 2.9445888 5.018663 5.0186629s1.907552 4.4906685 1.907552 7.0737852-.694517 4.9997111-1.907552 7.0737852-2.944589 3.8056278-5.018663 5.0186629c-2.074074 1.2130352-4.490668 1.9075519-7.073785 1.9075519s-4.999711-.6945167-7.073785-1.9075519c-2.074074-1.2130351-3.805628-2.9445888-5.018663-5.0186629s-1.907552-4.4906685-1.907552-7.0737852.694517-4.9997111 1.907552-7.0737852 2.944589-3.8056278 5.018663-5.0186629c2.074074-1.2130352 4.490668-1.9075519 7.073785-1.9075519z" fill="#1a1f36"/><path d="m63 198h466c7.731986 0 14 6.268014 14 14s-6.268014 14-14 14h-466c-7.7319865 0-14-6.268014-14-14s6.2680135-14 14-14z" fill="#8792a2" opacity=".284"/><path d="m287 274h466c7.731986 0 14 6.268014 14 14s-6.268014 14-14 14h-466c-7.731986 0-14-6.268014-14-14s6.268014-14 14-14z" fill="#8792a2" opacity=".58"/><g fill="#fff"><path d="m254 120h83c7.731986 0 14 6.268014 14 14s-6.268014 14-14 14h-83c-7.731986 0-14-6.268014-14-14s6.268014-14 14-14z"/><path d="m180 120h36c7.731986 0 14 6.268014 14 14s-6.268014 14-14 14h-36c-7.731986 0-14-6.268014-14-14s6.268014-14 14-14z" transform="matrix(-1 0 0 1 396 0)"/><path d="m375 120h310c7.731986 0 14 6.268014 14 14s-6.268014 14-14 14h-310c-7.731986 0-14-6.268014-14-14s6.268014-14 14-14z"/></g><path d="m14 0h48c7.7319865 0 14 6.2680135 14 14s-6.2680135 14-14 14h-48c-7.7319865 0-14-6.2680135-14-14s6.2680135-14 14-14z" fill="#8792a2" opacity=".24" transform="translate(157 274)"/><g fill="#91bb54" transform="translate(47 364)"><path d="m14 0h103c7.731986 0 14 6.2680135 14 14s-6.268014 14-14 14h-103c-7.7319865 0-14-6.2680135-14-14s6.2680135-14 14-14zm141 0h43c7.731986 0 14 6.2680135 14 14s-6.268014 14-14 14h-43c-7.731986 0-14-6.2680135-14-14s6.268014-14 14-14z"/><path d="m235.230254 24.3540222c-.655757.7714793-1.812761.8652904-2.58424.209533s-.865291-1.8127614-.209533-2.5842407l15.583312-18.33330824c.666051-.78358948 1.846239-.86613617 2.614885-.18289473l8.249989 7.33332327c.756767.6726822.824932 1.8314799.15225 2.5882473s-1.83148.8249319-2.588247.1522498l-6.849051-6.08804479z" fill-rule="nonzero" transform="matrix(-1 0 0 -1 491.5 28)"/></g><path d="m0 32.76h4.94c1.612 2.912 4.836 4.888 9.048 4.888 4.888 0 8.268-2.548 8.268-5.72 0-3.328-2.132-4.836-6.708-5.408l-5.564-.728c-6.24-.832-9.1-4.368-9.1-9.308 0-5.408 3.692-9.412 10.192-10.192v-6.292h4.472v6.292c6.604.832 10.244 5.356 11.492 9.1h-4.94c-1.404-2.86-4.732-4.888-8.84-4.888-5.2 0-7.696 2.86-7.696 5.772 0 3.12 2.132 4.732 5.824 5.2l5.928.78c5.876.78 9.62 4.212 9.62 9.412 0 4.784-3.9 9.724-11.388 10.296v6.24h-4.472v-6.396c-6.552-.988-9.828-5.148-11.076-9.048zm80.94-4.576c1.716 0 2.444-1.248 2.444-4.368h4.16c0 5.356-2.392 8.528-6.552 8.528-4.108 0-6.968-4.368-9.464-4.368-1.716 0-2.444 1.248-2.444 4.368h-4.16c0-5.252 2.34-8.528 6.552-8.528 4.16 0 7.124 4.368 9.464 4.368z" fill="#fff" fill-opacity=".417" fill-rule="nonzero" transform="translate(48.392 109.66)"/></g></svg>