<svg height="76" viewBox="0 0 76 76" width="76" xmlns="http://www.w3.org/2000/svg" xmlns:xlink="http://www.w3.org/1999/xlink"><linearGradient id="a" x1="50%" x2="50%" y1="0%" y2="100%"><stop offset="0" stop-color="#3f6abc"/><stop offset="1" stop-color="#1851be"/></linearGradient><filter id="b" height="107.4%" width="107.4%" x="-3.7%" y="-3.7%"><feGaussianBlur in="SourceGraphic" stdDeviation=".65"/></filter><radialGradient id="c" cx="45.734%" cy="0%" gradientTransform="matrix(0 1 -.78461 0 .457 -.457)" r="132.437%"><stop offset="0" stop-color="#fff"/><stop offset="1" stop-color="#aec3eb"/></radialGradient><filter id="d" height="107.6%" width="106%" x="-3%" y="-3.8%"><feGaussianBlur in="SourceGraphic" stdDeviation=".65"/></filter><mask id="e" fill="#fff"><path d="m.5 13.84c0-7.367 5.973-13.34 13.34-13.34h48.32c7.367 0 13.34 5.973 13.34 13.34v48.32c0 7.367-5.973 13.34-13.34 13.34h-48.32c-7.367 0-13.34-5.973-13.34-13.34z" fill="#fff" fill-rule="evenodd"/></mask><mask id="f" fill="#fff"><path d="m.5 13.84c0-7.367 5.973-13.34 13.34-13.34h48.32c7.367 0 13.34 5.973 13.34 13.34v48.32c0 7.367-5.973 13.34-13.34 13.34h-48.32c-7.367 0-13.34-5.973-13.34-13.34z" fill="#fff" fill-rule="evenodd"/></mask><g fill="none" fill-rule="evenodd"><path d="m.5 13.84c0-7.367 5.973-13.34 13.34-13.34h48.32c7.367 0 13.34 5.973 13.34 13.34v48.32c0 7.367-5.973 13.34-13.34 13.34h-48.32c-7.367 0-13.34-5.973-13.34-13.34z" mask="url(#e)"/><path d="m.5 13.84c0-7.367 5.973-13.34 13.34-13.34h48.32c7.367 0 13.34 5.973 13.34 13.34v48.32c0 7.367-5.973 13.34-13.34 13.34h-48.32c-7.367 0-13.34-5.973-13.34-13.34z"/><path d="m.5 13.84c0-7.367 5.973-13.34 13.34-13.34h48.32c7.367 0 13.34 5.973 13.34 13.34v48.32c0 7.367-5.973 13.34-13.34 13.34h-48.32c-7.367 0-13.34-5.973-13.34-13.34z"/><rect height="75" rx="15" style="fill-rule:nonzero;stroke:#fff;stroke-opacity:.01;stroke-width:1.68;fill:url(#a);filter:url(#b);mask:url(#f)" width="75" x="1" y="1"/><rect height="75" rx="15" style="fill-rule:nonzero;stroke:#fff;stroke-opacity:.01;stroke-width:1.68;fill:url(#a);mask:url(#f)" width="75" x="1" y="1"/><g fill="url(#c)" transform="translate(6 13)"><path d="m23.0645161 28.1020408c4.5158393 0 8.4263573 2.577428 10.3190987 6.3319424.3125225-.0455859.6323423-.0735552.9567866-.0832278l.2563728-.0038166h8.3870968c3.1608941 0 5.9140028 1.7363296 7.3435392 4.3010559.3741097-.0752479.760132-.1207592 1.1549124-.1338492l.2381075-.0039414h6.639785c3.5867017 0 6.51018 2.6753423 6.6355928 6.0208905l.0041921.2240074v3.122449c0 1.6647229-1.3859268 3.0256289-3.1315336 3.1175051l-.1883589.0049439h-13.2795699c-.1995299 0-.3949548-.0165648-.5848045-.0483117-.1389987.0213103-.2799933.0356787-.4227905.0428899l-.2155232.0054218h-16.7741936c-.2452457 0-.4855819-.0209121-.7192975-.0610376-.2776814.0397272-.5629807.0610376-.8532831.0610376h-23.06451617c-3.18398437 0-5.76612903-2.5634981-5.76612903-5.7244898v-5.7244898c0-6.3237723 5.16428931-11.4489796 11.5322581-11.4489796zm31.9758065-7.2857143c3.7639554 0 6.8145161 2.7955676 6.8145161 6.244898 0 3.4493303-3.0505607 6.2448979-6.8145161 6.2448979-3.7628906 0-6.8145161-2.7955676-6.8145161-6.2448979 0-3.4493304 3.0516255-6.244898 6.8145161-6.244898zm-16.25-7.2857143c4.6325605 0 8.3870968 3.7274235 8.3870968 8.3265307 0 4.5991071-3.7545363 8.3265306-8.3870968 8.3265306-4.63125 0-8.3870968-3.7274235-8.3870968-8.3265306 0-4.5991072 3.7558468-8.3265307 8.3870968-8.3265307zm-20.967742-13.5306122c6.3697707 0 11.5322581 5.12520727 11.5322581 11.4489796 0 6.3237723-5.1624874 11.4489796-11.5322581 11.4489796-6.3679687 0-11.53225802-5.1252073-11.53225802-11.4489796 0-6.32377233 5.16428932-11.4489796 11.53225802-11.4489796z" filter="url(#d)"/><path d="m23.0645161 28.1020408c4.5158393 0 8.4263573 2.577428 10.3190987 6.3319424.3125225-.0455859.6323423-.0735552.9567866-.0832278l.2563728-.0038166h8.3870968c3.1608941 0 5.9140028 1.7363296 7.3435392 4.3010559.3741097-.0752479.760132-.1207592 1.1549124-.1338492l.2381075-.0039414h6.639785c3.5867017 0 6.51018 2.6753423 6.6355928 6.0208905l.0041921.2240074v3.122449c0 1.6647229-1.3859268 3.0256289-3.1315336 3.1175051l-.1883589.0049439h-13.2795699c-.1995299 0-.3949548-.0165648-.5848045-.0483117-.1389987.0213103-.2799933.0356787-.4227905.0428899l-.2155232.0054218h-16.7741936c-.2452457 0-.4855819-.0209121-.7192975-.0610376-.2776814.0397272-.5629807.0610376-.8532831.0610376h-23.06451617c-3.18398437 0-5.76612903-2.5634981-5.76612903-5.7244898v-5.7244898c0-6.3237723 5.16428931-11.4489796 11.5322581-11.4489796zm31.9758065-7.2857143c3.7639554 0 6.8145161 2.7955676 6.8145161 6.244898 0 3.4493303-3.0505607 6.2448979-6.8145161 6.2448979-3.7628906 0-6.8145161-2.7955676-6.8145161-6.2448979 0-3.4493304 3.0516255-6.244898 6.8145161-6.244898zm-16.25-7.2857143c4.6325605 0 8.3870968 3.7274235 8.3870968 8.3265307 0 4.5991071-3.7545363 8.3265306-8.3870968 8.3265306-4.63125 0-8.3870968-3.7274235-8.3870968-8.3265306 0-4.5991072 3.7558468-8.3265307 8.3870968-8.3265307zm-20.967742-13.5306122c6.3697707 0 11.5322581 5.12520727 11.5322581 11.4489796 0 6.3237723-5.1624874 11.4489796-11.5322581 11.4489796-6.3679687 0-11.53225802-5.1252073-11.53225802-11.4489796 0-6.32377233 5.16428932-11.4489796 11.53225802-11.4489796z"/></g></g></svg>