<svg xmlns="http://www.w3.org/2000/svg" xmlns:xlink="http://www.w3.org/1999/xlink" width="64" height="72" viewBox="0 0 64 72">
  <defs>
    <path id="user-created-groups-a" d="M0.5,13.84 C0.5,6.473 6.473,0.5 13.84,0.5 L62.16,0.5 C69.527,0.5 75.5,6.473 75.5,13.84 L75.5,62.16 C75.5,69.527 69.527,75.5 62.16,75.5 L13.84,75.5 C6.473,75.5 0.5,69.527 0.5,62.16 L0.5,13.84 Z"/>
    <path id="user-created-groups-c" d="M0.5,13.84 C0.5,6.473 6.473,0.5 13.84,0.5 L62.16,0.5 C69.527,0.5 75.5,6.473 75.5,13.84 L75.5,62.16 C75.5,69.527 69.527,75.5 62.16,75.5 L13.84,75.5 C6.473,75.5 0.5,69.527 0.5,62.16 L0.5,13.84 Z"/>
    <linearGradient id="user-created-groups-d" x1="50%" x2="50%" y1="0%" y2="100%">
      <stop offset="0%" stop-color="#3F6ABC"/>
      <stop offset="100%" stop-color="#1851BE"/>
    </linearGradient>
    <filter id="user-created-groups-e" width="109.5%" height="108%" x="-4.7%" y="-4%" filterUnits="objectBoundingBox">
      <feGaussianBlur in="SourceGraphic" stdDeviation=".65"/>
    </filter>
    <radialGradient id="user-created-groups-g" cx="45.734%" cy="0%" r="132.437%" fx="45.734%" fy="0%" gradientTransform="matrix(0 1 -.78947 0 .457 -.457)">
      <stop offset="0%" stop-color="#FFF"/>
      <stop offset="100%" stop-color="#AEC3EB"/>
    </radialGradient>
    <filter id="user-created-groups-h" width="106.8%" height="108.7%" x="-3.4%" y="-4.3%" filterUnits="objectBoundingBox">
      <feGaussianBlur in="SourceGraphic" stdDeviation=".65"/>
    </filter>
  </defs>
  <g fill="none" fill-rule="evenodd" transform="translate(-8 -2)">
    <mask id="user-created-groups-b" fill="#fff">
      <use xlink:href="#user-created-groups-a"/>
    </mask>
    <path d="M0.5,13.84 C0.5,6.473 6.473,0.5 13.84,0.5 L62.16,0.5 C69.527,0.5 75.5,6.473 75.5,13.84 L75.5,62.16 C75.5,69.527 69.527,75.5 62.16,75.5 L13.84,75.5 C6.473,75.5 0.5,69.527 0.5,62.16 L0.5,13.84 Z" mask="url(#user-created-groups-b)"/>
    <path d="M0.5,13.84 C0.5,6.473 6.473,0.5 13.84,0.5 L62.16,0.5 C69.527,0.5 75.5,6.473 75.5,13.84 L75.5,62.16 C75.5,69.527 69.527,75.5 62.16,75.5 L13.84,75.5 C6.473,75.5 0.5,69.527 0.5,62.16 L0.5,13.84 Z"/>
    <path d="M0.5,13.84 C0.5,6.473 6.473,0.5 13.84,0.5 L62.16,0.5 C69.527,0.5 75.5,6.473 75.5,13.84 L75.5,62.16 C75.5,69.527 69.527,75.5 62.16,75.5 L13.84,75.5 C6.473,75.5 0.5,69.527 0.5,62.16 L0.5,13.84 Z"/>
    <mask id="user-created-groups-f" fill="#fff">
      <use xlink:href="#user-created-groups-c"/>
    </mask>
    <rect width="59" height="70" x="9" y="3" fill="url(#user-created-groups-d)" fill-rule="nonzero" stroke="#FFF" stroke-opacity=".01" stroke-width="1.68" filter="url(#user-created-groups-e)" mask="url(#user-created-groups-f)" rx="15"/>
    <rect width="59" height="70" x="9" y="3" fill="url(#user-created-groups-d)" fill-rule="nonzero" stroke="#FFF" stroke-opacity=".01" stroke-width="1.68" mask="url(#user-created-groups-f)" rx="15"/>
    <g fill="url(#user-created-groups-g)" transform="translate(14 15)">
      <path d="M20.2258065,24.7959184 C24.1858883,24.7959184 27.6151398,27.0701634 29.2749102,30.3830222 C29.5436268,30.3434982 29.8178526,30.3190596 30.0959761,30.310049 L30.3387097,30.3061224 L37.6935484,30.3061224 C40.4657576,30.3061224 42.8802807,31.838563 44.1337399,34.1020248 C44.4566824,34.035711 44.7903578,33.9957475 45.1315367,33.9835702 L45.3548387,33.9795918 L51.1774194,33.9795918 C54.3178045,33.9795918 56.8783958,36.332874 56.9957946,39.2784165 L57,39.4897959 L57,42.244898 C57,43.7098852 55.7910707,44.9082152 54.2660282,44.9949708 L54.0887097,45 L42.4435484,45 C42.2684105,45 42.0968791,44.9853563 41.9302473,44.9572925 C41.8088887,44.9761319 41.6853535,44.9888332 41.5600939,44.9952075 L41.3709677,45 L26.6612903,45 C26.4450566,45 26.2331752,44.9813465 26.0271713,44.9455629 C25.7846236,44.9813761 25.5356136,45 25.2822581,45 L25.2822581,45 L5.05645161,45 C2.26434224,45 0,42.7380899 0,39.9489796 L0,39.9489796 L0,34.8979592 C0,29.3181601 4.52868448,24.7959184 10.1129032,24.7959184 L10.1129032,24.7959184 Z M48.266129,18.3673469 C51.5668284,18.3673469 54.2419355,20.8340242 54.2419355,23.877551 C54.2419355,26.9210778 51.5668284,29.3877551 48.266129,29.3877551 C44.9663634,29.3877551 42.2903226,26.9210778 42.2903226,23.877551 C42.2903226,20.8340242 44.9663634,18.3673469 48.266129,18.3673469 Z M34.016129,11.9387755 C38.0785282,11.9387755 41.3709677,15.2276786 41.3709677,19.2857143 C41.3709677,23.34375 38.0785282,26.6326531 34.016129,26.6326531 C29.954879,26.6326531 26.6612903,23.34375 26.6612903,19.2857143 C26.6612903,15.2276786 29.954879,11.9387755 34.016129,11.9387755 Z M15.6290323,0 C21.2148311,0 25.7419355,4.52224171 25.7419355,10.1020408 C25.7419355,15.6818399 21.2148311,20.2040816 15.6290323,20.2040816 C10.0448135,20.2040816 5.51612903,15.6818399 5.51612903,10.1020408 C5.51612903,4.52224171 10.0448135,0 15.6290323,0 Z" filter="url(#user-created-groups-h)"/>
      <path d="M20.2258065,24.7959184 C24.1858883,24.7959184 27.6151398,27.0701634 29.2749102,30.3830222 C29.5436268,30.3434982 29.8178526,30.3190596 30.0959761,30.310049 L30.3387097,30.3061224 L37.6935484,30.3061224 C40.4657576,30.3061224 42.8802807,31.838563 44.1337399,34.1020248 C44.4566824,34.035711 44.7903578,33.9957475 45.1315367,33.9835702 L45.3548387,33.9795918 L51.1774194,33.9795918 C54.3178045,33.9795918 56.8783958,36.332874 56.9957946,39.2784165 L57,39.4897959 L57,42.244898 C57,43.7098852 55.7910707,44.9082152 54.2660282,44.9949708 L54.0887097,45 L42.4435484,45 C42.2684105,45 42.0968791,44.9853563 41.9302473,44.9572925 C41.8088887,44.9761319 41.6853535,44.9888332 41.5600939,44.9952075 L41.3709677,45 L26.6612903,45 C26.4450566,45 26.2331752,44.9813465 26.0271713,44.9455629 C25.7846236,44.9813761 25.5356136,45 25.2822581,45 L25.2822581,45 L5.05645161,45 C2.26434224,45 0,42.7380899 0,39.9489796 L0,39.9489796 L0,34.8979592 C0,29.3181601 4.52868448,24.7959184 10.1129032,24.7959184 L10.1129032,24.7959184 Z M48.266129,18.3673469 C51.5668284,18.3673469 54.2419355,20.8340242 54.2419355,23.877551 C54.2419355,26.9210778 51.5668284,29.3877551 48.266129,29.3877551 C44.9663634,29.3877551 42.2903226,26.9210778 42.2903226,23.877551 C42.2903226,20.8340242 44.9663634,18.3673469 48.266129,18.3673469 Z M34.016129,11.9387755 C38.0785282,11.9387755 41.3709677,15.2276786 41.3709677,19.2857143 C41.3709677,23.34375 38.0785282,26.6326531 34.016129,26.6326531 C29.954879,26.6326531 26.6612903,23.34375 26.6612903,19.2857143 C26.6612903,15.2276786 29.954879,11.9387755 34.016129,11.9387755 Z M15.6290323,0 C21.2148311,0 25.7419355,4.52224171 25.7419355,10.1020408 C25.7419355,15.6818399 21.2148311,20.2040816 15.6290323,20.2040816 C10.0448135,20.2040816 5.51612903,15.6818399 5.51612903,10.1020408 C5.51612903,4.52224171 10.0448135,0 15.6290323,0 Z"/>
    </g>
  </g>
</svg>
