<svg height="710" viewBox="0 0 1124 710" width="1124" xmlns="http://www.w3.org/2000/svg" xmlns:xlink="http://www.w3.org/1999/xlink"><linearGradient id="a" x1="50.007%" x2="50.007%" y1="-141.4%" y2="-47.015%"><stop offset="0" stop-color="#2a6cbe"/><stop offset=".38688" stop-color="#2062bc"/><stop offset=".49182" stop-color="#1f5fbc"/><stop offset=".66583" stop-color="#1c5abd"/><stop offset=".85354" stop-color="#1956bc"/><stop offset="1" stop-color="#1851be"/></linearGradient><g fill="none" fill-rule="evenodd"><rect fill="#8792a2" height="32" opacity=".238" rx="16" width="456.205" x="129" y="105"/><rect fill="#ffb300" height="10" opacity=".453" rx="5" width="110" x="79" y="80"/><rect fill="#ffb300" height="10" rx="5" width="23" x="51" y="80"/><rect fill="#8792a2" height="32" opacity=".238" rx="16" width="68" x="51" y="105"/><ellipse cx="85.067" cy="261.333" fill="#8792a2" opacity=".24" rx="35.031" ry="35.029"/><ellipse cx="110.361" cy="235.361" fill="#1eb8c1" rx="8.361" ry="8.361" stroke="#fff" stroke-width="4"/><path d="m65.4493971 35.4840882c6.9069169 0 12.5060793 5.5991624 12.5060793 12.5060793s-5.5991624 12.5060794-12.5060793 12.5060794h-52.0564077c-6.9069169 0-12.50607934-5.5991625-12.50607934-12.5060794s5.59916244-12.5060793 12.50607934-12.5060793zm320.1273379 0c6.906916 0 12.506079 5.5991624 12.506079 12.5060793s-5.599163 12.5060794-12.506079 12.5060794h-285.183746c-6.9069165 0-12.5060789-5.5991625-12.5060789-12.5060794s5.5991624-12.5060793 12.5060789-12.5060793zm139.804096-34.98784133c6.906917 0 12.506079 5.59916244 12.506079 12.50607933 0 6.9069169-5.599162 12.5060794-12.506079 12.5060794h-511.9878416c-6.9069169 0-12.50607934-5.5991625-12.50607934-12.5060794 0-6.90691689 5.59916244-12.50607933 12.50607934-12.50607933zm304 0c6.906917 0 12.506079 5.59916244 12.506079 12.50607933 0 6.9069169-5.599162 12.5060794-12.506079 12.5060794h-268.987842c-6.906916 0-12.506079-5.5991625-12.506079-12.5060794 0-6.90691689 5.599163-12.50607933 12.506079-12.50607933zm-704.993921 105.00000013c6.903559 0 12.5 5.59644 12.5 12.5 0 6.903559-5.596441 12.5-12.5 12.5h-110.9999999c-6.90355941 0-12.50000004-5.596441-12.50000004-12.5 0-6.90356 5.59644063-12.5 12.50000004-12.5zm176 0c6.903559 0 12.5 5.59644 12.5 12.5 0 6.903559-5.596441 12.5-12.5 12.5h-141c-6.903559 0-12.5-5.596441-12.5-12.5 0-6.90356 5.596441-12.5 12.5-12.5z" fill="#8792a2" opacity=".238" transform="translate(136.113 267.504)"/><g transform="translate(51 536)"><g fill="#8792a2"><ellipse cx="35.031" cy="36.333" opacity=".24" rx="35.031" ry="35.029"/><ellipse cx="60.326" cy="10.361" rx="8.361" ry="8.361" stroke="#fff" stroke-width="4"/><path d="m360.458302 77.9878413c6.906917 0 12.506079 5.5991625 12.506079 12.5060794s-5.599162 12.5060793-12.506079 12.5060793h-260.9878415c-6.9069169 0-12.5060794-5.5991624-12.5060794-12.5060793s5.5991625-12.5060794 12.5060794-12.5060794zm61-34.9878413c6.906917 0 12.506079 5.5991624 12.506079 12.5060793s-5.599162 12.5060794-12.506079 12.5060794h-321.9878415c-6.9069169 0-12.5060794-5.5991625-12.5060794-12.5060794s5.5991625-12.5060793 12.5060794-12.5060793zm494 0c6.906917 0 12.506079 5.5991624 12.506079 12.5060793s-5.599162 12.5060794-12.506079 12.5060794h-458.987842c-6.906916 0-12.506079-5.5991625-12.506079-12.5060794s5.599163-12.5060793 12.506079-12.5060793z" opacity=".238"/></g><rect fill="#1851be" height="18" rx="9" width="60" x="86.964"/><rect fill="#efe3f7" height="18" rx="3" width="42" x="156.964"/><rect fill="#e6f7e3" height="18" rx="3" width="44" x="204"/><rect fill="#cba3e5" height="6" rx="3" width="32" x="161.964" y="6"/><rect fill="#ade5a4" height="6" rx="3" width="34" x="209" y="6"/><rect fill="#8792a2" height="18" opacity=".12" rx="9" width="110" x="258"/></g><rect fill="#1851be" height="10.008" rx="3" width="40" x="942" y="663"/><rect fill="#1851be" height="10.008" rx="3" width="40" x="987" y="663"/><rect fill="#8792a2" height="10.008" opacity=".164" rx="3" width="6" x="1056.949" y="663"/><rect fill="#1851be" height="10.008" rx="3" width="6" x="1032.949" y="663"/><rect fill="#8792a2" height="10.008" opacity=".241" rx="3" width="12" x="1041.753" y="663.039"/><rect fill="#8792a2" height="10.008" opacity=".44" rx="3" width="12" x="1072.949" y="663"/><rect fill="#1851be" height="10.008" rx="3" width="40" x="942" y="432"/><rect fill="#1851be" height="10.008" rx="3" width="40" x="987" y="432"/><g fill="#8792a2"><rect height="10.008" opacity=".164" rx="3" width="6" x="1056.949" y="432"/><rect height="10.008" opacity=".164" rx="3" width="6" x="1032.949" y="432"/><rect height="10.008" opacity=".241" rx="3" width="12" x="1041.753" y="432.039"/><rect height="10.008" opacity=".44" rx="3" width="12" x="1072.949" y="432"/></g><rect fill="#1851be" height="18" rx="9" width="60" x="50" y="19"/><rect fill="#8792a2" height="8" opacity=".241" rx="3" width="12" x="115" y="24"/><rect fill="#8792a2" height="8" opacity=".241" rx="3" width="12" x="220" y="24"/><rect fill="#1851be" height="18" rx="9" width="83" x="132" y="19"/><rect fill="#8792a2" height="18" opacity=".141" rx="9" width="218" x="237" y="19"/><rect fill="#8792a2" height="18" opacity=".261" rx="9" width="26" x="465" y="19"/><rect fill="#1851be" height="18" rx="9" width="60" x="137" y="225"/><rect fill="#8792a2" height="18" opacity=".12" rx="9" width="110" x="207" y="225"/><g transform="translate(577 462)"><path d="m5 0h127v42h-127c-2.76142375 0-5-2.2385763-5-5v-32c0-2.76142375 2.23857625-5 5-5z" fill="url(#a)"/><rect fill="#5c84d1" height="10" rx="3" width="16" x="26" y="16"/><rect fill="#5c84d1" height="9" rx="3" width="58" x="52" y="16"/><path d="m132 0h21c2.761424 0 5 2.23857625 5 5v32c0 2.7614237-2.238576 5-5 5h-21z" fill="url(#a)" opacity=".262"/><rect fill="#1851be" height="10" rx="3" width="9" x="141" y="16"/></g><rect fill="#8792a2" height="18" opacity=".322" rx="3" width="34" x="533" y="466"/><rect fill="#8792a2" height="18" opacity=".322" rx="3" width="33" x="483" y="466"/><rect fill="#eceef0" height="10.008" rx="3" width="33" x="483" y="490.047"/><rect fill="#eceef0" height="10.008" rx="3" width="33" x="534" y="490.047"/><g transform="translate(966 462)"><rect fill="#e3e8ee" height="42" rx="5" width="121"/><g fill="#8792a2"><rect height="10" opacity=".452" rx="3" width="18" x="30" y="16"/><rect height="10" opacity=".452" rx="3" transform="matrix(-1 0 0 1 142 0)" width="38" x="52" y="16"/><rect height="10" opacity=".652" rx="3" width="14" x="11" y="16"/><rect height="10" rx="3" width="14" x="95" y="16"/></g></g><rect fill="#8792a2" height="10" opacity=".725" rx="3" width="14" x="932.929" y="478.045"/><rect height="41" rx="5" stroke="#8792a2" stroke-opacity=".24" width="97" x="858.5" y="462.5"/><rect fill="#8792a2" height="10" opacity=".176" rx="3" width="42" x="886" y="478"/><rect fill="#8792a2" height="10" opacity=".376" rx="3" width="14" x="867" y="478"/><rect fill="#8792a2" height="10" opacity=".725" rx="3" width="14" x="824.929" y="478.045"/><rect height="41" rx="5" stroke="#8792a2" stroke-opacity=".24" width="97" x="750.5" y="462.5"/><rect fill="#8792a2" height="10" opacity=".176" rx="3" width="42" x="778" y="478"/><rect fill="#8792a2" height="10" opacity=".376" rx="3" width="14" x="759" y="478"/></g></svg>