<svg height="1002" viewBox="0 0 1124 1002" width="1124" xmlns="http://www.w3.org/2000/svg" xmlns:xlink="http://www.w3.org/1999/xlink"><linearGradient id="a" x1="50.007%" x2="50.007%" y1="-141.4%" y2="-47.015%"><stop offset="0" stop-color="#2a6cbe"/><stop offset=".38688" stop-color="#2062bc"/><stop offset=".49182" stop-color="#1f5fbc"/><stop offset=".66583" stop-color="#1c5abd"/><stop offset=".85354" stop-color="#1956bc"/><stop offset="1" stop-color="#1851be"/></linearGradient><g fill="none" fill-rule="evenodd"><g transform="translate(-6 -1)"><path d="m.672.905h1131.001v116.097h-1131.001z" fill="#fff" transform="matrix(-1 0 0 -1 1132.344 117.908)"/><path d="m6 1h1124v42h-1124z" fill="#000306" transform="matrix(-1 0 0 -1 1136 44)"/><path d="m104.88691 47.793995c8.836556 0 16 7.163444 16 16s-7.163444 16-16 16h-87.9999999c-8.83655603 0-16.00000004-7.163444-16.00000004-16s7.16344401-16 16.00000004-16zm888-47c8.83656 0 16 7.163444 16 16s-7.16344 16-16 16h-975.9999999c-8.83655603 0-16.00000004-7.163444-16.00000004-16s7.16344401-16 16.00000004-16z" fill="#8792a2" opacity=".238" transform="translate(56.113 233.206)"/><ellipse cx="91.067" cy="400.333" fill="#8792a2" opacity=".24" rx="35.031" ry="35.029"/><ellipse cx="116.361" cy="374.361" fill="#1eb8c1" rx="8.361" ry="8.361" stroke="#fff" stroke-width="4"/><path d="m65.4493971 35.4840882c6.9069169 0 12.5060793 5.5991624 12.5060793 12.5060793s-5.5991624 12.5060794-12.5060793 12.5060794h-52.0564077c-6.9069169 0-12.50607934-5.5991625-12.50607934-12.5060794s5.59916244-12.5060793 12.50607934-12.5060793zm320.1273379 0c6.906916 0 12.506079 5.5991624 12.506079 12.5060793s-5.599163 12.5060794-12.506079 12.5060794h-285.183746c-6.9069165 0-12.5060789-5.5991625-12.5060789-12.5060794s5.5991624-12.5060793 12.5060789-12.5060793zm139.804096-34.98784133c6.906917 0 12.506079 5.59916244 12.506079 12.50607933 0 6.9069169-5.599162 12.5060794-12.506079 12.5060794h-511.9878416c-6.9069169 0-12.50607934-5.5991625-12.50607934-12.5060794 0-6.90691689 5.59916244-12.50607933 12.50607934-12.50607933zm304 0c6.906917 0 12.506079 5.59916244 12.506079 12.50607933 0 6.9069169-5.599162 12.5060794-12.506079 12.5060794h-268.987842c-6.906916 0-12.506079-5.5991625-12.506079-12.5060794 0-6.90691689 5.599163-12.50607933 12.506079-12.50607933zm-704.993921 105.00000013c6.903559 0 12.5 5.59644 12.5 12.5 0 6.903559-5.596441 12.5-12.5 12.5h-110.9999999c-6.90355941 0-12.50000004-5.596441-12.50000004-12.5 0-6.90356 5.59644063-12.5 12.50000004-12.5zm176 0c6.903559 0 12.5 5.59644 12.5 12.5 0 6.903559-5.596441 12.5-12.5 12.5h-141c-6.903559 0-12.5-5.596441-12.5-12.5 0-6.90356 5.596441-12.5 12.5-12.5z" fill="#8792a2" opacity=".238" transform="translate(142.113 406.504)"/><g transform="translate(57 675)"><g fill="#8792a2"><ellipse cx="35.031" cy="36.333" opacity=".24" rx="35.031" ry="35.029"/><ellipse cx="60.326" cy="10.361" rx="8.361" ry="8.361" stroke="#fff" stroke-width="4"/><path d="m360.458302 77.9878413c6.906917 0 12.506079 5.5991625 12.506079 12.5060794s-5.599162 12.5060793-12.506079 12.5060793h-260.9878415c-6.9069169 0-12.5060794-5.5991624-12.5060794-12.5060793s5.5991625-12.5060794 12.5060794-12.5060794zm61-34.9878413c6.906917 0 12.506079 5.5991624 12.506079 12.5060793s-5.599162 12.5060794-12.506079 12.5060794h-321.9878415c-6.9069169 0-12.5060794-5.5991625-12.5060794-12.5060794s5.5991625-12.5060793 12.5060794-12.5060793zm494 0c6.906917 0 12.506079 5.5991624 12.506079 12.5060793s-5.599162 12.5060794-12.506079 12.5060794h-458.987842c-6.906916 0-12.506079-5.5991625-12.506079-12.5060794s5.599163-12.5060793 12.506079-12.5060793z" opacity=".238"/></g><rect fill="#1851be" height="18" rx="9" width="60" x="86.964"/><rect fill="#efe3f7" height="18" rx="9" width="42" x="156.964"/><rect fill="#e6f7e3" height="18" rx="9" width="44" x="204"/><rect fill="#cba3e5" height="5" rx="2.5" width="26" x="164.964" y="6"/><rect fill="#ade5a4" height="5" rx="2.5" width="28" x="212" y="6"/><rect fill="#8792a2" height="18" opacity=".12" rx="9" width="110" x="258"/></g><g transform="translate(596 601)"><path d="m5 0h127v42h-127c-2.76142375 0-5-2.2385763-5-5v-32c0-2.76142375 2.23857625-5 5-5z" fill="url(#a)"/><rect fill="#5c84d1" height="10" rx="3" width="16" x="26" y="16"/><rect fill="#5c84d1" height="9" rx="3" width="58" x="52" y="16"/><path d="m132 0h21c2.761424 0 5 2.23857625 5 5v32c0 2.7614237-2.238576 5-5 5h-21z" fill="url(#a)" opacity=".262"/><rect fill="#1851be" height="10" rx="3" width="9" x="141" y="16"/></g><rect fill="#8792a2" height="18" opacity=".322" rx="3" width="34" x="552" y="605"/><rect fill="#8792a2" height="18" opacity=".322" rx="3" width="33" x="502" y="605"/><rect fill="#eceef0" height="10.008" rx="3" width="33" x="502" y="629.047"/><rect fill="#eceef0" height="10.008" rx="3" width="33" x="553" y="629.047"/><g transform="translate(763.872 601)"><rect height="41" rx="5" stroke="#8792a2" stroke-opacity=".24" width="97" x=".628" y=".5"/><rect fill="#8792a2" height="10" opacity=".176" rx="3" width="52" x="32.199" y="15.955"/><rect fill="#8792a2" height="10" opacity=".376" rx="3" width="14" x="13.199" y="15.955"/><rect height="41" rx="5" stroke="#8792a2" stroke-opacity=".24" width="120" x="108.628" y=".5"/><g fill="#8792a2"><rect height="10" opacity=".176" rx="3" width="18" x="138.128" y="16"/><rect height="10" opacity=".176" rx="3" transform="matrix(-1 0 0 1 358.256 0)" width="38" x="160.128" y="16"/><rect height="10" opacity=".376" rx="3" width="14" x="119.128" y="16"/><rect height="10" opacity=".725" rx="3" width="14" x="203.128" y="16"/><rect height="10" opacity=".725" rx="3" width="14" x="314.057" y="16.045"/></g><rect height="41" rx="5" stroke="#8792a2" stroke-opacity=".24" width="97" x="239.628" y=".5"/><rect fill="#8792a2" height="10" opacity=".176" rx="3" width="42" x="267.128" y="16"/><rect fill="#8792a2" height="10" opacity=".376" rx="3" width="14" x="248.128" y="16"/></g><g transform="translate(595 934)"><path d="m5 0h127v42h-127c-2.76142375 0-5-2.2385763-5-5v-32c0-2.76142375 2.23857625-5 5-5z" fill="url(#a)"/><rect fill="#5c84d1" height="10" rx="3" width="16" x="26" y="16"/><rect fill="#5c84d1" height="9" rx="3" width="58" x="52" y="16"/><path d="m132 0h21c2.761424 0 5 2.23857625 5 5v32c0 2.7614237-2.238576 5-5 5h-21z" fill="url(#a)" opacity=".262"/><rect fill="#1851be" height="10" rx="3" width="9" x="141" y="16"/></g><rect fill="#8792a2" height="18" opacity=".322" rx="3" width="34" x="551" y="938"/><rect fill="#8792a2" height="18" opacity=".322" rx="3" width="33" x="501" y="938"/><rect fill="#eceef0" height="10.008" rx="3" width="33" x="501" y="962.047"/><rect fill="#eceef0" height="10.008" rx="3" width="33" x="552" y="962.047"/><g transform="translate(762.872 934)"><rect height="41" rx="5" stroke="#8792a2" stroke-opacity=".24" width="97" x=".628" y=".5"/><rect fill="#8792a2" height="10" opacity=".176" rx="3" width="52" x="32.199" y="15.955"/><rect fill="#8792a2" height="10" opacity=".376" rx="3" width="14" x="13.199" y="15.955"/><rect height="41" rx="5" stroke="#8792a2" stroke-opacity=".24" width="120" x="108.628" y=".5"/><g fill="#8792a2"><rect height="10" opacity=".176" rx="3" width="18" x="138.128" y="16"/><rect height="10" opacity=".176" rx="3" transform="matrix(-1 0 0 1 358.256 0)" width="38" x="160.128" y="16"/><rect height="10" opacity=".376" rx="3" width="14" x="119.128" y="16"/><rect height="10" opacity=".725" rx="3" width="14" x="203.128" y="16"/><rect height="10" opacity=".725" rx="3" width="14" x="314.057" y="16.045"/></g><rect height="41" rx="5" stroke="#8792a2" stroke-opacity=".24" width="97" x="239.628" y=".5"/><rect fill="#8792a2" height="10" opacity=".176" rx="3" width="42" x="267.128" y="16"/><rect fill="#8792a2" height="10" opacity=".376" rx="3" width="14" x="248.128" y="16"/></g><rect fill="#1851be" height="10.008" rx="3" width="40" x="956" y="571"/><rect fill="#1851be" height="10.008" rx="3" width="40" x="1001" y="571"/><rect fill="#8792a2" height="10.008" opacity=".164" rx="3" width="6" x="1070.949" y="571"/><rect fill="#8792a2" height="10.008" opacity=".164" rx="3" width="6" x="1046.949" y="571"/><rect fill="#8792a2" height="10.008" opacity=".241" rx="3" width="12" x="1055.753" y="571.039"/><rect fill="#8792a2" height="10.008" opacity=".44" rx="3" width="12" x="1086.949" y="571"/><rect fill="#1851be" height="10.008" rx="3" width="40" x="956" y="802"/><rect fill="#1851be" height="10.008" rx="3" width="40" x="1001" y="802"/><g fill="#8792a2"><rect height="10.008" opacity=".164" rx="3" width="6" x="1070.949" y="802"/><rect height="10.008" opacity=".164" rx="3" width="6" x="1046.949" y="802"/><rect height="10.008" opacity=".241" rx="3" width="12" x="1055.753" y="802.039"/><rect height="10.008" opacity=".44" rx="3" width="12" x="1086.949" y="802"/><ellipse cx="94.031" cy="847.333" opacity=".24" rx="35.031" ry="35.029"/></g><ellipse cx="119.326" cy="821.361" fill="#1eb8c1" rx="8.361" ry="8.361" stroke="#fff" stroke-width="4"/><rect fill="#8792a2" height="25" opacity=".238" rx="12.5" width="443" x="145.964" y="854"/><rect fill="#1851be" height="18" rx="9" width="60" x="145.964" y="811"/><rect fill="#8792a2" height="18" opacity=".12" rx="9" width="110" x="215.964" y="811"/><rect fill="#1851be" height="10.008" rx="3" width="40" x="956" y="903"/><rect fill="#1851be" height="10.008" rx="3" width="40" x="1001" y="903"/><rect fill="#8792a2" height="10.008" opacity=".164" rx="3" width="6" x="1070.949" y="903"/><rect fill="#8792a2" height="10.008" opacity=".164" rx="3" width="6" x="1046.949" y="903"/><rect fill="#8792a2" height="10.008" opacity=".241" rx="3" width="12" x="1055.753" y="903.039"/><rect fill="#8792a2" height="10.008" opacity=".44" rx="3" width="12" x="1086.949" y="903"/><g fill-rule="nonzero" transform="translate(56.998 61.002)"><path d="m127.35494 0c14.965147 0 27.096795 9.40202678 27.096795 21.0000146 0 11.5979878-12.131648 21.0000146-27.096795 21.0000146s-27.096796-9.4020268-27.096796-21.0000146c0-11.59798782 12.131649-21.0000146 27.096796-21.0000146zm2.303723 5.06869506h-.518578c-1.104569 0-2 .8954305-2 2l.001004 8.35677764c-1.827523-1.2687297-4.096013-1.9970638-6.626475-1.9970638-6.459439 0-11.280614 4.8149508-11.280614 11.2503177 0 6.435367 4.821175 11.2503178 11.280614 11.2503178 4.321423 0 7.878817-2.1241463 9.780688-5.4363945l.134578.1354832c2.008042 1.9660687 4.800179 3.1418279 7.992361 3.1418279 6.507136 0 11.282156-4.815609 11.282156-11.2518557 0-6.4362466-4.77502-11.2518556-11.282156-11.2518556-2.901591 0-5.472654.9714385-7.424768 2.6248391-.118878.1006873 0-3.551191 0-7.07381521 0-1.20978076-.894022-1.74857853-1.33881-1.74857853zm-9.303735 13.51123944c3.588756 0 6.112716 2.6678024 6.112716 6.1246732 0 3.3817213-2.52396 6.1246731-6.112716 6.1246731s-6.112716-2.7429518-6.112716-6.1246731c0-3.4568708 2.52396-6.1246732 6.112716-6.1246732zm18.59952-2.0274781c3.588756 0 6.112716 2.6678025 6.112716 6.1246732 0 3.3817214-2.52396 6.1246732-6.112716 6.1246732s-6.112716-2.7429518-6.112716-6.1246732c0-3.4568707 2.52396-6.1246732 6.112716-6.1246732zm-27.62503-9.38401962h-1.323564c-.409515 0-.741492.33262667-.741492.74294247v8.78149105c0 .1046449.032833.2066526.093872.291651.161075.2242981.473481.275551.697779.1144766l2.378507-1.708069c.392387-.2817834.625047-.7352999.625047-1.2183829v-5.2705768c0-.95740352-.774614-1.73353242-1.730149-1.73353242z" fill="#1851be"/><path d="m83.4573712 12.1935569c6.364562 0 10.91222 3.6731571 11.1490952 10.8802978l.008087.3514901c.0130268.9814957-.7720724 1.7877156-1.7535681 1.8007424l-16.6607193.000135c0 2.8872835 1.5702888 6.2082879 7.5039455 6.2082879 3.0306895 0 5.9994455-.8344619 8.9062681-2.5033857l.414853-.2440711c.5848761-.3525067 1.3447749-.1641341 1.6972816.420742.2469307.4097052.2335449.9206807-.0236159 1.3142483l-.0844449.1143293c-.4484628.5396202-4.5987086 4.689458-10.9103419 4.689458-6.8621607 0-11.8977031-4.833934-11.8977031-11.5635285 0-6.5400285 4.7887021-11.4687455 11.6508628-11.4687455zm0 3.7913208c-3.949445 0-6.6646884 2.2747925-7.2077371 5.6869812h13.9217936c-.5430487-3.4121887-2.9620837-5.6869812-6.7140565-5.6869812zm-15.0318087-12.59777857c1.1013657 0 1.994199.89283328 1.994199 1.99419896l-.0001422 17.24483051c.0212566.3010037.0320494.6059188.0320494.9144191 0 6.6841744-5.0665949 11.6852832-11.8548481 11.6852832-6.8374435 0-11.8548481-5.0011088-11.8548481-11.6852832 0-6.6841743 5.0174046-11.6852831 11.8548481-11.6852831 3.0655821 0 5.7800433 1.0199436 7.8353111 2.7542353l-.0007681-9.22820181c0-1.10136568.8928332-1.99419896 1.9941989-1.99419896zm-9.8287419 12.31517227c-4.476312 0-7.6244874 3.4142185-7.6244874 7.8382763 0 4.3278827 3.1481754 7.8382764 7.6244874 7.8382764 4.4763119 0 7.6244873-3.5103937 7.6244873-7.8382764 0-4.4240578-3.1481754-7.8382763-7.6244873-7.8382763zm-24.3871161-3.5087145c6.7882533 0 11.8548481 4.928717 11.8548481 11.516137 0 6.5874199-5.0665948 11.516137-11.8548481 11.516137-6.8374435 0-11.8548481-4.9287171-11.8548481-11.516137 0-6.58742 5.0174046-11.516137 11.8548481-11.516137zm0 3.7913208c-4.4763119 0-7.6244874 3.3647972-7.6244874 7.7248162 0 4.2652359 3.1481755 7.7248162 7.6244874 7.7248162s7.6244874-3.4595803 7.6244874-7.7248162c0-4.360019-3.1481755-7.7248162-7.6244874-7.7248162zm-22.363305-3.7913208c6.1935533 0 9.831037 4.0172571 9.831037 9.5468933v10.6942879c0 1.1673494-.9463236 2.113673-2.1136729 2.113673h-.113673c-1.1045695 0-2-.8954305-2-2v-10.477128c0-3.5919004-1.9170522-6.0967784-6.0460877-6.0967784-7.176657 0-7.176657 3.2650133-7.176657 7.2783247v11.2955817h-2.2273459c-1.1045695 0-2-.8954305-2-2 0-4.5504453 0-9.1008906 0-13.6513359 0-4.7776819 8.30722624-6.7035183 11.8463995-6.7035183z" fill="#040f20" stroke="#040e1f" stroke-width=".275"/></g><g fill="#8792a2" opacity=".499"><rect height="26" opacity=".436" rx="10" width="29" x="268.998" y="72.002"/><rect height="26" opacity=".536" rx="10" width="29" x="327.998" y="72.002"/><rect height="26" opacity=".336" rx="10" width="29" x="563.998" y="72.002"/><rect height="26" opacity=".636" rx="10" width="29" x="386.998" y="72.002"/><rect height="26" opacity=".536" rx="10" width="29" x="445.998" y="72.002"/><rect height="26" opacity=".236" rx="10" width="29" x="622.998" y="72.002"/><rect height="26" opacity=".215" rx="10" width="29" x="1011" y="72"/><rect height="26" opacity=".136" rx="10" width="29" x="952" y="72"/><rect height="26" opacity=".236" rx="10" width="29" x="893" y="72"/><rect height="33" opacity=".277" rx="16" width="32" x="1067" y="69"/><rect height="26" opacity=".436" rx="10" width="29" x="504.998" y="72.002"/></g><rect fill="#e02020" height="16" rx="3.5" width="16" x="407.998" y="64.002"/><rect fill="#fff" height="10" rx="3.5" width="94" x="542.998" y="19.002"/><rect fill="#fff" height="10" rx="3.5" width="94" x="656.998" y="19.002"/><rect fill="#fff" height="10" rx="3.5" width="94" x="770.998" y="19.002"/><rect fill="#fff" height="10" rx="3.5" width="94" x="884.998" y="19.002"/><rect fill="#1851be" height="10" rx="5" width="94" x="1004.998" y="19.002"/></g><rect fill="#1851be" height="18" rx="9" width="60" x="50" y="157"/><rect fill="#8792a2" height="8" opacity=".241" rx="3" width="12" x="115" y="162"/><rect fill="#8792a2" height="8" opacity=".241" rx="3" width="12" x="220" y="162"/><rect fill="#1851be" height="18" rx="9" width="83" x="132" y="157"/><rect fill="#8792a2" height="18" opacity=".141" rx="9" width="218" x="237" y="157"/><rect fill="#8792a2" height="18" opacity=".261" rx="9" width="26" x="465" y="157"/><rect fill="#1851be" height="18" rx="9" width="60" x="137" y="363"/><rect fill="#8792a2" height="18" opacity=".12" rx="9" width="110" x="207" y="363"/></g></svg>