<svg height="710" viewBox="0 0 562 710" width="562" xmlns="http://www.w3.org/2000/svg" xmlns:xlink="http://www.w3.org/1999/xlink"><defs><rect id="a" height="42" rx="5" width="480"/><mask id="b" fill="#fff" height="42" width="480" x="0" y="0"><use xlink:href="#a"/></mask></defs><g fill="none" fill-rule="evenodd"><path d="m0 0h562v710h-562z" fill="#fff"/><rect fill="#eceef0" height="42" rx="5" width="480" x="40" y="114"/><rect fill="#fff" height="24" rx="3" width="456" x="53" y="123"/><rect fill="#8792a2" height="10" opacity=".282" rx="5" width="120" x="63" y="130"/><g fill="#8792a2"><rect height="16" opacity=".399" rx="8" width="120" x="40" y="88"/><rect height="8" opacity=".18" rx="4" width="60" x="165" y="92"/><rect height="8" opacity=".18" rx="4" width="8" x="230" y="92"/><rect height="8" opacity=".18" rx="4" width="77" x="243" y="92"/></g><rect fill="#1851be" height="34" opacity=".904" rx="5" width="120" x="40" y="26"/><rect fill="#fff" height="12" rx="3" width="45" x="78" y="37"/><rect fill="#1851be" height="12" opacity=".35" rx="6" width="120" x="170" y="37"/><use style="fill:#f3e9f0;stroke:#eed5e7;stroke-dasharray:6;stroke-linejoin:round;stroke-width:3;mask:url(#b)" transform="translate(40 188)" xlink:href="#a"/><g transform="translate(40 321)"><path d="m5 0h470c2.761424 0 5 2.23857625 5 5v385h-480v-385c0-2.76142375 2.23857625-5 5-5z" fill="#eceef0"/><g transform="translate(18.462 13)"><path d="m.3 375.7h442.476923v-356.7c0-1.4911688-1.208831-2.7-2.7-2.7h-437.076923c-1.49116882 0-2.7 1.2088312-2.7 2.7z" fill="#fff" stroke="#8792a2" stroke-opacity=".281" stroke-width=".6"/><g fill="#000306"><rect height="8" rx="3" width="48.161"/><rect height="8" rx="3" width="9.632" x="433.445"/></g><g fill="#8792a2"><rect height="8" opacity=".243" rx="4" width="20.308" x="9.231" y="28"/><rect height="8" opacity=".243" rx="4" width="18.462" x="43.385" y="28"/><rect height="8" opacity=".243" rx="2.769" width="5.538" x="65.538" y="28"/><rect height="8" opacity=".243" rx="2.769" width="5.538" x="36" y="28"/><rect height="8" opacity=".243" rx="4" width="20.308" x="75.692" y="28"/><rect height="8" opacity=".243" rx="4" width="12" x="72.923" y="46"/><rect height="8" opacity=".243" rx="4" width="48" x="18.462" y="46"/><rect height="8" opacity=".243" rx="4" width="204.923" x="38.769" y="64"/><rect height="8" rx="4" width="44.308" x="248.308" y="64"/><rect height="8" opacity=".238" rx="4" width="92.308" x="297.231" y="64"/><rect height="8" opacity=".485" rx="4" width="48" x="114.462" y="52"/></g><g fill="#1851be"><rect height="8" opacity=".485" rx="4" width="48.352" x="211.21" y="92"/><rect height="8" opacity=".243" rx="4" width="11.604" x="194.77" y="92"/><rect height="8" opacity=".243" rx="4" width="11.604" x="264.396" y="92"/></g><rect fill="#8792a2" height="8" opacity=".485" rx="4" width="24.923" x="167.077" y="92"/><rect fill="#8792a2" height="8" opacity=".485" rx="4" width="24.923" x="241.846" y="36"/><rect fill="#8792a2" height="164" opacity=".243" rx="2.769" width="5.538" x="433.846" y="36"/><rect fill="#8792a2" height="8" opacity=".243" rx="4" width="101.538" x="53.538" y="129"/><rect fill="#8792a2" height="8" opacity=".243" rx="4" width="174.462" x="144.923" y="110"/><rect fill="#8792a2" height="8" opacity=".243" rx="4" width="146.769" x="231.692" y="128"/><rect fill="#8792a2" height="8" opacity=".243" rx="4" width="50.769" x="171.692" y="128"/><rect fill="#8792a2" height="8" opacity=".243" rx="4" width="70.154" x="53.538" y="110"/><g fill="#512da8"><rect height="8" opacity=".243" rx="3.843" width="7.686" x="41.538" y="92"/><rect height="8" opacity=".245" rx="4" width="27.862" x="51.146" y="92"/><rect height="8" opacity=".243" rx="3.843" width="7.686" x="80.929" y="92"/></g><g fill="#512da8"><rect height="8" opacity=".243" rx="3.843" width="7.686" x="41.538" y="146"/><rect height="8" opacity=".245" rx="4" width="27.862" x="51.146" y="146"/><rect height="8" opacity=".243" rx="3.843" width="7.686" x="80.929" y="146"/></g><rect fill="#8792a2" height="8" opacity=".163" rx="3" width="160.615" x="9.231" y="243"/><rect fill="#8792a2" height="8" opacity=".163" rx="3" width="232.615" x="9.231" y="296"/><rect fill="#8792a2" height="8" opacity=".772" rx="3" width="92.308" x="9.231" y="278"/><rect fill="#8792a2" height="8" opacity=".772" rx="3" width="44.308" x="9.231" y="225"/></g><g fill="#8792a2"><g><rect height="8" opacity=".58" rx="3" width="97.846" x="54.461" y="351"/><rect height="8" opacity=".58" rx="3" width="153.231" x="54.461" y="368"/><rect height="12" opacity=".8" rx="6" width="17.538" x="27.692" y="366"/><rect height="12" opacity=".8" rx="6" width="17.538" x="27.692" y="349"/></g><path d="m28 278h424.615v2h-424.615z" opacity=".243"/><path d="m28 226h424.615v2h-424.615z" opacity=".243"/><path d="m27.692 330h424.615v2h-424.615z" opacity=".243"/></g></g><g fill="#8792a2"><rect height="16" opacity=".399" rx="8" width="110.571" x="40" y="291"/><rect height="8" opacity=".18" rx="4" width="55.286" x="155.179" y="295"/><rect height="8" opacity=".18" rx="3.686" width="7.371" x="215.071" y="295"/><rect height="8" opacity=".18" rx="4" width="70.95" x="227.05" y="295"/></g></g></svg>