<svg height="150" viewBox="0 0 150 150" width="150" xmlns="http://www.w3.org/2000/svg" xmlns:xlink="http://www.w3.org/1999/xlink"><linearGradient id="a" x1="50%" x2="50%" y1="-45.146761%" y2="26.678074%"><stop offset="0" stop-color="#2a6cbe"/><stop offset=".386877111" stop-color="#2062bc"/><stop offset=".49181799" stop-color="#1f5fbc"/><stop offset=".66583087" stop-color="#1c5abd"/><stop offset=".853542019" stop-color="#1956bc"/><stop offset="1" stop-color="#1851be"/></linearGradient><g fill="none" fill-rule="evenodd"><path d="m0 0h150v150h-150z" fill="#fff"/><path d="m150 0v150h-150v-150zm-68.7792205 36.6174208h-4.1918295c-1.1045695 0-2 .8954305-2 2l-.0000443 26.0963006c-4.8836662-4.5419585-11.5566046-7.240819-19.2021886-7.240819-15.8824634 0-27.7367657 11.815885-27.7367657 27.6082698s11.8543023 27.6082698 27.7367657 27.6082698c11.5928938 0 20.9495546-6.205015 25.2214326-15.6320203.6449775.7987844 1.3355544 1.5579048 2.0686388 2.2742644 4.9366991 4.8240719 11.8010636 7.7089889 19.6489275 7.7089889 15.997553 0 27.736765-11.8158848 27.736765-27.6082696s-11.739212-27.6082698-27.736765-27.6082698c-7.1334551 0-13.4543208 2.3835834-18.25352 6.4404726-.2922572.2470526 0-8.7134286 0-17.3567637 0-2.9683951-2.1979202-4.2904237-3.2914165-4.2904237zm-25.6504782 32.4020604c9.6334487 0 16.4086214 7.1473136 16.4086214 16.4086214 0 9.059975-6.7751727 16.4086214-16.4086214 16.4086214s-16.4086214-7.3486464-16.4086214-16.4086214c0-9.2613078 6.7751727-16.4086214 16.4086214-16.4086214zm47.8270877-4.6099003c9.633449 0 16.408621 7.1473136 16.408621 16.4086214 0 9.059975-6.775172 16.4086214-16.408621 16.4086214-9.6334488 0-16.4086215-7.3486464-16.4086215-16.4086214 0-9.2613078 6.7751727-16.4086214 16.4086215-16.4086214zm-70.1552244-22.2986445h-3.2543799c-1.0069146 0-1.8231802.8162656-1.8231802 1.8231802v26.9298172c0 .0398293.0207301.0767875.054718.0975528.053877.0329168.1242372.0159252.4862704.1631258 1.598163-2.6158156 2.9731081-4.5491478 4.1248352-5.7999966.7300892-.7929233 2.1038257-2.0227357 4.1212096-3.6894374.3449142-.2849577.5446248-.709004.5446139-1.1564039v-14.113751c0-2.3494674-1.9046196-4.2540871-4.254087-4.2540871z" fill="url(#a)" fill-rule="nonzero"/></g></svg>