<svg xmlns="http://www.w3.org/2000/svg" width="16" height="16" viewBox="0 0 16 16">
  <defs>
    <radialGradient id="icon-a" cx="65.6%" cy=".008%" r="165.139%" fx="65.6%" fy=".008%" gradientTransform="matrix(-.53053 .60556 -.4037 -.7958 1.004 -.397)">
      <stop offset="0%" stop-color="#2A6CBE"/>
      <stop offset="38.688%" stop-color="#2062BC"/>
      <stop offset="49.182%" stop-color="#1F5FBC"/>
      <stop offset="66.583%" stop-color="#1C5ABD"/>
      <stop offset="85.354%" stop-color="#1956BC"/>
      <stop offset="100%" stop-color="#1851BE"/>
    </radialGradient>
  </defs>
  <path fill="url(#icon-a)" d="M7.82142857,3 L7.82142857,10.1722845 C7.82009107,11.3668448 7.80169464,12.1896781 7.80169464,13 L7.80169464,13 L4.00875982,13 C1.74326107,13 0.5,11.9 0.5,10.1714286 C0.5,9.01428572 1.13544429,8.17142857 2.13005357,7.82857143 C1.31502661,7.47142857 0.817721964,6.67142857 0.817721964,5.68571428 C0.817721964,4.08571428 2.04716946,3 4.20215607,3 L4.20215607,3 L7.82142857,3 Z M11.7978439,3 C13.9528305,3 15.182278,4.08571428 15.182278,5.68571428 C15.182278,6.67142857 14.6849734,7.47142857 13.8699464,7.82857143 C14.8645557,8.17142857 15.5,9.01428572 15.5,10.1714286 C15.5,11.9 14.2567389,13 11.9912402,13 L8.19830536,13 L8.19830536,13 C8.19830536,12.1896781 8.17990893,11.3668448 8.17857143,10.1722845 L8.17857143,3 L11.7978439,3 Z M5.87365214,8.71428572 L4.16071411,8.71428572 C3.02796464,8.71428572 2.46159,9.15714285 2.46159,10.0285714 C2.46159,10.9428571 2.98652268,11.4 4.02257393,11.4 L4.02257393,11.4 L4.920485,11.4 C5.63881393,11.4 5.87365214,11.0428571 5.87365214,9.95714285 L5.87365214,9.95714285 L5.87365214,8.71428572 Z M11.8392859,8.71428572 L10.1263479,8.71428572 L10.1263479,9.95714285 C10.1263479,11.0428571 10.3611861,11.4 11.079515,11.4 L11.9774261,11.4 C13.0134773,11.4 13.53841,10.9428571 13.53841,10.0285714 C13.53841,9.15714285 12.9720354,8.71428572 11.8392859,8.71428572 Z M5.88746625,4.6 L4.31266821,4.6 C3.304245,4.6 2.77931232,5.07142857 2.77931232,5.87142857 C2.77931232,6.67142857 3.304245,7.14285715 4.31266821,7.14285715 L4.31266821,7.14285715 L5.88746625,7.14285715 L5.88746625,4.6 Z M11.6873318,4.6 L10.1125338,4.6 L10.1125338,7.14285715 L11.6873318,7.14285715 C12.695755,7.14285715 13.2206877,6.67142857 13.2206877,5.87142857 C13.2206877,5.07142857 12.695755,4.6 11.6873318,4.6 Z"/>
</svg>
