<svg height="126" viewBox="0 0 126 126" width="126" xmlns="http://www.w3.org/2000/svg" xmlns:xlink="http://www.w3.org/1999/xlink"><linearGradient id="a" x1="50%" x2="50%" y1="-45.146761%" y2="26.678074%"><stop offset="0" stop-color="#2a6cbe"/><stop offset=".386877111" stop-color="#2062bc"/><stop offset=".49181799" stop-color="#1f5fbc"/><stop offset=".66583087" stop-color="#1c5abd"/><stop offset=".853542019" stop-color="#1956bc"/><stop offset="1" stop-color="#1851be"/></linearGradient><path d="m62.7053667 15c34.078933 0 61.7053663 21.3686851 61.7053663 47.728294 0 26.359609-27.6264333 47.728294-61.7053663 47.728294s-61.7053667-21.368685-61.7053667-47.728294c0-26.3596089 27.6264337-47.728294 61.7053667-47.728294zm5.1180731 16.1400019h-3.0942548c-1.1045695 0-2 .8954305-2 2l.0005332 21.1164302c-4.0180296-3.7371627-9.5083327-5.9578283-15.7989442-5.9578283-13.0671097 0-22.8200973 9.7213802-22.8200973 22.7143788s9.7529876 22.7143788 22.8200973 22.7143788c9.5373991 0 17.2351636-5.1045487 20.7514096-12.8601034.5304264.6568397 1.0983315 1.2810769 1.7011752 1.8701671 4.0616111 3.9689479 9.7091861 6.34248 16.1659235 6.34248 13.1617988 0 22.8200977-9.7213803 22.8200977-22.7143789s-9.6582989-22.7143788-22.8200977-22.7143788c-5.8689659 0-11.0693838 1.9610652-15.0178684 5.298823-.2404511.2032597 0-7.1688707 0-14.2800729 0-2.4422122-1.8083129-3.5298956-2.7079741-3.5298956zm-21.1036289 26.6584136c7.9258064 0 13.5 5.8803681 13.5 13.5 0 7.4539877-5.5741936 13.5-13.5 13.5-7.9258065 0-13.5-6.0460123-13.5-13.5 0-7.6196319 5.5741935-13.5 13.5-13.5zm39.349173-3.7927412c7.9258065 0 13.5 5.8803681 13.5 13.5 0 7.4539877-5.5741935 13.5-13.5 13.5-7.9258064 0-13.5-6.0460123-13.5-13.5 0-7.6196319 5.5741936-13.5 13.5-13.5zm-57.7193845-18.3459471h-2.6775027c-.8284271 0-1.5.6715729-1.5 1.5v21.3337144c0 .1717022.0880998.3313954.2333443.4229689.2335993.1472792.5423623.077303.6896272-.1563053 1.1130902-1.7654697 2.0850168-3.0993352 2.9157798-4.0015967.5891061-.6398066 1.6875681-1.6253493 3.2953861-2.9566281.3441599-.2849656.5433606-.7085274.5433653-1.1553511v-11.4868021c0-1.9329966-1.5670034-3.5-3.5-3.5z" fill="url(#a)"/></svg>